%
M48
M72
T01C0.01378
T02C0.03150
T03C0.04000
T04C0.12000
%
T01
X95552Y118111
X110552Y110611
X115511Y125570
X120566Y131723
X148052Y140611
X146802Y164361
X148052Y190611
X153052Y190611
X158052Y190611
X158052Y208111
X140552Y235611
X180552Y210611
X183052Y238111
X168052Y130611
X165552Y125611
X163052Y123111
T02
X98722Y302800
X103722Y311460
X108722Y320121
X113722Y328781
T03
X140552Y288111
X140552Y278111
X150552Y278111
X150552Y288111
X160552Y288111
X160552Y278111
X170552Y278111
X170552Y288111
X180552Y288111
X180552Y278111
X180552Y258111
X180552Y248111
X170552Y248111
X170552Y258111
X160552Y258111
X160552Y248111
X150552Y248111
X150552Y258111
X140552Y258111
X140552Y248111
X183052Y158111
X183052Y148111
X183052Y138111
X183052Y128111
X198052Y128111
X198052Y138111
X198052Y148111
X198052Y158111
X198052Y168111
X198052Y178111
X165552Y100611
X165552Y90611
X155552Y90611
X155552Y100611
X145552Y100611
X145552Y90611
T04
X93052Y58111
X100552Y143111
X100552Y280611
X183052Y175611
X198052Y285611
M30
