G75*
%MOIN*%
%OFA0B0*%
%FSLAX25Y25*%
%IPPOS*%
%LPD*%
%AMOC8*
5,1,8,0,0,1.08239X$1,22.5*
%
%ADD10C,0.00600*%
%ADD11C,0.00000*%
%ADD12C,0.07400*%
%ADD13R,0.05906X0.05118*%
%ADD14R,0.08661X0.02362*%
%ADD15C,0.07600*%
%ADD16R,0.07874X0.04724*%
%ADD17R,0.06299X0.09055*%
%ADD18R,0.03937X0.05512*%
%ADD19C,0.01200*%
%ADD20C,0.02578*%
%ADD21C,0.02400*%
D10*
X0044283Y0005655D02*
X0044283Y0066600D01*
X0044283Y0005655D02*
X0130869Y0005655D01*
X0132201Y0005671D01*
X0133532Y0005719D01*
X0134861Y0005800D01*
X0136189Y0005912D01*
X0137513Y0006057D01*
X0138833Y0006233D01*
X0140149Y0006442D01*
X0141459Y0006682D01*
X0142763Y0006954D01*
X0144060Y0007257D01*
X0145349Y0007591D01*
X0146630Y0007956D01*
X0147901Y0008353D01*
X0149163Y0008780D01*
X0150414Y0009237D01*
X0151654Y0009724D01*
X0152881Y0010241D01*
X0154096Y0010788D01*
X0155297Y0011364D01*
X0156484Y0011968D01*
X0157655Y0012602D01*
X0158812Y0013263D01*
X0159951Y0013952D01*
X0161074Y0014668D01*
X0162180Y0015412D01*
X0163267Y0016182D01*
X0164335Y0016977D01*
X0165383Y0017799D01*
X0166411Y0018645D01*
X0167419Y0019517D01*
X0168405Y0020412D01*
X0169370Y0021331D01*
X0170311Y0022272D01*
X0171230Y0023237D01*
X0172125Y0024223D01*
X0172997Y0025231D01*
X0173843Y0026259D01*
X0174665Y0027307D01*
X0175460Y0028375D01*
X0176230Y0029462D01*
X0176974Y0030568D01*
X0177690Y0031691D01*
X0178379Y0032830D01*
X0179040Y0033987D01*
X0179674Y0035158D01*
X0180278Y0036345D01*
X0180854Y0037546D01*
X0181401Y0038761D01*
X0181918Y0039988D01*
X0182405Y0041228D01*
X0182862Y0042479D01*
X0183289Y0043741D01*
X0183686Y0045012D01*
X0184051Y0046293D01*
X0184385Y0047582D01*
X0184688Y0048879D01*
X0184960Y0050183D01*
X0185200Y0051493D01*
X0185409Y0052809D01*
X0185585Y0054129D01*
X0185730Y0055453D01*
X0185842Y0056781D01*
X0185923Y0058110D01*
X0185971Y0059441D01*
X0185987Y0060773D01*
X0185987Y0226128D01*
X0185971Y0227460D01*
X0185923Y0228791D01*
X0185842Y0230120D01*
X0185730Y0231448D01*
X0185585Y0232772D01*
X0185409Y0234092D01*
X0185200Y0235408D01*
X0184960Y0236718D01*
X0184688Y0238022D01*
X0184385Y0239319D01*
X0184051Y0240608D01*
X0183686Y0241889D01*
X0183289Y0243160D01*
X0182862Y0244422D01*
X0182405Y0245673D01*
X0181918Y0246913D01*
X0181401Y0248140D01*
X0180854Y0249355D01*
X0180278Y0250556D01*
X0179674Y0251743D01*
X0179040Y0252914D01*
X0178379Y0254071D01*
X0177690Y0255210D01*
X0176974Y0256333D01*
X0176230Y0257439D01*
X0175460Y0258526D01*
X0174665Y0259594D01*
X0173843Y0260642D01*
X0172997Y0261670D01*
X0172125Y0262678D01*
X0171230Y0263664D01*
X0170311Y0264629D01*
X0169370Y0265570D01*
X0168405Y0266489D01*
X0167419Y0267384D01*
X0166411Y0268256D01*
X0165383Y0269102D01*
X0164335Y0269924D01*
X0163267Y0270719D01*
X0162180Y0271489D01*
X0161074Y0272233D01*
X0159951Y0272949D01*
X0158812Y0273638D01*
X0157655Y0274299D01*
X0156484Y0274933D01*
X0155297Y0275537D01*
X0154096Y0276113D01*
X0152881Y0276660D01*
X0151654Y0277177D01*
X0150414Y0277664D01*
X0149163Y0278121D01*
X0147901Y0278548D01*
X0146630Y0278945D01*
X0145349Y0279310D01*
X0144060Y0279644D01*
X0142763Y0279947D01*
X0141459Y0280219D01*
X0140149Y0280459D01*
X0138833Y0280668D01*
X0137513Y0280844D01*
X0136189Y0280989D01*
X0134861Y0281101D01*
X0133532Y0281182D01*
X0132201Y0281230D01*
X0130869Y0281246D01*
X0044283Y0281246D01*
X0044283Y0220606D01*
X0046142Y0218335D01*
X0047944Y0216019D01*
X0049689Y0213660D01*
X0051376Y0211259D01*
X0053004Y0208817D01*
X0054571Y0206336D01*
X0056077Y0203818D01*
X0057520Y0201263D01*
X0058901Y0198674D01*
X0060218Y0196052D01*
X0061471Y0193398D01*
X0062657Y0190714D01*
X0063778Y0188002D01*
X0064832Y0185264D01*
X0065819Y0182500D01*
X0066738Y0179713D01*
X0067588Y0176905D01*
X0068369Y0174076D01*
X0069081Y0171230D01*
X0069723Y0168366D01*
X0070294Y0165488D01*
X0070795Y0162597D01*
X0071224Y0159694D01*
X0071583Y0156781D01*
X0071870Y0153861D01*
X0072085Y0150935D01*
X0072229Y0148004D01*
X0072301Y0145070D01*
X0072301Y0142136D01*
X0072229Y0139202D01*
X0072085Y0136271D01*
X0071870Y0133345D01*
X0071583Y0130425D01*
X0071224Y0127512D01*
X0070795Y0124609D01*
X0070294Y0121718D01*
X0069723Y0118840D01*
X0069081Y0115976D01*
X0068369Y0113130D01*
X0067588Y0110301D01*
X0066738Y0107493D01*
X0065819Y0104706D01*
X0064832Y0101942D01*
X0063778Y0099204D01*
X0062657Y0096492D01*
X0061471Y0093808D01*
X0060218Y0091154D01*
X0058901Y0088532D01*
X0057520Y0085943D01*
X0056077Y0083388D01*
X0054571Y0080870D01*
X0053004Y0078389D01*
X0051376Y0075947D01*
X0049689Y0073546D01*
X0047944Y0071187D01*
X0046142Y0068871D01*
X0044283Y0066600D01*
D11*
X0073704Y0109100D02*
X0073706Y0109284D01*
X0073713Y0109468D01*
X0073724Y0109652D01*
X0073740Y0109835D01*
X0073760Y0110018D01*
X0073785Y0110200D01*
X0073814Y0110382D01*
X0073848Y0110563D01*
X0073886Y0110743D01*
X0073929Y0110922D01*
X0073976Y0111100D01*
X0074027Y0111277D01*
X0074083Y0111453D01*
X0074142Y0111627D01*
X0074207Y0111799D01*
X0074275Y0111970D01*
X0074347Y0112139D01*
X0074424Y0112307D01*
X0074505Y0112472D01*
X0074590Y0112635D01*
X0074678Y0112797D01*
X0074771Y0112956D01*
X0074868Y0113112D01*
X0074968Y0113267D01*
X0075072Y0113419D01*
X0075180Y0113568D01*
X0075291Y0113714D01*
X0075406Y0113858D01*
X0075525Y0113999D01*
X0075647Y0114137D01*
X0075772Y0114272D01*
X0075901Y0114403D01*
X0076032Y0114532D01*
X0076167Y0114657D01*
X0076305Y0114779D01*
X0076446Y0114898D01*
X0076590Y0115013D01*
X0076736Y0115124D01*
X0076885Y0115232D01*
X0077037Y0115336D01*
X0077192Y0115436D01*
X0077348Y0115533D01*
X0077507Y0115626D01*
X0077669Y0115714D01*
X0077832Y0115799D01*
X0077997Y0115880D01*
X0078165Y0115957D01*
X0078334Y0116029D01*
X0078505Y0116097D01*
X0078677Y0116162D01*
X0078851Y0116221D01*
X0079027Y0116277D01*
X0079204Y0116328D01*
X0079382Y0116375D01*
X0079561Y0116418D01*
X0079741Y0116456D01*
X0079922Y0116490D01*
X0080104Y0116519D01*
X0080286Y0116544D01*
X0080469Y0116564D01*
X0080652Y0116580D01*
X0080836Y0116591D01*
X0081020Y0116598D01*
X0081204Y0116600D01*
X0081388Y0116598D01*
X0081572Y0116591D01*
X0081756Y0116580D01*
X0081939Y0116564D01*
X0082122Y0116544D01*
X0082304Y0116519D01*
X0082486Y0116490D01*
X0082667Y0116456D01*
X0082847Y0116418D01*
X0083026Y0116375D01*
X0083204Y0116328D01*
X0083381Y0116277D01*
X0083557Y0116221D01*
X0083731Y0116162D01*
X0083903Y0116097D01*
X0084074Y0116029D01*
X0084243Y0115957D01*
X0084411Y0115880D01*
X0084576Y0115799D01*
X0084739Y0115714D01*
X0084901Y0115626D01*
X0085060Y0115533D01*
X0085216Y0115436D01*
X0085371Y0115336D01*
X0085523Y0115232D01*
X0085672Y0115124D01*
X0085818Y0115013D01*
X0085962Y0114898D01*
X0086103Y0114779D01*
X0086241Y0114657D01*
X0086376Y0114532D01*
X0086507Y0114403D01*
X0086636Y0114272D01*
X0086761Y0114137D01*
X0086883Y0113999D01*
X0087002Y0113858D01*
X0087117Y0113714D01*
X0087228Y0113568D01*
X0087336Y0113419D01*
X0087440Y0113267D01*
X0087540Y0113112D01*
X0087637Y0112956D01*
X0087730Y0112797D01*
X0087818Y0112635D01*
X0087903Y0112472D01*
X0087984Y0112307D01*
X0088061Y0112139D01*
X0088133Y0111970D01*
X0088201Y0111799D01*
X0088266Y0111627D01*
X0088325Y0111453D01*
X0088381Y0111277D01*
X0088432Y0111100D01*
X0088479Y0110922D01*
X0088522Y0110743D01*
X0088560Y0110563D01*
X0088594Y0110382D01*
X0088623Y0110200D01*
X0088648Y0110018D01*
X0088668Y0109835D01*
X0088684Y0109652D01*
X0088695Y0109468D01*
X0088702Y0109284D01*
X0088704Y0109100D01*
X0088702Y0108916D01*
X0088695Y0108732D01*
X0088684Y0108548D01*
X0088668Y0108365D01*
X0088648Y0108182D01*
X0088623Y0108000D01*
X0088594Y0107818D01*
X0088560Y0107637D01*
X0088522Y0107457D01*
X0088479Y0107278D01*
X0088432Y0107100D01*
X0088381Y0106923D01*
X0088325Y0106747D01*
X0088266Y0106573D01*
X0088201Y0106401D01*
X0088133Y0106230D01*
X0088061Y0106061D01*
X0087984Y0105893D01*
X0087903Y0105728D01*
X0087818Y0105565D01*
X0087730Y0105403D01*
X0087637Y0105244D01*
X0087540Y0105088D01*
X0087440Y0104933D01*
X0087336Y0104781D01*
X0087228Y0104632D01*
X0087117Y0104486D01*
X0087002Y0104342D01*
X0086883Y0104201D01*
X0086761Y0104063D01*
X0086636Y0103928D01*
X0086507Y0103797D01*
X0086376Y0103668D01*
X0086241Y0103543D01*
X0086103Y0103421D01*
X0085962Y0103302D01*
X0085818Y0103187D01*
X0085672Y0103076D01*
X0085523Y0102968D01*
X0085371Y0102864D01*
X0085216Y0102764D01*
X0085060Y0102667D01*
X0084901Y0102574D01*
X0084739Y0102486D01*
X0084576Y0102401D01*
X0084411Y0102320D01*
X0084243Y0102243D01*
X0084074Y0102171D01*
X0083903Y0102103D01*
X0083731Y0102038D01*
X0083557Y0101979D01*
X0083381Y0101923D01*
X0083204Y0101872D01*
X0083026Y0101825D01*
X0082847Y0101782D01*
X0082667Y0101744D01*
X0082486Y0101710D01*
X0082304Y0101681D01*
X0082122Y0101656D01*
X0081939Y0101636D01*
X0081756Y0101620D01*
X0081572Y0101609D01*
X0081388Y0101602D01*
X0081204Y0101600D01*
X0081020Y0101602D01*
X0080836Y0101609D01*
X0080652Y0101620D01*
X0080469Y0101636D01*
X0080286Y0101656D01*
X0080104Y0101681D01*
X0079922Y0101710D01*
X0079741Y0101744D01*
X0079561Y0101782D01*
X0079382Y0101825D01*
X0079204Y0101872D01*
X0079027Y0101923D01*
X0078851Y0101979D01*
X0078677Y0102038D01*
X0078505Y0102103D01*
X0078334Y0102171D01*
X0078165Y0102243D01*
X0077997Y0102320D01*
X0077832Y0102401D01*
X0077669Y0102486D01*
X0077507Y0102574D01*
X0077348Y0102667D01*
X0077192Y0102764D01*
X0077037Y0102864D01*
X0076885Y0102968D01*
X0076736Y0103076D01*
X0076590Y0103187D01*
X0076446Y0103302D01*
X0076305Y0103421D01*
X0076167Y0103543D01*
X0076032Y0103668D01*
X0075901Y0103797D01*
X0075772Y0103928D01*
X0075647Y0104063D01*
X0075525Y0104201D01*
X0075406Y0104342D01*
X0075291Y0104486D01*
X0075180Y0104632D01*
X0075072Y0104781D01*
X0074968Y0104933D01*
X0074868Y0105088D01*
X0074771Y0105244D01*
X0074678Y0105403D01*
X0074590Y0105565D01*
X0074505Y0105728D01*
X0074424Y0105893D01*
X0074347Y0106061D01*
X0074275Y0106230D01*
X0074207Y0106401D01*
X0074142Y0106573D01*
X0074083Y0106747D01*
X0074027Y0106923D01*
X0073976Y0107100D01*
X0073929Y0107278D01*
X0073886Y0107457D01*
X0073848Y0107637D01*
X0073814Y0107818D01*
X0073785Y0108000D01*
X0073760Y0108182D01*
X0073740Y0108365D01*
X0073724Y0108548D01*
X0073713Y0108732D01*
X0073706Y0108916D01*
X0073704Y0109100D01*
X0061204Y0209100D02*
X0061206Y0209284D01*
X0061213Y0209468D01*
X0061224Y0209652D01*
X0061240Y0209835D01*
X0061260Y0210018D01*
X0061285Y0210200D01*
X0061314Y0210382D01*
X0061348Y0210563D01*
X0061386Y0210743D01*
X0061429Y0210922D01*
X0061476Y0211100D01*
X0061527Y0211277D01*
X0061583Y0211453D01*
X0061642Y0211627D01*
X0061707Y0211799D01*
X0061775Y0211970D01*
X0061847Y0212139D01*
X0061924Y0212307D01*
X0062005Y0212472D01*
X0062090Y0212635D01*
X0062178Y0212797D01*
X0062271Y0212956D01*
X0062368Y0213112D01*
X0062468Y0213267D01*
X0062572Y0213419D01*
X0062680Y0213568D01*
X0062791Y0213714D01*
X0062906Y0213858D01*
X0063025Y0213999D01*
X0063147Y0214137D01*
X0063272Y0214272D01*
X0063401Y0214403D01*
X0063532Y0214532D01*
X0063667Y0214657D01*
X0063805Y0214779D01*
X0063946Y0214898D01*
X0064090Y0215013D01*
X0064236Y0215124D01*
X0064385Y0215232D01*
X0064537Y0215336D01*
X0064692Y0215436D01*
X0064848Y0215533D01*
X0065007Y0215626D01*
X0065169Y0215714D01*
X0065332Y0215799D01*
X0065497Y0215880D01*
X0065665Y0215957D01*
X0065834Y0216029D01*
X0066005Y0216097D01*
X0066177Y0216162D01*
X0066351Y0216221D01*
X0066527Y0216277D01*
X0066704Y0216328D01*
X0066882Y0216375D01*
X0067061Y0216418D01*
X0067241Y0216456D01*
X0067422Y0216490D01*
X0067604Y0216519D01*
X0067786Y0216544D01*
X0067969Y0216564D01*
X0068152Y0216580D01*
X0068336Y0216591D01*
X0068520Y0216598D01*
X0068704Y0216600D01*
X0068888Y0216598D01*
X0069072Y0216591D01*
X0069256Y0216580D01*
X0069439Y0216564D01*
X0069622Y0216544D01*
X0069804Y0216519D01*
X0069986Y0216490D01*
X0070167Y0216456D01*
X0070347Y0216418D01*
X0070526Y0216375D01*
X0070704Y0216328D01*
X0070881Y0216277D01*
X0071057Y0216221D01*
X0071231Y0216162D01*
X0071403Y0216097D01*
X0071574Y0216029D01*
X0071743Y0215957D01*
X0071911Y0215880D01*
X0072076Y0215799D01*
X0072239Y0215714D01*
X0072401Y0215626D01*
X0072560Y0215533D01*
X0072716Y0215436D01*
X0072871Y0215336D01*
X0073023Y0215232D01*
X0073172Y0215124D01*
X0073318Y0215013D01*
X0073462Y0214898D01*
X0073603Y0214779D01*
X0073741Y0214657D01*
X0073876Y0214532D01*
X0074007Y0214403D01*
X0074136Y0214272D01*
X0074261Y0214137D01*
X0074383Y0213999D01*
X0074502Y0213858D01*
X0074617Y0213714D01*
X0074728Y0213568D01*
X0074836Y0213419D01*
X0074940Y0213267D01*
X0075040Y0213112D01*
X0075137Y0212956D01*
X0075230Y0212797D01*
X0075318Y0212635D01*
X0075403Y0212472D01*
X0075484Y0212307D01*
X0075561Y0212139D01*
X0075633Y0211970D01*
X0075701Y0211799D01*
X0075766Y0211627D01*
X0075825Y0211453D01*
X0075881Y0211277D01*
X0075932Y0211100D01*
X0075979Y0210922D01*
X0076022Y0210743D01*
X0076060Y0210563D01*
X0076094Y0210382D01*
X0076123Y0210200D01*
X0076148Y0210018D01*
X0076168Y0209835D01*
X0076184Y0209652D01*
X0076195Y0209468D01*
X0076202Y0209284D01*
X0076204Y0209100D01*
X0076202Y0208916D01*
X0076195Y0208732D01*
X0076184Y0208548D01*
X0076168Y0208365D01*
X0076148Y0208182D01*
X0076123Y0208000D01*
X0076094Y0207818D01*
X0076060Y0207637D01*
X0076022Y0207457D01*
X0075979Y0207278D01*
X0075932Y0207100D01*
X0075881Y0206923D01*
X0075825Y0206747D01*
X0075766Y0206573D01*
X0075701Y0206401D01*
X0075633Y0206230D01*
X0075561Y0206061D01*
X0075484Y0205893D01*
X0075403Y0205728D01*
X0075318Y0205565D01*
X0075230Y0205403D01*
X0075137Y0205244D01*
X0075040Y0205088D01*
X0074940Y0204933D01*
X0074836Y0204781D01*
X0074728Y0204632D01*
X0074617Y0204486D01*
X0074502Y0204342D01*
X0074383Y0204201D01*
X0074261Y0204063D01*
X0074136Y0203928D01*
X0074007Y0203797D01*
X0073876Y0203668D01*
X0073741Y0203543D01*
X0073603Y0203421D01*
X0073462Y0203302D01*
X0073318Y0203187D01*
X0073172Y0203076D01*
X0073023Y0202968D01*
X0072871Y0202864D01*
X0072716Y0202764D01*
X0072560Y0202667D01*
X0072401Y0202574D01*
X0072239Y0202486D01*
X0072076Y0202401D01*
X0071911Y0202320D01*
X0071743Y0202243D01*
X0071574Y0202171D01*
X0071403Y0202103D01*
X0071231Y0202038D01*
X0071057Y0201979D01*
X0070881Y0201923D01*
X0070704Y0201872D01*
X0070526Y0201825D01*
X0070347Y0201782D01*
X0070167Y0201744D01*
X0069986Y0201710D01*
X0069804Y0201681D01*
X0069622Y0201656D01*
X0069439Y0201636D01*
X0069256Y0201620D01*
X0069072Y0201609D01*
X0068888Y0201602D01*
X0068704Y0201600D01*
X0068520Y0201602D01*
X0068336Y0201609D01*
X0068152Y0201620D01*
X0067969Y0201636D01*
X0067786Y0201656D01*
X0067604Y0201681D01*
X0067422Y0201710D01*
X0067241Y0201744D01*
X0067061Y0201782D01*
X0066882Y0201825D01*
X0066704Y0201872D01*
X0066527Y0201923D01*
X0066351Y0201979D01*
X0066177Y0202038D01*
X0066005Y0202103D01*
X0065834Y0202171D01*
X0065665Y0202243D01*
X0065497Y0202320D01*
X0065332Y0202401D01*
X0065169Y0202486D01*
X0065007Y0202574D01*
X0064848Y0202667D01*
X0064692Y0202764D01*
X0064537Y0202864D01*
X0064385Y0202968D01*
X0064236Y0203076D01*
X0064090Y0203187D01*
X0063946Y0203302D01*
X0063805Y0203421D01*
X0063667Y0203543D01*
X0063532Y0203668D01*
X0063401Y0203797D01*
X0063272Y0203928D01*
X0063147Y0204063D01*
X0063025Y0204201D01*
X0062906Y0204342D01*
X0062791Y0204486D01*
X0062680Y0204632D01*
X0062572Y0204781D01*
X0062468Y0204933D01*
X0062368Y0205088D01*
X0062271Y0205244D01*
X0062178Y0205403D01*
X0062090Y0205565D01*
X0062005Y0205728D01*
X0061924Y0205893D01*
X0061847Y0206061D01*
X0061775Y0206230D01*
X0061707Y0206401D01*
X0061642Y0206573D01*
X0061583Y0206747D01*
X0061527Y0206923D01*
X0061476Y0207100D01*
X0061429Y0207278D01*
X0061386Y0207457D01*
X0061348Y0207637D01*
X0061314Y0207818D01*
X0061285Y0208000D01*
X0061260Y0208182D01*
X0061240Y0208365D01*
X0061224Y0208548D01*
X0061213Y0208732D01*
X0061206Y0208916D01*
X0061204Y0209100D01*
X0163704Y0066600D02*
X0163706Y0066784D01*
X0163713Y0066968D01*
X0163724Y0067152D01*
X0163740Y0067335D01*
X0163760Y0067518D01*
X0163785Y0067700D01*
X0163814Y0067882D01*
X0163848Y0068063D01*
X0163886Y0068243D01*
X0163929Y0068422D01*
X0163976Y0068600D01*
X0164027Y0068777D01*
X0164083Y0068953D01*
X0164142Y0069127D01*
X0164207Y0069299D01*
X0164275Y0069470D01*
X0164347Y0069639D01*
X0164424Y0069807D01*
X0164505Y0069972D01*
X0164590Y0070135D01*
X0164678Y0070297D01*
X0164771Y0070456D01*
X0164868Y0070612D01*
X0164968Y0070767D01*
X0165072Y0070919D01*
X0165180Y0071068D01*
X0165291Y0071214D01*
X0165406Y0071358D01*
X0165525Y0071499D01*
X0165647Y0071637D01*
X0165772Y0071772D01*
X0165901Y0071903D01*
X0166032Y0072032D01*
X0166167Y0072157D01*
X0166305Y0072279D01*
X0166446Y0072398D01*
X0166590Y0072513D01*
X0166736Y0072624D01*
X0166885Y0072732D01*
X0167037Y0072836D01*
X0167192Y0072936D01*
X0167348Y0073033D01*
X0167507Y0073126D01*
X0167669Y0073214D01*
X0167832Y0073299D01*
X0167997Y0073380D01*
X0168165Y0073457D01*
X0168334Y0073529D01*
X0168505Y0073597D01*
X0168677Y0073662D01*
X0168851Y0073721D01*
X0169027Y0073777D01*
X0169204Y0073828D01*
X0169382Y0073875D01*
X0169561Y0073918D01*
X0169741Y0073956D01*
X0169922Y0073990D01*
X0170104Y0074019D01*
X0170286Y0074044D01*
X0170469Y0074064D01*
X0170652Y0074080D01*
X0170836Y0074091D01*
X0171020Y0074098D01*
X0171204Y0074100D01*
X0171388Y0074098D01*
X0171572Y0074091D01*
X0171756Y0074080D01*
X0171939Y0074064D01*
X0172122Y0074044D01*
X0172304Y0074019D01*
X0172486Y0073990D01*
X0172667Y0073956D01*
X0172847Y0073918D01*
X0173026Y0073875D01*
X0173204Y0073828D01*
X0173381Y0073777D01*
X0173557Y0073721D01*
X0173731Y0073662D01*
X0173903Y0073597D01*
X0174074Y0073529D01*
X0174243Y0073457D01*
X0174411Y0073380D01*
X0174576Y0073299D01*
X0174739Y0073214D01*
X0174901Y0073126D01*
X0175060Y0073033D01*
X0175216Y0072936D01*
X0175371Y0072836D01*
X0175523Y0072732D01*
X0175672Y0072624D01*
X0175818Y0072513D01*
X0175962Y0072398D01*
X0176103Y0072279D01*
X0176241Y0072157D01*
X0176376Y0072032D01*
X0176507Y0071903D01*
X0176636Y0071772D01*
X0176761Y0071637D01*
X0176883Y0071499D01*
X0177002Y0071358D01*
X0177117Y0071214D01*
X0177228Y0071068D01*
X0177336Y0070919D01*
X0177440Y0070767D01*
X0177540Y0070612D01*
X0177637Y0070456D01*
X0177730Y0070297D01*
X0177818Y0070135D01*
X0177903Y0069972D01*
X0177984Y0069807D01*
X0178061Y0069639D01*
X0178133Y0069470D01*
X0178201Y0069299D01*
X0178266Y0069127D01*
X0178325Y0068953D01*
X0178381Y0068777D01*
X0178432Y0068600D01*
X0178479Y0068422D01*
X0178522Y0068243D01*
X0178560Y0068063D01*
X0178594Y0067882D01*
X0178623Y0067700D01*
X0178648Y0067518D01*
X0178668Y0067335D01*
X0178684Y0067152D01*
X0178695Y0066968D01*
X0178702Y0066784D01*
X0178704Y0066600D01*
X0178702Y0066416D01*
X0178695Y0066232D01*
X0178684Y0066048D01*
X0178668Y0065865D01*
X0178648Y0065682D01*
X0178623Y0065500D01*
X0178594Y0065318D01*
X0178560Y0065137D01*
X0178522Y0064957D01*
X0178479Y0064778D01*
X0178432Y0064600D01*
X0178381Y0064423D01*
X0178325Y0064247D01*
X0178266Y0064073D01*
X0178201Y0063901D01*
X0178133Y0063730D01*
X0178061Y0063561D01*
X0177984Y0063393D01*
X0177903Y0063228D01*
X0177818Y0063065D01*
X0177730Y0062903D01*
X0177637Y0062744D01*
X0177540Y0062588D01*
X0177440Y0062433D01*
X0177336Y0062281D01*
X0177228Y0062132D01*
X0177117Y0061986D01*
X0177002Y0061842D01*
X0176883Y0061701D01*
X0176761Y0061563D01*
X0176636Y0061428D01*
X0176507Y0061297D01*
X0176376Y0061168D01*
X0176241Y0061043D01*
X0176103Y0060921D01*
X0175962Y0060802D01*
X0175818Y0060687D01*
X0175672Y0060576D01*
X0175523Y0060468D01*
X0175371Y0060364D01*
X0175216Y0060264D01*
X0175060Y0060167D01*
X0174901Y0060074D01*
X0174739Y0059986D01*
X0174576Y0059901D01*
X0174411Y0059820D01*
X0174243Y0059743D01*
X0174074Y0059671D01*
X0173903Y0059603D01*
X0173731Y0059538D01*
X0173557Y0059479D01*
X0173381Y0059423D01*
X0173204Y0059372D01*
X0173026Y0059325D01*
X0172847Y0059282D01*
X0172667Y0059244D01*
X0172486Y0059210D01*
X0172304Y0059181D01*
X0172122Y0059156D01*
X0171939Y0059136D01*
X0171756Y0059120D01*
X0171572Y0059109D01*
X0171388Y0059102D01*
X0171204Y0059100D01*
X0171020Y0059102D01*
X0170836Y0059109D01*
X0170652Y0059120D01*
X0170469Y0059136D01*
X0170286Y0059156D01*
X0170104Y0059181D01*
X0169922Y0059210D01*
X0169741Y0059244D01*
X0169561Y0059282D01*
X0169382Y0059325D01*
X0169204Y0059372D01*
X0169027Y0059423D01*
X0168851Y0059479D01*
X0168677Y0059538D01*
X0168505Y0059603D01*
X0168334Y0059671D01*
X0168165Y0059743D01*
X0167997Y0059820D01*
X0167832Y0059901D01*
X0167669Y0059986D01*
X0167507Y0060074D01*
X0167348Y0060167D01*
X0167192Y0060264D01*
X0167037Y0060364D01*
X0166885Y0060468D01*
X0166736Y0060576D01*
X0166590Y0060687D01*
X0166446Y0060802D01*
X0166305Y0060921D01*
X0166167Y0061043D01*
X0166032Y0061168D01*
X0165901Y0061297D01*
X0165772Y0061428D01*
X0165647Y0061563D01*
X0165525Y0061701D01*
X0165406Y0061842D01*
X0165291Y0061986D01*
X0165180Y0062132D01*
X0165072Y0062281D01*
X0164968Y0062433D01*
X0164868Y0062588D01*
X0164771Y0062744D01*
X0164678Y0062903D01*
X0164590Y0063065D01*
X0164505Y0063228D01*
X0164424Y0063393D01*
X0164347Y0063561D01*
X0164275Y0063730D01*
X0164207Y0063901D01*
X0164142Y0064073D01*
X0164083Y0064247D01*
X0164027Y0064423D01*
X0163976Y0064600D01*
X0163929Y0064778D01*
X0163886Y0064957D01*
X0163848Y0065137D01*
X0163814Y0065318D01*
X0163785Y0065500D01*
X0163760Y0065682D01*
X0163740Y0065865D01*
X0163724Y0066048D01*
X0163713Y0066232D01*
X0163706Y0066416D01*
X0163704Y0066600D01*
X0166204Y0216600D02*
X0166206Y0216784D01*
X0166213Y0216968D01*
X0166224Y0217152D01*
X0166240Y0217335D01*
X0166260Y0217518D01*
X0166285Y0217700D01*
X0166314Y0217882D01*
X0166348Y0218063D01*
X0166386Y0218243D01*
X0166429Y0218422D01*
X0166476Y0218600D01*
X0166527Y0218777D01*
X0166583Y0218953D01*
X0166642Y0219127D01*
X0166707Y0219299D01*
X0166775Y0219470D01*
X0166847Y0219639D01*
X0166924Y0219807D01*
X0167005Y0219972D01*
X0167090Y0220135D01*
X0167178Y0220297D01*
X0167271Y0220456D01*
X0167368Y0220612D01*
X0167468Y0220767D01*
X0167572Y0220919D01*
X0167680Y0221068D01*
X0167791Y0221214D01*
X0167906Y0221358D01*
X0168025Y0221499D01*
X0168147Y0221637D01*
X0168272Y0221772D01*
X0168401Y0221903D01*
X0168532Y0222032D01*
X0168667Y0222157D01*
X0168805Y0222279D01*
X0168946Y0222398D01*
X0169090Y0222513D01*
X0169236Y0222624D01*
X0169385Y0222732D01*
X0169537Y0222836D01*
X0169692Y0222936D01*
X0169848Y0223033D01*
X0170007Y0223126D01*
X0170169Y0223214D01*
X0170332Y0223299D01*
X0170497Y0223380D01*
X0170665Y0223457D01*
X0170834Y0223529D01*
X0171005Y0223597D01*
X0171177Y0223662D01*
X0171351Y0223721D01*
X0171527Y0223777D01*
X0171704Y0223828D01*
X0171882Y0223875D01*
X0172061Y0223918D01*
X0172241Y0223956D01*
X0172422Y0223990D01*
X0172604Y0224019D01*
X0172786Y0224044D01*
X0172969Y0224064D01*
X0173152Y0224080D01*
X0173336Y0224091D01*
X0173520Y0224098D01*
X0173704Y0224100D01*
X0173888Y0224098D01*
X0174072Y0224091D01*
X0174256Y0224080D01*
X0174439Y0224064D01*
X0174622Y0224044D01*
X0174804Y0224019D01*
X0174986Y0223990D01*
X0175167Y0223956D01*
X0175347Y0223918D01*
X0175526Y0223875D01*
X0175704Y0223828D01*
X0175881Y0223777D01*
X0176057Y0223721D01*
X0176231Y0223662D01*
X0176403Y0223597D01*
X0176574Y0223529D01*
X0176743Y0223457D01*
X0176911Y0223380D01*
X0177076Y0223299D01*
X0177239Y0223214D01*
X0177401Y0223126D01*
X0177560Y0223033D01*
X0177716Y0222936D01*
X0177871Y0222836D01*
X0178023Y0222732D01*
X0178172Y0222624D01*
X0178318Y0222513D01*
X0178462Y0222398D01*
X0178603Y0222279D01*
X0178741Y0222157D01*
X0178876Y0222032D01*
X0179007Y0221903D01*
X0179136Y0221772D01*
X0179261Y0221637D01*
X0179383Y0221499D01*
X0179502Y0221358D01*
X0179617Y0221214D01*
X0179728Y0221068D01*
X0179836Y0220919D01*
X0179940Y0220767D01*
X0180040Y0220612D01*
X0180137Y0220456D01*
X0180230Y0220297D01*
X0180318Y0220135D01*
X0180403Y0219972D01*
X0180484Y0219807D01*
X0180561Y0219639D01*
X0180633Y0219470D01*
X0180701Y0219299D01*
X0180766Y0219127D01*
X0180825Y0218953D01*
X0180881Y0218777D01*
X0180932Y0218600D01*
X0180979Y0218422D01*
X0181022Y0218243D01*
X0181060Y0218063D01*
X0181094Y0217882D01*
X0181123Y0217700D01*
X0181148Y0217518D01*
X0181168Y0217335D01*
X0181184Y0217152D01*
X0181195Y0216968D01*
X0181202Y0216784D01*
X0181204Y0216600D01*
X0181202Y0216416D01*
X0181195Y0216232D01*
X0181184Y0216048D01*
X0181168Y0215865D01*
X0181148Y0215682D01*
X0181123Y0215500D01*
X0181094Y0215318D01*
X0181060Y0215137D01*
X0181022Y0214957D01*
X0180979Y0214778D01*
X0180932Y0214600D01*
X0180881Y0214423D01*
X0180825Y0214247D01*
X0180766Y0214073D01*
X0180701Y0213901D01*
X0180633Y0213730D01*
X0180561Y0213561D01*
X0180484Y0213393D01*
X0180403Y0213228D01*
X0180318Y0213065D01*
X0180230Y0212903D01*
X0180137Y0212744D01*
X0180040Y0212588D01*
X0179940Y0212433D01*
X0179836Y0212281D01*
X0179728Y0212132D01*
X0179617Y0211986D01*
X0179502Y0211842D01*
X0179383Y0211701D01*
X0179261Y0211563D01*
X0179136Y0211428D01*
X0179007Y0211297D01*
X0178876Y0211168D01*
X0178741Y0211043D01*
X0178603Y0210921D01*
X0178462Y0210802D01*
X0178318Y0210687D01*
X0178172Y0210576D01*
X0178023Y0210468D01*
X0177871Y0210364D01*
X0177716Y0210264D01*
X0177560Y0210167D01*
X0177401Y0210074D01*
X0177239Y0209986D01*
X0177076Y0209901D01*
X0176911Y0209820D01*
X0176743Y0209743D01*
X0176574Y0209671D01*
X0176403Y0209603D01*
X0176231Y0209538D01*
X0176057Y0209479D01*
X0175881Y0209423D01*
X0175704Y0209372D01*
X0175526Y0209325D01*
X0175347Y0209282D01*
X0175167Y0209244D01*
X0174986Y0209210D01*
X0174804Y0209181D01*
X0174622Y0209156D01*
X0174439Y0209136D01*
X0174256Y0209120D01*
X0174072Y0209109D01*
X0173888Y0209102D01*
X0173704Y0209100D01*
X0173520Y0209102D01*
X0173336Y0209109D01*
X0173152Y0209120D01*
X0172969Y0209136D01*
X0172786Y0209156D01*
X0172604Y0209181D01*
X0172422Y0209210D01*
X0172241Y0209244D01*
X0172061Y0209282D01*
X0171882Y0209325D01*
X0171704Y0209372D01*
X0171527Y0209423D01*
X0171351Y0209479D01*
X0171177Y0209538D01*
X0171005Y0209603D01*
X0170834Y0209671D01*
X0170665Y0209743D01*
X0170497Y0209820D01*
X0170332Y0209901D01*
X0170169Y0209986D01*
X0170007Y0210074D01*
X0169848Y0210167D01*
X0169692Y0210264D01*
X0169537Y0210364D01*
X0169385Y0210468D01*
X0169236Y0210576D01*
X0169090Y0210687D01*
X0168946Y0210802D01*
X0168805Y0210921D01*
X0168667Y0211043D01*
X0168532Y0211168D01*
X0168401Y0211297D01*
X0168272Y0211428D01*
X0168147Y0211563D01*
X0168025Y0211701D01*
X0167906Y0211842D01*
X0167791Y0211986D01*
X0167680Y0212132D01*
X0167572Y0212281D01*
X0167468Y0212433D01*
X0167368Y0212588D01*
X0167271Y0212744D01*
X0167178Y0212903D01*
X0167090Y0213065D01*
X0167005Y0213228D01*
X0166924Y0213393D01*
X0166847Y0213561D01*
X0166775Y0213730D01*
X0166707Y0213901D01*
X0166642Y0214073D01*
X0166583Y0214247D01*
X0166527Y0214423D01*
X0166476Y0214600D01*
X0166429Y0214778D01*
X0166386Y0214957D01*
X0166348Y0215137D01*
X0166314Y0215318D01*
X0166285Y0215500D01*
X0166260Y0215682D01*
X0166240Y0215865D01*
X0166224Y0216048D01*
X0166213Y0216232D01*
X0166206Y0216416D01*
X0166204Y0216600D01*
D12*
X0148704Y0211600D03*
X0148704Y0221600D03*
X0138704Y0221600D03*
X0138704Y0211600D03*
X0128704Y0211600D03*
X0128704Y0221600D03*
X0118704Y0221600D03*
X0118704Y0211600D03*
X0108704Y0211600D03*
X0108704Y0221600D03*
X0108704Y0191600D03*
X0108704Y0181600D03*
X0118704Y0181600D03*
X0118704Y0191600D03*
X0128704Y0191600D03*
X0128704Y0181600D03*
X0138704Y0181600D03*
X0138704Y0191600D03*
X0148704Y0191600D03*
X0148704Y0181600D03*
X0083704Y0084100D03*
X0083704Y0074100D03*
X0083704Y0064100D03*
X0083704Y0054100D03*
X0083704Y0044100D03*
X0083704Y0034100D03*
D13*
X0053704Y0042860D03*
X0053704Y0050340D03*
X0103704Y0252860D03*
X0103704Y0260340D03*
X0113704Y0260340D03*
X0113704Y0252860D03*
X0123704Y0252860D03*
X0123704Y0260340D03*
X0133704Y0260340D03*
X0133704Y0252860D03*
X0143704Y0252860D03*
X0143704Y0260340D03*
X0153704Y0260340D03*
X0153704Y0252860D03*
D14*
X0118940Y0161600D03*
X0118940Y0156600D03*
X0118940Y0151600D03*
X0118940Y0146600D03*
X0118940Y0141600D03*
X0118940Y0136600D03*
X0118940Y0131600D03*
X0138468Y0139100D03*
X0138468Y0144100D03*
X0138468Y0149100D03*
X0138468Y0154100D03*
X0158940Y0154100D03*
X0158940Y0149100D03*
X0158940Y0144100D03*
X0158940Y0139100D03*
X0098468Y0136600D03*
X0098468Y0131600D03*
X0098468Y0141600D03*
X0098468Y0146600D03*
X0098468Y0151600D03*
X0098468Y0156600D03*
X0098468Y0161600D03*
D15*
X0066874Y0236289D03*
X0071874Y0244949D03*
X0076874Y0253610D03*
X0081874Y0262270D03*
D16*
X0096676Y0114002D03*
X0096676Y0106128D03*
X0096676Y0098254D03*
X0096676Y0090380D03*
X0096676Y0082506D03*
X0096676Y0074631D03*
X0096676Y0066757D03*
X0096676Y0058883D03*
X0155732Y0058883D03*
X0155732Y0066757D03*
X0155732Y0074631D03*
X0155732Y0082506D03*
X0155732Y0090380D03*
X0155732Y0098254D03*
X0155732Y0106128D03*
X0155732Y0114002D03*
D17*
X0068704Y0079002D03*
X0068704Y0054198D03*
X0068704Y0041502D03*
X0068704Y0016698D03*
D18*
X0108704Y0234769D03*
X0104964Y0243431D03*
X0112444Y0243431D03*
X0124964Y0243431D03*
X0128704Y0234769D03*
X0132444Y0243431D03*
X0144964Y0243431D03*
X0148704Y0234769D03*
X0152444Y0243431D03*
D19*
X0153704Y0244691D01*
X0153704Y0252860D01*
X0155504Y0249101D02*
X0156904Y0249101D01*
X0156904Y0188354D01*
X0157958Y0187300D01*
X0157958Y0187300D01*
X0166904Y0178354D01*
X0166904Y0138446D01*
X0164450Y0140900D01*
X0164349Y0140900D01*
X0163768Y0141481D01*
X0154112Y0141481D01*
X0153409Y0140778D01*
X0153409Y0137422D01*
X0154112Y0136719D01*
X0163539Y0136719D01*
X0164404Y0135854D01*
X0164404Y0133446D01*
X0161950Y0135900D01*
X0154450Y0135900D01*
X0144450Y0145900D01*
X0143877Y0145900D01*
X0143296Y0146481D01*
X0133640Y0146481D01*
X0132937Y0145778D01*
X0132937Y0142422D01*
X0133640Y0141719D01*
X0143296Y0141719D01*
X0143418Y0141841D01*
X0152958Y0132300D01*
X0160458Y0132300D01*
X0161904Y0130854D01*
X0161904Y0109846D01*
X0160869Y0108810D01*
X0160869Y0108987D01*
X0160166Y0109690D01*
X0151297Y0109690D01*
X0150595Y0108987D01*
X0150595Y0107928D01*
X0148348Y0107928D01*
X0148314Y0108010D01*
X0147614Y0108710D01*
X0146699Y0109089D01*
X0145709Y0109089D01*
X0144794Y0108710D01*
X0144094Y0108010D01*
X0143715Y0107095D01*
X0143715Y0106105D01*
X0144094Y0105190D01*
X0144794Y0104490D01*
X0145709Y0104111D01*
X0146699Y0104111D01*
X0147222Y0104328D01*
X0150595Y0104328D01*
X0150595Y0103268D01*
X0151297Y0102565D01*
X0160166Y0102565D01*
X0160869Y0103268D01*
X0160869Y0104328D01*
X0161477Y0104328D01*
X0164404Y0107254D01*
X0164404Y0104846D01*
X0160770Y0101211D01*
X0160166Y0101816D01*
X0151297Y0101816D01*
X0150595Y0101113D01*
X0150595Y0098400D01*
X0147924Y0098400D01*
X0147614Y0098710D01*
X0146699Y0099089D01*
X0145709Y0099089D01*
X0144794Y0098710D01*
X0144094Y0098010D01*
X0143715Y0097095D01*
X0143715Y0096105D01*
X0144094Y0095190D01*
X0144794Y0094490D01*
X0145709Y0094111D01*
X0146699Y0094111D01*
X0147614Y0094490D01*
X0147924Y0094800D01*
X0151189Y0094800D01*
X0151297Y0094691D01*
X0160166Y0094691D01*
X0160869Y0095394D01*
X0160869Y0096454D01*
X0161103Y0096454D01*
X0166904Y0102254D01*
X0166904Y0097346D01*
X0161738Y0092180D01*
X0160869Y0092180D01*
X0160869Y0093239D01*
X0160166Y0093942D01*
X0151297Y0093942D01*
X0150595Y0093239D01*
X0150595Y0087520D01*
X0151297Y0086817D01*
X0160166Y0086817D01*
X0160869Y0087520D01*
X0160869Y0088580D01*
X0163138Y0088580D01*
X0160396Y0085837D01*
X0160166Y0086068D01*
X0151297Y0086068D01*
X0150595Y0085365D01*
X0150595Y0079646D01*
X0151297Y0078943D01*
X0160166Y0078943D01*
X0160869Y0079646D01*
X0160869Y0081219D01*
X0161409Y0081760D01*
X0171950Y0092300D01*
X0173004Y0093354D01*
X0173004Y0182346D01*
X0171950Y0183400D01*
X0163004Y0192346D01*
X0163004Y0262346D01*
X0156950Y0268400D01*
X0139218Y0268400D01*
X0138164Y0267346D01*
X0134917Y0264099D01*
X0130254Y0264099D01*
X0129551Y0263396D01*
X0129551Y0262140D01*
X0127857Y0262140D01*
X0127857Y0263396D01*
X0127154Y0264099D01*
X0120254Y0264099D01*
X0119551Y0263396D01*
X0119551Y0257284D01*
X0120002Y0256834D01*
X0119769Y0256699D01*
X0119471Y0256401D01*
X0119260Y0256036D01*
X0119151Y0255630D01*
X0119151Y0253460D01*
X0123104Y0253460D01*
X0123104Y0252260D01*
X0119151Y0252260D01*
X0119151Y0250090D01*
X0119260Y0249683D01*
X0119471Y0249318D01*
X0119769Y0249020D01*
X0120134Y0248810D01*
X0120541Y0248701D01*
X0123104Y0248701D01*
X0123104Y0252260D01*
X0124304Y0252260D01*
X0124304Y0253460D01*
X0128257Y0253460D01*
X0128257Y0255630D01*
X0128148Y0256036D01*
X0127937Y0256401D01*
X0127639Y0256699D01*
X0127406Y0256834D01*
X0127857Y0257284D01*
X0127857Y0258540D01*
X0129551Y0258540D01*
X0129551Y0257284D01*
X0130235Y0256600D01*
X0129551Y0255916D01*
X0129551Y0249804D01*
X0130254Y0249101D01*
X0131609Y0249101D01*
X0131609Y0247387D01*
X0129979Y0247387D01*
X0129276Y0246684D01*
X0129276Y0240178D01*
X0129979Y0239475D01*
X0140829Y0239475D01*
X0141204Y0239100D01*
X0144964Y0242860D01*
X0144964Y0243431D01*
X0144964Y0247840D01*
X0143704Y0249100D01*
X0143704Y0252860D01*
X0144304Y0253419D02*
X0149551Y0253419D01*
X0149551Y0254617D02*
X0148257Y0254617D01*
X0148257Y0255630D02*
X0148148Y0256036D01*
X0147937Y0256401D01*
X0147639Y0256699D01*
X0147406Y0256834D01*
X0147857Y0257284D01*
X0147857Y0258540D01*
X0149551Y0258540D01*
X0149551Y0257284D01*
X0150235Y0256600D01*
X0149551Y0255916D01*
X0149551Y0249804D01*
X0150254Y0249101D01*
X0151904Y0249101D01*
X0151904Y0247387D01*
X0149979Y0247387D01*
X0149276Y0246684D01*
X0149276Y0240178D01*
X0149979Y0239475D01*
X0154910Y0239475D01*
X0155613Y0240178D01*
X0155613Y0246684D01*
X0155504Y0246792D01*
X0155504Y0249101D01*
X0155504Y0248625D02*
X0156904Y0248625D01*
X0156904Y0247426D02*
X0155504Y0247426D01*
X0155613Y0246228D02*
X0156904Y0246228D01*
X0156904Y0245029D02*
X0155613Y0245029D01*
X0155613Y0243831D02*
X0156904Y0243831D01*
X0156904Y0242632D02*
X0155613Y0242632D01*
X0155613Y0241434D02*
X0156904Y0241434D01*
X0156904Y0240235D02*
X0155613Y0240235D01*
X0156904Y0239037D02*
X0100504Y0239037D01*
X0100504Y0240235D02*
X0101457Y0240235D01*
X0101504Y0240057D02*
X0101715Y0239692D01*
X0102013Y0239394D01*
X0102378Y0239184D01*
X0102785Y0239075D01*
X0104580Y0239075D01*
X0104580Y0243046D01*
X0105348Y0243046D01*
X0105348Y0239075D01*
X0107143Y0239075D01*
X0107550Y0239184D01*
X0107915Y0239394D01*
X0108213Y0239692D01*
X0108423Y0240057D01*
X0108532Y0240464D01*
X0108532Y0243046D01*
X0105348Y0243046D01*
X0105348Y0243815D01*
X0104580Y0243815D01*
X0104580Y0247787D01*
X0102785Y0247787D01*
X0102378Y0247678D01*
X0102013Y0247467D01*
X0101715Y0247169D01*
X0101504Y0246804D01*
X0101395Y0246397D01*
X0101395Y0243815D01*
X0104579Y0243815D01*
X0104579Y0243046D01*
X0101395Y0243046D01*
X0101395Y0240464D01*
X0101504Y0240057D01*
X0101395Y0241434D02*
X0100504Y0241434D01*
X0100504Y0242632D02*
X0101395Y0242632D01*
X0101395Y0243831D02*
X0100504Y0243831D01*
X0100504Y0245029D02*
X0101395Y0245029D01*
X0101395Y0246228D02*
X0100504Y0246228D01*
X0100504Y0247426D02*
X0101972Y0247426D01*
X0103104Y0248701D02*
X0103104Y0252260D01*
X0104304Y0252260D01*
X0104304Y0253460D01*
X0108257Y0253460D01*
X0108257Y0255630D01*
X0108148Y0256036D01*
X0107937Y0256401D01*
X0107639Y0256699D01*
X0107406Y0256834D01*
X0107857Y0257284D01*
X0107857Y0258540D01*
X0109551Y0258540D01*
X0109551Y0257284D01*
X0110235Y0256600D01*
X0109551Y0255916D01*
X0109551Y0249804D01*
X0110254Y0249101D01*
X0110754Y0249101D01*
X0110754Y0247387D01*
X0109979Y0247387D01*
X0109276Y0246684D01*
X0109276Y0240178D01*
X0109979Y0239475D01*
X0114910Y0239475D01*
X0115613Y0240178D01*
X0115613Y0246684D01*
X0114910Y0247387D01*
X0114354Y0247387D01*
X0114354Y0249101D01*
X0117154Y0249101D01*
X0117857Y0249804D01*
X0117857Y0255916D01*
X0117173Y0256600D01*
X0117857Y0257284D01*
X0117857Y0263396D01*
X0117154Y0264099D01*
X0110254Y0264099D01*
X0109551Y0263396D01*
X0109551Y0262140D01*
X0107857Y0262140D01*
X0107857Y0263396D01*
X0107154Y0264099D01*
X0100254Y0264099D01*
X0099551Y0263396D01*
X0099551Y0259993D01*
X0096904Y0257346D01*
X0096904Y0187391D01*
X0086158Y0176646D01*
X0085104Y0175591D01*
X0085104Y0127654D01*
X0090458Y0122300D01*
X0107913Y0122300D01*
X0109404Y0120809D01*
X0109404Y0109846D01*
X0107486Y0107928D01*
X0101813Y0107928D01*
X0101813Y0108987D01*
X0101110Y0109690D01*
X0092242Y0109690D01*
X0091539Y0108987D01*
X0091539Y0103268D01*
X0092242Y0102565D01*
X0101110Y0102565D01*
X0101813Y0103268D01*
X0101813Y0104328D01*
X0108977Y0104328D01*
X0110032Y0105382D01*
X0111904Y0107254D01*
X0111904Y0102346D01*
X0109612Y0100054D01*
X0107924Y0100054D01*
X0107614Y0100364D01*
X0106699Y0100743D01*
X0105709Y0100743D01*
X0104794Y0100364D01*
X0104484Y0100054D01*
X0101813Y0100054D01*
X0101813Y0101113D01*
X0101110Y0101816D01*
X0092242Y0101816D01*
X0091539Y0101113D01*
X0091539Y0095394D01*
X0092242Y0094691D01*
X0101110Y0094691D01*
X0101813Y0095394D01*
X0101813Y0096454D01*
X0104484Y0096454D01*
X0104794Y0096143D01*
X0105709Y0095765D01*
X0106699Y0095765D01*
X0107614Y0096143D01*
X0107924Y0096454D01*
X0111103Y0096454D01*
X0114404Y0099754D01*
X0114404Y0094846D01*
X0111738Y0092180D01*
X0107924Y0092180D01*
X0107614Y0092490D01*
X0106699Y0092868D01*
X0105709Y0092868D01*
X0104794Y0092490D01*
X0104484Y0092180D01*
X0101813Y0092180D01*
X0101813Y0093239D01*
X0101110Y0093942D01*
X0092242Y0093942D01*
X0091539Y0093239D01*
X0091539Y0092180D01*
X0089238Y0092180D01*
X0085654Y0088596D01*
X0084679Y0089000D01*
X0082729Y0089000D01*
X0080928Y0088254D01*
X0079550Y0086876D01*
X0079146Y0085900D01*
X0073057Y0085900D01*
X0071886Y0084729D01*
X0065057Y0084729D01*
X0064354Y0084026D01*
X0064354Y0073977D01*
X0065057Y0073274D01*
X0072351Y0073274D01*
X0073054Y0073977D01*
X0073054Y0080806D01*
X0074548Y0082300D01*
X0079146Y0082300D01*
X0079550Y0081324D01*
X0080928Y0079946D01*
X0082729Y0079200D01*
X0084679Y0079200D01*
X0086480Y0079946D01*
X0087858Y0081324D01*
X0088604Y0083125D01*
X0088604Y0085075D01*
X0088200Y0086050D01*
X0090729Y0088580D01*
X0091539Y0088580D01*
X0091539Y0087520D01*
X0092242Y0086817D01*
X0101110Y0086817D01*
X0101813Y0087520D01*
X0101813Y0088580D01*
X0104484Y0088580D01*
X0104794Y0088269D01*
X0105709Y0087891D01*
X0106699Y0087891D01*
X0107614Y0088269D01*
X0107924Y0088580D01*
X0113229Y0088580D01*
X0117140Y0092491D01*
X0117140Y0090082D01*
X0111364Y0084305D01*
X0107924Y0084305D01*
X0107614Y0084616D01*
X0106699Y0084994D01*
X0105709Y0084994D01*
X0104794Y0084616D01*
X0104484Y0084305D01*
X0101813Y0084305D01*
X0101813Y0085365D01*
X0101110Y0086068D01*
X0092242Y0086068D01*
X0091539Y0085365D01*
X0091539Y0079646D01*
X0092242Y0078943D01*
X0101110Y0078943D01*
X0101813Y0079646D01*
X0101813Y0080706D01*
X0104484Y0080706D01*
X0104794Y0080395D01*
X0105709Y0080017D01*
X0106699Y0080017D01*
X0107614Y0080395D01*
X0107924Y0080706D01*
X0112764Y0080706D01*
X0108490Y0076431D01*
X0107924Y0076431D01*
X0107614Y0076742D01*
X0106699Y0077120D01*
X0105709Y0077120D01*
X0104794Y0076742D01*
X0104484Y0076431D01*
X0101813Y0076431D01*
X0101813Y0077491D01*
X0101110Y0078194D01*
X0092242Y0078194D01*
X0091539Y0077491D01*
X0091539Y0071772D01*
X0092242Y0071069D01*
X0101110Y0071069D01*
X0101813Y0071772D01*
X0101813Y0072831D01*
X0104484Y0072831D01*
X0104794Y0072521D01*
X0105709Y0072143D01*
X0106699Y0072143D01*
X0107614Y0072521D01*
X0107924Y0072831D01*
X0109981Y0072831D01*
X0130504Y0093354D01*
X0130504Y0116696D01*
X0130709Y0116611D01*
X0131699Y0116611D01*
X0132614Y0116990D01*
X0132924Y0117300D01*
X0149888Y0117300D01*
X0150595Y0116593D01*
X0150595Y0111142D01*
X0151297Y0110439D01*
X0160166Y0110439D01*
X0160869Y0111142D01*
X0160869Y0116861D01*
X0160166Y0117564D01*
X0154715Y0117564D01*
X0151379Y0120900D01*
X0132924Y0120900D01*
X0132614Y0121210D01*
X0131699Y0121589D01*
X0130709Y0121589D01*
X0130504Y0121504D01*
X0130504Y0132346D01*
X0129450Y0133400D01*
X0124450Y0138400D01*
X0124349Y0138400D01*
X0123768Y0138981D01*
X0114112Y0138981D01*
X0113409Y0138278D01*
X0113409Y0134922D01*
X0114112Y0134219D01*
X0123539Y0134219D01*
X0126904Y0130854D01*
X0126904Y0094846D01*
X0120740Y0088682D01*
X0120740Y0129219D01*
X0123768Y0129219D01*
X0124471Y0129922D01*
X0124471Y0133278D01*
X0123768Y0133981D01*
X0114112Y0133981D01*
X0113409Y0133278D01*
X0113409Y0129922D01*
X0114112Y0129219D01*
X0117140Y0129219D01*
X0117140Y0125709D01*
X0116950Y0125900D01*
X0116950Y0125900D01*
X0109450Y0133400D01*
X0103877Y0133400D01*
X0103296Y0133981D01*
X0093640Y0133981D01*
X0093004Y0133345D01*
X0093004Y0133354D01*
X0093868Y0134219D01*
X0103296Y0134219D01*
X0103998Y0134922D01*
X0103998Y0138278D01*
X0103363Y0138914D01*
X0103416Y0138928D01*
X0103781Y0139139D01*
X0104079Y0139436D01*
X0104289Y0139801D01*
X0104398Y0140208D01*
X0104398Y0141600D01*
X0104398Y0142992D01*
X0104289Y0143399D01*
X0104079Y0143764D01*
X0103781Y0144061D01*
X0103416Y0144272D01*
X0103363Y0144286D01*
X0103998Y0144922D01*
X0103998Y0148278D01*
X0103296Y0148981D01*
X0093868Y0148981D01*
X0090504Y0152346D01*
X0090504Y0157254D01*
X0091904Y0155854D01*
X0092958Y0154800D01*
X0093059Y0154800D01*
X0093640Y0154219D01*
X0103296Y0154219D01*
X0103998Y0154922D01*
X0103998Y0158278D01*
X0103296Y0158981D01*
X0093868Y0158981D01*
X0093027Y0159823D01*
X0093027Y0159832D01*
X0093640Y0159219D01*
X0103296Y0159219D01*
X0103418Y0159341D01*
X0106158Y0156600D01*
X0103418Y0153859D01*
X0103296Y0153981D01*
X0093640Y0153981D01*
X0092937Y0153278D01*
X0092937Y0149922D01*
X0093640Y0149219D01*
X0103296Y0149219D01*
X0103877Y0149800D01*
X0105458Y0149800D01*
X0109404Y0145854D01*
X0110458Y0144800D01*
X0113531Y0144800D01*
X0114112Y0144219D01*
X0123768Y0144219D01*
X0124471Y0144922D01*
X0124471Y0148278D01*
X0123768Y0148981D01*
X0114112Y0148981D01*
X0113531Y0148400D01*
X0111950Y0148400D01*
X0107500Y0152850D01*
X0109450Y0154800D01*
X0113531Y0154800D01*
X0114112Y0154219D01*
X0123768Y0154219D01*
X0124404Y0154855D01*
X0124404Y0154846D01*
X0123540Y0153981D01*
X0114112Y0153981D01*
X0113409Y0153278D01*
X0113409Y0149922D01*
X0114112Y0149219D01*
X0123768Y0149219D01*
X0124349Y0149800D01*
X0124450Y0149800D01*
X0125504Y0150854D01*
X0127454Y0152804D01*
X0128669Y0151589D01*
X0128209Y0151589D01*
X0127294Y0151210D01*
X0126594Y0150510D01*
X0126215Y0149595D01*
X0126215Y0148605D01*
X0126304Y0148390D01*
X0126304Y0144000D01*
X0118463Y0144000D01*
X0118417Y0143981D01*
X0114112Y0143981D01*
X0113409Y0143278D01*
X0113409Y0139922D01*
X0114112Y0139219D01*
X0118417Y0139219D01*
X0118463Y0139200D01*
X0127710Y0139200D01*
X0129169Y0137741D01*
X0129844Y0137065D01*
X0130727Y0136700D01*
X0138945Y0136700D01*
X0138991Y0136719D01*
X0143296Y0136719D01*
X0143998Y0137422D01*
X0143998Y0140778D01*
X0143296Y0141481D01*
X0138991Y0141481D01*
X0138945Y0141500D01*
X0132198Y0141500D01*
X0131104Y0142594D01*
X0131104Y0148390D01*
X0131193Y0148605D01*
X0131193Y0149065D01*
X0131904Y0148354D01*
X0132958Y0147300D01*
X0133059Y0147300D01*
X0133640Y0146719D01*
X0143296Y0146719D01*
X0143998Y0147422D01*
X0143998Y0150778D01*
X0143296Y0151481D01*
X0133868Y0151481D01*
X0130504Y0154846D01*
X0130504Y0165854D01*
X0131261Y0166611D01*
X0131699Y0166611D01*
X0132614Y0166990D01*
X0133314Y0167690D01*
X0133693Y0168605D01*
X0133693Y0169595D01*
X0133314Y0170510D01*
X0132614Y0171210D01*
X0131699Y0171589D01*
X0131239Y0171589D01*
X0135504Y0175854D01*
X0135504Y0177870D01*
X0135928Y0177446D01*
X0137729Y0176700D01*
X0139679Y0176700D01*
X0141480Y0177446D01*
X0142858Y0178824D01*
X0143604Y0180625D01*
X0143604Y0182575D01*
X0142858Y0184376D01*
X0141480Y0185754D01*
X0139679Y0186500D01*
X0137729Y0186500D01*
X0135928Y0185754D01*
X0135504Y0185330D01*
X0135504Y0185854D01*
X0136754Y0187104D01*
X0137729Y0186700D01*
X0139679Y0186700D01*
X0141480Y0187446D01*
X0142858Y0188824D01*
X0143604Y0190625D01*
X0143604Y0192575D01*
X0142858Y0194376D01*
X0141480Y0195754D01*
X0139679Y0196500D01*
X0137729Y0196500D01*
X0136754Y0196096D01*
X0135504Y0197346D01*
X0135504Y0207870D01*
X0135928Y0207446D01*
X0137729Y0206700D01*
X0139679Y0206700D01*
X0141480Y0207446D01*
X0141904Y0207870D01*
X0141904Y0195854D01*
X0142958Y0194800D01*
X0144208Y0193550D01*
X0143804Y0192575D01*
X0143804Y0190625D01*
X0144550Y0188824D01*
X0145928Y0187446D01*
X0147729Y0186700D01*
X0149679Y0186700D01*
X0150654Y0187104D01*
X0154404Y0183354D01*
X0154404Y0177346D01*
X0152958Y0175900D01*
X0145458Y0175900D01*
X0137958Y0168400D01*
X0136904Y0167346D01*
X0136904Y0156481D01*
X0133640Y0156481D01*
X0132937Y0155778D01*
X0132937Y0152422D01*
X0133640Y0151719D01*
X0143296Y0151719D01*
X0143998Y0152422D01*
X0143998Y0155778D01*
X0143296Y0156481D01*
X0140504Y0156481D01*
X0140504Y0165854D01*
X0146950Y0172300D01*
X0154450Y0172300D01*
X0155504Y0173354D01*
X0158004Y0175854D01*
X0158004Y0184846D01*
X0156950Y0185900D01*
X0153200Y0189650D01*
X0153604Y0190625D01*
X0153604Y0192575D01*
X0152858Y0194376D01*
X0151480Y0195754D01*
X0149679Y0196500D01*
X0147729Y0196500D01*
X0146754Y0196096D01*
X0145504Y0197346D01*
X0145504Y0207870D01*
X0145928Y0207446D01*
X0147729Y0206700D01*
X0149679Y0206700D01*
X0151480Y0207446D01*
X0152858Y0208824D01*
X0153604Y0210625D01*
X0153604Y0212575D01*
X0153200Y0213550D01*
X0154450Y0214800D01*
X0155504Y0215854D01*
X0155504Y0230515D01*
X0154450Y0231569D01*
X0151872Y0234146D01*
X0151872Y0238022D01*
X0151170Y0238725D01*
X0146238Y0238725D01*
X0145535Y0238022D01*
X0145535Y0231516D01*
X0146238Y0230813D01*
X0150114Y0230813D01*
X0151904Y0229024D01*
X0151904Y0225330D01*
X0151480Y0225754D01*
X0149679Y0226500D01*
X0148850Y0226500D01*
X0139835Y0235515D01*
X0138780Y0236569D01*
X0131872Y0236569D01*
X0131872Y0238022D01*
X0131170Y0238725D01*
X0126238Y0238725D01*
X0125535Y0238022D01*
X0125535Y0232314D01*
X0123004Y0234846D01*
X0121950Y0235900D01*
X0111872Y0235900D01*
X0111872Y0238022D01*
X0111170Y0238725D01*
X0106238Y0238725D01*
X0105535Y0238022D01*
X0105535Y0231516D01*
X0106238Y0230813D01*
X0111170Y0230813D01*
X0111872Y0231516D01*
X0111872Y0232300D01*
X0120458Y0232300D01*
X0126689Y0226069D01*
X0125928Y0225754D01*
X0124550Y0224376D01*
X0123804Y0222575D01*
X0123804Y0220625D01*
X0124208Y0219650D01*
X0122958Y0218400D01*
X0121904Y0217346D01*
X0123681Y0219123D01*
X0123681Y0224123D01*
X0121204Y0226600D01*
X0108704Y0226600D01*
X0104964Y0230340D01*
X0104964Y0243431D01*
X0109295Y0239100D01*
X0120633Y0239100D01*
X0124964Y0243431D01*
X0126023Y0243431D01*
X0129979Y0239475D01*
X0134910Y0239475D01*
X0135613Y0240178D01*
X0135613Y0246684D01*
X0135209Y0247088D01*
X0135209Y0249101D01*
X0137154Y0249101D01*
X0137857Y0249804D01*
X0137857Y0255916D01*
X0137173Y0256600D01*
X0137857Y0257284D01*
X0137857Y0257293D01*
X0138918Y0257826D01*
X0139387Y0259241D01*
X0138718Y0260574D01*
X0137857Y0260860D01*
X0137857Y0261947D01*
X0140709Y0264800D01*
X0155458Y0264800D01*
X0156159Y0264099D01*
X0150254Y0264099D01*
X0149551Y0263396D01*
X0149551Y0262140D01*
X0147857Y0262140D01*
X0147857Y0263396D01*
X0147154Y0264099D01*
X0140254Y0264099D01*
X0139551Y0263396D01*
X0139551Y0257284D01*
X0140002Y0256834D01*
X0139769Y0256699D01*
X0139471Y0256401D01*
X0139260Y0256036D01*
X0139151Y0255630D01*
X0139151Y0253460D01*
X0143104Y0253460D01*
X0143104Y0252260D01*
X0139151Y0252260D01*
X0139151Y0250090D01*
X0139260Y0249683D01*
X0139471Y0249318D01*
X0139769Y0249020D01*
X0140134Y0248810D01*
X0140541Y0248701D01*
X0143104Y0248701D01*
X0143104Y0252260D01*
X0144304Y0252260D01*
X0144304Y0253460D01*
X0148257Y0253460D01*
X0148257Y0255630D01*
X0148207Y0255816D02*
X0149551Y0255816D01*
X0149821Y0257014D02*
X0147587Y0257014D01*
X0147857Y0258213D02*
X0149551Y0258213D01*
X0153704Y0260340D02*
X0143704Y0260340D01*
X0139551Y0260610D02*
X0138609Y0260610D01*
X0139302Y0259411D02*
X0139551Y0259411D01*
X0139551Y0258213D02*
X0139046Y0258213D01*
X0139821Y0257014D02*
X0137587Y0257014D01*
X0137857Y0255816D02*
X0139201Y0255816D01*
X0139151Y0254617D02*
X0137857Y0254617D01*
X0137857Y0253419D02*
X0143104Y0253419D01*
X0143104Y0252220D02*
X0144304Y0252220D01*
X0144304Y0252260D02*
X0144304Y0248701D01*
X0146867Y0248701D01*
X0147274Y0248810D01*
X0147639Y0249020D01*
X0147937Y0249318D01*
X0148148Y0249683D01*
X0148257Y0250090D01*
X0148257Y0252260D01*
X0144304Y0252260D01*
X0144304Y0251022D02*
X0143104Y0251022D01*
X0143104Y0249823D02*
X0144304Y0249823D01*
X0144580Y0247787D02*
X0142785Y0247787D01*
X0142378Y0247678D01*
X0142013Y0247467D01*
X0141715Y0247169D01*
X0141504Y0246804D01*
X0141395Y0246397D01*
X0141395Y0243815D01*
X0144579Y0243815D01*
X0144579Y0243046D01*
X0141395Y0243046D01*
X0141395Y0240464D01*
X0141504Y0240057D01*
X0141715Y0239692D01*
X0142013Y0239394D01*
X0142378Y0239184D01*
X0142785Y0239075D01*
X0144580Y0239075D01*
X0144580Y0243046D01*
X0145348Y0243046D01*
X0145348Y0239075D01*
X0147143Y0239075D01*
X0147550Y0239184D01*
X0147915Y0239394D01*
X0148213Y0239692D01*
X0148423Y0240057D01*
X0148532Y0240464D01*
X0148532Y0243046D01*
X0145348Y0243046D01*
X0145348Y0243815D01*
X0144580Y0243815D01*
X0144580Y0247787D01*
X0144580Y0247426D02*
X0145348Y0247426D01*
X0145348Y0247787D02*
X0145348Y0243815D01*
X0148532Y0243815D01*
X0148532Y0246397D01*
X0148423Y0246804D01*
X0148213Y0247169D01*
X0147915Y0247467D01*
X0147550Y0247678D01*
X0147143Y0247787D01*
X0145348Y0247787D01*
X0145348Y0246228D02*
X0144580Y0246228D01*
X0144580Y0245029D02*
X0145348Y0245029D01*
X0145348Y0243831D02*
X0144580Y0243831D01*
X0144580Y0242632D02*
X0145348Y0242632D01*
X0145348Y0241434D02*
X0144580Y0241434D01*
X0144580Y0240235D02*
X0145348Y0240235D01*
X0145535Y0237838D02*
X0131872Y0237838D01*
X0131872Y0236640D02*
X0145535Y0236640D01*
X0145535Y0235441D02*
X0139908Y0235441D01*
X0139835Y0235515D02*
X0139835Y0235515D01*
X0141107Y0234243D02*
X0145535Y0234243D01*
X0145535Y0233044D02*
X0142305Y0233044D01*
X0143504Y0231846D02*
X0145535Y0231846D01*
X0144702Y0230647D02*
X0150280Y0230647D01*
X0151479Y0229449D02*
X0145901Y0229449D01*
X0147099Y0228250D02*
X0151904Y0228250D01*
X0151904Y0227052D02*
X0148298Y0227052D01*
X0148704Y0224100D02*
X0138035Y0234769D01*
X0128704Y0234769D01*
X0125535Y0234243D02*
X0123607Y0234243D01*
X0123004Y0234846D02*
X0123004Y0234846D01*
X0122408Y0235441D02*
X0125535Y0235441D01*
X0125535Y0236640D02*
X0111872Y0236640D01*
X0111872Y0237838D02*
X0125535Y0237838D01*
X0125348Y0239075D02*
X0127143Y0239075D01*
X0127550Y0239184D01*
X0127915Y0239394D01*
X0128213Y0239692D01*
X0128423Y0240057D01*
X0128532Y0240464D01*
X0128532Y0243046D01*
X0125348Y0243046D01*
X0125348Y0239075D01*
X0124580Y0239075D02*
X0122785Y0239075D01*
X0122378Y0239184D01*
X0122013Y0239394D01*
X0121715Y0239692D01*
X0121504Y0240057D01*
X0121395Y0240464D01*
X0121395Y0243046D01*
X0124579Y0243046D01*
X0124579Y0243815D01*
X0121395Y0243815D01*
X0121395Y0246397D01*
X0121504Y0246804D01*
X0121715Y0247169D01*
X0122013Y0247467D01*
X0122378Y0247678D01*
X0122785Y0247787D01*
X0124580Y0247787D01*
X0124580Y0243815D01*
X0125348Y0243815D01*
X0125348Y0247787D01*
X0127143Y0247787D01*
X0127550Y0247678D01*
X0127915Y0247467D01*
X0128213Y0247169D01*
X0128423Y0246804D01*
X0128532Y0246397D01*
X0128532Y0243815D01*
X0125348Y0243815D01*
X0125348Y0243046D01*
X0124580Y0243046D01*
X0124580Y0239075D01*
X0124580Y0240235D02*
X0125348Y0240235D01*
X0125348Y0241434D02*
X0124580Y0241434D01*
X0124580Y0242632D02*
X0125348Y0242632D01*
X0124964Y0243431D02*
X0123704Y0244691D01*
X0123704Y0252860D01*
X0124304Y0253419D02*
X0129551Y0253419D01*
X0129551Y0254617D02*
X0128257Y0254617D01*
X0128207Y0255816D02*
X0129551Y0255816D01*
X0129821Y0257014D02*
X0127587Y0257014D01*
X0127857Y0258213D02*
X0129551Y0258213D01*
X0133704Y0260340D02*
X0123704Y0260340D01*
X0127857Y0263007D02*
X0129551Y0263007D01*
X0133704Y0260340D02*
X0139964Y0266600D01*
X0156204Y0266600D01*
X0161204Y0261600D01*
X0161204Y0191600D01*
X0171204Y0181600D01*
X0171204Y0094100D01*
X0159609Y0082506D01*
X0155732Y0082506D01*
X0150595Y0082032D02*
X0119181Y0082032D01*
X0117983Y0080833D02*
X0150595Y0080833D01*
X0150606Y0079635D02*
X0116784Y0079635D01*
X0115586Y0078436D02*
X0183087Y0078436D01*
X0183087Y0077238D02*
X0160869Y0077238D01*
X0160869Y0077491D02*
X0160166Y0078194D01*
X0151297Y0078194D01*
X0150595Y0077491D01*
X0150595Y0076431D01*
X0147079Y0076431D01*
X0146699Y0076589D01*
X0145709Y0076589D01*
X0144794Y0076210D01*
X0144094Y0075510D01*
X0143715Y0074595D01*
X0143715Y0073605D01*
X0144094Y0072690D01*
X0144794Y0071990D01*
X0145709Y0071611D01*
X0146699Y0071611D01*
X0147614Y0071990D01*
X0148314Y0072690D01*
X0148373Y0072831D01*
X0150595Y0072831D01*
X0150595Y0071772D01*
X0151297Y0071069D01*
X0160166Y0071069D01*
X0160869Y0071772D01*
X0160869Y0077491D01*
X0160869Y0076039D02*
X0167408Y0076039D01*
X0167306Y0076012D02*
X0165002Y0074682D01*
X0163122Y0072802D01*
X0161792Y0070498D01*
X0161104Y0067930D01*
X0161104Y0065270D01*
X0161792Y0062702D01*
X0163122Y0060398D01*
X0165002Y0058518D01*
X0167306Y0057188D01*
X0169874Y0056500D01*
X0172534Y0056500D01*
X0175102Y0057188D01*
X0177406Y0058518D01*
X0179286Y0060398D01*
X0180616Y0062702D01*
X0181304Y0065270D01*
X0181304Y0067930D01*
X0180616Y0070498D01*
X0179286Y0072802D01*
X0177406Y0074682D01*
X0175102Y0076012D01*
X0172534Y0076700D01*
X0169874Y0076700D01*
X0167306Y0076012D01*
X0165277Y0074841D02*
X0160869Y0074841D01*
X0160869Y0073642D02*
X0163963Y0073642D01*
X0162915Y0072444D02*
X0160869Y0072444D01*
X0160341Y0071245D02*
X0162223Y0071245D01*
X0161671Y0070047D02*
X0160439Y0070047D01*
X0160166Y0070320D02*
X0160869Y0069617D01*
X0160869Y0063898D01*
X0160166Y0063195D01*
X0151297Y0063195D01*
X0150595Y0063898D01*
X0150595Y0069617D01*
X0151297Y0070320D01*
X0160166Y0070320D01*
X0160869Y0068848D02*
X0161350Y0068848D01*
X0161104Y0067650D02*
X0160869Y0067650D01*
X0160869Y0066451D02*
X0161104Y0066451D01*
X0161109Y0065253D02*
X0160869Y0065253D01*
X0160869Y0064054D02*
X0161430Y0064054D01*
X0161751Y0062856D02*
X0149994Y0062856D01*
X0150851Y0061999D02*
X0148693Y0064157D01*
X0148693Y0064595D01*
X0148314Y0065510D01*
X0147614Y0066210D01*
X0146699Y0066589D01*
X0145709Y0066589D01*
X0144794Y0066210D01*
X0144094Y0065510D01*
X0143715Y0064595D01*
X0143715Y0063605D01*
X0144094Y0062690D01*
X0144794Y0061990D01*
X0145709Y0061611D01*
X0146147Y0061611D01*
X0150595Y0057164D01*
X0150595Y0056024D01*
X0151297Y0055321D01*
X0160166Y0055321D01*
X0160869Y0056024D01*
X0160869Y0061743D01*
X0160166Y0062446D01*
X0151297Y0062446D01*
X0150851Y0061999D01*
X0150595Y0064054D02*
X0148795Y0064054D01*
X0148421Y0065253D02*
X0150595Y0065253D01*
X0150595Y0066451D02*
X0147032Y0066451D01*
X0145376Y0066451D02*
X0101813Y0066451D01*
X0101813Y0065253D02*
X0143987Y0065253D01*
X0143715Y0064054D02*
X0101813Y0064054D01*
X0101813Y0063898D02*
X0101813Y0069617D01*
X0101110Y0070320D01*
X0092242Y0070320D01*
X0091539Y0069617D01*
X0091539Y0068557D01*
X0085747Y0068557D01*
X0084679Y0069000D01*
X0082729Y0069000D01*
X0080928Y0068254D01*
X0079550Y0066876D01*
X0078804Y0065075D01*
X0078804Y0063125D01*
X0079550Y0061324D01*
X0079974Y0060900D01*
X0079450Y0060900D01*
X0078004Y0062346D01*
X0078004Y0068354D01*
X0080262Y0070612D01*
X0080928Y0069946D01*
X0082729Y0069200D01*
X0084679Y0069200D01*
X0086480Y0069946D01*
X0087858Y0071324D01*
X0088604Y0073125D01*
X0088604Y0075075D01*
X0087858Y0076876D01*
X0086480Y0078254D01*
X0084679Y0079000D01*
X0082729Y0079000D01*
X0080928Y0078254D01*
X0079550Y0076876D01*
X0078804Y0075075D01*
X0078804Y0074246D01*
X0075458Y0070900D01*
X0074404Y0069846D01*
X0074404Y0060854D01*
X0076904Y0058354D01*
X0077958Y0057300D01*
X0079974Y0057300D01*
X0079550Y0056876D01*
X0078804Y0055075D01*
X0078804Y0053125D01*
X0079550Y0051324D01*
X0080928Y0049946D01*
X0082729Y0049200D01*
X0084679Y0049200D01*
X0086480Y0049946D01*
X0087858Y0051324D01*
X0088604Y0053125D01*
X0088604Y0055075D01*
X0087858Y0056876D01*
X0087434Y0057300D01*
X0091539Y0057300D01*
X0091539Y0056024D01*
X0092242Y0055321D01*
X0101110Y0055321D01*
X0101813Y0056024D01*
X0101813Y0061743D01*
X0101110Y0062446D01*
X0092242Y0062446D01*
X0091539Y0061743D01*
X0091539Y0060900D01*
X0087434Y0060900D01*
X0087858Y0061324D01*
X0088604Y0063125D01*
X0088604Y0064957D01*
X0091539Y0064957D01*
X0091539Y0063898D01*
X0092242Y0063195D01*
X0101110Y0063195D01*
X0101813Y0063898D01*
X0101813Y0061657D02*
X0145598Y0061657D01*
X0144025Y0062856D02*
X0088492Y0062856D01*
X0088604Y0064054D02*
X0091539Y0064054D01*
X0091539Y0061657D02*
X0087996Y0061657D01*
X0083704Y0064100D02*
X0086361Y0066757D01*
X0096676Y0066757D01*
X0091539Y0068848D02*
X0085045Y0068848D01*
X0086580Y0070047D02*
X0091969Y0070047D01*
X0092066Y0071245D02*
X0087779Y0071245D01*
X0088322Y0072444D02*
X0091539Y0072444D01*
X0091539Y0073642D02*
X0088604Y0073642D01*
X0088604Y0074841D02*
X0091539Y0074841D01*
X0091539Y0076039D02*
X0088204Y0076039D01*
X0087496Y0077238D02*
X0091539Y0077238D01*
X0091551Y0079635D02*
X0085728Y0079635D01*
X0086040Y0078436D02*
X0110495Y0078436D01*
X0111693Y0079635D02*
X0101802Y0079635D01*
X0101813Y0077238D02*
X0109296Y0077238D01*
X0109235Y0074631D02*
X0128704Y0094100D01*
X0128704Y0131600D01*
X0123704Y0136600D01*
X0118940Y0136600D01*
X0118940Y0131600D02*
X0118940Y0089336D01*
X0112109Y0082506D01*
X0106204Y0082506D01*
X0096676Y0082506D01*
X0091539Y0082032D02*
X0088151Y0082032D01*
X0088604Y0083230D02*
X0091539Y0083230D01*
X0091539Y0084429D02*
X0088604Y0084429D01*
X0088375Y0085627D02*
X0091802Y0085627D01*
X0092234Y0086826D02*
X0088975Y0086826D01*
X0090174Y0088024D02*
X0091539Y0088024D01*
X0089984Y0090380D02*
X0083704Y0084100D01*
X0073802Y0084100D01*
X0068704Y0079002D01*
X0073054Y0078436D02*
X0081368Y0078436D01*
X0081680Y0079635D02*
X0073054Y0079635D01*
X0073081Y0080833D02*
X0080041Y0080833D01*
X0079257Y0082032D02*
X0074280Y0082032D01*
X0073054Y0077238D02*
X0079912Y0077238D01*
X0079204Y0076039D02*
X0073054Y0076039D01*
X0073054Y0074841D02*
X0078804Y0074841D01*
X0078201Y0073642D02*
X0072719Y0073642D01*
X0075804Y0071245D02*
X0051721Y0071245D01*
X0050917Y0070047D02*
X0074605Y0070047D01*
X0074404Y0068848D02*
X0049955Y0068848D01*
X0050744Y0069788D02*
X0050744Y0069788D01*
X0058091Y0080744D01*
X0064221Y0092424D01*
X0069064Y0104693D01*
X0072563Y0117411D01*
X0072563Y0117411D01*
X0074679Y0130431D01*
X0074679Y0130431D01*
X0075387Y0143603D01*
X0074679Y0156775D01*
X0072563Y0169795D01*
X0069064Y0182513D01*
X0064221Y0194783D01*
X0058091Y0206462D01*
X0050744Y0217418D01*
X0047183Y0221662D01*
X0047183Y0278346D01*
X0130869Y0278346D01*
X0134966Y0278185D01*
X0143059Y0276903D01*
X0150852Y0274371D01*
X0158153Y0270651D01*
X0164782Y0265835D01*
X0170576Y0260041D01*
X0175393Y0253411D01*
X0179113Y0246111D01*
X0181645Y0238318D01*
X0182926Y0230225D01*
X0183087Y0226128D01*
X0183087Y0220547D01*
X0181786Y0222802D01*
X0179906Y0224682D01*
X0177602Y0226012D01*
X0175034Y0226700D01*
X0172374Y0226700D01*
X0169806Y0226012D01*
X0167502Y0224682D01*
X0165622Y0222802D01*
X0164292Y0220498D01*
X0163604Y0217930D01*
X0163604Y0215270D01*
X0164292Y0212702D01*
X0165622Y0210398D01*
X0167502Y0208518D01*
X0169806Y0207188D01*
X0172374Y0206500D01*
X0175034Y0206500D01*
X0177602Y0207188D01*
X0179906Y0208518D01*
X0181786Y0210398D01*
X0183087Y0212653D01*
X0183087Y0060773D01*
X0182926Y0056676D01*
X0182518Y0054100D01*
X0158275Y0054100D01*
X0158197Y0054178D01*
X0094211Y0054178D01*
X0094133Y0054100D01*
X0093704Y0054100D01*
X0093704Y0053671D01*
X0093508Y0053475D01*
X0093508Y0024922D01*
X0093704Y0024726D01*
X0093704Y0008555D01*
X0047183Y0008555D01*
X0047183Y0065544D01*
X0050744Y0069788D01*
X0048950Y0067650D02*
X0074404Y0067650D01*
X0074404Y0066451D02*
X0047944Y0066451D01*
X0047183Y0065253D02*
X0074404Y0065253D01*
X0074404Y0064054D02*
X0047183Y0064054D01*
X0047183Y0062856D02*
X0074404Y0062856D01*
X0074404Y0061657D02*
X0047183Y0061657D01*
X0047183Y0060459D02*
X0074800Y0060459D01*
X0075998Y0059260D02*
X0073017Y0059260D01*
X0073054Y0059223D02*
X0072351Y0059926D01*
X0065057Y0059926D01*
X0064354Y0059223D01*
X0064354Y0055998D01*
X0056817Y0055998D01*
X0055762Y0054944D01*
X0054917Y0054099D01*
X0050254Y0054099D01*
X0049551Y0053396D01*
X0049551Y0047284D01*
X0050002Y0046834D01*
X0049769Y0046699D01*
X0049471Y0046401D01*
X0049260Y0046036D01*
X0049151Y0045630D01*
X0049151Y0043460D01*
X0053104Y0043460D01*
X0053104Y0042260D01*
X0049151Y0042260D01*
X0049151Y0040090D01*
X0049260Y0039683D01*
X0049471Y0039318D01*
X0049769Y0039020D01*
X0050134Y0038810D01*
X0050541Y0038701D01*
X0053104Y0038701D01*
X0053104Y0042260D01*
X0054304Y0042260D01*
X0054304Y0043460D01*
X0058257Y0043460D01*
X0058257Y0045630D01*
X0058148Y0046036D01*
X0057937Y0046401D01*
X0057639Y0046699D01*
X0057406Y0046834D01*
X0057857Y0047284D01*
X0057857Y0051947D01*
X0058308Y0052398D01*
X0064354Y0052398D01*
X0064354Y0049174D01*
X0065057Y0048471D01*
X0072351Y0048471D01*
X0073054Y0049174D01*
X0073054Y0059223D01*
X0073054Y0058062D02*
X0077197Y0058062D01*
X0078704Y0059100D02*
X0076204Y0061600D01*
X0076204Y0069100D01*
X0081204Y0074100D01*
X0083704Y0074100D01*
X0080828Y0070047D02*
X0079696Y0070047D01*
X0078498Y0068848D02*
X0082363Y0068848D01*
X0080324Y0067650D02*
X0078004Y0067650D01*
X0078004Y0066451D02*
X0079374Y0066451D01*
X0078878Y0065253D02*
X0078004Y0065253D01*
X0078004Y0064054D02*
X0078804Y0064054D01*
X0078916Y0062856D02*
X0078004Y0062856D01*
X0078692Y0061657D02*
X0079412Y0061657D01*
X0078704Y0059100D02*
X0096460Y0059100D01*
X0096676Y0058883D01*
X0091539Y0056863D02*
X0087863Y0056863D01*
X0088360Y0055665D02*
X0091899Y0055665D01*
X0093508Y0053268D02*
X0088604Y0053268D01*
X0088604Y0054466D02*
X0182576Y0054466D01*
X0182766Y0055665D02*
X0160509Y0055665D01*
X0160869Y0056863D02*
X0168519Y0056863D01*
X0165793Y0058062D02*
X0160869Y0058062D01*
X0160869Y0059260D02*
X0164260Y0059260D01*
X0163087Y0060459D02*
X0160869Y0060459D01*
X0160869Y0061657D02*
X0162395Y0061657D01*
X0155732Y0058883D02*
X0151421Y0058883D01*
X0146204Y0064100D01*
X0147300Y0060459D02*
X0101813Y0060459D01*
X0101813Y0059260D02*
X0148498Y0059260D01*
X0149697Y0058062D02*
X0101813Y0058062D01*
X0101813Y0056863D02*
X0150595Y0056863D01*
X0150954Y0055665D02*
X0101454Y0055665D01*
X0093508Y0052069D02*
X0088166Y0052069D01*
X0087404Y0050870D02*
X0093508Y0050870D01*
X0093508Y0049672D02*
X0085818Y0049672D01*
X0085950Y0048473D02*
X0093508Y0048473D01*
X0093508Y0047275D02*
X0087459Y0047275D01*
X0087858Y0046876D02*
X0086480Y0048254D01*
X0084679Y0049000D01*
X0082729Y0049000D01*
X0080928Y0048254D01*
X0079550Y0046876D01*
X0079146Y0045900D01*
X0075458Y0045900D01*
X0074404Y0044846D01*
X0073054Y0043495D01*
X0073054Y0046526D01*
X0072351Y0047229D01*
X0065057Y0047229D01*
X0064354Y0046526D01*
X0064354Y0036477D01*
X0065057Y0035774D01*
X0072351Y0035774D01*
X0073054Y0036477D01*
X0073054Y0039702D01*
X0074351Y0039702D01*
X0076950Y0042300D01*
X0079146Y0042300D01*
X0079550Y0041324D01*
X0080928Y0039946D01*
X0082534Y0039281D01*
X0082463Y0039269D01*
X0081669Y0039012D01*
X0080926Y0038633D01*
X0080251Y0038143D01*
X0079661Y0037553D01*
X0079171Y0036878D01*
X0078792Y0036134D01*
X0078534Y0035341D01*
X0078404Y0034517D01*
X0078404Y0034500D01*
X0083304Y0034500D01*
X0083304Y0033700D01*
X0084104Y0033700D01*
X0084104Y0034500D01*
X0089004Y0034500D01*
X0089004Y0034517D01*
X0088873Y0035341D01*
X0088616Y0036134D01*
X0088237Y0036878D01*
X0087747Y0037553D01*
X0087157Y0038143D01*
X0086482Y0038633D01*
X0085738Y0039012D01*
X0084945Y0039269D01*
X0084874Y0039281D01*
X0086480Y0039946D01*
X0087858Y0041324D01*
X0088604Y0043125D01*
X0088604Y0045075D01*
X0087858Y0046876D01*
X0088189Y0046076D02*
X0093508Y0046076D01*
X0093508Y0044878D02*
X0088604Y0044878D01*
X0088604Y0043679D02*
X0093508Y0043679D01*
X0093508Y0042481D02*
X0088337Y0042481D01*
X0087816Y0041282D02*
X0093508Y0041282D01*
X0093508Y0040084D02*
X0086618Y0040084D01*
X0085986Y0038885D02*
X0093508Y0038885D01*
X0093508Y0037687D02*
X0087612Y0037687D01*
X0088435Y0036488D02*
X0093508Y0036488D01*
X0093508Y0035290D02*
X0088882Y0035290D01*
X0089004Y0033700D02*
X0084104Y0033700D01*
X0084104Y0028800D01*
X0084121Y0028800D01*
X0084945Y0028930D01*
X0085738Y0029188D01*
X0086482Y0029567D01*
X0087157Y0030057D01*
X0087747Y0030647D01*
X0088237Y0031322D01*
X0088616Y0032066D01*
X0088873Y0032859D01*
X0089004Y0033683D01*
X0089004Y0033700D01*
X0088879Y0032893D02*
X0093508Y0032893D01*
X0093508Y0034091D02*
X0084104Y0034091D01*
X0083704Y0034100D02*
X0083704Y0024100D01*
X0076302Y0016698D01*
X0068704Y0016698D01*
X0055062Y0041502D01*
X0053704Y0042860D01*
X0054304Y0042481D02*
X0064354Y0042481D01*
X0064354Y0043679D02*
X0058257Y0043679D01*
X0058257Y0044878D02*
X0064354Y0044878D01*
X0064354Y0046076D02*
X0058125Y0046076D01*
X0057848Y0047275D02*
X0079949Y0047275D01*
X0079219Y0046076D02*
X0073054Y0046076D01*
X0073054Y0044878D02*
X0074436Y0044878D01*
X0073238Y0043679D02*
X0073054Y0043679D01*
X0073606Y0041502D02*
X0076204Y0044100D01*
X0083704Y0044100D01*
X0081458Y0048473D02*
X0072353Y0048473D01*
X0073054Y0049672D02*
X0081590Y0049672D01*
X0080004Y0050870D02*
X0073054Y0050870D01*
X0073054Y0052069D02*
X0079242Y0052069D01*
X0078804Y0053268D02*
X0073054Y0053268D01*
X0073054Y0054466D02*
X0078804Y0054466D01*
X0079048Y0055665D02*
X0073054Y0055665D01*
X0073054Y0056863D02*
X0079545Y0056863D01*
X0068704Y0054198D02*
X0057562Y0054198D01*
X0053704Y0050340D01*
X0055284Y0054466D02*
X0047183Y0054466D01*
X0047183Y0053268D02*
X0049551Y0053268D01*
X0049551Y0052069D02*
X0047183Y0052069D01*
X0047183Y0050870D02*
X0049551Y0050870D01*
X0049551Y0049672D02*
X0047183Y0049672D01*
X0047183Y0048473D02*
X0049551Y0048473D01*
X0049560Y0047275D02*
X0047183Y0047275D01*
X0047183Y0046076D02*
X0049283Y0046076D01*
X0049151Y0044878D02*
X0047183Y0044878D01*
X0047183Y0043679D02*
X0049151Y0043679D01*
X0047183Y0042481D02*
X0053104Y0042481D01*
X0053104Y0041282D02*
X0054304Y0041282D01*
X0054304Y0042260D02*
X0054304Y0038701D01*
X0056867Y0038701D01*
X0057274Y0038810D01*
X0057639Y0039020D01*
X0057937Y0039318D01*
X0058148Y0039683D01*
X0058257Y0040090D01*
X0058257Y0042260D01*
X0054304Y0042260D01*
X0054304Y0040084D02*
X0053104Y0040084D01*
X0053104Y0038885D02*
X0054304Y0038885D01*
X0057405Y0038885D02*
X0064354Y0038885D01*
X0064354Y0037687D02*
X0047183Y0037687D01*
X0047183Y0038885D02*
X0050003Y0038885D01*
X0049153Y0040084D02*
X0047183Y0040084D01*
X0047183Y0041282D02*
X0049151Y0041282D01*
X0047183Y0036488D02*
X0064354Y0036488D01*
X0064354Y0040084D02*
X0058255Y0040084D01*
X0058257Y0041282D02*
X0064354Y0041282D01*
X0065055Y0048473D02*
X0057857Y0048473D01*
X0057857Y0049672D02*
X0064354Y0049672D01*
X0064354Y0050870D02*
X0057857Y0050870D01*
X0057978Y0052069D02*
X0064354Y0052069D01*
X0064354Y0056863D02*
X0047183Y0056863D01*
X0047183Y0055665D02*
X0056483Y0055665D01*
X0064354Y0058062D02*
X0047183Y0058062D01*
X0047183Y0059260D02*
X0064391Y0059260D01*
X0064689Y0073642D02*
X0053329Y0073642D01*
X0054132Y0074841D02*
X0064354Y0074841D01*
X0064354Y0076039D02*
X0054936Y0076039D01*
X0055740Y0077238D02*
X0064354Y0077238D01*
X0064354Y0078436D02*
X0056544Y0078436D01*
X0057347Y0079635D02*
X0064354Y0079635D01*
X0064354Y0080833D02*
X0058138Y0080833D01*
X0058091Y0080744D02*
X0058091Y0080744D01*
X0058767Y0082032D02*
X0064354Y0082032D01*
X0064354Y0083230D02*
X0059396Y0083230D01*
X0060025Y0084429D02*
X0064757Y0084429D01*
X0061283Y0086826D02*
X0079529Y0086826D01*
X0080699Y0088024D02*
X0061912Y0088024D01*
X0062541Y0089223D02*
X0086281Y0089223D01*
X0087480Y0090421D02*
X0063170Y0090421D01*
X0063799Y0091620D02*
X0088678Y0091620D01*
X0089984Y0090380D02*
X0096676Y0090380D01*
X0106204Y0090380D01*
X0112484Y0090380D01*
X0116204Y0094100D01*
X0116204Y0124100D01*
X0108704Y0131600D01*
X0098468Y0131600D01*
X0098468Y0136600D02*
X0093704Y0136600D01*
X0091204Y0134100D01*
X0091204Y0129100D01*
X0093704Y0126600D01*
X0108704Y0126600D01*
X0113704Y0121600D01*
X0113704Y0101600D01*
X0110358Y0098254D01*
X0106204Y0098254D01*
X0096676Y0098254D01*
X0091539Y0098811D02*
X0066742Y0098811D01*
X0067215Y0100009D02*
X0076749Y0100009D01*
X0077306Y0099688D02*
X0079874Y0099000D01*
X0082534Y0099000D01*
X0085102Y0099688D01*
X0087406Y0101018D01*
X0089286Y0102898D01*
X0090616Y0105202D01*
X0091304Y0107770D01*
X0091304Y0110430D01*
X0090616Y0112998D01*
X0089286Y0115302D01*
X0087406Y0117182D01*
X0085102Y0118512D01*
X0082534Y0119200D01*
X0079874Y0119200D01*
X0077306Y0118512D01*
X0075002Y0117182D01*
X0073122Y0115302D01*
X0071792Y0112998D01*
X0071104Y0110430D01*
X0071104Y0107770D01*
X0071792Y0105202D01*
X0073122Y0102898D01*
X0075002Y0101018D01*
X0077306Y0099688D01*
X0074812Y0101208D02*
X0067688Y0101208D01*
X0068161Y0102406D02*
X0073614Y0102406D01*
X0072714Y0103605D02*
X0068634Y0103605D01*
X0069064Y0104693D02*
X0069064Y0104693D01*
X0069094Y0104803D02*
X0072022Y0104803D01*
X0071578Y0106002D02*
X0069424Y0106002D01*
X0069754Y0107201D02*
X0071257Y0107201D01*
X0071104Y0108399D02*
X0070083Y0108399D01*
X0070413Y0109598D02*
X0071104Y0109598D01*
X0071202Y0110796D02*
X0070743Y0110796D01*
X0071073Y0111995D02*
X0071523Y0111995D01*
X0071403Y0113193D02*
X0071905Y0113193D01*
X0071732Y0114392D02*
X0072597Y0114392D01*
X0072062Y0115590D02*
X0073411Y0115590D01*
X0072392Y0116789D02*
X0074609Y0116789D01*
X0076397Y0117987D02*
X0072657Y0117987D01*
X0072852Y0119186D02*
X0079821Y0119186D01*
X0082587Y0119186D02*
X0109404Y0119186D01*
X0109404Y0120384D02*
X0073046Y0120384D01*
X0073241Y0121583D02*
X0108630Y0121583D01*
X0108658Y0124100D02*
X0111204Y0121554D01*
X0111204Y0109100D01*
X0108232Y0106128D01*
X0096676Y0106128D01*
X0096095Y0110039D02*
X0092529Y0110039D01*
X0092122Y0110148D01*
X0091757Y0110359D01*
X0091459Y0110657D01*
X0091248Y0111022D01*
X0091139Y0111429D01*
X0091139Y0113420D01*
X0096095Y0113420D01*
X0097258Y0113420D01*
X0097258Y0114583D01*
X0102213Y0114583D01*
X0102213Y0116574D01*
X0102104Y0116981D01*
X0101894Y0117346D01*
X0101596Y0117644D01*
X0101231Y0117855D01*
X0100824Y0117964D01*
X0097258Y0117964D01*
X0097258Y0114583D01*
X0096095Y0114583D01*
X0096095Y0117964D01*
X0092529Y0117964D01*
X0092122Y0117855D01*
X0091757Y0117644D01*
X0091459Y0117346D01*
X0091248Y0116981D01*
X0091139Y0116574D01*
X0091139Y0114583D01*
X0096095Y0114583D01*
X0096095Y0113420D01*
X0096095Y0110039D01*
X0096095Y0110796D02*
X0097258Y0110796D01*
X0097258Y0110039D02*
X0100824Y0110039D01*
X0101231Y0110148D01*
X0101596Y0110359D01*
X0101894Y0110657D01*
X0102104Y0111022D01*
X0102213Y0111429D01*
X0102213Y0113420D01*
X0097258Y0113420D01*
X0097258Y0110039D01*
X0097258Y0111995D02*
X0096095Y0111995D01*
X0096095Y0113193D02*
X0097258Y0113193D01*
X0096676Y0114002D02*
X0096775Y0114100D01*
X0093704Y0114100D01*
X0083704Y0124100D01*
X0083704Y0233119D01*
X0071874Y0244949D01*
X0071704Y0245029D02*
X0071361Y0245029D01*
X0071618Y0244881D02*
X0067106Y0247486D01*
X0066869Y0247022D01*
X0066607Y0246214D01*
X0066474Y0245374D01*
X0066474Y0244524D01*
X0066607Y0243685D01*
X0066869Y0242876D01*
X0067255Y0242119D01*
X0067755Y0241431D01*
X0067918Y0241269D01*
X0067868Y0241289D01*
X0065879Y0241289D01*
X0064042Y0240528D01*
X0062635Y0239121D01*
X0061874Y0237284D01*
X0061874Y0235295D01*
X0062635Y0233457D01*
X0064042Y0232050D01*
X0065879Y0231289D01*
X0067868Y0231289D01*
X0069706Y0232050D01*
X0071113Y0233457D01*
X0071874Y0235295D01*
X0071874Y0237284D01*
X0071113Y0239121D01*
X0070524Y0239710D01*
X0070609Y0239682D01*
X0071449Y0239549D01*
X0072299Y0239549D01*
X0073138Y0239682D01*
X0073947Y0239945D01*
X0074704Y0240331D01*
X0075392Y0240830D01*
X0075993Y0241431D01*
X0076465Y0242082D01*
X0071942Y0244693D01*
X0072130Y0245018D01*
X0076642Y0242413D01*
X0076878Y0242876D01*
X0077141Y0243685D01*
X0077274Y0244524D01*
X0077274Y0245374D01*
X0077141Y0246214D01*
X0076878Y0247022D01*
X0076492Y0247780D01*
X0075993Y0248467D01*
X0075830Y0248630D01*
X0075879Y0248610D01*
X0077868Y0248610D01*
X0079706Y0249371D01*
X0081113Y0250777D01*
X0081874Y0252615D01*
X0081874Y0254604D01*
X0081113Y0256442D01*
X0079864Y0257690D01*
X0080879Y0257270D01*
X0082868Y0257270D01*
X0084706Y0258031D01*
X0086113Y0259438D01*
X0086874Y0261275D01*
X0086874Y0263264D01*
X0086113Y0265102D01*
X0084706Y0266509D01*
X0082868Y0267270D01*
X0080879Y0267270D01*
X0079042Y0266509D01*
X0077635Y0265102D01*
X0076874Y0263264D01*
X0076874Y0261275D01*
X0077635Y0259438D01*
X0078884Y0258189D01*
X0077868Y0258610D01*
X0075879Y0258610D01*
X0074042Y0257848D01*
X0072635Y0256442D01*
X0071874Y0254604D01*
X0071874Y0252615D01*
X0072635Y0250777D01*
X0073224Y0250189D01*
X0073138Y0250216D01*
X0072299Y0250349D01*
X0071449Y0250349D01*
X0070609Y0250216D01*
X0069801Y0249954D01*
X0069044Y0249568D01*
X0068356Y0249068D01*
X0067755Y0248467D01*
X0067282Y0247817D01*
X0071805Y0245205D01*
X0071618Y0244881D01*
X0070034Y0246228D02*
X0069285Y0246228D01*
X0067958Y0247426D02*
X0067209Y0247426D01*
X0067075Y0247426D02*
X0047183Y0247426D01*
X0047183Y0246228D02*
X0066611Y0246228D01*
X0066474Y0245029D02*
X0047183Y0245029D01*
X0047183Y0243831D02*
X0066584Y0243831D01*
X0066994Y0242632D02*
X0047183Y0242632D01*
X0047183Y0241434D02*
X0067753Y0241434D01*
X0071148Y0239037D02*
X0096904Y0239037D01*
X0096904Y0240235D02*
X0074516Y0240235D01*
X0075994Y0241434D02*
X0096904Y0241434D01*
X0096904Y0242632D02*
X0076754Y0242632D01*
X0076262Y0242632D02*
X0075512Y0242632D01*
X0074186Y0243831D02*
X0073436Y0243831D01*
X0077164Y0243831D02*
X0096904Y0243831D01*
X0096904Y0245029D02*
X0077274Y0245029D01*
X0077136Y0246228D02*
X0096904Y0246228D01*
X0096904Y0247426D02*
X0076672Y0247426D01*
X0075842Y0248625D02*
X0075835Y0248625D01*
X0077905Y0248625D02*
X0096904Y0248625D01*
X0096904Y0249823D02*
X0080159Y0249823D01*
X0081214Y0251022D02*
X0096904Y0251022D01*
X0096904Y0252220D02*
X0081710Y0252220D01*
X0081874Y0253419D02*
X0096904Y0253419D01*
X0096904Y0254617D02*
X0081868Y0254617D01*
X0081372Y0255816D02*
X0096904Y0255816D01*
X0096904Y0257014D02*
X0080540Y0257014D01*
X0078860Y0258213D02*
X0078826Y0258213D01*
X0077661Y0259411D02*
X0047183Y0259411D01*
X0047183Y0258213D02*
X0074922Y0258213D01*
X0073208Y0257014D02*
X0047183Y0257014D01*
X0047183Y0255816D02*
X0072376Y0255816D01*
X0071879Y0254617D02*
X0047183Y0254617D01*
X0047183Y0253419D02*
X0071874Y0253419D01*
X0072037Y0252220D02*
X0047183Y0252220D01*
X0047183Y0251022D02*
X0072534Y0251022D01*
X0069545Y0249823D02*
X0047183Y0249823D01*
X0047183Y0248625D02*
X0067913Y0248625D01*
X0063749Y0240235D02*
X0047183Y0240235D01*
X0047183Y0239037D02*
X0062600Y0239037D01*
X0062104Y0237838D02*
X0047183Y0237838D01*
X0047183Y0236640D02*
X0061874Y0236640D01*
X0061874Y0235441D02*
X0047183Y0235441D01*
X0047183Y0234243D02*
X0062310Y0234243D01*
X0063048Y0233044D02*
X0047183Y0233044D01*
X0047183Y0231846D02*
X0064536Y0231846D01*
X0069212Y0231846D02*
X0096904Y0231846D01*
X0096904Y0233044D02*
X0070700Y0233044D01*
X0071438Y0234243D02*
X0096904Y0234243D01*
X0096904Y0235441D02*
X0071874Y0235441D01*
X0071874Y0236640D02*
X0096904Y0236640D01*
X0096904Y0237838D02*
X0071644Y0237838D01*
X0070034Y0219200D02*
X0067374Y0219200D01*
X0064806Y0218512D01*
X0062502Y0217182D01*
X0060622Y0215302D01*
X0059292Y0212998D01*
X0058604Y0210430D01*
X0058604Y0207770D01*
X0059292Y0205202D01*
X0060622Y0202898D01*
X0062502Y0201018D01*
X0064806Y0199688D01*
X0067374Y0199000D01*
X0070034Y0199000D01*
X0072602Y0199688D01*
X0074906Y0201018D01*
X0076786Y0202898D01*
X0078116Y0205202D01*
X0078804Y0207770D01*
X0078804Y0210430D01*
X0078116Y0212998D01*
X0076786Y0215302D01*
X0074906Y0217182D01*
X0072602Y0218512D01*
X0070034Y0219200D01*
X0072041Y0218662D02*
X0096904Y0218662D01*
X0096904Y0217464D02*
X0074418Y0217464D01*
X0075822Y0216265D02*
X0096904Y0216265D01*
X0096904Y0215067D02*
X0076922Y0215067D01*
X0077614Y0213868D02*
X0096904Y0213868D01*
X0096904Y0212670D02*
X0078204Y0212670D01*
X0078525Y0211471D02*
X0096904Y0211471D01*
X0096904Y0210272D02*
X0078804Y0210272D01*
X0078804Y0209074D02*
X0096904Y0209074D01*
X0096904Y0207875D02*
X0078804Y0207875D01*
X0078511Y0206677D02*
X0096904Y0206677D01*
X0096904Y0205478D02*
X0078190Y0205478D01*
X0077584Y0204280D02*
X0096904Y0204280D01*
X0096904Y0203081D02*
X0076892Y0203081D01*
X0075770Y0201883D02*
X0096904Y0201883D01*
X0096904Y0200684D02*
X0074328Y0200684D01*
X0071847Y0199486D02*
X0096904Y0199486D01*
X0096904Y0198287D02*
X0062382Y0198287D01*
X0063011Y0197089D02*
X0096904Y0197089D01*
X0096904Y0195890D02*
X0063640Y0195890D01*
X0064257Y0194692D02*
X0096904Y0194692D01*
X0096904Y0193493D02*
X0064730Y0193493D01*
X0065203Y0192295D02*
X0096904Y0192295D01*
X0096904Y0191096D02*
X0065676Y0191096D01*
X0066149Y0189898D02*
X0096904Y0189898D01*
X0096904Y0188699D02*
X0066622Y0188699D01*
X0067095Y0187501D02*
X0096904Y0187501D01*
X0095815Y0186302D02*
X0067568Y0186302D01*
X0068041Y0185104D02*
X0094617Y0185104D01*
X0093418Y0183905D02*
X0068514Y0183905D01*
X0068987Y0182707D02*
X0092220Y0182707D01*
X0091021Y0181508D02*
X0069340Y0181508D01*
X0069670Y0180310D02*
X0089823Y0180310D01*
X0088624Y0179111D02*
X0070000Y0179111D01*
X0070330Y0177913D02*
X0087426Y0177913D01*
X0086227Y0176714D02*
X0070659Y0176714D01*
X0070989Y0175516D02*
X0085104Y0175516D01*
X0085104Y0174317D02*
X0071319Y0174317D01*
X0071649Y0173119D02*
X0085104Y0173119D01*
X0085104Y0171920D02*
X0071978Y0171920D01*
X0072308Y0170722D02*
X0085104Y0170722D01*
X0085104Y0169523D02*
X0072607Y0169523D01*
X0072802Y0168325D02*
X0085104Y0168325D01*
X0085104Y0167126D02*
X0072997Y0167126D01*
X0073192Y0165928D02*
X0085104Y0165928D01*
X0085104Y0164729D02*
X0073386Y0164729D01*
X0073581Y0163531D02*
X0085104Y0163531D01*
X0085104Y0162332D02*
X0073776Y0162332D01*
X0073971Y0161134D02*
X0085104Y0161134D01*
X0085104Y0159935D02*
X0074166Y0159935D01*
X0074360Y0158737D02*
X0085104Y0158737D01*
X0085104Y0157538D02*
X0074555Y0157538D01*
X0074703Y0156339D02*
X0085104Y0156339D01*
X0085104Y0155141D02*
X0074767Y0155141D01*
X0074831Y0153942D02*
X0085104Y0153942D01*
X0085104Y0152744D02*
X0074896Y0152744D01*
X0074960Y0151545D02*
X0085104Y0151545D01*
X0085104Y0150347D02*
X0075025Y0150347D01*
X0075089Y0149148D02*
X0085104Y0149148D01*
X0085104Y0147950D02*
X0075154Y0147950D01*
X0075218Y0146751D02*
X0085104Y0146751D01*
X0085104Y0145553D02*
X0075282Y0145553D01*
X0075347Y0144354D02*
X0085104Y0144354D01*
X0085104Y0143156D02*
X0075363Y0143156D01*
X0075387Y0143603D02*
X0075387Y0143603D01*
X0075299Y0141957D02*
X0085104Y0141957D01*
X0085104Y0140759D02*
X0075234Y0140759D01*
X0075170Y0139560D02*
X0085104Y0139560D01*
X0085104Y0138362D02*
X0075105Y0138362D01*
X0075041Y0137163D02*
X0085104Y0137163D01*
X0085104Y0135965D02*
X0074977Y0135965D01*
X0074912Y0134766D02*
X0085104Y0134766D01*
X0085104Y0133568D02*
X0074848Y0133568D01*
X0074783Y0132369D02*
X0085104Y0132369D01*
X0085104Y0131171D02*
X0074719Y0131171D01*
X0074605Y0129972D02*
X0085104Y0129972D01*
X0085104Y0128774D02*
X0074410Y0128774D01*
X0074215Y0127575D02*
X0085183Y0127575D01*
X0086382Y0126377D02*
X0074020Y0126377D01*
X0073825Y0125178D02*
X0087580Y0125178D01*
X0088779Y0123980D02*
X0073631Y0123980D01*
X0073436Y0122781D02*
X0089977Y0122781D01*
X0091204Y0124100D02*
X0086904Y0128400D01*
X0086904Y0174846D01*
X0098704Y0186646D01*
X0098704Y0256600D01*
X0102444Y0260340D01*
X0103704Y0260340D01*
X0113704Y0260340D01*
X0117857Y0260610D02*
X0119551Y0260610D01*
X0119551Y0261808D02*
X0117857Y0261808D01*
X0117857Y0263007D02*
X0119551Y0263007D01*
X0119551Y0259411D02*
X0117857Y0259411D01*
X0117857Y0258213D02*
X0119551Y0258213D01*
X0119821Y0257014D02*
X0117587Y0257014D01*
X0117857Y0255816D02*
X0119201Y0255816D01*
X0119151Y0254617D02*
X0117857Y0254617D01*
X0117857Y0253419D02*
X0123104Y0253419D01*
X0123104Y0252220D02*
X0124304Y0252220D01*
X0124304Y0252260D02*
X0124304Y0248701D01*
X0126867Y0248701D01*
X0127274Y0248810D01*
X0127639Y0249020D01*
X0127937Y0249318D01*
X0128148Y0249683D01*
X0128257Y0250090D01*
X0128257Y0252260D01*
X0124304Y0252260D01*
X0124304Y0251022D02*
X0123104Y0251022D01*
X0123104Y0249823D02*
X0124304Y0249823D01*
X0124580Y0247426D02*
X0125348Y0247426D01*
X0125348Y0246228D02*
X0124580Y0246228D01*
X0124580Y0245029D02*
X0125348Y0245029D01*
X0125348Y0243831D02*
X0124580Y0243831D01*
X0121395Y0243831D02*
X0115613Y0243831D01*
X0115613Y0245029D02*
X0121395Y0245029D01*
X0121395Y0246228D02*
X0115613Y0246228D01*
X0114354Y0247426D02*
X0121972Y0247426D01*
X0119223Y0249823D02*
X0117857Y0249823D01*
X0117857Y0251022D02*
X0119151Y0251022D01*
X0119151Y0252220D02*
X0117857Y0252220D01*
X0114354Y0248625D02*
X0131609Y0248625D01*
X0131609Y0247426D02*
X0127955Y0247426D01*
X0128532Y0246228D02*
X0129276Y0246228D01*
X0129276Y0245029D02*
X0128532Y0245029D01*
X0128532Y0243831D02*
X0129276Y0243831D01*
X0129276Y0242632D02*
X0128532Y0242632D01*
X0128532Y0241434D02*
X0129276Y0241434D01*
X0129276Y0240235D02*
X0128471Y0240235D01*
X0132444Y0243431D02*
X0133409Y0244395D01*
X0133409Y0246600D01*
X0133409Y0252565D01*
X0133704Y0252860D01*
X0135209Y0248625D02*
X0151904Y0248625D01*
X0151904Y0247426D02*
X0147955Y0247426D01*
X0148532Y0246228D02*
X0149276Y0246228D01*
X0149276Y0245029D02*
X0148532Y0245029D01*
X0148532Y0243831D02*
X0149276Y0243831D01*
X0149276Y0242632D02*
X0148532Y0242632D01*
X0148532Y0241434D02*
X0149276Y0241434D01*
X0149276Y0240235D02*
X0148471Y0240235D01*
X0151872Y0237838D02*
X0156904Y0237838D01*
X0156904Y0236640D02*
X0151872Y0236640D01*
X0151872Y0235441D02*
X0156904Y0235441D01*
X0156904Y0234243D02*
X0151872Y0234243D01*
X0152975Y0233044D02*
X0156904Y0233044D01*
X0156904Y0231846D02*
X0154173Y0231846D01*
X0155372Y0230647D02*
X0156904Y0230647D01*
X0156904Y0229449D02*
X0155504Y0229449D01*
X0155504Y0228250D02*
X0156904Y0228250D01*
X0156904Y0227052D02*
X0155504Y0227052D01*
X0155504Y0225853D02*
X0156904Y0225853D01*
X0156904Y0224655D02*
X0155504Y0224655D01*
X0155504Y0223456D02*
X0156904Y0223456D01*
X0156904Y0222258D02*
X0155504Y0222258D01*
X0155504Y0221059D02*
X0156904Y0221059D01*
X0156904Y0219861D02*
X0155504Y0219861D01*
X0155504Y0218662D02*
X0156904Y0218662D01*
X0156904Y0217464D02*
X0155504Y0217464D01*
X0155504Y0216265D02*
X0156904Y0216265D01*
X0156904Y0215067D02*
X0154716Y0215067D01*
X0153518Y0213868D02*
X0156904Y0213868D01*
X0156904Y0212670D02*
X0153565Y0212670D01*
X0153604Y0211471D02*
X0156904Y0211471D01*
X0156904Y0210272D02*
X0153458Y0210272D01*
X0152961Y0209074D02*
X0156904Y0209074D01*
X0156904Y0207875D02*
X0151909Y0207875D01*
X0148704Y0211600D02*
X0153704Y0216600D01*
X0153704Y0229769D01*
X0148704Y0234769D01*
X0151240Y0225853D02*
X0151904Y0225853D01*
X0148704Y0224100D02*
X0148704Y0221600D01*
X0148704Y0219100D01*
X0143704Y0214100D01*
X0143704Y0196600D01*
X0148704Y0191600D01*
X0156204Y0184100D01*
X0156204Y0176600D01*
X0153704Y0174100D01*
X0146204Y0174100D01*
X0138704Y0166600D01*
X0138704Y0154336D01*
X0138468Y0154100D01*
X0136904Y0157538D02*
X0130504Y0157538D01*
X0130504Y0158737D02*
X0136904Y0158737D01*
X0136904Y0159935D02*
X0130504Y0159935D01*
X0130504Y0161134D02*
X0136904Y0161134D01*
X0136904Y0162332D02*
X0130504Y0162332D01*
X0130504Y0163531D02*
X0136904Y0163531D01*
X0136904Y0164729D02*
X0130504Y0164729D01*
X0130577Y0165928D02*
X0136904Y0165928D01*
X0136904Y0167126D02*
X0132750Y0167126D01*
X0133577Y0168325D02*
X0137883Y0168325D01*
X0139082Y0169523D02*
X0133693Y0169523D01*
X0133102Y0170722D02*
X0140280Y0170722D01*
X0141479Y0171920D02*
X0131570Y0171920D01*
X0132768Y0173119D02*
X0142677Y0173119D01*
X0143876Y0174317D02*
X0133967Y0174317D01*
X0135165Y0175516D02*
X0145074Y0175516D01*
X0145928Y0177446D02*
X0144550Y0178824D01*
X0143804Y0180625D01*
X0143804Y0182575D01*
X0144550Y0184376D01*
X0145928Y0185754D01*
X0147729Y0186500D01*
X0149679Y0186500D01*
X0151480Y0185754D01*
X0152858Y0184376D01*
X0153604Y0182575D01*
X0153604Y0180625D01*
X0152858Y0178824D01*
X0151480Y0177446D01*
X0149679Y0176700D01*
X0147729Y0176700D01*
X0145928Y0177446D01*
X0145462Y0177913D02*
X0141946Y0177913D01*
X0142977Y0179111D02*
X0144431Y0179111D01*
X0143935Y0180310D02*
X0143473Y0180310D01*
X0143604Y0181508D02*
X0143804Y0181508D01*
X0143859Y0182707D02*
X0143549Y0182707D01*
X0143053Y0183905D02*
X0144355Y0183905D01*
X0145278Y0185104D02*
X0142130Y0185104D01*
X0140156Y0186302D02*
X0147252Y0186302D01*
X0145874Y0187501D02*
X0141534Y0187501D01*
X0142733Y0188699D02*
X0144675Y0188699D01*
X0144105Y0189898D02*
X0143303Y0189898D01*
X0143604Y0191096D02*
X0143804Y0191096D01*
X0143804Y0192295D02*
X0143604Y0192295D01*
X0143223Y0193493D02*
X0144185Y0193493D01*
X0143067Y0194692D02*
X0142542Y0194692D01*
X0141904Y0195890D02*
X0141150Y0195890D01*
X0141904Y0197089D02*
X0135761Y0197089D01*
X0135504Y0198287D02*
X0141904Y0198287D01*
X0141904Y0199486D02*
X0135504Y0199486D01*
X0135504Y0200684D02*
X0141904Y0200684D01*
X0141904Y0201883D02*
X0135504Y0201883D01*
X0135504Y0203081D02*
X0141904Y0203081D01*
X0141904Y0204280D02*
X0135504Y0204280D01*
X0135504Y0205478D02*
X0141904Y0205478D01*
X0141904Y0206677D02*
X0135504Y0206677D01*
X0138704Y0211600D02*
X0138704Y0214670D01*
X0143604Y0219570D01*
X0143604Y0223630D01*
X0140734Y0226500D01*
X0128804Y0226500D01*
X0121204Y0234100D01*
X0113704Y0234100D01*
X0109373Y0234100D01*
X0108704Y0234769D01*
X0111872Y0231846D02*
X0120913Y0231846D01*
X0122111Y0230647D02*
X0100504Y0230647D01*
X0100504Y0229449D02*
X0123310Y0229449D01*
X0124508Y0228250D02*
X0100504Y0228250D01*
X0100504Y0227052D02*
X0125707Y0227052D01*
X0126168Y0225853D02*
X0121240Y0225853D01*
X0121480Y0225754D02*
X0119679Y0226500D01*
X0117729Y0226500D01*
X0115928Y0225754D01*
X0114550Y0224376D01*
X0113804Y0222575D01*
X0113804Y0220625D01*
X0114208Y0219650D01*
X0112958Y0218400D01*
X0111904Y0217346D01*
X0111904Y0215330D01*
X0111480Y0215754D01*
X0109679Y0216500D01*
X0107729Y0216500D01*
X0105928Y0215754D01*
X0105504Y0215330D01*
X0105504Y0215854D01*
X0106754Y0217104D01*
X0107729Y0216700D01*
X0109679Y0216700D01*
X0111480Y0217446D01*
X0112858Y0218824D01*
X0113604Y0220625D01*
X0113604Y0222575D01*
X0112858Y0224376D01*
X0111480Y0225754D01*
X0109679Y0226500D01*
X0107729Y0226500D01*
X0105928Y0225754D01*
X0104550Y0224376D01*
X0103804Y0222575D01*
X0103804Y0220625D01*
X0104208Y0219650D01*
X0102958Y0218400D01*
X0101904Y0217346D01*
X0101904Y0195854D01*
X0104208Y0193550D01*
X0103804Y0192575D01*
X0103804Y0191746D01*
X0100504Y0188446D01*
X0100504Y0248711D01*
X0100541Y0248701D01*
X0103104Y0248701D01*
X0103104Y0249823D02*
X0104304Y0249823D01*
X0104304Y0248701D02*
X0106867Y0248701D01*
X0107274Y0248810D01*
X0107639Y0249020D01*
X0107937Y0249318D01*
X0108148Y0249683D01*
X0108257Y0250090D01*
X0108257Y0252260D01*
X0104304Y0252260D01*
X0104304Y0248701D01*
X0104580Y0247426D02*
X0105348Y0247426D01*
X0105348Y0247787D02*
X0105348Y0243815D01*
X0108532Y0243815D01*
X0108532Y0246397D01*
X0108423Y0246804D01*
X0108213Y0247169D01*
X0107915Y0247467D01*
X0107550Y0247678D01*
X0107143Y0247787D01*
X0105348Y0247787D01*
X0105348Y0246228D02*
X0104580Y0246228D01*
X0104580Y0245029D02*
X0105348Y0245029D01*
X0105348Y0243831D02*
X0104580Y0243831D01*
X0104964Y0243431D02*
X0103704Y0244691D01*
X0103704Y0252860D01*
X0104304Y0253419D02*
X0109551Y0253419D01*
X0109551Y0254617D02*
X0108257Y0254617D01*
X0108207Y0255816D02*
X0109551Y0255816D01*
X0109821Y0257014D02*
X0107587Y0257014D01*
X0107857Y0258213D02*
X0109551Y0258213D01*
X0109551Y0263007D02*
X0107857Y0263007D01*
X0099551Y0263007D02*
X0086874Y0263007D01*
X0086874Y0261808D02*
X0099551Y0261808D01*
X0099551Y0260610D02*
X0086598Y0260610D01*
X0086087Y0259411D02*
X0098970Y0259411D01*
X0097771Y0258213D02*
X0084888Y0258213D01*
X0086484Y0264205D02*
X0135024Y0264205D01*
X0136222Y0265404D02*
X0085811Y0265404D01*
X0084480Y0266603D02*
X0137421Y0266603D01*
X0138619Y0267801D02*
X0047183Y0267801D01*
X0047183Y0266603D02*
X0079268Y0266603D01*
X0077937Y0265404D02*
X0047183Y0265404D01*
X0047183Y0264205D02*
X0077264Y0264205D01*
X0076874Y0263007D02*
X0047183Y0263007D01*
X0047183Y0261808D02*
X0076874Y0261808D01*
X0077149Y0260610D02*
X0047183Y0260610D01*
X0047183Y0269000D02*
X0160426Y0269000D01*
X0158776Y0270198D02*
X0047183Y0270198D01*
X0047183Y0271397D02*
X0156690Y0271397D01*
X0154337Y0272595D02*
X0047183Y0272595D01*
X0047183Y0273794D02*
X0151985Y0273794D01*
X0148940Y0274992D02*
X0047183Y0274992D01*
X0047183Y0276191D02*
X0145252Y0276191D01*
X0139989Y0277389D02*
X0047183Y0277389D01*
X0047183Y0230647D02*
X0096904Y0230647D01*
X0096904Y0229449D02*
X0047183Y0229449D01*
X0047183Y0228250D02*
X0096904Y0228250D01*
X0096904Y0227052D02*
X0047183Y0227052D01*
X0047183Y0225853D02*
X0096904Y0225853D01*
X0096904Y0224655D02*
X0047183Y0224655D01*
X0047183Y0223456D02*
X0096904Y0223456D01*
X0096904Y0222258D02*
X0047183Y0222258D01*
X0047689Y0221059D02*
X0096904Y0221059D01*
X0096904Y0219861D02*
X0048694Y0219861D01*
X0049700Y0218662D02*
X0065367Y0218662D01*
X0062990Y0217464D02*
X0050706Y0217464D01*
X0051517Y0216265D02*
X0061585Y0216265D01*
X0060486Y0215067D02*
X0052321Y0215067D01*
X0053125Y0213868D02*
X0059794Y0213868D01*
X0059204Y0212670D02*
X0053928Y0212670D01*
X0054732Y0211471D02*
X0058883Y0211471D01*
X0058604Y0210272D02*
X0055536Y0210272D01*
X0056340Y0209074D02*
X0058604Y0209074D01*
X0058604Y0207875D02*
X0057143Y0207875D01*
X0057947Y0206677D02*
X0058897Y0206677D01*
X0058607Y0205478D02*
X0059218Y0205478D01*
X0059236Y0204280D02*
X0059824Y0204280D01*
X0059865Y0203081D02*
X0060516Y0203081D01*
X0060495Y0201883D02*
X0061638Y0201883D01*
X0061124Y0200684D02*
X0063080Y0200684D01*
X0061753Y0199486D02*
X0065561Y0199486D01*
X0086158Y0176646D02*
X0086158Y0176646D01*
X0088704Y0174100D02*
X0088704Y0151600D01*
X0093704Y0146600D01*
X0098468Y0146600D01*
X0098468Y0151600D02*
X0103704Y0151600D01*
X0106204Y0151600D01*
X0111204Y0146600D01*
X0118940Y0146600D01*
X0118940Y0151600D02*
X0123704Y0151600D01*
X0126204Y0154100D01*
X0126204Y0169100D01*
X0133704Y0176600D01*
X0133704Y0186600D01*
X0138704Y0191600D01*
X0133704Y0196600D01*
X0133704Y0216600D01*
X0138704Y0221600D01*
X0128704Y0221600D02*
X0123704Y0216600D01*
X0123704Y0196600D01*
X0128704Y0191600D01*
X0123604Y0186500D01*
X0123604Y0176500D01*
X0118704Y0171600D01*
X0118704Y0161836D01*
X0118940Y0161600D01*
X0116904Y0163981D02*
X0114112Y0163981D01*
X0113409Y0163278D01*
X0113409Y0159922D01*
X0114112Y0159219D01*
X0123768Y0159219D01*
X0124404Y0159855D01*
X0124404Y0158345D01*
X0123768Y0158981D01*
X0114112Y0158981D01*
X0113531Y0158400D01*
X0109450Y0158400D01*
X0108050Y0159800D01*
X0109450Y0159800D01*
X0110504Y0160854D01*
X0110504Y0167380D01*
X0110814Y0167690D01*
X0111193Y0168605D01*
X0111193Y0169595D01*
X0110814Y0170510D01*
X0110114Y0171210D01*
X0109199Y0171589D01*
X0108209Y0171589D01*
X0107294Y0171210D01*
X0106594Y0170510D01*
X0106215Y0169595D01*
X0106215Y0168605D01*
X0106594Y0167690D01*
X0106904Y0167380D01*
X0106904Y0163400D01*
X0103877Y0163400D01*
X0103296Y0163981D01*
X0093640Y0163981D01*
X0093027Y0163368D01*
X0093027Y0173332D01*
X0104472Y0184777D01*
X0104595Y0184900D01*
X0105074Y0184900D01*
X0104550Y0184376D01*
X0103804Y0182575D01*
X0103804Y0180625D01*
X0104550Y0178824D01*
X0105928Y0177446D01*
X0107729Y0176700D01*
X0109679Y0176700D01*
X0111480Y0177446D01*
X0112858Y0178824D01*
X0113523Y0180430D01*
X0113534Y0180359D01*
X0113792Y0179566D01*
X0114171Y0178822D01*
X0114661Y0178147D01*
X0115251Y0177557D01*
X0115926Y0177067D01*
X0116669Y0176688D01*
X0117463Y0176430D01*
X0118287Y0176300D01*
X0118304Y0176300D01*
X0118304Y0181200D01*
X0119104Y0181200D01*
X0119104Y0176300D01*
X0119121Y0176300D01*
X0119945Y0176430D01*
X0120738Y0176688D01*
X0121482Y0177067D01*
X0121804Y0177301D01*
X0121804Y0177246D01*
X0117958Y0173400D01*
X0116904Y0172346D01*
X0116904Y0163981D01*
X0116904Y0164729D02*
X0110504Y0164729D01*
X0110504Y0163531D02*
X0113662Y0163531D01*
X0113409Y0162332D02*
X0110504Y0162332D01*
X0110504Y0161134D02*
X0113409Y0161134D01*
X0113409Y0159935D02*
X0109585Y0159935D01*
X0109113Y0158737D02*
X0113868Y0158737D01*
X0114074Y0153942D02*
X0108592Y0153942D01*
X0107606Y0152744D02*
X0113409Y0152744D01*
X0113409Y0151545D02*
X0108804Y0151545D01*
X0110003Y0150347D02*
X0113409Y0150347D01*
X0111201Y0149148D02*
X0126215Y0149148D01*
X0126304Y0147950D02*
X0124471Y0147950D01*
X0124471Y0146751D02*
X0126304Y0146751D01*
X0126304Y0145553D02*
X0124471Y0145553D01*
X0123903Y0144354D02*
X0126304Y0144354D01*
X0131104Y0144354D02*
X0132937Y0144354D01*
X0132937Y0143156D02*
X0131104Y0143156D01*
X0131741Y0141957D02*
X0133402Y0141957D01*
X0132937Y0145553D02*
X0131104Y0145553D01*
X0131104Y0146751D02*
X0133608Y0146751D01*
X0132308Y0147950D02*
X0131104Y0147950D01*
X0128104Y0151545D02*
X0126195Y0151545D01*
X0126526Y0150347D02*
X0124996Y0150347D01*
X0127394Y0152744D02*
X0127514Y0152744D01*
X0128704Y0154100D02*
X0133704Y0149100D01*
X0138468Y0149100D01*
X0138468Y0144100D02*
X0143704Y0144100D01*
X0153704Y0134100D01*
X0161204Y0134100D01*
X0163704Y0131600D01*
X0163704Y0109100D01*
X0160732Y0106128D01*
X0155732Y0106128D01*
X0146676Y0106128D01*
X0146204Y0106600D01*
X0144481Y0104803D02*
X0130504Y0104803D01*
X0130504Y0103605D02*
X0150595Y0103605D01*
X0150690Y0101208D02*
X0130504Y0101208D01*
X0130504Y0102406D02*
X0161965Y0102406D01*
X0160869Y0103605D02*
X0163163Y0103605D01*
X0164362Y0104803D02*
X0161953Y0104803D01*
X0163152Y0106002D02*
X0164404Y0106002D01*
X0164404Y0107201D02*
X0164350Y0107201D01*
X0166204Y0104100D02*
X0160358Y0098254D01*
X0155732Y0098254D01*
X0154078Y0096600D01*
X0146204Y0096600D01*
X0143929Y0097612D02*
X0130504Y0097612D01*
X0130504Y0096414D02*
X0143715Y0096414D01*
X0144083Y0095215D02*
X0130504Y0095215D01*
X0130504Y0094017D02*
X0163575Y0094017D01*
X0162377Y0092818D02*
X0160869Y0092818D01*
X0160690Y0095215D02*
X0164774Y0095215D01*
X0165972Y0096414D02*
X0160869Y0096414D01*
X0162262Y0097612D02*
X0166904Y0097612D01*
X0166904Y0098811D02*
X0163460Y0098811D01*
X0164659Y0100009D02*
X0166904Y0100009D01*
X0166904Y0101208D02*
X0165858Y0101208D01*
X0166204Y0104100D02*
X0166204Y0136600D01*
X0163704Y0139100D01*
X0158940Y0139100D01*
X0158940Y0144100D02*
X0151204Y0144100D01*
X0148901Y0143156D02*
X0147194Y0143156D01*
X0148715Y0143605D02*
X0149094Y0142690D01*
X0149794Y0141990D01*
X0150709Y0141611D01*
X0151699Y0141611D01*
X0152614Y0141990D01*
X0152924Y0142300D01*
X0153531Y0142300D01*
X0154112Y0141719D01*
X0163768Y0141719D01*
X0164471Y0142422D01*
X0164471Y0145778D01*
X0163768Y0146481D01*
X0154112Y0146481D01*
X0153531Y0145900D01*
X0152924Y0145900D01*
X0152614Y0146210D01*
X0151699Y0146589D01*
X0150709Y0146589D01*
X0149794Y0146210D01*
X0149094Y0145510D01*
X0148715Y0144595D01*
X0148715Y0143605D01*
X0148715Y0144354D02*
X0145995Y0144354D01*
X0144797Y0145553D02*
X0149137Y0145553D01*
X0149873Y0141957D02*
X0148392Y0141957D01*
X0149591Y0140759D02*
X0153409Y0140759D01*
X0153409Y0139560D02*
X0150789Y0139560D01*
X0151988Y0138362D02*
X0153409Y0138362D01*
X0153186Y0137163D02*
X0153668Y0137163D01*
X0154385Y0135965D02*
X0164294Y0135965D01*
X0164404Y0134766D02*
X0163083Y0134766D01*
X0164282Y0133568D02*
X0164404Y0133568D01*
X0161904Y0129972D02*
X0130504Y0129972D01*
X0130504Y0128774D02*
X0161904Y0128774D01*
X0161904Y0127575D02*
X0130504Y0127575D01*
X0130504Y0126377D02*
X0161904Y0126377D01*
X0161904Y0125178D02*
X0130504Y0125178D01*
X0130504Y0123980D02*
X0161904Y0123980D01*
X0161904Y0122781D02*
X0130504Y0122781D01*
X0130504Y0121583D02*
X0130694Y0121583D01*
X0131714Y0121583D02*
X0161904Y0121583D01*
X0161904Y0120384D02*
X0151895Y0120384D01*
X0153093Y0119186D02*
X0161904Y0119186D01*
X0161904Y0117987D02*
X0154292Y0117987D01*
X0150633Y0119100D02*
X0155732Y0114002D01*
X0150595Y0114392D02*
X0130504Y0114392D01*
X0130504Y0115590D02*
X0150595Y0115590D01*
X0150399Y0116789D02*
X0132128Y0116789D01*
X0131204Y0119100D02*
X0150633Y0119100D01*
X0150595Y0113193D02*
X0130504Y0113193D01*
X0130504Y0111995D02*
X0150595Y0111995D01*
X0150941Y0110796D02*
X0130504Y0110796D01*
X0130504Y0109598D02*
X0151205Y0109598D01*
X0150595Y0108399D02*
X0147925Y0108399D01*
X0144483Y0108399D02*
X0130504Y0108399D01*
X0130504Y0107201D02*
X0143759Y0107201D01*
X0143758Y0106002D02*
X0130504Y0106002D01*
X0126904Y0106002D02*
X0120740Y0106002D01*
X0120740Y0104803D02*
X0126904Y0104803D01*
X0126904Y0103605D02*
X0120740Y0103605D01*
X0120740Y0102406D02*
X0126904Y0102406D01*
X0126904Y0101208D02*
X0120740Y0101208D01*
X0120740Y0100009D02*
X0126904Y0100009D01*
X0126904Y0098811D02*
X0120740Y0098811D01*
X0120740Y0097612D02*
X0126904Y0097612D01*
X0126904Y0096414D02*
X0120740Y0096414D01*
X0120740Y0095215D02*
X0126904Y0095215D01*
X0126075Y0094017D02*
X0120740Y0094017D01*
X0120740Y0092818D02*
X0124877Y0092818D01*
X0123678Y0091620D02*
X0120740Y0091620D01*
X0120740Y0090421D02*
X0122480Y0090421D01*
X0121281Y0089223D02*
X0120740Y0089223D01*
X0122777Y0085627D02*
X0150857Y0085627D01*
X0150595Y0084429D02*
X0121578Y0084429D01*
X0120380Y0083230D02*
X0150595Y0083230D01*
X0151289Y0086826D02*
X0123975Y0086826D01*
X0125174Y0088024D02*
X0150595Y0088024D01*
X0150595Y0089223D02*
X0126372Y0089223D01*
X0127571Y0090421D02*
X0150595Y0090421D01*
X0150595Y0091620D02*
X0128769Y0091620D01*
X0129968Y0092818D02*
X0150595Y0092818D01*
X0155732Y0090380D02*
X0162484Y0090380D01*
X0168704Y0096600D01*
X0168704Y0179100D01*
X0158704Y0189100D01*
X0158704Y0256600D01*
X0154964Y0260340D01*
X0153704Y0260340D01*
X0156053Y0264205D02*
X0140115Y0264205D01*
X0139551Y0263007D02*
X0138916Y0263007D01*
X0139551Y0261808D02*
X0137857Y0261808D01*
X0137444Y0259100D02*
X0133704Y0260340D01*
X0137857Y0252220D02*
X0139151Y0252220D01*
X0139151Y0251022D02*
X0137857Y0251022D01*
X0137857Y0249823D02*
X0139223Y0249823D01*
X0141972Y0247426D02*
X0135209Y0247426D01*
X0135613Y0246228D02*
X0141395Y0246228D01*
X0141395Y0245029D02*
X0135613Y0245029D01*
X0135613Y0243831D02*
X0141395Y0243831D01*
X0141395Y0242632D02*
X0135613Y0242632D01*
X0135613Y0241434D02*
X0141395Y0241434D01*
X0141457Y0240235D02*
X0135613Y0240235D01*
X0129551Y0249823D02*
X0128185Y0249823D01*
X0128257Y0251022D02*
X0129551Y0251022D01*
X0129551Y0252220D02*
X0128257Y0252220D01*
X0121395Y0242632D02*
X0115613Y0242632D01*
X0115613Y0241434D02*
X0121395Y0241434D01*
X0121457Y0240235D02*
X0115613Y0240235D01*
X0112444Y0243431D02*
X0112554Y0244254D01*
X0112554Y0251710D01*
X0113704Y0252860D01*
X0110754Y0248625D02*
X0100504Y0248625D01*
X0103104Y0251022D02*
X0104304Y0251022D01*
X0104304Y0252220D02*
X0103104Y0252220D01*
X0108257Y0252220D02*
X0109551Y0252220D01*
X0109551Y0251022D02*
X0108257Y0251022D01*
X0108185Y0249823D02*
X0109551Y0249823D01*
X0110754Y0247426D02*
X0107955Y0247426D01*
X0108532Y0246228D02*
X0109276Y0246228D01*
X0109276Y0245029D02*
X0108532Y0245029D01*
X0108532Y0243831D02*
X0109276Y0243831D01*
X0109276Y0242632D02*
X0108532Y0242632D01*
X0108532Y0241434D02*
X0109276Y0241434D01*
X0109276Y0240235D02*
X0108471Y0240235D01*
X0105348Y0240235D02*
X0104580Y0240235D01*
X0104580Y0241434D02*
X0105348Y0241434D01*
X0105348Y0242632D02*
X0104580Y0242632D01*
X0105535Y0237838D02*
X0100504Y0237838D01*
X0100504Y0236640D02*
X0105535Y0236640D01*
X0105535Y0235441D02*
X0100504Y0235441D01*
X0100504Y0234243D02*
X0105535Y0234243D01*
X0105535Y0233044D02*
X0100504Y0233044D01*
X0100504Y0231846D02*
X0105535Y0231846D01*
X0106168Y0225853D02*
X0100504Y0225853D01*
X0100504Y0224655D02*
X0104829Y0224655D01*
X0104169Y0223456D02*
X0100504Y0223456D01*
X0100504Y0222258D02*
X0103804Y0222258D01*
X0103804Y0221059D02*
X0100504Y0221059D01*
X0100504Y0219861D02*
X0104121Y0219861D01*
X0103220Y0218662D02*
X0100504Y0218662D01*
X0100504Y0217464D02*
X0102022Y0217464D01*
X0101904Y0216265D02*
X0100504Y0216265D01*
X0100504Y0215067D02*
X0101904Y0215067D01*
X0101904Y0213868D02*
X0100504Y0213868D01*
X0100504Y0212670D02*
X0101904Y0212670D01*
X0101904Y0211471D02*
X0100504Y0211471D01*
X0100504Y0210272D02*
X0101904Y0210272D01*
X0101904Y0209074D02*
X0100504Y0209074D01*
X0100504Y0207875D02*
X0101904Y0207875D01*
X0101904Y0206677D02*
X0100504Y0206677D01*
X0100504Y0205478D02*
X0101904Y0205478D01*
X0101904Y0204280D02*
X0100504Y0204280D01*
X0100504Y0203081D02*
X0101904Y0203081D01*
X0101904Y0201883D02*
X0100504Y0201883D01*
X0100504Y0200684D02*
X0101904Y0200684D01*
X0101904Y0199486D02*
X0100504Y0199486D01*
X0100504Y0198287D02*
X0101904Y0198287D01*
X0101904Y0197089D02*
X0100504Y0197089D01*
X0100504Y0195890D02*
X0101904Y0195890D01*
X0103067Y0194692D02*
X0100504Y0194692D01*
X0100504Y0193493D02*
X0104185Y0193493D01*
X0103804Y0192295D02*
X0100504Y0192295D01*
X0100504Y0191096D02*
X0103155Y0191096D01*
X0101956Y0189898D02*
X0100504Y0189898D01*
X0100504Y0188699D02*
X0100758Y0188699D01*
X0103727Y0186577D02*
X0103850Y0186700D01*
X0110734Y0186700D01*
X0115634Y0191600D01*
X0118704Y0191600D01*
X0113704Y0196600D01*
X0113704Y0216600D01*
X0118704Y0221600D01*
X0119104Y0216700D02*
X0119104Y0212000D01*
X0118304Y0212000D01*
X0118304Y0216700D01*
X0119104Y0216700D01*
X0119104Y0216265D02*
X0118304Y0216265D01*
X0118304Y0215067D02*
X0119104Y0215067D01*
X0118704Y0214100D02*
X0121904Y0217300D01*
X0121904Y0217346D01*
X0121904Y0215826D01*
X0121482Y0216133D01*
X0120738Y0216512D01*
X0119945Y0216769D01*
X0119874Y0216781D01*
X0121480Y0217446D01*
X0122858Y0218824D01*
X0123604Y0220625D01*
X0123604Y0222575D01*
X0122858Y0224376D01*
X0121480Y0225754D01*
X0122579Y0224655D02*
X0124829Y0224655D01*
X0124169Y0223456D02*
X0123239Y0223456D01*
X0123604Y0222258D02*
X0123804Y0222258D01*
X0123804Y0221059D02*
X0123604Y0221059D01*
X0123287Y0219861D02*
X0124121Y0219861D01*
X0123220Y0218662D02*
X0122696Y0218662D01*
X0122022Y0217464D02*
X0121497Y0217464D01*
X0121223Y0216265D02*
X0121904Y0216265D01*
X0119104Y0213868D02*
X0118304Y0213868D01*
X0118704Y0214100D02*
X0118704Y0211600D01*
X0119104Y0211200D02*
X0119104Y0206300D01*
X0119121Y0206300D01*
X0119945Y0206430D01*
X0120738Y0206688D01*
X0121482Y0207067D01*
X0121904Y0207374D01*
X0121904Y0195854D01*
X0124208Y0193550D01*
X0123804Y0192575D01*
X0123804Y0190625D01*
X0124208Y0189650D01*
X0122858Y0188300D01*
X0121804Y0187246D01*
X0121804Y0185899D01*
X0121482Y0186133D01*
X0120738Y0186512D01*
X0119945Y0186769D01*
X0119874Y0186781D01*
X0121480Y0187446D01*
X0122858Y0188824D01*
X0123604Y0190625D01*
X0123604Y0192575D01*
X0122858Y0194376D01*
X0121480Y0195754D01*
X0119679Y0196500D01*
X0117729Y0196500D01*
X0116754Y0196096D01*
X0115504Y0197346D01*
X0115504Y0207374D01*
X0115926Y0207067D01*
X0116669Y0206688D01*
X0117463Y0206430D01*
X0118287Y0206300D01*
X0118304Y0206300D01*
X0118304Y0211200D01*
X0119104Y0211200D01*
X0119104Y0210272D02*
X0118304Y0210272D01*
X0118304Y0209074D02*
X0119104Y0209074D01*
X0119104Y0207875D02*
X0118304Y0207875D01*
X0118304Y0206677D02*
X0119104Y0206677D01*
X0120704Y0206677D02*
X0121904Y0206677D01*
X0121904Y0205478D02*
X0115504Y0205478D01*
X0115504Y0204280D02*
X0121904Y0204280D01*
X0121904Y0203081D02*
X0115504Y0203081D01*
X0115504Y0201883D02*
X0121904Y0201883D01*
X0121904Y0200684D02*
X0115504Y0200684D01*
X0115504Y0199486D02*
X0121904Y0199486D01*
X0121904Y0198287D02*
X0115504Y0198287D01*
X0115761Y0197089D02*
X0121904Y0197089D01*
X0121904Y0195890D02*
X0121150Y0195890D01*
X0122542Y0194692D02*
X0123067Y0194692D01*
X0123223Y0193493D02*
X0124185Y0193493D01*
X0123804Y0192295D02*
X0123604Y0192295D01*
X0123604Y0191096D02*
X0123804Y0191096D01*
X0124105Y0189898D02*
X0123303Y0189898D01*
X0123258Y0188699D02*
X0122733Y0188699D01*
X0122059Y0187501D02*
X0121534Y0187501D01*
X0121804Y0186302D02*
X0121150Y0186302D01*
X0119104Y0180310D02*
X0118304Y0180310D01*
X0118304Y0179111D02*
X0119104Y0179111D01*
X0119104Y0177913D02*
X0118304Y0177913D01*
X0118304Y0176714D02*
X0119104Y0176714D01*
X0120074Y0175516D02*
X0095211Y0175516D01*
X0096409Y0176714D02*
X0107695Y0176714D01*
X0109713Y0176714D02*
X0116619Y0176714D01*
X0114896Y0177913D02*
X0111946Y0177913D01*
X0112977Y0179111D02*
X0114024Y0179111D01*
X0113550Y0180310D02*
X0113473Y0180310D01*
X0118876Y0174317D02*
X0094012Y0174317D01*
X0093027Y0173119D02*
X0117677Y0173119D01*
X0117958Y0173400D02*
X0117958Y0173400D01*
X0116904Y0171920D02*
X0093027Y0171920D01*
X0093027Y0170722D02*
X0106806Y0170722D01*
X0106215Y0169523D02*
X0093027Y0169523D01*
X0093027Y0168325D02*
X0106331Y0168325D01*
X0106904Y0167126D02*
X0093027Y0167126D01*
X0093027Y0165928D02*
X0106904Y0165928D01*
X0106904Y0164729D02*
X0093027Y0164729D01*
X0093027Y0163531D02*
X0093189Y0163531D01*
X0091227Y0159077D02*
X0093704Y0156600D01*
X0098468Y0156600D01*
X0098468Y0161600D02*
X0103704Y0161600D01*
X0108704Y0161600D01*
X0108704Y0169100D01*
X0111077Y0168325D02*
X0116904Y0168325D01*
X0116904Y0169523D02*
X0111193Y0169523D01*
X0110602Y0170722D02*
X0116904Y0170722D01*
X0116904Y0167126D02*
X0110504Y0167126D01*
X0110504Y0165928D02*
X0116904Y0165928D01*
X0118940Y0156600D02*
X0108704Y0156600D01*
X0103704Y0151600D01*
X0103501Y0153942D02*
X0103334Y0153942D01*
X0103998Y0155141D02*
X0104699Y0155141D01*
X0103998Y0156339D02*
X0105898Y0156339D01*
X0105220Y0157538D02*
X0103998Y0157538D01*
X0104022Y0158737D02*
X0103540Y0158737D01*
X0103704Y0161600D02*
X0108704Y0156600D01*
X0106904Y0163531D02*
X0103746Y0163531D01*
X0093601Y0153942D02*
X0090504Y0153942D01*
X0090504Y0152744D02*
X0092937Y0152744D01*
X0092937Y0151545D02*
X0091304Y0151545D01*
X0092503Y0150347D02*
X0092937Y0150347D01*
X0093701Y0149148D02*
X0106110Y0149148D01*
X0107308Y0147950D02*
X0103998Y0147950D01*
X0103998Y0146751D02*
X0108507Y0146751D01*
X0109706Y0145553D02*
X0103998Y0145553D01*
X0103431Y0144354D02*
X0113977Y0144354D01*
X0113409Y0143156D02*
X0104354Y0143156D01*
X0104398Y0141957D02*
X0113409Y0141957D01*
X0113409Y0140759D02*
X0104398Y0140759D01*
X0104398Y0141600D02*
X0098468Y0141600D01*
X0104398Y0141600D01*
X0106204Y0141600D02*
X0108704Y0139100D01*
X0108704Y0136600D01*
X0110480Y0132369D02*
X0113409Y0132369D01*
X0113409Y0131171D02*
X0111679Y0131171D01*
X0112877Y0129972D02*
X0113409Y0129972D01*
X0114076Y0128774D02*
X0117140Y0128774D01*
X0117140Y0127575D02*
X0115274Y0127575D01*
X0116473Y0126377D02*
X0117140Y0126377D01*
X0120740Y0126377D02*
X0126904Y0126377D01*
X0126904Y0127575D02*
X0120740Y0127575D01*
X0120740Y0128774D02*
X0126904Y0128774D01*
X0126904Y0129972D02*
X0124471Y0129972D01*
X0124471Y0131171D02*
X0126588Y0131171D01*
X0125389Y0132369D02*
X0124471Y0132369D01*
X0124191Y0133568D02*
X0124181Y0133568D01*
X0126885Y0135965D02*
X0149294Y0135965D01*
X0150492Y0134766D02*
X0128083Y0134766D01*
X0129282Y0133568D02*
X0151691Y0133568D01*
X0152889Y0132369D02*
X0130480Y0132369D01*
X0130504Y0131171D02*
X0161588Y0131171D01*
X0165789Y0139560D02*
X0166904Y0139560D01*
X0166904Y0140759D02*
X0164591Y0140759D01*
X0164006Y0141957D02*
X0166904Y0141957D01*
X0166904Y0143156D02*
X0164471Y0143156D01*
X0164471Y0144354D02*
X0166904Y0144354D01*
X0166904Y0145553D02*
X0164471Y0145553D01*
X0163768Y0146719D02*
X0164471Y0147422D01*
X0164471Y0150778D01*
X0163835Y0151414D01*
X0163888Y0151428D01*
X0164253Y0151639D01*
X0164551Y0151936D01*
X0164762Y0152301D01*
X0164871Y0152708D01*
X0164871Y0154100D01*
X0164871Y0155492D01*
X0164762Y0155899D01*
X0164551Y0156264D01*
X0164253Y0156561D01*
X0163888Y0156772D01*
X0163482Y0156881D01*
X0158940Y0156881D01*
X0154399Y0156881D01*
X0153992Y0156772D01*
X0153627Y0156561D01*
X0153329Y0156264D01*
X0153119Y0155899D01*
X0153009Y0155492D01*
X0153009Y0154100D01*
X0153009Y0152708D01*
X0153119Y0152301D01*
X0153215Y0152135D01*
X0153004Y0152346D01*
X0153004Y0163354D01*
X0161261Y0171611D01*
X0161699Y0171611D01*
X0162614Y0171990D01*
X0163314Y0172690D01*
X0163693Y0173605D01*
X0163693Y0174595D01*
X0163314Y0175510D01*
X0162614Y0176210D01*
X0161699Y0176589D01*
X0160709Y0176589D01*
X0159794Y0176210D01*
X0159094Y0175510D01*
X0158715Y0174595D01*
X0158715Y0174157D01*
X0150458Y0165900D01*
X0149404Y0164846D01*
X0149404Y0150854D01*
X0151904Y0148354D01*
X0152958Y0147300D01*
X0153531Y0147300D01*
X0154112Y0146719D01*
X0163768Y0146719D01*
X0163800Y0146751D02*
X0166904Y0146751D01*
X0166904Y0147950D02*
X0164471Y0147950D01*
X0164471Y0149148D02*
X0166904Y0149148D01*
X0166904Y0150347D02*
X0164471Y0150347D01*
X0164092Y0151545D02*
X0166904Y0151545D01*
X0166904Y0152744D02*
X0164871Y0152744D01*
X0164871Y0153942D02*
X0166904Y0153942D01*
X0166904Y0155141D02*
X0164871Y0155141D01*
X0164871Y0154100D02*
X0158940Y0154100D01*
X0158940Y0154100D01*
X0153009Y0154100D01*
X0158940Y0154100D01*
X0158940Y0156881D01*
X0158940Y0154100D01*
X0158940Y0154100D01*
X0161204Y0154100D01*
X0163704Y0156600D01*
X0163704Y0169100D01*
X0162445Y0171920D02*
X0166904Y0171920D01*
X0166904Y0170722D02*
X0160371Y0170722D01*
X0159173Y0169523D02*
X0166904Y0169523D01*
X0166904Y0168325D02*
X0157974Y0168325D01*
X0156776Y0167126D02*
X0166904Y0167126D01*
X0166904Y0165928D02*
X0155577Y0165928D01*
X0154379Y0164729D02*
X0166904Y0164729D01*
X0166904Y0163531D02*
X0153180Y0163531D01*
X0153004Y0162332D02*
X0166904Y0162332D01*
X0166904Y0161134D02*
X0153004Y0161134D01*
X0153004Y0159935D02*
X0166904Y0159935D01*
X0166904Y0158737D02*
X0153004Y0158737D01*
X0153004Y0157538D02*
X0166904Y0157538D01*
X0166904Y0156339D02*
X0164475Y0156339D01*
X0164871Y0154100D02*
X0158940Y0154100D01*
X0158940Y0154100D01*
X0158940Y0155141D02*
X0158940Y0155141D01*
X0158940Y0156339D02*
X0158940Y0156339D01*
X0153405Y0156339D02*
X0153004Y0156339D01*
X0153004Y0155141D02*
X0153009Y0155141D01*
X0153004Y0153942D02*
X0153009Y0153942D01*
X0153004Y0152744D02*
X0153009Y0152744D01*
X0151204Y0151600D02*
X0153704Y0149100D01*
X0158940Y0149100D01*
X0154080Y0146751D02*
X0143328Y0146751D01*
X0143998Y0147950D02*
X0152308Y0147950D01*
X0151110Y0149148D02*
X0143998Y0149148D01*
X0143998Y0150347D02*
X0149911Y0150347D01*
X0149404Y0151545D02*
X0133804Y0151545D01*
X0132937Y0152744D02*
X0132606Y0152744D01*
X0132937Y0153942D02*
X0131407Y0153942D01*
X0130504Y0155141D02*
X0132937Y0155141D01*
X0133498Y0156339D02*
X0130504Y0156339D01*
X0128704Y0154100D02*
X0128704Y0166600D01*
X0131204Y0169100D01*
X0135504Y0176714D02*
X0137695Y0176714D01*
X0139713Y0176714D02*
X0147695Y0176714D01*
X0149713Y0176714D02*
X0153773Y0176714D01*
X0154404Y0177913D02*
X0151946Y0177913D01*
X0152977Y0179111D02*
X0154404Y0179111D01*
X0154404Y0180310D02*
X0153473Y0180310D01*
X0153604Y0181508D02*
X0154404Y0181508D01*
X0154404Y0182707D02*
X0153549Y0182707D01*
X0153853Y0183905D02*
X0153053Y0183905D01*
X0152655Y0185104D02*
X0152130Y0185104D01*
X0151456Y0186302D02*
X0150156Y0186302D01*
X0153303Y0189898D02*
X0156904Y0189898D01*
X0156904Y0191096D02*
X0153604Y0191096D01*
X0153604Y0192295D02*
X0156904Y0192295D01*
X0156904Y0193493D02*
X0153223Y0193493D01*
X0152542Y0194692D02*
X0156904Y0194692D01*
X0156904Y0195890D02*
X0151150Y0195890D01*
X0145761Y0197089D02*
X0156904Y0197089D01*
X0156904Y0198287D02*
X0145504Y0198287D01*
X0145504Y0199486D02*
X0156904Y0199486D01*
X0156904Y0200684D02*
X0145504Y0200684D01*
X0145504Y0201883D02*
X0156904Y0201883D01*
X0156904Y0203081D02*
X0145504Y0203081D01*
X0145504Y0204280D02*
X0156904Y0204280D01*
X0156904Y0205478D02*
X0145504Y0205478D01*
X0145504Y0206677D02*
X0156904Y0206677D01*
X0163004Y0206677D02*
X0171714Y0206677D01*
X0168615Y0207875D02*
X0163004Y0207875D01*
X0163004Y0209074D02*
X0166946Y0209074D01*
X0165748Y0210272D02*
X0163004Y0210272D01*
X0163004Y0211471D02*
X0165003Y0211471D01*
X0164311Y0212670D02*
X0163004Y0212670D01*
X0163004Y0213868D02*
X0163980Y0213868D01*
X0163659Y0215067D02*
X0163004Y0215067D01*
X0163004Y0216265D02*
X0163604Y0216265D01*
X0163604Y0217464D02*
X0163004Y0217464D01*
X0163004Y0218662D02*
X0163800Y0218662D01*
X0164121Y0219861D02*
X0163004Y0219861D01*
X0163004Y0221059D02*
X0164616Y0221059D01*
X0165308Y0222258D02*
X0163004Y0222258D01*
X0163004Y0223456D02*
X0166277Y0223456D01*
X0167475Y0224655D02*
X0163004Y0224655D01*
X0163004Y0225853D02*
X0169531Y0225853D01*
X0163004Y0227052D02*
X0183051Y0227052D01*
X0183004Y0228250D02*
X0163004Y0228250D01*
X0163004Y0229449D02*
X0182957Y0229449D01*
X0182860Y0230647D02*
X0163004Y0230647D01*
X0163004Y0231846D02*
X0182670Y0231846D01*
X0182480Y0233044D02*
X0163004Y0233044D01*
X0163004Y0234243D02*
X0182290Y0234243D01*
X0182100Y0235441D02*
X0163004Y0235441D01*
X0163004Y0236640D02*
X0181910Y0236640D01*
X0181721Y0237838D02*
X0163004Y0237838D01*
X0163004Y0239037D02*
X0181411Y0239037D01*
X0181022Y0240235D02*
X0163004Y0240235D01*
X0163004Y0241434D02*
X0180632Y0241434D01*
X0180243Y0242632D02*
X0163004Y0242632D01*
X0163004Y0243831D02*
X0179853Y0243831D01*
X0179464Y0245029D02*
X0163004Y0245029D01*
X0163004Y0246228D02*
X0179053Y0246228D01*
X0178442Y0247426D02*
X0163004Y0247426D01*
X0163004Y0248625D02*
X0177831Y0248625D01*
X0177221Y0249823D02*
X0163004Y0249823D01*
X0163004Y0251022D02*
X0176610Y0251022D01*
X0175999Y0252220D02*
X0163004Y0252220D01*
X0163004Y0253419D02*
X0175387Y0253419D01*
X0174516Y0254617D02*
X0163004Y0254617D01*
X0163004Y0255816D02*
X0173646Y0255816D01*
X0172775Y0257014D02*
X0163004Y0257014D01*
X0163004Y0258213D02*
X0171904Y0258213D01*
X0171033Y0259411D02*
X0163004Y0259411D01*
X0163004Y0260610D02*
X0170007Y0260610D01*
X0168808Y0261808D02*
X0163004Y0261808D01*
X0162343Y0263007D02*
X0167610Y0263007D01*
X0166411Y0264205D02*
X0161144Y0264205D01*
X0159946Y0265404D02*
X0165213Y0265404D01*
X0163725Y0266603D02*
X0158747Y0266603D01*
X0157549Y0267801D02*
X0162076Y0267801D01*
X0149551Y0263007D02*
X0147857Y0263007D01*
X0148257Y0252220D02*
X0149551Y0252220D01*
X0149551Y0251022D02*
X0148257Y0251022D01*
X0148185Y0249823D02*
X0149551Y0249823D01*
X0125535Y0233044D02*
X0124805Y0233044D01*
X0116168Y0225853D02*
X0111240Y0225853D01*
X0112579Y0224655D02*
X0114829Y0224655D01*
X0114169Y0223456D02*
X0113239Y0223456D01*
X0113604Y0222258D02*
X0113804Y0222258D01*
X0113804Y0221059D02*
X0113604Y0221059D01*
X0113287Y0219861D02*
X0114121Y0219861D01*
X0113220Y0218662D02*
X0112696Y0218662D01*
X0112022Y0217464D02*
X0111497Y0217464D01*
X0111904Y0216265D02*
X0110246Y0216265D01*
X0107162Y0216265D02*
X0105915Y0216265D01*
X0103704Y0216600D02*
X0103704Y0196600D01*
X0108704Y0191600D01*
X0106204Y0191600D01*
X0088704Y0174100D01*
X0091227Y0174077D02*
X0091227Y0159077D01*
X0091419Y0156339D02*
X0090504Y0156339D01*
X0090504Y0155141D02*
X0092617Y0155141D01*
X0088704Y0149054D02*
X0091904Y0145854D01*
X0092958Y0144800D01*
X0093059Y0144800D01*
X0093573Y0144286D01*
X0093519Y0144272D01*
X0093155Y0144061D01*
X0092857Y0143764D01*
X0092646Y0143399D01*
X0092537Y0142992D01*
X0092537Y0141600D01*
X0098468Y0141600D01*
X0098468Y0141600D01*
X0106204Y0141600D01*
X0104150Y0139560D02*
X0113771Y0139560D01*
X0113493Y0138362D02*
X0103915Y0138362D01*
X0103998Y0137163D02*
X0113409Y0137163D01*
X0113409Y0135965D02*
X0103998Y0135965D01*
X0103843Y0134766D02*
X0113565Y0134766D01*
X0113699Y0133568D02*
X0103709Y0133568D01*
X0098468Y0141600D02*
X0092537Y0141600D01*
X0092537Y0140208D01*
X0092646Y0139801D01*
X0092857Y0139436D01*
X0093155Y0139139D01*
X0093519Y0138928D01*
X0093573Y0138914D01*
X0093059Y0138400D01*
X0092958Y0138400D01*
X0090458Y0135900D01*
X0089404Y0134846D01*
X0089404Y0128446D01*
X0088704Y0129146D01*
X0088704Y0149054D01*
X0088704Y0147950D02*
X0089808Y0147950D01*
X0088704Y0146751D02*
X0091007Y0146751D01*
X0092206Y0145553D02*
X0088704Y0145553D01*
X0088704Y0144354D02*
X0093505Y0144354D01*
X0092581Y0143156D02*
X0088704Y0143156D01*
X0088704Y0141957D02*
X0092537Y0141957D01*
X0092537Y0140759D02*
X0088704Y0140759D01*
X0088704Y0139560D02*
X0092785Y0139560D01*
X0092920Y0138362D02*
X0088704Y0138362D01*
X0088704Y0137163D02*
X0091722Y0137163D01*
X0090523Y0135965D02*
X0088704Y0135965D01*
X0088704Y0134766D02*
X0089404Y0134766D01*
X0089404Y0133568D02*
X0088704Y0133568D01*
X0088704Y0132369D02*
X0089404Y0132369D01*
X0089404Y0131171D02*
X0088704Y0131171D01*
X0088704Y0129972D02*
X0089404Y0129972D01*
X0089404Y0128774D02*
X0089076Y0128774D01*
X0091204Y0124100D02*
X0108658Y0124100D01*
X0109404Y0117987D02*
X0086011Y0117987D01*
X0087799Y0116789D02*
X0091197Y0116789D01*
X0091139Y0115590D02*
X0088997Y0115590D01*
X0089811Y0114392D02*
X0096095Y0114392D01*
X0096775Y0114100D02*
X0103704Y0114100D01*
X0102213Y0113193D02*
X0109404Y0113193D01*
X0109404Y0111995D02*
X0102213Y0111995D01*
X0101974Y0110796D02*
X0109404Y0110796D01*
X0109156Y0109598D02*
X0101203Y0109598D01*
X0101813Y0108399D02*
X0107957Y0108399D01*
X0109453Y0104803D02*
X0111904Y0104803D01*
X0111904Y0103605D02*
X0101813Y0103605D01*
X0101718Y0101208D02*
X0110766Y0101208D01*
X0111904Y0102406D02*
X0088794Y0102406D01*
X0089694Y0103605D02*
X0091539Y0103605D01*
X0091539Y0104803D02*
X0090386Y0104803D01*
X0090830Y0106002D02*
X0091539Y0106002D01*
X0091539Y0107201D02*
X0091151Y0107201D01*
X0091304Y0108399D02*
X0091539Y0108399D01*
X0091304Y0109598D02*
X0092150Y0109598D01*
X0091379Y0110796D02*
X0091206Y0110796D01*
X0091139Y0111995D02*
X0090885Y0111995D01*
X0091139Y0113193D02*
X0090503Y0113193D01*
X0096095Y0115590D02*
X0097258Y0115590D01*
X0097258Y0114392D02*
X0109404Y0114392D01*
X0109404Y0115590D02*
X0102213Y0115590D01*
X0102156Y0116789D02*
X0109404Y0116789D01*
X0111850Y0107201D02*
X0111904Y0107201D01*
X0111904Y0106002D02*
X0110652Y0106002D01*
X0113460Y0098811D02*
X0114404Y0098811D01*
X0114404Y0097612D02*
X0112262Y0097612D01*
X0113575Y0094017D02*
X0064850Y0094017D01*
X0065323Y0095215D02*
X0091718Y0095215D01*
X0091539Y0096414D02*
X0065796Y0096414D01*
X0066269Y0097612D02*
X0091539Y0097612D01*
X0091539Y0100009D02*
X0085659Y0100009D01*
X0087595Y0101208D02*
X0091635Y0101208D01*
X0091539Y0092818D02*
X0064377Y0092818D01*
X0064221Y0092424D02*
X0064221Y0092424D01*
X0060654Y0085627D02*
X0072784Y0085627D01*
X0077002Y0072444D02*
X0052525Y0072444D01*
X0068704Y0041502D02*
X0073606Y0041502D01*
X0074733Y0040084D02*
X0080790Y0040084D01*
X0081422Y0038885D02*
X0073054Y0038885D01*
X0073054Y0037687D02*
X0079796Y0037687D01*
X0078973Y0036488D02*
X0073054Y0036488D01*
X0075932Y0041282D02*
X0079592Y0041282D01*
X0078526Y0035290D02*
X0047183Y0035290D01*
X0047183Y0034091D02*
X0083304Y0034091D01*
X0083304Y0033700D02*
X0078404Y0033700D01*
X0078404Y0033683D01*
X0078534Y0032859D01*
X0078792Y0032066D01*
X0079171Y0031322D01*
X0079661Y0030647D01*
X0080251Y0030057D01*
X0080926Y0029567D01*
X0081669Y0029188D01*
X0082463Y0028930D01*
X0083287Y0028800D01*
X0083304Y0028800D01*
X0083304Y0033700D01*
X0083304Y0032893D02*
X0084104Y0032893D01*
X0084104Y0031694D02*
X0083304Y0031694D01*
X0083304Y0030496D02*
X0084104Y0030496D01*
X0084104Y0029297D02*
X0083304Y0029297D01*
X0081456Y0029297D02*
X0047183Y0029297D01*
X0047183Y0028099D02*
X0093508Y0028099D01*
X0093508Y0029297D02*
X0085952Y0029297D01*
X0087595Y0030496D02*
X0093508Y0030496D01*
X0093508Y0031694D02*
X0088427Y0031694D01*
X0093508Y0026900D02*
X0047183Y0026900D01*
X0047183Y0025702D02*
X0093508Y0025702D01*
X0093704Y0024503D02*
X0047183Y0024503D01*
X0047183Y0023305D02*
X0093704Y0023305D01*
X0093704Y0022106D02*
X0073193Y0022106D01*
X0073134Y0022208D02*
X0072836Y0022506D01*
X0072471Y0022717D01*
X0072064Y0022826D01*
X0069304Y0022826D01*
X0069304Y0017298D01*
X0073454Y0017298D01*
X0073454Y0021437D01*
X0073345Y0021844D01*
X0073134Y0022208D01*
X0073454Y0020908D02*
X0093704Y0020908D01*
X0093704Y0019709D02*
X0073454Y0019709D01*
X0073454Y0018511D02*
X0093704Y0018511D01*
X0093704Y0017312D02*
X0073454Y0017312D01*
X0073454Y0016098D02*
X0069304Y0016098D01*
X0069304Y0010571D01*
X0072064Y0010571D01*
X0072471Y0010680D01*
X0072836Y0010891D01*
X0073134Y0011188D01*
X0073345Y0011553D01*
X0073454Y0011960D01*
X0073454Y0016098D01*
X0073454Y0014915D02*
X0093704Y0014915D01*
X0093704Y0013717D02*
X0073454Y0013717D01*
X0073454Y0012518D02*
X0093704Y0012518D01*
X0093704Y0011320D02*
X0073210Y0011320D01*
X0069304Y0011320D02*
X0068104Y0011320D01*
X0068104Y0010571D02*
X0068104Y0016098D01*
X0069304Y0016098D01*
X0069304Y0017298D01*
X0068104Y0017298D01*
X0068104Y0016098D01*
X0063954Y0016098D01*
X0063954Y0011960D01*
X0064063Y0011553D01*
X0064274Y0011188D01*
X0064572Y0010891D01*
X0064937Y0010680D01*
X0065344Y0010571D01*
X0068104Y0010571D01*
X0068104Y0012518D02*
X0069304Y0012518D01*
X0069304Y0013717D02*
X0068104Y0013717D01*
X0068104Y0014915D02*
X0069304Y0014915D01*
X0069304Y0016114D02*
X0093704Y0016114D01*
X0093704Y0010121D02*
X0047183Y0010121D01*
X0047183Y0008923D02*
X0093704Y0008923D01*
X0079813Y0030496D02*
X0047183Y0030496D01*
X0047183Y0031694D02*
X0078981Y0031694D01*
X0078529Y0032893D02*
X0047183Y0032893D01*
X0047183Y0022106D02*
X0064215Y0022106D01*
X0064274Y0022208D02*
X0064063Y0021844D01*
X0063954Y0021437D01*
X0063954Y0017298D01*
X0068104Y0017298D01*
X0068104Y0022826D01*
X0065344Y0022826D01*
X0064937Y0022717D01*
X0064572Y0022506D01*
X0064274Y0022208D01*
X0063954Y0020908D02*
X0047183Y0020908D01*
X0047183Y0019709D02*
X0063954Y0019709D01*
X0063954Y0018511D02*
X0047183Y0018511D01*
X0047183Y0017312D02*
X0063954Y0017312D01*
X0063954Y0014915D02*
X0047183Y0014915D01*
X0047183Y0013717D02*
X0063954Y0013717D01*
X0063954Y0012518D02*
X0047183Y0012518D01*
X0047183Y0011320D02*
X0064198Y0011320D01*
X0068104Y0016114D02*
X0047183Y0016114D01*
X0068104Y0017312D02*
X0069304Y0017312D01*
X0069304Y0018511D02*
X0068104Y0018511D01*
X0068104Y0019709D02*
X0069304Y0019709D01*
X0069304Y0020908D02*
X0068104Y0020908D01*
X0068104Y0022106D02*
X0069304Y0022106D01*
X0101813Y0067650D02*
X0150595Y0067650D01*
X0150595Y0068848D02*
X0101813Y0068848D01*
X0101383Y0070047D02*
X0151024Y0070047D01*
X0151122Y0071245D02*
X0101286Y0071245D01*
X0101813Y0072444D02*
X0104982Y0072444D01*
X0107426Y0072444D02*
X0144340Y0072444D01*
X0143715Y0073642D02*
X0110792Y0073642D01*
X0111990Y0074841D02*
X0143817Y0074841D01*
X0144623Y0076039D02*
X0113189Y0076039D01*
X0114387Y0077238D02*
X0150595Y0077238D01*
X0146735Y0074631D02*
X0155732Y0074631D01*
X0150595Y0072444D02*
X0148068Y0072444D01*
X0146204Y0074100D02*
X0146735Y0074631D01*
X0160857Y0079635D02*
X0183087Y0079635D01*
X0183087Y0080833D02*
X0160869Y0080833D01*
X0161681Y0082032D02*
X0183087Y0082032D01*
X0183087Y0083230D02*
X0162880Y0083230D01*
X0164078Y0084429D02*
X0183087Y0084429D01*
X0183087Y0085627D02*
X0165277Y0085627D01*
X0166475Y0086826D02*
X0183087Y0086826D01*
X0183087Y0088024D02*
X0167674Y0088024D01*
X0168872Y0089223D02*
X0183087Y0089223D01*
X0183087Y0090421D02*
X0170071Y0090421D01*
X0171269Y0091620D02*
X0183087Y0091620D01*
X0183087Y0092818D02*
X0172468Y0092818D01*
X0173004Y0094017D02*
X0183087Y0094017D01*
X0183087Y0095215D02*
X0173004Y0095215D01*
X0173004Y0096414D02*
X0183087Y0096414D01*
X0183087Y0097612D02*
X0173004Y0097612D01*
X0173004Y0098811D02*
X0183087Y0098811D01*
X0183087Y0100009D02*
X0173004Y0100009D01*
X0173004Y0101208D02*
X0183087Y0101208D01*
X0183087Y0102406D02*
X0173004Y0102406D01*
X0173004Y0103605D02*
X0183087Y0103605D01*
X0183087Y0104803D02*
X0173004Y0104803D01*
X0173004Y0106002D02*
X0183087Y0106002D01*
X0183087Y0107201D02*
X0173004Y0107201D01*
X0173004Y0108399D02*
X0183087Y0108399D01*
X0183087Y0109598D02*
X0173004Y0109598D01*
X0173004Y0110796D02*
X0183087Y0110796D01*
X0183087Y0111995D02*
X0173004Y0111995D01*
X0173004Y0113193D02*
X0183087Y0113193D01*
X0183087Y0114392D02*
X0173004Y0114392D01*
X0173004Y0115590D02*
X0183087Y0115590D01*
X0183087Y0116789D02*
X0173004Y0116789D01*
X0173004Y0117987D02*
X0183087Y0117987D01*
X0183087Y0119186D02*
X0173004Y0119186D01*
X0173004Y0120384D02*
X0183087Y0120384D01*
X0183087Y0121583D02*
X0173004Y0121583D01*
X0173004Y0122781D02*
X0183087Y0122781D01*
X0183087Y0123980D02*
X0173004Y0123980D01*
X0173004Y0125178D02*
X0183087Y0125178D01*
X0183087Y0126377D02*
X0173004Y0126377D01*
X0173004Y0127575D02*
X0183087Y0127575D01*
X0183087Y0128774D02*
X0173004Y0128774D01*
X0173004Y0129972D02*
X0183087Y0129972D01*
X0183087Y0131171D02*
X0173004Y0131171D01*
X0173004Y0132369D02*
X0183087Y0132369D01*
X0183087Y0133568D02*
X0173004Y0133568D01*
X0173004Y0134766D02*
X0183087Y0134766D01*
X0183087Y0135965D02*
X0173004Y0135965D01*
X0173004Y0137163D02*
X0183087Y0137163D01*
X0183087Y0138362D02*
X0173004Y0138362D01*
X0173004Y0139560D02*
X0183087Y0139560D01*
X0183087Y0140759D02*
X0173004Y0140759D01*
X0173004Y0141957D02*
X0183087Y0141957D01*
X0183087Y0143156D02*
X0173004Y0143156D01*
X0173004Y0144354D02*
X0183087Y0144354D01*
X0183087Y0145553D02*
X0173004Y0145553D01*
X0173004Y0146751D02*
X0183087Y0146751D01*
X0183087Y0147950D02*
X0173004Y0147950D01*
X0173004Y0149148D02*
X0183087Y0149148D01*
X0183087Y0150347D02*
X0173004Y0150347D01*
X0173004Y0151545D02*
X0183087Y0151545D01*
X0183087Y0152744D02*
X0173004Y0152744D01*
X0173004Y0153942D02*
X0183087Y0153942D01*
X0183087Y0155141D02*
X0173004Y0155141D01*
X0173004Y0156339D02*
X0183087Y0156339D01*
X0183087Y0157538D02*
X0173004Y0157538D01*
X0173004Y0158737D02*
X0183087Y0158737D01*
X0183087Y0159935D02*
X0173004Y0159935D01*
X0173004Y0161134D02*
X0183087Y0161134D01*
X0183087Y0162332D02*
X0173004Y0162332D01*
X0173004Y0163531D02*
X0183087Y0163531D01*
X0183087Y0164729D02*
X0173004Y0164729D01*
X0173004Y0165928D02*
X0183087Y0165928D01*
X0183087Y0167126D02*
X0173004Y0167126D01*
X0173004Y0168325D02*
X0183087Y0168325D01*
X0183087Y0169523D02*
X0173004Y0169523D01*
X0173004Y0170722D02*
X0183087Y0170722D01*
X0183087Y0171920D02*
X0173004Y0171920D01*
X0173004Y0173119D02*
X0183087Y0173119D01*
X0183087Y0174317D02*
X0173004Y0174317D01*
X0173004Y0175516D02*
X0183087Y0175516D01*
X0183087Y0176714D02*
X0173004Y0176714D01*
X0173004Y0177913D02*
X0183087Y0177913D01*
X0183087Y0179111D02*
X0173004Y0179111D01*
X0173004Y0180310D02*
X0183087Y0180310D01*
X0183087Y0181508D02*
X0173004Y0181508D01*
X0172643Y0182707D02*
X0183087Y0182707D01*
X0183087Y0183905D02*
X0171444Y0183905D01*
X0170246Y0185104D02*
X0183087Y0185104D01*
X0183087Y0186302D02*
X0169047Y0186302D01*
X0167849Y0187501D02*
X0183087Y0187501D01*
X0183087Y0188699D02*
X0166650Y0188699D01*
X0165452Y0189898D02*
X0183087Y0189898D01*
X0183087Y0191096D02*
X0164253Y0191096D01*
X0163055Y0192295D02*
X0183087Y0192295D01*
X0183087Y0193493D02*
X0163004Y0193493D01*
X0163004Y0194692D02*
X0183087Y0194692D01*
X0183087Y0195890D02*
X0163004Y0195890D01*
X0163004Y0197089D02*
X0183087Y0197089D01*
X0183087Y0198287D02*
X0163004Y0198287D01*
X0163004Y0199486D02*
X0183087Y0199486D01*
X0183087Y0200684D02*
X0163004Y0200684D01*
X0163004Y0201883D02*
X0183087Y0201883D01*
X0183087Y0203081D02*
X0163004Y0203081D01*
X0163004Y0204280D02*
X0183087Y0204280D01*
X0183087Y0205478D02*
X0163004Y0205478D01*
X0156904Y0188699D02*
X0154150Y0188699D01*
X0155349Y0187501D02*
X0157758Y0187501D01*
X0158956Y0186302D02*
X0156547Y0186302D01*
X0157746Y0185104D02*
X0160155Y0185104D01*
X0161353Y0183905D02*
X0158004Y0183905D01*
X0158004Y0182707D02*
X0162552Y0182707D01*
X0163750Y0181508D02*
X0158004Y0181508D01*
X0158004Y0180310D02*
X0164949Y0180310D01*
X0166147Y0179111D02*
X0158004Y0179111D01*
X0158004Y0177913D02*
X0166904Y0177913D01*
X0166904Y0176714D02*
X0158004Y0176714D01*
X0157665Y0175516D02*
X0159100Y0175516D01*
X0158715Y0174317D02*
X0156467Y0174317D01*
X0155268Y0173119D02*
X0157677Y0173119D01*
X0156479Y0171920D02*
X0146570Y0171920D01*
X0145371Y0170722D02*
X0155280Y0170722D01*
X0154082Y0169523D02*
X0144173Y0169523D01*
X0142974Y0168325D02*
X0152883Y0168325D01*
X0151684Y0167126D02*
X0141776Y0167126D01*
X0140577Y0165928D02*
X0150486Y0165928D01*
X0149404Y0164729D02*
X0140504Y0164729D01*
X0140504Y0163531D02*
X0149404Y0163531D01*
X0149404Y0162332D02*
X0140504Y0162332D01*
X0140504Y0161134D02*
X0149404Y0161134D01*
X0149404Y0159935D02*
X0140504Y0159935D01*
X0140504Y0158737D02*
X0149404Y0158737D01*
X0149404Y0157538D02*
X0140504Y0157538D01*
X0143437Y0156339D02*
X0149404Y0156339D01*
X0149404Y0155141D02*
X0143998Y0155141D01*
X0143998Y0153942D02*
X0149404Y0153942D01*
X0149404Y0152744D02*
X0143998Y0152744D01*
X0151204Y0151600D02*
X0151204Y0164100D01*
X0161204Y0174100D01*
X0163492Y0173119D02*
X0166904Y0173119D01*
X0166904Y0174317D02*
X0163693Y0174317D01*
X0163308Y0175516D02*
X0166904Y0175516D01*
X0175694Y0206677D02*
X0183087Y0206677D01*
X0183087Y0207875D02*
X0178793Y0207875D01*
X0180462Y0209074D02*
X0183087Y0209074D01*
X0183087Y0210272D02*
X0181660Y0210272D01*
X0182405Y0211471D02*
X0183087Y0211471D01*
X0183087Y0221059D02*
X0182792Y0221059D01*
X0183087Y0222258D02*
X0182100Y0222258D01*
X0181131Y0223456D02*
X0183087Y0223456D01*
X0183087Y0224655D02*
X0179933Y0224655D01*
X0177877Y0225853D02*
X0183087Y0225853D01*
X0137252Y0186302D02*
X0135952Y0186302D01*
X0128704Y0189100D02*
X0128704Y0191600D01*
X0121273Y0176714D02*
X0120789Y0176714D01*
X0124013Y0158737D02*
X0124404Y0158737D01*
X0124488Y0138362D02*
X0128548Y0138362D01*
X0129747Y0137163D02*
X0125686Y0137163D01*
X0126904Y0125178D02*
X0120740Y0125178D01*
X0120740Y0123980D02*
X0126904Y0123980D01*
X0126904Y0122781D02*
X0120740Y0122781D01*
X0120740Y0121583D02*
X0126904Y0121583D01*
X0126904Y0120384D02*
X0120740Y0120384D01*
X0120740Y0119186D02*
X0126904Y0119186D01*
X0126904Y0117987D02*
X0120740Y0117987D01*
X0120740Y0116789D02*
X0126904Y0116789D01*
X0126904Y0115590D02*
X0120740Y0115590D01*
X0120740Y0114392D02*
X0126904Y0114392D01*
X0126904Y0113193D02*
X0120740Y0113193D01*
X0120740Y0111995D02*
X0126904Y0111995D01*
X0126904Y0110796D02*
X0120740Y0110796D01*
X0120740Y0109598D02*
X0126904Y0109598D01*
X0126904Y0108399D02*
X0120740Y0108399D01*
X0120740Y0107201D02*
X0126904Y0107201D01*
X0130504Y0100009D02*
X0150595Y0100009D01*
X0150595Y0098811D02*
X0147370Y0098811D01*
X0145038Y0098811D02*
X0130504Y0098811D01*
X0117140Y0091620D02*
X0116269Y0091620D01*
X0117140Y0090421D02*
X0115071Y0090421D01*
X0113872Y0089223D02*
X0116281Y0089223D01*
X0115083Y0088024D02*
X0107022Y0088024D01*
X0105386Y0088024D02*
X0101813Y0088024D01*
X0101119Y0086826D02*
X0113884Y0086826D01*
X0112686Y0085627D02*
X0101551Y0085627D01*
X0101813Y0084429D02*
X0104607Y0084429D01*
X0107801Y0084429D02*
X0111487Y0084429D01*
X0112377Y0092818D02*
X0106820Y0092818D01*
X0105588Y0092818D02*
X0101813Y0092818D01*
X0101635Y0095215D02*
X0114404Y0095215D01*
X0114404Y0096414D02*
X0107884Y0096414D01*
X0104524Y0096414D02*
X0101813Y0096414D01*
X0091539Y0080833D02*
X0087367Y0080833D01*
X0096676Y0074631D02*
X0106204Y0074631D01*
X0109235Y0074631D01*
X0097258Y0116789D02*
X0096095Y0116789D01*
X0093227Y0133568D02*
X0093217Y0133568D01*
X0098468Y0141600D02*
X0098468Y0141600D01*
X0091227Y0174077D02*
X0103727Y0186577D01*
X0103750Y0186600D01*
X0103600Y0183905D02*
X0104355Y0183905D01*
X0103859Y0182707D02*
X0102402Y0182707D01*
X0101203Y0181508D02*
X0103804Y0181508D01*
X0103935Y0180310D02*
X0100005Y0180310D01*
X0098806Y0179111D02*
X0104431Y0179111D01*
X0105462Y0177913D02*
X0097608Y0177913D01*
X0115504Y0206677D02*
X0116704Y0206677D01*
X0118304Y0212670D02*
X0119104Y0212670D01*
X0108704Y0221600D02*
X0103704Y0216600D01*
X0143998Y0140759D02*
X0144500Y0140759D01*
X0143998Y0139560D02*
X0145698Y0139560D01*
X0146897Y0138362D02*
X0143998Y0138362D01*
X0143740Y0137163D02*
X0148095Y0137163D01*
X0152535Y0141957D02*
X0153874Y0141957D01*
X0160869Y0116789D02*
X0161904Y0116789D01*
X0161904Y0115590D02*
X0160869Y0115590D01*
X0160869Y0114392D02*
X0161904Y0114392D01*
X0161904Y0113193D02*
X0160869Y0113193D01*
X0160869Y0111995D02*
X0161904Y0111995D01*
X0161904Y0110796D02*
X0160522Y0110796D01*
X0160258Y0109598D02*
X0161656Y0109598D01*
X0160869Y0088024D02*
X0162583Y0088024D01*
X0161384Y0086826D02*
X0160174Y0086826D01*
X0175000Y0076039D02*
X0183087Y0076039D01*
X0183087Y0074841D02*
X0177131Y0074841D01*
X0178445Y0073642D02*
X0183087Y0073642D01*
X0183087Y0072444D02*
X0179493Y0072444D01*
X0180185Y0071245D02*
X0183087Y0071245D01*
X0183087Y0070047D02*
X0180737Y0070047D01*
X0181058Y0068848D02*
X0183087Y0068848D01*
X0183087Y0067650D02*
X0181304Y0067650D01*
X0181304Y0066451D02*
X0183087Y0066451D01*
X0183087Y0065253D02*
X0181299Y0065253D01*
X0180978Y0064054D02*
X0183087Y0064054D01*
X0183087Y0062856D02*
X0180657Y0062856D01*
X0180013Y0061657D02*
X0183087Y0061657D01*
X0183075Y0060459D02*
X0179321Y0060459D01*
X0178148Y0059260D02*
X0183028Y0059260D01*
X0182981Y0058062D02*
X0176615Y0058062D01*
X0173889Y0056863D02*
X0182934Y0056863D01*
D20*
X0146204Y0064100D03*
X0146204Y0074100D03*
X0146204Y0096600D03*
X0146204Y0106600D03*
X0131204Y0119100D03*
X0128704Y0149100D03*
X0131204Y0169100D03*
X0108704Y0169100D03*
X0108704Y0136600D03*
X0103704Y0114100D03*
X0106204Y0098254D03*
X0106204Y0090380D03*
X0106204Y0082506D03*
X0106204Y0074631D03*
X0151204Y0144100D03*
X0163704Y0169100D03*
X0161204Y0174100D03*
D21*
X0138468Y0139100D02*
X0131204Y0139100D01*
X0128704Y0141600D01*
X0118940Y0141600D01*
X0128704Y0141600D02*
X0128704Y0149100D01*
M02*
