G75*
%MOIN*%
%OFA0B0*%
%FSLAX25Y25*%
%IPPOS*%
%LPD*%
%AMOC8*
5,1,8,0,0,1.08239X$1,22.5*
%
%ADD10C,0.00600*%
%ADD11C,0.00000*%
%ADD12C,0.15000*%
%ADD13C,0.07400*%
%ADD14R,0.05118X0.05906*%
%ADD15C,0.07600*%
D10*
X0044283Y0005655D02*
X0044283Y0066600D01*
X0044283Y0005655D02*
X0130869Y0005655D01*
X0132201Y0005671D01*
X0133532Y0005719D01*
X0134861Y0005800D01*
X0136189Y0005912D01*
X0137513Y0006057D01*
X0138833Y0006233D01*
X0140149Y0006442D01*
X0141459Y0006682D01*
X0142763Y0006954D01*
X0144060Y0007257D01*
X0145349Y0007591D01*
X0146630Y0007956D01*
X0147901Y0008353D01*
X0149163Y0008780D01*
X0150414Y0009237D01*
X0151654Y0009724D01*
X0152881Y0010241D01*
X0154096Y0010788D01*
X0155297Y0011364D01*
X0156484Y0011968D01*
X0157655Y0012602D01*
X0158812Y0013263D01*
X0159951Y0013952D01*
X0161074Y0014668D01*
X0162180Y0015412D01*
X0163267Y0016182D01*
X0164335Y0016977D01*
X0165383Y0017799D01*
X0166411Y0018645D01*
X0167419Y0019517D01*
X0168405Y0020412D01*
X0169370Y0021331D01*
X0170311Y0022272D01*
X0171230Y0023237D01*
X0172125Y0024223D01*
X0172997Y0025231D01*
X0173843Y0026259D01*
X0174665Y0027307D01*
X0175460Y0028375D01*
X0176230Y0029462D01*
X0176974Y0030568D01*
X0177690Y0031691D01*
X0178379Y0032830D01*
X0179040Y0033987D01*
X0179674Y0035158D01*
X0180278Y0036345D01*
X0180854Y0037546D01*
X0181401Y0038761D01*
X0181918Y0039988D01*
X0182405Y0041228D01*
X0182862Y0042479D01*
X0183289Y0043741D01*
X0183686Y0045012D01*
X0184051Y0046293D01*
X0184385Y0047582D01*
X0184688Y0048879D01*
X0184960Y0050183D01*
X0185200Y0051493D01*
X0185409Y0052809D01*
X0185585Y0054129D01*
X0185730Y0055453D01*
X0185842Y0056781D01*
X0185923Y0058110D01*
X0185971Y0059441D01*
X0185987Y0060773D01*
X0185987Y0226128D01*
X0185971Y0227460D01*
X0185923Y0228791D01*
X0185842Y0230120D01*
X0185730Y0231448D01*
X0185585Y0232772D01*
X0185409Y0234092D01*
X0185200Y0235408D01*
X0184960Y0236718D01*
X0184688Y0238022D01*
X0184385Y0239319D01*
X0184051Y0240608D01*
X0183686Y0241889D01*
X0183289Y0243160D01*
X0182862Y0244422D01*
X0182405Y0245673D01*
X0181918Y0246913D01*
X0181401Y0248140D01*
X0180854Y0249355D01*
X0180278Y0250556D01*
X0179674Y0251743D01*
X0179040Y0252914D01*
X0178379Y0254071D01*
X0177690Y0255210D01*
X0176974Y0256333D01*
X0176230Y0257439D01*
X0175460Y0258526D01*
X0174665Y0259594D01*
X0173843Y0260642D01*
X0172997Y0261670D01*
X0172125Y0262678D01*
X0171230Y0263664D01*
X0170311Y0264629D01*
X0169370Y0265570D01*
X0168405Y0266489D01*
X0167419Y0267384D01*
X0166411Y0268256D01*
X0165383Y0269102D01*
X0164335Y0269924D01*
X0163267Y0270719D01*
X0162180Y0271489D01*
X0161074Y0272233D01*
X0159951Y0272949D01*
X0158812Y0273638D01*
X0157655Y0274299D01*
X0156484Y0274933D01*
X0155297Y0275537D01*
X0154096Y0276113D01*
X0152881Y0276660D01*
X0151654Y0277177D01*
X0150414Y0277664D01*
X0149163Y0278121D01*
X0147901Y0278548D01*
X0146630Y0278945D01*
X0145349Y0279310D01*
X0144060Y0279644D01*
X0142763Y0279947D01*
X0141459Y0280219D01*
X0140149Y0280459D01*
X0138833Y0280668D01*
X0137513Y0280844D01*
X0136189Y0280989D01*
X0134861Y0281101D01*
X0133532Y0281182D01*
X0132201Y0281230D01*
X0130869Y0281246D01*
X0044283Y0281246D01*
X0044283Y0220606D01*
X0046142Y0218335D01*
X0047944Y0216019D01*
X0049689Y0213660D01*
X0051376Y0211259D01*
X0053004Y0208817D01*
X0054571Y0206336D01*
X0056077Y0203818D01*
X0057520Y0201263D01*
X0058901Y0198674D01*
X0060218Y0196052D01*
X0061471Y0193398D01*
X0062657Y0190714D01*
X0063778Y0188002D01*
X0064832Y0185264D01*
X0065819Y0182500D01*
X0066738Y0179713D01*
X0067588Y0176905D01*
X0068369Y0174076D01*
X0069081Y0171230D01*
X0069723Y0168366D01*
X0070294Y0165488D01*
X0070795Y0162597D01*
X0071224Y0159694D01*
X0071583Y0156781D01*
X0071870Y0153861D01*
X0072085Y0150935D01*
X0072229Y0148004D01*
X0072301Y0145070D01*
X0072301Y0142136D01*
X0072229Y0139202D01*
X0072085Y0136271D01*
X0071870Y0133345D01*
X0071583Y0130425D01*
X0071224Y0127512D01*
X0070795Y0124609D01*
X0070294Y0121718D01*
X0069723Y0118840D01*
X0069081Y0115976D01*
X0068369Y0113130D01*
X0067588Y0110301D01*
X0066738Y0107493D01*
X0065819Y0104706D01*
X0064832Y0101942D01*
X0063778Y0099204D01*
X0062657Y0096492D01*
X0061471Y0093808D01*
X0060218Y0091154D01*
X0058901Y0088532D01*
X0057520Y0085943D01*
X0056077Y0083388D01*
X0054571Y0080870D01*
X0053004Y0078389D01*
X0051376Y0075947D01*
X0049689Y0073546D01*
X0047944Y0071187D01*
X0046142Y0068871D01*
X0044283Y0066600D01*
D11*
X0073704Y0109100D02*
X0073706Y0109284D01*
X0073713Y0109468D01*
X0073724Y0109652D01*
X0073740Y0109835D01*
X0073760Y0110018D01*
X0073785Y0110200D01*
X0073814Y0110382D01*
X0073848Y0110563D01*
X0073886Y0110743D01*
X0073929Y0110922D01*
X0073976Y0111100D01*
X0074027Y0111277D01*
X0074083Y0111453D01*
X0074142Y0111627D01*
X0074207Y0111799D01*
X0074275Y0111970D01*
X0074347Y0112139D01*
X0074424Y0112307D01*
X0074505Y0112472D01*
X0074590Y0112635D01*
X0074678Y0112797D01*
X0074771Y0112956D01*
X0074868Y0113112D01*
X0074968Y0113267D01*
X0075072Y0113419D01*
X0075180Y0113568D01*
X0075291Y0113714D01*
X0075406Y0113858D01*
X0075525Y0113999D01*
X0075647Y0114137D01*
X0075772Y0114272D01*
X0075901Y0114403D01*
X0076032Y0114532D01*
X0076167Y0114657D01*
X0076305Y0114779D01*
X0076446Y0114898D01*
X0076590Y0115013D01*
X0076736Y0115124D01*
X0076885Y0115232D01*
X0077037Y0115336D01*
X0077192Y0115436D01*
X0077348Y0115533D01*
X0077507Y0115626D01*
X0077669Y0115714D01*
X0077832Y0115799D01*
X0077997Y0115880D01*
X0078165Y0115957D01*
X0078334Y0116029D01*
X0078505Y0116097D01*
X0078677Y0116162D01*
X0078851Y0116221D01*
X0079027Y0116277D01*
X0079204Y0116328D01*
X0079382Y0116375D01*
X0079561Y0116418D01*
X0079741Y0116456D01*
X0079922Y0116490D01*
X0080104Y0116519D01*
X0080286Y0116544D01*
X0080469Y0116564D01*
X0080652Y0116580D01*
X0080836Y0116591D01*
X0081020Y0116598D01*
X0081204Y0116600D01*
X0081388Y0116598D01*
X0081572Y0116591D01*
X0081756Y0116580D01*
X0081939Y0116564D01*
X0082122Y0116544D01*
X0082304Y0116519D01*
X0082486Y0116490D01*
X0082667Y0116456D01*
X0082847Y0116418D01*
X0083026Y0116375D01*
X0083204Y0116328D01*
X0083381Y0116277D01*
X0083557Y0116221D01*
X0083731Y0116162D01*
X0083903Y0116097D01*
X0084074Y0116029D01*
X0084243Y0115957D01*
X0084411Y0115880D01*
X0084576Y0115799D01*
X0084739Y0115714D01*
X0084901Y0115626D01*
X0085060Y0115533D01*
X0085216Y0115436D01*
X0085371Y0115336D01*
X0085523Y0115232D01*
X0085672Y0115124D01*
X0085818Y0115013D01*
X0085962Y0114898D01*
X0086103Y0114779D01*
X0086241Y0114657D01*
X0086376Y0114532D01*
X0086507Y0114403D01*
X0086636Y0114272D01*
X0086761Y0114137D01*
X0086883Y0113999D01*
X0087002Y0113858D01*
X0087117Y0113714D01*
X0087228Y0113568D01*
X0087336Y0113419D01*
X0087440Y0113267D01*
X0087540Y0113112D01*
X0087637Y0112956D01*
X0087730Y0112797D01*
X0087818Y0112635D01*
X0087903Y0112472D01*
X0087984Y0112307D01*
X0088061Y0112139D01*
X0088133Y0111970D01*
X0088201Y0111799D01*
X0088266Y0111627D01*
X0088325Y0111453D01*
X0088381Y0111277D01*
X0088432Y0111100D01*
X0088479Y0110922D01*
X0088522Y0110743D01*
X0088560Y0110563D01*
X0088594Y0110382D01*
X0088623Y0110200D01*
X0088648Y0110018D01*
X0088668Y0109835D01*
X0088684Y0109652D01*
X0088695Y0109468D01*
X0088702Y0109284D01*
X0088704Y0109100D01*
X0088702Y0108916D01*
X0088695Y0108732D01*
X0088684Y0108548D01*
X0088668Y0108365D01*
X0088648Y0108182D01*
X0088623Y0108000D01*
X0088594Y0107818D01*
X0088560Y0107637D01*
X0088522Y0107457D01*
X0088479Y0107278D01*
X0088432Y0107100D01*
X0088381Y0106923D01*
X0088325Y0106747D01*
X0088266Y0106573D01*
X0088201Y0106401D01*
X0088133Y0106230D01*
X0088061Y0106061D01*
X0087984Y0105893D01*
X0087903Y0105728D01*
X0087818Y0105565D01*
X0087730Y0105403D01*
X0087637Y0105244D01*
X0087540Y0105088D01*
X0087440Y0104933D01*
X0087336Y0104781D01*
X0087228Y0104632D01*
X0087117Y0104486D01*
X0087002Y0104342D01*
X0086883Y0104201D01*
X0086761Y0104063D01*
X0086636Y0103928D01*
X0086507Y0103797D01*
X0086376Y0103668D01*
X0086241Y0103543D01*
X0086103Y0103421D01*
X0085962Y0103302D01*
X0085818Y0103187D01*
X0085672Y0103076D01*
X0085523Y0102968D01*
X0085371Y0102864D01*
X0085216Y0102764D01*
X0085060Y0102667D01*
X0084901Y0102574D01*
X0084739Y0102486D01*
X0084576Y0102401D01*
X0084411Y0102320D01*
X0084243Y0102243D01*
X0084074Y0102171D01*
X0083903Y0102103D01*
X0083731Y0102038D01*
X0083557Y0101979D01*
X0083381Y0101923D01*
X0083204Y0101872D01*
X0083026Y0101825D01*
X0082847Y0101782D01*
X0082667Y0101744D01*
X0082486Y0101710D01*
X0082304Y0101681D01*
X0082122Y0101656D01*
X0081939Y0101636D01*
X0081756Y0101620D01*
X0081572Y0101609D01*
X0081388Y0101602D01*
X0081204Y0101600D01*
X0081020Y0101602D01*
X0080836Y0101609D01*
X0080652Y0101620D01*
X0080469Y0101636D01*
X0080286Y0101656D01*
X0080104Y0101681D01*
X0079922Y0101710D01*
X0079741Y0101744D01*
X0079561Y0101782D01*
X0079382Y0101825D01*
X0079204Y0101872D01*
X0079027Y0101923D01*
X0078851Y0101979D01*
X0078677Y0102038D01*
X0078505Y0102103D01*
X0078334Y0102171D01*
X0078165Y0102243D01*
X0077997Y0102320D01*
X0077832Y0102401D01*
X0077669Y0102486D01*
X0077507Y0102574D01*
X0077348Y0102667D01*
X0077192Y0102764D01*
X0077037Y0102864D01*
X0076885Y0102968D01*
X0076736Y0103076D01*
X0076590Y0103187D01*
X0076446Y0103302D01*
X0076305Y0103421D01*
X0076167Y0103543D01*
X0076032Y0103668D01*
X0075901Y0103797D01*
X0075772Y0103928D01*
X0075647Y0104063D01*
X0075525Y0104201D01*
X0075406Y0104342D01*
X0075291Y0104486D01*
X0075180Y0104632D01*
X0075072Y0104781D01*
X0074968Y0104933D01*
X0074868Y0105088D01*
X0074771Y0105244D01*
X0074678Y0105403D01*
X0074590Y0105565D01*
X0074505Y0105728D01*
X0074424Y0105893D01*
X0074347Y0106061D01*
X0074275Y0106230D01*
X0074207Y0106401D01*
X0074142Y0106573D01*
X0074083Y0106747D01*
X0074027Y0106923D01*
X0073976Y0107100D01*
X0073929Y0107278D01*
X0073886Y0107457D01*
X0073848Y0107637D01*
X0073814Y0107818D01*
X0073785Y0108000D01*
X0073760Y0108182D01*
X0073740Y0108365D01*
X0073724Y0108548D01*
X0073713Y0108732D01*
X0073706Y0108916D01*
X0073704Y0109100D01*
X0061204Y0209100D02*
X0061206Y0209284D01*
X0061213Y0209468D01*
X0061224Y0209652D01*
X0061240Y0209835D01*
X0061260Y0210018D01*
X0061285Y0210200D01*
X0061314Y0210382D01*
X0061348Y0210563D01*
X0061386Y0210743D01*
X0061429Y0210922D01*
X0061476Y0211100D01*
X0061527Y0211277D01*
X0061583Y0211453D01*
X0061642Y0211627D01*
X0061707Y0211799D01*
X0061775Y0211970D01*
X0061847Y0212139D01*
X0061924Y0212307D01*
X0062005Y0212472D01*
X0062090Y0212635D01*
X0062178Y0212797D01*
X0062271Y0212956D01*
X0062368Y0213112D01*
X0062468Y0213267D01*
X0062572Y0213419D01*
X0062680Y0213568D01*
X0062791Y0213714D01*
X0062906Y0213858D01*
X0063025Y0213999D01*
X0063147Y0214137D01*
X0063272Y0214272D01*
X0063401Y0214403D01*
X0063532Y0214532D01*
X0063667Y0214657D01*
X0063805Y0214779D01*
X0063946Y0214898D01*
X0064090Y0215013D01*
X0064236Y0215124D01*
X0064385Y0215232D01*
X0064537Y0215336D01*
X0064692Y0215436D01*
X0064848Y0215533D01*
X0065007Y0215626D01*
X0065169Y0215714D01*
X0065332Y0215799D01*
X0065497Y0215880D01*
X0065665Y0215957D01*
X0065834Y0216029D01*
X0066005Y0216097D01*
X0066177Y0216162D01*
X0066351Y0216221D01*
X0066527Y0216277D01*
X0066704Y0216328D01*
X0066882Y0216375D01*
X0067061Y0216418D01*
X0067241Y0216456D01*
X0067422Y0216490D01*
X0067604Y0216519D01*
X0067786Y0216544D01*
X0067969Y0216564D01*
X0068152Y0216580D01*
X0068336Y0216591D01*
X0068520Y0216598D01*
X0068704Y0216600D01*
X0068888Y0216598D01*
X0069072Y0216591D01*
X0069256Y0216580D01*
X0069439Y0216564D01*
X0069622Y0216544D01*
X0069804Y0216519D01*
X0069986Y0216490D01*
X0070167Y0216456D01*
X0070347Y0216418D01*
X0070526Y0216375D01*
X0070704Y0216328D01*
X0070881Y0216277D01*
X0071057Y0216221D01*
X0071231Y0216162D01*
X0071403Y0216097D01*
X0071574Y0216029D01*
X0071743Y0215957D01*
X0071911Y0215880D01*
X0072076Y0215799D01*
X0072239Y0215714D01*
X0072401Y0215626D01*
X0072560Y0215533D01*
X0072716Y0215436D01*
X0072871Y0215336D01*
X0073023Y0215232D01*
X0073172Y0215124D01*
X0073318Y0215013D01*
X0073462Y0214898D01*
X0073603Y0214779D01*
X0073741Y0214657D01*
X0073876Y0214532D01*
X0074007Y0214403D01*
X0074136Y0214272D01*
X0074261Y0214137D01*
X0074383Y0213999D01*
X0074502Y0213858D01*
X0074617Y0213714D01*
X0074728Y0213568D01*
X0074836Y0213419D01*
X0074940Y0213267D01*
X0075040Y0213112D01*
X0075137Y0212956D01*
X0075230Y0212797D01*
X0075318Y0212635D01*
X0075403Y0212472D01*
X0075484Y0212307D01*
X0075561Y0212139D01*
X0075633Y0211970D01*
X0075701Y0211799D01*
X0075766Y0211627D01*
X0075825Y0211453D01*
X0075881Y0211277D01*
X0075932Y0211100D01*
X0075979Y0210922D01*
X0076022Y0210743D01*
X0076060Y0210563D01*
X0076094Y0210382D01*
X0076123Y0210200D01*
X0076148Y0210018D01*
X0076168Y0209835D01*
X0076184Y0209652D01*
X0076195Y0209468D01*
X0076202Y0209284D01*
X0076204Y0209100D01*
X0076202Y0208916D01*
X0076195Y0208732D01*
X0076184Y0208548D01*
X0076168Y0208365D01*
X0076148Y0208182D01*
X0076123Y0208000D01*
X0076094Y0207818D01*
X0076060Y0207637D01*
X0076022Y0207457D01*
X0075979Y0207278D01*
X0075932Y0207100D01*
X0075881Y0206923D01*
X0075825Y0206747D01*
X0075766Y0206573D01*
X0075701Y0206401D01*
X0075633Y0206230D01*
X0075561Y0206061D01*
X0075484Y0205893D01*
X0075403Y0205728D01*
X0075318Y0205565D01*
X0075230Y0205403D01*
X0075137Y0205244D01*
X0075040Y0205088D01*
X0074940Y0204933D01*
X0074836Y0204781D01*
X0074728Y0204632D01*
X0074617Y0204486D01*
X0074502Y0204342D01*
X0074383Y0204201D01*
X0074261Y0204063D01*
X0074136Y0203928D01*
X0074007Y0203797D01*
X0073876Y0203668D01*
X0073741Y0203543D01*
X0073603Y0203421D01*
X0073462Y0203302D01*
X0073318Y0203187D01*
X0073172Y0203076D01*
X0073023Y0202968D01*
X0072871Y0202864D01*
X0072716Y0202764D01*
X0072560Y0202667D01*
X0072401Y0202574D01*
X0072239Y0202486D01*
X0072076Y0202401D01*
X0071911Y0202320D01*
X0071743Y0202243D01*
X0071574Y0202171D01*
X0071403Y0202103D01*
X0071231Y0202038D01*
X0071057Y0201979D01*
X0070881Y0201923D01*
X0070704Y0201872D01*
X0070526Y0201825D01*
X0070347Y0201782D01*
X0070167Y0201744D01*
X0069986Y0201710D01*
X0069804Y0201681D01*
X0069622Y0201656D01*
X0069439Y0201636D01*
X0069256Y0201620D01*
X0069072Y0201609D01*
X0068888Y0201602D01*
X0068704Y0201600D01*
X0068520Y0201602D01*
X0068336Y0201609D01*
X0068152Y0201620D01*
X0067969Y0201636D01*
X0067786Y0201656D01*
X0067604Y0201681D01*
X0067422Y0201710D01*
X0067241Y0201744D01*
X0067061Y0201782D01*
X0066882Y0201825D01*
X0066704Y0201872D01*
X0066527Y0201923D01*
X0066351Y0201979D01*
X0066177Y0202038D01*
X0066005Y0202103D01*
X0065834Y0202171D01*
X0065665Y0202243D01*
X0065497Y0202320D01*
X0065332Y0202401D01*
X0065169Y0202486D01*
X0065007Y0202574D01*
X0064848Y0202667D01*
X0064692Y0202764D01*
X0064537Y0202864D01*
X0064385Y0202968D01*
X0064236Y0203076D01*
X0064090Y0203187D01*
X0063946Y0203302D01*
X0063805Y0203421D01*
X0063667Y0203543D01*
X0063532Y0203668D01*
X0063401Y0203797D01*
X0063272Y0203928D01*
X0063147Y0204063D01*
X0063025Y0204201D01*
X0062906Y0204342D01*
X0062791Y0204486D01*
X0062680Y0204632D01*
X0062572Y0204781D01*
X0062468Y0204933D01*
X0062368Y0205088D01*
X0062271Y0205244D01*
X0062178Y0205403D01*
X0062090Y0205565D01*
X0062005Y0205728D01*
X0061924Y0205893D01*
X0061847Y0206061D01*
X0061775Y0206230D01*
X0061707Y0206401D01*
X0061642Y0206573D01*
X0061583Y0206747D01*
X0061527Y0206923D01*
X0061476Y0207100D01*
X0061429Y0207278D01*
X0061386Y0207457D01*
X0061348Y0207637D01*
X0061314Y0207818D01*
X0061285Y0208000D01*
X0061260Y0208182D01*
X0061240Y0208365D01*
X0061224Y0208548D01*
X0061213Y0208732D01*
X0061206Y0208916D01*
X0061204Y0209100D01*
X0163704Y0066600D02*
X0163706Y0066784D01*
X0163713Y0066968D01*
X0163724Y0067152D01*
X0163740Y0067335D01*
X0163760Y0067518D01*
X0163785Y0067700D01*
X0163814Y0067882D01*
X0163848Y0068063D01*
X0163886Y0068243D01*
X0163929Y0068422D01*
X0163976Y0068600D01*
X0164027Y0068777D01*
X0164083Y0068953D01*
X0164142Y0069127D01*
X0164207Y0069299D01*
X0164275Y0069470D01*
X0164347Y0069639D01*
X0164424Y0069807D01*
X0164505Y0069972D01*
X0164590Y0070135D01*
X0164678Y0070297D01*
X0164771Y0070456D01*
X0164868Y0070612D01*
X0164968Y0070767D01*
X0165072Y0070919D01*
X0165180Y0071068D01*
X0165291Y0071214D01*
X0165406Y0071358D01*
X0165525Y0071499D01*
X0165647Y0071637D01*
X0165772Y0071772D01*
X0165901Y0071903D01*
X0166032Y0072032D01*
X0166167Y0072157D01*
X0166305Y0072279D01*
X0166446Y0072398D01*
X0166590Y0072513D01*
X0166736Y0072624D01*
X0166885Y0072732D01*
X0167037Y0072836D01*
X0167192Y0072936D01*
X0167348Y0073033D01*
X0167507Y0073126D01*
X0167669Y0073214D01*
X0167832Y0073299D01*
X0167997Y0073380D01*
X0168165Y0073457D01*
X0168334Y0073529D01*
X0168505Y0073597D01*
X0168677Y0073662D01*
X0168851Y0073721D01*
X0169027Y0073777D01*
X0169204Y0073828D01*
X0169382Y0073875D01*
X0169561Y0073918D01*
X0169741Y0073956D01*
X0169922Y0073990D01*
X0170104Y0074019D01*
X0170286Y0074044D01*
X0170469Y0074064D01*
X0170652Y0074080D01*
X0170836Y0074091D01*
X0171020Y0074098D01*
X0171204Y0074100D01*
X0171388Y0074098D01*
X0171572Y0074091D01*
X0171756Y0074080D01*
X0171939Y0074064D01*
X0172122Y0074044D01*
X0172304Y0074019D01*
X0172486Y0073990D01*
X0172667Y0073956D01*
X0172847Y0073918D01*
X0173026Y0073875D01*
X0173204Y0073828D01*
X0173381Y0073777D01*
X0173557Y0073721D01*
X0173731Y0073662D01*
X0173903Y0073597D01*
X0174074Y0073529D01*
X0174243Y0073457D01*
X0174411Y0073380D01*
X0174576Y0073299D01*
X0174739Y0073214D01*
X0174901Y0073126D01*
X0175060Y0073033D01*
X0175216Y0072936D01*
X0175371Y0072836D01*
X0175523Y0072732D01*
X0175672Y0072624D01*
X0175818Y0072513D01*
X0175962Y0072398D01*
X0176103Y0072279D01*
X0176241Y0072157D01*
X0176376Y0072032D01*
X0176507Y0071903D01*
X0176636Y0071772D01*
X0176761Y0071637D01*
X0176883Y0071499D01*
X0177002Y0071358D01*
X0177117Y0071214D01*
X0177228Y0071068D01*
X0177336Y0070919D01*
X0177440Y0070767D01*
X0177540Y0070612D01*
X0177637Y0070456D01*
X0177730Y0070297D01*
X0177818Y0070135D01*
X0177903Y0069972D01*
X0177984Y0069807D01*
X0178061Y0069639D01*
X0178133Y0069470D01*
X0178201Y0069299D01*
X0178266Y0069127D01*
X0178325Y0068953D01*
X0178381Y0068777D01*
X0178432Y0068600D01*
X0178479Y0068422D01*
X0178522Y0068243D01*
X0178560Y0068063D01*
X0178594Y0067882D01*
X0178623Y0067700D01*
X0178648Y0067518D01*
X0178668Y0067335D01*
X0178684Y0067152D01*
X0178695Y0066968D01*
X0178702Y0066784D01*
X0178704Y0066600D01*
X0178702Y0066416D01*
X0178695Y0066232D01*
X0178684Y0066048D01*
X0178668Y0065865D01*
X0178648Y0065682D01*
X0178623Y0065500D01*
X0178594Y0065318D01*
X0178560Y0065137D01*
X0178522Y0064957D01*
X0178479Y0064778D01*
X0178432Y0064600D01*
X0178381Y0064423D01*
X0178325Y0064247D01*
X0178266Y0064073D01*
X0178201Y0063901D01*
X0178133Y0063730D01*
X0178061Y0063561D01*
X0177984Y0063393D01*
X0177903Y0063228D01*
X0177818Y0063065D01*
X0177730Y0062903D01*
X0177637Y0062744D01*
X0177540Y0062588D01*
X0177440Y0062433D01*
X0177336Y0062281D01*
X0177228Y0062132D01*
X0177117Y0061986D01*
X0177002Y0061842D01*
X0176883Y0061701D01*
X0176761Y0061563D01*
X0176636Y0061428D01*
X0176507Y0061297D01*
X0176376Y0061168D01*
X0176241Y0061043D01*
X0176103Y0060921D01*
X0175962Y0060802D01*
X0175818Y0060687D01*
X0175672Y0060576D01*
X0175523Y0060468D01*
X0175371Y0060364D01*
X0175216Y0060264D01*
X0175060Y0060167D01*
X0174901Y0060074D01*
X0174739Y0059986D01*
X0174576Y0059901D01*
X0174411Y0059820D01*
X0174243Y0059743D01*
X0174074Y0059671D01*
X0173903Y0059603D01*
X0173731Y0059538D01*
X0173557Y0059479D01*
X0173381Y0059423D01*
X0173204Y0059372D01*
X0173026Y0059325D01*
X0172847Y0059282D01*
X0172667Y0059244D01*
X0172486Y0059210D01*
X0172304Y0059181D01*
X0172122Y0059156D01*
X0171939Y0059136D01*
X0171756Y0059120D01*
X0171572Y0059109D01*
X0171388Y0059102D01*
X0171204Y0059100D01*
X0171020Y0059102D01*
X0170836Y0059109D01*
X0170652Y0059120D01*
X0170469Y0059136D01*
X0170286Y0059156D01*
X0170104Y0059181D01*
X0169922Y0059210D01*
X0169741Y0059244D01*
X0169561Y0059282D01*
X0169382Y0059325D01*
X0169204Y0059372D01*
X0169027Y0059423D01*
X0168851Y0059479D01*
X0168677Y0059538D01*
X0168505Y0059603D01*
X0168334Y0059671D01*
X0168165Y0059743D01*
X0167997Y0059820D01*
X0167832Y0059901D01*
X0167669Y0059986D01*
X0167507Y0060074D01*
X0167348Y0060167D01*
X0167192Y0060264D01*
X0167037Y0060364D01*
X0166885Y0060468D01*
X0166736Y0060576D01*
X0166590Y0060687D01*
X0166446Y0060802D01*
X0166305Y0060921D01*
X0166167Y0061043D01*
X0166032Y0061168D01*
X0165901Y0061297D01*
X0165772Y0061428D01*
X0165647Y0061563D01*
X0165525Y0061701D01*
X0165406Y0061842D01*
X0165291Y0061986D01*
X0165180Y0062132D01*
X0165072Y0062281D01*
X0164968Y0062433D01*
X0164868Y0062588D01*
X0164771Y0062744D01*
X0164678Y0062903D01*
X0164590Y0063065D01*
X0164505Y0063228D01*
X0164424Y0063393D01*
X0164347Y0063561D01*
X0164275Y0063730D01*
X0164207Y0063901D01*
X0164142Y0064073D01*
X0164083Y0064247D01*
X0164027Y0064423D01*
X0163976Y0064600D01*
X0163929Y0064778D01*
X0163886Y0064957D01*
X0163848Y0065137D01*
X0163814Y0065318D01*
X0163785Y0065500D01*
X0163760Y0065682D01*
X0163740Y0065865D01*
X0163724Y0066048D01*
X0163713Y0066232D01*
X0163706Y0066416D01*
X0163704Y0066600D01*
X0166204Y0216600D02*
X0166206Y0216784D01*
X0166213Y0216968D01*
X0166224Y0217152D01*
X0166240Y0217335D01*
X0166260Y0217518D01*
X0166285Y0217700D01*
X0166314Y0217882D01*
X0166348Y0218063D01*
X0166386Y0218243D01*
X0166429Y0218422D01*
X0166476Y0218600D01*
X0166527Y0218777D01*
X0166583Y0218953D01*
X0166642Y0219127D01*
X0166707Y0219299D01*
X0166775Y0219470D01*
X0166847Y0219639D01*
X0166924Y0219807D01*
X0167005Y0219972D01*
X0167090Y0220135D01*
X0167178Y0220297D01*
X0167271Y0220456D01*
X0167368Y0220612D01*
X0167468Y0220767D01*
X0167572Y0220919D01*
X0167680Y0221068D01*
X0167791Y0221214D01*
X0167906Y0221358D01*
X0168025Y0221499D01*
X0168147Y0221637D01*
X0168272Y0221772D01*
X0168401Y0221903D01*
X0168532Y0222032D01*
X0168667Y0222157D01*
X0168805Y0222279D01*
X0168946Y0222398D01*
X0169090Y0222513D01*
X0169236Y0222624D01*
X0169385Y0222732D01*
X0169537Y0222836D01*
X0169692Y0222936D01*
X0169848Y0223033D01*
X0170007Y0223126D01*
X0170169Y0223214D01*
X0170332Y0223299D01*
X0170497Y0223380D01*
X0170665Y0223457D01*
X0170834Y0223529D01*
X0171005Y0223597D01*
X0171177Y0223662D01*
X0171351Y0223721D01*
X0171527Y0223777D01*
X0171704Y0223828D01*
X0171882Y0223875D01*
X0172061Y0223918D01*
X0172241Y0223956D01*
X0172422Y0223990D01*
X0172604Y0224019D01*
X0172786Y0224044D01*
X0172969Y0224064D01*
X0173152Y0224080D01*
X0173336Y0224091D01*
X0173520Y0224098D01*
X0173704Y0224100D01*
X0173888Y0224098D01*
X0174072Y0224091D01*
X0174256Y0224080D01*
X0174439Y0224064D01*
X0174622Y0224044D01*
X0174804Y0224019D01*
X0174986Y0223990D01*
X0175167Y0223956D01*
X0175347Y0223918D01*
X0175526Y0223875D01*
X0175704Y0223828D01*
X0175881Y0223777D01*
X0176057Y0223721D01*
X0176231Y0223662D01*
X0176403Y0223597D01*
X0176574Y0223529D01*
X0176743Y0223457D01*
X0176911Y0223380D01*
X0177076Y0223299D01*
X0177239Y0223214D01*
X0177401Y0223126D01*
X0177560Y0223033D01*
X0177716Y0222936D01*
X0177871Y0222836D01*
X0178023Y0222732D01*
X0178172Y0222624D01*
X0178318Y0222513D01*
X0178462Y0222398D01*
X0178603Y0222279D01*
X0178741Y0222157D01*
X0178876Y0222032D01*
X0179007Y0221903D01*
X0179136Y0221772D01*
X0179261Y0221637D01*
X0179383Y0221499D01*
X0179502Y0221358D01*
X0179617Y0221214D01*
X0179728Y0221068D01*
X0179836Y0220919D01*
X0179940Y0220767D01*
X0180040Y0220612D01*
X0180137Y0220456D01*
X0180230Y0220297D01*
X0180318Y0220135D01*
X0180403Y0219972D01*
X0180484Y0219807D01*
X0180561Y0219639D01*
X0180633Y0219470D01*
X0180701Y0219299D01*
X0180766Y0219127D01*
X0180825Y0218953D01*
X0180881Y0218777D01*
X0180932Y0218600D01*
X0180979Y0218422D01*
X0181022Y0218243D01*
X0181060Y0218063D01*
X0181094Y0217882D01*
X0181123Y0217700D01*
X0181148Y0217518D01*
X0181168Y0217335D01*
X0181184Y0217152D01*
X0181195Y0216968D01*
X0181202Y0216784D01*
X0181204Y0216600D01*
X0181202Y0216416D01*
X0181195Y0216232D01*
X0181184Y0216048D01*
X0181168Y0215865D01*
X0181148Y0215682D01*
X0181123Y0215500D01*
X0181094Y0215318D01*
X0181060Y0215137D01*
X0181022Y0214957D01*
X0180979Y0214778D01*
X0180932Y0214600D01*
X0180881Y0214423D01*
X0180825Y0214247D01*
X0180766Y0214073D01*
X0180701Y0213901D01*
X0180633Y0213730D01*
X0180561Y0213561D01*
X0180484Y0213393D01*
X0180403Y0213228D01*
X0180318Y0213065D01*
X0180230Y0212903D01*
X0180137Y0212744D01*
X0180040Y0212588D01*
X0179940Y0212433D01*
X0179836Y0212281D01*
X0179728Y0212132D01*
X0179617Y0211986D01*
X0179502Y0211842D01*
X0179383Y0211701D01*
X0179261Y0211563D01*
X0179136Y0211428D01*
X0179007Y0211297D01*
X0178876Y0211168D01*
X0178741Y0211043D01*
X0178603Y0210921D01*
X0178462Y0210802D01*
X0178318Y0210687D01*
X0178172Y0210576D01*
X0178023Y0210468D01*
X0177871Y0210364D01*
X0177716Y0210264D01*
X0177560Y0210167D01*
X0177401Y0210074D01*
X0177239Y0209986D01*
X0177076Y0209901D01*
X0176911Y0209820D01*
X0176743Y0209743D01*
X0176574Y0209671D01*
X0176403Y0209603D01*
X0176231Y0209538D01*
X0176057Y0209479D01*
X0175881Y0209423D01*
X0175704Y0209372D01*
X0175526Y0209325D01*
X0175347Y0209282D01*
X0175167Y0209244D01*
X0174986Y0209210D01*
X0174804Y0209181D01*
X0174622Y0209156D01*
X0174439Y0209136D01*
X0174256Y0209120D01*
X0174072Y0209109D01*
X0173888Y0209102D01*
X0173704Y0209100D01*
X0173520Y0209102D01*
X0173336Y0209109D01*
X0173152Y0209120D01*
X0172969Y0209136D01*
X0172786Y0209156D01*
X0172604Y0209181D01*
X0172422Y0209210D01*
X0172241Y0209244D01*
X0172061Y0209282D01*
X0171882Y0209325D01*
X0171704Y0209372D01*
X0171527Y0209423D01*
X0171351Y0209479D01*
X0171177Y0209538D01*
X0171005Y0209603D01*
X0170834Y0209671D01*
X0170665Y0209743D01*
X0170497Y0209820D01*
X0170332Y0209901D01*
X0170169Y0209986D01*
X0170007Y0210074D01*
X0169848Y0210167D01*
X0169692Y0210264D01*
X0169537Y0210364D01*
X0169385Y0210468D01*
X0169236Y0210576D01*
X0169090Y0210687D01*
X0168946Y0210802D01*
X0168805Y0210921D01*
X0168667Y0211043D01*
X0168532Y0211168D01*
X0168401Y0211297D01*
X0168272Y0211428D01*
X0168147Y0211563D01*
X0168025Y0211701D01*
X0167906Y0211842D01*
X0167791Y0211986D01*
X0167680Y0212132D01*
X0167572Y0212281D01*
X0167468Y0212433D01*
X0167368Y0212588D01*
X0167271Y0212744D01*
X0167178Y0212903D01*
X0167090Y0213065D01*
X0167005Y0213228D01*
X0166924Y0213393D01*
X0166847Y0213561D01*
X0166775Y0213730D01*
X0166707Y0213901D01*
X0166642Y0214073D01*
X0166583Y0214247D01*
X0166527Y0214423D01*
X0166476Y0214600D01*
X0166429Y0214778D01*
X0166386Y0214957D01*
X0166348Y0215137D01*
X0166314Y0215318D01*
X0166285Y0215500D01*
X0166260Y0215682D01*
X0166240Y0215865D01*
X0166224Y0216048D01*
X0166213Y0216232D01*
X0166206Y0216416D01*
X0166204Y0216600D01*
D12*
X0173704Y0216600D03*
X0081204Y0109100D03*
X0068704Y0209100D03*
X0171204Y0066600D03*
D13*
X0148704Y0181600D03*
X0148704Y0191600D03*
X0138704Y0191600D03*
X0138704Y0181600D03*
X0128704Y0181600D03*
X0128704Y0191600D03*
X0118704Y0191600D03*
X0118704Y0181600D03*
X0108704Y0181600D03*
X0108704Y0191600D03*
X0108704Y0211600D03*
X0108704Y0221600D03*
X0118704Y0221600D03*
X0118704Y0211600D03*
X0128704Y0211600D03*
X0128704Y0221600D03*
X0138704Y0221600D03*
X0138704Y0211600D03*
X0148704Y0211600D03*
X0148704Y0221600D03*
X0083704Y0084100D03*
X0083704Y0074100D03*
X0083704Y0064100D03*
X0083704Y0054100D03*
X0083704Y0044100D03*
X0083704Y0034100D03*
D14*
X0112464Y0064100D03*
X0112464Y0074100D03*
X0119944Y0074100D03*
X0119944Y0064100D03*
X0132464Y0064100D03*
X0132464Y0074100D03*
X0139944Y0074100D03*
X0139944Y0064100D03*
X0119944Y0086600D03*
X0119944Y0096600D03*
X0112464Y0096600D03*
X0112464Y0086600D03*
X0132464Y0096600D03*
X0132464Y0106600D03*
X0139944Y0106600D03*
X0139944Y0096600D03*
X0118944Y0118100D03*
X0111464Y0118100D03*
X0114964Y0169100D03*
X0122444Y0169100D03*
X0104944Y0169100D03*
X0097464Y0169100D03*
D15*
X0066874Y0236289D03*
X0071874Y0244949D03*
X0076874Y0253610D03*
X0081874Y0262270D03*
M02*
