%
M48
M72
T01C0.01378
T02C0.03150
T03C0.04000
T04C0.15000
%
T01
X103704Y114100
X106204Y98254
X106204Y90380
X106204Y82506
X106204Y74631
X131204Y119100
X146204Y106600
X146204Y96600
X146204Y74100
X146204Y64100
X108704Y136600
X128704Y149100
X131204Y169100
X108704Y169100
X151204Y144100
X163704Y169100
X161204Y174100
T02
X81874Y262270
X76874Y253610
X71874Y244949
X66874Y236289
T03
X108704Y221600
X108704Y211600
X118704Y211600
X118704Y221600
X128704Y221600
X128704Y211600
X138704Y211600
X138704Y221600
X148704Y221600
X148704Y211600
X148704Y191600
X148704Y181600
X138704Y181600
X138704Y191600
X128704Y191600
X128704Y181600
X118704Y181600
X118704Y191600
X108704Y191600
X108704Y181600
X83704Y84100
X83704Y74100
X83704Y64100
X83704Y54100
X83704Y44100
X83704Y34100
T04
X81204Y109100
X68704Y209100
X171204Y66600
X173704Y216600
M30
