G75*
%MOIN*%
%OFA0B0*%
%FSLAX25Y25*%
%IPPOS*%
%LPD*%
%AMOC8*
5,1,8,0,0,1.08239X$1,22.5*
%
%ADD10C,0.00600*%
%ADD11C,0.00000*%
%ADD12C,0.07400*%
%ADD13R,0.05118X0.05906*%
%ADD14C,0.07600*%
%ADD15C,0.01200*%
%ADD16C,0.02400*%
%ADD17C,0.02578*%
D10*
X0044283Y0005655D02*
X0044283Y0066600D01*
X0044283Y0005655D02*
X0130869Y0005655D01*
X0132201Y0005671D01*
X0133532Y0005719D01*
X0134861Y0005800D01*
X0136189Y0005912D01*
X0137513Y0006057D01*
X0138833Y0006233D01*
X0140149Y0006442D01*
X0141459Y0006682D01*
X0142763Y0006954D01*
X0144060Y0007257D01*
X0145349Y0007591D01*
X0146630Y0007956D01*
X0147901Y0008353D01*
X0149163Y0008780D01*
X0150414Y0009237D01*
X0151654Y0009724D01*
X0152881Y0010241D01*
X0154096Y0010788D01*
X0155297Y0011364D01*
X0156484Y0011968D01*
X0157655Y0012602D01*
X0158812Y0013263D01*
X0159951Y0013952D01*
X0161074Y0014668D01*
X0162180Y0015412D01*
X0163267Y0016182D01*
X0164335Y0016977D01*
X0165383Y0017799D01*
X0166411Y0018645D01*
X0167419Y0019517D01*
X0168405Y0020412D01*
X0169370Y0021331D01*
X0170311Y0022272D01*
X0171230Y0023237D01*
X0172125Y0024223D01*
X0172997Y0025231D01*
X0173843Y0026259D01*
X0174665Y0027307D01*
X0175460Y0028375D01*
X0176230Y0029462D01*
X0176974Y0030568D01*
X0177690Y0031691D01*
X0178379Y0032830D01*
X0179040Y0033987D01*
X0179674Y0035158D01*
X0180278Y0036345D01*
X0180854Y0037546D01*
X0181401Y0038761D01*
X0181918Y0039988D01*
X0182405Y0041228D01*
X0182862Y0042479D01*
X0183289Y0043741D01*
X0183686Y0045012D01*
X0184051Y0046293D01*
X0184385Y0047582D01*
X0184688Y0048879D01*
X0184960Y0050183D01*
X0185200Y0051493D01*
X0185409Y0052809D01*
X0185585Y0054129D01*
X0185730Y0055453D01*
X0185842Y0056781D01*
X0185923Y0058110D01*
X0185971Y0059441D01*
X0185987Y0060773D01*
X0185987Y0226128D01*
X0185971Y0227460D01*
X0185923Y0228791D01*
X0185842Y0230120D01*
X0185730Y0231448D01*
X0185585Y0232772D01*
X0185409Y0234092D01*
X0185200Y0235408D01*
X0184960Y0236718D01*
X0184688Y0238022D01*
X0184385Y0239319D01*
X0184051Y0240608D01*
X0183686Y0241889D01*
X0183289Y0243160D01*
X0182862Y0244422D01*
X0182405Y0245673D01*
X0181918Y0246913D01*
X0181401Y0248140D01*
X0180854Y0249355D01*
X0180278Y0250556D01*
X0179674Y0251743D01*
X0179040Y0252914D01*
X0178379Y0254071D01*
X0177690Y0255210D01*
X0176974Y0256333D01*
X0176230Y0257439D01*
X0175460Y0258526D01*
X0174665Y0259594D01*
X0173843Y0260642D01*
X0172997Y0261670D01*
X0172125Y0262678D01*
X0171230Y0263664D01*
X0170311Y0264629D01*
X0169370Y0265570D01*
X0168405Y0266489D01*
X0167419Y0267384D01*
X0166411Y0268256D01*
X0165383Y0269102D01*
X0164335Y0269924D01*
X0163267Y0270719D01*
X0162180Y0271489D01*
X0161074Y0272233D01*
X0159951Y0272949D01*
X0158812Y0273638D01*
X0157655Y0274299D01*
X0156484Y0274933D01*
X0155297Y0275537D01*
X0154096Y0276113D01*
X0152881Y0276660D01*
X0151654Y0277177D01*
X0150414Y0277664D01*
X0149163Y0278121D01*
X0147901Y0278548D01*
X0146630Y0278945D01*
X0145349Y0279310D01*
X0144060Y0279644D01*
X0142763Y0279947D01*
X0141459Y0280219D01*
X0140149Y0280459D01*
X0138833Y0280668D01*
X0137513Y0280844D01*
X0136189Y0280989D01*
X0134861Y0281101D01*
X0133532Y0281182D01*
X0132201Y0281230D01*
X0130869Y0281246D01*
X0044283Y0281246D01*
X0044283Y0220606D01*
X0046142Y0218335D01*
X0047944Y0216019D01*
X0049689Y0213660D01*
X0051376Y0211259D01*
X0053004Y0208817D01*
X0054571Y0206336D01*
X0056077Y0203818D01*
X0057520Y0201263D01*
X0058901Y0198674D01*
X0060218Y0196052D01*
X0061471Y0193398D01*
X0062657Y0190714D01*
X0063778Y0188002D01*
X0064832Y0185264D01*
X0065819Y0182500D01*
X0066738Y0179713D01*
X0067588Y0176905D01*
X0068369Y0174076D01*
X0069081Y0171230D01*
X0069723Y0168366D01*
X0070294Y0165488D01*
X0070795Y0162597D01*
X0071224Y0159694D01*
X0071583Y0156781D01*
X0071870Y0153861D01*
X0072085Y0150935D01*
X0072229Y0148004D01*
X0072301Y0145070D01*
X0072301Y0142136D01*
X0072229Y0139202D01*
X0072085Y0136271D01*
X0071870Y0133345D01*
X0071583Y0130425D01*
X0071224Y0127512D01*
X0070795Y0124609D01*
X0070294Y0121718D01*
X0069723Y0118840D01*
X0069081Y0115976D01*
X0068369Y0113130D01*
X0067588Y0110301D01*
X0066738Y0107493D01*
X0065819Y0104706D01*
X0064832Y0101942D01*
X0063778Y0099204D01*
X0062657Y0096492D01*
X0061471Y0093808D01*
X0060218Y0091154D01*
X0058901Y0088532D01*
X0057520Y0085943D01*
X0056077Y0083388D01*
X0054571Y0080870D01*
X0053004Y0078389D01*
X0051376Y0075947D01*
X0049689Y0073546D01*
X0047944Y0071187D01*
X0046142Y0068871D01*
X0044283Y0066600D01*
D11*
X0073704Y0109100D02*
X0073706Y0109284D01*
X0073713Y0109468D01*
X0073724Y0109652D01*
X0073740Y0109835D01*
X0073760Y0110018D01*
X0073785Y0110200D01*
X0073814Y0110382D01*
X0073848Y0110563D01*
X0073886Y0110743D01*
X0073929Y0110922D01*
X0073976Y0111100D01*
X0074027Y0111277D01*
X0074083Y0111453D01*
X0074142Y0111627D01*
X0074207Y0111799D01*
X0074275Y0111970D01*
X0074347Y0112139D01*
X0074424Y0112307D01*
X0074505Y0112472D01*
X0074590Y0112635D01*
X0074678Y0112797D01*
X0074771Y0112956D01*
X0074868Y0113112D01*
X0074968Y0113267D01*
X0075072Y0113419D01*
X0075180Y0113568D01*
X0075291Y0113714D01*
X0075406Y0113858D01*
X0075525Y0113999D01*
X0075647Y0114137D01*
X0075772Y0114272D01*
X0075901Y0114403D01*
X0076032Y0114532D01*
X0076167Y0114657D01*
X0076305Y0114779D01*
X0076446Y0114898D01*
X0076590Y0115013D01*
X0076736Y0115124D01*
X0076885Y0115232D01*
X0077037Y0115336D01*
X0077192Y0115436D01*
X0077348Y0115533D01*
X0077507Y0115626D01*
X0077669Y0115714D01*
X0077832Y0115799D01*
X0077997Y0115880D01*
X0078165Y0115957D01*
X0078334Y0116029D01*
X0078505Y0116097D01*
X0078677Y0116162D01*
X0078851Y0116221D01*
X0079027Y0116277D01*
X0079204Y0116328D01*
X0079382Y0116375D01*
X0079561Y0116418D01*
X0079741Y0116456D01*
X0079922Y0116490D01*
X0080104Y0116519D01*
X0080286Y0116544D01*
X0080469Y0116564D01*
X0080652Y0116580D01*
X0080836Y0116591D01*
X0081020Y0116598D01*
X0081204Y0116600D01*
X0081388Y0116598D01*
X0081572Y0116591D01*
X0081756Y0116580D01*
X0081939Y0116564D01*
X0082122Y0116544D01*
X0082304Y0116519D01*
X0082486Y0116490D01*
X0082667Y0116456D01*
X0082847Y0116418D01*
X0083026Y0116375D01*
X0083204Y0116328D01*
X0083381Y0116277D01*
X0083557Y0116221D01*
X0083731Y0116162D01*
X0083903Y0116097D01*
X0084074Y0116029D01*
X0084243Y0115957D01*
X0084411Y0115880D01*
X0084576Y0115799D01*
X0084739Y0115714D01*
X0084901Y0115626D01*
X0085060Y0115533D01*
X0085216Y0115436D01*
X0085371Y0115336D01*
X0085523Y0115232D01*
X0085672Y0115124D01*
X0085818Y0115013D01*
X0085962Y0114898D01*
X0086103Y0114779D01*
X0086241Y0114657D01*
X0086376Y0114532D01*
X0086507Y0114403D01*
X0086636Y0114272D01*
X0086761Y0114137D01*
X0086883Y0113999D01*
X0087002Y0113858D01*
X0087117Y0113714D01*
X0087228Y0113568D01*
X0087336Y0113419D01*
X0087440Y0113267D01*
X0087540Y0113112D01*
X0087637Y0112956D01*
X0087730Y0112797D01*
X0087818Y0112635D01*
X0087903Y0112472D01*
X0087984Y0112307D01*
X0088061Y0112139D01*
X0088133Y0111970D01*
X0088201Y0111799D01*
X0088266Y0111627D01*
X0088325Y0111453D01*
X0088381Y0111277D01*
X0088432Y0111100D01*
X0088479Y0110922D01*
X0088522Y0110743D01*
X0088560Y0110563D01*
X0088594Y0110382D01*
X0088623Y0110200D01*
X0088648Y0110018D01*
X0088668Y0109835D01*
X0088684Y0109652D01*
X0088695Y0109468D01*
X0088702Y0109284D01*
X0088704Y0109100D01*
X0088702Y0108916D01*
X0088695Y0108732D01*
X0088684Y0108548D01*
X0088668Y0108365D01*
X0088648Y0108182D01*
X0088623Y0108000D01*
X0088594Y0107818D01*
X0088560Y0107637D01*
X0088522Y0107457D01*
X0088479Y0107278D01*
X0088432Y0107100D01*
X0088381Y0106923D01*
X0088325Y0106747D01*
X0088266Y0106573D01*
X0088201Y0106401D01*
X0088133Y0106230D01*
X0088061Y0106061D01*
X0087984Y0105893D01*
X0087903Y0105728D01*
X0087818Y0105565D01*
X0087730Y0105403D01*
X0087637Y0105244D01*
X0087540Y0105088D01*
X0087440Y0104933D01*
X0087336Y0104781D01*
X0087228Y0104632D01*
X0087117Y0104486D01*
X0087002Y0104342D01*
X0086883Y0104201D01*
X0086761Y0104063D01*
X0086636Y0103928D01*
X0086507Y0103797D01*
X0086376Y0103668D01*
X0086241Y0103543D01*
X0086103Y0103421D01*
X0085962Y0103302D01*
X0085818Y0103187D01*
X0085672Y0103076D01*
X0085523Y0102968D01*
X0085371Y0102864D01*
X0085216Y0102764D01*
X0085060Y0102667D01*
X0084901Y0102574D01*
X0084739Y0102486D01*
X0084576Y0102401D01*
X0084411Y0102320D01*
X0084243Y0102243D01*
X0084074Y0102171D01*
X0083903Y0102103D01*
X0083731Y0102038D01*
X0083557Y0101979D01*
X0083381Y0101923D01*
X0083204Y0101872D01*
X0083026Y0101825D01*
X0082847Y0101782D01*
X0082667Y0101744D01*
X0082486Y0101710D01*
X0082304Y0101681D01*
X0082122Y0101656D01*
X0081939Y0101636D01*
X0081756Y0101620D01*
X0081572Y0101609D01*
X0081388Y0101602D01*
X0081204Y0101600D01*
X0081020Y0101602D01*
X0080836Y0101609D01*
X0080652Y0101620D01*
X0080469Y0101636D01*
X0080286Y0101656D01*
X0080104Y0101681D01*
X0079922Y0101710D01*
X0079741Y0101744D01*
X0079561Y0101782D01*
X0079382Y0101825D01*
X0079204Y0101872D01*
X0079027Y0101923D01*
X0078851Y0101979D01*
X0078677Y0102038D01*
X0078505Y0102103D01*
X0078334Y0102171D01*
X0078165Y0102243D01*
X0077997Y0102320D01*
X0077832Y0102401D01*
X0077669Y0102486D01*
X0077507Y0102574D01*
X0077348Y0102667D01*
X0077192Y0102764D01*
X0077037Y0102864D01*
X0076885Y0102968D01*
X0076736Y0103076D01*
X0076590Y0103187D01*
X0076446Y0103302D01*
X0076305Y0103421D01*
X0076167Y0103543D01*
X0076032Y0103668D01*
X0075901Y0103797D01*
X0075772Y0103928D01*
X0075647Y0104063D01*
X0075525Y0104201D01*
X0075406Y0104342D01*
X0075291Y0104486D01*
X0075180Y0104632D01*
X0075072Y0104781D01*
X0074968Y0104933D01*
X0074868Y0105088D01*
X0074771Y0105244D01*
X0074678Y0105403D01*
X0074590Y0105565D01*
X0074505Y0105728D01*
X0074424Y0105893D01*
X0074347Y0106061D01*
X0074275Y0106230D01*
X0074207Y0106401D01*
X0074142Y0106573D01*
X0074083Y0106747D01*
X0074027Y0106923D01*
X0073976Y0107100D01*
X0073929Y0107278D01*
X0073886Y0107457D01*
X0073848Y0107637D01*
X0073814Y0107818D01*
X0073785Y0108000D01*
X0073760Y0108182D01*
X0073740Y0108365D01*
X0073724Y0108548D01*
X0073713Y0108732D01*
X0073706Y0108916D01*
X0073704Y0109100D01*
X0061204Y0209100D02*
X0061206Y0209284D01*
X0061213Y0209468D01*
X0061224Y0209652D01*
X0061240Y0209835D01*
X0061260Y0210018D01*
X0061285Y0210200D01*
X0061314Y0210382D01*
X0061348Y0210563D01*
X0061386Y0210743D01*
X0061429Y0210922D01*
X0061476Y0211100D01*
X0061527Y0211277D01*
X0061583Y0211453D01*
X0061642Y0211627D01*
X0061707Y0211799D01*
X0061775Y0211970D01*
X0061847Y0212139D01*
X0061924Y0212307D01*
X0062005Y0212472D01*
X0062090Y0212635D01*
X0062178Y0212797D01*
X0062271Y0212956D01*
X0062368Y0213112D01*
X0062468Y0213267D01*
X0062572Y0213419D01*
X0062680Y0213568D01*
X0062791Y0213714D01*
X0062906Y0213858D01*
X0063025Y0213999D01*
X0063147Y0214137D01*
X0063272Y0214272D01*
X0063401Y0214403D01*
X0063532Y0214532D01*
X0063667Y0214657D01*
X0063805Y0214779D01*
X0063946Y0214898D01*
X0064090Y0215013D01*
X0064236Y0215124D01*
X0064385Y0215232D01*
X0064537Y0215336D01*
X0064692Y0215436D01*
X0064848Y0215533D01*
X0065007Y0215626D01*
X0065169Y0215714D01*
X0065332Y0215799D01*
X0065497Y0215880D01*
X0065665Y0215957D01*
X0065834Y0216029D01*
X0066005Y0216097D01*
X0066177Y0216162D01*
X0066351Y0216221D01*
X0066527Y0216277D01*
X0066704Y0216328D01*
X0066882Y0216375D01*
X0067061Y0216418D01*
X0067241Y0216456D01*
X0067422Y0216490D01*
X0067604Y0216519D01*
X0067786Y0216544D01*
X0067969Y0216564D01*
X0068152Y0216580D01*
X0068336Y0216591D01*
X0068520Y0216598D01*
X0068704Y0216600D01*
X0068888Y0216598D01*
X0069072Y0216591D01*
X0069256Y0216580D01*
X0069439Y0216564D01*
X0069622Y0216544D01*
X0069804Y0216519D01*
X0069986Y0216490D01*
X0070167Y0216456D01*
X0070347Y0216418D01*
X0070526Y0216375D01*
X0070704Y0216328D01*
X0070881Y0216277D01*
X0071057Y0216221D01*
X0071231Y0216162D01*
X0071403Y0216097D01*
X0071574Y0216029D01*
X0071743Y0215957D01*
X0071911Y0215880D01*
X0072076Y0215799D01*
X0072239Y0215714D01*
X0072401Y0215626D01*
X0072560Y0215533D01*
X0072716Y0215436D01*
X0072871Y0215336D01*
X0073023Y0215232D01*
X0073172Y0215124D01*
X0073318Y0215013D01*
X0073462Y0214898D01*
X0073603Y0214779D01*
X0073741Y0214657D01*
X0073876Y0214532D01*
X0074007Y0214403D01*
X0074136Y0214272D01*
X0074261Y0214137D01*
X0074383Y0213999D01*
X0074502Y0213858D01*
X0074617Y0213714D01*
X0074728Y0213568D01*
X0074836Y0213419D01*
X0074940Y0213267D01*
X0075040Y0213112D01*
X0075137Y0212956D01*
X0075230Y0212797D01*
X0075318Y0212635D01*
X0075403Y0212472D01*
X0075484Y0212307D01*
X0075561Y0212139D01*
X0075633Y0211970D01*
X0075701Y0211799D01*
X0075766Y0211627D01*
X0075825Y0211453D01*
X0075881Y0211277D01*
X0075932Y0211100D01*
X0075979Y0210922D01*
X0076022Y0210743D01*
X0076060Y0210563D01*
X0076094Y0210382D01*
X0076123Y0210200D01*
X0076148Y0210018D01*
X0076168Y0209835D01*
X0076184Y0209652D01*
X0076195Y0209468D01*
X0076202Y0209284D01*
X0076204Y0209100D01*
X0076202Y0208916D01*
X0076195Y0208732D01*
X0076184Y0208548D01*
X0076168Y0208365D01*
X0076148Y0208182D01*
X0076123Y0208000D01*
X0076094Y0207818D01*
X0076060Y0207637D01*
X0076022Y0207457D01*
X0075979Y0207278D01*
X0075932Y0207100D01*
X0075881Y0206923D01*
X0075825Y0206747D01*
X0075766Y0206573D01*
X0075701Y0206401D01*
X0075633Y0206230D01*
X0075561Y0206061D01*
X0075484Y0205893D01*
X0075403Y0205728D01*
X0075318Y0205565D01*
X0075230Y0205403D01*
X0075137Y0205244D01*
X0075040Y0205088D01*
X0074940Y0204933D01*
X0074836Y0204781D01*
X0074728Y0204632D01*
X0074617Y0204486D01*
X0074502Y0204342D01*
X0074383Y0204201D01*
X0074261Y0204063D01*
X0074136Y0203928D01*
X0074007Y0203797D01*
X0073876Y0203668D01*
X0073741Y0203543D01*
X0073603Y0203421D01*
X0073462Y0203302D01*
X0073318Y0203187D01*
X0073172Y0203076D01*
X0073023Y0202968D01*
X0072871Y0202864D01*
X0072716Y0202764D01*
X0072560Y0202667D01*
X0072401Y0202574D01*
X0072239Y0202486D01*
X0072076Y0202401D01*
X0071911Y0202320D01*
X0071743Y0202243D01*
X0071574Y0202171D01*
X0071403Y0202103D01*
X0071231Y0202038D01*
X0071057Y0201979D01*
X0070881Y0201923D01*
X0070704Y0201872D01*
X0070526Y0201825D01*
X0070347Y0201782D01*
X0070167Y0201744D01*
X0069986Y0201710D01*
X0069804Y0201681D01*
X0069622Y0201656D01*
X0069439Y0201636D01*
X0069256Y0201620D01*
X0069072Y0201609D01*
X0068888Y0201602D01*
X0068704Y0201600D01*
X0068520Y0201602D01*
X0068336Y0201609D01*
X0068152Y0201620D01*
X0067969Y0201636D01*
X0067786Y0201656D01*
X0067604Y0201681D01*
X0067422Y0201710D01*
X0067241Y0201744D01*
X0067061Y0201782D01*
X0066882Y0201825D01*
X0066704Y0201872D01*
X0066527Y0201923D01*
X0066351Y0201979D01*
X0066177Y0202038D01*
X0066005Y0202103D01*
X0065834Y0202171D01*
X0065665Y0202243D01*
X0065497Y0202320D01*
X0065332Y0202401D01*
X0065169Y0202486D01*
X0065007Y0202574D01*
X0064848Y0202667D01*
X0064692Y0202764D01*
X0064537Y0202864D01*
X0064385Y0202968D01*
X0064236Y0203076D01*
X0064090Y0203187D01*
X0063946Y0203302D01*
X0063805Y0203421D01*
X0063667Y0203543D01*
X0063532Y0203668D01*
X0063401Y0203797D01*
X0063272Y0203928D01*
X0063147Y0204063D01*
X0063025Y0204201D01*
X0062906Y0204342D01*
X0062791Y0204486D01*
X0062680Y0204632D01*
X0062572Y0204781D01*
X0062468Y0204933D01*
X0062368Y0205088D01*
X0062271Y0205244D01*
X0062178Y0205403D01*
X0062090Y0205565D01*
X0062005Y0205728D01*
X0061924Y0205893D01*
X0061847Y0206061D01*
X0061775Y0206230D01*
X0061707Y0206401D01*
X0061642Y0206573D01*
X0061583Y0206747D01*
X0061527Y0206923D01*
X0061476Y0207100D01*
X0061429Y0207278D01*
X0061386Y0207457D01*
X0061348Y0207637D01*
X0061314Y0207818D01*
X0061285Y0208000D01*
X0061260Y0208182D01*
X0061240Y0208365D01*
X0061224Y0208548D01*
X0061213Y0208732D01*
X0061206Y0208916D01*
X0061204Y0209100D01*
X0163704Y0066600D02*
X0163706Y0066784D01*
X0163713Y0066968D01*
X0163724Y0067152D01*
X0163740Y0067335D01*
X0163760Y0067518D01*
X0163785Y0067700D01*
X0163814Y0067882D01*
X0163848Y0068063D01*
X0163886Y0068243D01*
X0163929Y0068422D01*
X0163976Y0068600D01*
X0164027Y0068777D01*
X0164083Y0068953D01*
X0164142Y0069127D01*
X0164207Y0069299D01*
X0164275Y0069470D01*
X0164347Y0069639D01*
X0164424Y0069807D01*
X0164505Y0069972D01*
X0164590Y0070135D01*
X0164678Y0070297D01*
X0164771Y0070456D01*
X0164868Y0070612D01*
X0164968Y0070767D01*
X0165072Y0070919D01*
X0165180Y0071068D01*
X0165291Y0071214D01*
X0165406Y0071358D01*
X0165525Y0071499D01*
X0165647Y0071637D01*
X0165772Y0071772D01*
X0165901Y0071903D01*
X0166032Y0072032D01*
X0166167Y0072157D01*
X0166305Y0072279D01*
X0166446Y0072398D01*
X0166590Y0072513D01*
X0166736Y0072624D01*
X0166885Y0072732D01*
X0167037Y0072836D01*
X0167192Y0072936D01*
X0167348Y0073033D01*
X0167507Y0073126D01*
X0167669Y0073214D01*
X0167832Y0073299D01*
X0167997Y0073380D01*
X0168165Y0073457D01*
X0168334Y0073529D01*
X0168505Y0073597D01*
X0168677Y0073662D01*
X0168851Y0073721D01*
X0169027Y0073777D01*
X0169204Y0073828D01*
X0169382Y0073875D01*
X0169561Y0073918D01*
X0169741Y0073956D01*
X0169922Y0073990D01*
X0170104Y0074019D01*
X0170286Y0074044D01*
X0170469Y0074064D01*
X0170652Y0074080D01*
X0170836Y0074091D01*
X0171020Y0074098D01*
X0171204Y0074100D01*
X0171388Y0074098D01*
X0171572Y0074091D01*
X0171756Y0074080D01*
X0171939Y0074064D01*
X0172122Y0074044D01*
X0172304Y0074019D01*
X0172486Y0073990D01*
X0172667Y0073956D01*
X0172847Y0073918D01*
X0173026Y0073875D01*
X0173204Y0073828D01*
X0173381Y0073777D01*
X0173557Y0073721D01*
X0173731Y0073662D01*
X0173903Y0073597D01*
X0174074Y0073529D01*
X0174243Y0073457D01*
X0174411Y0073380D01*
X0174576Y0073299D01*
X0174739Y0073214D01*
X0174901Y0073126D01*
X0175060Y0073033D01*
X0175216Y0072936D01*
X0175371Y0072836D01*
X0175523Y0072732D01*
X0175672Y0072624D01*
X0175818Y0072513D01*
X0175962Y0072398D01*
X0176103Y0072279D01*
X0176241Y0072157D01*
X0176376Y0072032D01*
X0176507Y0071903D01*
X0176636Y0071772D01*
X0176761Y0071637D01*
X0176883Y0071499D01*
X0177002Y0071358D01*
X0177117Y0071214D01*
X0177228Y0071068D01*
X0177336Y0070919D01*
X0177440Y0070767D01*
X0177540Y0070612D01*
X0177637Y0070456D01*
X0177730Y0070297D01*
X0177818Y0070135D01*
X0177903Y0069972D01*
X0177984Y0069807D01*
X0178061Y0069639D01*
X0178133Y0069470D01*
X0178201Y0069299D01*
X0178266Y0069127D01*
X0178325Y0068953D01*
X0178381Y0068777D01*
X0178432Y0068600D01*
X0178479Y0068422D01*
X0178522Y0068243D01*
X0178560Y0068063D01*
X0178594Y0067882D01*
X0178623Y0067700D01*
X0178648Y0067518D01*
X0178668Y0067335D01*
X0178684Y0067152D01*
X0178695Y0066968D01*
X0178702Y0066784D01*
X0178704Y0066600D01*
X0178702Y0066416D01*
X0178695Y0066232D01*
X0178684Y0066048D01*
X0178668Y0065865D01*
X0178648Y0065682D01*
X0178623Y0065500D01*
X0178594Y0065318D01*
X0178560Y0065137D01*
X0178522Y0064957D01*
X0178479Y0064778D01*
X0178432Y0064600D01*
X0178381Y0064423D01*
X0178325Y0064247D01*
X0178266Y0064073D01*
X0178201Y0063901D01*
X0178133Y0063730D01*
X0178061Y0063561D01*
X0177984Y0063393D01*
X0177903Y0063228D01*
X0177818Y0063065D01*
X0177730Y0062903D01*
X0177637Y0062744D01*
X0177540Y0062588D01*
X0177440Y0062433D01*
X0177336Y0062281D01*
X0177228Y0062132D01*
X0177117Y0061986D01*
X0177002Y0061842D01*
X0176883Y0061701D01*
X0176761Y0061563D01*
X0176636Y0061428D01*
X0176507Y0061297D01*
X0176376Y0061168D01*
X0176241Y0061043D01*
X0176103Y0060921D01*
X0175962Y0060802D01*
X0175818Y0060687D01*
X0175672Y0060576D01*
X0175523Y0060468D01*
X0175371Y0060364D01*
X0175216Y0060264D01*
X0175060Y0060167D01*
X0174901Y0060074D01*
X0174739Y0059986D01*
X0174576Y0059901D01*
X0174411Y0059820D01*
X0174243Y0059743D01*
X0174074Y0059671D01*
X0173903Y0059603D01*
X0173731Y0059538D01*
X0173557Y0059479D01*
X0173381Y0059423D01*
X0173204Y0059372D01*
X0173026Y0059325D01*
X0172847Y0059282D01*
X0172667Y0059244D01*
X0172486Y0059210D01*
X0172304Y0059181D01*
X0172122Y0059156D01*
X0171939Y0059136D01*
X0171756Y0059120D01*
X0171572Y0059109D01*
X0171388Y0059102D01*
X0171204Y0059100D01*
X0171020Y0059102D01*
X0170836Y0059109D01*
X0170652Y0059120D01*
X0170469Y0059136D01*
X0170286Y0059156D01*
X0170104Y0059181D01*
X0169922Y0059210D01*
X0169741Y0059244D01*
X0169561Y0059282D01*
X0169382Y0059325D01*
X0169204Y0059372D01*
X0169027Y0059423D01*
X0168851Y0059479D01*
X0168677Y0059538D01*
X0168505Y0059603D01*
X0168334Y0059671D01*
X0168165Y0059743D01*
X0167997Y0059820D01*
X0167832Y0059901D01*
X0167669Y0059986D01*
X0167507Y0060074D01*
X0167348Y0060167D01*
X0167192Y0060264D01*
X0167037Y0060364D01*
X0166885Y0060468D01*
X0166736Y0060576D01*
X0166590Y0060687D01*
X0166446Y0060802D01*
X0166305Y0060921D01*
X0166167Y0061043D01*
X0166032Y0061168D01*
X0165901Y0061297D01*
X0165772Y0061428D01*
X0165647Y0061563D01*
X0165525Y0061701D01*
X0165406Y0061842D01*
X0165291Y0061986D01*
X0165180Y0062132D01*
X0165072Y0062281D01*
X0164968Y0062433D01*
X0164868Y0062588D01*
X0164771Y0062744D01*
X0164678Y0062903D01*
X0164590Y0063065D01*
X0164505Y0063228D01*
X0164424Y0063393D01*
X0164347Y0063561D01*
X0164275Y0063730D01*
X0164207Y0063901D01*
X0164142Y0064073D01*
X0164083Y0064247D01*
X0164027Y0064423D01*
X0163976Y0064600D01*
X0163929Y0064778D01*
X0163886Y0064957D01*
X0163848Y0065137D01*
X0163814Y0065318D01*
X0163785Y0065500D01*
X0163760Y0065682D01*
X0163740Y0065865D01*
X0163724Y0066048D01*
X0163713Y0066232D01*
X0163706Y0066416D01*
X0163704Y0066600D01*
X0166204Y0216600D02*
X0166206Y0216784D01*
X0166213Y0216968D01*
X0166224Y0217152D01*
X0166240Y0217335D01*
X0166260Y0217518D01*
X0166285Y0217700D01*
X0166314Y0217882D01*
X0166348Y0218063D01*
X0166386Y0218243D01*
X0166429Y0218422D01*
X0166476Y0218600D01*
X0166527Y0218777D01*
X0166583Y0218953D01*
X0166642Y0219127D01*
X0166707Y0219299D01*
X0166775Y0219470D01*
X0166847Y0219639D01*
X0166924Y0219807D01*
X0167005Y0219972D01*
X0167090Y0220135D01*
X0167178Y0220297D01*
X0167271Y0220456D01*
X0167368Y0220612D01*
X0167468Y0220767D01*
X0167572Y0220919D01*
X0167680Y0221068D01*
X0167791Y0221214D01*
X0167906Y0221358D01*
X0168025Y0221499D01*
X0168147Y0221637D01*
X0168272Y0221772D01*
X0168401Y0221903D01*
X0168532Y0222032D01*
X0168667Y0222157D01*
X0168805Y0222279D01*
X0168946Y0222398D01*
X0169090Y0222513D01*
X0169236Y0222624D01*
X0169385Y0222732D01*
X0169537Y0222836D01*
X0169692Y0222936D01*
X0169848Y0223033D01*
X0170007Y0223126D01*
X0170169Y0223214D01*
X0170332Y0223299D01*
X0170497Y0223380D01*
X0170665Y0223457D01*
X0170834Y0223529D01*
X0171005Y0223597D01*
X0171177Y0223662D01*
X0171351Y0223721D01*
X0171527Y0223777D01*
X0171704Y0223828D01*
X0171882Y0223875D01*
X0172061Y0223918D01*
X0172241Y0223956D01*
X0172422Y0223990D01*
X0172604Y0224019D01*
X0172786Y0224044D01*
X0172969Y0224064D01*
X0173152Y0224080D01*
X0173336Y0224091D01*
X0173520Y0224098D01*
X0173704Y0224100D01*
X0173888Y0224098D01*
X0174072Y0224091D01*
X0174256Y0224080D01*
X0174439Y0224064D01*
X0174622Y0224044D01*
X0174804Y0224019D01*
X0174986Y0223990D01*
X0175167Y0223956D01*
X0175347Y0223918D01*
X0175526Y0223875D01*
X0175704Y0223828D01*
X0175881Y0223777D01*
X0176057Y0223721D01*
X0176231Y0223662D01*
X0176403Y0223597D01*
X0176574Y0223529D01*
X0176743Y0223457D01*
X0176911Y0223380D01*
X0177076Y0223299D01*
X0177239Y0223214D01*
X0177401Y0223126D01*
X0177560Y0223033D01*
X0177716Y0222936D01*
X0177871Y0222836D01*
X0178023Y0222732D01*
X0178172Y0222624D01*
X0178318Y0222513D01*
X0178462Y0222398D01*
X0178603Y0222279D01*
X0178741Y0222157D01*
X0178876Y0222032D01*
X0179007Y0221903D01*
X0179136Y0221772D01*
X0179261Y0221637D01*
X0179383Y0221499D01*
X0179502Y0221358D01*
X0179617Y0221214D01*
X0179728Y0221068D01*
X0179836Y0220919D01*
X0179940Y0220767D01*
X0180040Y0220612D01*
X0180137Y0220456D01*
X0180230Y0220297D01*
X0180318Y0220135D01*
X0180403Y0219972D01*
X0180484Y0219807D01*
X0180561Y0219639D01*
X0180633Y0219470D01*
X0180701Y0219299D01*
X0180766Y0219127D01*
X0180825Y0218953D01*
X0180881Y0218777D01*
X0180932Y0218600D01*
X0180979Y0218422D01*
X0181022Y0218243D01*
X0181060Y0218063D01*
X0181094Y0217882D01*
X0181123Y0217700D01*
X0181148Y0217518D01*
X0181168Y0217335D01*
X0181184Y0217152D01*
X0181195Y0216968D01*
X0181202Y0216784D01*
X0181204Y0216600D01*
X0181202Y0216416D01*
X0181195Y0216232D01*
X0181184Y0216048D01*
X0181168Y0215865D01*
X0181148Y0215682D01*
X0181123Y0215500D01*
X0181094Y0215318D01*
X0181060Y0215137D01*
X0181022Y0214957D01*
X0180979Y0214778D01*
X0180932Y0214600D01*
X0180881Y0214423D01*
X0180825Y0214247D01*
X0180766Y0214073D01*
X0180701Y0213901D01*
X0180633Y0213730D01*
X0180561Y0213561D01*
X0180484Y0213393D01*
X0180403Y0213228D01*
X0180318Y0213065D01*
X0180230Y0212903D01*
X0180137Y0212744D01*
X0180040Y0212588D01*
X0179940Y0212433D01*
X0179836Y0212281D01*
X0179728Y0212132D01*
X0179617Y0211986D01*
X0179502Y0211842D01*
X0179383Y0211701D01*
X0179261Y0211563D01*
X0179136Y0211428D01*
X0179007Y0211297D01*
X0178876Y0211168D01*
X0178741Y0211043D01*
X0178603Y0210921D01*
X0178462Y0210802D01*
X0178318Y0210687D01*
X0178172Y0210576D01*
X0178023Y0210468D01*
X0177871Y0210364D01*
X0177716Y0210264D01*
X0177560Y0210167D01*
X0177401Y0210074D01*
X0177239Y0209986D01*
X0177076Y0209901D01*
X0176911Y0209820D01*
X0176743Y0209743D01*
X0176574Y0209671D01*
X0176403Y0209603D01*
X0176231Y0209538D01*
X0176057Y0209479D01*
X0175881Y0209423D01*
X0175704Y0209372D01*
X0175526Y0209325D01*
X0175347Y0209282D01*
X0175167Y0209244D01*
X0174986Y0209210D01*
X0174804Y0209181D01*
X0174622Y0209156D01*
X0174439Y0209136D01*
X0174256Y0209120D01*
X0174072Y0209109D01*
X0173888Y0209102D01*
X0173704Y0209100D01*
X0173520Y0209102D01*
X0173336Y0209109D01*
X0173152Y0209120D01*
X0172969Y0209136D01*
X0172786Y0209156D01*
X0172604Y0209181D01*
X0172422Y0209210D01*
X0172241Y0209244D01*
X0172061Y0209282D01*
X0171882Y0209325D01*
X0171704Y0209372D01*
X0171527Y0209423D01*
X0171351Y0209479D01*
X0171177Y0209538D01*
X0171005Y0209603D01*
X0170834Y0209671D01*
X0170665Y0209743D01*
X0170497Y0209820D01*
X0170332Y0209901D01*
X0170169Y0209986D01*
X0170007Y0210074D01*
X0169848Y0210167D01*
X0169692Y0210264D01*
X0169537Y0210364D01*
X0169385Y0210468D01*
X0169236Y0210576D01*
X0169090Y0210687D01*
X0168946Y0210802D01*
X0168805Y0210921D01*
X0168667Y0211043D01*
X0168532Y0211168D01*
X0168401Y0211297D01*
X0168272Y0211428D01*
X0168147Y0211563D01*
X0168025Y0211701D01*
X0167906Y0211842D01*
X0167791Y0211986D01*
X0167680Y0212132D01*
X0167572Y0212281D01*
X0167468Y0212433D01*
X0167368Y0212588D01*
X0167271Y0212744D01*
X0167178Y0212903D01*
X0167090Y0213065D01*
X0167005Y0213228D01*
X0166924Y0213393D01*
X0166847Y0213561D01*
X0166775Y0213730D01*
X0166707Y0213901D01*
X0166642Y0214073D01*
X0166583Y0214247D01*
X0166527Y0214423D01*
X0166476Y0214600D01*
X0166429Y0214778D01*
X0166386Y0214957D01*
X0166348Y0215137D01*
X0166314Y0215318D01*
X0166285Y0215500D01*
X0166260Y0215682D01*
X0166240Y0215865D01*
X0166224Y0216048D01*
X0166213Y0216232D01*
X0166206Y0216416D01*
X0166204Y0216600D01*
D12*
X0148704Y0211600D03*
X0148704Y0221600D03*
X0138704Y0221600D03*
X0138704Y0211600D03*
X0128704Y0211600D03*
X0128704Y0221600D03*
X0118704Y0221600D03*
X0118704Y0211600D03*
X0108704Y0211600D03*
X0108704Y0221600D03*
X0108704Y0191600D03*
X0108704Y0181600D03*
X0118704Y0181600D03*
X0118704Y0191600D03*
X0128704Y0191600D03*
X0128704Y0181600D03*
X0138704Y0181600D03*
X0138704Y0191600D03*
X0148704Y0191600D03*
X0148704Y0181600D03*
X0083704Y0084100D03*
X0083704Y0074100D03*
X0083704Y0064100D03*
X0083704Y0054100D03*
X0083704Y0044100D03*
X0083704Y0034100D03*
D13*
X0112464Y0064100D03*
X0112464Y0074100D03*
X0119944Y0074100D03*
X0119944Y0064100D03*
X0132464Y0064100D03*
X0132464Y0074100D03*
X0139944Y0074100D03*
X0139944Y0064100D03*
X0119944Y0086600D03*
X0119944Y0096600D03*
X0112464Y0096600D03*
X0112464Y0086600D03*
X0132464Y0096600D03*
X0132464Y0106600D03*
X0139944Y0106600D03*
X0139944Y0096600D03*
X0118944Y0118100D03*
X0111464Y0118100D03*
X0114964Y0169100D03*
X0122444Y0169100D03*
X0104944Y0169100D03*
X0097464Y0169100D03*
D14*
X0066874Y0236289D03*
X0071874Y0244949D03*
X0076874Y0253610D03*
X0081874Y0262270D03*
D15*
X0079864Y0257690D02*
X0080879Y0257270D01*
X0082868Y0257270D01*
X0084706Y0258031D01*
X0086113Y0259438D01*
X0086874Y0261275D01*
X0086874Y0263264D01*
X0086113Y0265102D01*
X0084706Y0266509D01*
X0082868Y0267270D01*
X0080879Y0267270D01*
X0079042Y0266509D01*
X0077635Y0265102D01*
X0076874Y0263264D01*
X0076874Y0261275D01*
X0077635Y0259438D01*
X0078884Y0258189D01*
X0077868Y0258610D01*
X0075879Y0258610D01*
X0074042Y0257848D01*
X0072635Y0256442D01*
X0071874Y0254604D01*
X0071874Y0252615D01*
X0072635Y0250777D01*
X0073224Y0250189D01*
X0073138Y0250216D01*
X0072299Y0250349D01*
X0071449Y0250349D01*
X0070609Y0250216D01*
X0069801Y0249954D01*
X0069044Y0249568D01*
X0068356Y0249068D01*
X0067755Y0248467D01*
X0067282Y0247817D01*
X0071805Y0245205D01*
X0071618Y0244881D01*
X0067106Y0247486D01*
X0066869Y0247022D01*
X0066607Y0246214D01*
X0066474Y0245374D01*
X0066474Y0244524D01*
X0066607Y0243685D01*
X0066869Y0242876D01*
X0067255Y0242119D01*
X0067755Y0241431D01*
X0067918Y0241269D01*
X0067868Y0241289D01*
X0065879Y0241289D01*
X0064042Y0240528D01*
X0062635Y0239121D01*
X0061874Y0237284D01*
X0061874Y0235295D01*
X0062635Y0233457D01*
X0064042Y0232050D01*
X0065879Y0231289D01*
X0067868Y0231289D01*
X0069706Y0232050D01*
X0071033Y0233377D01*
X0083804Y0220606D01*
X0083804Y0158623D01*
X0084169Y0157741D01*
X0099844Y0142065D01*
X0100727Y0141700D01*
X0129404Y0141700D01*
X0129404Y0120820D01*
X0129094Y0120510D01*
X0128841Y0119900D01*
X0122703Y0119900D01*
X0122703Y0121550D01*
X0122000Y0122253D01*
X0115888Y0122253D01*
X0115438Y0121802D01*
X0115303Y0122035D01*
X0115005Y0122333D01*
X0114640Y0122544D01*
X0114234Y0122653D01*
X0112064Y0122653D01*
X0112064Y0118700D01*
X0110864Y0118700D01*
X0110864Y0122653D01*
X0108694Y0122653D01*
X0108287Y0122544D01*
X0107922Y0122333D01*
X0107624Y0122035D01*
X0107414Y0121670D01*
X0107305Y0121263D01*
X0107305Y0118700D01*
X0110864Y0118700D01*
X0110864Y0117500D01*
X0112064Y0117500D01*
X0112064Y0113547D01*
X0114234Y0113547D01*
X0114640Y0113656D01*
X0115005Y0113867D01*
X0115303Y0114165D01*
X0115438Y0114398D01*
X0115888Y0113947D01*
X0122000Y0113947D01*
X0122703Y0114650D01*
X0122703Y0116300D01*
X0129404Y0116300D01*
X0129404Y0110749D01*
X0128705Y0110050D01*
X0128705Y0103150D01*
X0129404Y0102451D01*
X0129404Y0100749D01*
X0128705Y0100050D01*
X0128705Y0098400D01*
X0123703Y0098400D01*
X0123703Y0100050D01*
X0123000Y0100753D01*
X0116888Y0100753D01*
X0116204Y0100069D01*
X0115520Y0100753D01*
X0109408Y0100753D01*
X0108709Y0100054D01*
X0107924Y0100054D01*
X0107614Y0100364D01*
X0106699Y0100743D01*
X0105709Y0100743D01*
X0104794Y0100364D01*
X0104094Y0099663D01*
X0103715Y0098749D01*
X0103715Y0097758D01*
X0104094Y0096844D01*
X0104794Y0096143D01*
X0105709Y0095765D01*
X0106699Y0095765D01*
X0107614Y0096143D01*
X0107924Y0096454D01*
X0108705Y0096454D01*
X0108705Y0093150D01*
X0109408Y0092447D01*
X0115520Y0092447D01*
X0116204Y0093131D01*
X0116888Y0092447D01*
X0123000Y0092447D01*
X0123703Y0093150D01*
X0123703Y0094800D01*
X0128705Y0094800D01*
X0128705Y0093150D01*
X0129404Y0092451D01*
X0129404Y0088400D01*
X0123703Y0088400D01*
X0123703Y0090050D01*
X0123000Y0090753D01*
X0116888Y0090753D01*
X0116204Y0090069D01*
X0115520Y0090753D01*
X0109408Y0090753D01*
X0108705Y0090050D01*
X0108705Y0089145D01*
X0108480Y0089370D01*
X0108693Y0089884D01*
X0108693Y0090875D01*
X0108314Y0091789D01*
X0107614Y0092490D01*
X0106699Y0092868D01*
X0105709Y0092868D01*
X0104794Y0092490D01*
X0104094Y0091789D01*
X0103715Y0090875D01*
X0103715Y0089884D01*
X0104094Y0088970D01*
X0104404Y0088660D01*
X0104404Y0088354D01*
X0105458Y0087300D01*
X0107958Y0084800D01*
X0108705Y0084800D01*
X0108705Y0083150D01*
X0109408Y0082447D01*
X0115520Y0082447D01*
X0116204Y0083131D01*
X0116888Y0082447D01*
X0123000Y0082447D01*
X0123703Y0083150D01*
X0123703Y0084800D01*
X0129404Y0084800D01*
X0129404Y0078249D01*
X0128705Y0077550D01*
X0128705Y0075900D01*
X0123703Y0075900D01*
X0123703Y0077550D01*
X0123000Y0078253D01*
X0116888Y0078253D01*
X0116204Y0077569D01*
X0115520Y0078253D01*
X0110857Y0078253D01*
X0108164Y0080945D01*
X0108314Y0081096D01*
X0108693Y0082010D01*
X0108693Y0083001D01*
X0108314Y0083915D01*
X0107614Y0084616D01*
X0106699Y0084994D01*
X0105709Y0084994D01*
X0104794Y0084616D01*
X0104094Y0083915D01*
X0103715Y0083001D01*
X0103715Y0082010D01*
X0104094Y0081096D01*
X0104404Y0080786D01*
X0104404Y0079614D01*
X0105458Y0078560D01*
X0107038Y0076980D01*
X0106699Y0077120D01*
X0105709Y0077120D01*
X0104794Y0076742D01*
X0104094Y0076041D01*
X0103715Y0075127D01*
X0103715Y0074136D01*
X0104094Y0073222D01*
X0104404Y0072912D01*
X0104404Y0069614D01*
X0105458Y0068560D01*
X0108705Y0065313D01*
X0108705Y0060900D01*
X0087958Y0060900D01*
X0086904Y0059846D01*
X0086904Y0059846D01*
X0085654Y0058596D01*
X0084679Y0059000D01*
X0082729Y0059000D01*
X0080928Y0058254D01*
X0079550Y0056876D01*
X0078804Y0055075D01*
X0078804Y0053125D01*
X0079550Y0051324D01*
X0080928Y0049946D01*
X0082729Y0049200D01*
X0084679Y0049200D01*
X0086480Y0049946D01*
X0087858Y0051324D01*
X0088604Y0053125D01*
X0088604Y0055075D01*
X0088200Y0056050D01*
X0089450Y0057300D01*
X0094358Y0057300D01*
X0085654Y0048596D01*
X0084679Y0049000D01*
X0082729Y0049000D01*
X0080928Y0048254D01*
X0079550Y0046876D01*
X0078804Y0045075D01*
X0078804Y0043125D01*
X0079550Y0041324D01*
X0080928Y0039946D01*
X0082534Y0039281D01*
X0082463Y0039269D01*
X0081669Y0039012D01*
X0080926Y0038633D01*
X0080251Y0038143D01*
X0079661Y0037553D01*
X0079171Y0036878D01*
X0078792Y0036134D01*
X0078534Y0035341D01*
X0078404Y0034517D01*
X0078404Y0034500D01*
X0083304Y0034500D01*
X0083304Y0033700D01*
X0084104Y0033700D01*
X0084104Y0034500D01*
X0089004Y0034500D01*
X0089004Y0034517D01*
X0088873Y0035341D01*
X0088616Y0036134D01*
X0088237Y0036878D01*
X0087747Y0037553D01*
X0087157Y0038143D01*
X0086482Y0038633D01*
X0085738Y0039012D01*
X0084945Y0039269D01*
X0084874Y0039281D01*
X0086480Y0039946D01*
X0087858Y0041324D01*
X0088604Y0043125D01*
X0088604Y0045075D01*
X0088200Y0046050D01*
X0093508Y0051358D01*
X0093508Y0024922D01*
X0093704Y0024726D01*
X0093704Y0008555D01*
X0047183Y0008555D01*
X0047183Y0065544D01*
X0050744Y0069788D01*
X0058091Y0080744D01*
X0064221Y0092424D01*
X0069064Y0104693D01*
X0072563Y0117411D01*
X0072563Y0117411D01*
X0074679Y0130431D01*
X0074679Y0130431D01*
X0075387Y0143603D01*
X0074679Y0156775D01*
X0072563Y0169795D01*
X0069064Y0182513D01*
X0064221Y0194783D01*
X0058091Y0206462D01*
X0050744Y0217418D01*
X0047183Y0221662D01*
X0047183Y0278346D01*
X0130869Y0278346D01*
X0134966Y0278185D01*
X0143059Y0276903D01*
X0150852Y0274371D01*
X0158153Y0270651D01*
X0164782Y0265835D01*
X0170576Y0260041D01*
X0175393Y0253411D01*
X0179113Y0246111D01*
X0181645Y0238318D01*
X0182926Y0230225D01*
X0183087Y0226128D01*
X0183087Y0220547D01*
X0181786Y0222802D01*
X0179906Y0224682D01*
X0177602Y0226012D01*
X0175034Y0226700D01*
X0172374Y0226700D01*
X0169806Y0226012D01*
X0167502Y0224682D01*
X0165622Y0222802D01*
X0164292Y0220498D01*
X0163604Y0217930D01*
X0163604Y0215270D01*
X0164292Y0212702D01*
X0165622Y0210398D01*
X0167502Y0208518D01*
X0169806Y0207188D01*
X0172374Y0206500D01*
X0175034Y0206500D01*
X0177602Y0207188D01*
X0179906Y0208518D01*
X0181786Y0210398D01*
X0183087Y0212653D01*
X0183087Y0060773D01*
X0182926Y0056676D01*
X0182677Y0055100D01*
X0137250Y0055100D01*
X0138004Y0055854D01*
X0141744Y0059595D01*
X0141744Y0059947D01*
X0143000Y0059947D01*
X0143703Y0060650D01*
X0143703Y0062300D01*
X0144484Y0062300D01*
X0144794Y0061990D01*
X0145709Y0061611D01*
X0146699Y0061611D01*
X0147614Y0061990D01*
X0148314Y0062690D01*
X0148693Y0063605D01*
X0148693Y0064595D01*
X0148314Y0065510D01*
X0147614Y0066210D01*
X0146699Y0066589D01*
X0145709Y0066589D01*
X0144794Y0066210D01*
X0144484Y0065900D01*
X0143703Y0065900D01*
X0143703Y0067550D01*
X0143000Y0068253D01*
X0136888Y0068253D01*
X0136204Y0067569D01*
X0135520Y0068253D01*
X0134264Y0068253D01*
X0134264Y0069947D01*
X0135520Y0069947D01*
X0136204Y0070631D01*
X0136888Y0069947D01*
X0143000Y0069947D01*
X0143703Y0070650D01*
X0143703Y0072300D01*
X0144484Y0072300D01*
X0144794Y0071990D01*
X0145709Y0071611D01*
X0146699Y0071611D01*
X0147614Y0071990D01*
X0148314Y0072690D01*
X0148693Y0073605D01*
X0148693Y0074595D01*
X0148314Y0075510D01*
X0147614Y0076210D01*
X0146699Y0076589D01*
X0145709Y0076589D01*
X0144794Y0076210D01*
X0144484Y0075900D01*
X0143703Y0075900D01*
X0143703Y0077550D01*
X0143000Y0078253D01*
X0136888Y0078253D01*
X0136204Y0077569D01*
X0135520Y0078253D01*
X0133004Y0078253D01*
X0133004Y0092447D01*
X0135520Y0092447D01*
X0136204Y0093131D01*
X0136888Y0092447D01*
X0143000Y0092447D01*
X0143703Y0093150D01*
X0143703Y0094800D01*
X0144484Y0094800D01*
X0144794Y0094490D01*
X0145709Y0094111D01*
X0146699Y0094111D01*
X0147614Y0094490D01*
X0148314Y0095190D01*
X0148693Y0096105D01*
X0148693Y0097095D01*
X0148314Y0098010D01*
X0147614Y0098710D01*
X0146699Y0099089D01*
X0145709Y0099089D01*
X0144794Y0098710D01*
X0144484Y0098400D01*
X0143703Y0098400D01*
X0143703Y0100050D01*
X0143000Y0100753D01*
X0136888Y0100753D01*
X0136204Y0100069D01*
X0135520Y0100753D01*
X0133004Y0100753D01*
X0133004Y0102447D01*
X0135520Y0102447D01*
X0136204Y0103131D01*
X0136888Y0102447D01*
X0143000Y0102447D01*
X0143703Y0103150D01*
X0143703Y0104800D01*
X0144484Y0104800D01*
X0144794Y0104490D01*
X0145709Y0104111D01*
X0146699Y0104111D01*
X0147614Y0104490D01*
X0148314Y0105190D01*
X0148693Y0106105D01*
X0148693Y0107095D01*
X0148314Y0108010D01*
X0147614Y0108710D01*
X0146699Y0109089D01*
X0145709Y0109089D01*
X0144794Y0108710D01*
X0144484Y0108400D01*
X0143703Y0108400D01*
X0143703Y0110050D01*
X0143000Y0110753D01*
X0136888Y0110753D01*
X0136204Y0110069D01*
X0135520Y0110753D01*
X0133004Y0110753D01*
X0133004Y0117380D01*
X0133314Y0117690D01*
X0133693Y0118605D01*
X0133693Y0119595D01*
X0133314Y0120510D01*
X0133004Y0120820D01*
X0133004Y0142300D01*
X0149484Y0142300D01*
X0149794Y0141990D01*
X0150709Y0141611D01*
X0151699Y0141611D01*
X0152614Y0141990D01*
X0153314Y0142690D01*
X0153693Y0143605D01*
X0153693Y0144595D01*
X0153314Y0145510D01*
X0152614Y0146210D01*
X0151699Y0146589D01*
X0150709Y0146589D01*
X0149794Y0146210D01*
X0149484Y0145900D01*
X0132798Y0145900D01*
X0132563Y0146135D01*
X0131681Y0146500D01*
X0102198Y0146500D01*
X0088604Y0160094D01*
X0088604Y0222077D01*
X0088239Y0222959D01*
X0087563Y0223635D01*
X0072874Y0238324D01*
X0071992Y0238689D01*
X0071292Y0238689D01*
X0071113Y0239121D01*
X0070524Y0239710D01*
X0070609Y0239682D01*
X0071449Y0239549D01*
X0072299Y0239549D01*
X0073138Y0239682D01*
X0073947Y0239945D01*
X0074704Y0240331D01*
X0075392Y0240830D01*
X0075993Y0241431D01*
X0076465Y0242082D01*
X0071942Y0244693D01*
X0072130Y0245018D01*
X0076642Y0242413D01*
X0076878Y0242876D01*
X0077141Y0243685D01*
X0077274Y0244524D01*
X0077274Y0245374D01*
X0077141Y0246214D01*
X0076878Y0247022D01*
X0076492Y0247780D01*
X0075993Y0248467D01*
X0075830Y0248630D01*
X0075879Y0248610D01*
X0077868Y0248610D01*
X0078301Y0248789D01*
X0098804Y0228285D01*
X0098804Y0216123D01*
X0099169Y0215241D01*
X0099844Y0214565D01*
X0099845Y0214565D01*
X0103818Y0210592D01*
X0103960Y0210250D01*
X0099844Y0206135D01*
X0099169Y0205459D01*
X0098804Y0204577D01*
X0098804Y0188623D01*
X0099169Y0187741D01*
X0099844Y0187065D01*
X0102910Y0184000D01*
X0100727Y0184000D01*
X0099844Y0183635D01*
X0099169Y0182959D01*
X0095429Y0179219D01*
X0095064Y0178337D01*
X0095064Y0173253D01*
X0094408Y0173253D01*
X0093705Y0172550D01*
X0093705Y0165650D01*
X0094408Y0164947D01*
X0095064Y0164947D01*
X0095064Y0159863D01*
X0095429Y0158981D01*
X0104169Y0150241D01*
X0104844Y0149565D01*
X0105727Y0149200D01*
X0125210Y0149200D01*
X0126505Y0147905D01*
X0126594Y0147690D01*
X0127294Y0146990D01*
X0128209Y0146611D01*
X0129199Y0146611D01*
X0130114Y0146990D01*
X0130814Y0147690D01*
X0131193Y0148605D01*
X0131193Y0149595D01*
X0130814Y0150510D01*
X0130114Y0151210D01*
X0129899Y0151299D01*
X0127563Y0153635D01*
X0126681Y0154000D01*
X0107198Y0154000D01*
X0099864Y0161334D01*
X0099864Y0164947D01*
X0100520Y0164947D01*
X0101204Y0165631D01*
X0101888Y0164947D01*
X0108000Y0164947D01*
X0108703Y0165650D01*
X0108703Y0166611D01*
X0109199Y0166611D01*
X0109414Y0166700D01*
X0111205Y0166700D01*
X0111205Y0165650D01*
X0111908Y0164947D01*
X0113164Y0164947D01*
X0113164Y0162095D01*
X0114218Y0161040D01*
X0117958Y0157300D01*
X0126950Y0157300D01*
X0128004Y0158354D01*
X0131950Y0162300D01*
X0133004Y0163354D01*
X0133004Y0167380D01*
X0133314Y0167690D01*
X0133693Y0168605D01*
X0133693Y0169595D01*
X0133314Y0170510D01*
X0132614Y0171210D01*
X0131699Y0171589D01*
X0130709Y0171589D01*
X0129794Y0171210D01*
X0129094Y0170510D01*
X0128715Y0169595D01*
X0128715Y0168605D01*
X0129094Y0167690D01*
X0129404Y0167380D01*
X0129404Y0164846D01*
X0125458Y0160900D01*
X0119450Y0160900D01*
X0116764Y0163586D01*
X0116764Y0164947D01*
X0118020Y0164947D01*
X0118470Y0165398D01*
X0118605Y0165165D01*
X0118903Y0164867D01*
X0119268Y0164656D01*
X0119674Y0164547D01*
X0121844Y0164547D01*
X0121844Y0168500D01*
X0123044Y0168500D01*
X0123044Y0164547D01*
X0125214Y0164547D01*
X0125621Y0164656D01*
X0125986Y0164867D01*
X0126284Y0165165D01*
X0126494Y0165530D01*
X0126603Y0165937D01*
X0126603Y0168500D01*
X0123044Y0168500D01*
X0123044Y0169700D01*
X0121844Y0169700D01*
X0121844Y0173653D01*
X0119674Y0173653D01*
X0119268Y0173544D01*
X0118903Y0173333D01*
X0118605Y0173035D01*
X0118470Y0172802D01*
X0118020Y0173253D01*
X0111908Y0173253D01*
X0111205Y0172550D01*
X0111205Y0171500D01*
X0109414Y0171500D01*
X0109199Y0171589D01*
X0108703Y0171589D01*
X0108703Y0172550D01*
X0108000Y0173253D01*
X0101888Y0173253D01*
X0101204Y0172569D01*
X0100520Y0173253D01*
X0099864Y0173253D01*
X0099864Y0176866D01*
X0102198Y0179200D01*
X0104394Y0179200D01*
X0104550Y0178824D01*
X0105928Y0177446D01*
X0107729Y0176700D01*
X0109679Y0176700D01*
X0111480Y0177446D01*
X0112858Y0178824D01*
X0113523Y0180430D01*
X0113534Y0180359D01*
X0113792Y0179566D01*
X0114171Y0178822D01*
X0114661Y0178147D01*
X0115251Y0177557D01*
X0115926Y0177067D01*
X0116669Y0176688D01*
X0117463Y0176430D01*
X0118287Y0176300D01*
X0118304Y0176300D01*
X0118304Y0181200D01*
X0119104Y0181200D01*
X0119104Y0176300D01*
X0119121Y0176300D01*
X0119945Y0176430D01*
X0120738Y0176688D01*
X0121482Y0177067D01*
X0122157Y0177557D01*
X0122747Y0178147D01*
X0123237Y0178822D01*
X0123616Y0179566D01*
X0123873Y0180359D01*
X0123885Y0180430D01*
X0124550Y0178824D01*
X0125928Y0177446D01*
X0127729Y0176700D01*
X0128558Y0176700D01*
X0131904Y0173354D01*
X0132958Y0172300D01*
X0159484Y0172300D01*
X0159794Y0171990D01*
X0160709Y0171611D01*
X0161699Y0171611D01*
X0162614Y0171990D01*
X0163314Y0172690D01*
X0163693Y0173605D01*
X0163693Y0174595D01*
X0163314Y0175510D01*
X0162614Y0176210D01*
X0161699Y0176589D01*
X0160709Y0176589D01*
X0159794Y0176210D01*
X0159484Y0175900D01*
X0134450Y0175900D01*
X0132192Y0178158D01*
X0132858Y0178824D01*
X0133604Y0180625D01*
X0133604Y0182575D01*
X0133200Y0183550D01*
X0135504Y0185854D01*
X0135504Y0187870D01*
X0135928Y0187446D01*
X0137729Y0186700D01*
X0139679Y0186700D01*
X0141480Y0187446D01*
X0141904Y0187870D01*
X0141904Y0187346D01*
X0140654Y0186096D01*
X0139679Y0186500D01*
X0137729Y0186500D01*
X0135928Y0185754D01*
X0134550Y0184376D01*
X0133804Y0182575D01*
X0133804Y0180625D01*
X0134550Y0178824D01*
X0135928Y0177446D01*
X0137729Y0176700D01*
X0139679Y0176700D01*
X0141480Y0177446D01*
X0142858Y0178824D01*
X0143604Y0180625D01*
X0143604Y0182575D01*
X0143200Y0183550D01*
X0145504Y0185854D01*
X0145504Y0187870D01*
X0145928Y0187446D01*
X0147729Y0186700D01*
X0149679Y0186700D01*
X0151480Y0187446D01*
X0151904Y0187870D01*
X0151904Y0187346D01*
X0150654Y0186096D01*
X0149679Y0186500D01*
X0147729Y0186500D01*
X0145928Y0185754D01*
X0144550Y0184376D01*
X0143804Y0182575D01*
X0143804Y0180625D01*
X0144550Y0178824D01*
X0145928Y0177446D01*
X0147729Y0176700D01*
X0149679Y0176700D01*
X0151480Y0177446D01*
X0152858Y0178824D01*
X0153604Y0180625D01*
X0153604Y0182575D01*
X0153200Y0183550D01*
X0155504Y0185854D01*
X0155504Y0207346D01*
X0154450Y0208400D01*
X0153200Y0209650D01*
X0153604Y0210625D01*
X0153604Y0212575D01*
X0152858Y0214376D01*
X0151480Y0215754D01*
X0149679Y0216500D01*
X0147729Y0216500D01*
X0145928Y0215754D01*
X0144550Y0214376D01*
X0143804Y0212575D01*
X0143804Y0210625D01*
X0144550Y0208824D01*
X0145928Y0207446D01*
X0147729Y0206700D01*
X0149679Y0206700D01*
X0150654Y0207104D01*
X0151904Y0205854D01*
X0151904Y0195330D01*
X0151480Y0195754D01*
X0149679Y0196500D01*
X0147729Y0196500D01*
X0145928Y0195754D01*
X0145504Y0195330D01*
X0145504Y0207346D01*
X0144450Y0208400D01*
X0143200Y0209650D01*
X0143604Y0210625D01*
X0143604Y0212575D01*
X0142858Y0214376D01*
X0141480Y0215754D01*
X0139679Y0216500D01*
X0137729Y0216500D01*
X0135928Y0215754D01*
X0134550Y0214376D01*
X0133804Y0212575D01*
X0133804Y0210625D01*
X0134550Y0208824D01*
X0135928Y0207446D01*
X0137729Y0206700D01*
X0139679Y0206700D01*
X0140654Y0207104D01*
X0141904Y0205854D01*
X0141904Y0195330D01*
X0141480Y0195754D01*
X0139679Y0196500D01*
X0137729Y0196500D01*
X0135928Y0195754D01*
X0135504Y0195330D01*
X0135504Y0207346D01*
X0134450Y0208400D01*
X0133200Y0209650D01*
X0133604Y0210625D01*
X0133604Y0212575D01*
X0132858Y0214376D01*
X0131480Y0215754D01*
X0129679Y0216500D01*
X0127729Y0216500D01*
X0125928Y0215754D01*
X0124550Y0214376D01*
X0123885Y0212770D01*
X0123873Y0212841D01*
X0123616Y0213634D01*
X0123237Y0214378D01*
X0122747Y0215053D01*
X0122157Y0215643D01*
X0121482Y0216133D01*
X0120738Y0216512D01*
X0119945Y0216769D01*
X0119874Y0216781D01*
X0121480Y0217446D01*
X0122858Y0218824D01*
X0123604Y0220625D01*
X0123604Y0222575D01*
X0122858Y0224376D01*
X0121480Y0225754D01*
X0119679Y0226500D01*
X0117729Y0226500D01*
X0115928Y0225754D01*
X0114550Y0224376D01*
X0113804Y0222575D01*
X0113804Y0220625D01*
X0114550Y0218824D01*
X0115928Y0217446D01*
X0117534Y0216781D01*
X0117463Y0216769D01*
X0116669Y0216512D01*
X0115926Y0216133D01*
X0115251Y0215643D01*
X0114661Y0215053D01*
X0114171Y0214378D01*
X0113792Y0213634D01*
X0113534Y0212841D01*
X0113523Y0212770D01*
X0112858Y0214376D01*
X0111480Y0215754D01*
X0109679Y0216500D01*
X0107729Y0216500D01*
X0105928Y0215754D01*
X0105686Y0215512D01*
X0103604Y0217594D01*
X0103604Y0229757D01*
X0103239Y0230639D01*
X0081695Y0252183D01*
X0081874Y0252615D01*
X0081874Y0254604D01*
X0081113Y0256442D01*
X0079864Y0257690D01*
X0080540Y0257014D02*
X0172775Y0257014D01*
X0173646Y0255816D02*
X0081372Y0255816D01*
X0081868Y0254617D02*
X0174516Y0254617D01*
X0175387Y0253419D02*
X0081874Y0253419D01*
X0081710Y0252220D02*
X0175999Y0252220D01*
X0176610Y0251022D02*
X0082856Y0251022D01*
X0084054Y0249823D02*
X0177221Y0249823D01*
X0177831Y0248625D02*
X0085253Y0248625D01*
X0086451Y0247426D02*
X0178442Y0247426D01*
X0179053Y0246228D02*
X0087650Y0246228D01*
X0088848Y0245029D02*
X0179464Y0245029D01*
X0179853Y0243831D02*
X0090047Y0243831D01*
X0091245Y0242632D02*
X0180243Y0242632D01*
X0180632Y0241434D02*
X0092444Y0241434D01*
X0093642Y0240235D02*
X0181022Y0240235D01*
X0181411Y0239037D02*
X0094841Y0239037D01*
X0096039Y0237838D02*
X0181721Y0237838D01*
X0181910Y0236640D02*
X0097238Y0236640D01*
X0098436Y0235441D02*
X0182100Y0235441D01*
X0182290Y0234243D02*
X0099635Y0234243D01*
X0100833Y0233044D02*
X0182480Y0233044D01*
X0182670Y0231846D02*
X0102032Y0231846D01*
X0103230Y0230647D02*
X0182860Y0230647D01*
X0182957Y0229449D02*
X0103604Y0229449D01*
X0103604Y0228250D02*
X0183004Y0228250D01*
X0183051Y0227052D02*
X0103604Y0227052D01*
X0103604Y0225853D02*
X0106168Y0225853D01*
X0105928Y0225754D02*
X0104550Y0224376D01*
X0103804Y0222575D01*
X0103804Y0220625D01*
X0104550Y0218824D01*
X0105928Y0217446D01*
X0107729Y0216700D01*
X0109679Y0216700D01*
X0111480Y0217446D01*
X0112858Y0218824D01*
X0113604Y0220625D01*
X0113604Y0222575D01*
X0112858Y0224376D01*
X0111480Y0225754D01*
X0109679Y0226500D01*
X0107729Y0226500D01*
X0105928Y0225754D01*
X0104829Y0224655D02*
X0103604Y0224655D01*
X0103604Y0223456D02*
X0104169Y0223456D01*
X0103804Y0222258D02*
X0103604Y0222258D01*
X0103604Y0221059D02*
X0103804Y0221059D01*
X0103604Y0219861D02*
X0104121Y0219861D01*
X0103604Y0218662D02*
X0104712Y0218662D01*
X0103735Y0217464D02*
X0105911Y0217464D01*
X0104933Y0216265D02*
X0107162Y0216265D01*
X0110246Y0216265D02*
X0116185Y0216265D01*
X0115911Y0217464D02*
X0111497Y0217464D01*
X0112696Y0218662D02*
X0114712Y0218662D01*
X0113804Y0219570D02*
X0113704Y0219470D01*
X0113704Y0216600D01*
X0118704Y0211600D01*
X0123704Y0206600D01*
X0123704Y0186600D01*
X0122696Y0185104D02*
X0125278Y0185104D01*
X0125928Y0185754D02*
X0124550Y0184376D01*
X0123885Y0182770D01*
X0123873Y0182841D01*
X0123616Y0183634D01*
X0123237Y0184378D01*
X0122747Y0185053D01*
X0122157Y0185643D01*
X0121482Y0186133D01*
X0120738Y0186512D01*
X0119945Y0186769D01*
X0119874Y0186781D01*
X0121480Y0187446D01*
X0122858Y0188824D01*
X0123604Y0190625D01*
X0123604Y0192575D01*
X0122858Y0194376D01*
X0121480Y0195754D01*
X0119679Y0196500D01*
X0117729Y0196500D01*
X0115928Y0195754D01*
X0114550Y0194376D01*
X0113804Y0192575D01*
X0113804Y0190625D01*
X0114550Y0188824D01*
X0115928Y0187446D01*
X0117534Y0186781D01*
X0117463Y0186769D01*
X0116669Y0186512D01*
X0115926Y0186133D01*
X0115251Y0185643D01*
X0114661Y0185053D01*
X0114171Y0184378D01*
X0113792Y0183634D01*
X0113534Y0182841D01*
X0113523Y0182770D01*
X0112858Y0184376D01*
X0111480Y0185754D01*
X0109679Y0186500D01*
X0107729Y0186500D01*
X0107354Y0186344D01*
X0106481Y0187217D01*
X0107729Y0186700D01*
X0109679Y0186700D01*
X0111480Y0187446D01*
X0112858Y0188824D01*
X0113604Y0190625D01*
X0113604Y0192575D01*
X0112858Y0194376D01*
X0111480Y0195754D01*
X0109679Y0196500D01*
X0107729Y0196500D01*
X0105928Y0195754D01*
X0104550Y0194376D01*
X0103804Y0192575D01*
X0103804Y0190625D01*
X0104321Y0189377D01*
X0103604Y0190094D01*
X0103604Y0203106D01*
X0107354Y0206856D01*
X0107729Y0206700D01*
X0109679Y0206700D01*
X0111480Y0207446D01*
X0112858Y0208824D01*
X0113523Y0210430D01*
X0113534Y0210359D01*
X0113792Y0209566D01*
X0114171Y0208822D01*
X0114661Y0208147D01*
X0115251Y0207557D01*
X0115926Y0207067D01*
X0116669Y0206688D01*
X0117463Y0206430D01*
X0118287Y0206300D01*
X0118304Y0206300D01*
X0118304Y0211200D01*
X0119104Y0211200D01*
X0119104Y0206300D01*
X0119121Y0206300D01*
X0119945Y0206430D01*
X0120738Y0206688D01*
X0121482Y0207067D01*
X0122157Y0207557D01*
X0122747Y0208147D01*
X0123237Y0208822D01*
X0123616Y0209566D01*
X0123873Y0210359D01*
X0123885Y0210430D01*
X0124550Y0208824D01*
X0125928Y0207446D01*
X0127729Y0206700D01*
X0129679Y0206700D01*
X0130654Y0207104D01*
X0131904Y0205854D01*
X0131904Y0195330D01*
X0131480Y0195754D01*
X0129679Y0196500D01*
X0127729Y0196500D01*
X0125928Y0195754D01*
X0124550Y0194376D01*
X0123804Y0192575D01*
X0123804Y0190625D01*
X0124550Y0188824D01*
X0125928Y0187446D01*
X0127729Y0186700D01*
X0129679Y0186700D01*
X0131480Y0187446D01*
X0131904Y0187870D01*
X0131904Y0187346D01*
X0130654Y0186096D01*
X0129679Y0186500D01*
X0127729Y0186500D01*
X0125928Y0185754D01*
X0127252Y0186302D02*
X0121150Y0186302D01*
X0121534Y0187501D02*
X0125874Y0187501D01*
X0124675Y0188699D02*
X0122733Y0188699D01*
X0123303Y0189898D02*
X0124105Y0189898D01*
X0123804Y0191096D02*
X0123604Y0191096D01*
X0123604Y0192295D02*
X0123804Y0192295D01*
X0124185Y0193493D02*
X0123223Y0193493D01*
X0122542Y0194692D02*
X0124866Y0194692D01*
X0126258Y0195890D02*
X0121150Y0195890D01*
X0116258Y0195890D02*
X0111150Y0195890D01*
X0112542Y0194692D02*
X0114866Y0194692D01*
X0114185Y0193493D02*
X0113223Y0193493D01*
X0113604Y0192295D02*
X0113804Y0192295D01*
X0113804Y0191096D02*
X0113604Y0191096D01*
X0113303Y0189898D02*
X0114105Y0189898D01*
X0114675Y0188699D02*
X0112733Y0188699D01*
X0111534Y0187501D02*
X0115874Y0187501D01*
X0116258Y0186302D02*
X0110156Y0186302D01*
X0112130Y0185104D02*
X0114712Y0185104D01*
X0113930Y0183905D02*
X0113053Y0183905D01*
X0113473Y0180310D02*
X0113550Y0180310D01*
X0114024Y0179111D02*
X0112977Y0179111D01*
X0111946Y0177913D02*
X0114896Y0177913D01*
X0116619Y0176714D02*
X0109713Y0176714D01*
X0107695Y0176714D02*
X0099864Y0176714D01*
X0099864Y0175516D02*
X0129743Y0175516D01*
X0130941Y0174317D02*
X0099864Y0174317D01*
X0100654Y0173119D02*
X0101754Y0173119D01*
X0100911Y0177913D02*
X0105462Y0177913D01*
X0104431Y0179111D02*
X0102109Y0179111D01*
X0098917Y0182707D02*
X0088604Y0182707D01*
X0088604Y0183905D02*
X0100498Y0183905D01*
X0101806Y0185104D02*
X0088604Y0185104D01*
X0088604Y0186302D02*
X0100608Y0186302D01*
X0099409Y0187501D02*
X0088604Y0187501D01*
X0088604Y0188699D02*
X0098804Y0188699D01*
X0098804Y0189898D02*
X0088604Y0189898D01*
X0088604Y0191096D02*
X0098804Y0191096D01*
X0098804Y0192295D02*
X0088604Y0192295D01*
X0088604Y0193493D02*
X0098804Y0193493D01*
X0098804Y0194692D02*
X0088604Y0194692D01*
X0088604Y0195890D02*
X0098804Y0195890D01*
X0098804Y0197089D02*
X0088604Y0197089D01*
X0088604Y0198287D02*
X0098804Y0198287D01*
X0098804Y0199486D02*
X0088604Y0199486D01*
X0088604Y0200684D02*
X0098804Y0200684D01*
X0098804Y0201883D02*
X0088604Y0201883D01*
X0088604Y0203081D02*
X0098804Y0203081D01*
X0098804Y0204280D02*
X0088604Y0204280D01*
X0088604Y0205478D02*
X0099188Y0205478D01*
X0100387Y0206677D02*
X0088604Y0206677D01*
X0088604Y0207875D02*
X0101585Y0207875D01*
X0102784Y0209074D02*
X0088604Y0209074D01*
X0088604Y0210272D02*
X0103950Y0210272D01*
X0102939Y0211471D02*
X0088604Y0211471D01*
X0088604Y0212670D02*
X0101740Y0212670D01*
X0100542Y0213868D02*
X0088604Y0213868D01*
X0088604Y0215067D02*
X0099343Y0215067D01*
X0098804Y0216265D02*
X0088604Y0216265D01*
X0088604Y0217464D02*
X0098804Y0217464D01*
X0098804Y0218662D02*
X0088604Y0218662D01*
X0088604Y0219861D02*
X0098804Y0219861D01*
X0098804Y0221059D02*
X0088604Y0221059D01*
X0088529Y0222258D02*
X0098804Y0222258D01*
X0098804Y0223456D02*
X0087742Y0223456D01*
X0086543Y0224655D02*
X0098804Y0224655D01*
X0098804Y0225853D02*
X0085345Y0225853D01*
X0084146Y0227052D02*
X0098804Y0227052D01*
X0098804Y0228250D02*
X0082948Y0228250D01*
X0081749Y0229449D02*
X0097641Y0229449D01*
X0096442Y0230647D02*
X0080551Y0230647D01*
X0079352Y0231846D02*
X0095244Y0231846D01*
X0094045Y0233044D02*
X0078154Y0233044D01*
X0076955Y0234243D02*
X0092847Y0234243D01*
X0091648Y0235441D02*
X0075757Y0235441D01*
X0074558Y0236640D02*
X0090450Y0236640D01*
X0089251Y0237838D02*
X0073360Y0237838D01*
X0071148Y0239037D02*
X0088053Y0239037D01*
X0086854Y0240235D02*
X0074516Y0240235D01*
X0075994Y0241434D02*
X0085656Y0241434D01*
X0084457Y0242632D02*
X0076754Y0242632D01*
X0076262Y0242632D02*
X0075512Y0242632D01*
X0074186Y0243831D02*
X0073436Y0243831D01*
X0071874Y0244949D02*
X0068704Y0248119D01*
X0068704Y0254100D01*
X0073704Y0259100D01*
X0076204Y0259100D01*
X0076204Y0264100D01*
X0078459Y0266355D01*
X0078579Y0266563D01*
X0078700Y0266596D01*
X0081204Y0269100D01*
X0083704Y0269100D01*
X0113704Y0239100D01*
X0113704Y0226600D01*
X0113804Y0226500D01*
X0113804Y0219570D01*
X0114121Y0219861D02*
X0113287Y0219861D01*
X0113604Y0221059D02*
X0113804Y0221059D01*
X0113804Y0222258D02*
X0113604Y0222258D01*
X0113239Y0223456D02*
X0114169Y0223456D01*
X0114829Y0224655D02*
X0112579Y0224655D01*
X0111240Y0225853D02*
X0116168Y0225853D01*
X0121240Y0225853D02*
X0126168Y0225853D01*
X0125928Y0225754D02*
X0124550Y0224376D01*
X0123804Y0222575D01*
X0123804Y0220625D01*
X0124550Y0218824D01*
X0125928Y0217446D01*
X0127729Y0216700D01*
X0129679Y0216700D01*
X0131480Y0217446D01*
X0132858Y0218824D01*
X0133604Y0220625D01*
X0133604Y0222575D01*
X0132858Y0224376D01*
X0131480Y0225754D01*
X0129679Y0226500D01*
X0127729Y0226500D01*
X0125928Y0225754D01*
X0124829Y0224655D02*
X0122579Y0224655D01*
X0123239Y0223456D02*
X0124169Y0223456D01*
X0123804Y0222258D02*
X0123604Y0222258D01*
X0123604Y0221059D02*
X0123804Y0221059D01*
X0124121Y0219861D02*
X0123287Y0219861D01*
X0122696Y0218662D02*
X0124712Y0218662D01*
X0125911Y0217464D02*
X0121497Y0217464D01*
X0121223Y0216265D02*
X0127162Y0216265D01*
X0125241Y0215067D02*
X0122733Y0215067D01*
X0123497Y0213868D02*
X0124340Y0213868D01*
X0123950Y0210272D02*
X0123845Y0210272D01*
X0123365Y0209074D02*
X0124447Y0209074D01*
X0125499Y0207875D02*
X0122475Y0207875D01*
X0120704Y0206677D02*
X0131081Y0206677D01*
X0131904Y0205478D02*
X0105977Y0205478D01*
X0107175Y0206677D02*
X0116704Y0206677D01*
X0118304Y0206677D02*
X0119104Y0206677D01*
X0119104Y0207875D02*
X0118304Y0207875D01*
X0118304Y0209074D02*
X0119104Y0209074D01*
X0119104Y0210272D02*
X0118304Y0210272D01*
X0114933Y0207875D02*
X0111909Y0207875D01*
X0112961Y0209074D02*
X0114043Y0209074D01*
X0113563Y0210272D02*
X0113458Y0210272D01*
X0113068Y0213868D02*
X0113911Y0213868D01*
X0114675Y0215067D02*
X0112167Y0215067D01*
X0104778Y0204280D02*
X0131904Y0204280D01*
X0131904Y0203081D02*
X0103604Y0203081D01*
X0103604Y0201883D02*
X0131904Y0201883D01*
X0131904Y0200684D02*
X0103604Y0200684D01*
X0103604Y0199486D02*
X0131904Y0199486D01*
X0131904Y0198287D02*
X0103604Y0198287D01*
X0103604Y0197089D02*
X0131904Y0197089D01*
X0131904Y0195890D02*
X0131150Y0195890D01*
X0135504Y0195890D02*
X0136258Y0195890D01*
X0135504Y0197089D02*
X0141904Y0197089D01*
X0141904Y0198287D02*
X0135504Y0198287D01*
X0135504Y0199486D02*
X0141904Y0199486D01*
X0141904Y0200684D02*
X0135504Y0200684D01*
X0135504Y0201883D02*
X0141904Y0201883D01*
X0141904Y0203081D02*
X0135504Y0203081D01*
X0135504Y0204280D02*
X0141904Y0204280D01*
X0141904Y0205478D02*
X0135504Y0205478D01*
X0135504Y0206677D02*
X0141081Y0206677D01*
X0143704Y0206600D02*
X0143704Y0186600D01*
X0138704Y0181600D01*
X0135278Y0185104D02*
X0134753Y0185104D01*
X0134355Y0183905D02*
X0133555Y0183905D01*
X0133549Y0182707D02*
X0133859Y0182707D01*
X0133804Y0181508D02*
X0133604Y0181508D01*
X0133473Y0180310D02*
X0133935Y0180310D01*
X0134431Y0179111D02*
X0132977Y0179111D01*
X0132437Y0177913D02*
X0135462Y0177913D01*
X0133635Y0176714D02*
X0137695Y0176714D01*
X0139713Y0176714D02*
X0147695Y0176714D01*
X0149713Y0176714D02*
X0183087Y0176714D01*
X0183087Y0175516D02*
X0163308Y0175516D01*
X0163693Y0174317D02*
X0183087Y0174317D01*
X0183087Y0173119D02*
X0163492Y0173119D01*
X0162445Y0171920D02*
X0183087Y0171920D01*
X0183087Y0170722D02*
X0133102Y0170722D01*
X0133693Y0169523D02*
X0183087Y0169523D01*
X0183087Y0168325D02*
X0133577Y0168325D01*
X0133004Y0167126D02*
X0183087Y0167126D01*
X0183087Y0165928D02*
X0133004Y0165928D01*
X0133004Y0164729D02*
X0183087Y0164729D01*
X0183087Y0163531D02*
X0133004Y0163531D01*
X0131982Y0162332D02*
X0183087Y0162332D01*
X0183087Y0161134D02*
X0130783Y0161134D01*
X0129585Y0159935D02*
X0183087Y0159935D01*
X0183087Y0158737D02*
X0128386Y0158737D01*
X0127188Y0157538D02*
X0183087Y0157538D01*
X0183087Y0156339D02*
X0104859Y0156339D01*
X0106057Y0155141D02*
X0183087Y0155141D01*
X0183087Y0153942D02*
X0126820Y0153942D01*
X0128454Y0152744D02*
X0183087Y0152744D01*
X0183087Y0151545D02*
X0129653Y0151545D01*
X0130882Y0150347D02*
X0183087Y0150347D01*
X0183087Y0149148D02*
X0131193Y0149148D01*
X0130922Y0147950D02*
X0183087Y0147950D01*
X0183087Y0146751D02*
X0129538Y0146751D01*
X0127870Y0146751D02*
X0101947Y0146751D01*
X0100748Y0147950D02*
X0126460Y0147950D01*
X0125261Y0149148D02*
X0099550Y0149148D01*
X0098351Y0150347D02*
X0104063Y0150347D01*
X0102864Y0151545D02*
X0097153Y0151545D01*
X0095954Y0152744D02*
X0101666Y0152744D01*
X0100467Y0153942D02*
X0094756Y0153942D01*
X0093557Y0155141D02*
X0099269Y0155141D01*
X0098070Y0156339D02*
X0092359Y0156339D01*
X0091160Y0157538D02*
X0096872Y0157538D01*
X0095673Y0158737D02*
X0089962Y0158737D01*
X0088763Y0159935D02*
X0095064Y0159935D01*
X0095064Y0161134D02*
X0088604Y0161134D01*
X0088604Y0162332D02*
X0095064Y0162332D01*
X0095064Y0163531D02*
X0088604Y0163531D01*
X0088604Y0164729D02*
X0095064Y0164729D01*
X0093705Y0165928D02*
X0088604Y0165928D01*
X0088604Y0167126D02*
X0093705Y0167126D01*
X0093705Y0168325D02*
X0088604Y0168325D01*
X0088604Y0169523D02*
X0093705Y0169523D01*
X0093705Y0170722D02*
X0088604Y0170722D01*
X0088604Y0171920D02*
X0093705Y0171920D01*
X0094274Y0173119D02*
X0088604Y0173119D01*
X0088604Y0174317D02*
X0095064Y0174317D01*
X0095064Y0175516D02*
X0088604Y0175516D01*
X0088604Y0176714D02*
X0095064Y0176714D01*
X0095064Y0177913D02*
X0088604Y0177913D01*
X0088604Y0179111D02*
X0095384Y0179111D01*
X0096520Y0180310D02*
X0088604Y0180310D01*
X0088604Y0181508D02*
X0097718Y0181508D01*
X0103800Y0189898D02*
X0104105Y0189898D01*
X0103804Y0191096D02*
X0103604Y0191096D01*
X0103604Y0192295D02*
X0103804Y0192295D01*
X0103604Y0193493D02*
X0104185Y0193493D01*
X0103604Y0194692D02*
X0104866Y0194692D01*
X0103604Y0195890D02*
X0106258Y0195890D01*
X0118304Y0180310D02*
X0119104Y0180310D01*
X0119104Y0179111D02*
X0118304Y0179111D01*
X0118304Y0177913D02*
X0119104Y0177913D01*
X0119104Y0176714D02*
X0118304Y0176714D01*
X0120789Y0176714D02*
X0127695Y0176714D01*
X0128704Y0179100D02*
X0133704Y0174100D01*
X0161204Y0174100D01*
X0159963Y0171920D02*
X0126603Y0171920D01*
X0126603Y0172263D02*
X0126494Y0172670D01*
X0126284Y0173035D01*
X0125986Y0173333D01*
X0125621Y0173544D01*
X0125214Y0173653D01*
X0123044Y0173653D01*
X0123044Y0169700D01*
X0126603Y0169700D01*
X0126603Y0172263D01*
X0126204Y0171600D02*
X0156204Y0171600D01*
X0158704Y0169100D01*
X0163704Y0169100D01*
X0154753Y0185104D02*
X0183087Y0185104D01*
X0183087Y0186302D02*
X0155504Y0186302D01*
X0155504Y0187501D02*
X0183087Y0187501D01*
X0183087Y0188699D02*
X0155504Y0188699D01*
X0155504Y0189898D02*
X0183087Y0189898D01*
X0183087Y0191096D02*
X0155504Y0191096D01*
X0155504Y0192295D02*
X0183087Y0192295D01*
X0183087Y0193493D02*
X0155504Y0193493D01*
X0155504Y0194692D02*
X0183087Y0194692D01*
X0183087Y0195890D02*
X0155504Y0195890D01*
X0155504Y0197089D02*
X0183087Y0197089D01*
X0183087Y0198287D02*
X0155504Y0198287D01*
X0155504Y0199486D02*
X0183087Y0199486D01*
X0183087Y0200684D02*
X0155504Y0200684D01*
X0155504Y0201883D02*
X0183087Y0201883D01*
X0183087Y0203081D02*
X0155504Y0203081D01*
X0155504Y0204280D02*
X0183087Y0204280D01*
X0183087Y0205478D02*
X0155504Y0205478D01*
X0155504Y0206677D02*
X0171714Y0206677D01*
X0168615Y0207875D02*
X0154974Y0207875D01*
X0153776Y0209074D02*
X0166946Y0209074D01*
X0165748Y0210272D02*
X0153458Y0210272D01*
X0153604Y0211471D02*
X0165003Y0211471D01*
X0164311Y0212670D02*
X0153565Y0212670D01*
X0153068Y0213868D02*
X0163980Y0213868D01*
X0163659Y0215067D02*
X0152167Y0215067D01*
X0150246Y0216265D02*
X0163604Y0216265D01*
X0163604Y0217464D02*
X0151497Y0217464D01*
X0151480Y0217446D02*
X0152858Y0218824D01*
X0153604Y0220625D01*
X0153604Y0222575D01*
X0152858Y0224376D01*
X0151480Y0225754D01*
X0149679Y0226500D01*
X0147729Y0226500D01*
X0145928Y0225754D01*
X0144550Y0224376D01*
X0143804Y0222575D01*
X0143804Y0220625D01*
X0144550Y0218824D01*
X0145928Y0217446D01*
X0147729Y0216700D01*
X0149679Y0216700D01*
X0151480Y0217446D01*
X0152696Y0218662D02*
X0163800Y0218662D01*
X0164121Y0219861D02*
X0153287Y0219861D01*
X0153604Y0221059D02*
X0164616Y0221059D01*
X0165308Y0222258D02*
X0153604Y0222258D01*
X0153239Y0223456D02*
X0166277Y0223456D01*
X0167475Y0224655D02*
X0152579Y0224655D01*
X0151240Y0225853D02*
X0169531Y0225853D01*
X0177877Y0225853D02*
X0183087Y0225853D01*
X0183087Y0224655D02*
X0179933Y0224655D01*
X0181131Y0223456D02*
X0183087Y0223456D01*
X0183087Y0222258D02*
X0182100Y0222258D01*
X0182792Y0221059D02*
X0183087Y0221059D01*
X0183087Y0211471D02*
X0182405Y0211471D01*
X0183087Y0210272D02*
X0181660Y0210272D01*
X0180462Y0209074D02*
X0183087Y0209074D01*
X0183087Y0207875D02*
X0178793Y0207875D01*
X0175694Y0206677D02*
X0183087Y0206677D01*
X0183087Y0183905D02*
X0153555Y0183905D01*
X0153549Y0182707D02*
X0183087Y0182707D01*
X0183087Y0181508D02*
X0153604Y0181508D01*
X0153473Y0180310D02*
X0183087Y0180310D01*
X0183087Y0179111D02*
X0152977Y0179111D01*
X0151946Y0177913D02*
X0183087Y0177913D01*
X0183087Y0145553D02*
X0153271Y0145553D01*
X0153693Y0144354D02*
X0183087Y0144354D01*
X0183087Y0143156D02*
X0153507Y0143156D01*
X0152535Y0141957D02*
X0183087Y0141957D01*
X0183087Y0140759D02*
X0133004Y0140759D01*
X0133004Y0141957D02*
X0149873Y0141957D01*
X0151204Y0144100D02*
X0131204Y0144100D01*
X0131204Y0119100D01*
X0131204Y0106600D01*
X0132464Y0106600D01*
X0131204Y0106600D02*
X0131204Y0097860D01*
X0131204Y0086600D01*
X0119944Y0086600D01*
X0123332Y0090421D02*
X0129404Y0090421D01*
X0129404Y0089223D02*
X0123703Y0089223D01*
X0123371Y0092818D02*
X0129037Y0092818D01*
X0128705Y0094017D02*
X0123703Y0094017D01*
X0119944Y0096600D02*
X0132464Y0096600D01*
X0132396Y0096602D01*
X0132328Y0096607D01*
X0132260Y0096617D01*
X0132193Y0096629D01*
X0132127Y0096646D01*
X0132062Y0096666D01*
X0131998Y0096689D01*
X0131935Y0096716D01*
X0131874Y0096747D01*
X0131814Y0096780D01*
X0131757Y0096817D01*
X0131701Y0096857D01*
X0131648Y0096900D01*
X0131597Y0096945D01*
X0131549Y0096993D01*
X0131504Y0097044D01*
X0131461Y0097097D01*
X0131421Y0097153D01*
X0131384Y0097210D01*
X0131351Y0097270D01*
X0131320Y0097331D01*
X0131293Y0097394D01*
X0131270Y0097458D01*
X0131250Y0097523D01*
X0131233Y0097589D01*
X0131221Y0097656D01*
X0131211Y0097724D01*
X0131206Y0097792D01*
X0131204Y0097860D01*
X0128705Y0098811D02*
X0123703Y0098811D01*
X0123703Y0100009D02*
X0128705Y0100009D01*
X0129404Y0101208D02*
X0087595Y0101208D01*
X0087406Y0101018D02*
X0089286Y0102898D01*
X0090616Y0105202D01*
X0091304Y0107770D01*
X0091304Y0110430D01*
X0090616Y0112998D01*
X0089286Y0115302D01*
X0087406Y0117182D01*
X0085102Y0118512D01*
X0082534Y0119200D01*
X0079874Y0119200D01*
X0077306Y0118512D01*
X0075002Y0117182D01*
X0073122Y0115302D01*
X0071792Y0112998D01*
X0071104Y0110430D01*
X0071104Y0107770D01*
X0071792Y0105202D01*
X0073122Y0102898D01*
X0075002Y0101018D01*
X0077306Y0099688D01*
X0079874Y0099000D01*
X0082534Y0099000D01*
X0085102Y0099688D01*
X0087406Y0101018D01*
X0088794Y0102406D02*
X0129404Y0102406D01*
X0128705Y0103605D02*
X0089694Y0103605D01*
X0090386Y0104803D02*
X0128705Y0104803D01*
X0128705Y0106002D02*
X0090830Y0106002D01*
X0091151Y0107201D02*
X0128705Y0107201D01*
X0128705Y0108399D02*
X0091304Y0108399D01*
X0091304Y0109598D02*
X0128705Y0109598D01*
X0129404Y0110796D02*
X0091206Y0110796D01*
X0090885Y0111995D02*
X0129404Y0111995D01*
X0129404Y0113193D02*
X0090503Y0113193D01*
X0089811Y0114392D02*
X0107494Y0114392D01*
X0107414Y0114530D02*
X0107624Y0114165D01*
X0107922Y0113867D01*
X0108287Y0113656D01*
X0108694Y0113547D01*
X0110864Y0113547D01*
X0110864Y0117500D01*
X0107305Y0117500D01*
X0107305Y0114937D01*
X0107414Y0114530D01*
X0107305Y0115590D02*
X0088997Y0115590D01*
X0087799Y0116789D02*
X0107305Y0116789D01*
X0107704Y0118100D02*
X0103704Y0114100D01*
X0076204Y0086600D01*
X0076204Y0041600D01*
X0083704Y0034100D01*
X0084104Y0034091D02*
X0093508Y0034091D01*
X0093508Y0032893D02*
X0088879Y0032893D01*
X0088873Y0032859D02*
X0089004Y0033683D01*
X0089004Y0033700D01*
X0084104Y0033700D01*
X0084104Y0028800D01*
X0084121Y0028800D01*
X0084945Y0028930D01*
X0085738Y0029188D01*
X0086482Y0029567D01*
X0087157Y0030057D01*
X0087747Y0030647D01*
X0088237Y0031322D01*
X0088616Y0032066D01*
X0088873Y0032859D01*
X0088427Y0031694D02*
X0093508Y0031694D01*
X0093508Y0030496D02*
X0087595Y0030496D01*
X0085952Y0029297D02*
X0093508Y0029297D01*
X0093508Y0028099D02*
X0047183Y0028099D01*
X0047183Y0029297D02*
X0081456Y0029297D01*
X0081669Y0029188D02*
X0082463Y0028930D01*
X0083287Y0028800D01*
X0083304Y0028800D01*
X0083304Y0033700D01*
X0078404Y0033700D01*
X0078404Y0033683D01*
X0078534Y0032859D01*
X0078792Y0032066D01*
X0079171Y0031322D01*
X0079661Y0030647D01*
X0080251Y0030057D01*
X0080926Y0029567D01*
X0081669Y0029188D01*
X0083304Y0029297D02*
X0084104Y0029297D01*
X0084104Y0030496D02*
X0083304Y0030496D01*
X0083304Y0031694D02*
X0084104Y0031694D01*
X0084104Y0032893D02*
X0083304Y0032893D01*
X0083304Y0034091D02*
X0047183Y0034091D01*
X0047183Y0032893D02*
X0078529Y0032893D01*
X0078981Y0031694D02*
X0047183Y0031694D01*
X0047183Y0030496D02*
X0079813Y0030496D01*
X0078526Y0035290D02*
X0047183Y0035290D01*
X0047183Y0036488D02*
X0078973Y0036488D01*
X0079796Y0037687D02*
X0047183Y0037687D01*
X0047183Y0038885D02*
X0081422Y0038885D01*
X0080790Y0040084D02*
X0047183Y0040084D01*
X0047183Y0041282D02*
X0079592Y0041282D01*
X0079071Y0042481D02*
X0047183Y0042481D01*
X0047183Y0043679D02*
X0078804Y0043679D01*
X0078804Y0044878D02*
X0047183Y0044878D01*
X0047183Y0046076D02*
X0079219Y0046076D01*
X0079949Y0047275D02*
X0047183Y0047275D01*
X0047183Y0048473D02*
X0081458Y0048473D01*
X0081590Y0049672D02*
X0047183Y0049672D01*
X0047183Y0050870D02*
X0080004Y0050870D01*
X0079242Y0052069D02*
X0047183Y0052069D01*
X0047183Y0053268D02*
X0078804Y0053268D01*
X0078804Y0054466D02*
X0047183Y0054466D01*
X0047183Y0055665D02*
X0079048Y0055665D01*
X0079545Y0056863D02*
X0047183Y0056863D01*
X0047183Y0058062D02*
X0080736Y0058062D01*
X0080928Y0059946D02*
X0082729Y0059200D01*
X0084679Y0059200D01*
X0086480Y0059946D01*
X0087858Y0061324D01*
X0088604Y0063125D01*
X0088604Y0065075D01*
X0087858Y0066876D01*
X0086480Y0068254D01*
X0084679Y0069000D01*
X0082729Y0069000D01*
X0080928Y0068254D01*
X0079550Y0066876D01*
X0078804Y0065075D01*
X0078804Y0063125D01*
X0079550Y0061324D01*
X0080928Y0059946D01*
X0080416Y0060459D02*
X0047183Y0060459D01*
X0047183Y0061657D02*
X0079412Y0061657D01*
X0078916Y0062856D02*
X0047183Y0062856D01*
X0047183Y0064054D02*
X0078804Y0064054D01*
X0078878Y0065253D02*
X0047183Y0065253D01*
X0047944Y0066451D02*
X0079374Y0066451D01*
X0080324Y0067650D02*
X0048950Y0067650D01*
X0049955Y0068848D02*
X0082363Y0068848D01*
X0082729Y0069200D02*
X0084679Y0069200D01*
X0086480Y0069946D01*
X0087858Y0071324D01*
X0088604Y0073125D01*
X0088604Y0075075D01*
X0087858Y0076876D01*
X0086480Y0078254D01*
X0084679Y0079000D01*
X0082729Y0079000D01*
X0080928Y0078254D01*
X0079550Y0076876D01*
X0078804Y0075075D01*
X0078804Y0073125D01*
X0079550Y0071324D01*
X0080928Y0069946D01*
X0082729Y0069200D01*
X0080828Y0070047D02*
X0050917Y0070047D01*
X0050744Y0069788D02*
X0050744Y0069788D01*
X0051721Y0071245D02*
X0079629Y0071245D01*
X0079086Y0072444D02*
X0052525Y0072444D01*
X0053329Y0073642D02*
X0078804Y0073642D01*
X0078804Y0074841D02*
X0054132Y0074841D01*
X0054936Y0076039D02*
X0079204Y0076039D01*
X0079912Y0077238D02*
X0055740Y0077238D01*
X0056544Y0078436D02*
X0081368Y0078436D01*
X0081680Y0079635D02*
X0057347Y0079635D01*
X0058091Y0080744D02*
X0058091Y0080744D01*
X0058138Y0080833D02*
X0080041Y0080833D01*
X0079550Y0081324D02*
X0080928Y0079946D01*
X0082729Y0079200D01*
X0084679Y0079200D01*
X0086480Y0079946D01*
X0087858Y0081324D01*
X0088604Y0083125D01*
X0088604Y0085075D01*
X0087858Y0086876D01*
X0086480Y0088254D01*
X0084679Y0089000D01*
X0082729Y0089000D01*
X0080928Y0088254D01*
X0079550Y0086876D01*
X0078804Y0085075D01*
X0078804Y0083125D01*
X0079550Y0081324D01*
X0079257Y0082032D02*
X0058767Y0082032D01*
X0059396Y0083230D02*
X0078804Y0083230D01*
X0078804Y0084429D02*
X0060025Y0084429D01*
X0060654Y0085627D02*
X0079033Y0085627D01*
X0079529Y0086826D02*
X0061283Y0086826D01*
X0061912Y0088024D02*
X0080699Y0088024D01*
X0086709Y0088024D02*
X0104734Y0088024D01*
X0103989Y0089223D02*
X0062541Y0089223D01*
X0063170Y0090421D02*
X0103715Y0090421D01*
X0104024Y0091620D02*
X0063799Y0091620D01*
X0064221Y0092424D02*
X0064221Y0092424D01*
X0064377Y0092818D02*
X0105588Y0092818D01*
X0106820Y0092818D02*
X0109037Y0092818D01*
X0108705Y0094017D02*
X0064850Y0094017D01*
X0065323Y0095215D02*
X0108705Y0095215D01*
X0108705Y0096414D02*
X0107884Y0096414D01*
X0106204Y0098254D02*
X0110810Y0098254D01*
X0112464Y0096600D01*
X0115891Y0092818D02*
X0116517Y0092818D01*
X0116557Y0090421D02*
X0115851Y0090421D01*
X0112464Y0086600D02*
X0108704Y0086600D01*
X0106204Y0089100D01*
X0106204Y0090380D01*
X0108384Y0091620D02*
X0129404Y0091620D01*
X0133004Y0091620D02*
X0183087Y0091620D01*
X0183087Y0092818D02*
X0143371Y0092818D01*
X0143703Y0094017D02*
X0183087Y0094017D01*
X0183087Y0095215D02*
X0148324Y0095215D01*
X0148693Y0096414D02*
X0183087Y0096414D01*
X0183087Y0097612D02*
X0148479Y0097612D01*
X0147370Y0098811D02*
X0183087Y0098811D01*
X0183087Y0100009D02*
X0143703Y0100009D01*
X0143703Y0098811D02*
X0145038Y0098811D01*
X0146204Y0096600D02*
X0139944Y0096600D01*
X0136517Y0092818D02*
X0135891Y0092818D01*
X0133004Y0090421D02*
X0183087Y0090421D01*
X0183087Y0089223D02*
X0133004Y0089223D01*
X0133004Y0088024D02*
X0183087Y0088024D01*
X0183087Y0086826D02*
X0133004Y0086826D01*
X0133004Y0085627D02*
X0183087Y0085627D01*
X0183087Y0084429D02*
X0133004Y0084429D01*
X0133004Y0083230D02*
X0183087Y0083230D01*
X0183087Y0082032D02*
X0133004Y0082032D01*
X0133004Y0080833D02*
X0183087Y0080833D01*
X0183087Y0079635D02*
X0133004Y0079635D01*
X0133004Y0078436D02*
X0183087Y0078436D01*
X0183087Y0077238D02*
X0143703Y0077238D01*
X0143703Y0076039D02*
X0144623Y0076039D01*
X0146204Y0074100D02*
X0139944Y0074100D01*
X0143703Y0071245D02*
X0162223Y0071245D01*
X0161792Y0070498D02*
X0161104Y0067930D01*
X0161104Y0065270D01*
X0161792Y0062702D01*
X0163122Y0060398D01*
X0165002Y0058518D01*
X0167306Y0057188D01*
X0169874Y0056500D01*
X0172534Y0056500D01*
X0175102Y0057188D01*
X0177406Y0058518D01*
X0179286Y0060398D01*
X0180616Y0062702D01*
X0181304Y0065270D01*
X0181304Y0067930D01*
X0180616Y0070498D01*
X0179286Y0072802D01*
X0177406Y0074682D01*
X0175102Y0076012D01*
X0172534Y0076700D01*
X0169874Y0076700D01*
X0167306Y0076012D01*
X0165002Y0074682D01*
X0163122Y0072802D01*
X0161792Y0070498D01*
X0161671Y0070047D02*
X0143100Y0070047D01*
X0143603Y0067650D02*
X0161104Y0067650D01*
X0161104Y0066451D02*
X0147032Y0066451D01*
X0145376Y0066451D02*
X0143703Y0066451D01*
X0146204Y0064100D02*
X0139944Y0064100D01*
X0139944Y0060340D01*
X0136204Y0056600D01*
X0096204Y0056600D01*
X0083704Y0044100D01*
X0086618Y0040084D02*
X0093508Y0040084D01*
X0093508Y0041282D02*
X0087816Y0041282D01*
X0088337Y0042481D02*
X0093508Y0042481D01*
X0093508Y0043679D02*
X0088604Y0043679D01*
X0088604Y0044878D02*
X0093508Y0044878D01*
X0093508Y0046076D02*
X0088226Y0046076D01*
X0089425Y0047275D02*
X0093508Y0047275D01*
X0093508Y0048473D02*
X0090623Y0048473D01*
X0091822Y0049672D02*
X0093508Y0049672D01*
X0093508Y0050870D02*
X0093020Y0050870D01*
X0090326Y0053268D02*
X0088604Y0053268D01*
X0088604Y0054466D02*
X0091524Y0054466D01*
X0092723Y0055665D02*
X0088360Y0055665D01*
X0089013Y0056863D02*
X0093921Y0056863D01*
X0088704Y0059100D02*
X0118704Y0059100D01*
X0121204Y0061600D01*
X0121204Y0064100D01*
X0132464Y0064100D01*
X0132464Y0074100D01*
X0119944Y0074100D01*
X0123703Y0076039D02*
X0128705Y0076039D01*
X0128705Y0077238D02*
X0123703Y0077238D01*
X0129404Y0078436D02*
X0110673Y0078436D01*
X0109475Y0079635D02*
X0129404Y0079635D01*
X0129404Y0080833D02*
X0108276Y0080833D01*
X0108693Y0082032D02*
X0129404Y0082032D01*
X0129404Y0083230D02*
X0123703Y0083230D01*
X0123703Y0084429D02*
X0129404Y0084429D01*
X0131204Y0086600D02*
X0131204Y0074100D01*
X0132464Y0074100D01*
X0135619Y0070047D02*
X0136789Y0070047D01*
X0136285Y0067650D02*
X0136123Y0067650D01*
X0134264Y0068848D02*
X0161350Y0068848D01*
X0161109Y0065253D02*
X0148421Y0065253D01*
X0148693Y0064054D02*
X0161430Y0064054D01*
X0161751Y0062856D02*
X0148383Y0062856D01*
X0146810Y0061657D02*
X0162395Y0061657D01*
X0163087Y0060459D02*
X0143512Y0060459D01*
X0143703Y0061657D02*
X0145598Y0061657D01*
X0141410Y0059260D02*
X0164260Y0059260D01*
X0165793Y0058062D02*
X0140211Y0058062D01*
X0139013Y0056863D02*
X0168519Y0056863D01*
X0173889Y0056863D02*
X0182934Y0056863D01*
X0182981Y0058062D02*
X0176615Y0058062D01*
X0178148Y0059260D02*
X0183028Y0059260D01*
X0183075Y0060459D02*
X0179321Y0060459D01*
X0180013Y0061657D02*
X0183087Y0061657D01*
X0183087Y0062856D02*
X0180657Y0062856D01*
X0180978Y0064054D02*
X0183087Y0064054D01*
X0183087Y0065253D02*
X0181299Y0065253D01*
X0181304Y0066451D02*
X0183087Y0066451D01*
X0183087Y0067650D02*
X0181304Y0067650D01*
X0181058Y0068848D02*
X0183087Y0068848D01*
X0183087Y0070047D02*
X0180737Y0070047D01*
X0180185Y0071245D02*
X0183087Y0071245D01*
X0183087Y0072444D02*
X0179493Y0072444D01*
X0178445Y0073642D02*
X0183087Y0073642D01*
X0183087Y0074841D02*
X0177131Y0074841D01*
X0175000Y0076039D02*
X0183087Y0076039D01*
X0182766Y0055665D02*
X0137814Y0055665D01*
X0148068Y0072444D02*
X0162915Y0072444D01*
X0163963Y0073642D02*
X0148693Y0073642D01*
X0148591Y0074841D02*
X0165277Y0074841D01*
X0167408Y0076039D02*
X0147785Y0076039D01*
X0143703Y0103605D02*
X0183087Y0103605D01*
X0183087Y0104803D02*
X0147927Y0104803D01*
X0148650Y0106002D02*
X0183087Y0106002D01*
X0183087Y0107201D02*
X0148649Y0107201D01*
X0147925Y0108399D02*
X0183087Y0108399D01*
X0183087Y0109598D02*
X0143703Y0109598D01*
X0146204Y0106600D02*
X0139944Y0106600D01*
X0133004Y0102406D02*
X0183087Y0102406D01*
X0183087Y0101208D02*
X0133004Y0101208D01*
X0133004Y0110796D02*
X0183087Y0110796D01*
X0183087Y0111995D02*
X0133004Y0111995D01*
X0133004Y0113193D02*
X0183087Y0113193D01*
X0183087Y0114392D02*
X0133004Y0114392D01*
X0133004Y0115590D02*
X0183087Y0115590D01*
X0183087Y0116789D02*
X0133004Y0116789D01*
X0133437Y0117987D02*
X0183087Y0117987D01*
X0183087Y0119186D02*
X0133693Y0119186D01*
X0133366Y0120384D02*
X0183087Y0120384D01*
X0183087Y0121583D02*
X0133004Y0121583D01*
X0133004Y0122781D02*
X0183087Y0122781D01*
X0183087Y0123980D02*
X0133004Y0123980D01*
X0133004Y0125178D02*
X0183087Y0125178D01*
X0183087Y0126377D02*
X0133004Y0126377D01*
X0133004Y0127575D02*
X0183087Y0127575D01*
X0183087Y0128774D02*
X0133004Y0128774D01*
X0133004Y0129972D02*
X0183087Y0129972D01*
X0183087Y0131171D02*
X0133004Y0131171D01*
X0133004Y0132369D02*
X0183087Y0132369D01*
X0183087Y0133568D02*
X0133004Y0133568D01*
X0133004Y0134766D02*
X0183087Y0134766D01*
X0183087Y0135965D02*
X0133004Y0135965D01*
X0133004Y0137163D02*
X0183087Y0137163D01*
X0183087Y0138362D02*
X0133004Y0138362D01*
X0133004Y0139560D02*
X0183087Y0139560D01*
X0148704Y0181600D02*
X0153704Y0186600D01*
X0153704Y0206600D01*
X0148704Y0211600D01*
X0147162Y0216265D02*
X0140246Y0216265D01*
X0139679Y0216700D02*
X0137729Y0216700D01*
X0135928Y0217446D01*
X0134550Y0218824D01*
X0133804Y0220625D01*
X0133804Y0222575D01*
X0134550Y0224376D01*
X0135928Y0225754D01*
X0137729Y0226500D01*
X0139679Y0226500D01*
X0141480Y0225754D01*
X0142858Y0224376D01*
X0143604Y0222575D01*
X0143604Y0220625D01*
X0142858Y0218824D01*
X0141480Y0217446D01*
X0139679Y0216700D01*
X0141497Y0217464D02*
X0145911Y0217464D01*
X0144712Y0218662D02*
X0142696Y0218662D01*
X0143287Y0219861D02*
X0144121Y0219861D01*
X0143804Y0221059D02*
X0143604Y0221059D01*
X0143604Y0222258D02*
X0143804Y0222258D01*
X0144169Y0223456D02*
X0143239Y0223456D01*
X0142579Y0224655D02*
X0144829Y0224655D01*
X0146168Y0225853D02*
X0141240Y0225853D01*
X0136168Y0225853D02*
X0131240Y0225853D01*
X0132579Y0224655D02*
X0134829Y0224655D01*
X0134169Y0223456D02*
X0133239Y0223456D01*
X0133604Y0222258D02*
X0133804Y0222258D01*
X0133804Y0221059D02*
X0133604Y0221059D01*
X0133287Y0219861D02*
X0134121Y0219861D01*
X0134712Y0218662D02*
X0132696Y0218662D01*
X0131497Y0217464D02*
X0135911Y0217464D01*
X0137162Y0216265D02*
X0130246Y0216265D01*
X0132167Y0215067D02*
X0135241Y0215067D01*
X0134340Y0213868D02*
X0133068Y0213868D01*
X0133565Y0212670D02*
X0133843Y0212670D01*
X0133804Y0211471D02*
X0133604Y0211471D01*
X0133458Y0210272D02*
X0133950Y0210272D01*
X0133776Y0209074D02*
X0134447Y0209074D01*
X0134974Y0207875D02*
X0135499Y0207875D01*
X0133704Y0206600D02*
X0133704Y0186600D01*
X0128704Y0181600D01*
X0128704Y0179100D01*
X0125462Y0177913D02*
X0122512Y0177913D01*
X0123384Y0179111D02*
X0124431Y0179111D01*
X0123935Y0180310D02*
X0123857Y0180310D01*
X0123478Y0183905D02*
X0124355Y0183905D01*
X0130156Y0186302D02*
X0130861Y0186302D01*
X0131534Y0187501D02*
X0131904Y0187501D01*
X0135504Y0187501D02*
X0135874Y0187501D01*
X0135504Y0186302D02*
X0137252Y0186302D01*
X0140156Y0186302D02*
X0140861Y0186302D01*
X0141534Y0187501D02*
X0141904Y0187501D01*
X0143555Y0183905D02*
X0144355Y0183905D01*
X0144753Y0185104D02*
X0145278Y0185104D01*
X0145504Y0186302D02*
X0147252Y0186302D01*
X0145874Y0187501D02*
X0145504Y0187501D01*
X0150156Y0186302D02*
X0150861Y0186302D01*
X0151534Y0187501D02*
X0151904Y0187501D01*
X0151904Y0195890D02*
X0151150Y0195890D01*
X0151904Y0197089D02*
X0145504Y0197089D01*
X0145504Y0198287D02*
X0151904Y0198287D01*
X0151904Y0199486D02*
X0145504Y0199486D01*
X0145504Y0200684D02*
X0151904Y0200684D01*
X0151904Y0201883D02*
X0145504Y0201883D01*
X0145504Y0203081D02*
X0151904Y0203081D01*
X0151904Y0204280D02*
X0145504Y0204280D01*
X0145504Y0205478D02*
X0151904Y0205478D01*
X0151081Y0206677D02*
X0145504Y0206677D01*
X0145499Y0207875D02*
X0144974Y0207875D01*
X0144447Y0209074D02*
X0143776Y0209074D01*
X0143950Y0210272D02*
X0143458Y0210272D01*
X0143604Y0211471D02*
X0143804Y0211471D01*
X0143843Y0212670D02*
X0143565Y0212670D01*
X0143068Y0213868D02*
X0144340Y0213868D01*
X0145241Y0215067D02*
X0142167Y0215067D01*
X0138704Y0211600D02*
X0143704Y0206600D01*
X0145504Y0195890D02*
X0146258Y0195890D01*
X0141904Y0195890D02*
X0141150Y0195890D01*
X0133704Y0206600D02*
X0128704Y0211600D01*
X0143549Y0182707D02*
X0143859Y0182707D01*
X0143804Y0181508D02*
X0143604Y0181508D01*
X0143473Y0180310D02*
X0143935Y0180310D01*
X0144431Y0179111D02*
X0142977Y0179111D01*
X0141946Y0177913D02*
X0145462Y0177913D01*
X0132140Y0173119D02*
X0126200Y0173119D01*
X0126204Y0171600D02*
X0123704Y0169100D01*
X0122444Y0169100D01*
X0123044Y0169523D02*
X0128715Y0169523D01*
X0128831Y0168325D02*
X0126603Y0168325D01*
X0126603Y0167126D02*
X0129404Y0167126D01*
X0129404Y0165928D02*
X0126601Y0165928D01*
X0125747Y0164729D02*
X0129287Y0164729D01*
X0128089Y0163531D02*
X0116819Y0163531D01*
X0116764Y0164729D02*
X0119141Y0164729D01*
X0118018Y0162332D02*
X0126890Y0162332D01*
X0125692Y0161134D02*
X0119216Y0161134D01*
X0118704Y0159100D02*
X0114964Y0162840D01*
X0114964Y0169100D01*
X0111205Y0171920D02*
X0108703Y0171920D01*
X0108134Y0173119D02*
X0111774Y0173119D01*
X0111205Y0165928D02*
X0108703Y0165928D01*
X0113164Y0164729D02*
X0099864Y0164729D01*
X0099864Y0163531D02*
X0113164Y0163531D01*
X0113164Y0162332D02*
X0099864Y0162332D01*
X0100065Y0161134D02*
X0114125Y0161134D01*
X0115323Y0159935D02*
X0101263Y0159935D01*
X0102462Y0158737D02*
X0116522Y0158737D01*
X0117720Y0157538D02*
X0103660Y0157538D01*
X0095158Y0146751D02*
X0075218Y0146751D01*
X0075282Y0145553D02*
X0096357Y0145553D01*
X0097555Y0144354D02*
X0075347Y0144354D01*
X0075387Y0143603D02*
X0075387Y0143603D01*
X0075363Y0143156D02*
X0098754Y0143156D01*
X0100105Y0141957D02*
X0075299Y0141957D01*
X0075234Y0140759D02*
X0129404Y0140759D01*
X0129404Y0139560D02*
X0075170Y0139560D01*
X0075105Y0138362D02*
X0129404Y0138362D01*
X0129404Y0137163D02*
X0075041Y0137163D01*
X0074977Y0135965D02*
X0129404Y0135965D01*
X0129404Y0134766D02*
X0074912Y0134766D01*
X0074848Y0133568D02*
X0129404Y0133568D01*
X0129404Y0132369D02*
X0074783Y0132369D01*
X0074719Y0131171D02*
X0129404Y0131171D01*
X0129404Y0129972D02*
X0074605Y0129972D01*
X0074410Y0128774D02*
X0129404Y0128774D01*
X0129404Y0127575D02*
X0074215Y0127575D01*
X0074020Y0126377D02*
X0129404Y0126377D01*
X0129404Y0125178D02*
X0073825Y0125178D01*
X0073631Y0123980D02*
X0129404Y0123980D01*
X0129404Y0122781D02*
X0073436Y0122781D01*
X0073241Y0121583D02*
X0107390Y0121583D01*
X0107305Y0120384D02*
X0073046Y0120384D01*
X0072852Y0119186D02*
X0079821Y0119186D01*
X0076397Y0117987D02*
X0072657Y0117987D01*
X0072392Y0116789D02*
X0074609Y0116789D01*
X0073411Y0115590D02*
X0072062Y0115590D01*
X0071732Y0114392D02*
X0072597Y0114392D01*
X0071905Y0113193D02*
X0071403Y0113193D01*
X0071523Y0111995D02*
X0071073Y0111995D01*
X0071202Y0110796D02*
X0070743Y0110796D01*
X0070413Y0109598D02*
X0071104Y0109598D01*
X0071104Y0108399D02*
X0070083Y0108399D01*
X0069754Y0107201D02*
X0071257Y0107201D01*
X0071578Y0106002D02*
X0069424Y0106002D01*
X0069094Y0104803D02*
X0072022Y0104803D01*
X0072714Y0103605D02*
X0068634Y0103605D01*
X0069064Y0104693D02*
X0069064Y0104693D01*
X0068161Y0102406D02*
X0073614Y0102406D01*
X0074812Y0101208D02*
X0067688Y0101208D01*
X0067215Y0100009D02*
X0076749Y0100009D01*
X0085659Y0100009D02*
X0104440Y0100009D01*
X0103741Y0098811D02*
X0066742Y0098811D01*
X0066269Y0097612D02*
X0103775Y0097612D01*
X0104524Y0096414D02*
X0065796Y0096414D01*
X0082587Y0119186D02*
X0107305Y0119186D01*
X0107704Y0118100D02*
X0108704Y0118100D01*
X0108704Y0136600D01*
X0110864Y0121583D02*
X0112064Y0121583D01*
X0112064Y0120384D02*
X0110864Y0120384D01*
X0110864Y0119186D02*
X0112064Y0119186D01*
X0111464Y0118100D02*
X0108704Y0118100D01*
X0110864Y0117987D02*
X0086011Y0117987D01*
X0093960Y0147950D02*
X0075154Y0147950D01*
X0075089Y0149148D02*
X0092761Y0149148D01*
X0091563Y0150347D02*
X0075025Y0150347D01*
X0074960Y0151545D02*
X0090364Y0151545D01*
X0089166Y0152744D02*
X0074896Y0152744D01*
X0074831Y0153942D02*
X0087967Y0153942D01*
X0086769Y0155141D02*
X0074767Y0155141D01*
X0074703Y0156339D02*
X0085570Y0156339D01*
X0084372Y0157538D02*
X0074555Y0157538D01*
X0074360Y0158737D02*
X0083804Y0158737D01*
X0083804Y0159935D02*
X0074166Y0159935D01*
X0073971Y0161134D02*
X0083804Y0161134D01*
X0083804Y0162332D02*
X0073776Y0162332D01*
X0073581Y0163531D02*
X0083804Y0163531D01*
X0083804Y0164729D02*
X0073386Y0164729D01*
X0073192Y0165928D02*
X0083804Y0165928D01*
X0083804Y0167126D02*
X0072997Y0167126D01*
X0072802Y0168325D02*
X0083804Y0168325D01*
X0083804Y0169523D02*
X0072607Y0169523D01*
X0072308Y0170722D02*
X0083804Y0170722D01*
X0083804Y0171920D02*
X0071978Y0171920D01*
X0071649Y0173119D02*
X0083804Y0173119D01*
X0083804Y0174317D02*
X0071319Y0174317D01*
X0070989Y0175516D02*
X0083804Y0175516D01*
X0083804Y0176714D02*
X0070659Y0176714D01*
X0070330Y0177913D02*
X0083804Y0177913D01*
X0083804Y0179111D02*
X0070000Y0179111D01*
X0069670Y0180310D02*
X0083804Y0180310D01*
X0083804Y0181508D02*
X0069340Y0181508D01*
X0068987Y0182707D02*
X0083804Y0182707D01*
X0083804Y0183905D02*
X0068514Y0183905D01*
X0068041Y0185104D02*
X0083804Y0185104D01*
X0083804Y0186302D02*
X0067568Y0186302D01*
X0067095Y0187501D02*
X0083804Y0187501D01*
X0083804Y0188699D02*
X0066622Y0188699D01*
X0066149Y0189898D02*
X0083804Y0189898D01*
X0083804Y0191096D02*
X0065676Y0191096D01*
X0065203Y0192295D02*
X0083804Y0192295D01*
X0083804Y0193493D02*
X0064730Y0193493D01*
X0064257Y0194692D02*
X0083804Y0194692D01*
X0083804Y0195890D02*
X0063640Y0195890D01*
X0063011Y0197089D02*
X0083804Y0197089D01*
X0083804Y0198287D02*
X0062382Y0198287D01*
X0061753Y0199486D02*
X0065561Y0199486D01*
X0064806Y0199688D02*
X0067374Y0199000D01*
X0070034Y0199000D01*
X0072602Y0199688D01*
X0074906Y0201018D01*
X0076786Y0202898D01*
X0078116Y0205202D01*
X0078804Y0207770D01*
X0078804Y0210430D01*
X0078116Y0212998D01*
X0076786Y0215302D01*
X0074906Y0217182D01*
X0072602Y0218512D01*
X0070034Y0219200D01*
X0067374Y0219200D01*
X0064806Y0218512D01*
X0062502Y0217182D01*
X0060622Y0215302D01*
X0059292Y0212998D01*
X0058604Y0210430D01*
X0058604Y0207770D01*
X0059292Y0205202D01*
X0060622Y0202898D01*
X0062502Y0201018D01*
X0064806Y0199688D01*
X0063080Y0200684D02*
X0061124Y0200684D01*
X0061638Y0201883D02*
X0060495Y0201883D01*
X0060516Y0203081D02*
X0059865Y0203081D01*
X0059824Y0204280D02*
X0059236Y0204280D01*
X0059218Y0205478D02*
X0058607Y0205478D01*
X0058897Y0206677D02*
X0057947Y0206677D01*
X0058604Y0207875D02*
X0057143Y0207875D01*
X0056340Y0209074D02*
X0058604Y0209074D01*
X0058604Y0210272D02*
X0055536Y0210272D01*
X0054732Y0211471D02*
X0058883Y0211471D01*
X0059204Y0212670D02*
X0053928Y0212670D01*
X0053125Y0213868D02*
X0059794Y0213868D01*
X0060486Y0215067D02*
X0052321Y0215067D01*
X0051517Y0216265D02*
X0061585Y0216265D01*
X0062990Y0217464D02*
X0050706Y0217464D01*
X0049700Y0218662D02*
X0065367Y0218662D01*
X0072041Y0218662D02*
X0083804Y0218662D01*
X0083804Y0217464D02*
X0074418Y0217464D01*
X0075822Y0216265D02*
X0083804Y0216265D01*
X0083804Y0215067D02*
X0076922Y0215067D01*
X0077614Y0213868D02*
X0083804Y0213868D01*
X0083804Y0212670D02*
X0078204Y0212670D01*
X0078525Y0211471D02*
X0083804Y0211471D01*
X0083804Y0210272D02*
X0078804Y0210272D01*
X0078804Y0209074D02*
X0083804Y0209074D01*
X0083804Y0207875D02*
X0078804Y0207875D01*
X0078511Y0206677D02*
X0083804Y0206677D01*
X0083804Y0205478D02*
X0078190Y0205478D01*
X0077584Y0204280D02*
X0083804Y0204280D01*
X0083804Y0203081D02*
X0076892Y0203081D01*
X0075770Y0201883D02*
X0083804Y0201883D01*
X0083804Y0200684D02*
X0074328Y0200684D01*
X0071847Y0199486D02*
X0083804Y0199486D01*
X0083804Y0219861D02*
X0048694Y0219861D01*
X0047689Y0221059D02*
X0083351Y0221059D01*
X0082152Y0222258D02*
X0047183Y0222258D01*
X0047183Y0223456D02*
X0080954Y0223456D01*
X0079755Y0224655D02*
X0047183Y0224655D01*
X0047183Y0225853D02*
X0078557Y0225853D01*
X0077358Y0227052D02*
X0047183Y0227052D01*
X0047183Y0228250D02*
X0076160Y0228250D01*
X0074961Y0229449D02*
X0047183Y0229449D01*
X0047183Y0230647D02*
X0073763Y0230647D01*
X0072564Y0231846D02*
X0069212Y0231846D01*
X0070700Y0233044D02*
X0071366Y0233044D01*
X0067753Y0241434D02*
X0047183Y0241434D01*
X0047183Y0242632D02*
X0066994Y0242632D01*
X0066584Y0243831D02*
X0047183Y0243831D01*
X0047183Y0245029D02*
X0066474Y0245029D01*
X0066611Y0246228D02*
X0047183Y0246228D01*
X0047183Y0247426D02*
X0067075Y0247426D01*
X0067209Y0247426D02*
X0067958Y0247426D01*
X0067913Y0248625D02*
X0047183Y0248625D01*
X0047183Y0249823D02*
X0069545Y0249823D01*
X0072037Y0252220D02*
X0047183Y0252220D01*
X0047183Y0251022D02*
X0072534Y0251022D01*
X0071874Y0253419D02*
X0047183Y0253419D01*
X0047183Y0254617D02*
X0071879Y0254617D01*
X0072376Y0255816D02*
X0047183Y0255816D01*
X0047183Y0257014D02*
X0073208Y0257014D01*
X0074922Y0258213D02*
X0047183Y0258213D01*
X0047183Y0259411D02*
X0077661Y0259411D01*
X0077149Y0260610D02*
X0047183Y0260610D01*
X0047183Y0261808D02*
X0076874Y0261808D01*
X0076874Y0263007D02*
X0047183Y0263007D01*
X0047183Y0264205D02*
X0077264Y0264205D01*
X0077937Y0265404D02*
X0047183Y0265404D01*
X0047183Y0266603D02*
X0079268Y0266603D01*
X0084480Y0266603D02*
X0163725Y0266603D01*
X0165213Y0265404D02*
X0085811Y0265404D01*
X0086484Y0264205D02*
X0166411Y0264205D01*
X0167610Y0263007D02*
X0086874Y0263007D01*
X0086874Y0261808D02*
X0168808Y0261808D01*
X0170007Y0260610D02*
X0086598Y0260610D01*
X0086087Y0259411D02*
X0171033Y0259411D01*
X0171904Y0258213D02*
X0084888Y0258213D01*
X0078860Y0258213D02*
X0078826Y0258213D01*
X0078464Y0248625D02*
X0077905Y0248625D01*
X0076672Y0247426D02*
X0079663Y0247426D01*
X0080862Y0246228D02*
X0077136Y0246228D01*
X0077274Y0245029D02*
X0082060Y0245029D01*
X0083259Y0243831D02*
X0077164Y0243831D01*
X0075842Y0248625D02*
X0075835Y0248625D01*
X0071704Y0245029D02*
X0071361Y0245029D01*
X0070034Y0246228D02*
X0069285Y0246228D01*
X0063749Y0240235D02*
X0047183Y0240235D01*
X0047183Y0239037D02*
X0062600Y0239037D01*
X0062104Y0237838D02*
X0047183Y0237838D01*
X0047183Y0236640D02*
X0061874Y0236640D01*
X0061874Y0235441D02*
X0047183Y0235441D01*
X0047183Y0234243D02*
X0062310Y0234243D01*
X0063048Y0233044D02*
X0047183Y0233044D01*
X0047183Y0231846D02*
X0064536Y0231846D01*
X0047183Y0267801D02*
X0162076Y0267801D01*
X0160426Y0269000D02*
X0047183Y0269000D01*
X0047183Y0270198D02*
X0158776Y0270198D01*
X0156690Y0271397D02*
X0047183Y0271397D01*
X0047183Y0272595D02*
X0154337Y0272595D01*
X0151985Y0273794D02*
X0047183Y0273794D01*
X0047183Y0274992D02*
X0148940Y0274992D01*
X0145252Y0276191D02*
X0047183Y0276191D01*
X0047183Y0277389D02*
X0139989Y0277389D01*
X0123044Y0173119D02*
X0121844Y0173119D01*
X0121844Y0171920D02*
X0123044Y0171920D01*
X0123044Y0170722D02*
X0121844Y0170722D01*
X0121844Y0168325D02*
X0123044Y0168325D01*
X0123044Y0167126D02*
X0121844Y0167126D01*
X0121844Y0165928D02*
X0123044Y0165928D01*
X0123044Y0164729D02*
X0121844Y0164729D01*
X0118704Y0159100D02*
X0126204Y0159100D01*
X0131204Y0164100D01*
X0131204Y0169100D01*
X0129306Y0170722D02*
X0126603Y0170722D01*
X0118688Y0173119D02*
X0118154Y0173119D01*
X0122670Y0121583D02*
X0129404Y0121583D01*
X0129042Y0120384D02*
X0122703Y0120384D01*
X0118944Y0118100D02*
X0130204Y0118100D01*
X0131204Y0119100D01*
X0129404Y0115590D02*
X0122703Y0115590D01*
X0122445Y0114392D02*
X0129404Y0114392D01*
X0115444Y0114392D02*
X0115434Y0114392D01*
X0112064Y0114392D02*
X0110864Y0114392D01*
X0110864Y0115590D02*
X0112064Y0115590D01*
X0112064Y0116789D02*
X0110864Y0116789D01*
X0109076Y0090421D02*
X0108693Y0090421D01*
X0108705Y0089223D02*
X0108627Y0089223D01*
X0107131Y0085627D02*
X0088375Y0085627D01*
X0088604Y0084429D02*
X0104607Y0084429D01*
X0103810Y0083230D02*
X0088604Y0083230D01*
X0088151Y0082032D02*
X0103715Y0082032D01*
X0104356Y0080833D02*
X0087367Y0080833D01*
X0085728Y0079635D02*
X0104404Y0079635D01*
X0105582Y0078436D02*
X0086040Y0078436D01*
X0087496Y0077238D02*
X0106780Y0077238D01*
X0106204Y0074631D02*
X0106204Y0070360D01*
X0112464Y0064100D01*
X0108705Y0064054D02*
X0088604Y0064054D01*
X0088530Y0065253D02*
X0108705Y0065253D01*
X0107567Y0066451D02*
X0088034Y0066451D01*
X0087084Y0067650D02*
X0106369Y0067650D01*
X0105170Y0068848D02*
X0085045Y0068848D01*
X0086580Y0070047D02*
X0104404Y0070047D01*
X0104404Y0071245D02*
X0087779Y0071245D01*
X0088322Y0072444D02*
X0104404Y0072444D01*
X0103920Y0073642D02*
X0088604Y0073642D01*
X0088604Y0074841D02*
X0103715Y0074841D01*
X0104093Y0076039D02*
X0088204Y0076039D01*
X0087879Y0086826D02*
X0105933Y0086826D01*
X0107801Y0084429D02*
X0108705Y0084429D01*
X0108705Y0083230D02*
X0108598Y0083230D01*
X0106204Y0082506D02*
X0106204Y0080360D01*
X0112464Y0074100D01*
X0108705Y0062856D02*
X0088492Y0062856D01*
X0087996Y0061657D02*
X0108705Y0061657D01*
X0119944Y0064100D02*
X0121204Y0064100D01*
X0093508Y0038885D02*
X0085986Y0038885D01*
X0087612Y0037687D02*
X0093508Y0037687D01*
X0093508Y0036488D02*
X0088435Y0036488D01*
X0088882Y0035290D02*
X0093508Y0035290D01*
X0093508Y0026900D02*
X0047183Y0026900D01*
X0047183Y0025702D02*
X0093508Y0025702D01*
X0093704Y0024503D02*
X0047183Y0024503D01*
X0047183Y0023305D02*
X0093704Y0023305D01*
X0093704Y0022106D02*
X0047183Y0022106D01*
X0047183Y0020908D02*
X0093704Y0020908D01*
X0093704Y0019709D02*
X0047183Y0019709D01*
X0047183Y0018511D02*
X0093704Y0018511D01*
X0093704Y0017312D02*
X0047183Y0017312D01*
X0047183Y0016114D02*
X0093704Y0016114D01*
X0093704Y0014915D02*
X0047183Y0014915D01*
X0047183Y0013717D02*
X0093704Y0013717D01*
X0093704Y0012518D02*
X0047183Y0012518D01*
X0047183Y0011320D02*
X0093704Y0011320D01*
X0093704Y0010121D02*
X0047183Y0010121D01*
X0047183Y0008923D02*
X0093704Y0008923D01*
X0086730Y0049672D02*
X0085818Y0049672D01*
X0087404Y0050870D02*
X0087929Y0050870D01*
X0088166Y0052069D02*
X0089127Y0052069D01*
X0083704Y0054100D02*
X0088704Y0059100D01*
X0087517Y0060459D02*
X0086992Y0060459D01*
X0086318Y0059260D02*
X0084824Y0059260D01*
X0082584Y0059260D02*
X0047183Y0059260D01*
D16*
X0101204Y0144100D02*
X0086204Y0159100D01*
X0086204Y0221600D01*
X0071515Y0236289D01*
X0066874Y0236289D01*
X0076874Y0253610D02*
X0101204Y0229279D01*
X0101204Y0216600D01*
X0106204Y0211600D01*
X0108704Y0211600D01*
X0101204Y0204100D01*
X0101204Y0189100D01*
X0108704Y0181600D01*
X0101204Y0181600D01*
X0097464Y0177860D01*
X0097464Y0169100D01*
X0097464Y0160340D01*
X0106204Y0151600D01*
X0126204Y0151600D01*
X0128704Y0149100D01*
X0131204Y0144100D02*
X0101204Y0144100D01*
X0104944Y0169100D02*
X0108704Y0169100D01*
X0114964Y0169100D01*
X0122444Y0172860D02*
X0118704Y0176600D01*
X0118704Y0181600D01*
X0123704Y0186600D01*
X0122444Y0172860D02*
X0122444Y0169100D01*
D17*
X0131204Y0169100D03*
X0128704Y0149100D03*
X0131204Y0119100D03*
X0146204Y0106600D03*
X0146204Y0096600D03*
X0146204Y0074100D03*
X0146204Y0064100D03*
X0106204Y0074631D03*
X0106204Y0082506D03*
X0106204Y0090380D03*
X0106204Y0098254D03*
X0103704Y0114100D03*
X0108704Y0136600D03*
X0108704Y0169100D03*
X0151204Y0144100D03*
X0163704Y0169100D03*
X0161204Y0174100D03*
M02*
