G75*
%MOIN*%
%OFA0B0*%
%FSLAX25Y25*%
%IPPOS*%
%LPD*%
%AMOC8*
5,1,8,0,0,1.08239X$1,22.5*
%
%ADD10C,0.00600*%
%ADD11C,0.00000*%
%ADD12C,0.07400*%
%ADD13R,0.05118X0.05906*%
%ADD14R,0.06000X0.06000*%
%ADD15C,0.06000*%
%ADD16C,0.07600*%
%ADD17C,0.01200*%
%ADD18C,0.02400*%
%ADD19C,0.02578*%
D10*
X0001300Y0013742D02*
X0001300Y0092906D01*
X0001300Y0013742D02*
X0005974Y0014173D01*
X0010636Y0014716D01*
X0015284Y0015369D01*
X0019914Y0016133D01*
X0024526Y0017008D01*
X0029115Y0017992D01*
X0033680Y0019085D01*
X0038217Y0020287D01*
X0042724Y0021596D01*
X0047198Y0023013D01*
X0051638Y0024536D01*
X0056040Y0026164D01*
X0060402Y0027897D01*
X0064721Y0029733D01*
X0068996Y0031672D01*
X0073223Y0033712D01*
X0077400Y0035852D01*
X0081525Y0038091D01*
X0085595Y0040428D01*
X0089609Y0042862D01*
X0093563Y0045390D01*
X0097456Y0048012D01*
X0101285Y0050726D01*
X0105049Y0053531D01*
X0108744Y0056424D01*
X0112370Y0059405D01*
X0115923Y0062471D01*
X0119403Y0065621D01*
X0122806Y0068854D01*
X0126131Y0072166D01*
X0162717Y0072166D01*
X0182402Y0024922D02*
X0182402Y0001300D01*
X0170591Y0013111D02*
X0194213Y0013111D01*
X0217835Y0127284D02*
X0217835Y0292639D01*
X0217819Y0293971D01*
X0217771Y0295302D01*
X0217690Y0296631D01*
X0217578Y0297959D01*
X0217433Y0299283D01*
X0217257Y0300603D01*
X0217048Y0301919D01*
X0216808Y0303229D01*
X0216536Y0304533D01*
X0216233Y0305830D01*
X0215899Y0307119D01*
X0215534Y0308400D01*
X0215137Y0309671D01*
X0214710Y0310933D01*
X0214253Y0312184D01*
X0213766Y0313424D01*
X0213249Y0314651D01*
X0212702Y0315866D01*
X0212126Y0317067D01*
X0211522Y0318254D01*
X0210888Y0319425D01*
X0210227Y0320582D01*
X0209538Y0321721D01*
X0208822Y0322844D01*
X0208078Y0323950D01*
X0207308Y0325037D01*
X0206513Y0326105D01*
X0205691Y0327153D01*
X0204845Y0328181D01*
X0203973Y0329189D01*
X0203078Y0330175D01*
X0202159Y0331140D01*
X0201218Y0332081D01*
X0200253Y0333000D01*
X0199267Y0333895D01*
X0198259Y0334767D01*
X0197231Y0335613D01*
X0196183Y0336435D01*
X0195115Y0337230D01*
X0194028Y0338000D01*
X0192922Y0338744D01*
X0191799Y0339460D01*
X0190660Y0340149D01*
X0189503Y0340810D01*
X0188332Y0341444D01*
X0187145Y0342048D01*
X0185944Y0342624D01*
X0184729Y0343171D01*
X0183502Y0343688D01*
X0182262Y0344175D01*
X0181011Y0344632D01*
X0179749Y0345059D01*
X0178478Y0345456D01*
X0177197Y0345821D01*
X0175908Y0346155D01*
X0174611Y0346458D01*
X0173307Y0346730D01*
X0171997Y0346970D01*
X0170681Y0347179D01*
X0169361Y0347355D01*
X0168037Y0347500D01*
X0166709Y0347612D01*
X0165380Y0347693D01*
X0164049Y0347741D01*
X0162717Y0347757D01*
X0126131Y0347757D01*
X0217835Y0127284D02*
X0217819Y0125952D01*
X0217771Y0124621D01*
X0217690Y0123292D01*
X0217578Y0121964D01*
X0217433Y0120640D01*
X0217257Y0119320D01*
X0217048Y0118004D01*
X0216808Y0116694D01*
X0216536Y0115390D01*
X0216233Y0114093D01*
X0215899Y0112804D01*
X0215534Y0111523D01*
X0215137Y0110252D01*
X0214710Y0108990D01*
X0214253Y0107739D01*
X0213766Y0106499D01*
X0213249Y0105272D01*
X0212702Y0104057D01*
X0212126Y0102856D01*
X0211522Y0101669D01*
X0210888Y0100498D01*
X0210227Y0099341D01*
X0209538Y0098202D01*
X0208822Y0097079D01*
X0208078Y0095973D01*
X0207308Y0094886D01*
X0206513Y0093818D01*
X0205691Y0092770D01*
X0204845Y0091742D01*
X0203973Y0090734D01*
X0203078Y0089748D01*
X0202159Y0088783D01*
X0201218Y0087842D01*
X0200253Y0086923D01*
X0199267Y0086028D01*
X0198259Y0085156D01*
X0197231Y0084310D01*
X0196183Y0083488D01*
X0195115Y0082693D01*
X0194028Y0081923D01*
X0192922Y0081179D01*
X0191799Y0080463D01*
X0190660Y0079774D01*
X0189503Y0079113D01*
X0188332Y0078479D01*
X0187145Y0077875D01*
X0185944Y0077299D01*
X0184729Y0076752D01*
X0183502Y0076235D01*
X0182262Y0075748D01*
X0181011Y0075291D01*
X0179749Y0074864D01*
X0178478Y0074467D01*
X0177197Y0074102D01*
X0175908Y0073768D01*
X0174611Y0073465D01*
X0173307Y0073193D01*
X0171997Y0072953D01*
X0170681Y0072744D01*
X0169361Y0072568D01*
X0168037Y0072423D01*
X0166709Y0072311D01*
X0165380Y0072230D01*
X0164049Y0072182D01*
X0162717Y0072166D01*
X0001300Y0092906D02*
X0004146Y0093324D01*
X0006981Y0093811D01*
X0009804Y0094368D01*
X0012612Y0094993D01*
X0015404Y0095686D01*
X0018178Y0096447D01*
X0020933Y0097275D01*
X0023667Y0098170D01*
X0026378Y0099131D01*
X0029065Y0100159D01*
X0031727Y0101251D01*
X0034361Y0102408D01*
X0036965Y0103628D01*
X0039540Y0104912D01*
X0042082Y0106258D01*
X0044591Y0107666D01*
X0047065Y0109134D01*
X0049502Y0110662D01*
X0051902Y0112249D01*
X0054262Y0113894D01*
X0056581Y0115596D01*
X0058858Y0117353D01*
X0061092Y0119166D01*
X0063281Y0121033D01*
X0065424Y0122952D01*
X0067519Y0124923D01*
X0069566Y0126945D01*
X0071563Y0129016D01*
X0073509Y0131134D01*
X0075402Y0133300D01*
X0077243Y0135511D01*
X0079029Y0137766D01*
X0080759Y0140064D01*
X0082433Y0142404D01*
X0084050Y0144783D01*
X0085608Y0147201D01*
X0087107Y0149657D01*
X0088545Y0152148D01*
X0089923Y0154674D01*
X0091238Y0157232D01*
X0092491Y0159821D01*
X0093681Y0162441D01*
X0094806Y0165088D01*
X0095866Y0167763D01*
X0096861Y0170462D01*
X0097790Y0173184D01*
X0098653Y0175929D01*
X0099448Y0178693D01*
X0100176Y0181477D01*
X0100835Y0184277D01*
X0101427Y0187092D01*
X0101949Y0189921D01*
X0102403Y0192762D01*
X0102787Y0195612D01*
X0103102Y0198472D01*
X0103347Y0201338D01*
X0103522Y0204210D01*
X0103627Y0207084D01*
X0103662Y0209961D01*
X0103627Y0212838D01*
X0103522Y0215712D01*
X0103347Y0218584D01*
X0103102Y0221450D01*
X0102787Y0224310D01*
X0102403Y0227160D01*
X0101949Y0230001D01*
X0101427Y0232830D01*
X0100835Y0235645D01*
X0100176Y0238445D01*
X0099448Y0241229D01*
X0098653Y0243993D01*
X0097790Y0246738D01*
X0096861Y0249460D01*
X0095866Y0252159D01*
X0094806Y0254834D01*
X0093681Y0257481D01*
X0092491Y0260101D01*
X0091238Y0262690D01*
X0089923Y0265248D01*
X0088545Y0267774D01*
X0087107Y0270265D01*
X0085608Y0272721D01*
X0084050Y0275139D01*
X0082433Y0277518D01*
X0080759Y0279858D01*
X0079029Y0282156D01*
X0077243Y0284411D01*
X0075402Y0286622D01*
X0073509Y0288788D01*
X0071563Y0290906D01*
X0069566Y0292977D01*
X0067519Y0294999D01*
X0065424Y0296970D01*
X0063281Y0298889D01*
X0061092Y0300756D01*
X0058858Y0302569D01*
X0056581Y0304326D01*
X0054262Y0306028D01*
X0051902Y0307673D01*
X0049502Y0309260D01*
X0047065Y0310788D01*
X0044591Y0312256D01*
X0042082Y0313664D01*
X0039540Y0315010D01*
X0036965Y0316294D01*
X0034361Y0317514D01*
X0031727Y0318671D01*
X0029065Y0319763D01*
X0026378Y0320791D01*
X0023667Y0321752D01*
X0020933Y0322647D01*
X0018178Y0323475D01*
X0015404Y0324236D01*
X0012612Y0324929D01*
X0009804Y0325554D01*
X0006981Y0326111D01*
X0004146Y0326598D01*
X0001300Y0327016D01*
X0001300Y0327017D02*
X0001300Y0406220D01*
X0005974Y0405787D01*
X0010636Y0405244D01*
X0015285Y0404589D01*
X0019916Y0403823D01*
X0024528Y0402948D01*
X0029117Y0401962D01*
X0033682Y0400868D01*
X0038219Y0399665D01*
X0042726Y0398354D01*
X0047201Y0396936D01*
X0051641Y0395412D01*
X0056043Y0393782D01*
X0060405Y0392048D01*
X0064725Y0390210D01*
X0068999Y0388270D01*
X0073226Y0386229D01*
X0077403Y0384087D01*
X0081528Y0381847D01*
X0085598Y0379508D01*
X0089612Y0377074D01*
X0093566Y0374544D01*
X0097458Y0371921D01*
X0101288Y0369205D01*
X0105051Y0366400D01*
X0108746Y0363505D01*
X0112371Y0360523D01*
X0115924Y0357455D01*
X0119403Y0354304D01*
X0122806Y0351070D01*
X0126131Y0347756D01*
D11*
X0094552Y0280611D02*
X0094554Y0280765D01*
X0094560Y0280920D01*
X0094570Y0281074D01*
X0094584Y0281228D01*
X0094602Y0281381D01*
X0094623Y0281534D01*
X0094649Y0281687D01*
X0094679Y0281838D01*
X0094712Y0281989D01*
X0094750Y0282139D01*
X0094791Y0282288D01*
X0094836Y0282436D01*
X0094885Y0282582D01*
X0094938Y0282728D01*
X0094994Y0282871D01*
X0095054Y0283014D01*
X0095118Y0283154D01*
X0095185Y0283294D01*
X0095256Y0283431D01*
X0095330Y0283566D01*
X0095408Y0283700D01*
X0095489Y0283831D01*
X0095574Y0283960D01*
X0095662Y0284088D01*
X0095753Y0284212D01*
X0095847Y0284335D01*
X0095945Y0284455D01*
X0096045Y0284572D01*
X0096149Y0284687D01*
X0096255Y0284799D01*
X0096364Y0284908D01*
X0096476Y0285014D01*
X0096591Y0285118D01*
X0096708Y0285218D01*
X0096828Y0285316D01*
X0096951Y0285410D01*
X0097075Y0285501D01*
X0097203Y0285589D01*
X0097332Y0285674D01*
X0097463Y0285755D01*
X0097597Y0285833D01*
X0097732Y0285907D01*
X0097869Y0285978D01*
X0098009Y0286045D01*
X0098149Y0286109D01*
X0098292Y0286169D01*
X0098435Y0286225D01*
X0098581Y0286278D01*
X0098727Y0286327D01*
X0098875Y0286372D01*
X0099024Y0286413D01*
X0099174Y0286451D01*
X0099325Y0286484D01*
X0099476Y0286514D01*
X0099629Y0286540D01*
X0099782Y0286561D01*
X0099935Y0286579D01*
X0100089Y0286593D01*
X0100243Y0286603D01*
X0100398Y0286609D01*
X0100552Y0286611D01*
X0100706Y0286609D01*
X0100861Y0286603D01*
X0101015Y0286593D01*
X0101169Y0286579D01*
X0101322Y0286561D01*
X0101475Y0286540D01*
X0101628Y0286514D01*
X0101779Y0286484D01*
X0101930Y0286451D01*
X0102080Y0286413D01*
X0102229Y0286372D01*
X0102377Y0286327D01*
X0102523Y0286278D01*
X0102669Y0286225D01*
X0102812Y0286169D01*
X0102955Y0286109D01*
X0103095Y0286045D01*
X0103235Y0285978D01*
X0103372Y0285907D01*
X0103507Y0285833D01*
X0103641Y0285755D01*
X0103772Y0285674D01*
X0103901Y0285589D01*
X0104029Y0285501D01*
X0104153Y0285410D01*
X0104276Y0285316D01*
X0104396Y0285218D01*
X0104513Y0285118D01*
X0104628Y0285014D01*
X0104740Y0284908D01*
X0104849Y0284799D01*
X0104955Y0284687D01*
X0105059Y0284572D01*
X0105159Y0284455D01*
X0105257Y0284335D01*
X0105351Y0284212D01*
X0105442Y0284088D01*
X0105530Y0283960D01*
X0105615Y0283831D01*
X0105696Y0283700D01*
X0105774Y0283566D01*
X0105848Y0283431D01*
X0105919Y0283294D01*
X0105986Y0283154D01*
X0106050Y0283014D01*
X0106110Y0282871D01*
X0106166Y0282728D01*
X0106219Y0282582D01*
X0106268Y0282436D01*
X0106313Y0282288D01*
X0106354Y0282139D01*
X0106392Y0281989D01*
X0106425Y0281838D01*
X0106455Y0281687D01*
X0106481Y0281534D01*
X0106502Y0281381D01*
X0106520Y0281228D01*
X0106534Y0281074D01*
X0106544Y0280920D01*
X0106550Y0280765D01*
X0106552Y0280611D01*
X0106550Y0280457D01*
X0106544Y0280302D01*
X0106534Y0280148D01*
X0106520Y0279994D01*
X0106502Y0279841D01*
X0106481Y0279688D01*
X0106455Y0279535D01*
X0106425Y0279384D01*
X0106392Y0279233D01*
X0106354Y0279083D01*
X0106313Y0278934D01*
X0106268Y0278786D01*
X0106219Y0278640D01*
X0106166Y0278494D01*
X0106110Y0278351D01*
X0106050Y0278208D01*
X0105986Y0278068D01*
X0105919Y0277928D01*
X0105848Y0277791D01*
X0105774Y0277656D01*
X0105696Y0277522D01*
X0105615Y0277391D01*
X0105530Y0277262D01*
X0105442Y0277134D01*
X0105351Y0277010D01*
X0105257Y0276887D01*
X0105159Y0276767D01*
X0105059Y0276650D01*
X0104955Y0276535D01*
X0104849Y0276423D01*
X0104740Y0276314D01*
X0104628Y0276208D01*
X0104513Y0276104D01*
X0104396Y0276004D01*
X0104276Y0275906D01*
X0104153Y0275812D01*
X0104029Y0275721D01*
X0103901Y0275633D01*
X0103772Y0275548D01*
X0103641Y0275467D01*
X0103507Y0275389D01*
X0103372Y0275315D01*
X0103235Y0275244D01*
X0103095Y0275177D01*
X0102955Y0275113D01*
X0102812Y0275053D01*
X0102669Y0274997D01*
X0102523Y0274944D01*
X0102377Y0274895D01*
X0102229Y0274850D01*
X0102080Y0274809D01*
X0101930Y0274771D01*
X0101779Y0274738D01*
X0101628Y0274708D01*
X0101475Y0274682D01*
X0101322Y0274661D01*
X0101169Y0274643D01*
X0101015Y0274629D01*
X0100861Y0274619D01*
X0100706Y0274613D01*
X0100552Y0274611D01*
X0100398Y0274613D01*
X0100243Y0274619D01*
X0100089Y0274629D01*
X0099935Y0274643D01*
X0099782Y0274661D01*
X0099629Y0274682D01*
X0099476Y0274708D01*
X0099325Y0274738D01*
X0099174Y0274771D01*
X0099024Y0274809D01*
X0098875Y0274850D01*
X0098727Y0274895D01*
X0098581Y0274944D01*
X0098435Y0274997D01*
X0098292Y0275053D01*
X0098149Y0275113D01*
X0098009Y0275177D01*
X0097869Y0275244D01*
X0097732Y0275315D01*
X0097597Y0275389D01*
X0097463Y0275467D01*
X0097332Y0275548D01*
X0097203Y0275633D01*
X0097075Y0275721D01*
X0096951Y0275812D01*
X0096828Y0275906D01*
X0096708Y0276004D01*
X0096591Y0276104D01*
X0096476Y0276208D01*
X0096364Y0276314D01*
X0096255Y0276423D01*
X0096149Y0276535D01*
X0096045Y0276650D01*
X0095945Y0276767D01*
X0095847Y0276887D01*
X0095753Y0277010D01*
X0095662Y0277134D01*
X0095574Y0277262D01*
X0095489Y0277391D01*
X0095408Y0277522D01*
X0095330Y0277656D01*
X0095256Y0277791D01*
X0095185Y0277928D01*
X0095118Y0278068D01*
X0095054Y0278208D01*
X0094994Y0278351D01*
X0094938Y0278494D01*
X0094885Y0278640D01*
X0094836Y0278786D01*
X0094791Y0278934D01*
X0094750Y0279083D01*
X0094712Y0279233D01*
X0094679Y0279384D01*
X0094649Y0279535D01*
X0094623Y0279688D01*
X0094602Y0279841D01*
X0094584Y0279994D01*
X0094570Y0280148D01*
X0094560Y0280302D01*
X0094554Y0280457D01*
X0094552Y0280611D01*
X0094552Y0143111D02*
X0094554Y0143265D01*
X0094560Y0143420D01*
X0094570Y0143574D01*
X0094584Y0143728D01*
X0094602Y0143881D01*
X0094623Y0144034D01*
X0094649Y0144187D01*
X0094679Y0144338D01*
X0094712Y0144489D01*
X0094750Y0144639D01*
X0094791Y0144788D01*
X0094836Y0144936D01*
X0094885Y0145082D01*
X0094938Y0145228D01*
X0094994Y0145371D01*
X0095054Y0145514D01*
X0095118Y0145654D01*
X0095185Y0145794D01*
X0095256Y0145931D01*
X0095330Y0146066D01*
X0095408Y0146200D01*
X0095489Y0146331D01*
X0095574Y0146460D01*
X0095662Y0146588D01*
X0095753Y0146712D01*
X0095847Y0146835D01*
X0095945Y0146955D01*
X0096045Y0147072D01*
X0096149Y0147187D01*
X0096255Y0147299D01*
X0096364Y0147408D01*
X0096476Y0147514D01*
X0096591Y0147618D01*
X0096708Y0147718D01*
X0096828Y0147816D01*
X0096951Y0147910D01*
X0097075Y0148001D01*
X0097203Y0148089D01*
X0097332Y0148174D01*
X0097463Y0148255D01*
X0097597Y0148333D01*
X0097732Y0148407D01*
X0097869Y0148478D01*
X0098009Y0148545D01*
X0098149Y0148609D01*
X0098292Y0148669D01*
X0098435Y0148725D01*
X0098581Y0148778D01*
X0098727Y0148827D01*
X0098875Y0148872D01*
X0099024Y0148913D01*
X0099174Y0148951D01*
X0099325Y0148984D01*
X0099476Y0149014D01*
X0099629Y0149040D01*
X0099782Y0149061D01*
X0099935Y0149079D01*
X0100089Y0149093D01*
X0100243Y0149103D01*
X0100398Y0149109D01*
X0100552Y0149111D01*
X0100706Y0149109D01*
X0100861Y0149103D01*
X0101015Y0149093D01*
X0101169Y0149079D01*
X0101322Y0149061D01*
X0101475Y0149040D01*
X0101628Y0149014D01*
X0101779Y0148984D01*
X0101930Y0148951D01*
X0102080Y0148913D01*
X0102229Y0148872D01*
X0102377Y0148827D01*
X0102523Y0148778D01*
X0102669Y0148725D01*
X0102812Y0148669D01*
X0102955Y0148609D01*
X0103095Y0148545D01*
X0103235Y0148478D01*
X0103372Y0148407D01*
X0103507Y0148333D01*
X0103641Y0148255D01*
X0103772Y0148174D01*
X0103901Y0148089D01*
X0104029Y0148001D01*
X0104153Y0147910D01*
X0104276Y0147816D01*
X0104396Y0147718D01*
X0104513Y0147618D01*
X0104628Y0147514D01*
X0104740Y0147408D01*
X0104849Y0147299D01*
X0104955Y0147187D01*
X0105059Y0147072D01*
X0105159Y0146955D01*
X0105257Y0146835D01*
X0105351Y0146712D01*
X0105442Y0146588D01*
X0105530Y0146460D01*
X0105615Y0146331D01*
X0105696Y0146200D01*
X0105774Y0146066D01*
X0105848Y0145931D01*
X0105919Y0145794D01*
X0105986Y0145654D01*
X0106050Y0145514D01*
X0106110Y0145371D01*
X0106166Y0145228D01*
X0106219Y0145082D01*
X0106268Y0144936D01*
X0106313Y0144788D01*
X0106354Y0144639D01*
X0106392Y0144489D01*
X0106425Y0144338D01*
X0106455Y0144187D01*
X0106481Y0144034D01*
X0106502Y0143881D01*
X0106520Y0143728D01*
X0106534Y0143574D01*
X0106544Y0143420D01*
X0106550Y0143265D01*
X0106552Y0143111D01*
X0106550Y0142957D01*
X0106544Y0142802D01*
X0106534Y0142648D01*
X0106520Y0142494D01*
X0106502Y0142341D01*
X0106481Y0142188D01*
X0106455Y0142035D01*
X0106425Y0141884D01*
X0106392Y0141733D01*
X0106354Y0141583D01*
X0106313Y0141434D01*
X0106268Y0141286D01*
X0106219Y0141140D01*
X0106166Y0140994D01*
X0106110Y0140851D01*
X0106050Y0140708D01*
X0105986Y0140568D01*
X0105919Y0140428D01*
X0105848Y0140291D01*
X0105774Y0140156D01*
X0105696Y0140022D01*
X0105615Y0139891D01*
X0105530Y0139762D01*
X0105442Y0139634D01*
X0105351Y0139510D01*
X0105257Y0139387D01*
X0105159Y0139267D01*
X0105059Y0139150D01*
X0104955Y0139035D01*
X0104849Y0138923D01*
X0104740Y0138814D01*
X0104628Y0138708D01*
X0104513Y0138604D01*
X0104396Y0138504D01*
X0104276Y0138406D01*
X0104153Y0138312D01*
X0104029Y0138221D01*
X0103901Y0138133D01*
X0103772Y0138048D01*
X0103641Y0137967D01*
X0103507Y0137889D01*
X0103372Y0137815D01*
X0103235Y0137744D01*
X0103095Y0137677D01*
X0102955Y0137613D01*
X0102812Y0137553D01*
X0102669Y0137497D01*
X0102523Y0137444D01*
X0102377Y0137395D01*
X0102229Y0137350D01*
X0102080Y0137309D01*
X0101930Y0137271D01*
X0101779Y0137238D01*
X0101628Y0137208D01*
X0101475Y0137182D01*
X0101322Y0137161D01*
X0101169Y0137143D01*
X0101015Y0137129D01*
X0100861Y0137119D01*
X0100706Y0137113D01*
X0100552Y0137111D01*
X0100398Y0137113D01*
X0100243Y0137119D01*
X0100089Y0137129D01*
X0099935Y0137143D01*
X0099782Y0137161D01*
X0099629Y0137182D01*
X0099476Y0137208D01*
X0099325Y0137238D01*
X0099174Y0137271D01*
X0099024Y0137309D01*
X0098875Y0137350D01*
X0098727Y0137395D01*
X0098581Y0137444D01*
X0098435Y0137497D01*
X0098292Y0137553D01*
X0098149Y0137613D01*
X0098009Y0137677D01*
X0097869Y0137744D01*
X0097732Y0137815D01*
X0097597Y0137889D01*
X0097463Y0137967D01*
X0097332Y0138048D01*
X0097203Y0138133D01*
X0097075Y0138221D01*
X0096951Y0138312D01*
X0096828Y0138406D01*
X0096708Y0138504D01*
X0096591Y0138604D01*
X0096476Y0138708D01*
X0096364Y0138814D01*
X0096255Y0138923D01*
X0096149Y0139035D01*
X0096045Y0139150D01*
X0095945Y0139267D01*
X0095847Y0139387D01*
X0095753Y0139510D01*
X0095662Y0139634D01*
X0095574Y0139762D01*
X0095489Y0139891D01*
X0095408Y0140022D01*
X0095330Y0140156D01*
X0095256Y0140291D01*
X0095185Y0140428D01*
X0095118Y0140568D01*
X0095054Y0140708D01*
X0094994Y0140851D01*
X0094938Y0140994D01*
X0094885Y0141140D01*
X0094836Y0141286D01*
X0094791Y0141434D01*
X0094750Y0141583D01*
X0094712Y0141733D01*
X0094679Y0141884D01*
X0094649Y0142035D01*
X0094623Y0142188D01*
X0094602Y0142341D01*
X0094584Y0142494D01*
X0094570Y0142648D01*
X0094560Y0142802D01*
X0094554Y0142957D01*
X0094552Y0143111D01*
X0087052Y0058111D02*
X0087054Y0058265D01*
X0087060Y0058420D01*
X0087070Y0058574D01*
X0087084Y0058728D01*
X0087102Y0058881D01*
X0087123Y0059034D01*
X0087149Y0059187D01*
X0087179Y0059338D01*
X0087212Y0059489D01*
X0087250Y0059639D01*
X0087291Y0059788D01*
X0087336Y0059936D01*
X0087385Y0060082D01*
X0087438Y0060228D01*
X0087494Y0060371D01*
X0087554Y0060514D01*
X0087618Y0060654D01*
X0087685Y0060794D01*
X0087756Y0060931D01*
X0087830Y0061066D01*
X0087908Y0061200D01*
X0087989Y0061331D01*
X0088074Y0061460D01*
X0088162Y0061588D01*
X0088253Y0061712D01*
X0088347Y0061835D01*
X0088445Y0061955D01*
X0088545Y0062072D01*
X0088649Y0062187D01*
X0088755Y0062299D01*
X0088864Y0062408D01*
X0088976Y0062514D01*
X0089091Y0062618D01*
X0089208Y0062718D01*
X0089328Y0062816D01*
X0089451Y0062910D01*
X0089575Y0063001D01*
X0089703Y0063089D01*
X0089832Y0063174D01*
X0089963Y0063255D01*
X0090097Y0063333D01*
X0090232Y0063407D01*
X0090369Y0063478D01*
X0090509Y0063545D01*
X0090649Y0063609D01*
X0090792Y0063669D01*
X0090935Y0063725D01*
X0091081Y0063778D01*
X0091227Y0063827D01*
X0091375Y0063872D01*
X0091524Y0063913D01*
X0091674Y0063951D01*
X0091825Y0063984D01*
X0091976Y0064014D01*
X0092129Y0064040D01*
X0092282Y0064061D01*
X0092435Y0064079D01*
X0092589Y0064093D01*
X0092743Y0064103D01*
X0092898Y0064109D01*
X0093052Y0064111D01*
X0093206Y0064109D01*
X0093361Y0064103D01*
X0093515Y0064093D01*
X0093669Y0064079D01*
X0093822Y0064061D01*
X0093975Y0064040D01*
X0094128Y0064014D01*
X0094279Y0063984D01*
X0094430Y0063951D01*
X0094580Y0063913D01*
X0094729Y0063872D01*
X0094877Y0063827D01*
X0095023Y0063778D01*
X0095169Y0063725D01*
X0095312Y0063669D01*
X0095455Y0063609D01*
X0095595Y0063545D01*
X0095735Y0063478D01*
X0095872Y0063407D01*
X0096007Y0063333D01*
X0096141Y0063255D01*
X0096272Y0063174D01*
X0096401Y0063089D01*
X0096529Y0063001D01*
X0096653Y0062910D01*
X0096776Y0062816D01*
X0096896Y0062718D01*
X0097013Y0062618D01*
X0097128Y0062514D01*
X0097240Y0062408D01*
X0097349Y0062299D01*
X0097455Y0062187D01*
X0097559Y0062072D01*
X0097659Y0061955D01*
X0097757Y0061835D01*
X0097851Y0061712D01*
X0097942Y0061588D01*
X0098030Y0061460D01*
X0098115Y0061331D01*
X0098196Y0061200D01*
X0098274Y0061066D01*
X0098348Y0060931D01*
X0098419Y0060794D01*
X0098486Y0060654D01*
X0098550Y0060514D01*
X0098610Y0060371D01*
X0098666Y0060228D01*
X0098719Y0060082D01*
X0098768Y0059936D01*
X0098813Y0059788D01*
X0098854Y0059639D01*
X0098892Y0059489D01*
X0098925Y0059338D01*
X0098955Y0059187D01*
X0098981Y0059034D01*
X0099002Y0058881D01*
X0099020Y0058728D01*
X0099034Y0058574D01*
X0099044Y0058420D01*
X0099050Y0058265D01*
X0099052Y0058111D01*
X0099050Y0057957D01*
X0099044Y0057802D01*
X0099034Y0057648D01*
X0099020Y0057494D01*
X0099002Y0057341D01*
X0098981Y0057188D01*
X0098955Y0057035D01*
X0098925Y0056884D01*
X0098892Y0056733D01*
X0098854Y0056583D01*
X0098813Y0056434D01*
X0098768Y0056286D01*
X0098719Y0056140D01*
X0098666Y0055994D01*
X0098610Y0055851D01*
X0098550Y0055708D01*
X0098486Y0055568D01*
X0098419Y0055428D01*
X0098348Y0055291D01*
X0098274Y0055156D01*
X0098196Y0055022D01*
X0098115Y0054891D01*
X0098030Y0054762D01*
X0097942Y0054634D01*
X0097851Y0054510D01*
X0097757Y0054387D01*
X0097659Y0054267D01*
X0097559Y0054150D01*
X0097455Y0054035D01*
X0097349Y0053923D01*
X0097240Y0053814D01*
X0097128Y0053708D01*
X0097013Y0053604D01*
X0096896Y0053504D01*
X0096776Y0053406D01*
X0096653Y0053312D01*
X0096529Y0053221D01*
X0096401Y0053133D01*
X0096272Y0053048D01*
X0096141Y0052967D01*
X0096007Y0052889D01*
X0095872Y0052815D01*
X0095735Y0052744D01*
X0095595Y0052677D01*
X0095455Y0052613D01*
X0095312Y0052553D01*
X0095169Y0052497D01*
X0095023Y0052444D01*
X0094877Y0052395D01*
X0094729Y0052350D01*
X0094580Y0052309D01*
X0094430Y0052271D01*
X0094279Y0052238D01*
X0094128Y0052208D01*
X0093975Y0052182D01*
X0093822Y0052161D01*
X0093669Y0052143D01*
X0093515Y0052129D01*
X0093361Y0052119D01*
X0093206Y0052113D01*
X0093052Y0052111D01*
X0092898Y0052113D01*
X0092743Y0052119D01*
X0092589Y0052129D01*
X0092435Y0052143D01*
X0092282Y0052161D01*
X0092129Y0052182D01*
X0091976Y0052208D01*
X0091825Y0052238D01*
X0091674Y0052271D01*
X0091524Y0052309D01*
X0091375Y0052350D01*
X0091227Y0052395D01*
X0091081Y0052444D01*
X0090935Y0052497D01*
X0090792Y0052553D01*
X0090649Y0052613D01*
X0090509Y0052677D01*
X0090369Y0052744D01*
X0090232Y0052815D01*
X0090097Y0052889D01*
X0089963Y0052967D01*
X0089832Y0053048D01*
X0089703Y0053133D01*
X0089575Y0053221D01*
X0089451Y0053312D01*
X0089328Y0053406D01*
X0089208Y0053504D01*
X0089091Y0053604D01*
X0088976Y0053708D01*
X0088864Y0053814D01*
X0088755Y0053923D01*
X0088649Y0054035D01*
X0088545Y0054150D01*
X0088445Y0054267D01*
X0088347Y0054387D01*
X0088253Y0054510D01*
X0088162Y0054634D01*
X0088074Y0054762D01*
X0087989Y0054891D01*
X0087908Y0055022D01*
X0087830Y0055156D01*
X0087756Y0055291D01*
X0087685Y0055428D01*
X0087618Y0055568D01*
X0087554Y0055708D01*
X0087494Y0055851D01*
X0087438Y0055994D01*
X0087385Y0056140D01*
X0087336Y0056286D01*
X0087291Y0056434D01*
X0087250Y0056583D01*
X0087212Y0056733D01*
X0087179Y0056884D01*
X0087149Y0057035D01*
X0087123Y0057188D01*
X0087102Y0057341D01*
X0087084Y0057494D01*
X0087070Y0057648D01*
X0087060Y0057802D01*
X0087054Y0057957D01*
X0087052Y0058111D01*
X0177052Y0175611D02*
X0177054Y0175765D01*
X0177060Y0175920D01*
X0177070Y0176074D01*
X0177084Y0176228D01*
X0177102Y0176381D01*
X0177123Y0176534D01*
X0177149Y0176687D01*
X0177179Y0176838D01*
X0177212Y0176989D01*
X0177250Y0177139D01*
X0177291Y0177288D01*
X0177336Y0177436D01*
X0177385Y0177582D01*
X0177438Y0177728D01*
X0177494Y0177871D01*
X0177554Y0178014D01*
X0177618Y0178154D01*
X0177685Y0178294D01*
X0177756Y0178431D01*
X0177830Y0178566D01*
X0177908Y0178700D01*
X0177989Y0178831D01*
X0178074Y0178960D01*
X0178162Y0179088D01*
X0178253Y0179212D01*
X0178347Y0179335D01*
X0178445Y0179455D01*
X0178545Y0179572D01*
X0178649Y0179687D01*
X0178755Y0179799D01*
X0178864Y0179908D01*
X0178976Y0180014D01*
X0179091Y0180118D01*
X0179208Y0180218D01*
X0179328Y0180316D01*
X0179451Y0180410D01*
X0179575Y0180501D01*
X0179703Y0180589D01*
X0179832Y0180674D01*
X0179963Y0180755D01*
X0180097Y0180833D01*
X0180232Y0180907D01*
X0180369Y0180978D01*
X0180509Y0181045D01*
X0180649Y0181109D01*
X0180792Y0181169D01*
X0180935Y0181225D01*
X0181081Y0181278D01*
X0181227Y0181327D01*
X0181375Y0181372D01*
X0181524Y0181413D01*
X0181674Y0181451D01*
X0181825Y0181484D01*
X0181976Y0181514D01*
X0182129Y0181540D01*
X0182282Y0181561D01*
X0182435Y0181579D01*
X0182589Y0181593D01*
X0182743Y0181603D01*
X0182898Y0181609D01*
X0183052Y0181611D01*
X0183206Y0181609D01*
X0183361Y0181603D01*
X0183515Y0181593D01*
X0183669Y0181579D01*
X0183822Y0181561D01*
X0183975Y0181540D01*
X0184128Y0181514D01*
X0184279Y0181484D01*
X0184430Y0181451D01*
X0184580Y0181413D01*
X0184729Y0181372D01*
X0184877Y0181327D01*
X0185023Y0181278D01*
X0185169Y0181225D01*
X0185312Y0181169D01*
X0185455Y0181109D01*
X0185595Y0181045D01*
X0185735Y0180978D01*
X0185872Y0180907D01*
X0186007Y0180833D01*
X0186141Y0180755D01*
X0186272Y0180674D01*
X0186401Y0180589D01*
X0186529Y0180501D01*
X0186653Y0180410D01*
X0186776Y0180316D01*
X0186896Y0180218D01*
X0187013Y0180118D01*
X0187128Y0180014D01*
X0187240Y0179908D01*
X0187349Y0179799D01*
X0187455Y0179687D01*
X0187559Y0179572D01*
X0187659Y0179455D01*
X0187757Y0179335D01*
X0187851Y0179212D01*
X0187942Y0179088D01*
X0188030Y0178960D01*
X0188115Y0178831D01*
X0188196Y0178700D01*
X0188274Y0178566D01*
X0188348Y0178431D01*
X0188419Y0178294D01*
X0188486Y0178154D01*
X0188550Y0178014D01*
X0188610Y0177871D01*
X0188666Y0177728D01*
X0188719Y0177582D01*
X0188768Y0177436D01*
X0188813Y0177288D01*
X0188854Y0177139D01*
X0188892Y0176989D01*
X0188925Y0176838D01*
X0188955Y0176687D01*
X0188981Y0176534D01*
X0189002Y0176381D01*
X0189020Y0176228D01*
X0189034Y0176074D01*
X0189044Y0175920D01*
X0189050Y0175765D01*
X0189052Y0175611D01*
X0189050Y0175457D01*
X0189044Y0175302D01*
X0189034Y0175148D01*
X0189020Y0174994D01*
X0189002Y0174841D01*
X0188981Y0174688D01*
X0188955Y0174535D01*
X0188925Y0174384D01*
X0188892Y0174233D01*
X0188854Y0174083D01*
X0188813Y0173934D01*
X0188768Y0173786D01*
X0188719Y0173640D01*
X0188666Y0173494D01*
X0188610Y0173351D01*
X0188550Y0173208D01*
X0188486Y0173068D01*
X0188419Y0172928D01*
X0188348Y0172791D01*
X0188274Y0172656D01*
X0188196Y0172522D01*
X0188115Y0172391D01*
X0188030Y0172262D01*
X0187942Y0172134D01*
X0187851Y0172010D01*
X0187757Y0171887D01*
X0187659Y0171767D01*
X0187559Y0171650D01*
X0187455Y0171535D01*
X0187349Y0171423D01*
X0187240Y0171314D01*
X0187128Y0171208D01*
X0187013Y0171104D01*
X0186896Y0171004D01*
X0186776Y0170906D01*
X0186653Y0170812D01*
X0186529Y0170721D01*
X0186401Y0170633D01*
X0186272Y0170548D01*
X0186141Y0170467D01*
X0186007Y0170389D01*
X0185872Y0170315D01*
X0185735Y0170244D01*
X0185595Y0170177D01*
X0185455Y0170113D01*
X0185312Y0170053D01*
X0185169Y0169997D01*
X0185023Y0169944D01*
X0184877Y0169895D01*
X0184729Y0169850D01*
X0184580Y0169809D01*
X0184430Y0169771D01*
X0184279Y0169738D01*
X0184128Y0169708D01*
X0183975Y0169682D01*
X0183822Y0169661D01*
X0183669Y0169643D01*
X0183515Y0169629D01*
X0183361Y0169619D01*
X0183206Y0169613D01*
X0183052Y0169611D01*
X0182898Y0169613D01*
X0182743Y0169619D01*
X0182589Y0169629D01*
X0182435Y0169643D01*
X0182282Y0169661D01*
X0182129Y0169682D01*
X0181976Y0169708D01*
X0181825Y0169738D01*
X0181674Y0169771D01*
X0181524Y0169809D01*
X0181375Y0169850D01*
X0181227Y0169895D01*
X0181081Y0169944D01*
X0180935Y0169997D01*
X0180792Y0170053D01*
X0180649Y0170113D01*
X0180509Y0170177D01*
X0180369Y0170244D01*
X0180232Y0170315D01*
X0180097Y0170389D01*
X0179963Y0170467D01*
X0179832Y0170548D01*
X0179703Y0170633D01*
X0179575Y0170721D01*
X0179451Y0170812D01*
X0179328Y0170906D01*
X0179208Y0171004D01*
X0179091Y0171104D01*
X0178976Y0171208D01*
X0178864Y0171314D01*
X0178755Y0171423D01*
X0178649Y0171535D01*
X0178545Y0171650D01*
X0178445Y0171767D01*
X0178347Y0171887D01*
X0178253Y0172010D01*
X0178162Y0172134D01*
X0178074Y0172262D01*
X0177989Y0172391D01*
X0177908Y0172522D01*
X0177830Y0172656D01*
X0177756Y0172791D01*
X0177685Y0172928D01*
X0177618Y0173068D01*
X0177554Y0173208D01*
X0177494Y0173351D01*
X0177438Y0173494D01*
X0177385Y0173640D01*
X0177336Y0173786D01*
X0177291Y0173934D01*
X0177250Y0174083D01*
X0177212Y0174233D01*
X0177179Y0174384D01*
X0177149Y0174535D01*
X0177123Y0174688D01*
X0177102Y0174841D01*
X0177084Y0174994D01*
X0177070Y0175148D01*
X0177060Y0175302D01*
X0177054Y0175457D01*
X0177052Y0175611D01*
X0192052Y0285611D02*
X0192054Y0285765D01*
X0192060Y0285920D01*
X0192070Y0286074D01*
X0192084Y0286228D01*
X0192102Y0286381D01*
X0192123Y0286534D01*
X0192149Y0286687D01*
X0192179Y0286838D01*
X0192212Y0286989D01*
X0192250Y0287139D01*
X0192291Y0287288D01*
X0192336Y0287436D01*
X0192385Y0287582D01*
X0192438Y0287728D01*
X0192494Y0287871D01*
X0192554Y0288014D01*
X0192618Y0288154D01*
X0192685Y0288294D01*
X0192756Y0288431D01*
X0192830Y0288566D01*
X0192908Y0288700D01*
X0192989Y0288831D01*
X0193074Y0288960D01*
X0193162Y0289088D01*
X0193253Y0289212D01*
X0193347Y0289335D01*
X0193445Y0289455D01*
X0193545Y0289572D01*
X0193649Y0289687D01*
X0193755Y0289799D01*
X0193864Y0289908D01*
X0193976Y0290014D01*
X0194091Y0290118D01*
X0194208Y0290218D01*
X0194328Y0290316D01*
X0194451Y0290410D01*
X0194575Y0290501D01*
X0194703Y0290589D01*
X0194832Y0290674D01*
X0194963Y0290755D01*
X0195097Y0290833D01*
X0195232Y0290907D01*
X0195369Y0290978D01*
X0195509Y0291045D01*
X0195649Y0291109D01*
X0195792Y0291169D01*
X0195935Y0291225D01*
X0196081Y0291278D01*
X0196227Y0291327D01*
X0196375Y0291372D01*
X0196524Y0291413D01*
X0196674Y0291451D01*
X0196825Y0291484D01*
X0196976Y0291514D01*
X0197129Y0291540D01*
X0197282Y0291561D01*
X0197435Y0291579D01*
X0197589Y0291593D01*
X0197743Y0291603D01*
X0197898Y0291609D01*
X0198052Y0291611D01*
X0198206Y0291609D01*
X0198361Y0291603D01*
X0198515Y0291593D01*
X0198669Y0291579D01*
X0198822Y0291561D01*
X0198975Y0291540D01*
X0199128Y0291514D01*
X0199279Y0291484D01*
X0199430Y0291451D01*
X0199580Y0291413D01*
X0199729Y0291372D01*
X0199877Y0291327D01*
X0200023Y0291278D01*
X0200169Y0291225D01*
X0200312Y0291169D01*
X0200455Y0291109D01*
X0200595Y0291045D01*
X0200735Y0290978D01*
X0200872Y0290907D01*
X0201007Y0290833D01*
X0201141Y0290755D01*
X0201272Y0290674D01*
X0201401Y0290589D01*
X0201529Y0290501D01*
X0201653Y0290410D01*
X0201776Y0290316D01*
X0201896Y0290218D01*
X0202013Y0290118D01*
X0202128Y0290014D01*
X0202240Y0289908D01*
X0202349Y0289799D01*
X0202455Y0289687D01*
X0202559Y0289572D01*
X0202659Y0289455D01*
X0202757Y0289335D01*
X0202851Y0289212D01*
X0202942Y0289088D01*
X0203030Y0288960D01*
X0203115Y0288831D01*
X0203196Y0288700D01*
X0203274Y0288566D01*
X0203348Y0288431D01*
X0203419Y0288294D01*
X0203486Y0288154D01*
X0203550Y0288014D01*
X0203610Y0287871D01*
X0203666Y0287728D01*
X0203719Y0287582D01*
X0203768Y0287436D01*
X0203813Y0287288D01*
X0203854Y0287139D01*
X0203892Y0286989D01*
X0203925Y0286838D01*
X0203955Y0286687D01*
X0203981Y0286534D01*
X0204002Y0286381D01*
X0204020Y0286228D01*
X0204034Y0286074D01*
X0204044Y0285920D01*
X0204050Y0285765D01*
X0204052Y0285611D01*
X0204050Y0285457D01*
X0204044Y0285302D01*
X0204034Y0285148D01*
X0204020Y0284994D01*
X0204002Y0284841D01*
X0203981Y0284688D01*
X0203955Y0284535D01*
X0203925Y0284384D01*
X0203892Y0284233D01*
X0203854Y0284083D01*
X0203813Y0283934D01*
X0203768Y0283786D01*
X0203719Y0283640D01*
X0203666Y0283494D01*
X0203610Y0283351D01*
X0203550Y0283208D01*
X0203486Y0283068D01*
X0203419Y0282928D01*
X0203348Y0282791D01*
X0203274Y0282656D01*
X0203196Y0282522D01*
X0203115Y0282391D01*
X0203030Y0282262D01*
X0202942Y0282134D01*
X0202851Y0282010D01*
X0202757Y0281887D01*
X0202659Y0281767D01*
X0202559Y0281650D01*
X0202455Y0281535D01*
X0202349Y0281423D01*
X0202240Y0281314D01*
X0202128Y0281208D01*
X0202013Y0281104D01*
X0201896Y0281004D01*
X0201776Y0280906D01*
X0201653Y0280812D01*
X0201529Y0280721D01*
X0201401Y0280633D01*
X0201272Y0280548D01*
X0201141Y0280467D01*
X0201007Y0280389D01*
X0200872Y0280315D01*
X0200735Y0280244D01*
X0200595Y0280177D01*
X0200455Y0280113D01*
X0200312Y0280053D01*
X0200169Y0279997D01*
X0200023Y0279944D01*
X0199877Y0279895D01*
X0199729Y0279850D01*
X0199580Y0279809D01*
X0199430Y0279771D01*
X0199279Y0279738D01*
X0199128Y0279708D01*
X0198975Y0279682D01*
X0198822Y0279661D01*
X0198669Y0279643D01*
X0198515Y0279629D01*
X0198361Y0279619D01*
X0198206Y0279613D01*
X0198052Y0279611D01*
X0197898Y0279613D01*
X0197743Y0279619D01*
X0197589Y0279629D01*
X0197435Y0279643D01*
X0197282Y0279661D01*
X0197129Y0279682D01*
X0196976Y0279708D01*
X0196825Y0279738D01*
X0196674Y0279771D01*
X0196524Y0279809D01*
X0196375Y0279850D01*
X0196227Y0279895D01*
X0196081Y0279944D01*
X0195935Y0279997D01*
X0195792Y0280053D01*
X0195649Y0280113D01*
X0195509Y0280177D01*
X0195369Y0280244D01*
X0195232Y0280315D01*
X0195097Y0280389D01*
X0194963Y0280467D01*
X0194832Y0280548D01*
X0194703Y0280633D01*
X0194575Y0280721D01*
X0194451Y0280812D01*
X0194328Y0280906D01*
X0194208Y0281004D01*
X0194091Y0281104D01*
X0193976Y0281208D01*
X0193864Y0281314D01*
X0193755Y0281423D01*
X0193649Y0281535D01*
X0193545Y0281650D01*
X0193445Y0281767D01*
X0193347Y0281887D01*
X0193253Y0282010D01*
X0193162Y0282134D01*
X0193074Y0282262D01*
X0192989Y0282391D01*
X0192908Y0282522D01*
X0192830Y0282656D01*
X0192756Y0282791D01*
X0192685Y0282928D01*
X0192618Y0283068D01*
X0192554Y0283208D01*
X0192494Y0283351D01*
X0192438Y0283494D01*
X0192385Y0283640D01*
X0192336Y0283786D01*
X0192291Y0283934D01*
X0192250Y0284083D01*
X0192212Y0284233D01*
X0192179Y0284384D01*
X0192149Y0284535D01*
X0192123Y0284688D01*
X0192102Y0284841D01*
X0192084Y0284994D01*
X0192070Y0285148D01*
X0192060Y0285302D01*
X0192054Y0285457D01*
X0192052Y0285611D01*
D12*
X0180552Y0288111D03*
X0180552Y0278111D03*
X0170552Y0278111D03*
X0170552Y0288111D03*
X0160552Y0288111D03*
X0160552Y0278111D03*
X0150552Y0278111D03*
X0150552Y0288111D03*
X0140552Y0288111D03*
X0140552Y0278111D03*
X0140552Y0258111D03*
X0140552Y0248111D03*
X0150552Y0248111D03*
X0150552Y0258111D03*
X0160552Y0258111D03*
X0160552Y0248111D03*
X0170552Y0248111D03*
X0170552Y0258111D03*
X0180552Y0258111D03*
X0180552Y0248111D03*
X0198052Y0178111D03*
X0198052Y0168111D03*
X0198052Y0158111D03*
X0198052Y0148111D03*
X0198052Y0138111D03*
X0198052Y0128111D03*
X0183052Y0128111D03*
X0183052Y0138111D03*
X0183052Y0148111D03*
X0183052Y0158111D03*
D13*
X0184812Y0229611D03*
X0192292Y0229611D03*
X0174792Y0229611D03*
X0167312Y0229611D03*
X0154292Y0235611D03*
X0146812Y0235611D03*
X0136792Y0235611D03*
X0129312Y0235611D03*
D14*
X0145552Y0090611D03*
D15*
X0145552Y0100611D03*
X0155552Y0100611D03*
X0155552Y0090611D03*
X0165552Y0090611D03*
X0165552Y0100611D03*
D16*
X0098722Y0302800D03*
X0103722Y0311460D03*
X0108722Y0320121D03*
X0113722Y0328781D03*
D17*
X0111712Y0324201D02*
X0112727Y0323781D01*
X0114716Y0323781D01*
X0116554Y0324542D01*
X0117961Y0325949D01*
X0118722Y0327786D01*
X0118722Y0329775D01*
X0117961Y0331613D01*
X0116554Y0333020D01*
X0114716Y0333781D01*
X0112727Y0333781D01*
X0110890Y0333020D01*
X0109483Y0331613D01*
X0108722Y0329775D01*
X0108722Y0327786D01*
X0109483Y0325949D01*
X0110732Y0324700D01*
X0109716Y0325121D01*
X0107727Y0325121D01*
X0105890Y0324359D01*
X0104483Y0322953D01*
X0103722Y0321115D01*
X0103722Y0319126D01*
X0104483Y0317288D01*
X0105072Y0316700D01*
X0104986Y0316727D01*
X0104147Y0316860D01*
X0103297Y0316860D01*
X0102457Y0316727D01*
X0101649Y0316465D01*
X0100892Y0316079D01*
X0100204Y0315579D01*
X0099603Y0314978D01*
X0099130Y0314328D01*
X0103653Y0311716D01*
X0103466Y0311392D01*
X0098954Y0313997D01*
X0098717Y0313533D01*
X0098455Y0312725D01*
X0098322Y0311885D01*
X0098322Y0311035D01*
X0098455Y0310196D01*
X0098717Y0309388D01*
X0099103Y0308630D01*
X0099603Y0307943D01*
X0099766Y0307780D01*
X0099716Y0307800D01*
X0097727Y0307800D01*
X0095890Y0307039D01*
X0094483Y0305632D01*
X0093722Y0303795D01*
X0093722Y0301806D01*
X0094483Y0299968D01*
X0095890Y0298561D01*
X0097727Y0297800D01*
X0099716Y0297800D01*
X0101554Y0298561D01*
X0102881Y0299888D01*
X0115652Y0287117D01*
X0115652Y0230134D01*
X0116017Y0229252D01*
X0138152Y0207117D01*
X0138152Y0170134D01*
X0138517Y0169252D01*
X0139192Y0168576D01*
X0144603Y0163166D01*
X0144692Y0162951D01*
X0145392Y0162251D01*
X0145897Y0162042D01*
X0146017Y0161752D01*
X0153152Y0154617D01*
X0153152Y0111605D01*
X0146358Y0104811D01*
X0144717Y0104811D01*
X0143173Y0104172D01*
X0141991Y0102990D01*
X0141352Y0101446D01*
X0141352Y0099776D01*
X0141991Y0098232D01*
X0142812Y0097411D01*
X0138798Y0097411D01*
X0122366Y0113843D01*
X0122366Y0130003D01*
X0122676Y0130313D01*
X0123055Y0131228D01*
X0123055Y0132218D01*
X0122676Y0133133D01*
X0121998Y0133811D01*
X0143798Y0133811D01*
X0144852Y0134865D01*
X0148109Y0138122D01*
X0148547Y0138122D01*
X0149462Y0138501D01*
X0150162Y0139201D01*
X0150541Y0140116D01*
X0150541Y0141106D01*
X0150162Y0142021D01*
X0149462Y0142721D01*
X0148547Y0143100D01*
X0147557Y0143100D01*
X0146642Y0142721D01*
X0145942Y0142021D01*
X0145563Y0141106D01*
X0145563Y0140668D01*
X0142306Y0137411D01*
X0112306Y0137411D01*
X0111252Y0136357D01*
X0095495Y0120600D01*
X0095057Y0120600D01*
X0094142Y0120221D01*
X0093442Y0119521D01*
X0093063Y0118606D01*
X0093063Y0117616D01*
X0093442Y0116701D01*
X0094142Y0116001D01*
X0095057Y0115622D01*
X0096047Y0115622D01*
X0096962Y0116001D01*
X0097662Y0116701D01*
X0098041Y0117616D01*
X0098041Y0118054D01*
X0113798Y0133811D01*
X0119134Y0133811D01*
X0118456Y0133133D01*
X0118077Y0132218D01*
X0118077Y0131228D01*
X0118456Y0130313D01*
X0118752Y0130017D01*
X0118752Y0129787D01*
X0118766Y0129773D01*
X0118766Y0113871D01*
X0118752Y0113857D01*
X0118752Y0112457D01*
X0117311Y0113898D01*
X0117311Y0123850D01*
X0117621Y0124160D01*
X0118000Y0125075D01*
X0118000Y0126065D01*
X0117621Y0126980D01*
X0116921Y0127680D01*
X0116006Y0128059D01*
X0115016Y0128059D01*
X0114101Y0127680D01*
X0113401Y0126980D01*
X0113022Y0126065D01*
X0113022Y0125075D01*
X0113401Y0124160D01*
X0113711Y0123850D01*
X0113711Y0112411D01*
X0112272Y0112411D01*
X0111962Y0112721D01*
X0111047Y0113100D01*
X0110057Y0113100D01*
X0109142Y0112721D01*
X0108442Y0112021D01*
X0108063Y0111106D01*
X0108063Y0110116D01*
X0108442Y0109201D01*
X0109142Y0108501D01*
X0110057Y0108122D01*
X0111047Y0108122D01*
X0111962Y0108501D01*
X0112272Y0108811D01*
X0112306Y0108811D01*
X0137306Y0083811D01*
X0148798Y0083811D01*
X0149598Y0084611D01*
X0149795Y0084611D01*
X0152703Y0087520D01*
X0153173Y0087050D01*
X0154717Y0086411D01*
X0156387Y0086411D01*
X0157931Y0087050D01*
X0159113Y0088232D01*
X0159752Y0089776D01*
X0159752Y0091446D01*
X0159113Y0092990D01*
X0157931Y0094172D01*
X0156387Y0094811D01*
X0154717Y0094811D01*
X0153173Y0094172D01*
X0151991Y0092990D01*
X0151352Y0091446D01*
X0151352Y0091260D01*
X0149752Y0089660D01*
X0149752Y0093811D01*
X0151298Y0093811D01*
X0152352Y0094865D01*
X0154137Y0096651D01*
X0154717Y0096411D01*
X0156387Y0096411D01*
X0157931Y0097050D01*
X0159113Y0098232D01*
X0159752Y0099776D01*
X0159752Y0101446D01*
X0159113Y0102990D01*
X0157931Y0104172D01*
X0156387Y0104811D01*
X0154717Y0104811D01*
X0153173Y0104172D01*
X0151991Y0102990D01*
X0151352Y0101446D01*
X0151352Y0099776D01*
X0151592Y0099196D01*
X0149806Y0097411D01*
X0148292Y0097411D01*
X0149113Y0098232D01*
X0149752Y0099776D01*
X0149752Y0101417D01*
X0156546Y0108211D01*
X0166029Y0108211D01*
X0166911Y0108576D01*
X0167587Y0109252D01*
X0177587Y0119252D01*
X0177952Y0120134D01*
X0177952Y0146656D01*
X0178140Y0146077D01*
X0178519Y0145333D01*
X0179009Y0144658D01*
X0179599Y0144068D01*
X0180274Y0143578D01*
X0181017Y0143199D01*
X0181811Y0142942D01*
X0181882Y0142930D01*
X0180276Y0142265D01*
X0178898Y0140887D01*
X0178152Y0139086D01*
X0178152Y0137136D01*
X0178898Y0135335D01*
X0180276Y0133957D01*
X0182077Y0133211D01*
X0184027Y0133211D01*
X0185828Y0133957D01*
X0187206Y0135335D01*
X0187952Y0137136D01*
X0187952Y0139086D01*
X0187206Y0140887D01*
X0185828Y0142265D01*
X0184222Y0142930D01*
X0184293Y0142942D01*
X0185086Y0143199D01*
X0185830Y0143578D01*
X0186505Y0144068D01*
X0187095Y0144658D01*
X0187585Y0145333D01*
X0187964Y0146077D01*
X0188221Y0146870D01*
X0188352Y0147694D01*
X0188352Y0147711D01*
X0183452Y0147711D01*
X0183452Y0148511D01*
X0188352Y0148511D01*
X0188352Y0148528D01*
X0188221Y0149352D01*
X0187964Y0150146D01*
X0187585Y0150889D01*
X0187095Y0151564D01*
X0186505Y0152154D01*
X0185830Y0152644D01*
X0185086Y0153023D01*
X0184293Y0153281D01*
X0184222Y0153292D01*
X0185828Y0153957D01*
X0187206Y0155335D01*
X0187273Y0155496D01*
X0193308Y0149461D01*
X0193152Y0149086D01*
X0193152Y0147136D01*
X0193898Y0145335D01*
X0195276Y0143957D01*
X0196882Y0143292D01*
X0196811Y0143281D01*
X0196017Y0143023D01*
X0195274Y0142644D01*
X0194599Y0142154D01*
X0194009Y0141564D01*
X0193519Y0140889D01*
X0193140Y0140146D01*
X0192882Y0139352D01*
X0192752Y0138528D01*
X0192752Y0138511D01*
X0197652Y0138511D01*
X0197652Y0137711D01*
X0198452Y0137711D01*
X0198452Y0138511D01*
X0203352Y0138511D01*
X0203352Y0138528D01*
X0203221Y0139352D01*
X0202964Y0140146D01*
X0202585Y0140889D01*
X0202095Y0141564D01*
X0201505Y0142154D01*
X0200830Y0142644D01*
X0200086Y0143023D01*
X0199293Y0143281D01*
X0199222Y0143292D01*
X0200828Y0143957D01*
X0202206Y0145335D01*
X0202952Y0147136D01*
X0202952Y0149086D01*
X0202206Y0150887D01*
X0200828Y0152265D01*
X0199027Y0153011D01*
X0197077Y0153011D01*
X0196702Y0152855D01*
X0195829Y0153728D01*
X0197077Y0153211D01*
X0199027Y0153211D01*
X0200828Y0153957D01*
X0202206Y0155335D01*
X0202952Y0157136D01*
X0202952Y0159086D01*
X0202206Y0160887D01*
X0200828Y0162265D01*
X0199027Y0163011D01*
X0197077Y0163011D01*
X0195276Y0162265D01*
X0193898Y0160887D01*
X0193152Y0159086D01*
X0193152Y0157136D01*
X0193669Y0155888D01*
X0189411Y0160146D01*
X0188529Y0160511D01*
X0187362Y0160511D01*
X0187206Y0160887D01*
X0185828Y0162265D01*
X0184027Y0163011D01*
X0182077Y0163011D01*
X0180276Y0162265D01*
X0178898Y0160887D01*
X0178152Y0159086D01*
X0178152Y0157136D01*
X0178308Y0156761D01*
X0174192Y0152646D01*
X0173517Y0151971D01*
X0173152Y0151088D01*
X0173152Y0121605D01*
X0164558Y0113011D01*
X0157952Y0113011D01*
X0157952Y0156088D01*
X0157587Y0156971D01*
X0156911Y0157646D01*
X0149411Y0165146D01*
X0149121Y0165266D01*
X0148912Y0165771D01*
X0148212Y0166471D01*
X0147997Y0166560D01*
X0142952Y0171605D01*
X0142952Y0205711D01*
X0149558Y0205711D01*
X0153517Y0201752D01*
X0154192Y0201076D01*
X0155075Y0200711D01*
X0163529Y0200711D01*
X0164411Y0201076D01*
X0168671Y0205336D01*
X0169346Y0206011D01*
X0169712Y0206893D01*
X0169712Y0225458D01*
X0170368Y0225458D01*
X0171052Y0226142D01*
X0171736Y0225458D01*
X0177848Y0225458D01*
X0178551Y0226161D01*
X0178551Y0227811D01*
X0178752Y0227811D01*
X0178752Y0212331D01*
X0178442Y0212021D01*
X0178063Y0211106D01*
X0178063Y0210116D01*
X0178442Y0209201D01*
X0179142Y0208501D01*
X0180057Y0208122D01*
X0181047Y0208122D01*
X0181962Y0208501D01*
X0182662Y0209201D01*
X0183041Y0210116D01*
X0183041Y0211106D01*
X0182662Y0212021D01*
X0182352Y0212331D01*
X0182352Y0225458D01*
X0187868Y0225458D01*
X0188318Y0225909D01*
X0188453Y0225676D01*
X0188751Y0225378D01*
X0189115Y0225167D01*
X0189522Y0225058D01*
X0191692Y0225058D01*
X0191692Y0229011D01*
X0192892Y0229011D01*
X0192892Y0225058D01*
X0195062Y0225058D01*
X0195469Y0225167D01*
X0195834Y0225378D01*
X0196131Y0225676D01*
X0196342Y0226041D01*
X0196451Y0226448D01*
X0196451Y0229011D01*
X0192892Y0229011D01*
X0192892Y0230211D01*
X0191692Y0230211D01*
X0191692Y0234164D01*
X0189522Y0234164D01*
X0189115Y0234055D01*
X0188751Y0233844D01*
X0188453Y0233546D01*
X0188318Y0233313D01*
X0187868Y0233764D01*
X0181756Y0233764D01*
X0181053Y0233061D01*
X0181053Y0231411D01*
X0178551Y0231411D01*
X0178551Y0233061D01*
X0177848Y0233764D01*
X0171736Y0233764D01*
X0171052Y0233080D01*
X0170368Y0233764D01*
X0164256Y0233764D01*
X0163553Y0233061D01*
X0163553Y0226161D01*
X0164256Y0225458D01*
X0164912Y0225458D01*
X0164912Y0208365D01*
X0162058Y0205511D01*
X0156546Y0205511D01*
X0151911Y0210146D01*
X0151029Y0210511D01*
X0141546Y0210511D01*
X0120452Y0231605D01*
X0120452Y0288588D01*
X0120087Y0289471D01*
X0119411Y0290146D01*
X0104722Y0304835D01*
X0103840Y0305200D01*
X0103140Y0305200D01*
X0102961Y0305632D01*
X0102372Y0306221D01*
X0102457Y0306193D01*
X0103297Y0306060D01*
X0104147Y0306060D01*
X0104986Y0306193D01*
X0105795Y0306456D01*
X0106552Y0306842D01*
X0107240Y0307341D01*
X0107841Y0307943D01*
X0108313Y0308593D01*
X0103790Y0311204D01*
X0103978Y0311529D01*
X0108490Y0308924D01*
X0108726Y0309388D01*
X0108989Y0310196D01*
X0109122Y0311035D01*
X0109122Y0311885D01*
X0108989Y0312725D01*
X0108726Y0313533D01*
X0108340Y0314291D01*
X0107841Y0314978D01*
X0107678Y0315141D01*
X0107727Y0315121D01*
X0109716Y0315121D01*
X0110149Y0315300D01*
X0130652Y0294796D01*
X0130652Y0282634D01*
X0131017Y0281752D01*
X0131692Y0281076D01*
X0131692Y0281076D01*
X0134658Y0278111D01*
X0129192Y0272646D01*
X0128517Y0271971D01*
X0128152Y0271088D01*
X0128152Y0257634D01*
X0128517Y0256752D01*
X0134758Y0250511D01*
X0132575Y0250511D01*
X0131692Y0250146D01*
X0131017Y0249471D01*
X0127277Y0245730D01*
X0126912Y0244848D01*
X0126912Y0239764D01*
X0126256Y0239764D01*
X0125553Y0239061D01*
X0125553Y0232161D01*
X0126256Y0231458D01*
X0126912Y0231458D01*
X0126912Y0226374D01*
X0127277Y0225492D01*
X0128517Y0224252D01*
X0129192Y0223576D01*
X0130075Y0223211D01*
X0147058Y0223211D01*
X0155652Y0214617D01*
X0155652Y0208821D01*
X0155563Y0208606D01*
X0155563Y0207616D01*
X0155942Y0206701D01*
X0156642Y0206001D01*
X0157557Y0205622D01*
X0158547Y0205622D01*
X0159462Y0206001D01*
X0160162Y0206701D01*
X0160541Y0207616D01*
X0160541Y0208606D01*
X0160452Y0208821D01*
X0160452Y0216088D01*
X0160087Y0216971D01*
X0159411Y0217646D01*
X0149411Y0227646D01*
X0148529Y0228011D01*
X0131712Y0228011D01*
X0131712Y0231458D01*
X0132368Y0231458D01*
X0133052Y0232142D01*
X0133736Y0231458D01*
X0139848Y0231458D01*
X0140551Y0232161D01*
X0140551Y0233122D01*
X0141047Y0233122D01*
X0141262Y0233211D01*
X0143053Y0233211D01*
X0143053Y0232161D01*
X0143756Y0231458D01*
X0149868Y0231458D01*
X0150318Y0231909D01*
X0150453Y0231676D01*
X0150751Y0231378D01*
X0151115Y0231167D01*
X0151522Y0231058D01*
X0153692Y0231058D01*
X0153692Y0235011D01*
X0154892Y0235011D01*
X0154892Y0231058D01*
X0157062Y0231058D01*
X0157469Y0231167D01*
X0157834Y0231378D01*
X0158131Y0231676D01*
X0158342Y0232041D01*
X0158451Y0232448D01*
X0158451Y0235011D01*
X0154892Y0235011D01*
X0154892Y0236211D01*
X0153692Y0236211D01*
X0153692Y0240164D01*
X0151522Y0240164D01*
X0151115Y0240055D01*
X0150751Y0239844D01*
X0150453Y0239546D01*
X0150318Y0239313D01*
X0149868Y0239764D01*
X0143756Y0239764D01*
X0143053Y0239061D01*
X0143053Y0238011D01*
X0141262Y0238011D01*
X0141047Y0238100D01*
X0140551Y0238100D01*
X0140551Y0239061D01*
X0139848Y0239764D01*
X0133736Y0239764D01*
X0133052Y0239080D01*
X0132368Y0239764D01*
X0131712Y0239764D01*
X0131712Y0243377D01*
X0134046Y0245711D01*
X0136242Y0245711D01*
X0136398Y0245335D01*
X0137776Y0243957D01*
X0139577Y0243211D01*
X0141527Y0243211D01*
X0143328Y0243957D01*
X0144706Y0245335D01*
X0145371Y0246941D01*
X0145382Y0246870D01*
X0145640Y0246077D01*
X0146019Y0245333D01*
X0146509Y0244658D01*
X0147099Y0244068D01*
X0147774Y0243578D01*
X0148517Y0243199D01*
X0149311Y0242942D01*
X0150135Y0242811D01*
X0150152Y0242811D01*
X0150152Y0247711D01*
X0150952Y0247711D01*
X0150952Y0242811D01*
X0150969Y0242811D01*
X0151793Y0242942D01*
X0152586Y0243199D01*
X0153330Y0243578D01*
X0154005Y0244068D01*
X0154595Y0244658D01*
X0155085Y0245333D01*
X0155464Y0246077D01*
X0155721Y0246870D01*
X0155733Y0246941D01*
X0156398Y0245335D01*
X0157776Y0243957D01*
X0159577Y0243211D01*
X0160406Y0243211D01*
X0166252Y0237365D01*
X0167306Y0236311D01*
X0181332Y0236311D01*
X0181642Y0236001D01*
X0182557Y0235622D01*
X0183547Y0235622D01*
X0184462Y0236001D01*
X0185162Y0236701D01*
X0185541Y0237616D01*
X0185541Y0238606D01*
X0185162Y0239521D01*
X0184462Y0240221D01*
X0183547Y0240600D01*
X0182557Y0240600D01*
X0181642Y0240221D01*
X0181332Y0239911D01*
X0168798Y0239911D01*
X0164040Y0244669D01*
X0164706Y0245335D01*
X0165452Y0247136D01*
X0165452Y0249086D01*
X0165048Y0250061D01*
X0167352Y0252365D01*
X0167352Y0254381D01*
X0167776Y0253957D01*
X0169577Y0253211D01*
X0171527Y0253211D01*
X0173328Y0253957D01*
X0173752Y0254381D01*
X0173752Y0253857D01*
X0172502Y0252607D01*
X0171527Y0253011D01*
X0169577Y0253011D01*
X0167776Y0252265D01*
X0166398Y0250887D01*
X0165652Y0249086D01*
X0165652Y0247136D01*
X0166398Y0245335D01*
X0167776Y0243957D01*
X0169577Y0243211D01*
X0171527Y0243211D01*
X0173328Y0243957D01*
X0174706Y0245335D01*
X0175452Y0247136D01*
X0175452Y0249086D01*
X0175048Y0250061D01*
X0177352Y0252365D01*
X0177352Y0254381D01*
X0177776Y0253957D01*
X0179577Y0253211D01*
X0181527Y0253211D01*
X0183328Y0253957D01*
X0183752Y0254381D01*
X0183752Y0253857D01*
X0182502Y0252607D01*
X0181527Y0253011D01*
X0179577Y0253011D01*
X0177776Y0252265D01*
X0176398Y0250887D01*
X0175652Y0249086D01*
X0175652Y0247136D01*
X0176398Y0245335D01*
X0177776Y0243957D01*
X0179577Y0243211D01*
X0181527Y0243211D01*
X0183328Y0243957D01*
X0184706Y0245335D01*
X0185452Y0247136D01*
X0185452Y0249086D01*
X0185048Y0250061D01*
X0187352Y0252365D01*
X0187352Y0273857D01*
X0186298Y0274911D01*
X0185048Y0276161D01*
X0185452Y0277136D01*
X0185452Y0279086D01*
X0184706Y0280887D01*
X0183328Y0282265D01*
X0181527Y0283011D01*
X0179577Y0283011D01*
X0177776Y0282265D01*
X0176398Y0280887D01*
X0175652Y0279086D01*
X0175652Y0277136D01*
X0176398Y0275335D01*
X0177776Y0273957D01*
X0179577Y0273211D01*
X0181527Y0273211D01*
X0182502Y0273615D01*
X0183752Y0272365D01*
X0183752Y0261841D01*
X0183328Y0262265D01*
X0181527Y0263011D01*
X0179577Y0263011D01*
X0177776Y0262265D01*
X0177352Y0261841D01*
X0177352Y0273857D01*
X0176298Y0274911D01*
X0175048Y0276161D01*
X0175452Y0277136D01*
X0175452Y0279086D01*
X0174706Y0280887D01*
X0173328Y0282265D01*
X0171527Y0283011D01*
X0169577Y0283011D01*
X0167776Y0282265D01*
X0166398Y0280887D01*
X0165652Y0279086D01*
X0165652Y0277136D01*
X0166398Y0275335D01*
X0167776Y0273957D01*
X0169577Y0273211D01*
X0171527Y0273211D01*
X0172502Y0273615D01*
X0173752Y0272365D01*
X0173752Y0261841D01*
X0173328Y0262265D01*
X0171527Y0263011D01*
X0169577Y0263011D01*
X0167776Y0262265D01*
X0167352Y0261841D01*
X0167352Y0273857D01*
X0166298Y0274911D01*
X0165048Y0276161D01*
X0165452Y0277136D01*
X0165452Y0279086D01*
X0164706Y0280887D01*
X0163328Y0282265D01*
X0161527Y0283011D01*
X0159577Y0283011D01*
X0157776Y0282265D01*
X0156398Y0280887D01*
X0155733Y0279281D01*
X0155721Y0279352D01*
X0155464Y0280146D01*
X0155085Y0280889D01*
X0154595Y0281564D01*
X0154005Y0282154D01*
X0153330Y0282644D01*
X0152586Y0283023D01*
X0151793Y0283281D01*
X0151722Y0283292D01*
X0153328Y0283957D01*
X0154706Y0285335D01*
X0155452Y0287136D01*
X0155452Y0289086D01*
X0154706Y0290887D01*
X0153328Y0292265D01*
X0151527Y0293011D01*
X0149577Y0293011D01*
X0147776Y0292265D01*
X0146398Y0290887D01*
X0145652Y0289086D01*
X0145652Y0287136D01*
X0146398Y0285335D01*
X0147776Y0283957D01*
X0149382Y0283292D01*
X0149311Y0283281D01*
X0148517Y0283023D01*
X0147774Y0282644D01*
X0147099Y0282154D01*
X0146509Y0281564D01*
X0146019Y0280889D01*
X0145640Y0280146D01*
X0145382Y0279352D01*
X0145371Y0279281D01*
X0144706Y0280887D01*
X0143328Y0282265D01*
X0141527Y0283011D01*
X0139577Y0283011D01*
X0137776Y0282265D01*
X0137534Y0282023D01*
X0135452Y0284105D01*
X0135452Y0296268D01*
X0135087Y0297150D01*
X0113543Y0318694D01*
X0113722Y0319126D01*
X0113722Y0321115D01*
X0112961Y0322953D01*
X0111712Y0324201D01*
X0112388Y0323525D02*
X0204623Y0323525D01*
X0205494Y0322327D02*
X0113220Y0322327D01*
X0113716Y0321128D02*
X0206364Y0321128D01*
X0207235Y0319930D02*
X0113722Y0319930D01*
X0113558Y0318731D02*
X0207847Y0318731D01*
X0207241Y0319922D02*
X0210961Y0312622D01*
X0213493Y0304829D01*
X0214774Y0296736D01*
X0214935Y0292639D01*
X0214935Y0127284D01*
X0214774Y0123187D01*
X0213493Y0115094D01*
X0210961Y0107301D01*
X0207241Y0100000D01*
X0202424Y0093371D01*
X0196630Y0087577D01*
X0190001Y0082761D01*
X0182700Y0079041D01*
X0174907Y0076509D01*
X0166814Y0075227D01*
X0162717Y0075066D01*
X0126693Y0075066D01*
X0126679Y0075072D01*
X0126117Y0075066D01*
X0125554Y0075066D01*
X0125540Y0075060D01*
X0125525Y0075060D01*
X0125008Y0074840D01*
X0124489Y0074625D01*
X0124478Y0074614D01*
X0124464Y0074608D01*
X0124071Y0074207D01*
X0124050Y0074186D01*
X0118557Y0068801D01*
X0106930Y0058686D01*
X0100688Y0054073D01*
X0101652Y0056400D01*
X0101652Y0059822D01*
X0100343Y0062983D01*
X0097923Y0065402D01*
X0094763Y0066711D01*
X0091341Y0066711D01*
X0088180Y0065402D01*
X0085761Y0062983D01*
X0084452Y0059822D01*
X0084452Y0056400D01*
X0085761Y0053240D01*
X0088180Y0050820D01*
X0091341Y0049511D01*
X0094511Y0049511D01*
X0084519Y0043289D01*
X0046419Y0105201D01*
X0057069Y0112116D01*
X0057069Y0112116D01*
X0067426Y0120603D01*
X0076784Y0130181D01*
X0076784Y0130181D01*
X0085029Y0140732D01*
X0092059Y0152129D01*
X0097789Y0164232D01*
X0102149Y0176893D01*
X0105085Y0189957D01*
X0106562Y0203266D01*
X0106562Y0216657D01*
X0105085Y0229965D01*
X0105085Y0229965D01*
X0102149Y0243030D01*
X0097789Y0255691D01*
X0092059Y0267794D01*
X0085029Y0279190D01*
X0085029Y0279190D01*
X0076784Y0289742D01*
X0074756Y0291818D01*
X0114384Y0354757D01*
X0118557Y0351125D01*
X0124048Y0345739D01*
X0124071Y0345716D01*
X0124463Y0345315D01*
X0124478Y0345309D01*
X0124489Y0345298D01*
X0125008Y0345083D01*
X0125525Y0344863D01*
X0125540Y0344863D01*
X0125554Y0344857D01*
X0126116Y0344857D01*
X0126678Y0344851D01*
X0126693Y0344857D01*
X0162717Y0344857D01*
X0166814Y0344696D01*
X0174907Y0343414D01*
X0182700Y0340882D01*
X0190001Y0337162D01*
X0196630Y0332346D01*
X0202424Y0326552D01*
X0207241Y0319922D01*
X0208458Y0317533D02*
X0114704Y0317533D01*
X0115902Y0316334D02*
X0209069Y0316334D01*
X0209679Y0315136D02*
X0117101Y0315136D01*
X0118299Y0313937D02*
X0210290Y0313937D01*
X0210901Y0312739D02*
X0119498Y0312739D01*
X0120696Y0311540D02*
X0211312Y0311540D01*
X0211701Y0310342D02*
X0121895Y0310342D01*
X0123093Y0309143D02*
X0212091Y0309143D01*
X0212480Y0307945D02*
X0124292Y0307945D01*
X0125490Y0306746D02*
X0212870Y0306746D01*
X0213259Y0305548D02*
X0126689Y0305548D01*
X0127887Y0304349D02*
X0213569Y0304349D01*
X0213758Y0303151D02*
X0129086Y0303151D01*
X0130284Y0301952D02*
X0213948Y0301952D01*
X0214138Y0300754D02*
X0131483Y0300754D01*
X0132681Y0299555D02*
X0214328Y0299555D01*
X0214518Y0298357D02*
X0133880Y0298357D01*
X0135078Y0297158D02*
X0214708Y0297158D01*
X0214805Y0295960D02*
X0135452Y0295960D01*
X0135452Y0294761D02*
X0214852Y0294761D01*
X0214899Y0293563D02*
X0201328Y0293563D01*
X0199763Y0294211D02*
X0202923Y0292902D01*
X0205343Y0290483D01*
X0206652Y0287322D01*
X0206652Y0283900D01*
X0205343Y0280740D01*
X0202923Y0278320D01*
X0199763Y0277011D01*
X0196341Y0277011D01*
X0193180Y0278320D01*
X0190761Y0280740D01*
X0189452Y0283900D01*
X0189452Y0287322D01*
X0190761Y0290483D01*
X0193180Y0292902D01*
X0196341Y0294211D01*
X0199763Y0294211D01*
X0203461Y0292364D02*
X0214935Y0292364D01*
X0214935Y0291166D02*
X0204660Y0291166D01*
X0205556Y0289967D02*
X0214935Y0289967D01*
X0214935Y0288769D02*
X0206053Y0288769D01*
X0206549Y0287570D02*
X0214935Y0287570D01*
X0214935Y0286372D02*
X0206652Y0286372D01*
X0206652Y0285173D02*
X0214935Y0285173D01*
X0214935Y0283975D02*
X0206652Y0283975D01*
X0206186Y0282776D02*
X0214935Y0282776D01*
X0214935Y0281578D02*
X0205690Y0281578D01*
X0204982Y0280379D02*
X0214935Y0280379D01*
X0214935Y0279181D02*
X0203784Y0279181D01*
X0202107Y0277982D02*
X0214935Y0277982D01*
X0214935Y0276784D02*
X0185306Y0276784D01*
X0185452Y0277982D02*
X0193997Y0277982D01*
X0192320Y0279181D02*
X0185413Y0279181D01*
X0184916Y0280379D02*
X0191122Y0280379D01*
X0190414Y0281578D02*
X0184015Y0281578D01*
X0182094Y0282776D02*
X0189918Y0282776D01*
X0189452Y0283975D02*
X0183345Y0283975D01*
X0183328Y0283957D02*
X0184706Y0285335D01*
X0185452Y0287136D01*
X0185452Y0289086D01*
X0184706Y0290887D01*
X0183328Y0292265D01*
X0181527Y0293011D01*
X0179577Y0293011D01*
X0177776Y0292265D01*
X0176398Y0290887D01*
X0175652Y0289086D01*
X0175652Y0287136D01*
X0176398Y0285335D01*
X0177776Y0283957D01*
X0179577Y0283211D01*
X0181527Y0283211D01*
X0183328Y0283957D01*
X0184544Y0285173D02*
X0189452Y0285173D01*
X0189452Y0286372D02*
X0185135Y0286372D01*
X0185452Y0287570D02*
X0189555Y0287570D01*
X0190051Y0288769D02*
X0185452Y0288769D01*
X0185087Y0289967D02*
X0190548Y0289967D01*
X0191444Y0291166D02*
X0184427Y0291166D01*
X0183088Y0292364D02*
X0192643Y0292364D01*
X0194776Y0293563D02*
X0135452Y0293563D01*
X0135452Y0292364D02*
X0138016Y0292364D01*
X0137776Y0292265D02*
X0136398Y0290887D01*
X0135652Y0289086D01*
X0135652Y0287136D01*
X0136398Y0285335D01*
X0137776Y0283957D01*
X0139577Y0283211D01*
X0141527Y0283211D01*
X0143328Y0283957D01*
X0144706Y0285335D01*
X0145452Y0287136D01*
X0145452Y0289086D01*
X0144706Y0290887D01*
X0143328Y0292265D01*
X0141527Y0293011D01*
X0139577Y0293011D01*
X0137776Y0292265D01*
X0136677Y0291166D02*
X0135452Y0291166D01*
X0135452Y0289967D02*
X0136017Y0289967D01*
X0135652Y0288769D02*
X0135452Y0288769D01*
X0135452Y0287570D02*
X0135652Y0287570D01*
X0135452Y0286372D02*
X0135969Y0286372D01*
X0135452Y0285173D02*
X0136560Y0285173D01*
X0135582Y0283975D02*
X0137759Y0283975D01*
X0136781Y0282776D02*
X0139010Y0282776D01*
X0142094Y0282776D02*
X0148033Y0282776D01*
X0147759Y0283975D02*
X0143345Y0283975D01*
X0144544Y0285173D02*
X0146560Y0285173D01*
X0145969Y0286372D02*
X0145135Y0286372D01*
X0145452Y0287570D02*
X0145652Y0287570D01*
X0145652Y0288769D02*
X0145452Y0288769D01*
X0145087Y0289967D02*
X0146017Y0289967D01*
X0146677Y0291166D02*
X0144427Y0291166D01*
X0143088Y0292364D02*
X0148016Y0292364D01*
X0153088Y0292364D02*
X0158016Y0292364D01*
X0157776Y0292265D02*
X0156398Y0290887D01*
X0155652Y0289086D01*
X0155652Y0287136D01*
X0156398Y0285335D01*
X0157776Y0283957D01*
X0159577Y0283211D01*
X0161527Y0283211D01*
X0163328Y0283957D01*
X0164706Y0285335D01*
X0165452Y0287136D01*
X0165452Y0289086D01*
X0164706Y0290887D01*
X0163328Y0292265D01*
X0161527Y0293011D01*
X0159577Y0293011D01*
X0157776Y0292265D01*
X0156677Y0291166D02*
X0154427Y0291166D01*
X0155087Y0289967D02*
X0156017Y0289967D01*
X0155652Y0288769D02*
X0155452Y0288769D01*
X0155452Y0287570D02*
X0155652Y0287570D01*
X0155969Y0286372D02*
X0155135Y0286372D01*
X0154544Y0285173D02*
X0156560Y0285173D01*
X0157759Y0283975D02*
X0153345Y0283975D01*
X0153071Y0282776D02*
X0159010Y0282776D01*
X0157089Y0281578D02*
X0154581Y0281578D01*
X0155345Y0280379D02*
X0156188Y0280379D01*
X0155733Y0276941D02*
X0156398Y0275335D01*
X0157776Y0273957D01*
X0159577Y0273211D01*
X0161527Y0273211D01*
X0162502Y0273615D01*
X0163752Y0272365D01*
X0163752Y0261841D01*
X0163328Y0262265D01*
X0161527Y0263011D01*
X0159577Y0263011D01*
X0157776Y0262265D01*
X0156398Y0260887D01*
X0155652Y0259086D01*
X0155652Y0257136D01*
X0156398Y0255335D01*
X0157776Y0253957D01*
X0159577Y0253211D01*
X0161527Y0253211D01*
X0163328Y0253957D01*
X0163752Y0254381D01*
X0163752Y0253857D01*
X0162502Y0252607D01*
X0161527Y0253011D01*
X0159577Y0253011D01*
X0157776Y0252265D01*
X0156398Y0250887D01*
X0155733Y0249281D01*
X0155721Y0249352D01*
X0155464Y0250146D01*
X0155085Y0250889D01*
X0154595Y0251564D01*
X0154005Y0252154D01*
X0153330Y0252644D01*
X0152586Y0253023D01*
X0151793Y0253281D01*
X0151722Y0253292D01*
X0153328Y0253957D01*
X0154706Y0255335D01*
X0155452Y0257136D01*
X0155452Y0259086D01*
X0154706Y0260887D01*
X0153328Y0262265D01*
X0151527Y0263011D01*
X0149577Y0263011D01*
X0147776Y0262265D01*
X0146398Y0260887D01*
X0145652Y0259086D01*
X0145652Y0257136D01*
X0146398Y0255335D01*
X0147776Y0253957D01*
X0149382Y0253292D01*
X0149311Y0253281D01*
X0148517Y0253023D01*
X0147774Y0252644D01*
X0147099Y0252154D01*
X0146509Y0251564D01*
X0146019Y0250889D01*
X0145640Y0250146D01*
X0145382Y0249352D01*
X0145371Y0249281D01*
X0144706Y0250887D01*
X0143328Y0252265D01*
X0141527Y0253011D01*
X0139577Y0253011D01*
X0139202Y0252855D01*
X0138329Y0253728D01*
X0139577Y0253211D01*
X0141527Y0253211D01*
X0143328Y0253957D01*
X0144706Y0255335D01*
X0145452Y0257136D01*
X0145452Y0259086D01*
X0144706Y0260887D01*
X0143328Y0262265D01*
X0141527Y0263011D01*
X0139577Y0263011D01*
X0137776Y0262265D01*
X0136398Y0260887D01*
X0135652Y0259086D01*
X0135652Y0257136D01*
X0136169Y0255888D01*
X0132952Y0259105D01*
X0132952Y0269617D01*
X0137534Y0274199D01*
X0137776Y0273957D01*
X0139577Y0273211D01*
X0141527Y0273211D01*
X0143328Y0273957D01*
X0144706Y0275335D01*
X0145371Y0276941D01*
X0145382Y0276870D01*
X0145640Y0276077D01*
X0146019Y0275333D01*
X0146509Y0274658D01*
X0147099Y0274068D01*
X0147774Y0273578D01*
X0148517Y0273199D01*
X0149311Y0272942D01*
X0150135Y0272811D01*
X0150152Y0272811D01*
X0150152Y0277711D01*
X0150952Y0277711D01*
X0150952Y0272811D01*
X0150969Y0272811D01*
X0151793Y0272942D01*
X0152586Y0273199D01*
X0153330Y0273578D01*
X0154005Y0274068D01*
X0154595Y0274658D01*
X0155085Y0275333D01*
X0155464Y0276077D01*
X0155721Y0276870D01*
X0155733Y0276941D01*
X0155693Y0276784D02*
X0155798Y0276784D01*
X0156295Y0275585D02*
X0155213Y0275585D01*
X0154323Y0274386D02*
X0157347Y0274386D01*
X0155552Y0273111D02*
X0155552Y0253111D01*
X0150552Y0248111D01*
X0150152Y0246821D02*
X0150952Y0246821D01*
X0150952Y0245622D02*
X0150152Y0245622D01*
X0150152Y0244424D02*
X0150952Y0244424D01*
X0150952Y0243225D02*
X0150152Y0243225D01*
X0148467Y0243225D02*
X0141561Y0243225D01*
X0139543Y0243225D02*
X0131712Y0243225D01*
X0131712Y0242027D02*
X0161591Y0242027D01*
X0162789Y0240828D02*
X0131712Y0240828D01*
X0132502Y0239630D02*
X0133602Y0239630D01*
X0132759Y0244424D02*
X0137310Y0244424D01*
X0136279Y0245622D02*
X0133957Y0245622D01*
X0132346Y0250416D02*
X0120452Y0250416D01*
X0120452Y0249218D02*
X0130765Y0249218D01*
X0129566Y0248019D02*
X0120452Y0248019D01*
X0120452Y0246821D02*
X0128368Y0246821D01*
X0127232Y0245622D02*
X0120452Y0245622D01*
X0120452Y0244424D02*
X0126912Y0244424D01*
X0126912Y0243225D02*
X0120452Y0243225D01*
X0120452Y0242027D02*
X0126912Y0242027D01*
X0126912Y0240828D02*
X0120452Y0240828D01*
X0120452Y0239630D02*
X0126122Y0239630D01*
X0125553Y0238431D02*
X0120452Y0238431D01*
X0120452Y0237233D02*
X0125553Y0237233D01*
X0125553Y0236034D02*
X0120452Y0236034D01*
X0120452Y0234836D02*
X0125553Y0234836D01*
X0125553Y0233637D02*
X0120452Y0233637D01*
X0120452Y0232439D02*
X0125553Y0232439D01*
X0126912Y0231240D02*
X0120817Y0231240D01*
X0122016Y0230042D02*
X0126912Y0230042D01*
X0126912Y0228843D02*
X0123214Y0228843D01*
X0124413Y0227645D02*
X0126912Y0227645D01*
X0126912Y0226446D02*
X0125611Y0226446D01*
X0126810Y0225248D02*
X0127521Y0225248D01*
X0128008Y0224049D02*
X0128720Y0224049D01*
X0129207Y0222851D02*
X0147418Y0222851D01*
X0148617Y0221652D02*
X0130405Y0221652D01*
X0131604Y0220453D02*
X0149815Y0220453D01*
X0151014Y0219255D02*
X0132802Y0219255D01*
X0134001Y0218056D02*
X0152212Y0218056D01*
X0153411Y0216858D02*
X0135199Y0216858D01*
X0136398Y0215659D02*
X0154609Y0215659D01*
X0155652Y0214461D02*
X0137596Y0214461D01*
X0138795Y0213262D02*
X0155652Y0213262D01*
X0155652Y0212064D02*
X0139993Y0212064D01*
X0141192Y0210865D02*
X0155652Y0210865D01*
X0155652Y0209667D02*
X0152390Y0209667D01*
X0153589Y0208468D02*
X0155563Y0208468D01*
X0155706Y0207270D02*
X0154787Y0207270D01*
X0155986Y0206071D02*
X0156572Y0206071D01*
X0159532Y0206071D02*
X0162618Y0206071D01*
X0163817Y0207270D02*
X0160398Y0207270D01*
X0160541Y0208468D02*
X0164912Y0208468D01*
X0164912Y0209667D02*
X0160452Y0209667D01*
X0160452Y0210865D02*
X0164912Y0210865D01*
X0164912Y0212064D02*
X0160452Y0212064D01*
X0160452Y0213262D02*
X0164912Y0213262D01*
X0164912Y0214461D02*
X0160452Y0214461D01*
X0160452Y0215659D02*
X0164912Y0215659D01*
X0164912Y0216858D02*
X0160133Y0216858D01*
X0159001Y0218056D02*
X0164912Y0218056D01*
X0164912Y0219255D02*
X0157802Y0219255D01*
X0156604Y0220453D02*
X0164912Y0220453D01*
X0164912Y0221652D02*
X0155405Y0221652D01*
X0154207Y0222851D02*
X0164912Y0222851D01*
X0164912Y0224049D02*
X0153008Y0224049D01*
X0151810Y0225248D02*
X0164912Y0225248D01*
X0163553Y0226446D02*
X0150611Y0226446D01*
X0149413Y0227645D02*
X0163553Y0227645D01*
X0163553Y0228843D02*
X0131712Y0228843D01*
X0131712Y0230042D02*
X0163553Y0230042D01*
X0163553Y0231240D02*
X0157595Y0231240D01*
X0158449Y0232439D02*
X0163553Y0232439D01*
X0164129Y0233637D02*
X0158451Y0233637D01*
X0158451Y0234836D02*
X0214935Y0234836D01*
X0214935Y0236034D02*
X0184495Y0236034D01*
X0185382Y0237233D02*
X0214935Y0237233D01*
X0214935Y0238431D02*
X0185541Y0238431D01*
X0185053Y0239630D02*
X0214935Y0239630D01*
X0214935Y0240828D02*
X0167880Y0240828D01*
X0166682Y0242027D02*
X0214935Y0242027D01*
X0214935Y0243225D02*
X0181561Y0243225D01*
X0179543Y0243225D02*
X0171561Y0243225D01*
X0169543Y0243225D02*
X0165483Y0243225D01*
X0164285Y0244424D02*
X0167310Y0244424D01*
X0166279Y0245622D02*
X0164825Y0245622D01*
X0165321Y0246821D02*
X0165783Y0246821D01*
X0165652Y0248019D02*
X0165452Y0248019D01*
X0165397Y0249218D02*
X0165707Y0249218D01*
X0165403Y0250416D02*
X0166203Y0250416D01*
X0166601Y0251615D02*
X0167126Y0251615D01*
X0167352Y0252813D02*
X0169100Y0252813D01*
X0167722Y0254012D02*
X0167352Y0254012D01*
X0165552Y0253111D02*
X0160552Y0248111D01*
X0160552Y0245611D01*
X0168052Y0238111D01*
X0183052Y0238111D01*
X0181609Y0236034D02*
X0154892Y0236034D01*
X0154892Y0236211D02*
X0158451Y0236211D01*
X0158451Y0238774D01*
X0158342Y0239181D01*
X0158131Y0239546D01*
X0157834Y0239844D01*
X0157469Y0240055D01*
X0157062Y0240164D01*
X0154892Y0240164D01*
X0154892Y0236211D01*
X0154892Y0237233D02*
X0153692Y0237233D01*
X0153692Y0238431D02*
X0154892Y0238431D01*
X0154892Y0239630D02*
X0153692Y0239630D01*
X0152637Y0243225D02*
X0159543Y0243225D01*
X0157310Y0244424D02*
X0154360Y0244424D01*
X0155232Y0245622D02*
X0156279Y0245622D01*
X0155783Y0246821D02*
X0155705Y0246821D01*
X0155326Y0250416D02*
X0156203Y0250416D01*
X0157126Y0251615D02*
X0154544Y0251615D01*
X0152997Y0252813D02*
X0159100Y0252813D01*
X0157722Y0254012D02*
X0153382Y0254012D01*
X0154581Y0255210D02*
X0156523Y0255210D01*
X0155953Y0256409D02*
X0155151Y0256409D01*
X0155452Y0257607D02*
X0155652Y0257607D01*
X0155652Y0258806D02*
X0155452Y0258806D01*
X0155071Y0260004D02*
X0156032Y0260004D01*
X0156714Y0261203D02*
X0154390Y0261203D01*
X0152998Y0262401D02*
X0158106Y0262401D01*
X0162998Y0262401D02*
X0163752Y0262401D01*
X0163752Y0263600D02*
X0132952Y0263600D01*
X0132952Y0264798D02*
X0163752Y0264798D01*
X0163752Y0265997D02*
X0132952Y0265997D01*
X0132952Y0267195D02*
X0163752Y0267195D01*
X0163752Y0268394D02*
X0132952Y0268394D01*
X0132952Y0269592D02*
X0163752Y0269592D01*
X0163752Y0270791D02*
X0134126Y0270791D01*
X0135325Y0271989D02*
X0163752Y0271989D01*
X0162929Y0273188D02*
X0152552Y0273188D01*
X0150952Y0273188D02*
X0150152Y0273188D01*
X0150152Y0274386D02*
X0150952Y0274386D01*
X0150952Y0275585D02*
X0150152Y0275585D01*
X0150152Y0276784D02*
X0150952Y0276784D01*
X0150552Y0278111D02*
X0155552Y0273111D01*
X0160552Y0278111D02*
X0165552Y0273111D01*
X0165552Y0253111D01*
X0163752Y0254012D02*
X0163382Y0254012D01*
X0162709Y0252813D02*
X0162004Y0252813D01*
X0167352Y0262401D02*
X0168106Y0262401D01*
X0167352Y0263600D02*
X0173752Y0263600D01*
X0173752Y0264798D02*
X0167352Y0264798D01*
X0167352Y0265997D02*
X0173752Y0265997D01*
X0173752Y0267195D02*
X0167352Y0267195D01*
X0167352Y0268394D02*
X0173752Y0268394D01*
X0173752Y0269592D02*
X0167352Y0269592D01*
X0167352Y0270791D02*
X0173752Y0270791D01*
X0173752Y0271989D02*
X0167352Y0271989D01*
X0167352Y0273188D02*
X0172929Y0273188D01*
X0175552Y0273111D02*
X0170552Y0278111D01*
X0167089Y0281578D02*
X0164015Y0281578D01*
X0164916Y0280379D02*
X0166188Y0280379D01*
X0165691Y0279181D02*
X0165413Y0279181D01*
X0165452Y0277982D02*
X0165652Y0277982D01*
X0165798Y0276784D02*
X0165306Y0276784D01*
X0165624Y0275585D02*
X0166295Y0275585D01*
X0166822Y0274386D02*
X0167347Y0274386D01*
X0169010Y0282776D02*
X0162094Y0282776D01*
X0163345Y0283975D02*
X0167759Y0283975D01*
X0167776Y0283957D02*
X0169577Y0283211D01*
X0171527Y0283211D01*
X0173328Y0283957D01*
X0174706Y0285335D01*
X0175452Y0287136D01*
X0175452Y0289086D01*
X0174706Y0290887D01*
X0173328Y0292265D01*
X0171527Y0293011D01*
X0169577Y0293011D01*
X0167776Y0292265D01*
X0166398Y0290887D01*
X0165652Y0289086D01*
X0165652Y0287136D01*
X0166398Y0285335D01*
X0167776Y0283957D01*
X0166560Y0285173D02*
X0164544Y0285173D01*
X0165135Y0286372D02*
X0165969Y0286372D01*
X0165652Y0287570D02*
X0165452Y0287570D01*
X0165452Y0288769D02*
X0165652Y0288769D01*
X0166017Y0289967D02*
X0165087Y0289967D01*
X0164427Y0291166D02*
X0166677Y0291166D01*
X0168016Y0292364D02*
X0163088Y0292364D01*
X0173088Y0292364D02*
X0178016Y0292364D01*
X0176677Y0291166D02*
X0174427Y0291166D01*
X0175087Y0289967D02*
X0176017Y0289967D01*
X0175652Y0288769D02*
X0175452Y0288769D01*
X0175452Y0287570D02*
X0175652Y0287570D01*
X0175969Y0286372D02*
X0175135Y0286372D01*
X0174544Y0285173D02*
X0176560Y0285173D01*
X0177759Y0283975D02*
X0173345Y0283975D01*
X0172094Y0282776D02*
X0179010Y0282776D01*
X0177089Y0281578D02*
X0174015Y0281578D01*
X0174916Y0280379D02*
X0176188Y0280379D01*
X0175691Y0279181D02*
X0175413Y0279181D01*
X0175452Y0277982D02*
X0175652Y0277982D01*
X0175798Y0276784D02*
X0175306Y0276784D01*
X0175624Y0275585D02*
X0176295Y0275585D01*
X0176822Y0274386D02*
X0177347Y0274386D01*
X0177352Y0273188D02*
X0182929Y0273188D01*
X0183752Y0271989D02*
X0177352Y0271989D01*
X0177352Y0270791D02*
X0183752Y0270791D01*
X0183752Y0269592D02*
X0177352Y0269592D01*
X0177352Y0268394D02*
X0183752Y0268394D01*
X0183752Y0267195D02*
X0177352Y0267195D01*
X0177352Y0265997D02*
X0183752Y0265997D01*
X0183752Y0264798D02*
X0177352Y0264798D01*
X0177352Y0263600D02*
X0183752Y0263600D01*
X0183752Y0262401D02*
X0182998Y0262401D01*
X0187352Y0262401D02*
X0214935Y0262401D01*
X0214935Y0261203D02*
X0187352Y0261203D01*
X0187352Y0260004D02*
X0214935Y0260004D01*
X0214935Y0258806D02*
X0187352Y0258806D01*
X0187352Y0257607D02*
X0214935Y0257607D01*
X0214935Y0256409D02*
X0187352Y0256409D01*
X0187352Y0255210D02*
X0214935Y0255210D01*
X0214935Y0254012D02*
X0187352Y0254012D01*
X0187352Y0252813D02*
X0214935Y0252813D01*
X0214935Y0251615D02*
X0186601Y0251615D01*
X0185403Y0250416D02*
X0214935Y0250416D01*
X0214935Y0249218D02*
X0185397Y0249218D01*
X0185452Y0248019D02*
X0214935Y0248019D01*
X0214935Y0246821D02*
X0185321Y0246821D01*
X0184825Y0245622D02*
X0214935Y0245622D01*
X0214935Y0244424D02*
X0183794Y0244424D01*
X0180552Y0248111D02*
X0185552Y0253111D01*
X0185552Y0273111D01*
X0180552Y0278111D01*
X0185624Y0275585D02*
X0214935Y0275585D01*
X0214935Y0274386D02*
X0186822Y0274386D01*
X0187352Y0273188D02*
X0214935Y0273188D01*
X0214935Y0271989D02*
X0187352Y0271989D01*
X0187352Y0270791D02*
X0214935Y0270791D01*
X0214935Y0269592D02*
X0187352Y0269592D01*
X0187352Y0268394D02*
X0214935Y0268394D01*
X0214935Y0267195D02*
X0187352Y0267195D01*
X0187352Y0265997D02*
X0214935Y0265997D01*
X0214935Y0264798D02*
X0187352Y0264798D01*
X0187352Y0263600D02*
X0214935Y0263600D01*
X0214935Y0233637D02*
X0196041Y0233637D01*
X0196131Y0233546D02*
X0195834Y0233844D01*
X0195469Y0234055D01*
X0195062Y0234164D01*
X0192892Y0234164D01*
X0192892Y0230211D01*
X0196451Y0230211D01*
X0196451Y0232774D01*
X0196342Y0233181D01*
X0196131Y0233546D01*
X0196451Y0232439D02*
X0214935Y0232439D01*
X0214935Y0231240D02*
X0196451Y0231240D01*
X0196451Y0228843D02*
X0214935Y0228843D01*
X0214935Y0227645D02*
X0196451Y0227645D01*
X0196451Y0226446D02*
X0214935Y0226446D01*
X0214935Y0225248D02*
X0195608Y0225248D01*
X0192892Y0225248D02*
X0191692Y0225248D01*
X0191692Y0226446D02*
X0192892Y0226446D01*
X0192892Y0227645D02*
X0191692Y0227645D01*
X0191692Y0228843D02*
X0192892Y0228843D01*
X0192892Y0230042D02*
X0214935Y0230042D01*
X0214935Y0224049D02*
X0182352Y0224049D01*
X0182352Y0222851D02*
X0214935Y0222851D01*
X0214935Y0221652D02*
X0182352Y0221652D01*
X0182352Y0220453D02*
X0214935Y0220453D01*
X0214935Y0219255D02*
X0182352Y0219255D01*
X0182352Y0218056D02*
X0214935Y0218056D01*
X0214935Y0216858D02*
X0182352Y0216858D01*
X0182352Y0215659D02*
X0214935Y0215659D01*
X0214935Y0214461D02*
X0182352Y0214461D01*
X0182352Y0213262D02*
X0214935Y0213262D01*
X0214935Y0212064D02*
X0182619Y0212064D01*
X0183041Y0210865D02*
X0214935Y0210865D01*
X0214935Y0209667D02*
X0182855Y0209667D01*
X0181883Y0208468D02*
X0214935Y0208468D01*
X0214935Y0207270D02*
X0169712Y0207270D01*
X0169712Y0208468D02*
X0179221Y0208468D01*
X0178249Y0209667D02*
X0169712Y0209667D01*
X0169712Y0210865D02*
X0178063Y0210865D01*
X0178485Y0212064D02*
X0169712Y0212064D01*
X0169712Y0213262D02*
X0178752Y0213262D01*
X0178752Y0214461D02*
X0169712Y0214461D01*
X0169712Y0215659D02*
X0178752Y0215659D01*
X0178752Y0216858D02*
X0169712Y0216858D01*
X0169712Y0218056D02*
X0178752Y0218056D01*
X0178752Y0219255D02*
X0169712Y0219255D01*
X0169712Y0220453D02*
X0178752Y0220453D01*
X0178752Y0221652D02*
X0169712Y0221652D01*
X0169712Y0222851D02*
X0178752Y0222851D01*
X0178752Y0224049D02*
X0169712Y0224049D01*
X0169712Y0225248D02*
X0178752Y0225248D01*
X0178752Y0226446D02*
X0178551Y0226446D01*
X0178551Y0227645D02*
X0178752Y0227645D01*
X0180552Y0229611D02*
X0180552Y0210611D01*
X0182352Y0225248D02*
X0188977Y0225248D01*
X0191692Y0231240D02*
X0192892Y0231240D01*
X0192892Y0232439D02*
X0191692Y0232439D01*
X0191692Y0233637D02*
X0192892Y0233637D01*
X0188544Y0233637D02*
X0187995Y0233637D01*
X0184812Y0229611D02*
X0180552Y0229611D01*
X0174792Y0229611D01*
X0171609Y0233637D02*
X0170495Y0233637D01*
X0166385Y0237233D02*
X0158451Y0237233D01*
X0158451Y0238431D02*
X0165186Y0238431D01*
X0163988Y0239630D02*
X0158048Y0239630D01*
X0154892Y0234836D02*
X0153692Y0234836D01*
X0153692Y0233637D02*
X0154892Y0233637D01*
X0154892Y0232439D02*
X0153692Y0232439D01*
X0153692Y0231240D02*
X0154892Y0231240D01*
X0150989Y0231240D02*
X0131712Y0231240D01*
X0124815Y0220453D02*
X0106141Y0220453D01*
X0106274Y0219255D02*
X0126014Y0219255D01*
X0127212Y0218056D02*
X0106407Y0218056D01*
X0106540Y0216858D02*
X0128411Y0216858D01*
X0129609Y0215659D02*
X0106562Y0215659D01*
X0106562Y0214461D02*
X0130808Y0214461D01*
X0132006Y0213262D02*
X0106562Y0213262D01*
X0106562Y0212064D02*
X0133205Y0212064D01*
X0134403Y0210865D02*
X0106562Y0210865D01*
X0106562Y0209667D02*
X0135602Y0209667D01*
X0136801Y0208468D02*
X0106562Y0208468D01*
X0106562Y0207270D02*
X0137999Y0207270D01*
X0138152Y0206071D02*
X0106562Y0206071D01*
X0106562Y0204873D02*
X0138152Y0204873D01*
X0138152Y0203674D02*
X0106562Y0203674D01*
X0106474Y0202476D02*
X0138152Y0202476D01*
X0138152Y0201277D02*
X0106341Y0201277D01*
X0106208Y0200079D02*
X0138152Y0200079D01*
X0138152Y0198880D02*
X0106075Y0198880D01*
X0105942Y0197682D02*
X0138152Y0197682D01*
X0138152Y0196483D02*
X0105809Y0196483D01*
X0105676Y0195285D02*
X0138152Y0195285D01*
X0138152Y0194086D02*
X0105543Y0194086D01*
X0105410Y0192888D02*
X0138152Y0192888D01*
X0138152Y0191689D02*
X0105277Y0191689D01*
X0105144Y0190491D02*
X0138152Y0190491D01*
X0138152Y0189292D02*
X0104935Y0189292D01*
X0104666Y0188094D02*
X0138152Y0188094D01*
X0138152Y0186895D02*
X0104397Y0186895D01*
X0104127Y0185697D02*
X0138152Y0185697D01*
X0138152Y0184498D02*
X0103858Y0184498D01*
X0103589Y0183300D02*
X0138152Y0183300D01*
X0138152Y0182101D02*
X0103319Y0182101D01*
X0103050Y0180903D02*
X0138152Y0180903D01*
X0138152Y0179704D02*
X0102780Y0179704D01*
X0102511Y0178506D02*
X0138152Y0178506D01*
X0138152Y0177307D02*
X0102242Y0177307D01*
X0101879Y0176109D02*
X0138152Y0176109D01*
X0138152Y0174910D02*
X0101466Y0174910D01*
X0101053Y0173712D02*
X0138152Y0173712D01*
X0138152Y0172513D02*
X0100640Y0172513D01*
X0100228Y0171315D02*
X0138152Y0171315D01*
X0138159Y0170116D02*
X0099815Y0170116D01*
X0099402Y0168917D02*
X0138851Y0168917D01*
X0140050Y0167719D02*
X0098990Y0167719D01*
X0098577Y0166520D02*
X0141248Y0166520D01*
X0142447Y0165322D02*
X0098164Y0165322D01*
X0097737Y0164123D02*
X0143645Y0164123D01*
X0144718Y0162925D02*
X0097170Y0162925D01*
X0096603Y0161726D02*
X0146042Y0161726D01*
X0147241Y0160528D02*
X0096035Y0160528D01*
X0095468Y0159329D02*
X0148439Y0159329D01*
X0149638Y0158131D02*
X0094900Y0158131D01*
X0094333Y0156932D02*
X0150836Y0156932D01*
X0152035Y0155734D02*
X0093766Y0155734D01*
X0093198Y0154535D02*
X0153152Y0154535D01*
X0153152Y0153337D02*
X0092631Y0153337D01*
X0092063Y0152138D02*
X0153152Y0152138D01*
X0153152Y0150940D02*
X0104124Y0150940D01*
X0105423Y0150402D02*
X0102263Y0151711D01*
X0098841Y0151711D01*
X0095680Y0150402D01*
X0093261Y0147983D01*
X0091952Y0144822D01*
X0091952Y0141400D01*
X0093261Y0138240D01*
X0095680Y0135820D01*
X0098841Y0134511D01*
X0102263Y0134511D01*
X0105423Y0135820D01*
X0107843Y0138240D01*
X0109152Y0141400D01*
X0109152Y0144822D01*
X0107843Y0147983D01*
X0105423Y0150402D01*
X0106084Y0149741D02*
X0153152Y0149741D01*
X0153152Y0148543D02*
X0107282Y0148543D01*
X0108107Y0147344D02*
X0153152Y0147344D01*
X0153152Y0146146D02*
X0108603Y0146146D01*
X0109100Y0144947D02*
X0153152Y0144947D01*
X0153152Y0143749D02*
X0109152Y0143749D01*
X0109152Y0142550D02*
X0146471Y0142550D01*
X0145665Y0141352D02*
X0109132Y0141352D01*
X0108635Y0140153D02*
X0145049Y0140153D01*
X0143850Y0138955D02*
X0108139Y0138955D01*
X0107359Y0137756D02*
X0142652Y0137756D01*
X0143052Y0135611D02*
X0113052Y0135611D01*
X0095552Y0118111D01*
X0093700Y0119779D02*
X0066420Y0119779D01*
X0067792Y0120977D02*
X0095872Y0120977D01*
X0097071Y0122176D02*
X0068963Y0122176D01*
X0070134Y0123374D02*
X0098269Y0123374D01*
X0099468Y0124573D02*
X0071305Y0124573D01*
X0072476Y0125771D02*
X0100666Y0125771D01*
X0101865Y0126970D02*
X0073647Y0126970D01*
X0074818Y0128168D02*
X0103063Y0128168D01*
X0104262Y0129367D02*
X0075989Y0129367D01*
X0077085Y0130565D02*
X0105460Y0130565D01*
X0106659Y0131764D02*
X0078021Y0131764D01*
X0078958Y0132962D02*
X0107858Y0132962D01*
X0109056Y0134161D02*
X0079894Y0134161D01*
X0080830Y0135359D02*
X0096794Y0135359D01*
X0094943Y0136558D02*
X0081767Y0136558D01*
X0082703Y0137756D02*
X0093745Y0137756D01*
X0092965Y0138955D02*
X0083640Y0138955D01*
X0084576Y0140153D02*
X0092469Y0140153D01*
X0091972Y0141352D02*
X0085411Y0141352D01*
X0085029Y0140732D02*
X0085029Y0140732D01*
X0086150Y0142550D02*
X0091952Y0142550D01*
X0091952Y0143749D02*
X0086889Y0143749D01*
X0087629Y0144947D02*
X0092004Y0144947D01*
X0092500Y0146146D02*
X0088368Y0146146D01*
X0089107Y0147344D02*
X0092997Y0147344D01*
X0093822Y0148543D02*
X0089847Y0148543D01*
X0090586Y0149741D02*
X0095020Y0149741D01*
X0096980Y0150940D02*
X0091325Y0150940D01*
X0104310Y0135359D02*
X0110255Y0135359D01*
X0111453Y0136558D02*
X0106161Y0136558D01*
X0110552Y0130565D02*
X0118352Y0130565D01*
X0118077Y0131764D02*
X0111750Y0131764D01*
X0112949Y0132962D02*
X0118385Y0132962D01*
X0120566Y0131723D02*
X0120566Y0130518D01*
X0120566Y0113125D01*
X0120552Y0113111D01*
X0138052Y0095611D01*
X0150552Y0095611D01*
X0155552Y0100611D01*
X0159752Y0100602D02*
X0165152Y0100602D01*
X0165152Y0100211D02*
X0160958Y0100211D01*
X0161065Y0099534D01*
X0161289Y0098845D01*
X0161618Y0098200D01*
X0162043Y0097614D01*
X0162555Y0097102D01*
X0163141Y0096677D01*
X0163786Y0096348D01*
X0164475Y0096124D01*
X0165152Y0096017D01*
X0165152Y0100211D01*
X0165952Y0100211D01*
X0165952Y0101011D01*
X0170146Y0101011D01*
X0170039Y0101688D01*
X0169815Y0102377D01*
X0169486Y0103022D01*
X0169061Y0103608D01*
X0168549Y0104120D01*
X0167963Y0104545D01*
X0167318Y0104874D01*
X0166629Y0105098D01*
X0165952Y0105205D01*
X0165952Y0101011D01*
X0165152Y0101011D01*
X0165152Y0105205D01*
X0164475Y0105098D01*
X0163786Y0104874D01*
X0163141Y0104545D01*
X0162555Y0104120D01*
X0162043Y0103608D01*
X0161618Y0103022D01*
X0161289Y0102377D01*
X0161065Y0101688D01*
X0160958Y0101011D01*
X0165152Y0101011D01*
X0165152Y0100211D01*
X0165952Y0100211D02*
X0165952Y0096017D01*
X0166629Y0096124D01*
X0167318Y0096348D01*
X0167963Y0096677D01*
X0168549Y0097102D01*
X0169061Y0097614D01*
X0169486Y0098200D01*
X0169815Y0098845D01*
X0170039Y0099534D01*
X0170146Y0100211D01*
X0165952Y0100211D01*
X0165952Y0100602D02*
X0207547Y0100602D01*
X0208158Y0101801D02*
X0170002Y0101801D01*
X0169498Y0102999D02*
X0208769Y0102999D01*
X0209379Y0104198D02*
X0168441Y0104198D01*
X0165952Y0104198D02*
X0165152Y0104198D01*
X0165152Y0102999D02*
X0165952Y0102999D01*
X0165952Y0101801D02*
X0165152Y0101801D01*
X0165152Y0099404D02*
X0165952Y0099404D01*
X0165952Y0098205D02*
X0165152Y0098205D01*
X0165152Y0097007D02*
X0165952Y0097007D01*
X0166387Y0094811D02*
X0164717Y0094811D01*
X0163173Y0094172D01*
X0161991Y0092990D01*
X0161352Y0091446D01*
X0161352Y0089776D01*
X0161991Y0088232D01*
X0163173Y0087050D01*
X0164717Y0086411D01*
X0166387Y0086411D01*
X0167931Y0087050D01*
X0169113Y0088232D01*
X0169752Y0089776D01*
X0169752Y0091446D01*
X0169113Y0092990D01*
X0167931Y0094172D01*
X0166387Y0094811D01*
X0166873Y0094610D02*
X0203324Y0094610D01*
X0204195Y0095808D02*
X0153295Y0095808D01*
X0154231Y0094610D02*
X0152096Y0094610D01*
X0152413Y0093411D02*
X0149752Y0093411D01*
X0149752Y0092213D02*
X0151669Y0092213D01*
X0151107Y0091014D02*
X0149752Y0091014D01*
X0149752Y0089816D02*
X0149908Y0089816D01*
X0153249Y0090611D02*
X0149049Y0086411D01*
X0148852Y0086411D01*
X0148052Y0085611D01*
X0138052Y0085611D01*
X0113052Y0110611D01*
X0110552Y0110611D01*
X0108180Y0111389D02*
X0055948Y0111389D01*
X0057644Y0112587D02*
X0109008Y0112587D01*
X0108063Y0110190D02*
X0054103Y0110190D01*
X0052257Y0108992D02*
X0108651Y0108992D01*
X0112095Y0112587D02*
X0113711Y0112587D01*
X0113711Y0113786D02*
X0059106Y0113786D01*
X0060569Y0114984D02*
X0113711Y0114984D01*
X0113711Y0116183D02*
X0097144Y0116183D01*
X0097944Y0117382D02*
X0113711Y0117382D01*
X0113711Y0118580D02*
X0098567Y0118580D01*
X0099765Y0119779D02*
X0113711Y0119779D01*
X0113711Y0120977D02*
X0100964Y0120977D01*
X0102162Y0122176D02*
X0113711Y0122176D01*
X0113711Y0123374D02*
X0103361Y0123374D01*
X0104559Y0124573D02*
X0113230Y0124573D01*
X0113022Y0125771D02*
X0105758Y0125771D01*
X0106956Y0126970D02*
X0113396Y0126970D01*
X0115511Y0125570D02*
X0115511Y0113152D01*
X0138052Y0090611D01*
X0145552Y0090611D01*
X0150205Y0085022D02*
X0193113Y0085022D01*
X0194762Y0086220D02*
X0151404Y0086220D01*
X0152602Y0087419D02*
X0152805Y0087419D01*
X0153249Y0090611D02*
X0155552Y0090611D01*
X0159435Y0092213D02*
X0161669Y0092213D01*
X0161352Y0091014D02*
X0159752Y0091014D01*
X0159752Y0089816D02*
X0161352Y0089816D01*
X0161832Y0088617D02*
X0159272Y0088617D01*
X0158299Y0087419D02*
X0162805Y0087419D01*
X0162413Y0093411D02*
X0158691Y0093411D01*
X0156873Y0094610D02*
X0164231Y0094610D01*
X0162687Y0097007D02*
X0157826Y0097007D01*
X0159086Y0098205D02*
X0161615Y0098205D01*
X0161107Y0099404D02*
X0159598Y0099404D01*
X0159605Y0101801D02*
X0161102Y0101801D01*
X0161606Y0102999D02*
X0159103Y0102999D01*
X0157868Y0104198D02*
X0162663Y0104198D01*
X0167327Y0108992D02*
X0211510Y0108992D01*
X0211899Y0110190D02*
X0168525Y0110190D01*
X0169724Y0111389D02*
X0212289Y0111389D01*
X0212678Y0112587D02*
X0170923Y0112587D01*
X0172121Y0113786D02*
X0213068Y0113786D01*
X0213457Y0114984D02*
X0173320Y0114984D01*
X0174518Y0116183D02*
X0213665Y0116183D01*
X0213855Y0117382D02*
X0175717Y0117382D01*
X0176915Y0118580D02*
X0214045Y0118580D01*
X0214235Y0119779D02*
X0177805Y0119779D01*
X0177952Y0120977D02*
X0214424Y0120977D01*
X0214614Y0122176D02*
X0177952Y0122176D01*
X0177952Y0123374D02*
X0181684Y0123374D01*
X0182077Y0123211D02*
X0184027Y0123211D01*
X0185828Y0123957D01*
X0187206Y0125335D01*
X0187952Y0127136D01*
X0187952Y0129086D01*
X0187206Y0130887D01*
X0185828Y0132265D01*
X0184027Y0133011D01*
X0182077Y0133011D01*
X0180276Y0132265D01*
X0178898Y0130887D01*
X0178152Y0129086D01*
X0178152Y0127136D01*
X0178898Y0125335D01*
X0180276Y0123957D01*
X0182077Y0123211D01*
X0179661Y0124573D02*
X0177952Y0124573D01*
X0177952Y0125771D02*
X0178717Y0125771D01*
X0178221Y0126970D02*
X0177952Y0126970D01*
X0177952Y0128168D02*
X0178152Y0128168D01*
X0178268Y0129367D02*
X0177952Y0129367D01*
X0177952Y0130565D02*
X0178765Y0130565D01*
X0177952Y0131764D02*
X0179775Y0131764D01*
X0177952Y0132962D02*
X0181959Y0132962D01*
X0184145Y0132962D02*
X0195899Y0132962D01*
X0196017Y0133023D02*
X0195274Y0132644D01*
X0194599Y0132154D01*
X0194009Y0131564D01*
X0193519Y0130889D01*
X0193140Y0130146D01*
X0192882Y0129352D01*
X0192752Y0128528D01*
X0192752Y0128511D01*
X0197652Y0128511D01*
X0197652Y0133411D01*
X0197652Y0137711D01*
X0192752Y0137711D01*
X0192752Y0137694D01*
X0192882Y0136870D01*
X0193140Y0136077D01*
X0193519Y0135333D01*
X0194009Y0134658D01*
X0194599Y0134068D01*
X0195274Y0133578D01*
X0196017Y0133199D01*
X0196289Y0133111D01*
X0196017Y0133023D01*
X0197652Y0132962D02*
X0198452Y0132962D01*
X0198452Y0131764D02*
X0197652Y0131764D01*
X0197652Y0130565D02*
X0198452Y0130565D01*
X0198452Y0129367D02*
X0197652Y0129367D01*
X0197652Y0128511D02*
X0198452Y0128511D01*
X0203352Y0128511D01*
X0203352Y0128528D01*
X0203221Y0129352D01*
X0202964Y0130146D01*
X0202585Y0130889D01*
X0202095Y0131564D01*
X0201505Y0132154D01*
X0200830Y0132644D01*
X0200086Y0133023D01*
X0199815Y0133111D01*
X0200086Y0133199D01*
X0200830Y0133578D01*
X0201505Y0134068D01*
X0202095Y0134658D01*
X0202585Y0135333D01*
X0202964Y0136077D01*
X0203221Y0136870D01*
X0203352Y0137694D01*
X0203352Y0137711D01*
X0198452Y0137711D01*
X0198452Y0128511D01*
X0198452Y0127711D01*
X0203352Y0127711D01*
X0203352Y0127694D01*
X0203221Y0126870D01*
X0202964Y0126077D01*
X0202585Y0125333D01*
X0202095Y0124658D01*
X0201505Y0124068D01*
X0200830Y0123578D01*
X0200086Y0123199D01*
X0199293Y0122942D01*
X0198469Y0122811D01*
X0198452Y0122811D01*
X0198452Y0127711D01*
X0197652Y0127711D01*
X0197652Y0122811D01*
X0197635Y0122811D01*
X0196811Y0122942D01*
X0196017Y0123199D01*
X0195274Y0123578D01*
X0194599Y0124068D01*
X0194009Y0124658D01*
X0193519Y0125333D01*
X0193140Y0126077D01*
X0192882Y0126870D01*
X0192752Y0127694D01*
X0192752Y0127711D01*
X0197652Y0127711D01*
X0197652Y0128511D01*
X0197652Y0128168D02*
X0187952Y0128168D01*
X0187883Y0126970D02*
X0192867Y0126970D01*
X0193296Y0125771D02*
X0187386Y0125771D01*
X0186443Y0124573D02*
X0194095Y0124573D01*
X0195675Y0123374D02*
X0184420Y0123374D01*
X0187836Y0129367D02*
X0192887Y0129367D01*
X0193354Y0130565D02*
X0187339Y0130565D01*
X0186329Y0131764D02*
X0194209Y0131764D01*
X0194507Y0134161D02*
X0186031Y0134161D01*
X0187216Y0135359D02*
X0193506Y0135359D01*
X0192984Y0136558D02*
X0187712Y0136558D01*
X0187952Y0137756D02*
X0197652Y0137756D01*
X0198452Y0137756D02*
X0214935Y0137756D01*
X0214935Y0136558D02*
X0203120Y0136558D01*
X0202598Y0135359D02*
X0214935Y0135359D01*
X0214935Y0134161D02*
X0201597Y0134161D01*
X0200205Y0132962D02*
X0214935Y0132962D01*
X0214935Y0131764D02*
X0201895Y0131764D01*
X0202750Y0130565D02*
X0214935Y0130565D01*
X0214935Y0129367D02*
X0203217Y0129367D01*
X0203237Y0126970D02*
X0214923Y0126970D01*
X0214935Y0128168D02*
X0198452Y0128168D01*
X0198452Y0126970D02*
X0197652Y0126970D01*
X0197652Y0125771D02*
X0198452Y0125771D01*
X0198452Y0124573D02*
X0197652Y0124573D01*
X0197652Y0123374D02*
X0198452Y0123374D01*
X0200429Y0123374D02*
X0214782Y0123374D01*
X0214829Y0124573D02*
X0202009Y0124573D01*
X0202808Y0125771D02*
X0214876Y0125771D01*
X0214935Y0138955D02*
X0203284Y0138955D01*
X0202960Y0140153D02*
X0214935Y0140153D01*
X0214935Y0141352D02*
X0202249Y0141352D01*
X0200959Y0142550D02*
X0214935Y0142550D01*
X0214935Y0143749D02*
X0200325Y0143749D01*
X0201818Y0144947D02*
X0214935Y0144947D01*
X0214935Y0146146D02*
X0202542Y0146146D01*
X0202952Y0147344D02*
X0214935Y0147344D01*
X0214935Y0148543D02*
X0202952Y0148543D01*
X0202680Y0149741D02*
X0214935Y0149741D01*
X0214935Y0150940D02*
X0202153Y0150940D01*
X0200954Y0152138D02*
X0214935Y0152138D01*
X0214935Y0153337D02*
X0199330Y0153337D01*
X0201406Y0154535D02*
X0214935Y0154535D01*
X0214935Y0155734D02*
X0202371Y0155734D01*
X0202867Y0156932D02*
X0214935Y0156932D01*
X0214935Y0158131D02*
X0202952Y0158131D01*
X0202851Y0159329D02*
X0214935Y0159329D01*
X0214935Y0160528D02*
X0202355Y0160528D01*
X0201366Y0161726D02*
X0214935Y0161726D01*
X0214935Y0162925D02*
X0199234Y0162925D01*
X0199027Y0163211D02*
X0197077Y0163211D01*
X0195276Y0163957D01*
X0193898Y0165335D01*
X0193152Y0167136D01*
X0193152Y0169086D01*
X0193898Y0170887D01*
X0195276Y0172265D01*
X0197077Y0173011D01*
X0199027Y0173011D01*
X0200828Y0172265D01*
X0202206Y0170887D01*
X0202952Y0169086D01*
X0202952Y0167136D01*
X0202206Y0165335D01*
X0200828Y0163957D01*
X0199027Y0163211D01*
X0200994Y0164123D02*
X0214935Y0164123D01*
X0214935Y0165322D02*
X0202193Y0165322D01*
X0202697Y0166520D02*
X0214935Y0166520D01*
X0214935Y0167719D02*
X0202952Y0167719D01*
X0202952Y0168917D02*
X0214935Y0168917D01*
X0214935Y0170116D02*
X0202525Y0170116D01*
X0201778Y0171315D02*
X0214935Y0171315D01*
X0214935Y0172513D02*
X0200229Y0172513D01*
X0200235Y0173712D02*
X0214935Y0173712D01*
X0214935Y0174910D02*
X0201781Y0174910D01*
X0202206Y0175335D02*
X0200828Y0173957D01*
X0199027Y0173211D01*
X0197077Y0173211D01*
X0195276Y0173957D01*
X0193898Y0175335D01*
X0193152Y0177136D01*
X0193152Y0179086D01*
X0193898Y0180887D01*
X0195276Y0182265D01*
X0197077Y0183011D01*
X0199027Y0183011D01*
X0200828Y0182265D01*
X0202206Y0180887D01*
X0202952Y0179086D01*
X0202952Y0177136D01*
X0202206Y0175335D01*
X0202526Y0176109D02*
X0214935Y0176109D01*
X0214935Y0177307D02*
X0202952Y0177307D01*
X0202952Y0178506D02*
X0214935Y0178506D01*
X0214935Y0179704D02*
X0202696Y0179704D01*
X0202190Y0180903D02*
X0214935Y0180903D01*
X0214935Y0182101D02*
X0200991Y0182101D01*
X0195869Y0173712D02*
X0191574Y0173712D01*
X0191652Y0173900D02*
X0190343Y0170740D01*
X0187923Y0168320D01*
X0184763Y0167011D01*
X0181341Y0167011D01*
X0178180Y0168320D01*
X0175761Y0170740D01*
X0174452Y0173900D01*
X0174452Y0177322D01*
X0175761Y0180483D01*
X0178180Y0182902D01*
X0181341Y0184211D01*
X0184763Y0184211D01*
X0187923Y0182902D01*
X0190343Y0180483D01*
X0191652Y0177322D01*
X0191652Y0173900D01*
X0191652Y0174910D02*
X0194323Y0174910D01*
X0193578Y0176109D02*
X0191652Y0176109D01*
X0191652Y0177307D02*
X0193152Y0177307D01*
X0193152Y0178506D02*
X0191162Y0178506D01*
X0190665Y0179704D02*
X0193408Y0179704D01*
X0193914Y0180903D02*
X0189923Y0180903D01*
X0188724Y0182101D02*
X0195112Y0182101D01*
X0195875Y0172513D02*
X0191077Y0172513D01*
X0190581Y0171315D02*
X0194326Y0171315D01*
X0193579Y0170116D02*
X0189719Y0170116D01*
X0188521Y0168917D02*
X0193152Y0168917D01*
X0193152Y0167719D02*
X0186472Y0167719D01*
X0184234Y0162925D02*
X0196870Y0162925D01*
X0195110Y0164123D02*
X0169852Y0164123D01*
X0169852Y0162925D02*
X0181870Y0162925D01*
X0179738Y0161726D02*
X0169852Y0161726D01*
X0169852Y0160528D02*
X0178749Y0160528D01*
X0178253Y0159329D02*
X0169852Y0159329D01*
X0169852Y0158131D02*
X0178152Y0158131D01*
X0178236Y0156932D02*
X0169852Y0156932D01*
X0169852Y0155734D02*
X0177281Y0155734D01*
X0176082Y0154535D02*
X0169852Y0154535D01*
X0169852Y0153337D02*
X0174884Y0153337D01*
X0173685Y0152138D02*
X0169852Y0152138D01*
X0169852Y0150940D02*
X0173152Y0150940D01*
X0173152Y0149741D02*
X0169852Y0149741D01*
X0169852Y0148543D02*
X0173152Y0148543D01*
X0173152Y0147344D02*
X0169852Y0147344D01*
X0169852Y0146146D02*
X0173152Y0146146D01*
X0173152Y0144947D02*
X0169852Y0144947D01*
X0169852Y0143749D02*
X0173152Y0143749D01*
X0173152Y0142550D02*
X0169852Y0142550D01*
X0169852Y0141352D02*
X0173152Y0141352D01*
X0173152Y0140153D02*
X0169852Y0140153D01*
X0169852Y0138955D02*
X0173152Y0138955D01*
X0173152Y0137756D02*
X0169852Y0137756D01*
X0169852Y0136558D02*
X0173152Y0136558D01*
X0173152Y0135359D02*
X0169852Y0135359D01*
X0169852Y0134161D02*
X0173152Y0134161D01*
X0173152Y0132962D02*
X0169852Y0132962D01*
X0169852Y0132331D02*
X0169852Y0181357D01*
X0168798Y0182411D01*
X0160541Y0190668D01*
X0160541Y0191106D01*
X0160162Y0192021D01*
X0159462Y0192721D01*
X0158547Y0193100D01*
X0157557Y0193100D01*
X0156642Y0192721D01*
X0155942Y0192021D01*
X0155563Y0191106D01*
X0155563Y0190646D01*
X0155541Y0190668D01*
X0155541Y0191106D01*
X0155162Y0192021D01*
X0154462Y0192721D01*
X0153547Y0193100D01*
X0152557Y0193100D01*
X0151642Y0192721D01*
X0150942Y0192021D01*
X0150563Y0191106D01*
X0150563Y0190646D01*
X0150541Y0190668D01*
X0150541Y0191106D01*
X0150162Y0192021D01*
X0149462Y0192721D01*
X0148547Y0193100D01*
X0147557Y0193100D01*
X0146642Y0192721D01*
X0145942Y0192021D01*
X0145563Y0191106D01*
X0145563Y0190116D01*
X0145942Y0189201D01*
X0146642Y0188501D01*
X0147557Y0188122D01*
X0147995Y0188122D01*
X0161252Y0174865D01*
X0161252Y0124831D01*
X0160942Y0124521D01*
X0160563Y0123606D01*
X0160563Y0122616D01*
X0160942Y0121701D01*
X0161642Y0121001D01*
X0162557Y0120622D01*
X0163547Y0120622D01*
X0164462Y0121001D01*
X0165162Y0121701D01*
X0165541Y0122616D01*
X0165541Y0123122D01*
X0166047Y0123122D01*
X0166962Y0123501D01*
X0167662Y0124201D01*
X0168041Y0125116D01*
X0168041Y0126106D01*
X0167662Y0127021D01*
X0167352Y0127331D01*
X0167352Y0128207D01*
X0167557Y0128122D01*
X0168547Y0128122D01*
X0169462Y0128501D01*
X0170162Y0129201D01*
X0170541Y0130116D01*
X0170541Y0131106D01*
X0170162Y0132021D01*
X0169852Y0132331D01*
X0170269Y0131764D02*
X0173152Y0131764D01*
X0173152Y0130565D02*
X0170541Y0130565D01*
X0170231Y0129367D02*
X0173152Y0129367D01*
X0173152Y0128168D02*
X0168658Y0128168D01*
X0167446Y0128168D02*
X0167352Y0128168D01*
X0167683Y0126970D02*
X0173152Y0126970D01*
X0173152Y0125771D02*
X0168041Y0125771D01*
X0167816Y0124573D02*
X0173152Y0124573D01*
X0173152Y0123374D02*
X0166655Y0123374D01*
X0165359Y0122176D02*
X0173152Y0122176D01*
X0172524Y0120977D02*
X0164404Y0120977D01*
X0163052Y0123111D02*
X0163052Y0175611D01*
X0148052Y0190611D01*
X0149060Y0192888D02*
X0152044Y0192888D01*
X0150805Y0191689D02*
X0150299Y0191689D01*
X0153052Y0190611D02*
X0165552Y0178111D01*
X0165552Y0125611D01*
X0161252Y0125771D02*
X0157952Y0125771D01*
X0157952Y0124573D02*
X0160994Y0124573D01*
X0160563Y0123374D02*
X0157952Y0123374D01*
X0157952Y0122176D02*
X0160745Y0122176D01*
X0161700Y0120977D02*
X0157952Y0120977D01*
X0157952Y0119779D02*
X0171325Y0119779D01*
X0170127Y0118580D02*
X0157952Y0118580D01*
X0157952Y0117382D02*
X0168928Y0117382D01*
X0167730Y0116183D02*
X0157952Y0116183D01*
X0157952Y0114984D02*
X0166531Y0114984D01*
X0165333Y0113786D02*
X0157952Y0113786D01*
X0156128Y0107793D02*
X0211120Y0107793D01*
X0210601Y0106595D02*
X0154930Y0106595D01*
X0153731Y0105396D02*
X0209990Y0105396D01*
X0206807Y0099404D02*
X0169996Y0099404D01*
X0169489Y0098205D02*
X0205936Y0098205D01*
X0205066Y0097007D02*
X0168417Y0097007D01*
X0168691Y0093411D02*
X0202453Y0093411D01*
X0201266Y0092213D02*
X0169435Y0092213D01*
X0169752Y0091014D02*
X0200067Y0091014D01*
X0198869Y0089816D02*
X0169752Y0089816D01*
X0169272Y0088617D02*
X0197670Y0088617D01*
X0196412Y0087419D02*
X0168299Y0087419D01*
X0168118Y0075434D02*
X0064738Y0075434D01*
X0064001Y0076632D02*
X0175287Y0076632D01*
X0178975Y0077831D02*
X0063263Y0077831D01*
X0062525Y0079029D02*
X0182664Y0079029D01*
X0185029Y0080228D02*
X0061788Y0080228D01*
X0061050Y0081426D02*
X0187381Y0081426D01*
X0189734Y0082625D02*
X0060313Y0082625D01*
X0059575Y0083823D02*
X0137294Y0083823D01*
X0136096Y0085022D02*
X0058838Y0085022D01*
X0058100Y0086220D02*
X0134897Y0086220D01*
X0133699Y0087419D02*
X0057363Y0087419D01*
X0056625Y0088617D02*
X0132500Y0088617D01*
X0131302Y0089816D02*
X0055888Y0089816D01*
X0055150Y0091014D02*
X0130103Y0091014D01*
X0128905Y0092213D02*
X0054412Y0092213D01*
X0053675Y0093411D02*
X0127706Y0093411D01*
X0126508Y0094610D02*
X0052937Y0094610D01*
X0052200Y0095808D02*
X0125309Y0095808D01*
X0124111Y0097007D02*
X0051462Y0097007D01*
X0050725Y0098205D02*
X0122912Y0098205D01*
X0121714Y0099404D02*
X0049987Y0099404D01*
X0049250Y0100602D02*
X0120515Y0100602D01*
X0119317Y0101801D02*
X0048512Y0101801D01*
X0047775Y0102999D02*
X0118118Y0102999D01*
X0116920Y0104198D02*
X0047037Y0104198D01*
X0046720Y0105396D02*
X0115721Y0105396D01*
X0114522Y0106595D02*
X0048565Y0106595D01*
X0050411Y0107793D02*
X0113324Y0107793D01*
X0117423Y0113786D02*
X0118752Y0113786D01*
X0118752Y0112587D02*
X0118621Y0112587D01*
X0118766Y0114984D02*
X0117311Y0114984D01*
X0117311Y0116183D02*
X0118766Y0116183D01*
X0118766Y0117382D02*
X0117311Y0117382D01*
X0117311Y0118580D02*
X0118766Y0118580D01*
X0118766Y0119779D02*
X0117311Y0119779D01*
X0117311Y0120977D02*
X0118766Y0120977D01*
X0118766Y0122176D02*
X0117311Y0122176D01*
X0117311Y0123374D02*
X0118766Y0123374D01*
X0118766Y0124573D02*
X0117792Y0124573D01*
X0118000Y0125771D02*
X0118766Y0125771D01*
X0118766Y0126970D02*
X0117625Y0126970D01*
X0118766Y0128168D02*
X0108155Y0128168D01*
X0109353Y0129367D02*
X0118766Y0129367D01*
X0120552Y0130532D02*
X0120566Y0130518D01*
X0122366Y0129367D02*
X0153152Y0129367D01*
X0153152Y0130565D02*
X0122780Y0130565D01*
X0123055Y0131764D02*
X0153152Y0131764D01*
X0153152Y0132962D02*
X0122747Y0132962D01*
X0122366Y0128168D02*
X0153152Y0128168D01*
X0153152Y0126970D02*
X0122366Y0126970D01*
X0122366Y0125771D02*
X0153152Y0125771D01*
X0153152Y0124573D02*
X0122366Y0124573D01*
X0122366Y0123374D02*
X0153152Y0123374D01*
X0153152Y0122176D02*
X0122366Y0122176D01*
X0122366Y0120977D02*
X0153152Y0120977D01*
X0153152Y0119779D02*
X0122366Y0119779D01*
X0122366Y0118580D02*
X0153152Y0118580D01*
X0153152Y0117382D02*
X0122366Y0117382D01*
X0122366Y0116183D02*
X0153152Y0116183D01*
X0153152Y0114984D02*
X0122366Y0114984D01*
X0122423Y0113786D02*
X0153152Y0113786D01*
X0153152Y0112587D02*
X0123621Y0112587D01*
X0124820Y0111389D02*
X0152936Y0111389D01*
X0151737Y0110190D02*
X0126018Y0110190D01*
X0127217Y0108992D02*
X0150539Y0108992D01*
X0149340Y0107793D02*
X0128415Y0107793D01*
X0129614Y0106595D02*
X0148142Y0106595D01*
X0146943Y0105396D02*
X0130812Y0105396D01*
X0132011Y0104198D02*
X0143236Y0104198D01*
X0142001Y0102999D02*
X0133209Y0102999D01*
X0134408Y0101801D02*
X0141499Y0101801D01*
X0141352Y0100602D02*
X0135606Y0100602D01*
X0136805Y0099404D02*
X0141506Y0099404D01*
X0142018Y0098205D02*
X0138003Y0098205D01*
X0148810Y0083823D02*
X0191463Y0083823D01*
X0197652Y0134161D02*
X0198452Y0134161D01*
X0198452Y0135359D02*
X0197652Y0135359D01*
X0197652Y0136558D02*
X0198452Y0136558D01*
X0193855Y0141352D02*
X0186741Y0141352D01*
X0187510Y0140153D02*
X0193144Y0140153D01*
X0192820Y0138955D02*
X0187952Y0138955D01*
X0185139Y0142550D02*
X0195145Y0142550D01*
X0195779Y0143749D02*
X0186065Y0143749D01*
X0187305Y0144947D02*
X0194286Y0144947D01*
X0193562Y0146146D02*
X0187986Y0146146D01*
X0188297Y0147344D02*
X0193152Y0147344D01*
X0193152Y0148543D02*
X0188350Y0148543D01*
X0188095Y0149741D02*
X0193028Y0149741D01*
X0191829Y0150940D02*
X0187548Y0150940D01*
X0186520Y0152138D02*
X0190631Y0152138D01*
X0189432Y0153337D02*
X0184330Y0153337D01*
X0186406Y0154535D02*
X0188234Y0154535D01*
X0191426Y0158131D02*
X0193152Y0158131D01*
X0193236Y0156932D02*
X0192625Y0156932D01*
X0193253Y0159329D02*
X0190228Y0159329D01*
X0187355Y0160528D02*
X0193749Y0160528D01*
X0194738Y0161726D02*
X0186366Y0161726D01*
X0179632Y0167719D02*
X0169852Y0167719D01*
X0169852Y0168917D02*
X0177583Y0168917D01*
X0176385Y0170116D02*
X0169852Y0170116D01*
X0169852Y0171315D02*
X0175523Y0171315D01*
X0175027Y0172513D02*
X0169852Y0172513D01*
X0169852Y0173712D02*
X0174530Y0173712D01*
X0174452Y0174910D02*
X0169852Y0174910D01*
X0169852Y0176109D02*
X0174452Y0176109D01*
X0174452Y0177307D02*
X0169852Y0177307D01*
X0169852Y0178506D02*
X0174942Y0178506D01*
X0175439Y0179704D02*
X0169852Y0179704D01*
X0169852Y0180903D02*
X0176181Y0180903D01*
X0177380Y0182101D02*
X0169107Y0182101D01*
X0167909Y0183300D02*
X0179141Y0183300D01*
X0186963Y0183300D02*
X0214935Y0183300D01*
X0214935Y0184498D02*
X0166710Y0184498D01*
X0165512Y0185697D02*
X0214935Y0185697D01*
X0214935Y0186895D02*
X0164313Y0186895D01*
X0163115Y0188094D02*
X0214935Y0188094D01*
X0214935Y0189292D02*
X0161916Y0189292D01*
X0160718Y0190491D02*
X0214935Y0190491D01*
X0214935Y0191689D02*
X0160299Y0191689D01*
X0159060Y0192888D02*
X0214935Y0192888D01*
X0214935Y0194086D02*
X0142952Y0194086D01*
X0142952Y0192888D02*
X0147044Y0192888D01*
X0145805Y0191689D02*
X0142952Y0191689D01*
X0142952Y0190491D02*
X0145563Y0190491D01*
X0145904Y0189292D02*
X0142952Y0189292D01*
X0142952Y0188094D02*
X0148024Y0188094D01*
X0149222Y0186895D02*
X0142952Y0186895D01*
X0142952Y0185697D02*
X0150421Y0185697D01*
X0151619Y0184498D02*
X0142952Y0184498D01*
X0142952Y0183300D02*
X0152818Y0183300D01*
X0154016Y0182101D02*
X0142952Y0182101D01*
X0142952Y0180903D02*
X0155215Y0180903D01*
X0156413Y0179704D02*
X0142952Y0179704D01*
X0142952Y0178506D02*
X0157612Y0178506D01*
X0158810Y0177307D02*
X0142952Y0177307D01*
X0142952Y0176109D02*
X0160009Y0176109D01*
X0161207Y0174910D02*
X0142952Y0174910D01*
X0142952Y0173712D02*
X0161252Y0173712D01*
X0161252Y0172513D02*
X0142952Y0172513D01*
X0143243Y0171315D02*
X0161252Y0171315D01*
X0161252Y0170116D02*
X0144441Y0170116D01*
X0145640Y0168917D02*
X0161252Y0168917D01*
X0161252Y0167719D02*
X0146838Y0167719D01*
X0148093Y0166520D02*
X0161252Y0166520D01*
X0161252Y0165322D02*
X0149098Y0165322D01*
X0150434Y0164123D02*
X0161252Y0164123D01*
X0161252Y0162925D02*
X0151632Y0162925D01*
X0152831Y0161726D02*
X0161252Y0161726D01*
X0161252Y0160528D02*
X0154029Y0160528D01*
X0155228Y0159329D02*
X0161252Y0159329D01*
X0161252Y0158131D02*
X0156426Y0158131D01*
X0157602Y0156932D02*
X0161252Y0156932D01*
X0161252Y0155734D02*
X0157952Y0155734D01*
X0157952Y0154535D02*
X0161252Y0154535D01*
X0161252Y0153337D02*
X0157952Y0153337D01*
X0157952Y0152138D02*
X0161252Y0152138D01*
X0161252Y0150940D02*
X0157952Y0150940D01*
X0157952Y0149741D02*
X0161252Y0149741D01*
X0161252Y0148543D02*
X0157952Y0148543D01*
X0157952Y0147344D02*
X0161252Y0147344D01*
X0161252Y0146146D02*
X0157952Y0146146D01*
X0157952Y0144947D02*
X0161252Y0144947D01*
X0161252Y0143749D02*
X0157952Y0143749D01*
X0157952Y0142550D02*
X0161252Y0142550D01*
X0161252Y0141352D02*
X0157952Y0141352D01*
X0157952Y0140153D02*
X0161252Y0140153D01*
X0161252Y0138955D02*
X0157952Y0138955D01*
X0157952Y0137756D02*
X0161252Y0137756D01*
X0161252Y0136558D02*
X0157952Y0136558D01*
X0157952Y0135359D02*
X0161252Y0135359D01*
X0161252Y0134161D02*
X0157952Y0134161D01*
X0157952Y0132962D02*
X0161252Y0132962D01*
X0161252Y0131764D02*
X0157952Y0131764D01*
X0157952Y0130565D02*
X0161252Y0130565D01*
X0161252Y0129367D02*
X0157952Y0129367D01*
X0157952Y0128168D02*
X0161252Y0128168D01*
X0161252Y0126970D02*
X0157952Y0126970D01*
X0153152Y0134161D02*
X0144147Y0134161D01*
X0145346Y0135359D02*
X0153152Y0135359D01*
X0153152Y0136558D02*
X0146544Y0136558D01*
X0147743Y0137756D02*
X0153152Y0137756D01*
X0153152Y0138955D02*
X0149916Y0138955D01*
X0150541Y0140153D02*
X0153152Y0140153D01*
X0153152Y0141352D02*
X0150439Y0141352D01*
X0149633Y0142550D02*
X0153152Y0142550D01*
X0148052Y0140611D02*
X0143052Y0135611D01*
X0148052Y0163111D02*
X0146802Y0164361D01*
X0168052Y0180611D02*
X0158052Y0190611D01*
X0157044Y0192888D02*
X0154060Y0192888D01*
X0155299Y0191689D02*
X0155805Y0191689D01*
X0153992Y0201277D02*
X0142952Y0201277D01*
X0142952Y0200079D02*
X0214935Y0200079D01*
X0214935Y0201277D02*
X0164612Y0201277D01*
X0165811Y0202476D02*
X0214935Y0202476D01*
X0214935Y0203674D02*
X0167009Y0203674D01*
X0168208Y0204873D02*
X0214935Y0204873D01*
X0214935Y0206071D02*
X0169371Y0206071D01*
X0168052Y0180611D02*
X0168052Y0130611D01*
X0177952Y0134161D02*
X0180073Y0134161D01*
X0178888Y0135359D02*
X0177952Y0135359D01*
X0177952Y0136558D02*
X0178392Y0136558D01*
X0178152Y0137756D02*
X0177952Y0137756D01*
X0177952Y0138955D02*
X0178152Y0138955D01*
X0177952Y0140153D02*
X0178594Y0140153D01*
X0177952Y0141352D02*
X0179363Y0141352D01*
X0177952Y0142550D02*
X0180965Y0142550D01*
X0180039Y0143749D02*
X0177952Y0143749D01*
X0177952Y0144947D02*
X0178799Y0144947D01*
X0178118Y0146146D02*
X0177952Y0146146D01*
X0169852Y0165322D02*
X0193911Y0165322D01*
X0193407Y0166520D02*
X0169852Y0166520D01*
X0152793Y0202476D02*
X0142952Y0202476D01*
X0142952Y0203674D02*
X0151595Y0203674D01*
X0150396Y0204873D02*
X0142952Y0204873D01*
X0142952Y0198880D02*
X0214935Y0198880D01*
X0214935Y0197682D02*
X0142952Y0197682D01*
X0142952Y0196483D02*
X0214935Y0196483D01*
X0214935Y0195285D02*
X0142952Y0195285D01*
X0123617Y0221652D02*
X0106008Y0221652D01*
X0105875Y0222851D02*
X0122418Y0222851D01*
X0121220Y0224049D02*
X0105742Y0224049D01*
X0105609Y0225248D02*
X0120021Y0225248D01*
X0118823Y0226446D02*
X0105476Y0226446D01*
X0105343Y0227645D02*
X0117624Y0227645D01*
X0116426Y0228843D02*
X0105210Y0228843D01*
X0105068Y0230042D02*
X0115690Y0230042D01*
X0115652Y0231240D02*
X0104798Y0231240D01*
X0104529Y0232439D02*
X0115652Y0232439D01*
X0115652Y0233637D02*
X0104260Y0233637D01*
X0103990Y0234836D02*
X0115652Y0234836D01*
X0115652Y0236034D02*
X0103721Y0236034D01*
X0103452Y0237233D02*
X0115652Y0237233D01*
X0115652Y0238431D02*
X0103182Y0238431D01*
X0102913Y0239630D02*
X0115652Y0239630D01*
X0115652Y0240828D02*
X0102643Y0240828D01*
X0102374Y0242027D02*
X0115652Y0242027D01*
X0115652Y0243225D02*
X0102081Y0243225D01*
X0102149Y0243030D02*
X0102149Y0243030D01*
X0101669Y0244424D02*
X0115652Y0244424D01*
X0115652Y0245622D02*
X0101256Y0245622D01*
X0100843Y0246821D02*
X0115652Y0246821D01*
X0115652Y0248019D02*
X0100431Y0248019D01*
X0100018Y0249218D02*
X0115652Y0249218D01*
X0115652Y0250416D02*
X0099605Y0250416D01*
X0099192Y0251615D02*
X0115652Y0251615D01*
X0115652Y0252813D02*
X0098780Y0252813D01*
X0098367Y0254012D02*
X0115652Y0254012D01*
X0115652Y0255210D02*
X0097954Y0255210D01*
X0097789Y0255691D02*
X0097789Y0255691D01*
X0097449Y0256409D02*
X0115652Y0256409D01*
X0115652Y0257607D02*
X0096882Y0257607D01*
X0096314Y0258806D02*
X0115652Y0258806D01*
X0115652Y0260004D02*
X0095747Y0260004D01*
X0095179Y0261203D02*
X0115652Y0261203D01*
X0115652Y0262401D02*
X0094612Y0262401D01*
X0094044Y0263600D02*
X0115652Y0263600D01*
X0115652Y0264798D02*
X0093477Y0264798D01*
X0092910Y0265997D02*
X0115652Y0265997D01*
X0115652Y0267195D02*
X0092342Y0267195D01*
X0092059Y0267794D02*
X0092059Y0267794D01*
X0091689Y0268394D02*
X0115652Y0268394D01*
X0115652Y0269592D02*
X0090949Y0269592D01*
X0090210Y0270791D02*
X0115652Y0270791D01*
X0115652Y0271989D02*
X0089471Y0271989D01*
X0088731Y0273188D02*
X0096000Y0273188D01*
X0095680Y0273320D02*
X0098841Y0272011D01*
X0102263Y0272011D01*
X0105423Y0273320D01*
X0107843Y0275740D01*
X0109152Y0278900D01*
X0109152Y0282322D01*
X0107843Y0285483D01*
X0105423Y0287902D01*
X0102263Y0289211D01*
X0098841Y0289211D01*
X0095680Y0287902D01*
X0093261Y0285483D01*
X0091952Y0282322D01*
X0091952Y0278900D01*
X0093261Y0275740D01*
X0095680Y0273320D01*
X0094614Y0274386D02*
X0087992Y0274386D01*
X0087253Y0275585D02*
X0093416Y0275585D01*
X0092829Y0276784D02*
X0086514Y0276784D01*
X0085774Y0277982D02*
X0092332Y0277982D01*
X0091952Y0279181D02*
X0085035Y0279181D01*
X0084100Y0280379D02*
X0091952Y0280379D01*
X0091952Y0281578D02*
X0083164Y0281578D01*
X0082227Y0282776D02*
X0092140Y0282776D01*
X0092637Y0283975D02*
X0081291Y0283975D01*
X0080354Y0285173D02*
X0093133Y0285173D01*
X0094150Y0286372D02*
X0079418Y0286372D01*
X0078481Y0287570D02*
X0095349Y0287570D01*
X0097773Y0288769D02*
X0077545Y0288769D01*
X0076784Y0289742D02*
X0076784Y0289742D01*
X0076564Y0289967D02*
X0112802Y0289967D01*
X0114000Y0288769D02*
X0103331Y0288769D01*
X0105755Y0287570D02*
X0115199Y0287570D01*
X0115652Y0286372D02*
X0106954Y0286372D01*
X0107971Y0285173D02*
X0115652Y0285173D01*
X0115652Y0283975D02*
X0108467Y0283975D01*
X0108964Y0282776D02*
X0115652Y0282776D01*
X0115652Y0281578D02*
X0109152Y0281578D01*
X0109152Y0280379D02*
X0115652Y0280379D01*
X0115652Y0279181D02*
X0109152Y0279181D01*
X0108772Y0277982D02*
X0115652Y0277982D01*
X0115652Y0276784D02*
X0108275Y0276784D01*
X0107688Y0275585D02*
X0115652Y0275585D01*
X0115652Y0274386D02*
X0106490Y0274386D01*
X0105104Y0273188D02*
X0115652Y0273188D01*
X0120452Y0273188D02*
X0129735Y0273188D01*
X0130933Y0274386D02*
X0120452Y0274386D01*
X0120452Y0275585D02*
X0132132Y0275585D01*
X0133330Y0276784D02*
X0120452Y0276784D01*
X0120452Y0277982D02*
X0134529Y0277982D01*
X0133588Y0279181D02*
X0120452Y0279181D01*
X0120452Y0280379D02*
X0132390Y0280379D01*
X0131191Y0281578D02*
X0120452Y0281578D01*
X0120452Y0282776D02*
X0130652Y0282776D01*
X0130652Y0283975D02*
X0120452Y0283975D01*
X0120452Y0285173D02*
X0130652Y0285173D01*
X0130652Y0286372D02*
X0120452Y0286372D01*
X0120452Y0287570D02*
X0130652Y0287570D01*
X0130652Y0288769D02*
X0120377Y0288769D01*
X0119590Y0289967D02*
X0130652Y0289967D01*
X0130652Y0291166D02*
X0118391Y0291166D01*
X0117193Y0292364D02*
X0130652Y0292364D01*
X0130652Y0293563D02*
X0115994Y0293563D01*
X0114796Y0294761D02*
X0130652Y0294761D01*
X0129489Y0295960D02*
X0113597Y0295960D01*
X0112399Y0297158D02*
X0128290Y0297158D01*
X0127092Y0298357D02*
X0111200Y0298357D01*
X0110002Y0299555D02*
X0125893Y0299555D01*
X0124695Y0300754D02*
X0108803Y0300754D01*
X0107605Y0301952D02*
X0123496Y0301952D01*
X0122298Y0303151D02*
X0106406Y0303151D01*
X0105208Y0304349D02*
X0121099Y0304349D01*
X0119901Y0305548D02*
X0102996Y0305548D01*
X0106364Y0306746D02*
X0118702Y0306746D01*
X0117504Y0307945D02*
X0107842Y0307945D01*
X0108110Y0309143D02*
X0107360Y0309143D01*
X0108602Y0309143D02*
X0116305Y0309143D01*
X0115107Y0310342D02*
X0109012Y0310342D01*
X0109122Y0311540D02*
X0113908Y0311540D01*
X0112709Y0312739D02*
X0108984Y0312739D01*
X0108520Y0313937D02*
X0111511Y0313937D01*
X0110312Y0315136D02*
X0109753Y0315136D01*
X0107690Y0315136D02*
X0107683Y0315136D01*
X0106034Y0310342D02*
X0105284Y0310342D01*
X0103552Y0311540D02*
X0103208Y0311540D01*
X0101882Y0312739D02*
X0101133Y0312739D01*
X0099806Y0313937D02*
X0099057Y0313937D01*
X0098923Y0313937D02*
X0088683Y0313937D01*
X0087929Y0312739D02*
X0098459Y0312739D01*
X0098322Y0311540D02*
X0087174Y0311540D01*
X0086420Y0310342D02*
X0098432Y0310342D01*
X0098842Y0309143D02*
X0085665Y0309143D01*
X0084910Y0307945D02*
X0099601Y0307945D01*
X0095597Y0306746D02*
X0084156Y0306746D01*
X0083401Y0305548D02*
X0094448Y0305548D01*
X0093952Y0304349D02*
X0082646Y0304349D01*
X0081892Y0303151D02*
X0093722Y0303151D01*
X0093722Y0301952D02*
X0081137Y0301952D01*
X0080383Y0300754D02*
X0094158Y0300754D01*
X0094896Y0299555D02*
X0079628Y0299555D01*
X0078873Y0298357D02*
X0096384Y0298357D01*
X0101060Y0298357D02*
X0104412Y0298357D01*
X0103214Y0299555D02*
X0102548Y0299555D01*
X0105611Y0297158D02*
X0078119Y0297158D01*
X0077364Y0295960D02*
X0106809Y0295960D01*
X0108008Y0294761D02*
X0076609Y0294761D01*
X0075855Y0293563D02*
X0109206Y0293563D01*
X0110405Y0292364D02*
X0075100Y0292364D01*
X0075393Y0291166D02*
X0111603Y0291166D01*
X0120452Y0271989D02*
X0128536Y0271989D01*
X0128152Y0270791D02*
X0120452Y0270791D01*
X0120452Y0269592D02*
X0128152Y0269592D01*
X0128152Y0268394D02*
X0120452Y0268394D01*
X0120452Y0267195D02*
X0128152Y0267195D01*
X0128152Y0265997D02*
X0120452Y0265997D01*
X0120452Y0264798D02*
X0128152Y0264798D01*
X0128152Y0263600D02*
X0120452Y0263600D01*
X0120452Y0262401D02*
X0128152Y0262401D01*
X0128152Y0261203D02*
X0120452Y0261203D01*
X0120452Y0260004D02*
X0128152Y0260004D01*
X0128152Y0258806D02*
X0120452Y0258806D01*
X0120452Y0257607D02*
X0128163Y0257607D01*
X0128860Y0256409D02*
X0120452Y0256409D01*
X0120452Y0255210D02*
X0130059Y0255210D01*
X0131257Y0254012D02*
X0120452Y0254012D01*
X0120452Y0252813D02*
X0132456Y0252813D01*
X0133654Y0251615D02*
X0120452Y0251615D01*
X0133251Y0258806D02*
X0135652Y0258806D01*
X0135652Y0257607D02*
X0134450Y0257607D01*
X0135648Y0256409D02*
X0135953Y0256409D01*
X0136032Y0260004D02*
X0132952Y0260004D01*
X0132952Y0261203D02*
X0136714Y0261203D01*
X0138106Y0262401D02*
X0132952Y0262401D01*
X0136523Y0273188D02*
X0148552Y0273188D01*
X0146781Y0274386D02*
X0143757Y0274386D01*
X0144809Y0275585D02*
X0145891Y0275585D01*
X0145411Y0276784D02*
X0145306Y0276784D01*
X0144916Y0280379D02*
X0145759Y0280379D01*
X0146523Y0281578D02*
X0144015Y0281578D01*
X0142998Y0262401D02*
X0148106Y0262401D01*
X0146714Y0261203D02*
X0144390Y0261203D01*
X0145071Y0260004D02*
X0146032Y0260004D01*
X0145652Y0258806D02*
X0145452Y0258806D01*
X0145452Y0257607D02*
X0145652Y0257607D01*
X0145953Y0256409D02*
X0145151Y0256409D01*
X0144581Y0255210D02*
X0146523Y0255210D01*
X0147722Y0254012D02*
X0143382Y0254012D01*
X0142004Y0252813D02*
X0148106Y0252813D01*
X0146560Y0251615D02*
X0143978Y0251615D01*
X0144901Y0250416D02*
X0145778Y0250416D01*
X0145398Y0246821D02*
X0145321Y0246821D01*
X0144825Y0245622D02*
X0145872Y0245622D01*
X0146744Y0244424D02*
X0143794Y0244424D01*
X0143622Y0239630D02*
X0139982Y0239630D01*
X0140551Y0238431D02*
X0143053Y0238431D01*
X0143053Y0232439D02*
X0140551Y0232439D01*
X0150002Y0239630D02*
X0150536Y0239630D01*
X0170552Y0248111D02*
X0175552Y0253111D01*
X0175552Y0273111D01*
X0177352Y0262401D02*
X0178106Y0262401D01*
X0173752Y0262401D02*
X0172998Y0262401D01*
X0173382Y0254012D02*
X0173752Y0254012D01*
X0172709Y0252813D02*
X0172004Y0252813D01*
X0175403Y0250416D02*
X0176203Y0250416D01*
X0176601Y0251615D02*
X0177126Y0251615D01*
X0177352Y0252813D02*
X0179100Y0252813D01*
X0177722Y0254012D02*
X0177352Y0254012D01*
X0175707Y0249218D02*
X0175397Y0249218D01*
X0175452Y0248019D02*
X0175652Y0248019D01*
X0175783Y0246821D02*
X0175321Y0246821D01*
X0174825Y0245622D02*
X0176279Y0245622D01*
X0177310Y0244424D02*
X0173794Y0244424D01*
X0177975Y0233637D02*
X0181629Y0233637D01*
X0181053Y0232439D02*
X0178551Y0232439D01*
X0182004Y0252813D02*
X0182709Y0252813D01*
X0183382Y0254012D02*
X0183752Y0254012D01*
X0203752Y0324724D02*
X0116736Y0324724D01*
X0117934Y0325922D02*
X0202881Y0325922D01*
X0201855Y0327121D02*
X0118446Y0327121D01*
X0118722Y0328320D02*
X0200656Y0328320D01*
X0199458Y0329518D02*
X0118722Y0329518D01*
X0118332Y0330717D02*
X0198259Y0330717D01*
X0197061Y0331915D02*
X0117659Y0331915D01*
X0116327Y0333114D02*
X0195573Y0333114D01*
X0193924Y0334312D02*
X0101512Y0334312D01*
X0102266Y0335511D02*
X0192274Y0335511D01*
X0190624Y0336709D02*
X0103021Y0336709D01*
X0103776Y0337908D02*
X0188538Y0337908D01*
X0186185Y0339106D02*
X0104530Y0339106D01*
X0105285Y0340305D02*
X0183833Y0340305D01*
X0180788Y0341503D02*
X0106040Y0341503D01*
X0106794Y0342702D02*
X0177100Y0342702D01*
X0171837Y0343900D02*
X0107549Y0343900D01*
X0108303Y0345099D02*
X0124970Y0345099D01*
X0123479Y0346297D02*
X0109058Y0346297D01*
X0109813Y0347496D02*
X0122257Y0347496D01*
X0121035Y0348694D02*
X0110567Y0348694D01*
X0111322Y0349893D02*
X0119813Y0349893D01*
X0118592Y0351091D02*
X0112077Y0351091D01*
X0112831Y0352290D02*
X0117219Y0352290D01*
X0115842Y0353488D02*
X0113586Y0353488D01*
X0114340Y0354687D02*
X0114465Y0354687D01*
X0111116Y0333114D02*
X0100757Y0333114D01*
X0100003Y0331915D02*
X0109785Y0331915D01*
X0109112Y0330717D02*
X0099248Y0330717D01*
X0098493Y0329518D02*
X0108722Y0329518D01*
X0108722Y0328320D02*
X0097739Y0328320D01*
X0096984Y0327121D02*
X0108997Y0327121D01*
X0109509Y0325922D02*
X0096230Y0325922D01*
X0095475Y0324724D02*
X0106770Y0324724D01*
X0105056Y0323525D02*
X0094720Y0323525D01*
X0093966Y0322327D02*
X0104224Y0322327D01*
X0103727Y0321128D02*
X0093211Y0321128D01*
X0092456Y0319930D02*
X0103722Y0319930D01*
X0103885Y0318731D02*
X0091702Y0318731D01*
X0090947Y0317533D02*
X0104382Y0317533D01*
X0101393Y0316334D02*
X0090193Y0316334D01*
X0089438Y0315136D02*
X0099761Y0315136D01*
X0110674Y0324724D02*
X0110708Y0324724D01*
X0196220Y0153337D02*
X0196774Y0153337D01*
X0153236Y0104198D02*
X0152533Y0104198D01*
X0152001Y0102999D02*
X0151334Y0102999D01*
X0151499Y0101801D02*
X0150136Y0101801D01*
X0149752Y0100602D02*
X0151352Y0100602D01*
X0151506Y0099404D02*
X0149598Y0099404D01*
X0149086Y0098205D02*
X0150601Y0098205D01*
X0124098Y0074235D02*
X0065476Y0074235D01*
X0066213Y0073037D02*
X0122878Y0073037D01*
X0121655Y0071838D02*
X0066951Y0071838D01*
X0067688Y0070640D02*
X0120433Y0070640D01*
X0119210Y0069441D02*
X0068426Y0069441D01*
X0069163Y0068243D02*
X0117916Y0068243D01*
X0116538Y0067044D02*
X0069901Y0067044D01*
X0070638Y0065846D02*
X0089252Y0065846D01*
X0087426Y0064647D02*
X0071376Y0064647D01*
X0072114Y0063448D02*
X0086227Y0063448D01*
X0085458Y0062250D02*
X0072851Y0062250D01*
X0073589Y0061051D02*
X0084961Y0061051D01*
X0084465Y0059853D02*
X0074326Y0059853D01*
X0075064Y0058654D02*
X0084452Y0058654D01*
X0084452Y0057456D02*
X0075801Y0057456D01*
X0076539Y0056257D02*
X0084511Y0056257D01*
X0085008Y0055059D02*
X0077276Y0055059D01*
X0078014Y0053860D02*
X0085504Y0053860D01*
X0086339Y0052662D02*
X0078751Y0052662D01*
X0079489Y0051463D02*
X0087537Y0051463D01*
X0089521Y0050265D02*
X0080227Y0050265D01*
X0080964Y0049066D02*
X0093797Y0049066D01*
X0091872Y0047868D02*
X0081702Y0047868D01*
X0082439Y0046669D02*
X0089947Y0046669D01*
X0088023Y0045471D02*
X0083177Y0045471D01*
X0083914Y0044272D02*
X0086098Y0044272D01*
X0099877Y0063448D02*
X0112404Y0063448D01*
X0111027Y0062250D02*
X0100646Y0062250D01*
X0101143Y0061051D02*
X0109649Y0061051D01*
X0108271Y0059853D02*
X0101639Y0059853D01*
X0101652Y0058654D02*
X0106887Y0058654D01*
X0105265Y0057456D02*
X0101652Y0057456D01*
X0101593Y0056257D02*
X0103643Y0056257D01*
X0102022Y0055059D02*
X0101096Y0055059D01*
X0098678Y0064647D02*
X0113782Y0064647D01*
X0115160Y0065846D02*
X0096852Y0065846D01*
X0093960Y0116183D02*
X0062032Y0116183D01*
X0063494Y0117382D02*
X0093160Y0117382D01*
X0093063Y0118580D02*
X0064957Y0118580D01*
D18*
X0140552Y0208111D02*
X0118052Y0230611D01*
X0118052Y0288111D01*
X0103363Y0302800D01*
X0098722Y0302800D01*
X0108722Y0320121D02*
X0133052Y0295791D01*
X0133052Y0283111D01*
X0138052Y0278111D01*
X0130552Y0270611D01*
X0130552Y0258111D01*
X0140552Y0248111D01*
X0133052Y0248111D01*
X0129312Y0244371D01*
X0129312Y0235611D01*
X0129312Y0226851D01*
X0130552Y0225611D01*
X0148052Y0225611D01*
X0158052Y0215611D01*
X0158052Y0208111D01*
X0155552Y0203111D02*
X0163052Y0203111D01*
X0167312Y0207371D01*
X0167312Y0229611D01*
X0154292Y0235611D02*
X0154292Y0239371D01*
X0150552Y0243111D01*
X0150552Y0248111D01*
X0146812Y0235611D02*
X0140552Y0235611D01*
X0136792Y0235611D01*
X0140552Y0208111D02*
X0140552Y0170611D01*
X0146802Y0164361D01*
X0148052Y0163111D02*
X0155552Y0155611D01*
X0155552Y0110611D01*
X0145552Y0100611D01*
X0155552Y0110611D02*
X0165552Y0110611D01*
X0175552Y0120611D01*
X0175552Y0150611D01*
X0183052Y0158111D01*
X0188052Y0158111D01*
X0198052Y0148111D01*
X0198052Y0138111D02*
X0198052Y0128111D01*
X0193052Y0128111D01*
X0165552Y0100611D01*
X0198052Y0138111D02*
X0188052Y0148111D01*
X0183052Y0148111D01*
X0155552Y0203111D02*
X0150552Y0208111D01*
X0140552Y0208111D01*
X0140552Y0278111D02*
X0138052Y0278111D01*
X0140552Y0278111D01*
X0145552Y0283111D02*
X0150552Y0278111D01*
X0155552Y0283111D01*
D19*
X0140552Y0235611D03*
X0158052Y0208111D03*
X0158052Y0190611D03*
X0153052Y0190611D03*
X0148052Y0190611D03*
X0146802Y0164361D03*
X0148052Y0140611D03*
X0163052Y0123111D03*
X0165552Y0125611D03*
X0168052Y0130611D03*
X0180552Y0210611D03*
X0183052Y0238111D03*
X0120566Y0131723D03*
X0115511Y0125570D03*
X0110552Y0110611D03*
X0095552Y0118111D03*
M02*
