G75*
%MOIN*%
%OFA0B0*%
%FSLAX25Y25*%
%IPPOS*%
%LPD*%
%AMOC8*
5,1,8,0,0,1.08239X$1,22.5*
%
%ADD10C,0.00600*%
%ADD11C,0.00000*%
%ADD12C,0.07400*%
%ADD13R,0.03937X0.05512*%
%ADD14R,0.05118X0.05906*%
%ADD15R,0.08661X0.02362*%
%ADD16C,0.07600*%
%ADD17R,0.07874X0.04724*%
%ADD18R,0.06299X0.09055*%
%ADD19R,0.05906X0.05118*%
%ADD20C,0.01200*%
%ADD21C,0.02578*%
%ADD22C,0.02400*%
D10*
X0001300Y0013742D02*
X0001300Y0092906D01*
X0001300Y0013742D02*
X0005974Y0014173D01*
X0010636Y0014716D01*
X0015284Y0015369D01*
X0019914Y0016133D01*
X0024526Y0017008D01*
X0029115Y0017992D01*
X0033680Y0019085D01*
X0038217Y0020287D01*
X0042724Y0021596D01*
X0047198Y0023013D01*
X0051638Y0024536D01*
X0056040Y0026164D01*
X0060402Y0027897D01*
X0064721Y0029733D01*
X0068996Y0031672D01*
X0073223Y0033712D01*
X0077400Y0035852D01*
X0081525Y0038091D01*
X0085595Y0040428D01*
X0089609Y0042862D01*
X0093563Y0045390D01*
X0097456Y0048012D01*
X0101285Y0050726D01*
X0105049Y0053531D01*
X0108744Y0056424D01*
X0112370Y0059405D01*
X0115923Y0062471D01*
X0119403Y0065621D01*
X0122806Y0068854D01*
X0126131Y0072166D01*
X0162717Y0072166D01*
X0182402Y0024922D02*
X0182402Y0001300D01*
X0170591Y0013111D02*
X0194213Y0013111D01*
X0217835Y0127284D02*
X0217835Y0292639D01*
X0217819Y0293971D01*
X0217771Y0295302D01*
X0217690Y0296631D01*
X0217578Y0297959D01*
X0217433Y0299283D01*
X0217257Y0300603D01*
X0217048Y0301919D01*
X0216808Y0303229D01*
X0216536Y0304533D01*
X0216233Y0305830D01*
X0215899Y0307119D01*
X0215534Y0308400D01*
X0215137Y0309671D01*
X0214710Y0310933D01*
X0214253Y0312184D01*
X0213766Y0313424D01*
X0213249Y0314651D01*
X0212702Y0315866D01*
X0212126Y0317067D01*
X0211522Y0318254D01*
X0210888Y0319425D01*
X0210227Y0320582D01*
X0209538Y0321721D01*
X0208822Y0322844D01*
X0208078Y0323950D01*
X0207308Y0325037D01*
X0206513Y0326105D01*
X0205691Y0327153D01*
X0204845Y0328181D01*
X0203973Y0329189D01*
X0203078Y0330175D01*
X0202159Y0331140D01*
X0201218Y0332081D01*
X0200253Y0333000D01*
X0199267Y0333895D01*
X0198259Y0334767D01*
X0197231Y0335613D01*
X0196183Y0336435D01*
X0195115Y0337230D01*
X0194028Y0338000D01*
X0192922Y0338744D01*
X0191799Y0339460D01*
X0190660Y0340149D01*
X0189503Y0340810D01*
X0188332Y0341444D01*
X0187145Y0342048D01*
X0185944Y0342624D01*
X0184729Y0343171D01*
X0183502Y0343688D01*
X0182262Y0344175D01*
X0181011Y0344632D01*
X0179749Y0345059D01*
X0178478Y0345456D01*
X0177197Y0345821D01*
X0175908Y0346155D01*
X0174611Y0346458D01*
X0173307Y0346730D01*
X0171997Y0346970D01*
X0170681Y0347179D01*
X0169361Y0347355D01*
X0168037Y0347500D01*
X0166709Y0347612D01*
X0165380Y0347693D01*
X0164049Y0347741D01*
X0162717Y0347757D01*
X0126131Y0347757D01*
X0217835Y0127284D02*
X0217819Y0125952D01*
X0217771Y0124621D01*
X0217690Y0123292D01*
X0217578Y0121964D01*
X0217433Y0120640D01*
X0217257Y0119320D01*
X0217048Y0118004D01*
X0216808Y0116694D01*
X0216536Y0115390D01*
X0216233Y0114093D01*
X0215899Y0112804D01*
X0215534Y0111523D01*
X0215137Y0110252D01*
X0214710Y0108990D01*
X0214253Y0107739D01*
X0213766Y0106499D01*
X0213249Y0105272D01*
X0212702Y0104057D01*
X0212126Y0102856D01*
X0211522Y0101669D01*
X0210888Y0100498D01*
X0210227Y0099341D01*
X0209538Y0098202D01*
X0208822Y0097079D01*
X0208078Y0095973D01*
X0207308Y0094886D01*
X0206513Y0093818D01*
X0205691Y0092770D01*
X0204845Y0091742D01*
X0203973Y0090734D01*
X0203078Y0089748D01*
X0202159Y0088783D01*
X0201218Y0087842D01*
X0200253Y0086923D01*
X0199267Y0086028D01*
X0198259Y0085156D01*
X0197231Y0084310D01*
X0196183Y0083488D01*
X0195115Y0082693D01*
X0194028Y0081923D01*
X0192922Y0081179D01*
X0191799Y0080463D01*
X0190660Y0079774D01*
X0189503Y0079113D01*
X0188332Y0078479D01*
X0187145Y0077875D01*
X0185944Y0077299D01*
X0184729Y0076752D01*
X0183502Y0076235D01*
X0182262Y0075748D01*
X0181011Y0075291D01*
X0179749Y0074864D01*
X0178478Y0074467D01*
X0177197Y0074102D01*
X0175908Y0073768D01*
X0174611Y0073465D01*
X0173307Y0073193D01*
X0171997Y0072953D01*
X0170681Y0072744D01*
X0169361Y0072568D01*
X0168037Y0072423D01*
X0166709Y0072311D01*
X0165380Y0072230D01*
X0164049Y0072182D01*
X0162717Y0072166D01*
X0001300Y0092906D02*
X0004146Y0093324D01*
X0006981Y0093811D01*
X0009804Y0094368D01*
X0012612Y0094993D01*
X0015404Y0095686D01*
X0018178Y0096447D01*
X0020933Y0097275D01*
X0023667Y0098170D01*
X0026378Y0099131D01*
X0029065Y0100159D01*
X0031727Y0101251D01*
X0034361Y0102408D01*
X0036965Y0103628D01*
X0039540Y0104912D01*
X0042082Y0106258D01*
X0044591Y0107666D01*
X0047065Y0109134D01*
X0049502Y0110662D01*
X0051902Y0112249D01*
X0054262Y0113894D01*
X0056581Y0115596D01*
X0058858Y0117353D01*
X0061092Y0119166D01*
X0063281Y0121033D01*
X0065424Y0122952D01*
X0067519Y0124923D01*
X0069566Y0126945D01*
X0071563Y0129016D01*
X0073509Y0131134D01*
X0075402Y0133300D01*
X0077243Y0135511D01*
X0079029Y0137766D01*
X0080759Y0140064D01*
X0082433Y0142404D01*
X0084050Y0144783D01*
X0085608Y0147201D01*
X0087107Y0149657D01*
X0088545Y0152148D01*
X0089923Y0154674D01*
X0091238Y0157232D01*
X0092491Y0159821D01*
X0093681Y0162441D01*
X0094806Y0165088D01*
X0095866Y0167763D01*
X0096861Y0170462D01*
X0097790Y0173184D01*
X0098653Y0175929D01*
X0099448Y0178693D01*
X0100176Y0181477D01*
X0100835Y0184277D01*
X0101427Y0187092D01*
X0101949Y0189921D01*
X0102403Y0192762D01*
X0102787Y0195612D01*
X0103102Y0198472D01*
X0103347Y0201338D01*
X0103522Y0204210D01*
X0103627Y0207084D01*
X0103662Y0209961D01*
X0103627Y0212838D01*
X0103522Y0215712D01*
X0103347Y0218584D01*
X0103102Y0221450D01*
X0102787Y0224310D01*
X0102403Y0227160D01*
X0101949Y0230001D01*
X0101427Y0232830D01*
X0100835Y0235645D01*
X0100176Y0238445D01*
X0099448Y0241229D01*
X0098653Y0243993D01*
X0097790Y0246738D01*
X0096861Y0249460D01*
X0095866Y0252159D01*
X0094806Y0254834D01*
X0093681Y0257481D01*
X0092491Y0260101D01*
X0091238Y0262690D01*
X0089923Y0265248D01*
X0088545Y0267774D01*
X0087107Y0270265D01*
X0085608Y0272721D01*
X0084050Y0275139D01*
X0082433Y0277518D01*
X0080759Y0279858D01*
X0079029Y0282156D01*
X0077243Y0284411D01*
X0075402Y0286622D01*
X0073509Y0288788D01*
X0071563Y0290906D01*
X0069566Y0292977D01*
X0067519Y0294999D01*
X0065424Y0296970D01*
X0063281Y0298889D01*
X0061092Y0300756D01*
X0058858Y0302569D01*
X0056581Y0304326D01*
X0054262Y0306028D01*
X0051902Y0307673D01*
X0049502Y0309260D01*
X0047065Y0310788D01*
X0044591Y0312256D01*
X0042082Y0313664D01*
X0039540Y0315010D01*
X0036965Y0316294D01*
X0034361Y0317514D01*
X0031727Y0318671D01*
X0029065Y0319763D01*
X0026378Y0320791D01*
X0023667Y0321752D01*
X0020933Y0322647D01*
X0018178Y0323475D01*
X0015404Y0324236D01*
X0012612Y0324929D01*
X0009804Y0325554D01*
X0006981Y0326111D01*
X0004146Y0326598D01*
X0001300Y0327016D01*
X0001300Y0327017D02*
X0001300Y0406220D01*
X0005974Y0405787D01*
X0010636Y0405244D01*
X0015285Y0404589D01*
X0019916Y0403823D01*
X0024528Y0402948D01*
X0029117Y0401962D01*
X0033682Y0400868D01*
X0038219Y0399665D01*
X0042726Y0398354D01*
X0047201Y0396936D01*
X0051641Y0395412D01*
X0056043Y0393782D01*
X0060405Y0392048D01*
X0064725Y0390210D01*
X0068999Y0388270D01*
X0073226Y0386229D01*
X0077403Y0384087D01*
X0081528Y0381847D01*
X0085598Y0379508D01*
X0089612Y0377074D01*
X0093566Y0374544D01*
X0097458Y0371921D01*
X0101288Y0369205D01*
X0105051Y0366400D01*
X0108746Y0363505D01*
X0112371Y0360523D01*
X0115924Y0357455D01*
X0119403Y0354304D01*
X0122806Y0351070D01*
X0126131Y0347756D01*
D11*
X0089552Y0283111D02*
X0089554Y0283265D01*
X0089560Y0283420D01*
X0089570Y0283574D01*
X0089584Y0283728D01*
X0089602Y0283881D01*
X0089623Y0284034D01*
X0089649Y0284187D01*
X0089679Y0284338D01*
X0089712Y0284489D01*
X0089750Y0284639D01*
X0089791Y0284788D01*
X0089836Y0284936D01*
X0089885Y0285082D01*
X0089938Y0285228D01*
X0089994Y0285371D01*
X0090054Y0285514D01*
X0090118Y0285654D01*
X0090185Y0285794D01*
X0090256Y0285931D01*
X0090330Y0286066D01*
X0090408Y0286200D01*
X0090489Y0286331D01*
X0090574Y0286460D01*
X0090662Y0286588D01*
X0090753Y0286712D01*
X0090847Y0286835D01*
X0090945Y0286955D01*
X0091045Y0287072D01*
X0091149Y0287187D01*
X0091255Y0287299D01*
X0091364Y0287408D01*
X0091476Y0287514D01*
X0091591Y0287618D01*
X0091708Y0287718D01*
X0091828Y0287816D01*
X0091951Y0287910D01*
X0092075Y0288001D01*
X0092203Y0288089D01*
X0092332Y0288174D01*
X0092463Y0288255D01*
X0092597Y0288333D01*
X0092732Y0288407D01*
X0092869Y0288478D01*
X0093009Y0288545D01*
X0093149Y0288609D01*
X0093292Y0288669D01*
X0093435Y0288725D01*
X0093581Y0288778D01*
X0093727Y0288827D01*
X0093875Y0288872D01*
X0094024Y0288913D01*
X0094174Y0288951D01*
X0094325Y0288984D01*
X0094476Y0289014D01*
X0094629Y0289040D01*
X0094782Y0289061D01*
X0094935Y0289079D01*
X0095089Y0289093D01*
X0095243Y0289103D01*
X0095398Y0289109D01*
X0095552Y0289111D01*
X0095706Y0289109D01*
X0095861Y0289103D01*
X0096015Y0289093D01*
X0096169Y0289079D01*
X0096322Y0289061D01*
X0096475Y0289040D01*
X0096628Y0289014D01*
X0096779Y0288984D01*
X0096930Y0288951D01*
X0097080Y0288913D01*
X0097229Y0288872D01*
X0097377Y0288827D01*
X0097523Y0288778D01*
X0097669Y0288725D01*
X0097812Y0288669D01*
X0097955Y0288609D01*
X0098095Y0288545D01*
X0098235Y0288478D01*
X0098372Y0288407D01*
X0098507Y0288333D01*
X0098641Y0288255D01*
X0098772Y0288174D01*
X0098901Y0288089D01*
X0099029Y0288001D01*
X0099153Y0287910D01*
X0099276Y0287816D01*
X0099396Y0287718D01*
X0099513Y0287618D01*
X0099628Y0287514D01*
X0099740Y0287408D01*
X0099849Y0287299D01*
X0099955Y0287187D01*
X0100059Y0287072D01*
X0100159Y0286955D01*
X0100257Y0286835D01*
X0100351Y0286712D01*
X0100442Y0286588D01*
X0100530Y0286460D01*
X0100615Y0286331D01*
X0100696Y0286200D01*
X0100774Y0286066D01*
X0100848Y0285931D01*
X0100919Y0285794D01*
X0100986Y0285654D01*
X0101050Y0285514D01*
X0101110Y0285371D01*
X0101166Y0285228D01*
X0101219Y0285082D01*
X0101268Y0284936D01*
X0101313Y0284788D01*
X0101354Y0284639D01*
X0101392Y0284489D01*
X0101425Y0284338D01*
X0101455Y0284187D01*
X0101481Y0284034D01*
X0101502Y0283881D01*
X0101520Y0283728D01*
X0101534Y0283574D01*
X0101544Y0283420D01*
X0101550Y0283265D01*
X0101552Y0283111D01*
X0101550Y0282957D01*
X0101544Y0282802D01*
X0101534Y0282648D01*
X0101520Y0282494D01*
X0101502Y0282341D01*
X0101481Y0282188D01*
X0101455Y0282035D01*
X0101425Y0281884D01*
X0101392Y0281733D01*
X0101354Y0281583D01*
X0101313Y0281434D01*
X0101268Y0281286D01*
X0101219Y0281140D01*
X0101166Y0280994D01*
X0101110Y0280851D01*
X0101050Y0280708D01*
X0100986Y0280568D01*
X0100919Y0280428D01*
X0100848Y0280291D01*
X0100774Y0280156D01*
X0100696Y0280022D01*
X0100615Y0279891D01*
X0100530Y0279762D01*
X0100442Y0279634D01*
X0100351Y0279510D01*
X0100257Y0279387D01*
X0100159Y0279267D01*
X0100059Y0279150D01*
X0099955Y0279035D01*
X0099849Y0278923D01*
X0099740Y0278814D01*
X0099628Y0278708D01*
X0099513Y0278604D01*
X0099396Y0278504D01*
X0099276Y0278406D01*
X0099153Y0278312D01*
X0099029Y0278221D01*
X0098901Y0278133D01*
X0098772Y0278048D01*
X0098641Y0277967D01*
X0098507Y0277889D01*
X0098372Y0277815D01*
X0098235Y0277744D01*
X0098095Y0277677D01*
X0097955Y0277613D01*
X0097812Y0277553D01*
X0097669Y0277497D01*
X0097523Y0277444D01*
X0097377Y0277395D01*
X0097229Y0277350D01*
X0097080Y0277309D01*
X0096930Y0277271D01*
X0096779Y0277238D01*
X0096628Y0277208D01*
X0096475Y0277182D01*
X0096322Y0277161D01*
X0096169Y0277143D01*
X0096015Y0277129D01*
X0095861Y0277119D01*
X0095706Y0277113D01*
X0095552Y0277111D01*
X0095398Y0277113D01*
X0095243Y0277119D01*
X0095089Y0277129D01*
X0094935Y0277143D01*
X0094782Y0277161D01*
X0094629Y0277182D01*
X0094476Y0277208D01*
X0094325Y0277238D01*
X0094174Y0277271D01*
X0094024Y0277309D01*
X0093875Y0277350D01*
X0093727Y0277395D01*
X0093581Y0277444D01*
X0093435Y0277497D01*
X0093292Y0277553D01*
X0093149Y0277613D01*
X0093009Y0277677D01*
X0092869Y0277744D01*
X0092732Y0277815D01*
X0092597Y0277889D01*
X0092463Y0277967D01*
X0092332Y0278048D01*
X0092203Y0278133D01*
X0092075Y0278221D01*
X0091951Y0278312D01*
X0091828Y0278406D01*
X0091708Y0278504D01*
X0091591Y0278604D01*
X0091476Y0278708D01*
X0091364Y0278814D01*
X0091255Y0278923D01*
X0091149Y0279035D01*
X0091045Y0279150D01*
X0090945Y0279267D01*
X0090847Y0279387D01*
X0090753Y0279510D01*
X0090662Y0279634D01*
X0090574Y0279762D01*
X0090489Y0279891D01*
X0090408Y0280022D01*
X0090330Y0280156D01*
X0090256Y0280291D01*
X0090185Y0280428D01*
X0090118Y0280568D01*
X0090054Y0280708D01*
X0089994Y0280851D01*
X0089938Y0280994D01*
X0089885Y0281140D01*
X0089836Y0281286D01*
X0089791Y0281434D01*
X0089750Y0281583D01*
X0089712Y0281733D01*
X0089679Y0281884D01*
X0089649Y0282035D01*
X0089623Y0282188D01*
X0089602Y0282341D01*
X0089584Y0282494D01*
X0089570Y0282648D01*
X0089560Y0282802D01*
X0089554Y0282957D01*
X0089552Y0283111D01*
X0107052Y0173111D02*
X0107054Y0173265D01*
X0107060Y0173420D01*
X0107070Y0173574D01*
X0107084Y0173728D01*
X0107102Y0173881D01*
X0107123Y0174034D01*
X0107149Y0174187D01*
X0107179Y0174338D01*
X0107212Y0174489D01*
X0107250Y0174639D01*
X0107291Y0174788D01*
X0107336Y0174936D01*
X0107385Y0175082D01*
X0107438Y0175228D01*
X0107494Y0175371D01*
X0107554Y0175514D01*
X0107618Y0175654D01*
X0107685Y0175794D01*
X0107756Y0175931D01*
X0107830Y0176066D01*
X0107908Y0176200D01*
X0107989Y0176331D01*
X0108074Y0176460D01*
X0108162Y0176588D01*
X0108253Y0176712D01*
X0108347Y0176835D01*
X0108445Y0176955D01*
X0108545Y0177072D01*
X0108649Y0177187D01*
X0108755Y0177299D01*
X0108864Y0177408D01*
X0108976Y0177514D01*
X0109091Y0177618D01*
X0109208Y0177718D01*
X0109328Y0177816D01*
X0109451Y0177910D01*
X0109575Y0178001D01*
X0109703Y0178089D01*
X0109832Y0178174D01*
X0109963Y0178255D01*
X0110097Y0178333D01*
X0110232Y0178407D01*
X0110369Y0178478D01*
X0110509Y0178545D01*
X0110649Y0178609D01*
X0110792Y0178669D01*
X0110935Y0178725D01*
X0111081Y0178778D01*
X0111227Y0178827D01*
X0111375Y0178872D01*
X0111524Y0178913D01*
X0111674Y0178951D01*
X0111825Y0178984D01*
X0111976Y0179014D01*
X0112129Y0179040D01*
X0112282Y0179061D01*
X0112435Y0179079D01*
X0112589Y0179093D01*
X0112743Y0179103D01*
X0112898Y0179109D01*
X0113052Y0179111D01*
X0113206Y0179109D01*
X0113361Y0179103D01*
X0113515Y0179093D01*
X0113669Y0179079D01*
X0113822Y0179061D01*
X0113975Y0179040D01*
X0114128Y0179014D01*
X0114279Y0178984D01*
X0114430Y0178951D01*
X0114580Y0178913D01*
X0114729Y0178872D01*
X0114877Y0178827D01*
X0115023Y0178778D01*
X0115169Y0178725D01*
X0115312Y0178669D01*
X0115455Y0178609D01*
X0115595Y0178545D01*
X0115735Y0178478D01*
X0115872Y0178407D01*
X0116007Y0178333D01*
X0116141Y0178255D01*
X0116272Y0178174D01*
X0116401Y0178089D01*
X0116529Y0178001D01*
X0116653Y0177910D01*
X0116776Y0177816D01*
X0116896Y0177718D01*
X0117013Y0177618D01*
X0117128Y0177514D01*
X0117240Y0177408D01*
X0117349Y0177299D01*
X0117455Y0177187D01*
X0117559Y0177072D01*
X0117659Y0176955D01*
X0117757Y0176835D01*
X0117851Y0176712D01*
X0117942Y0176588D01*
X0118030Y0176460D01*
X0118115Y0176331D01*
X0118196Y0176200D01*
X0118274Y0176066D01*
X0118348Y0175931D01*
X0118419Y0175794D01*
X0118486Y0175654D01*
X0118550Y0175514D01*
X0118610Y0175371D01*
X0118666Y0175228D01*
X0118719Y0175082D01*
X0118768Y0174936D01*
X0118813Y0174788D01*
X0118854Y0174639D01*
X0118892Y0174489D01*
X0118925Y0174338D01*
X0118955Y0174187D01*
X0118981Y0174034D01*
X0119002Y0173881D01*
X0119020Y0173728D01*
X0119034Y0173574D01*
X0119044Y0173420D01*
X0119050Y0173265D01*
X0119052Y0173111D01*
X0119050Y0172957D01*
X0119044Y0172802D01*
X0119034Y0172648D01*
X0119020Y0172494D01*
X0119002Y0172341D01*
X0118981Y0172188D01*
X0118955Y0172035D01*
X0118925Y0171884D01*
X0118892Y0171733D01*
X0118854Y0171583D01*
X0118813Y0171434D01*
X0118768Y0171286D01*
X0118719Y0171140D01*
X0118666Y0170994D01*
X0118610Y0170851D01*
X0118550Y0170708D01*
X0118486Y0170568D01*
X0118419Y0170428D01*
X0118348Y0170291D01*
X0118274Y0170156D01*
X0118196Y0170022D01*
X0118115Y0169891D01*
X0118030Y0169762D01*
X0117942Y0169634D01*
X0117851Y0169510D01*
X0117757Y0169387D01*
X0117659Y0169267D01*
X0117559Y0169150D01*
X0117455Y0169035D01*
X0117349Y0168923D01*
X0117240Y0168814D01*
X0117128Y0168708D01*
X0117013Y0168604D01*
X0116896Y0168504D01*
X0116776Y0168406D01*
X0116653Y0168312D01*
X0116529Y0168221D01*
X0116401Y0168133D01*
X0116272Y0168048D01*
X0116141Y0167967D01*
X0116007Y0167889D01*
X0115872Y0167815D01*
X0115735Y0167744D01*
X0115595Y0167677D01*
X0115455Y0167613D01*
X0115312Y0167553D01*
X0115169Y0167497D01*
X0115023Y0167444D01*
X0114877Y0167395D01*
X0114729Y0167350D01*
X0114580Y0167309D01*
X0114430Y0167271D01*
X0114279Y0167238D01*
X0114128Y0167208D01*
X0113975Y0167182D01*
X0113822Y0167161D01*
X0113669Y0167143D01*
X0113515Y0167129D01*
X0113361Y0167119D01*
X0113206Y0167113D01*
X0113052Y0167111D01*
X0112898Y0167113D01*
X0112743Y0167119D01*
X0112589Y0167129D01*
X0112435Y0167143D01*
X0112282Y0167161D01*
X0112129Y0167182D01*
X0111976Y0167208D01*
X0111825Y0167238D01*
X0111674Y0167271D01*
X0111524Y0167309D01*
X0111375Y0167350D01*
X0111227Y0167395D01*
X0111081Y0167444D01*
X0110935Y0167497D01*
X0110792Y0167553D01*
X0110649Y0167613D01*
X0110509Y0167677D01*
X0110369Y0167744D01*
X0110232Y0167815D01*
X0110097Y0167889D01*
X0109963Y0167967D01*
X0109832Y0168048D01*
X0109703Y0168133D01*
X0109575Y0168221D01*
X0109451Y0168312D01*
X0109328Y0168406D01*
X0109208Y0168504D01*
X0109091Y0168604D01*
X0108976Y0168708D01*
X0108864Y0168814D01*
X0108755Y0168923D01*
X0108649Y0169035D01*
X0108545Y0169150D01*
X0108445Y0169267D01*
X0108347Y0169387D01*
X0108253Y0169510D01*
X0108162Y0169634D01*
X0108074Y0169762D01*
X0107989Y0169891D01*
X0107908Y0170022D01*
X0107830Y0170156D01*
X0107756Y0170291D01*
X0107685Y0170428D01*
X0107618Y0170568D01*
X0107554Y0170708D01*
X0107494Y0170851D01*
X0107438Y0170994D01*
X0107385Y0171140D01*
X0107336Y0171286D01*
X0107291Y0171434D01*
X0107250Y0171583D01*
X0107212Y0171733D01*
X0107179Y0171884D01*
X0107149Y0172035D01*
X0107123Y0172188D01*
X0107102Y0172341D01*
X0107084Y0172494D01*
X0107070Y0172648D01*
X0107060Y0172802D01*
X0107054Y0172957D01*
X0107052Y0173111D01*
X0109552Y0078111D02*
X0109554Y0078265D01*
X0109560Y0078420D01*
X0109570Y0078574D01*
X0109584Y0078728D01*
X0109602Y0078881D01*
X0109623Y0079034D01*
X0109649Y0079187D01*
X0109679Y0079338D01*
X0109712Y0079489D01*
X0109750Y0079639D01*
X0109791Y0079788D01*
X0109836Y0079936D01*
X0109885Y0080082D01*
X0109938Y0080228D01*
X0109994Y0080371D01*
X0110054Y0080514D01*
X0110118Y0080654D01*
X0110185Y0080794D01*
X0110256Y0080931D01*
X0110330Y0081066D01*
X0110408Y0081200D01*
X0110489Y0081331D01*
X0110574Y0081460D01*
X0110662Y0081588D01*
X0110753Y0081712D01*
X0110847Y0081835D01*
X0110945Y0081955D01*
X0111045Y0082072D01*
X0111149Y0082187D01*
X0111255Y0082299D01*
X0111364Y0082408D01*
X0111476Y0082514D01*
X0111591Y0082618D01*
X0111708Y0082718D01*
X0111828Y0082816D01*
X0111951Y0082910D01*
X0112075Y0083001D01*
X0112203Y0083089D01*
X0112332Y0083174D01*
X0112463Y0083255D01*
X0112597Y0083333D01*
X0112732Y0083407D01*
X0112869Y0083478D01*
X0113009Y0083545D01*
X0113149Y0083609D01*
X0113292Y0083669D01*
X0113435Y0083725D01*
X0113581Y0083778D01*
X0113727Y0083827D01*
X0113875Y0083872D01*
X0114024Y0083913D01*
X0114174Y0083951D01*
X0114325Y0083984D01*
X0114476Y0084014D01*
X0114629Y0084040D01*
X0114782Y0084061D01*
X0114935Y0084079D01*
X0115089Y0084093D01*
X0115243Y0084103D01*
X0115398Y0084109D01*
X0115552Y0084111D01*
X0115706Y0084109D01*
X0115861Y0084103D01*
X0116015Y0084093D01*
X0116169Y0084079D01*
X0116322Y0084061D01*
X0116475Y0084040D01*
X0116628Y0084014D01*
X0116779Y0083984D01*
X0116930Y0083951D01*
X0117080Y0083913D01*
X0117229Y0083872D01*
X0117377Y0083827D01*
X0117523Y0083778D01*
X0117669Y0083725D01*
X0117812Y0083669D01*
X0117955Y0083609D01*
X0118095Y0083545D01*
X0118235Y0083478D01*
X0118372Y0083407D01*
X0118507Y0083333D01*
X0118641Y0083255D01*
X0118772Y0083174D01*
X0118901Y0083089D01*
X0119029Y0083001D01*
X0119153Y0082910D01*
X0119276Y0082816D01*
X0119396Y0082718D01*
X0119513Y0082618D01*
X0119628Y0082514D01*
X0119740Y0082408D01*
X0119849Y0082299D01*
X0119955Y0082187D01*
X0120059Y0082072D01*
X0120159Y0081955D01*
X0120257Y0081835D01*
X0120351Y0081712D01*
X0120442Y0081588D01*
X0120530Y0081460D01*
X0120615Y0081331D01*
X0120696Y0081200D01*
X0120774Y0081066D01*
X0120848Y0080931D01*
X0120919Y0080794D01*
X0120986Y0080654D01*
X0121050Y0080514D01*
X0121110Y0080371D01*
X0121166Y0080228D01*
X0121219Y0080082D01*
X0121268Y0079936D01*
X0121313Y0079788D01*
X0121354Y0079639D01*
X0121392Y0079489D01*
X0121425Y0079338D01*
X0121455Y0079187D01*
X0121481Y0079034D01*
X0121502Y0078881D01*
X0121520Y0078728D01*
X0121534Y0078574D01*
X0121544Y0078420D01*
X0121550Y0078265D01*
X0121552Y0078111D01*
X0121550Y0077957D01*
X0121544Y0077802D01*
X0121534Y0077648D01*
X0121520Y0077494D01*
X0121502Y0077341D01*
X0121481Y0077188D01*
X0121455Y0077035D01*
X0121425Y0076884D01*
X0121392Y0076733D01*
X0121354Y0076583D01*
X0121313Y0076434D01*
X0121268Y0076286D01*
X0121219Y0076140D01*
X0121166Y0075994D01*
X0121110Y0075851D01*
X0121050Y0075708D01*
X0120986Y0075568D01*
X0120919Y0075428D01*
X0120848Y0075291D01*
X0120774Y0075156D01*
X0120696Y0075022D01*
X0120615Y0074891D01*
X0120530Y0074762D01*
X0120442Y0074634D01*
X0120351Y0074510D01*
X0120257Y0074387D01*
X0120159Y0074267D01*
X0120059Y0074150D01*
X0119955Y0074035D01*
X0119849Y0073923D01*
X0119740Y0073814D01*
X0119628Y0073708D01*
X0119513Y0073604D01*
X0119396Y0073504D01*
X0119276Y0073406D01*
X0119153Y0073312D01*
X0119029Y0073221D01*
X0118901Y0073133D01*
X0118772Y0073048D01*
X0118641Y0072967D01*
X0118507Y0072889D01*
X0118372Y0072815D01*
X0118235Y0072744D01*
X0118095Y0072677D01*
X0117955Y0072613D01*
X0117812Y0072553D01*
X0117669Y0072497D01*
X0117523Y0072444D01*
X0117377Y0072395D01*
X0117229Y0072350D01*
X0117080Y0072309D01*
X0116930Y0072271D01*
X0116779Y0072238D01*
X0116628Y0072208D01*
X0116475Y0072182D01*
X0116322Y0072161D01*
X0116169Y0072143D01*
X0116015Y0072129D01*
X0115861Y0072119D01*
X0115706Y0072113D01*
X0115552Y0072111D01*
X0115398Y0072113D01*
X0115243Y0072119D01*
X0115089Y0072129D01*
X0114935Y0072143D01*
X0114782Y0072161D01*
X0114629Y0072182D01*
X0114476Y0072208D01*
X0114325Y0072238D01*
X0114174Y0072271D01*
X0114024Y0072309D01*
X0113875Y0072350D01*
X0113727Y0072395D01*
X0113581Y0072444D01*
X0113435Y0072497D01*
X0113292Y0072553D01*
X0113149Y0072613D01*
X0113009Y0072677D01*
X0112869Y0072744D01*
X0112732Y0072815D01*
X0112597Y0072889D01*
X0112463Y0072967D01*
X0112332Y0073048D01*
X0112203Y0073133D01*
X0112075Y0073221D01*
X0111951Y0073312D01*
X0111828Y0073406D01*
X0111708Y0073504D01*
X0111591Y0073604D01*
X0111476Y0073708D01*
X0111364Y0073814D01*
X0111255Y0073923D01*
X0111149Y0074035D01*
X0111045Y0074150D01*
X0110945Y0074267D01*
X0110847Y0074387D01*
X0110753Y0074510D01*
X0110662Y0074634D01*
X0110574Y0074762D01*
X0110489Y0074891D01*
X0110408Y0075022D01*
X0110330Y0075156D01*
X0110256Y0075291D01*
X0110185Y0075428D01*
X0110118Y0075568D01*
X0110054Y0075708D01*
X0109994Y0075851D01*
X0109938Y0075994D01*
X0109885Y0076140D01*
X0109836Y0076286D01*
X0109791Y0076434D01*
X0109750Y0076583D01*
X0109712Y0076733D01*
X0109679Y0076884D01*
X0109649Y0077035D01*
X0109623Y0077188D01*
X0109602Y0077341D01*
X0109584Y0077494D01*
X0109570Y0077648D01*
X0109560Y0077802D01*
X0109554Y0077957D01*
X0109552Y0078111D01*
X0169552Y0195611D02*
X0169554Y0195765D01*
X0169560Y0195920D01*
X0169570Y0196074D01*
X0169584Y0196228D01*
X0169602Y0196381D01*
X0169623Y0196534D01*
X0169649Y0196687D01*
X0169679Y0196838D01*
X0169712Y0196989D01*
X0169750Y0197139D01*
X0169791Y0197288D01*
X0169836Y0197436D01*
X0169885Y0197582D01*
X0169938Y0197728D01*
X0169994Y0197871D01*
X0170054Y0198014D01*
X0170118Y0198154D01*
X0170185Y0198294D01*
X0170256Y0198431D01*
X0170330Y0198566D01*
X0170408Y0198700D01*
X0170489Y0198831D01*
X0170574Y0198960D01*
X0170662Y0199088D01*
X0170753Y0199212D01*
X0170847Y0199335D01*
X0170945Y0199455D01*
X0171045Y0199572D01*
X0171149Y0199687D01*
X0171255Y0199799D01*
X0171364Y0199908D01*
X0171476Y0200014D01*
X0171591Y0200118D01*
X0171708Y0200218D01*
X0171828Y0200316D01*
X0171951Y0200410D01*
X0172075Y0200501D01*
X0172203Y0200589D01*
X0172332Y0200674D01*
X0172463Y0200755D01*
X0172597Y0200833D01*
X0172732Y0200907D01*
X0172869Y0200978D01*
X0173009Y0201045D01*
X0173149Y0201109D01*
X0173292Y0201169D01*
X0173435Y0201225D01*
X0173581Y0201278D01*
X0173727Y0201327D01*
X0173875Y0201372D01*
X0174024Y0201413D01*
X0174174Y0201451D01*
X0174325Y0201484D01*
X0174476Y0201514D01*
X0174629Y0201540D01*
X0174782Y0201561D01*
X0174935Y0201579D01*
X0175089Y0201593D01*
X0175243Y0201603D01*
X0175398Y0201609D01*
X0175552Y0201611D01*
X0175706Y0201609D01*
X0175861Y0201603D01*
X0176015Y0201593D01*
X0176169Y0201579D01*
X0176322Y0201561D01*
X0176475Y0201540D01*
X0176628Y0201514D01*
X0176779Y0201484D01*
X0176930Y0201451D01*
X0177080Y0201413D01*
X0177229Y0201372D01*
X0177377Y0201327D01*
X0177523Y0201278D01*
X0177669Y0201225D01*
X0177812Y0201169D01*
X0177955Y0201109D01*
X0178095Y0201045D01*
X0178235Y0200978D01*
X0178372Y0200907D01*
X0178507Y0200833D01*
X0178641Y0200755D01*
X0178772Y0200674D01*
X0178901Y0200589D01*
X0179029Y0200501D01*
X0179153Y0200410D01*
X0179276Y0200316D01*
X0179396Y0200218D01*
X0179513Y0200118D01*
X0179628Y0200014D01*
X0179740Y0199908D01*
X0179849Y0199799D01*
X0179955Y0199687D01*
X0180059Y0199572D01*
X0180159Y0199455D01*
X0180257Y0199335D01*
X0180351Y0199212D01*
X0180442Y0199088D01*
X0180530Y0198960D01*
X0180615Y0198831D01*
X0180696Y0198700D01*
X0180774Y0198566D01*
X0180848Y0198431D01*
X0180919Y0198294D01*
X0180986Y0198154D01*
X0181050Y0198014D01*
X0181110Y0197871D01*
X0181166Y0197728D01*
X0181219Y0197582D01*
X0181268Y0197436D01*
X0181313Y0197288D01*
X0181354Y0197139D01*
X0181392Y0196989D01*
X0181425Y0196838D01*
X0181455Y0196687D01*
X0181481Y0196534D01*
X0181502Y0196381D01*
X0181520Y0196228D01*
X0181534Y0196074D01*
X0181544Y0195920D01*
X0181550Y0195765D01*
X0181552Y0195611D01*
X0181550Y0195457D01*
X0181544Y0195302D01*
X0181534Y0195148D01*
X0181520Y0194994D01*
X0181502Y0194841D01*
X0181481Y0194688D01*
X0181455Y0194535D01*
X0181425Y0194384D01*
X0181392Y0194233D01*
X0181354Y0194083D01*
X0181313Y0193934D01*
X0181268Y0193786D01*
X0181219Y0193640D01*
X0181166Y0193494D01*
X0181110Y0193351D01*
X0181050Y0193208D01*
X0180986Y0193068D01*
X0180919Y0192928D01*
X0180848Y0192791D01*
X0180774Y0192656D01*
X0180696Y0192522D01*
X0180615Y0192391D01*
X0180530Y0192262D01*
X0180442Y0192134D01*
X0180351Y0192010D01*
X0180257Y0191887D01*
X0180159Y0191767D01*
X0180059Y0191650D01*
X0179955Y0191535D01*
X0179849Y0191423D01*
X0179740Y0191314D01*
X0179628Y0191208D01*
X0179513Y0191104D01*
X0179396Y0191004D01*
X0179276Y0190906D01*
X0179153Y0190812D01*
X0179029Y0190721D01*
X0178901Y0190633D01*
X0178772Y0190548D01*
X0178641Y0190467D01*
X0178507Y0190389D01*
X0178372Y0190315D01*
X0178235Y0190244D01*
X0178095Y0190177D01*
X0177955Y0190113D01*
X0177812Y0190053D01*
X0177669Y0189997D01*
X0177523Y0189944D01*
X0177377Y0189895D01*
X0177229Y0189850D01*
X0177080Y0189809D01*
X0176930Y0189771D01*
X0176779Y0189738D01*
X0176628Y0189708D01*
X0176475Y0189682D01*
X0176322Y0189661D01*
X0176169Y0189643D01*
X0176015Y0189629D01*
X0175861Y0189619D01*
X0175706Y0189613D01*
X0175552Y0189611D01*
X0175398Y0189613D01*
X0175243Y0189619D01*
X0175089Y0189629D01*
X0174935Y0189643D01*
X0174782Y0189661D01*
X0174629Y0189682D01*
X0174476Y0189708D01*
X0174325Y0189738D01*
X0174174Y0189771D01*
X0174024Y0189809D01*
X0173875Y0189850D01*
X0173727Y0189895D01*
X0173581Y0189944D01*
X0173435Y0189997D01*
X0173292Y0190053D01*
X0173149Y0190113D01*
X0173009Y0190177D01*
X0172869Y0190244D01*
X0172732Y0190315D01*
X0172597Y0190389D01*
X0172463Y0190467D01*
X0172332Y0190548D01*
X0172203Y0190633D01*
X0172075Y0190721D01*
X0171951Y0190812D01*
X0171828Y0190906D01*
X0171708Y0191004D01*
X0171591Y0191104D01*
X0171476Y0191208D01*
X0171364Y0191314D01*
X0171255Y0191423D01*
X0171149Y0191535D01*
X0171045Y0191650D01*
X0170945Y0191767D01*
X0170847Y0191887D01*
X0170753Y0192010D01*
X0170662Y0192134D01*
X0170574Y0192262D01*
X0170489Y0192391D01*
X0170408Y0192522D01*
X0170330Y0192656D01*
X0170256Y0192791D01*
X0170185Y0192928D01*
X0170118Y0193068D01*
X0170054Y0193208D01*
X0169994Y0193351D01*
X0169938Y0193494D01*
X0169885Y0193640D01*
X0169836Y0193786D01*
X0169791Y0193934D01*
X0169750Y0194083D01*
X0169712Y0194233D01*
X0169679Y0194384D01*
X0169649Y0194535D01*
X0169623Y0194688D01*
X0169602Y0194841D01*
X0169584Y0194994D01*
X0169570Y0195148D01*
X0169560Y0195302D01*
X0169554Y0195457D01*
X0169552Y0195611D01*
X0197052Y0133111D02*
X0197054Y0133265D01*
X0197060Y0133420D01*
X0197070Y0133574D01*
X0197084Y0133728D01*
X0197102Y0133881D01*
X0197123Y0134034D01*
X0197149Y0134187D01*
X0197179Y0134338D01*
X0197212Y0134489D01*
X0197250Y0134639D01*
X0197291Y0134788D01*
X0197336Y0134936D01*
X0197385Y0135082D01*
X0197438Y0135228D01*
X0197494Y0135371D01*
X0197554Y0135514D01*
X0197618Y0135654D01*
X0197685Y0135794D01*
X0197756Y0135931D01*
X0197830Y0136066D01*
X0197908Y0136200D01*
X0197989Y0136331D01*
X0198074Y0136460D01*
X0198162Y0136588D01*
X0198253Y0136712D01*
X0198347Y0136835D01*
X0198445Y0136955D01*
X0198545Y0137072D01*
X0198649Y0137187D01*
X0198755Y0137299D01*
X0198864Y0137408D01*
X0198976Y0137514D01*
X0199091Y0137618D01*
X0199208Y0137718D01*
X0199328Y0137816D01*
X0199451Y0137910D01*
X0199575Y0138001D01*
X0199703Y0138089D01*
X0199832Y0138174D01*
X0199963Y0138255D01*
X0200097Y0138333D01*
X0200232Y0138407D01*
X0200369Y0138478D01*
X0200509Y0138545D01*
X0200649Y0138609D01*
X0200792Y0138669D01*
X0200935Y0138725D01*
X0201081Y0138778D01*
X0201227Y0138827D01*
X0201375Y0138872D01*
X0201524Y0138913D01*
X0201674Y0138951D01*
X0201825Y0138984D01*
X0201976Y0139014D01*
X0202129Y0139040D01*
X0202282Y0139061D01*
X0202435Y0139079D01*
X0202589Y0139093D01*
X0202743Y0139103D01*
X0202898Y0139109D01*
X0203052Y0139111D01*
X0203206Y0139109D01*
X0203361Y0139103D01*
X0203515Y0139093D01*
X0203669Y0139079D01*
X0203822Y0139061D01*
X0203975Y0139040D01*
X0204128Y0139014D01*
X0204279Y0138984D01*
X0204430Y0138951D01*
X0204580Y0138913D01*
X0204729Y0138872D01*
X0204877Y0138827D01*
X0205023Y0138778D01*
X0205169Y0138725D01*
X0205312Y0138669D01*
X0205455Y0138609D01*
X0205595Y0138545D01*
X0205735Y0138478D01*
X0205872Y0138407D01*
X0206007Y0138333D01*
X0206141Y0138255D01*
X0206272Y0138174D01*
X0206401Y0138089D01*
X0206529Y0138001D01*
X0206653Y0137910D01*
X0206776Y0137816D01*
X0206896Y0137718D01*
X0207013Y0137618D01*
X0207128Y0137514D01*
X0207240Y0137408D01*
X0207349Y0137299D01*
X0207455Y0137187D01*
X0207559Y0137072D01*
X0207659Y0136955D01*
X0207757Y0136835D01*
X0207851Y0136712D01*
X0207942Y0136588D01*
X0208030Y0136460D01*
X0208115Y0136331D01*
X0208196Y0136200D01*
X0208274Y0136066D01*
X0208348Y0135931D01*
X0208419Y0135794D01*
X0208486Y0135654D01*
X0208550Y0135514D01*
X0208610Y0135371D01*
X0208666Y0135228D01*
X0208719Y0135082D01*
X0208768Y0134936D01*
X0208813Y0134788D01*
X0208854Y0134639D01*
X0208892Y0134489D01*
X0208925Y0134338D01*
X0208955Y0134187D01*
X0208981Y0134034D01*
X0209002Y0133881D01*
X0209020Y0133728D01*
X0209034Y0133574D01*
X0209044Y0133420D01*
X0209050Y0133265D01*
X0209052Y0133111D01*
X0209050Y0132957D01*
X0209044Y0132802D01*
X0209034Y0132648D01*
X0209020Y0132494D01*
X0209002Y0132341D01*
X0208981Y0132188D01*
X0208955Y0132035D01*
X0208925Y0131884D01*
X0208892Y0131733D01*
X0208854Y0131583D01*
X0208813Y0131434D01*
X0208768Y0131286D01*
X0208719Y0131140D01*
X0208666Y0130994D01*
X0208610Y0130851D01*
X0208550Y0130708D01*
X0208486Y0130568D01*
X0208419Y0130428D01*
X0208348Y0130291D01*
X0208274Y0130156D01*
X0208196Y0130022D01*
X0208115Y0129891D01*
X0208030Y0129762D01*
X0207942Y0129634D01*
X0207851Y0129510D01*
X0207757Y0129387D01*
X0207659Y0129267D01*
X0207559Y0129150D01*
X0207455Y0129035D01*
X0207349Y0128923D01*
X0207240Y0128814D01*
X0207128Y0128708D01*
X0207013Y0128604D01*
X0206896Y0128504D01*
X0206776Y0128406D01*
X0206653Y0128312D01*
X0206529Y0128221D01*
X0206401Y0128133D01*
X0206272Y0128048D01*
X0206141Y0127967D01*
X0206007Y0127889D01*
X0205872Y0127815D01*
X0205735Y0127744D01*
X0205595Y0127677D01*
X0205455Y0127613D01*
X0205312Y0127553D01*
X0205169Y0127497D01*
X0205023Y0127444D01*
X0204877Y0127395D01*
X0204729Y0127350D01*
X0204580Y0127309D01*
X0204430Y0127271D01*
X0204279Y0127238D01*
X0204128Y0127208D01*
X0203975Y0127182D01*
X0203822Y0127161D01*
X0203669Y0127143D01*
X0203515Y0127129D01*
X0203361Y0127119D01*
X0203206Y0127113D01*
X0203052Y0127111D01*
X0202898Y0127113D01*
X0202743Y0127119D01*
X0202589Y0127129D01*
X0202435Y0127143D01*
X0202282Y0127161D01*
X0202129Y0127182D01*
X0201976Y0127208D01*
X0201825Y0127238D01*
X0201674Y0127271D01*
X0201524Y0127309D01*
X0201375Y0127350D01*
X0201227Y0127395D01*
X0201081Y0127444D01*
X0200935Y0127497D01*
X0200792Y0127553D01*
X0200649Y0127613D01*
X0200509Y0127677D01*
X0200369Y0127744D01*
X0200232Y0127815D01*
X0200097Y0127889D01*
X0199963Y0127967D01*
X0199832Y0128048D01*
X0199703Y0128133D01*
X0199575Y0128221D01*
X0199451Y0128312D01*
X0199328Y0128406D01*
X0199208Y0128504D01*
X0199091Y0128604D01*
X0198976Y0128708D01*
X0198864Y0128814D01*
X0198755Y0128923D01*
X0198649Y0129035D01*
X0198545Y0129150D01*
X0198445Y0129267D01*
X0198347Y0129387D01*
X0198253Y0129510D01*
X0198162Y0129634D01*
X0198074Y0129762D01*
X0197989Y0129891D01*
X0197908Y0130022D01*
X0197830Y0130156D01*
X0197756Y0130291D01*
X0197685Y0130428D01*
X0197618Y0130568D01*
X0197554Y0130708D01*
X0197494Y0130851D01*
X0197438Y0130994D01*
X0197385Y0131140D01*
X0197336Y0131286D01*
X0197291Y0131434D01*
X0197250Y0131583D01*
X0197212Y0131733D01*
X0197179Y0131884D01*
X0197149Y0132035D01*
X0197123Y0132188D01*
X0197102Y0132341D01*
X0197084Y0132494D01*
X0197070Y0132648D01*
X0197060Y0132802D01*
X0197054Y0132957D01*
X0197052Y0133111D01*
X0197052Y0283111D02*
X0197054Y0283265D01*
X0197060Y0283420D01*
X0197070Y0283574D01*
X0197084Y0283728D01*
X0197102Y0283881D01*
X0197123Y0284034D01*
X0197149Y0284187D01*
X0197179Y0284338D01*
X0197212Y0284489D01*
X0197250Y0284639D01*
X0197291Y0284788D01*
X0197336Y0284936D01*
X0197385Y0285082D01*
X0197438Y0285228D01*
X0197494Y0285371D01*
X0197554Y0285514D01*
X0197618Y0285654D01*
X0197685Y0285794D01*
X0197756Y0285931D01*
X0197830Y0286066D01*
X0197908Y0286200D01*
X0197989Y0286331D01*
X0198074Y0286460D01*
X0198162Y0286588D01*
X0198253Y0286712D01*
X0198347Y0286835D01*
X0198445Y0286955D01*
X0198545Y0287072D01*
X0198649Y0287187D01*
X0198755Y0287299D01*
X0198864Y0287408D01*
X0198976Y0287514D01*
X0199091Y0287618D01*
X0199208Y0287718D01*
X0199328Y0287816D01*
X0199451Y0287910D01*
X0199575Y0288001D01*
X0199703Y0288089D01*
X0199832Y0288174D01*
X0199963Y0288255D01*
X0200097Y0288333D01*
X0200232Y0288407D01*
X0200369Y0288478D01*
X0200509Y0288545D01*
X0200649Y0288609D01*
X0200792Y0288669D01*
X0200935Y0288725D01*
X0201081Y0288778D01*
X0201227Y0288827D01*
X0201375Y0288872D01*
X0201524Y0288913D01*
X0201674Y0288951D01*
X0201825Y0288984D01*
X0201976Y0289014D01*
X0202129Y0289040D01*
X0202282Y0289061D01*
X0202435Y0289079D01*
X0202589Y0289093D01*
X0202743Y0289103D01*
X0202898Y0289109D01*
X0203052Y0289111D01*
X0203206Y0289109D01*
X0203361Y0289103D01*
X0203515Y0289093D01*
X0203669Y0289079D01*
X0203822Y0289061D01*
X0203975Y0289040D01*
X0204128Y0289014D01*
X0204279Y0288984D01*
X0204430Y0288951D01*
X0204580Y0288913D01*
X0204729Y0288872D01*
X0204877Y0288827D01*
X0205023Y0288778D01*
X0205169Y0288725D01*
X0205312Y0288669D01*
X0205455Y0288609D01*
X0205595Y0288545D01*
X0205735Y0288478D01*
X0205872Y0288407D01*
X0206007Y0288333D01*
X0206141Y0288255D01*
X0206272Y0288174D01*
X0206401Y0288089D01*
X0206529Y0288001D01*
X0206653Y0287910D01*
X0206776Y0287816D01*
X0206896Y0287718D01*
X0207013Y0287618D01*
X0207128Y0287514D01*
X0207240Y0287408D01*
X0207349Y0287299D01*
X0207455Y0287187D01*
X0207559Y0287072D01*
X0207659Y0286955D01*
X0207757Y0286835D01*
X0207851Y0286712D01*
X0207942Y0286588D01*
X0208030Y0286460D01*
X0208115Y0286331D01*
X0208196Y0286200D01*
X0208274Y0286066D01*
X0208348Y0285931D01*
X0208419Y0285794D01*
X0208486Y0285654D01*
X0208550Y0285514D01*
X0208610Y0285371D01*
X0208666Y0285228D01*
X0208719Y0285082D01*
X0208768Y0284936D01*
X0208813Y0284788D01*
X0208854Y0284639D01*
X0208892Y0284489D01*
X0208925Y0284338D01*
X0208955Y0284187D01*
X0208981Y0284034D01*
X0209002Y0283881D01*
X0209020Y0283728D01*
X0209034Y0283574D01*
X0209044Y0283420D01*
X0209050Y0283265D01*
X0209052Y0283111D01*
X0209050Y0282957D01*
X0209044Y0282802D01*
X0209034Y0282648D01*
X0209020Y0282494D01*
X0209002Y0282341D01*
X0208981Y0282188D01*
X0208955Y0282035D01*
X0208925Y0281884D01*
X0208892Y0281733D01*
X0208854Y0281583D01*
X0208813Y0281434D01*
X0208768Y0281286D01*
X0208719Y0281140D01*
X0208666Y0280994D01*
X0208610Y0280851D01*
X0208550Y0280708D01*
X0208486Y0280568D01*
X0208419Y0280428D01*
X0208348Y0280291D01*
X0208274Y0280156D01*
X0208196Y0280022D01*
X0208115Y0279891D01*
X0208030Y0279762D01*
X0207942Y0279634D01*
X0207851Y0279510D01*
X0207757Y0279387D01*
X0207659Y0279267D01*
X0207559Y0279150D01*
X0207455Y0279035D01*
X0207349Y0278923D01*
X0207240Y0278814D01*
X0207128Y0278708D01*
X0207013Y0278604D01*
X0206896Y0278504D01*
X0206776Y0278406D01*
X0206653Y0278312D01*
X0206529Y0278221D01*
X0206401Y0278133D01*
X0206272Y0278048D01*
X0206141Y0277967D01*
X0206007Y0277889D01*
X0205872Y0277815D01*
X0205735Y0277744D01*
X0205595Y0277677D01*
X0205455Y0277613D01*
X0205312Y0277553D01*
X0205169Y0277497D01*
X0205023Y0277444D01*
X0204877Y0277395D01*
X0204729Y0277350D01*
X0204580Y0277309D01*
X0204430Y0277271D01*
X0204279Y0277238D01*
X0204128Y0277208D01*
X0203975Y0277182D01*
X0203822Y0277161D01*
X0203669Y0277143D01*
X0203515Y0277129D01*
X0203361Y0277119D01*
X0203206Y0277113D01*
X0203052Y0277111D01*
X0202898Y0277113D01*
X0202743Y0277119D01*
X0202589Y0277129D01*
X0202435Y0277143D01*
X0202282Y0277161D01*
X0202129Y0277182D01*
X0201976Y0277208D01*
X0201825Y0277238D01*
X0201674Y0277271D01*
X0201524Y0277309D01*
X0201375Y0277350D01*
X0201227Y0277395D01*
X0201081Y0277444D01*
X0200935Y0277497D01*
X0200792Y0277553D01*
X0200649Y0277613D01*
X0200509Y0277677D01*
X0200369Y0277744D01*
X0200232Y0277815D01*
X0200097Y0277889D01*
X0199963Y0277967D01*
X0199832Y0278048D01*
X0199703Y0278133D01*
X0199575Y0278221D01*
X0199451Y0278312D01*
X0199328Y0278406D01*
X0199208Y0278504D01*
X0199091Y0278604D01*
X0198976Y0278708D01*
X0198864Y0278814D01*
X0198755Y0278923D01*
X0198649Y0279035D01*
X0198545Y0279150D01*
X0198445Y0279267D01*
X0198347Y0279387D01*
X0198253Y0279510D01*
X0198162Y0279634D01*
X0198074Y0279762D01*
X0197989Y0279891D01*
X0197908Y0280022D01*
X0197830Y0280156D01*
X0197756Y0280291D01*
X0197685Y0280428D01*
X0197618Y0280568D01*
X0197554Y0280708D01*
X0197494Y0280851D01*
X0197438Y0280994D01*
X0197385Y0281140D01*
X0197336Y0281286D01*
X0197291Y0281434D01*
X0197250Y0281583D01*
X0197212Y0281733D01*
X0197179Y0281884D01*
X0197149Y0282035D01*
X0197123Y0282188D01*
X0197102Y0282341D01*
X0197084Y0282494D01*
X0197070Y0282648D01*
X0197060Y0282802D01*
X0197054Y0282957D01*
X0197052Y0283111D01*
D12*
X0180552Y0278111D03*
X0180552Y0288111D03*
X0170552Y0288111D03*
X0170552Y0278111D03*
X0160552Y0278111D03*
X0160552Y0288111D03*
X0150552Y0288111D03*
X0150552Y0278111D03*
X0140552Y0278111D03*
X0140552Y0288111D03*
X0140552Y0258111D03*
X0140552Y0248111D03*
X0150552Y0248111D03*
X0150552Y0258111D03*
X0160552Y0258111D03*
X0160552Y0248111D03*
X0170552Y0248111D03*
X0170552Y0258111D03*
X0180552Y0258111D03*
X0180552Y0248111D03*
X0115552Y0150611D03*
X0115552Y0140611D03*
X0115552Y0130611D03*
X0115552Y0120611D03*
X0115552Y0110611D03*
X0115552Y0100611D03*
D13*
X0140552Y0301280D03*
X0144292Y0309942D03*
X0136812Y0309942D03*
X0156812Y0309942D03*
X0164292Y0309942D03*
X0160552Y0301280D03*
X0176812Y0309942D03*
X0184292Y0309942D03*
X0180552Y0301280D03*
D14*
X0184292Y0320611D03*
X0176812Y0320611D03*
X0164292Y0320611D03*
X0156812Y0320611D03*
X0144292Y0320611D03*
X0136812Y0320611D03*
X0129292Y0305611D03*
X0121812Y0305611D03*
D15*
X0130316Y0228111D03*
X0130316Y0223111D03*
X0130316Y0218111D03*
X0130316Y0213111D03*
X0130316Y0208111D03*
X0130316Y0203111D03*
X0130316Y0198111D03*
X0150788Y0198111D03*
X0150788Y0203111D03*
X0150788Y0208111D03*
X0150788Y0213111D03*
X0150788Y0218111D03*
X0150788Y0223111D03*
X0150788Y0228111D03*
X0170316Y0220611D03*
X0170316Y0215611D03*
X0170316Y0210611D03*
X0170316Y0205611D03*
X0190788Y0205611D03*
X0190788Y0210611D03*
X0190788Y0215611D03*
X0190788Y0220611D03*
D16*
X0113722Y0328781D03*
X0108722Y0320121D03*
X0103722Y0311460D03*
X0098722Y0302800D03*
D17*
X0128524Y0180513D03*
X0128524Y0172639D03*
X0128524Y0164765D03*
X0128524Y0156891D03*
X0128524Y0149017D03*
X0128524Y0141143D03*
X0128524Y0133269D03*
X0128524Y0125394D03*
X0187580Y0125394D03*
X0187580Y0133269D03*
X0187580Y0141143D03*
X0187580Y0149017D03*
X0187580Y0156891D03*
X0187580Y0164765D03*
X0187580Y0172639D03*
X0187580Y0180513D03*
D18*
X0100552Y0145513D03*
X0100552Y0120709D03*
X0100552Y0108013D03*
X0100552Y0083209D03*
D19*
X0085552Y0109371D03*
X0085552Y0116851D03*
D20*
X0089410Y0120709D01*
X0100552Y0120709D01*
X0104902Y0115685D02*
X0104199Y0114982D01*
X0096905Y0114982D01*
X0096202Y0115685D01*
X0096202Y0118909D01*
X0090156Y0118909D01*
X0089705Y0118458D01*
X0089705Y0113795D01*
X0089254Y0113345D01*
X0089487Y0113210D01*
X0089785Y0112912D01*
X0089996Y0112547D01*
X0090105Y0112141D01*
X0090105Y0109971D01*
X0086152Y0109971D01*
X0086152Y0108771D01*
X0090105Y0108771D01*
X0090105Y0106601D01*
X0089996Y0106194D01*
X0089785Y0105829D01*
X0089487Y0105531D01*
X0089122Y0105321D01*
X0088715Y0105212D01*
X0086152Y0105212D01*
X0086152Y0108771D01*
X0084952Y0108771D01*
X0080999Y0108771D01*
X0080999Y0106601D01*
X0081108Y0106194D01*
X0081319Y0105829D01*
X0081617Y0105531D01*
X0081982Y0105321D01*
X0082389Y0105212D01*
X0084952Y0105212D01*
X0084952Y0108771D01*
X0084952Y0109971D01*
X0080999Y0109971D01*
X0080999Y0112141D01*
X0081108Y0112547D01*
X0081319Y0112912D01*
X0081617Y0113210D01*
X0081850Y0113345D01*
X0081399Y0113795D01*
X0081399Y0119907D01*
X0082102Y0120610D01*
X0086765Y0120610D01*
X0087610Y0121455D01*
X0088665Y0122509D01*
X0096202Y0122509D01*
X0096202Y0125734D01*
X0096905Y0126437D01*
X0104199Y0126437D01*
X0104902Y0125734D01*
X0104902Y0115685D01*
X0104902Y0116183D02*
X0113438Y0116183D01*
X0112776Y0116457D02*
X0114577Y0115711D01*
X0116527Y0115711D01*
X0118328Y0116457D01*
X0119706Y0117835D01*
X0120452Y0119636D01*
X0120452Y0121586D01*
X0119706Y0123387D01*
X0119282Y0123811D01*
X0123387Y0123811D01*
X0123387Y0122535D01*
X0124090Y0121832D01*
X0132958Y0121832D01*
X0133661Y0122535D01*
X0133661Y0128254D01*
X0132958Y0128957D01*
X0124090Y0128957D01*
X0123387Y0128254D01*
X0123387Y0127411D01*
X0119282Y0127411D01*
X0119706Y0127835D01*
X0120452Y0129636D01*
X0120452Y0131469D01*
X0123387Y0131469D01*
X0123387Y0130409D01*
X0124090Y0129706D01*
X0132958Y0129706D01*
X0133661Y0130409D01*
X0133661Y0136128D01*
X0132958Y0136831D01*
X0124090Y0136831D01*
X0123387Y0136128D01*
X0123387Y0135068D01*
X0117595Y0135068D01*
X0116527Y0135511D01*
X0114577Y0135511D01*
X0112776Y0134765D01*
X0111398Y0133387D01*
X0110652Y0131586D01*
X0110652Y0129636D01*
X0111398Y0127835D01*
X0111822Y0127411D01*
X0111298Y0127411D01*
X0109852Y0128857D01*
X0109852Y0134865D01*
X0112110Y0137123D01*
X0112776Y0136457D01*
X0114577Y0135711D01*
X0116527Y0135711D01*
X0118328Y0136457D01*
X0119706Y0137835D01*
X0120452Y0139636D01*
X0120452Y0141586D01*
X0119706Y0143387D01*
X0118328Y0144765D01*
X0116527Y0145511D01*
X0114577Y0145511D01*
X0112776Y0144765D01*
X0111398Y0143387D01*
X0110652Y0141586D01*
X0110652Y0140757D01*
X0107306Y0137411D01*
X0106252Y0136357D01*
X0106252Y0127365D01*
X0108752Y0124865D01*
X0109806Y0123811D01*
X0111822Y0123811D01*
X0111398Y0123387D01*
X0110652Y0121586D01*
X0110652Y0119636D01*
X0111398Y0117835D01*
X0112776Y0116457D01*
X0111852Y0117382D02*
X0104902Y0117382D01*
X0104902Y0118580D02*
X0111090Y0118580D01*
X0110652Y0119779D02*
X0104902Y0119779D01*
X0104902Y0120977D02*
X0110652Y0120977D01*
X0110896Y0122176D02*
X0104902Y0122176D01*
X0104902Y0123374D02*
X0111393Y0123374D01*
X0110552Y0125611D02*
X0128308Y0125611D01*
X0128524Y0125394D01*
X0126059Y0120689D02*
X0125981Y0120611D01*
X0125552Y0120611D01*
X0125552Y0120182D01*
X0125356Y0119986D01*
X0125356Y0091433D01*
X0125552Y0091237D01*
X0125552Y0075065D01*
X0125540Y0075060D01*
X0125525Y0075060D01*
X0125008Y0074840D01*
X0124489Y0074625D01*
X0124478Y0074614D01*
X0124464Y0074608D01*
X0124071Y0074207D01*
X0124050Y0074186D01*
X0118557Y0068801D01*
X0106930Y0058686D01*
X0100905Y0054234D01*
X0063488Y0117376D01*
X0067426Y0120603D01*
X0076784Y0130181D01*
X0076784Y0130181D01*
X0085029Y0140732D01*
X0092059Y0152129D01*
X0097789Y0164232D01*
X0102149Y0176893D01*
X0105085Y0189957D01*
X0106562Y0203266D01*
X0106562Y0216657D01*
X0105085Y0229965D01*
X0105085Y0229965D01*
X0102149Y0243030D01*
X0097789Y0255691D01*
X0092059Y0267794D01*
X0085029Y0279190D01*
X0085029Y0279190D01*
X0076784Y0289742D01*
X0074855Y0291717D01*
X0075552Y0293111D01*
X0113800Y0355265D01*
X0118557Y0351125D01*
X0124048Y0345739D01*
X0124071Y0345716D01*
X0124463Y0345315D01*
X0124478Y0345309D01*
X0124489Y0345298D01*
X0125008Y0345083D01*
X0125525Y0344863D01*
X0125540Y0344863D01*
X0125554Y0344857D01*
X0126116Y0344857D01*
X0126678Y0344851D01*
X0126693Y0344857D01*
X0162717Y0344857D01*
X0166814Y0344696D01*
X0174907Y0343414D01*
X0182700Y0340882D01*
X0190001Y0337162D01*
X0196630Y0332346D01*
X0202424Y0326552D01*
X0207241Y0319922D01*
X0210961Y0312622D01*
X0213493Y0304829D01*
X0214774Y0296736D01*
X0214935Y0292639D01*
X0214935Y0127284D01*
X0214774Y0123187D01*
X0214366Y0120611D01*
X0190123Y0120611D01*
X0190045Y0120689D01*
X0126059Y0120689D01*
X0125356Y0119779D02*
X0120452Y0119779D01*
X0120452Y0120977D02*
X0214424Y0120977D01*
X0214614Y0122176D02*
X0192357Y0122176D01*
X0192014Y0121832D02*
X0192717Y0122535D01*
X0192717Y0128254D01*
X0192014Y0128957D01*
X0183145Y0128957D01*
X0182699Y0128510D01*
X0180541Y0130668D01*
X0180541Y0131106D01*
X0180162Y0132021D01*
X0179462Y0132721D01*
X0178547Y0133100D01*
X0177557Y0133100D01*
X0176642Y0132721D01*
X0175942Y0132021D01*
X0175563Y0131106D01*
X0175563Y0130116D01*
X0175942Y0129201D01*
X0176642Y0128501D01*
X0177557Y0128122D01*
X0177995Y0128122D01*
X0182443Y0123675D01*
X0182443Y0122535D01*
X0183145Y0121832D01*
X0192014Y0121832D01*
X0192717Y0123374D02*
X0214782Y0123374D01*
X0214829Y0124573D02*
X0204911Y0124573D01*
X0204763Y0124511D02*
X0207923Y0125820D01*
X0210343Y0128240D01*
X0211652Y0131400D01*
X0211652Y0134822D01*
X0210343Y0137983D01*
X0207923Y0140402D01*
X0204763Y0141711D01*
X0201341Y0141711D01*
X0198180Y0140402D01*
X0195761Y0137983D01*
X0194452Y0134822D01*
X0194452Y0131400D01*
X0195761Y0128240D01*
X0198180Y0125820D01*
X0201341Y0124511D01*
X0204763Y0124511D01*
X0207805Y0125771D02*
X0214876Y0125771D01*
X0214923Y0126970D02*
X0209073Y0126970D01*
X0210271Y0128168D02*
X0214935Y0128168D01*
X0214935Y0129367D02*
X0210810Y0129367D01*
X0211306Y0130565D02*
X0214935Y0130565D01*
X0214935Y0131764D02*
X0211652Y0131764D01*
X0211652Y0132962D02*
X0214935Y0132962D01*
X0214935Y0134161D02*
X0211652Y0134161D01*
X0211429Y0135359D02*
X0214935Y0135359D01*
X0214935Y0136558D02*
X0210933Y0136558D01*
X0210436Y0137756D02*
X0214935Y0137756D01*
X0214935Y0138955D02*
X0209371Y0138955D01*
X0208172Y0140153D02*
X0214935Y0140153D01*
X0214935Y0141352D02*
X0205630Y0141352D01*
X0200474Y0141352D02*
X0192717Y0141352D01*
X0192717Y0142550D02*
X0214935Y0142550D01*
X0214935Y0143749D02*
X0192717Y0143749D01*
X0192717Y0144002D02*
X0192014Y0144705D01*
X0183145Y0144705D01*
X0182443Y0144002D01*
X0182443Y0142943D01*
X0178927Y0142943D01*
X0178547Y0143100D01*
X0177557Y0143100D01*
X0176642Y0142721D01*
X0175942Y0142021D01*
X0175563Y0141106D01*
X0175563Y0140116D01*
X0175942Y0139201D01*
X0176642Y0138501D01*
X0177557Y0138122D01*
X0178547Y0138122D01*
X0179462Y0138501D01*
X0180162Y0139201D01*
X0180221Y0139343D01*
X0182443Y0139343D01*
X0182443Y0138283D01*
X0183145Y0137580D01*
X0192014Y0137580D01*
X0192717Y0138283D01*
X0192717Y0144002D01*
X0192014Y0145454D02*
X0192717Y0146157D01*
X0192717Y0147730D01*
X0193257Y0148271D01*
X0203798Y0158811D01*
X0204852Y0159865D01*
X0204852Y0248857D01*
X0203798Y0249911D01*
X0203798Y0249911D01*
X0194852Y0258857D01*
X0194852Y0280435D01*
X0195761Y0278240D01*
X0198180Y0275820D01*
X0201341Y0274511D01*
X0204763Y0274511D01*
X0207923Y0275820D01*
X0210343Y0278240D01*
X0211652Y0281400D01*
X0211652Y0284822D01*
X0210343Y0287983D01*
X0207923Y0290402D01*
X0204763Y0291711D01*
X0201341Y0291711D01*
X0198180Y0290402D01*
X0195761Y0287983D01*
X0194852Y0285787D01*
X0194852Y0321357D01*
X0193798Y0322411D01*
X0189852Y0326357D01*
X0188798Y0327411D01*
X0168547Y0327411D01*
X0167492Y0326357D01*
X0167492Y0326357D01*
X0165899Y0324764D01*
X0161236Y0324764D01*
X0160552Y0324080D01*
X0159868Y0324764D01*
X0153756Y0324764D01*
X0153053Y0324061D01*
X0153053Y0317161D01*
X0153756Y0316458D01*
X0157525Y0316458D01*
X0159051Y0314281D01*
X0158991Y0314298D01*
X0157196Y0314298D01*
X0157196Y0310326D01*
X0156428Y0310326D01*
X0156428Y0314298D01*
X0154633Y0314298D01*
X0154226Y0314189D01*
X0153861Y0313978D01*
X0153563Y0313680D01*
X0153352Y0313315D01*
X0153243Y0312908D01*
X0153243Y0310326D01*
X0156427Y0310326D01*
X0156427Y0309557D01*
X0156428Y0309557D02*
X0157196Y0309557D01*
X0157196Y0305586D01*
X0158991Y0305586D01*
X0159398Y0305695D01*
X0159763Y0305906D01*
X0160061Y0306203D01*
X0160271Y0306568D01*
X0160380Y0306975D01*
X0160380Y0309557D01*
X0157196Y0309557D01*
X0157196Y0310326D01*
X0160380Y0310326D01*
X0160380Y0312386D01*
X0161124Y0311326D01*
X0161124Y0306689D01*
X0161827Y0305986D01*
X0166758Y0305986D01*
X0167461Y0306689D01*
X0167461Y0313195D01*
X0166758Y0313898D01*
X0163717Y0313898D01*
X0161922Y0316458D01*
X0167348Y0316458D01*
X0168051Y0317161D01*
X0168051Y0321824D01*
X0170038Y0323811D01*
X0173053Y0323811D01*
X0173053Y0317161D01*
X0173756Y0316458D01*
X0177525Y0316458D01*
X0179051Y0314281D01*
X0178991Y0314298D01*
X0177196Y0314298D01*
X0177196Y0310326D01*
X0176428Y0310326D01*
X0176428Y0314298D01*
X0174633Y0314298D01*
X0174226Y0314189D01*
X0173861Y0313978D01*
X0173563Y0313680D01*
X0173352Y0313315D01*
X0173243Y0312908D01*
X0173243Y0310326D01*
X0176427Y0310326D01*
X0176427Y0309557D01*
X0176428Y0309557D02*
X0177196Y0309557D01*
X0177196Y0305586D01*
X0178991Y0305586D01*
X0179398Y0305695D01*
X0179763Y0305906D01*
X0180061Y0306203D01*
X0180271Y0306568D01*
X0180380Y0306975D01*
X0180380Y0309557D01*
X0177196Y0309557D01*
X0177196Y0310326D01*
X0180380Y0310326D01*
X0180380Y0312386D01*
X0181124Y0311326D01*
X0181124Y0306689D01*
X0181827Y0305986D01*
X0186758Y0305986D01*
X0187461Y0306689D01*
X0187461Y0313195D01*
X0186758Y0313898D01*
X0183717Y0313898D01*
X0181922Y0316458D01*
X0184659Y0316458D01*
X0188752Y0312365D01*
X0188752Y0254865D01*
X0198752Y0244865D01*
X0198752Y0204957D01*
X0196298Y0207411D01*
X0196197Y0207411D01*
X0195616Y0207992D01*
X0185960Y0207992D01*
X0185257Y0207289D01*
X0185257Y0203933D01*
X0185960Y0203230D01*
X0195387Y0203230D01*
X0196252Y0202365D01*
X0196252Y0199957D01*
X0193798Y0202411D01*
X0186298Y0202411D01*
X0176298Y0212411D01*
X0175725Y0212411D01*
X0175144Y0212992D01*
X0165488Y0212992D01*
X0164785Y0212289D01*
X0164785Y0208933D01*
X0165488Y0208230D01*
X0175144Y0208230D01*
X0175265Y0208352D01*
X0184806Y0198811D01*
X0192306Y0198811D01*
X0193752Y0197365D01*
X0193752Y0176357D01*
X0192717Y0175321D01*
X0192717Y0175498D01*
X0192014Y0176201D01*
X0183145Y0176201D01*
X0182443Y0175498D01*
X0182443Y0169779D01*
X0183145Y0169076D01*
X0192014Y0169076D01*
X0192717Y0169779D01*
X0192717Y0170839D01*
X0193325Y0170839D01*
X0196252Y0173765D01*
X0196252Y0171357D01*
X0192618Y0167722D01*
X0192014Y0168327D01*
X0183145Y0168327D01*
X0182443Y0167624D01*
X0182443Y0161905D01*
X0183145Y0161202D01*
X0192014Y0161202D01*
X0192717Y0161905D01*
X0192717Y0162965D01*
X0192951Y0162965D01*
X0198752Y0168765D01*
X0198752Y0163857D01*
X0193586Y0158691D01*
X0192717Y0158691D01*
X0192717Y0159750D01*
X0192014Y0160453D01*
X0183145Y0160453D01*
X0182443Y0159750D01*
X0182443Y0154031D01*
X0183145Y0153328D01*
X0192014Y0153328D01*
X0192717Y0154031D01*
X0192717Y0155091D01*
X0194986Y0155091D01*
X0192244Y0152348D01*
X0192014Y0152579D01*
X0183145Y0152579D01*
X0182443Y0151876D01*
X0182443Y0146157D01*
X0183145Y0145454D01*
X0192014Y0145454D01*
X0192705Y0146146D02*
X0214935Y0146146D01*
X0214935Y0147344D02*
X0192717Y0147344D01*
X0193529Y0148543D02*
X0214935Y0148543D01*
X0214935Y0149741D02*
X0194728Y0149741D01*
X0195926Y0150940D02*
X0214935Y0150940D01*
X0214935Y0152138D02*
X0197125Y0152138D01*
X0198323Y0153337D02*
X0214935Y0153337D01*
X0214935Y0154535D02*
X0199522Y0154535D01*
X0200720Y0155734D02*
X0214935Y0155734D01*
X0214935Y0156932D02*
X0201919Y0156932D01*
X0203117Y0158131D02*
X0214935Y0158131D01*
X0214935Y0159329D02*
X0204316Y0159329D01*
X0203798Y0158811D02*
X0203798Y0158811D01*
X0203052Y0160611D02*
X0203052Y0248111D01*
X0193052Y0258111D01*
X0193052Y0320611D01*
X0188052Y0325611D01*
X0169292Y0325611D01*
X0164292Y0320611D01*
X0162009Y0316334D02*
X0177612Y0316334D01*
X0178452Y0315136D02*
X0162849Y0315136D01*
X0163689Y0313937D02*
X0173820Y0313937D01*
X0173243Y0312739D02*
X0167461Y0312739D01*
X0167461Y0311540D02*
X0173243Y0311540D01*
X0173243Y0310342D02*
X0167461Y0310342D01*
X0167461Y0309143D02*
X0173243Y0309143D01*
X0173243Y0309557D02*
X0173243Y0306975D01*
X0173352Y0306568D01*
X0173563Y0306203D01*
X0173861Y0305906D01*
X0174226Y0305695D01*
X0174633Y0305586D01*
X0176428Y0305586D01*
X0176428Y0309557D01*
X0176427Y0309557D02*
X0173243Y0309557D01*
X0173243Y0307945D02*
X0167461Y0307945D01*
X0167461Y0306746D02*
X0173305Y0306746D01*
X0173052Y0305611D02*
X0161143Y0305611D01*
X0156812Y0309942D01*
X0150552Y0316202D01*
X0150552Y0323111D01*
X0145552Y0328111D01*
X0133052Y0328111D01*
X0121812Y0316871D01*
X0121812Y0305611D01*
X0109571Y0305611D01*
X0115552Y0299630D01*
X0115552Y0190611D01*
X0125552Y0180611D01*
X0128623Y0180611D01*
X0128524Y0180513D01*
X0128623Y0180611D02*
X0135552Y0180611D01*
X0134061Y0181094D02*
X0134061Y0183085D01*
X0133952Y0183492D01*
X0133742Y0183857D01*
X0133444Y0184155D01*
X0133079Y0184366D01*
X0132672Y0184475D01*
X0129106Y0184475D01*
X0129106Y0181094D01*
X0134061Y0181094D01*
X0134061Y0182101D02*
X0141252Y0182101D01*
X0141252Y0180903D02*
X0129106Y0180903D01*
X0129106Y0181094D02*
X0129106Y0179931D01*
X0134061Y0179931D01*
X0134061Y0177940D01*
X0133952Y0177533D01*
X0133742Y0177168D01*
X0133444Y0176870D01*
X0133079Y0176659D01*
X0132672Y0176550D01*
X0129106Y0176550D01*
X0129106Y0179931D01*
X0127943Y0179931D01*
X0127943Y0176550D01*
X0124377Y0176550D01*
X0123970Y0176659D01*
X0123605Y0176870D01*
X0123307Y0177168D01*
X0123096Y0177533D01*
X0122987Y0177940D01*
X0122987Y0179931D01*
X0127943Y0179931D01*
X0127943Y0181094D01*
X0127943Y0184475D01*
X0124377Y0184475D01*
X0123970Y0184366D01*
X0123605Y0184155D01*
X0123307Y0183857D01*
X0123096Y0183492D01*
X0122987Y0183085D01*
X0122987Y0181094D01*
X0127943Y0181094D01*
X0129106Y0181094D01*
X0129106Y0182101D02*
X0127943Y0182101D01*
X0127943Y0180903D02*
X0116714Y0180903D01*
X0117923Y0180402D02*
X0114763Y0181711D01*
X0111341Y0181711D01*
X0108180Y0180402D01*
X0105761Y0177983D01*
X0104452Y0174822D01*
X0104452Y0171400D01*
X0105761Y0168240D01*
X0108180Y0165820D01*
X0111341Y0164511D01*
X0114763Y0164511D01*
X0117923Y0165820D01*
X0120343Y0168240D01*
X0121652Y0171400D01*
X0121652Y0174822D01*
X0120343Y0177983D01*
X0117923Y0180402D01*
X0118621Y0179704D02*
X0122987Y0179704D01*
X0122987Y0178506D02*
X0119820Y0178506D01*
X0120622Y0177307D02*
X0123227Y0177307D01*
X0124090Y0176201D02*
X0123387Y0175498D01*
X0123387Y0169779D01*
X0124090Y0169076D01*
X0132958Y0169076D01*
X0133661Y0169779D01*
X0133661Y0170839D01*
X0140825Y0170839D01*
X0141880Y0171893D01*
X0143752Y0173765D01*
X0143752Y0168857D01*
X0141460Y0166565D01*
X0133661Y0166565D01*
X0133661Y0167624D01*
X0132958Y0168327D01*
X0124090Y0168327D01*
X0123387Y0167624D01*
X0123387Y0161905D01*
X0124090Y0161202D01*
X0132958Y0161202D01*
X0133661Y0161905D01*
X0133661Y0162965D01*
X0142951Y0162965D01*
X0146252Y0166265D01*
X0146252Y0161357D01*
X0144062Y0159166D01*
X0143547Y0159380D01*
X0142557Y0159380D01*
X0141642Y0159001D01*
X0141332Y0158691D01*
X0133661Y0158691D01*
X0133661Y0159750D01*
X0132958Y0160453D01*
X0124090Y0160453D01*
X0123387Y0159750D01*
X0123387Y0158691D01*
X0121086Y0158691D01*
X0117502Y0155107D01*
X0116527Y0155511D01*
X0114577Y0155511D01*
X0112776Y0154765D01*
X0111398Y0153387D01*
X0110994Y0152411D01*
X0104905Y0152411D01*
X0103734Y0151240D01*
X0096905Y0151240D01*
X0096202Y0150537D01*
X0096202Y0140488D01*
X0096905Y0139785D01*
X0104199Y0139785D01*
X0104902Y0140488D01*
X0104902Y0147317D01*
X0106396Y0148811D01*
X0110994Y0148811D01*
X0111398Y0147835D01*
X0112776Y0146457D01*
X0114577Y0145711D01*
X0116527Y0145711D01*
X0118328Y0146457D01*
X0119706Y0147835D01*
X0120452Y0149636D01*
X0120452Y0151586D01*
X0120048Y0152561D01*
X0122577Y0155091D01*
X0123387Y0155091D01*
X0123387Y0154031D01*
X0124090Y0153328D01*
X0132958Y0153328D01*
X0133661Y0154031D01*
X0133661Y0155091D01*
X0141332Y0155091D01*
X0141642Y0154780D01*
X0142557Y0154402D01*
X0143547Y0154402D01*
X0144462Y0154780D01*
X0144772Y0155091D01*
X0145077Y0155091D01*
X0148988Y0159002D01*
X0148988Y0156593D01*
X0143212Y0150817D01*
X0133661Y0150817D01*
X0133661Y0151876D01*
X0132958Y0152579D01*
X0124090Y0152579D01*
X0123387Y0151876D01*
X0123387Y0146157D01*
X0124090Y0145454D01*
X0132958Y0145454D01*
X0133661Y0146157D01*
X0133661Y0147217D01*
X0144612Y0147217D01*
X0140338Y0142943D01*
X0133661Y0142943D01*
X0133661Y0144002D01*
X0132958Y0144705D01*
X0124090Y0144705D01*
X0123387Y0144002D01*
X0123387Y0138283D01*
X0124090Y0137580D01*
X0132958Y0137580D01*
X0133661Y0138283D01*
X0133661Y0139343D01*
X0141829Y0139343D01*
X0159852Y0157365D01*
X0159852Y0201357D01*
X0158798Y0202411D01*
X0158798Y0202411D01*
X0156298Y0204911D01*
X0156197Y0204911D01*
X0155616Y0205492D01*
X0145960Y0205492D01*
X0145257Y0204789D01*
X0145257Y0201433D01*
X0145960Y0200730D01*
X0155387Y0200730D01*
X0156252Y0199865D01*
X0156252Y0199856D01*
X0155616Y0200492D01*
X0145960Y0200492D01*
X0145257Y0199789D01*
X0145257Y0196433D01*
X0145960Y0195730D01*
X0148988Y0195730D01*
X0148988Y0192220D01*
X0148798Y0192411D01*
X0141298Y0199911D01*
X0135725Y0199911D01*
X0135144Y0200492D01*
X0125488Y0200492D01*
X0124852Y0199856D01*
X0124852Y0199865D01*
X0125716Y0200730D01*
X0135144Y0200730D01*
X0135846Y0201433D01*
X0135846Y0204789D01*
X0135211Y0205425D01*
X0135264Y0205439D01*
X0135629Y0205650D01*
X0135927Y0205947D01*
X0136137Y0206312D01*
X0136246Y0206719D01*
X0136246Y0208111D01*
X0136246Y0209503D01*
X0136137Y0209910D01*
X0135927Y0210275D01*
X0135629Y0210572D01*
X0135264Y0210783D01*
X0135211Y0210797D01*
X0135846Y0211433D01*
X0135846Y0214789D01*
X0135144Y0215492D01*
X0125716Y0215492D01*
X0122352Y0218857D01*
X0122352Y0223765D01*
X0123752Y0222365D01*
X0124806Y0221311D01*
X0124907Y0221311D01*
X0125488Y0220730D01*
X0135144Y0220730D01*
X0135846Y0221433D01*
X0135846Y0224789D01*
X0135144Y0225492D01*
X0125716Y0225492D01*
X0124875Y0226334D01*
X0124875Y0226343D01*
X0125488Y0225730D01*
X0135144Y0225730D01*
X0135265Y0225852D01*
X0138006Y0223111D01*
X0135265Y0220370D01*
X0135144Y0220492D01*
X0125488Y0220492D01*
X0124785Y0219789D01*
X0124785Y0216433D01*
X0125488Y0215730D01*
X0135144Y0215730D01*
X0135725Y0216311D01*
X0137306Y0216311D01*
X0141252Y0212365D01*
X0142306Y0211311D01*
X0145379Y0211311D01*
X0145960Y0210730D01*
X0155616Y0210730D01*
X0156319Y0211433D01*
X0156319Y0214789D01*
X0155616Y0215492D01*
X0145960Y0215492D01*
X0145379Y0214911D01*
X0143798Y0214911D01*
X0139348Y0219361D01*
X0141298Y0221311D01*
X0145379Y0221311D01*
X0145960Y0220730D01*
X0155616Y0220730D01*
X0156252Y0221366D01*
X0156252Y0221357D01*
X0155387Y0220492D01*
X0145960Y0220492D01*
X0145257Y0219789D01*
X0145257Y0216433D01*
X0145960Y0215730D01*
X0155616Y0215730D01*
X0156197Y0216311D01*
X0156298Y0216311D01*
X0157352Y0217365D01*
X0157352Y0217365D01*
X0158798Y0218811D01*
X0159852Y0219865D01*
X0159852Y0234865D01*
X0160563Y0235576D01*
X0160563Y0235116D01*
X0160942Y0234201D01*
X0161252Y0233891D01*
X0161252Y0218015D01*
X0161047Y0218100D01*
X0160057Y0218100D01*
X0159142Y0217721D01*
X0158442Y0217021D01*
X0158063Y0216106D01*
X0158063Y0215116D01*
X0158152Y0214901D01*
X0158152Y0210511D01*
X0150311Y0210511D01*
X0150265Y0210492D01*
X0145960Y0210492D01*
X0145257Y0209789D01*
X0145257Y0206433D01*
X0145960Y0205730D01*
X0150265Y0205730D01*
X0150311Y0205711D01*
X0159558Y0205711D01*
X0161017Y0204252D01*
X0161692Y0203576D01*
X0162575Y0203211D01*
X0170793Y0203211D01*
X0170839Y0203230D01*
X0171473Y0203230D01*
X0170680Y0202902D01*
X0168261Y0200483D01*
X0166952Y0197322D01*
X0166952Y0193900D01*
X0168261Y0190740D01*
X0170680Y0188320D01*
X0171885Y0187822D01*
X0171642Y0187721D01*
X0170942Y0187021D01*
X0170563Y0186106D01*
X0170563Y0185116D01*
X0170942Y0184201D01*
X0171642Y0183501D01*
X0172557Y0183122D01*
X0173547Y0183122D01*
X0174462Y0183501D01*
X0174772Y0183811D01*
X0181736Y0183811D01*
X0182443Y0183104D01*
X0182443Y0177653D01*
X0183145Y0176950D01*
X0192014Y0176950D01*
X0192717Y0177653D01*
X0192717Y0183372D01*
X0192014Y0184075D01*
X0186563Y0184075D01*
X0183227Y0187411D01*
X0178228Y0187411D01*
X0180423Y0188320D01*
X0182843Y0190740D01*
X0184152Y0193900D01*
X0184152Y0197322D01*
X0182843Y0200483D01*
X0180423Y0202902D01*
X0177263Y0204211D01*
X0175846Y0204211D01*
X0175846Y0207289D01*
X0175144Y0207992D01*
X0170839Y0207992D01*
X0170793Y0208011D01*
X0164046Y0208011D01*
X0162952Y0209105D01*
X0162952Y0214901D01*
X0163041Y0215116D01*
X0163041Y0215576D01*
X0163752Y0214865D01*
X0164806Y0213811D01*
X0164907Y0213811D01*
X0165488Y0213230D01*
X0175144Y0213230D01*
X0175846Y0213933D01*
X0175846Y0217289D01*
X0175144Y0217992D01*
X0165716Y0217992D01*
X0164852Y0218857D01*
X0164852Y0218866D01*
X0165488Y0218230D01*
X0175144Y0218230D01*
X0175846Y0218933D01*
X0175846Y0222289D01*
X0175144Y0222992D01*
X0172352Y0222992D01*
X0172352Y0232365D01*
X0178798Y0238811D01*
X0186298Y0238811D01*
X0187352Y0239865D01*
X0189852Y0242365D01*
X0189852Y0251357D01*
X0188798Y0252411D01*
X0185048Y0256161D01*
X0185452Y0257136D01*
X0185452Y0259086D01*
X0184706Y0260887D01*
X0183328Y0262265D01*
X0181527Y0263011D01*
X0179577Y0263011D01*
X0178602Y0262607D01*
X0177352Y0263857D01*
X0177352Y0274381D01*
X0177776Y0273957D01*
X0179577Y0273211D01*
X0181527Y0273211D01*
X0183328Y0273957D01*
X0184706Y0275335D01*
X0185452Y0277136D01*
X0185452Y0279086D01*
X0185048Y0280061D01*
X0186298Y0281311D01*
X0187352Y0282365D01*
X0187352Y0297026D01*
X0186298Y0298080D01*
X0183720Y0300657D01*
X0183720Y0304533D01*
X0183018Y0305236D01*
X0178086Y0305236D01*
X0177383Y0304533D01*
X0177383Y0298027D01*
X0178086Y0297324D01*
X0181962Y0297324D01*
X0183752Y0295535D01*
X0183752Y0291841D01*
X0183328Y0292265D01*
X0181527Y0293011D01*
X0180698Y0293011D01*
X0171683Y0302026D01*
X0170628Y0303080D01*
X0163720Y0303080D01*
X0163720Y0304533D01*
X0163018Y0305236D01*
X0158086Y0305236D01*
X0157383Y0304533D01*
X0157383Y0298825D01*
X0154852Y0301357D01*
X0153798Y0302411D01*
X0143720Y0302411D01*
X0143720Y0304533D01*
X0143018Y0305236D01*
X0138086Y0305236D01*
X0137383Y0304533D01*
X0137383Y0298027D01*
X0138086Y0297324D01*
X0143018Y0297324D01*
X0143720Y0298027D01*
X0143720Y0298811D01*
X0152306Y0298811D01*
X0158537Y0292580D01*
X0157776Y0292265D01*
X0156398Y0290887D01*
X0155652Y0289086D01*
X0155652Y0287136D01*
X0156056Y0286161D01*
X0154806Y0284911D01*
X0153752Y0283857D01*
X0155529Y0285634D01*
X0155529Y0290634D01*
X0153052Y0293111D01*
X0140552Y0293111D01*
X0136812Y0296851D01*
X0136812Y0309942D01*
X0141143Y0305611D01*
X0153052Y0305611D01*
X0156812Y0309371D01*
X0156812Y0309942D01*
X0156428Y0309557D02*
X0156428Y0305586D01*
X0154633Y0305586D01*
X0154226Y0305695D01*
X0153861Y0305906D01*
X0153563Y0306203D01*
X0153352Y0306568D01*
X0153243Y0306975D01*
X0153243Y0309557D01*
X0156427Y0309557D01*
X0156428Y0309143D02*
X0157196Y0309143D01*
X0157196Y0307945D02*
X0156428Y0307945D01*
X0156428Y0306746D02*
X0157196Y0306746D01*
X0157383Y0304349D02*
X0143720Y0304349D01*
X0143720Y0303151D02*
X0157383Y0303151D01*
X0157383Y0301952D02*
X0154256Y0301952D01*
X0155455Y0300754D02*
X0157383Y0300754D01*
X0157383Y0299555D02*
X0156653Y0299555D01*
X0153959Y0297158D02*
X0134852Y0297158D01*
X0134852Y0295960D02*
X0155158Y0295960D01*
X0156356Y0294761D02*
X0134852Y0294761D01*
X0134852Y0293563D02*
X0157555Y0293563D01*
X0158016Y0292364D02*
X0153088Y0292364D01*
X0153328Y0292265D02*
X0151527Y0293011D01*
X0149577Y0293011D01*
X0147776Y0292265D01*
X0146398Y0290887D01*
X0145652Y0289086D01*
X0145652Y0287136D01*
X0146056Y0286161D01*
X0144806Y0284911D01*
X0143752Y0283857D01*
X0143752Y0281841D01*
X0143328Y0282265D01*
X0141527Y0283011D01*
X0139577Y0283011D01*
X0137776Y0282265D01*
X0137352Y0281841D01*
X0137352Y0282365D01*
X0138602Y0283615D01*
X0139577Y0283211D01*
X0141527Y0283211D01*
X0143328Y0283957D01*
X0144706Y0285335D01*
X0145452Y0287136D01*
X0145452Y0289086D01*
X0144706Y0290887D01*
X0143328Y0292265D01*
X0141527Y0293011D01*
X0139577Y0293011D01*
X0137776Y0292265D01*
X0136398Y0290887D01*
X0135652Y0289086D01*
X0135652Y0287136D01*
X0136056Y0286161D01*
X0134852Y0284957D01*
X0134852Y0305586D01*
X0136428Y0305586D01*
X0136428Y0309557D01*
X0137196Y0309557D01*
X0137196Y0305586D01*
X0138991Y0305586D01*
X0139398Y0305695D01*
X0139763Y0305906D01*
X0140061Y0306203D01*
X0140271Y0306568D01*
X0140380Y0306975D01*
X0140380Y0309557D01*
X0137196Y0309557D01*
X0137196Y0310326D01*
X0136428Y0310326D01*
X0136428Y0314298D01*
X0134852Y0314298D01*
X0134852Y0314865D01*
X0136445Y0316458D01*
X0139868Y0316458D01*
X0140552Y0317142D01*
X0141236Y0316458D01*
X0142492Y0316458D01*
X0142492Y0313898D01*
X0141827Y0313898D01*
X0141124Y0313195D01*
X0141124Y0306689D01*
X0141827Y0305986D01*
X0146758Y0305986D01*
X0147461Y0306689D01*
X0147461Y0313195D01*
X0146758Y0313898D01*
X0146092Y0313898D01*
X0146092Y0316458D01*
X0147348Y0316458D01*
X0148051Y0317161D01*
X0148051Y0324061D01*
X0147348Y0324764D01*
X0141236Y0324764D01*
X0140552Y0324080D01*
X0139868Y0324764D01*
X0133756Y0324764D01*
X0133053Y0324061D01*
X0133053Y0318157D01*
X0132306Y0317411D01*
X0131252Y0316357D01*
X0131252Y0309764D01*
X0126236Y0309764D01*
X0125786Y0309313D01*
X0125651Y0309546D01*
X0125353Y0309844D01*
X0124988Y0310055D01*
X0124582Y0310164D01*
X0122412Y0310164D01*
X0122412Y0306211D01*
X0121212Y0306211D01*
X0121212Y0310164D01*
X0119042Y0310164D01*
X0118635Y0310055D01*
X0118270Y0309844D01*
X0117972Y0309546D01*
X0117762Y0309181D01*
X0117653Y0308774D01*
X0117653Y0306211D01*
X0121212Y0306211D01*
X0121212Y0305011D01*
X0122412Y0305011D01*
X0122412Y0301058D01*
X0124582Y0301058D01*
X0124988Y0301167D01*
X0125353Y0301378D01*
X0125651Y0301676D01*
X0125786Y0301909D01*
X0126236Y0301458D01*
X0131252Y0301458D01*
X0131252Y0256402D01*
X0116952Y0242102D01*
X0116952Y0194165D01*
X0122306Y0188811D01*
X0139761Y0188811D01*
X0141252Y0187320D01*
X0141252Y0176357D01*
X0139334Y0174439D01*
X0133661Y0174439D01*
X0133661Y0175498D01*
X0132958Y0176201D01*
X0124090Y0176201D01*
X0123998Y0176109D02*
X0121119Y0176109D01*
X0121615Y0174910D02*
X0123387Y0174910D01*
X0123387Y0173712D02*
X0121652Y0173712D01*
X0121652Y0172513D02*
X0123387Y0172513D01*
X0123387Y0171315D02*
X0121616Y0171315D01*
X0121120Y0170116D02*
X0123387Y0170116D01*
X0123483Y0167719D02*
X0119822Y0167719D01*
X0120624Y0168917D02*
X0143752Y0168917D01*
X0143752Y0170116D02*
X0133661Y0170116D01*
X0133566Y0167719D02*
X0142614Y0167719D01*
X0145552Y0168111D02*
X0142206Y0164765D01*
X0128524Y0164765D01*
X0123387Y0165322D02*
X0116720Y0165322D01*
X0118624Y0166520D02*
X0123387Y0166520D01*
X0123387Y0164123D02*
X0097737Y0164123D01*
X0098164Y0165322D02*
X0109384Y0165322D01*
X0107480Y0166520D02*
X0098577Y0166520D01*
X0098990Y0167719D02*
X0106282Y0167719D01*
X0105480Y0168917D02*
X0099402Y0168917D01*
X0099815Y0170116D02*
X0104984Y0170116D01*
X0104488Y0171315D02*
X0100228Y0171315D01*
X0100640Y0172513D02*
X0104452Y0172513D01*
X0104452Y0173712D02*
X0101053Y0173712D01*
X0101466Y0174910D02*
X0104489Y0174910D01*
X0104985Y0176109D02*
X0101879Y0176109D01*
X0102242Y0177307D02*
X0105481Y0177307D01*
X0106284Y0178506D02*
X0102511Y0178506D01*
X0102780Y0179704D02*
X0107483Y0179704D01*
X0109390Y0180903D02*
X0103050Y0180903D01*
X0103319Y0182101D02*
X0122987Y0182101D01*
X0123045Y0183300D02*
X0103589Y0183300D01*
X0103858Y0184498D02*
X0141252Y0184498D01*
X0141252Y0183300D02*
X0134004Y0183300D01*
X0134061Y0179704D02*
X0141252Y0179704D01*
X0141252Y0178506D02*
X0134061Y0178506D01*
X0133822Y0177307D02*
X0141252Y0177307D01*
X0141004Y0176109D02*
X0133051Y0176109D01*
X0133661Y0174910D02*
X0139805Y0174910D01*
X0140080Y0172639D02*
X0128524Y0172639D01*
X0127943Y0177307D02*
X0129106Y0177307D01*
X0129106Y0178506D02*
X0127943Y0178506D01*
X0127943Y0179704D02*
X0129106Y0179704D01*
X0129106Y0183300D02*
X0127943Y0183300D01*
X0123052Y0190611D02*
X0118752Y0194911D01*
X0118752Y0241357D01*
X0133052Y0255657D01*
X0133052Y0305611D01*
X0129292Y0305611D01*
X0133052Y0305611D02*
X0133052Y0315611D01*
X0136812Y0319371D01*
X0136812Y0320611D01*
X0136321Y0316334D02*
X0142492Y0316334D01*
X0142492Y0315136D02*
X0135122Y0315136D01*
X0136428Y0313937D02*
X0137196Y0313937D01*
X0137196Y0314298D02*
X0137196Y0310326D01*
X0140380Y0310326D01*
X0140380Y0312908D01*
X0140271Y0313315D01*
X0140061Y0313680D01*
X0139763Y0313978D01*
X0139398Y0314189D01*
X0138991Y0314298D01*
X0137196Y0314298D01*
X0137196Y0312739D02*
X0136428Y0312739D01*
X0136428Y0311540D02*
X0137196Y0311540D01*
X0137196Y0310342D02*
X0136428Y0310342D01*
X0136428Y0309143D02*
X0137196Y0309143D01*
X0137196Y0307945D02*
X0136428Y0307945D01*
X0136428Y0306746D02*
X0137196Y0306746D01*
X0137383Y0304349D02*
X0134852Y0304349D01*
X0134852Y0303151D02*
X0137383Y0303151D01*
X0137383Y0301952D02*
X0134852Y0301952D01*
X0134852Y0300754D02*
X0137383Y0300754D01*
X0137383Y0299555D02*
X0134852Y0299555D01*
X0134852Y0298357D02*
X0137383Y0298357D01*
X0134852Y0305548D02*
X0188752Y0305548D01*
X0188752Y0306746D02*
X0187461Y0306746D01*
X0187461Y0307945D02*
X0188752Y0307945D01*
X0188752Y0309143D02*
X0187461Y0309143D01*
X0187461Y0310342D02*
X0188752Y0310342D01*
X0188752Y0311540D02*
X0187461Y0311540D01*
X0187461Y0312739D02*
X0188379Y0312739D01*
X0187180Y0313937D02*
X0183689Y0313937D01*
X0182849Y0315136D02*
X0185982Y0315136D01*
X0184783Y0316334D02*
X0182008Y0316334D01*
X0184292Y0319371D02*
X0190552Y0313111D01*
X0190552Y0255611D01*
X0200552Y0245611D01*
X0200552Y0163111D01*
X0194331Y0156891D01*
X0187580Y0156891D01*
X0182443Y0156932D02*
X0159419Y0156932D01*
X0159852Y0158131D02*
X0182443Y0158131D01*
X0182443Y0159329D02*
X0159852Y0159329D01*
X0159852Y0160528D02*
X0195423Y0160528D01*
X0194225Y0159329D02*
X0192717Y0159329D01*
X0192538Y0161726D02*
X0196622Y0161726D01*
X0197820Y0162925D02*
X0192717Y0162925D01*
X0194110Y0164123D02*
X0198752Y0164123D01*
X0198752Y0165322D02*
X0195308Y0165322D01*
X0196507Y0166520D02*
X0198752Y0166520D01*
X0198752Y0167719D02*
X0197705Y0167719D01*
X0198052Y0170611D02*
X0192206Y0164765D01*
X0187580Y0164765D01*
X0182443Y0165322D02*
X0159852Y0165322D01*
X0159852Y0166520D02*
X0182443Y0166520D01*
X0182538Y0167719D02*
X0159852Y0167719D01*
X0159852Y0168917D02*
X0193813Y0168917D01*
X0192717Y0170116D02*
X0195011Y0170116D01*
X0196210Y0171315D02*
X0193801Y0171315D01*
X0195000Y0172513D02*
X0196252Y0172513D01*
X0196252Y0173712D02*
X0196198Y0173712D01*
X0195552Y0175611D02*
X0192580Y0172639D01*
X0187580Y0172639D01*
X0182443Y0172513D02*
X0159852Y0172513D01*
X0159852Y0171315D02*
X0182443Y0171315D01*
X0182443Y0170116D02*
X0159852Y0170116D01*
X0159852Y0173712D02*
X0182443Y0173712D01*
X0182443Y0174910D02*
X0159852Y0174910D01*
X0159852Y0176109D02*
X0183053Y0176109D01*
X0182789Y0177307D02*
X0159852Y0177307D01*
X0159852Y0178506D02*
X0182443Y0178506D01*
X0182443Y0179704D02*
X0159852Y0179704D01*
X0159852Y0180903D02*
X0182443Y0180903D01*
X0182443Y0182101D02*
X0159852Y0182101D01*
X0159852Y0183300D02*
X0172128Y0183300D01*
X0170819Y0184498D02*
X0159852Y0184498D01*
X0159852Y0185697D02*
X0170563Y0185697D01*
X0170890Y0186895D02*
X0159852Y0186895D01*
X0159852Y0188094D02*
X0171228Y0188094D01*
X0169709Y0189292D02*
X0159852Y0189292D01*
X0159852Y0190491D02*
X0168510Y0190491D01*
X0167868Y0191689D02*
X0159852Y0191689D01*
X0159852Y0192888D02*
X0167371Y0192888D01*
X0166952Y0194086D02*
X0159852Y0194086D01*
X0159852Y0195285D02*
X0166952Y0195285D01*
X0166952Y0196483D02*
X0159852Y0196483D01*
X0159852Y0197682D02*
X0167101Y0197682D01*
X0167598Y0198880D02*
X0159852Y0198880D01*
X0159852Y0200079D02*
X0168094Y0200079D01*
X0169056Y0201277D02*
X0159852Y0201277D01*
X0158733Y0202476D02*
X0170255Y0202476D01*
X0165250Y0208468D02*
X0163589Y0208468D01*
X0162952Y0209667D02*
X0164785Y0209667D01*
X0164785Y0210865D02*
X0162952Y0210865D01*
X0162952Y0212064D02*
X0164785Y0212064D01*
X0165455Y0213262D02*
X0162952Y0213262D01*
X0162952Y0214461D02*
X0164156Y0214461D01*
X0165552Y0215611D02*
X0163052Y0218111D01*
X0163052Y0235611D01*
X0160679Y0234836D02*
X0159852Y0234836D01*
X0159852Y0233637D02*
X0161252Y0233637D01*
X0161252Y0232439D02*
X0159852Y0232439D01*
X0159852Y0231240D02*
X0161252Y0231240D01*
X0161252Y0230042D02*
X0159852Y0230042D01*
X0159852Y0228843D02*
X0161252Y0228843D01*
X0161252Y0227645D02*
X0159852Y0227645D01*
X0159852Y0226446D02*
X0161252Y0226446D01*
X0161252Y0225248D02*
X0159852Y0225248D01*
X0159852Y0224049D02*
X0161252Y0224049D01*
X0161252Y0222851D02*
X0159852Y0222851D01*
X0159852Y0221652D02*
X0161252Y0221652D01*
X0161252Y0220453D02*
X0159852Y0220453D01*
X0159241Y0219255D02*
X0161252Y0219255D01*
X0161252Y0218056D02*
X0161152Y0218056D01*
X0159952Y0218056D02*
X0158043Y0218056D01*
X0158798Y0218811D02*
X0158798Y0218811D01*
X0158052Y0220611D02*
X0155552Y0218111D01*
X0150788Y0218111D01*
X0150788Y0213111D02*
X0143052Y0213111D01*
X0138052Y0218111D01*
X0135552Y0218111D01*
X0130316Y0218111D01*
X0130316Y0213111D02*
X0125552Y0213111D01*
X0120552Y0218111D01*
X0120552Y0240611D01*
X0138052Y0258111D01*
X0140552Y0258111D01*
X0135552Y0263111D01*
X0135552Y0283111D01*
X0140552Y0288111D01*
X0143088Y0292364D02*
X0148016Y0292364D01*
X0146677Y0291166D02*
X0144427Y0291166D01*
X0145087Y0289967D02*
X0146017Y0289967D01*
X0145652Y0288769D02*
X0145452Y0288769D01*
X0145452Y0287570D02*
X0145652Y0287570D01*
X0145969Y0286372D02*
X0145135Y0286372D01*
X0145068Y0285173D02*
X0144544Y0285173D01*
X0143870Y0283975D02*
X0143345Y0283975D01*
X0143752Y0282776D02*
X0142094Y0282776D01*
X0139010Y0282776D02*
X0137763Y0282776D01*
X0135969Y0286372D02*
X0134852Y0286372D01*
X0134852Y0287570D02*
X0135652Y0287570D01*
X0135652Y0288769D02*
X0134852Y0288769D01*
X0134852Y0289967D02*
X0136017Y0289967D01*
X0136677Y0291166D02*
X0134852Y0291166D01*
X0134852Y0292364D02*
X0138016Y0292364D01*
X0135068Y0285173D02*
X0134852Y0285173D01*
X0131252Y0285173D02*
X0104006Y0285173D01*
X0104152Y0284822D02*
X0102843Y0287983D01*
X0100423Y0290402D01*
X0097263Y0291711D01*
X0093841Y0291711D01*
X0090680Y0290402D01*
X0088261Y0287983D01*
X0086952Y0284822D01*
X0086952Y0281400D01*
X0088261Y0278240D01*
X0090680Y0275820D01*
X0093841Y0274511D01*
X0097263Y0274511D01*
X0100423Y0275820D01*
X0102843Y0278240D01*
X0104152Y0281400D01*
X0104152Y0284822D01*
X0104152Y0283975D02*
X0131252Y0283975D01*
X0131252Y0282776D02*
X0104152Y0282776D01*
X0104152Y0281578D02*
X0131252Y0281578D01*
X0131252Y0280379D02*
X0103729Y0280379D01*
X0103232Y0279181D02*
X0131252Y0279181D01*
X0131252Y0277982D02*
X0102585Y0277982D01*
X0101387Y0276784D02*
X0131252Y0276784D01*
X0131252Y0275585D02*
X0099855Y0275585D01*
X0091248Y0275585D02*
X0087253Y0275585D01*
X0087992Y0274386D02*
X0131252Y0274386D01*
X0131252Y0273188D02*
X0088731Y0273188D01*
X0089471Y0271989D02*
X0131252Y0271989D01*
X0131252Y0270791D02*
X0090210Y0270791D01*
X0090949Y0269592D02*
X0131252Y0269592D01*
X0131252Y0268394D02*
X0091689Y0268394D01*
X0092059Y0267794D02*
X0092059Y0267794D01*
X0092342Y0267195D02*
X0131252Y0267195D01*
X0131252Y0265997D02*
X0092910Y0265997D01*
X0093477Y0264798D02*
X0131252Y0264798D01*
X0131252Y0263600D02*
X0094044Y0263600D01*
X0094612Y0262401D02*
X0131252Y0262401D01*
X0131252Y0261203D02*
X0095179Y0261203D01*
X0095747Y0260004D02*
X0131252Y0260004D01*
X0131252Y0258806D02*
X0096314Y0258806D01*
X0096882Y0257607D02*
X0131252Y0257607D01*
X0131252Y0256409D02*
X0097449Y0256409D01*
X0097789Y0255691D02*
X0097789Y0255691D01*
X0097954Y0255210D02*
X0130060Y0255210D01*
X0128862Y0254012D02*
X0098367Y0254012D01*
X0098780Y0252813D02*
X0127663Y0252813D01*
X0126465Y0251615D02*
X0099192Y0251615D01*
X0099605Y0250416D02*
X0125266Y0250416D01*
X0124068Y0249218D02*
X0100018Y0249218D01*
X0100431Y0248019D02*
X0122869Y0248019D01*
X0121670Y0246821D02*
X0100843Y0246821D01*
X0101256Y0245622D02*
X0120472Y0245622D01*
X0119273Y0244424D02*
X0101669Y0244424D01*
X0102081Y0243225D02*
X0118075Y0243225D01*
X0116952Y0242027D02*
X0102374Y0242027D01*
X0102149Y0243030D02*
X0102149Y0243030D01*
X0102643Y0240828D02*
X0116952Y0240828D01*
X0116952Y0239630D02*
X0102913Y0239630D01*
X0103182Y0238431D02*
X0116952Y0238431D01*
X0116952Y0237233D02*
X0103452Y0237233D01*
X0103721Y0236034D02*
X0116952Y0236034D01*
X0116952Y0234836D02*
X0103990Y0234836D01*
X0104260Y0233637D02*
X0116952Y0233637D01*
X0116952Y0232439D02*
X0104529Y0232439D01*
X0104798Y0231240D02*
X0116952Y0231240D01*
X0116952Y0230042D02*
X0105068Y0230042D01*
X0105210Y0228843D02*
X0116952Y0228843D01*
X0116952Y0227645D02*
X0105343Y0227645D01*
X0105476Y0226446D02*
X0116952Y0226446D01*
X0116952Y0225248D02*
X0105609Y0225248D01*
X0105742Y0224049D02*
X0116952Y0224049D01*
X0116952Y0222851D02*
X0105875Y0222851D01*
X0106008Y0221652D02*
X0116952Y0221652D01*
X0116952Y0220453D02*
X0106141Y0220453D01*
X0106274Y0219255D02*
X0116952Y0219255D01*
X0116952Y0218056D02*
X0106407Y0218056D01*
X0106540Y0216858D02*
X0116952Y0216858D01*
X0116952Y0215659D02*
X0106562Y0215659D01*
X0106562Y0214461D02*
X0116952Y0214461D01*
X0116952Y0213262D02*
X0106562Y0213262D01*
X0106562Y0212064D02*
X0116952Y0212064D01*
X0116952Y0210865D02*
X0106562Y0210865D01*
X0106562Y0209667D02*
X0116952Y0209667D01*
X0116952Y0208468D02*
X0106562Y0208468D01*
X0106562Y0207270D02*
X0116952Y0207270D01*
X0116952Y0206071D02*
X0106562Y0206071D01*
X0106562Y0204873D02*
X0116952Y0204873D01*
X0116952Y0203674D02*
X0106562Y0203674D01*
X0106474Y0202476D02*
X0116952Y0202476D01*
X0116952Y0201277D02*
X0106341Y0201277D01*
X0106208Y0200079D02*
X0116952Y0200079D01*
X0116952Y0198880D02*
X0106075Y0198880D01*
X0105942Y0197682D02*
X0116952Y0197682D01*
X0116952Y0196483D02*
X0105809Y0196483D01*
X0105676Y0195285D02*
X0116952Y0195285D01*
X0117031Y0194086D02*
X0105543Y0194086D01*
X0105410Y0192888D02*
X0118230Y0192888D01*
X0119428Y0191689D02*
X0105277Y0191689D01*
X0105144Y0190491D02*
X0120627Y0190491D01*
X0121825Y0189292D02*
X0104935Y0189292D01*
X0104666Y0188094D02*
X0140478Y0188094D01*
X0141252Y0186895D02*
X0104397Y0186895D01*
X0104127Y0185697D02*
X0141252Y0185697D01*
X0143052Y0188065D02*
X0140506Y0190611D01*
X0123052Y0190611D01*
X0125552Y0193111D02*
X0140552Y0193111D01*
X0145552Y0188111D01*
X0145552Y0168111D01*
X0145308Y0165322D02*
X0146252Y0165322D01*
X0146252Y0164123D02*
X0144110Y0164123D01*
X0146252Y0162925D02*
X0133661Y0162925D01*
X0133483Y0161726D02*
X0146252Y0161726D01*
X0145423Y0160528D02*
X0096035Y0160528D01*
X0095468Y0159329D02*
X0123387Y0159329D01*
X0123566Y0161726D02*
X0096603Y0161726D01*
X0097170Y0162925D02*
X0123387Y0162925D01*
X0120526Y0158131D02*
X0094900Y0158131D01*
X0094333Y0156932D02*
X0119328Y0156932D01*
X0118129Y0155734D02*
X0093766Y0155734D01*
X0093198Y0154535D02*
X0112547Y0154535D01*
X0111377Y0153337D02*
X0092631Y0153337D01*
X0092063Y0152138D02*
X0104632Y0152138D01*
X0105650Y0150611D02*
X0100552Y0145513D01*
X0104902Y0144947D02*
X0113216Y0144947D01*
X0113528Y0146146D02*
X0104902Y0146146D01*
X0104929Y0147344D02*
X0111889Y0147344D01*
X0111105Y0148543D02*
X0106128Y0148543D01*
X0105650Y0150611D02*
X0115552Y0150611D01*
X0121831Y0156891D01*
X0128524Y0156891D01*
X0143052Y0156891D01*
X0144331Y0156891D01*
X0148052Y0160611D01*
X0148052Y0190611D01*
X0140552Y0198111D01*
X0130316Y0198111D01*
X0130316Y0203111D02*
X0125552Y0203111D01*
X0123052Y0200611D01*
X0123052Y0195611D01*
X0125552Y0193111D01*
X0121252Y0194957D02*
X0121252Y0201357D01*
X0122306Y0202411D01*
X0124806Y0204911D01*
X0124907Y0204911D01*
X0125421Y0205425D01*
X0125367Y0205439D01*
X0125003Y0205650D01*
X0124705Y0205947D01*
X0124494Y0206312D01*
X0124385Y0206719D01*
X0124385Y0208111D01*
X0130316Y0208111D01*
X0130316Y0208111D01*
X0136246Y0208111D01*
X0130316Y0208111D01*
X0138052Y0208111D01*
X0140552Y0205611D01*
X0140552Y0203111D01*
X0142328Y0198880D02*
X0145257Y0198880D01*
X0145257Y0197682D02*
X0143527Y0197682D01*
X0144725Y0196483D02*
X0145257Y0196483D01*
X0145924Y0195285D02*
X0148988Y0195285D01*
X0148988Y0194086D02*
X0147122Y0194086D01*
X0148321Y0192888D02*
X0148988Y0192888D01*
X0150788Y0198111D02*
X0150788Y0155847D01*
X0143957Y0149017D01*
X0128524Y0149017D01*
X0123387Y0148543D02*
X0119999Y0148543D01*
X0120452Y0149741D02*
X0123387Y0149741D01*
X0123387Y0150940D02*
X0120452Y0150940D01*
X0120223Y0152138D02*
X0123650Y0152138D01*
X0124082Y0153337D02*
X0120823Y0153337D01*
X0122022Y0154535D02*
X0123387Y0154535D01*
X0123387Y0147344D02*
X0119215Y0147344D01*
X0117576Y0146146D02*
X0123399Y0146146D01*
X0123387Y0143749D02*
X0119344Y0143749D01*
X0120052Y0142550D02*
X0123387Y0142550D01*
X0123387Y0141352D02*
X0120452Y0141352D01*
X0120452Y0140153D02*
X0123387Y0140153D01*
X0123387Y0138955D02*
X0120170Y0138955D01*
X0119627Y0137756D02*
X0123914Y0137756D01*
X0123817Y0136558D02*
X0118428Y0136558D01*
X0116893Y0135359D02*
X0123387Y0135359D01*
X0123387Y0130565D02*
X0120452Y0130565D01*
X0120340Y0129367D02*
X0175873Y0129367D01*
X0175563Y0130565D02*
X0133661Y0130565D01*
X0133661Y0131764D02*
X0175835Y0131764D01*
X0177224Y0132962D02*
X0133661Y0132962D01*
X0133661Y0134161D02*
X0182443Y0134161D01*
X0182443Y0135359D02*
X0133661Y0135359D01*
X0133231Y0136558D02*
X0182872Y0136558D01*
X0183145Y0136831D02*
X0182443Y0136128D01*
X0182443Y0130409D01*
X0183145Y0129706D01*
X0192014Y0129706D01*
X0192717Y0130409D01*
X0192717Y0136128D01*
X0192014Y0136831D01*
X0183145Y0136831D01*
X0182970Y0137756D02*
X0133134Y0137756D01*
X0133661Y0138955D02*
X0176188Y0138955D01*
X0175563Y0140153D02*
X0142640Y0140153D01*
X0143838Y0141352D02*
X0175665Y0141352D01*
X0176471Y0142550D02*
X0145037Y0142550D01*
X0146235Y0143749D02*
X0182443Y0143749D01*
X0182454Y0146146D02*
X0148632Y0146146D01*
X0147434Y0144947D02*
X0214935Y0144947D01*
X0214935Y0160528D02*
X0204852Y0160528D01*
X0204852Y0161726D02*
X0214935Y0161726D01*
X0214935Y0162925D02*
X0204852Y0162925D01*
X0204852Y0164123D02*
X0214935Y0164123D01*
X0214935Y0165322D02*
X0204852Y0165322D01*
X0204852Y0166520D02*
X0214935Y0166520D01*
X0214935Y0167719D02*
X0204852Y0167719D01*
X0204852Y0168917D02*
X0214935Y0168917D01*
X0214935Y0170116D02*
X0204852Y0170116D01*
X0204852Y0171315D02*
X0214935Y0171315D01*
X0214935Y0172513D02*
X0204852Y0172513D01*
X0204852Y0173712D02*
X0214935Y0173712D01*
X0214935Y0174910D02*
X0204852Y0174910D01*
X0204852Y0176109D02*
X0214935Y0176109D01*
X0214935Y0177307D02*
X0204852Y0177307D01*
X0204852Y0178506D02*
X0214935Y0178506D01*
X0214935Y0179704D02*
X0204852Y0179704D01*
X0204852Y0180903D02*
X0214935Y0180903D01*
X0214935Y0182101D02*
X0204852Y0182101D01*
X0204852Y0183300D02*
X0214935Y0183300D01*
X0214935Y0184498D02*
X0204852Y0184498D01*
X0204852Y0185697D02*
X0214935Y0185697D01*
X0214935Y0186895D02*
X0204852Y0186895D01*
X0204852Y0188094D02*
X0214935Y0188094D01*
X0214935Y0189292D02*
X0204852Y0189292D01*
X0204852Y0190491D02*
X0214935Y0190491D01*
X0214935Y0191689D02*
X0204852Y0191689D01*
X0204852Y0192888D02*
X0214935Y0192888D01*
X0214935Y0194086D02*
X0204852Y0194086D01*
X0204852Y0195285D02*
X0214935Y0195285D01*
X0214935Y0196483D02*
X0204852Y0196483D01*
X0204852Y0197682D02*
X0214935Y0197682D01*
X0214935Y0198880D02*
X0204852Y0198880D01*
X0204852Y0200079D02*
X0214935Y0200079D01*
X0214935Y0201277D02*
X0204852Y0201277D01*
X0204852Y0202476D02*
X0214935Y0202476D01*
X0214935Y0203674D02*
X0204852Y0203674D01*
X0204852Y0204873D02*
X0214935Y0204873D01*
X0214935Y0206071D02*
X0204852Y0206071D01*
X0204852Y0207270D02*
X0214935Y0207270D01*
X0214935Y0208468D02*
X0204852Y0208468D01*
X0204852Y0209667D02*
X0214935Y0209667D01*
X0214935Y0210865D02*
X0204852Y0210865D01*
X0204852Y0212064D02*
X0214935Y0212064D01*
X0214935Y0213262D02*
X0204852Y0213262D01*
X0204852Y0214461D02*
X0214935Y0214461D01*
X0214935Y0215659D02*
X0204852Y0215659D01*
X0204852Y0216858D02*
X0214935Y0216858D01*
X0214935Y0218056D02*
X0204852Y0218056D01*
X0204852Y0219255D02*
X0214935Y0219255D01*
X0214935Y0220453D02*
X0204852Y0220453D01*
X0204852Y0221652D02*
X0214935Y0221652D01*
X0214935Y0222851D02*
X0204852Y0222851D01*
X0204852Y0224049D02*
X0214935Y0224049D01*
X0214935Y0225248D02*
X0204852Y0225248D01*
X0204852Y0226446D02*
X0214935Y0226446D01*
X0214935Y0227645D02*
X0204852Y0227645D01*
X0204852Y0228843D02*
X0214935Y0228843D01*
X0214935Y0230042D02*
X0204852Y0230042D01*
X0204852Y0231240D02*
X0214935Y0231240D01*
X0214935Y0232439D02*
X0204852Y0232439D01*
X0204852Y0233637D02*
X0214935Y0233637D01*
X0214935Y0234836D02*
X0204852Y0234836D01*
X0204852Y0236034D02*
X0214935Y0236034D01*
X0214935Y0237233D02*
X0204852Y0237233D01*
X0204852Y0238431D02*
X0214935Y0238431D01*
X0214935Y0239630D02*
X0204852Y0239630D01*
X0204852Y0240828D02*
X0214935Y0240828D01*
X0214935Y0242027D02*
X0204852Y0242027D01*
X0204852Y0243225D02*
X0214935Y0243225D01*
X0214935Y0244424D02*
X0204852Y0244424D01*
X0204852Y0245622D02*
X0214935Y0245622D01*
X0214935Y0246821D02*
X0204852Y0246821D01*
X0204852Y0248019D02*
X0214935Y0248019D01*
X0214935Y0249218D02*
X0204491Y0249218D01*
X0203292Y0250416D02*
X0214935Y0250416D01*
X0214935Y0251615D02*
X0202094Y0251615D01*
X0200895Y0252813D02*
X0214935Y0252813D01*
X0214935Y0254012D02*
X0199697Y0254012D01*
X0198498Y0255210D02*
X0214935Y0255210D01*
X0214935Y0256409D02*
X0197300Y0256409D01*
X0196101Y0257607D02*
X0214935Y0257607D01*
X0214935Y0258806D02*
X0194903Y0258806D01*
X0194852Y0260004D02*
X0214935Y0260004D01*
X0214935Y0261203D02*
X0194852Y0261203D01*
X0194852Y0262401D02*
X0214935Y0262401D01*
X0214935Y0263600D02*
X0194852Y0263600D01*
X0194852Y0264798D02*
X0214935Y0264798D01*
X0214935Y0265997D02*
X0194852Y0265997D01*
X0194852Y0267195D02*
X0214935Y0267195D01*
X0214935Y0268394D02*
X0194852Y0268394D01*
X0194852Y0269592D02*
X0214935Y0269592D01*
X0214935Y0270791D02*
X0194852Y0270791D01*
X0194852Y0271989D02*
X0214935Y0271989D01*
X0214935Y0273188D02*
X0194852Y0273188D01*
X0194852Y0274386D02*
X0214935Y0274386D01*
X0214935Y0275585D02*
X0207355Y0275585D01*
X0208887Y0276784D02*
X0214935Y0276784D01*
X0214935Y0277982D02*
X0210085Y0277982D01*
X0210732Y0279181D02*
X0214935Y0279181D01*
X0214935Y0280379D02*
X0211229Y0280379D01*
X0211652Y0281578D02*
X0214935Y0281578D01*
X0214935Y0282776D02*
X0211652Y0282776D01*
X0211652Y0283975D02*
X0214935Y0283975D01*
X0214935Y0285173D02*
X0211506Y0285173D01*
X0211010Y0286372D02*
X0214935Y0286372D01*
X0214935Y0287570D02*
X0210514Y0287570D01*
X0209557Y0288769D02*
X0214935Y0288769D01*
X0214935Y0289967D02*
X0208358Y0289967D01*
X0206079Y0291166D02*
X0214935Y0291166D01*
X0214935Y0292364D02*
X0194852Y0292364D01*
X0194852Y0291166D02*
X0200025Y0291166D01*
X0197746Y0289967D02*
X0194852Y0289967D01*
X0194852Y0288769D02*
X0196547Y0288769D01*
X0195590Y0287570D02*
X0194852Y0287570D01*
X0194852Y0286372D02*
X0195094Y0286372D01*
X0194852Y0280379D02*
X0194875Y0280379D01*
X0194852Y0279181D02*
X0195371Y0279181D01*
X0194852Y0277982D02*
X0196019Y0277982D01*
X0194852Y0276784D02*
X0197217Y0276784D01*
X0198748Y0275585D02*
X0194852Y0275585D01*
X0188752Y0275585D02*
X0184809Y0275585D01*
X0185306Y0276784D02*
X0188752Y0276784D01*
X0188752Y0277982D02*
X0185452Y0277982D01*
X0185413Y0279181D02*
X0188752Y0279181D01*
X0188752Y0280379D02*
X0185366Y0280379D01*
X0186564Y0281578D02*
X0188752Y0281578D01*
X0188752Y0282776D02*
X0187352Y0282776D01*
X0187352Y0283975D02*
X0188752Y0283975D01*
X0188752Y0285173D02*
X0187352Y0285173D01*
X0187352Y0286372D02*
X0188752Y0286372D01*
X0188752Y0287570D02*
X0187352Y0287570D01*
X0187352Y0288769D02*
X0188752Y0288769D01*
X0188752Y0289967D02*
X0187352Y0289967D01*
X0187352Y0291166D02*
X0188752Y0291166D01*
X0188752Y0292364D02*
X0187352Y0292364D01*
X0187352Y0293563D02*
X0188752Y0293563D01*
X0188752Y0294761D02*
X0187352Y0294761D01*
X0187352Y0295960D02*
X0188752Y0295960D01*
X0188752Y0297158D02*
X0187220Y0297158D01*
X0186021Y0298357D02*
X0188752Y0298357D01*
X0188752Y0299555D02*
X0184823Y0299555D01*
X0183720Y0300754D02*
X0188752Y0300754D01*
X0188752Y0301952D02*
X0183720Y0301952D01*
X0183720Y0303151D02*
X0188752Y0303151D01*
X0188752Y0304349D02*
X0183720Y0304349D01*
X0181124Y0306746D02*
X0180319Y0306746D01*
X0180380Y0307945D02*
X0181124Y0307945D01*
X0181124Y0309143D02*
X0180380Y0309143D01*
X0180380Y0310342D02*
X0181124Y0310342D01*
X0180973Y0311540D02*
X0180380Y0311540D01*
X0184292Y0309942D02*
X0176812Y0320611D01*
X0176428Y0313937D02*
X0177196Y0313937D01*
X0177196Y0312739D02*
X0176428Y0312739D01*
X0176428Y0311540D02*
X0177196Y0311540D01*
X0177196Y0310342D02*
X0176428Y0310342D01*
X0176812Y0309942D02*
X0176812Y0309371D01*
X0173052Y0305611D01*
X0171756Y0301952D02*
X0177383Y0301952D01*
X0177383Y0300754D02*
X0172955Y0300754D01*
X0174153Y0299555D02*
X0177383Y0299555D01*
X0177383Y0298357D02*
X0175352Y0298357D01*
X0176550Y0297158D02*
X0182128Y0297158D01*
X0183327Y0295960D02*
X0177749Y0295960D01*
X0178947Y0294761D02*
X0183752Y0294761D01*
X0183752Y0293563D02*
X0180146Y0293563D01*
X0180552Y0290611D02*
X0169883Y0301280D01*
X0160552Y0301280D01*
X0163720Y0303151D02*
X0177383Y0303151D01*
X0177383Y0304349D02*
X0163720Y0304349D01*
X0161124Y0306746D02*
X0160319Y0306746D01*
X0160380Y0307945D02*
X0161124Y0307945D01*
X0161124Y0309143D02*
X0160380Y0309143D01*
X0160380Y0310342D02*
X0161124Y0310342D01*
X0160973Y0311540D02*
X0160380Y0311540D01*
X0158452Y0315136D02*
X0146092Y0315136D01*
X0146092Y0316334D02*
X0157612Y0316334D01*
X0157196Y0313937D02*
X0156428Y0313937D01*
X0156428Y0312739D02*
X0157196Y0312739D01*
X0157196Y0311540D02*
X0156428Y0311540D01*
X0156428Y0310342D02*
X0157196Y0310342D01*
X0153820Y0313937D02*
X0146092Y0313937D01*
X0147461Y0312739D02*
X0153243Y0312739D01*
X0153243Y0311540D02*
X0147461Y0311540D01*
X0147461Y0310342D02*
X0153243Y0310342D01*
X0153243Y0309143D02*
X0147461Y0309143D01*
X0147461Y0307945D02*
X0153243Y0307945D01*
X0153305Y0306746D02*
X0147461Y0306746D01*
X0144292Y0309942D02*
X0144292Y0320611D01*
X0141196Y0324724D02*
X0139908Y0324724D01*
X0133716Y0324724D02*
X0116736Y0324724D01*
X0116554Y0324542D02*
X0117961Y0325949D01*
X0118722Y0327786D01*
X0118722Y0329775D01*
X0117961Y0331613D01*
X0116554Y0333020D01*
X0114716Y0333781D01*
X0112727Y0333781D01*
X0110890Y0333020D01*
X0109483Y0331613D01*
X0108722Y0329775D01*
X0108722Y0327786D01*
X0109483Y0325949D01*
X0110732Y0324700D01*
X0109716Y0325121D01*
X0107727Y0325121D01*
X0105890Y0324359D01*
X0104483Y0322953D01*
X0103722Y0321115D01*
X0103722Y0319126D01*
X0104483Y0317288D01*
X0105072Y0316700D01*
X0104986Y0316727D01*
X0104147Y0316860D01*
X0103297Y0316860D01*
X0102457Y0316727D01*
X0101649Y0316465D01*
X0100892Y0316079D01*
X0100204Y0315579D01*
X0099603Y0314978D01*
X0099130Y0314328D01*
X0103653Y0311716D01*
X0103466Y0311392D01*
X0098954Y0313997D01*
X0098717Y0313533D01*
X0098455Y0312725D01*
X0098322Y0311885D01*
X0098322Y0311035D01*
X0098455Y0310196D01*
X0098717Y0309388D01*
X0099103Y0308630D01*
X0099603Y0307943D01*
X0099766Y0307780D01*
X0099716Y0307800D01*
X0097727Y0307800D01*
X0095890Y0307039D01*
X0094483Y0305632D01*
X0093722Y0303795D01*
X0093722Y0301806D01*
X0094483Y0299968D01*
X0095890Y0298561D01*
X0097727Y0297800D01*
X0099716Y0297800D01*
X0101554Y0298561D01*
X0102961Y0299968D01*
X0103722Y0301806D01*
X0103722Y0303795D01*
X0102961Y0305632D01*
X0102372Y0306221D01*
X0102457Y0306193D01*
X0103297Y0306060D01*
X0104147Y0306060D01*
X0104986Y0306193D01*
X0105795Y0306456D01*
X0106552Y0306842D01*
X0107240Y0307341D01*
X0107841Y0307943D01*
X0108313Y0308593D01*
X0103790Y0311204D01*
X0103978Y0311529D01*
X0108490Y0308924D01*
X0108726Y0309388D01*
X0108989Y0310196D01*
X0109122Y0311035D01*
X0109122Y0311885D01*
X0108989Y0312725D01*
X0108726Y0313533D01*
X0108340Y0314291D01*
X0107841Y0314978D01*
X0107678Y0315141D01*
X0107727Y0315121D01*
X0109716Y0315121D01*
X0111554Y0315882D01*
X0112961Y0317288D01*
X0113722Y0319126D01*
X0113722Y0321115D01*
X0112961Y0322953D01*
X0111712Y0324201D01*
X0112727Y0323781D01*
X0114716Y0323781D01*
X0116554Y0324542D01*
X0117934Y0325922D02*
X0167058Y0325922D01*
X0168257Y0327121D02*
X0118446Y0327121D01*
X0118722Y0328320D02*
X0200656Y0328320D01*
X0199458Y0329518D02*
X0118722Y0329518D01*
X0118332Y0330717D02*
X0198259Y0330717D01*
X0197061Y0331915D02*
X0117659Y0331915D01*
X0116327Y0333114D02*
X0195573Y0333114D01*
X0193924Y0334312D02*
X0100906Y0334312D01*
X0100169Y0333114D02*
X0111116Y0333114D01*
X0109785Y0331915D02*
X0099431Y0331915D01*
X0098694Y0330717D02*
X0109112Y0330717D01*
X0108722Y0329518D02*
X0097956Y0329518D01*
X0097219Y0328320D02*
X0108722Y0328320D01*
X0108997Y0327121D02*
X0096481Y0327121D01*
X0095744Y0325922D02*
X0109509Y0325922D01*
X0110674Y0324724D02*
X0110708Y0324724D01*
X0112388Y0323525D02*
X0133053Y0323525D01*
X0133053Y0322327D02*
X0113220Y0322327D01*
X0113716Y0321128D02*
X0133053Y0321128D01*
X0133053Y0319930D02*
X0113722Y0319930D01*
X0113558Y0318731D02*
X0133053Y0318731D01*
X0132428Y0317533D02*
X0113062Y0317533D01*
X0112007Y0316334D02*
X0131252Y0316334D01*
X0131252Y0315136D02*
X0109753Y0315136D01*
X0108520Y0313937D02*
X0131252Y0313937D01*
X0131252Y0312739D02*
X0108984Y0312739D01*
X0109122Y0311540D02*
X0131252Y0311540D01*
X0131252Y0310342D02*
X0109012Y0310342D01*
X0108602Y0309143D02*
X0117752Y0309143D01*
X0117653Y0307945D02*
X0107842Y0307945D01*
X0108110Y0309143D02*
X0107360Y0309143D01*
X0106034Y0310342D02*
X0105284Y0310342D01*
X0103722Y0311460D02*
X0109571Y0305611D01*
X0106364Y0306746D02*
X0117653Y0306746D01*
X0117653Y0305011D02*
X0117653Y0302448D01*
X0117762Y0302041D01*
X0117972Y0301676D01*
X0118270Y0301378D01*
X0118635Y0301167D01*
X0119042Y0301058D01*
X0121212Y0301058D01*
X0121212Y0305011D01*
X0117653Y0305011D01*
X0117653Y0304349D02*
X0103492Y0304349D01*
X0103722Y0303151D02*
X0117653Y0303151D01*
X0117813Y0301952D02*
X0103722Y0301952D01*
X0103286Y0300754D02*
X0131252Y0300754D01*
X0131252Y0299555D02*
X0102548Y0299555D01*
X0101060Y0298357D02*
X0131252Y0298357D01*
X0131252Y0297158D02*
X0078043Y0297158D01*
X0078780Y0298357D02*
X0096384Y0298357D01*
X0094896Y0299555D02*
X0079518Y0299555D01*
X0080255Y0300754D02*
X0094158Y0300754D01*
X0093722Y0301952D02*
X0080993Y0301952D01*
X0081730Y0303151D02*
X0093722Y0303151D01*
X0093952Y0304349D02*
X0082468Y0304349D01*
X0083205Y0305548D02*
X0094448Y0305548D01*
X0095597Y0306746D02*
X0083943Y0306746D01*
X0084680Y0307945D02*
X0099601Y0307945D01*
X0098842Y0309143D02*
X0085418Y0309143D01*
X0086156Y0310342D02*
X0098432Y0310342D01*
X0098322Y0311540D02*
X0086893Y0311540D01*
X0087631Y0312739D02*
X0098459Y0312739D01*
X0098923Y0313937D02*
X0088368Y0313937D01*
X0089106Y0315136D02*
X0099761Y0315136D01*
X0099806Y0313937D02*
X0099057Y0313937D01*
X0101133Y0312739D02*
X0101882Y0312739D01*
X0103208Y0311540D02*
X0103552Y0311540D01*
X0101393Y0316334D02*
X0089843Y0316334D01*
X0090581Y0317533D02*
X0104382Y0317533D01*
X0103885Y0318731D02*
X0091318Y0318731D01*
X0092056Y0319930D02*
X0103722Y0319930D01*
X0103727Y0321128D02*
X0092793Y0321128D01*
X0093531Y0322327D02*
X0104224Y0322327D01*
X0105056Y0323525D02*
X0094269Y0323525D01*
X0095006Y0324724D02*
X0106770Y0324724D01*
X0107683Y0315136D02*
X0107690Y0315136D01*
X0102996Y0305548D02*
X0121212Y0305548D01*
X0121212Y0306746D02*
X0122412Y0306746D01*
X0122412Y0307945D02*
X0121212Y0307945D01*
X0121212Y0309143D02*
X0122412Y0309143D01*
X0122412Y0304349D02*
X0121212Y0304349D01*
X0121212Y0303151D02*
X0122412Y0303151D01*
X0122412Y0301952D02*
X0121212Y0301952D01*
X0131252Y0295960D02*
X0077305Y0295960D01*
X0076567Y0294761D02*
X0131252Y0294761D01*
X0131252Y0293563D02*
X0075830Y0293563D01*
X0075179Y0292364D02*
X0131252Y0292364D01*
X0131252Y0291166D02*
X0098579Y0291166D01*
X0100858Y0289967D02*
X0131252Y0289967D01*
X0131252Y0288769D02*
X0102057Y0288769D01*
X0103014Y0287570D02*
X0131252Y0287570D01*
X0131252Y0286372D02*
X0103510Y0286372D01*
X0092525Y0291166D02*
X0075393Y0291166D01*
X0076564Y0289967D02*
X0090246Y0289967D01*
X0089047Y0288769D02*
X0077545Y0288769D01*
X0076784Y0289742D02*
X0076784Y0289742D01*
X0078481Y0287570D02*
X0088090Y0287570D01*
X0087594Y0286372D02*
X0079418Y0286372D01*
X0080354Y0285173D02*
X0087098Y0285173D01*
X0086952Y0283975D02*
X0081291Y0283975D01*
X0082227Y0282776D02*
X0086952Y0282776D01*
X0086952Y0281578D02*
X0083164Y0281578D01*
X0084100Y0280379D02*
X0087375Y0280379D01*
X0087871Y0279181D02*
X0085035Y0279181D01*
X0085774Y0277982D02*
X0088519Y0277982D01*
X0089717Y0276784D02*
X0086514Y0276784D01*
X0101644Y0335511D02*
X0192274Y0335511D01*
X0190624Y0336709D02*
X0102382Y0336709D01*
X0103119Y0337908D02*
X0188538Y0337908D01*
X0186185Y0339106D02*
X0103857Y0339106D01*
X0104594Y0340305D02*
X0183833Y0340305D01*
X0180788Y0341503D02*
X0105332Y0341503D01*
X0106069Y0342702D02*
X0177100Y0342702D01*
X0171837Y0343900D02*
X0106807Y0343900D01*
X0107544Y0345099D02*
X0124970Y0345099D01*
X0123479Y0346297D02*
X0108282Y0346297D01*
X0109019Y0347496D02*
X0122257Y0347496D01*
X0121035Y0348694D02*
X0109757Y0348694D01*
X0110495Y0349893D02*
X0119813Y0349893D01*
X0118592Y0351091D02*
X0111232Y0351091D01*
X0111970Y0352290D02*
X0117219Y0352290D01*
X0115842Y0353488D02*
X0112707Y0353488D01*
X0113445Y0354687D02*
X0114465Y0354687D01*
X0139803Y0313937D02*
X0142492Y0313937D01*
X0141124Y0312739D02*
X0140380Y0312739D01*
X0140380Y0311540D02*
X0141124Y0311540D01*
X0141124Y0310342D02*
X0140380Y0310342D01*
X0140380Y0309143D02*
X0141124Y0309143D01*
X0141124Y0307945D02*
X0140380Y0307945D01*
X0140319Y0306746D02*
X0141124Y0306746D01*
X0140552Y0301280D02*
X0141221Y0300611D01*
X0153052Y0300611D01*
X0160652Y0293011D01*
X0172582Y0293011D01*
X0175452Y0290141D01*
X0175452Y0286081D01*
X0170552Y0281181D01*
X0170552Y0278111D01*
X0165552Y0283111D02*
X0170552Y0288111D01*
X0165552Y0283111D02*
X0165552Y0263111D01*
X0170552Y0258111D01*
X0165552Y0253111D01*
X0165552Y0243111D01*
X0158052Y0235611D01*
X0158052Y0220611D01*
X0158374Y0216858D02*
X0156844Y0216858D01*
X0158063Y0215659D02*
X0143049Y0215659D01*
X0141851Y0216858D02*
X0145257Y0216858D01*
X0145257Y0218056D02*
X0140652Y0218056D01*
X0139454Y0219255D02*
X0145257Y0219255D01*
X0145922Y0220453D02*
X0140440Y0220453D01*
X0140552Y0223111D02*
X0135552Y0218111D01*
X0135349Y0220453D02*
X0135182Y0220453D01*
X0135846Y0221652D02*
X0136547Y0221652D01*
X0135846Y0222851D02*
X0137746Y0222851D01*
X0137068Y0224049D02*
X0135846Y0224049D01*
X0135870Y0225248D02*
X0135388Y0225248D01*
X0135552Y0228111D02*
X0130316Y0228111D01*
X0130552Y0228111D02*
X0135552Y0228111D01*
X0140552Y0228111D01*
X0140552Y0235611D01*
X0142352Y0233891D02*
X0142662Y0234201D01*
X0143041Y0235116D01*
X0143041Y0236106D01*
X0142662Y0237021D01*
X0141962Y0237721D01*
X0141047Y0238100D01*
X0140057Y0238100D01*
X0139142Y0237721D01*
X0138442Y0237021D01*
X0138063Y0236106D01*
X0138063Y0235116D01*
X0138442Y0234201D01*
X0138752Y0233891D01*
X0138752Y0229911D01*
X0135725Y0229911D01*
X0135144Y0230492D01*
X0125488Y0230492D01*
X0124875Y0229879D01*
X0124875Y0239843D01*
X0136320Y0251288D01*
X0136443Y0251411D01*
X0136922Y0251411D01*
X0136398Y0250887D01*
X0135652Y0249086D01*
X0135652Y0247136D01*
X0136398Y0245335D01*
X0137776Y0243957D01*
X0139577Y0243211D01*
X0141527Y0243211D01*
X0143328Y0243957D01*
X0144706Y0245335D01*
X0145371Y0246941D01*
X0145382Y0246870D01*
X0145640Y0246077D01*
X0146019Y0245333D01*
X0146509Y0244658D01*
X0147099Y0244068D01*
X0147774Y0243578D01*
X0148517Y0243199D01*
X0149311Y0242942D01*
X0150135Y0242811D01*
X0150152Y0242811D01*
X0150152Y0247711D01*
X0150952Y0247711D01*
X0150952Y0242811D01*
X0150969Y0242811D01*
X0151793Y0242942D01*
X0152586Y0243199D01*
X0153330Y0243578D01*
X0153652Y0243812D01*
X0153652Y0243757D01*
X0149806Y0239911D01*
X0148752Y0238857D01*
X0148752Y0230492D01*
X0145960Y0230492D01*
X0145257Y0229789D01*
X0145257Y0226433D01*
X0145960Y0225730D01*
X0155616Y0225730D01*
X0156252Y0226366D01*
X0156252Y0224856D01*
X0155616Y0225492D01*
X0145960Y0225492D01*
X0145379Y0224911D01*
X0141298Y0224911D01*
X0139898Y0226311D01*
X0141298Y0226311D01*
X0142352Y0227365D01*
X0142352Y0233891D01*
X0142352Y0233637D02*
X0148752Y0233637D01*
X0148752Y0232439D02*
X0142352Y0232439D01*
X0142352Y0231240D02*
X0148752Y0231240D01*
X0150552Y0228347D02*
X0150788Y0228111D01*
X0150552Y0228347D02*
X0150552Y0238111D01*
X0155452Y0243011D01*
X0155452Y0253011D01*
X0160552Y0258111D01*
X0160552Y0255611D01*
X0160552Y0258111D02*
X0155552Y0263111D01*
X0155552Y0283111D01*
X0160552Y0288111D01*
X0156017Y0289967D02*
X0155087Y0289967D01*
X0155452Y0289086D02*
X0154706Y0290887D01*
X0153328Y0292265D01*
X0154427Y0291166D02*
X0156677Y0291166D01*
X0155452Y0289086D02*
X0155452Y0287136D01*
X0154706Y0285335D01*
X0153328Y0283957D01*
X0151722Y0283292D01*
X0151793Y0283281D01*
X0152586Y0283023D01*
X0153330Y0282644D01*
X0153752Y0282337D01*
X0153752Y0283857D01*
X0153752Y0283811D01*
X0150552Y0280611D01*
X0150552Y0278111D01*
X0150952Y0277711D02*
X0150952Y0272811D01*
X0150969Y0272811D01*
X0151793Y0272942D01*
X0152586Y0273199D01*
X0153330Y0273578D01*
X0153752Y0273885D01*
X0153752Y0262365D01*
X0156056Y0260061D01*
X0155652Y0259086D01*
X0155652Y0257136D01*
X0156056Y0256161D01*
X0154706Y0254811D01*
X0153652Y0253757D01*
X0153652Y0252410D01*
X0153330Y0252644D01*
X0152586Y0253023D01*
X0151793Y0253281D01*
X0151722Y0253292D01*
X0153328Y0253957D01*
X0154706Y0255335D01*
X0155452Y0257136D01*
X0155452Y0259086D01*
X0154706Y0260887D01*
X0153328Y0262265D01*
X0151527Y0263011D01*
X0149577Y0263011D01*
X0148602Y0262607D01*
X0147352Y0263857D01*
X0147352Y0273885D01*
X0147774Y0273578D01*
X0148517Y0273199D01*
X0149311Y0272942D01*
X0150135Y0272811D01*
X0150152Y0272811D01*
X0150152Y0277711D01*
X0150952Y0277711D01*
X0150952Y0278511D02*
X0150952Y0283211D01*
X0150152Y0283211D01*
X0150152Y0278511D01*
X0150952Y0278511D01*
X0150952Y0279181D02*
X0150152Y0279181D01*
X0150152Y0280379D02*
X0150952Y0280379D01*
X0150952Y0281578D02*
X0150152Y0281578D01*
X0150152Y0282776D02*
X0150952Y0282776D01*
X0153071Y0282776D02*
X0153752Y0282776D01*
X0153870Y0283975D02*
X0153345Y0283975D01*
X0154544Y0285173D02*
X0155068Y0285173D01*
X0155135Y0286372D02*
X0155969Y0286372D01*
X0155652Y0287570D02*
X0155452Y0287570D01*
X0155452Y0288769D02*
X0155652Y0288769D01*
X0150552Y0288111D02*
X0145552Y0283111D01*
X0145552Y0263111D01*
X0150552Y0258111D01*
X0147482Y0258111D01*
X0142582Y0253211D01*
X0135698Y0253211D01*
X0135575Y0253088D01*
X0123075Y0240588D01*
X0123075Y0225588D01*
X0125552Y0223111D01*
X0130316Y0223111D01*
X0125449Y0220453D02*
X0122352Y0220453D01*
X0122352Y0219255D02*
X0124785Y0219255D01*
X0124785Y0218056D02*
X0123152Y0218056D01*
X0124351Y0216858D02*
X0124785Y0216858D01*
X0125549Y0215659D02*
X0137958Y0215659D01*
X0139156Y0214461D02*
X0135846Y0214461D01*
X0135846Y0213262D02*
X0140355Y0213262D01*
X0141553Y0212064D02*
X0135846Y0212064D01*
X0135279Y0210865D02*
X0145825Y0210865D01*
X0145257Y0209667D02*
X0136202Y0209667D01*
X0136246Y0208468D02*
X0145257Y0208468D01*
X0145257Y0207270D02*
X0136246Y0207270D01*
X0135998Y0206071D02*
X0145619Y0206071D01*
X0145341Y0204873D02*
X0135763Y0204873D01*
X0135846Y0203674D02*
X0145257Y0203674D01*
X0145257Y0202476D02*
X0135846Y0202476D01*
X0135691Y0201277D02*
X0145413Y0201277D01*
X0145547Y0200079D02*
X0135557Y0200079D01*
X0130316Y0208111D02*
X0130316Y0208111D01*
X0124385Y0208111D01*
X0124385Y0209503D01*
X0124494Y0209910D01*
X0124705Y0210275D01*
X0125003Y0210572D01*
X0125367Y0210783D01*
X0125421Y0210797D01*
X0124907Y0211311D01*
X0124806Y0211311D01*
X0123752Y0212365D01*
X0120552Y0215565D01*
X0120552Y0195657D01*
X0121252Y0194957D01*
X0121252Y0195285D02*
X0120924Y0195285D01*
X0121252Y0196483D02*
X0120552Y0196483D01*
X0120552Y0197682D02*
X0121252Y0197682D01*
X0121252Y0198880D02*
X0120552Y0198880D01*
X0120552Y0200079D02*
X0121252Y0200079D01*
X0121252Y0201277D02*
X0120552Y0201277D01*
X0120552Y0202476D02*
X0122371Y0202476D01*
X0123570Y0203674D02*
X0120552Y0203674D01*
X0120552Y0204873D02*
X0124768Y0204873D01*
X0124633Y0206071D02*
X0120552Y0206071D01*
X0120552Y0207270D02*
X0124385Y0207270D01*
X0124385Y0208468D02*
X0120552Y0208468D01*
X0120552Y0209667D02*
X0124429Y0209667D01*
X0125353Y0210865D02*
X0120552Y0210865D01*
X0120552Y0212064D02*
X0124053Y0212064D01*
X0122855Y0213262D02*
X0120552Y0213262D01*
X0120552Y0214461D02*
X0121656Y0214461D01*
X0122352Y0221652D02*
X0124465Y0221652D01*
X0123267Y0222851D02*
X0122352Y0222851D01*
X0124875Y0230042D02*
X0125037Y0230042D01*
X0124875Y0231240D02*
X0138752Y0231240D01*
X0138752Y0230042D02*
X0135594Y0230042D01*
X0135552Y0228111D02*
X0140552Y0223111D01*
X0150788Y0223111D01*
X0145716Y0225248D02*
X0140961Y0225248D01*
X0141433Y0226446D02*
X0145257Y0226446D01*
X0145257Y0227645D02*
X0142352Y0227645D01*
X0142352Y0228843D02*
X0145257Y0228843D01*
X0145510Y0230042D02*
X0142352Y0230042D01*
X0142925Y0234836D02*
X0148752Y0234836D01*
X0148752Y0236034D02*
X0143041Y0236034D01*
X0142450Y0237233D02*
X0148752Y0237233D01*
X0148752Y0238431D02*
X0124875Y0238431D01*
X0124875Y0237233D02*
X0138654Y0237233D01*
X0138063Y0236034D02*
X0124875Y0236034D01*
X0124875Y0234836D02*
X0138179Y0234836D01*
X0138752Y0233637D02*
X0124875Y0233637D01*
X0124875Y0232439D02*
X0138752Y0232439D01*
X0139543Y0243225D02*
X0128257Y0243225D01*
X0127059Y0242027D02*
X0151922Y0242027D01*
X0152637Y0243225D02*
X0153121Y0243225D01*
X0150952Y0243225D02*
X0150152Y0243225D01*
X0150152Y0244424D02*
X0150952Y0244424D01*
X0150952Y0245622D02*
X0150152Y0245622D01*
X0150152Y0246821D02*
X0150952Y0246821D01*
X0148467Y0243225D02*
X0141561Y0243225D01*
X0143794Y0244424D02*
X0146744Y0244424D01*
X0145872Y0245622D02*
X0144825Y0245622D01*
X0145321Y0246821D02*
X0145398Y0246821D01*
X0150724Y0240828D02*
X0125860Y0240828D01*
X0124875Y0239630D02*
X0149525Y0239630D01*
X0155861Y0225248D02*
X0156252Y0225248D01*
X0156319Y0214461D02*
X0158152Y0214461D01*
X0158152Y0213262D02*
X0156319Y0213262D01*
X0156319Y0212064D02*
X0158152Y0212064D01*
X0158152Y0210865D02*
X0155751Y0210865D01*
X0156336Y0204873D02*
X0160396Y0204873D01*
X0161595Y0203674D02*
X0157534Y0203674D01*
X0155552Y0203111D02*
X0158052Y0200611D01*
X0158052Y0158111D01*
X0141083Y0141143D01*
X0128524Y0141143D01*
X0128524Y0133269D02*
X0118209Y0133269D01*
X0115552Y0130611D01*
X0114211Y0135359D02*
X0110346Y0135359D01*
X0109852Y0134161D02*
X0112172Y0134161D01*
X0111222Y0132962D02*
X0109852Y0132962D01*
X0109852Y0131764D02*
X0110726Y0131764D01*
X0110652Y0130565D02*
X0109852Y0130565D01*
X0109852Y0129367D02*
X0110764Y0129367D01*
X0110540Y0128168D02*
X0111260Y0128168D01*
X0110552Y0125611D02*
X0108052Y0128111D01*
X0108052Y0135611D01*
X0113052Y0140611D01*
X0115552Y0140611D01*
X0117888Y0144947D02*
X0142343Y0144947D01*
X0143541Y0146146D02*
X0133650Y0146146D01*
X0133661Y0143749D02*
X0141144Y0143749D01*
X0143335Y0150940D02*
X0133661Y0150940D01*
X0133399Y0152138D02*
X0144534Y0152138D01*
X0145732Y0153337D02*
X0132967Y0153337D01*
X0133661Y0154535D02*
X0142234Y0154535D01*
X0143870Y0154535D02*
X0146931Y0154535D01*
X0148129Y0155734D02*
X0145720Y0155734D01*
X0146919Y0156932D02*
X0148988Y0156932D01*
X0148988Y0158131D02*
X0148117Y0158131D01*
X0144225Y0159329D02*
X0143668Y0159329D01*
X0142436Y0159329D02*
X0133661Y0159329D01*
X0141301Y0171315D02*
X0143752Y0171315D01*
X0143752Y0172513D02*
X0142500Y0172513D01*
X0143698Y0173712D02*
X0143752Y0173712D01*
X0143052Y0175611D02*
X0140080Y0172639D01*
X0143052Y0175611D02*
X0143052Y0188065D01*
X0150788Y0203111D02*
X0155552Y0203111D01*
X0156029Y0200079D02*
X0156039Y0200079D01*
X0165552Y0215611D02*
X0170316Y0215611D01*
X0170316Y0210611D02*
X0175552Y0210611D01*
X0185552Y0200611D01*
X0193052Y0200611D01*
X0195552Y0198111D01*
X0195552Y0175611D01*
X0193504Y0176109D02*
X0192106Y0176109D01*
X0192370Y0177307D02*
X0193752Y0177307D01*
X0193752Y0178506D02*
X0192717Y0178506D01*
X0192717Y0179704D02*
X0193752Y0179704D01*
X0193752Y0180903D02*
X0192717Y0180903D01*
X0192717Y0182101D02*
X0193752Y0182101D01*
X0193752Y0183300D02*
X0192717Y0183300D01*
X0193752Y0184498D02*
X0186140Y0184498D01*
X0184941Y0185697D02*
X0193752Y0185697D01*
X0193752Y0186895D02*
X0183743Y0186895D01*
X0182481Y0185611D02*
X0187580Y0180513D01*
X0182247Y0183300D02*
X0173976Y0183300D01*
X0173052Y0185611D02*
X0182481Y0185611D01*
X0181395Y0189292D02*
X0193752Y0189292D01*
X0193752Y0188094D02*
X0179876Y0188094D01*
X0182594Y0190491D02*
X0193752Y0190491D01*
X0193752Y0191689D02*
X0183236Y0191689D01*
X0183733Y0192888D02*
X0193752Y0192888D01*
X0193752Y0194086D02*
X0184152Y0194086D01*
X0184152Y0195285D02*
X0193752Y0195285D01*
X0193752Y0196483D02*
X0184152Y0196483D01*
X0184003Y0197682D02*
X0193436Y0197682D01*
X0196130Y0200079D02*
X0196252Y0200079D01*
X0196252Y0201277D02*
X0194931Y0201277D01*
X0196142Y0202476D02*
X0186233Y0202476D01*
X0185516Y0203674D02*
X0185034Y0203674D01*
X0185257Y0204873D02*
X0183836Y0204873D01*
X0182637Y0206071D02*
X0185257Y0206071D01*
X0185257Y0207270D02*
X0181439Y0207270D01*
X0181721Y0208468D02*
X0180240Y0208468D01*
X0180942Y0209201D02*
X0181642Y0208501D01*
X0182557Y0208122D01*
X0183547Y0208122D01*
X0184462Y0208501D01*
X0184772Y0208811D01*
X0185379Y0208811D01*
X0185960Y0208230D01*
X0195616Y0208230D01*
X0196319Y0208933D01*
X0196319Y0212289D01*
X0195616Y0212992D01*
X0185960Y0212992D01*
X0185379Y0212411D01*
X0184772Y0212411D01*
X0184462Y0212721D01*
X0183547Y0213100D01*
X0182557Y0213100D01*
X0181642Y0212721D01*
X0180942Y0212021D01*
X0180563Y0211106D01*
X0180563Y0210116D01*
X0180942Y0209201D01*
X0180749Y0209667D02*
X0179042Y0209667D01*
X0177843Y0210865D02*
X0180563Y0210865D01*
X0180985Y0212064D02*
X0176645Y0212064D01*
X0175176Y0213262D02*
X0185928Y0213262D01*
X0185960Y0213230D02*
X0195616Y0213230D01*
X0196319Y0213933D01*
X0196319Y0217289D01*
X0195683Y0217925D01*
X0195736Y0217939D01*
X0196101Y0218150D01*
X0196399Y0218447D01*
X0196610Y0218812D01*
X0196719Y0219219D01*
X0196719Y0220611D01*
X0190788Y0220611D01*
X0184857Y0220611D01*
X0184857Y0219219D01*
X0184967Y0218812D01*
X0185063Y0218646D01*
X0184852Y0218857D01*
X0184852Y0229865D01*
X0193109Y0238122D01*
X0193547Y0238122D01*
X0194462Y0238501D01*
X0195162Y0239201D01*
X0195541Y0240116D01*
X0195541Y0241106D01*
X0195162Y0242021D01*
X0194462Y0242721D01*
X0193547Y0243100D01*
X0192557Y0243100D01*
X0191642Y0242721D01*
X0190942Y0242021D01*
X0190563Y0241106D01*
X0190563Y0240668D01*
X0182306Y0232411D01*
X0181252Y0231357D01*
X0181252Y0217365D01*
X0183752Y0214865D01*
X0184806Y0213811D01*
X0185379Y0213811D01*
X0185960Y0213230D01*
X0184156Y0214461D02*
X0175846Y0214461D01*
X0175846Y0215659D02*
X0182958Y0215659D01*
X0181759Y0216858D02*
X0175846Y0216858D01*
X0175846Y0219255D02*
X0181252Y0219255D01*
X0181252Y0220453D02*
X0175846Y0220453D01*
X0175846Y0221652D02*
X0181252Y0221652D01*
X0181252Y0222851D02*
X0175285Y0222851D01*
X0172352Y0224049D02*
X0181252Y0224049D01*
X0181252Y0225248D02*
X0172352Y0225248D01*
X0172352Y0226446D02*
X0181252Y0226446D01*
X0181252Y0227645D02*
X0172352Y0227645D01*
X0172352Y0228843D02*
X0181252Y0228843D01*
X0181252Y0230042D02*
X0172352Y0230042D01*
X0172352Y0231240D02*
X0181252Y0231240D01*
X0182334Y0232439D02*
X0172425Y0232439D01*
X0173624Y0233637D02*
X0183532Y0233637D01*
X0184731Y0234836D02*
X0174822Y0234836D01*
X0176021Y0236034D02*
X0185929Y0236034D01*
X0187128Y0237233D02*
X0177219Y0237233D01*
X0178418Y0238431D02*
X0188327Y0238431D01*
X0189525Y0239630D02*
X0187116Y0239630D01*
X0188315Y0240828D02*
X0190563Y0240828D01*
X0190948Y0242027D02*
X0189513Y0242027D01*
X0189852Y0243225D02*
X0198752Y0243225D01*
X0198752Y0242027D02*
X0195156Y0242027D01*
X0195541Y0240828D02*
X0198752Y0240828D01*
X0198752Y0239630D02*
X0195340Y0239630D01*
X0194293Y0238431D02*
X0198752Y0238431D01*
X0198752Y0237233D02*
X0192219Y0237233D01*
X0191021Y0236034D02*
X0198752Y0236034D01*
X0198752Y0234836D02*
X0189822Y0234836D01*
X0188624Y0233637D02*
X0198752Y0233637D01*
X0198752Y0232439D02*
X0187425Y0232439D01*
X0186227Y0231240D02*
X0198752Y0231240D01*
X0198752Y0230042D02*
X0185028Y0230042D01*
X0184852Y0228843D02*
X0198752Y0228843D01*
X0198752Y0227645D02*
X0184852Y0227645D01*
X0184852Y0226446D02*
X0198752Y0226446D01*
X0198752Y0225248D02*
X0184852Y0225248D01*
X0184852Y0224049D02*
X0198752Y0224049D01*
X0198752Y0222851D02*
X0196323Y0222851D01*
X0196399Y0222775D02*
X0196101Y0223072D01*
X0195736Y0223283D01*
X0195330Y0223392D01*
X0190788Y0223392D01*
X0186247Y0223392D01*
X0185840Y0223283D01*
X0185475Y0223072D01*
X0185177Y0222775D01*
X0184967Y0222410D01*
X0184857Y0222003D01*
X0184857Y0220611D01*
X0190788Y0220611D01*
X0190788Y0220611D01*
X0193052Y0220611D01*
X0195552Y0223111D01*
X0195552Y0235611D01*
X0193052Y0240611D02*
X0183052Y0230611D01*
X0183052Y0218111D01*
X0185552Y0215611D01*
X0190788Y0215611D01*
X0190788Y0210611D02*
X0183052Y0210611D01*
X0184383Y0208468D02*
X0185722Y0208468D01*
X0190788Y0205611D02*
X0195552Y0205611D01*
X0198052Y0203111D01*
X0198052Y0170611D01*
X0203052Y0160611D02*
X0191457Y0149017D01*
X0187580Y0149017D01*
X0182443Y0148543D02*
X0151029Y0148543D01*
X0149831Y0147344D02*
X0182443Y0147344D01*
X0182443Y0149741D02*
X0152228Y0149741D01*
X0153426Y0150940D02*
X0182443Y0150940D01*
X0182705Y0152138D02*
X0154625Y0152138D01*
X0155823Y0153337D02*
X0183137Y0153337D01*
X0182443Y0154535D02*
X0157022Y0154535D01*
X0158220Y0155734D02*
X0182443Y0155734D01*
X0182621Y0161726D02*
X0159852Y0161726D01*
X0159852Y0162925D02*
X0182443Y0162925D01*
X0182443Y0164123D02*
X0159852Y0164123D01*
X0178583Y0141143D02*
X0187580Y0141143D01*
X0192717Y0140153D02*
X0197932Y0140153D01*
X0196733Y0138955D02*
X0192717Y0138955D01*
X0192189Y0137756D02*
X0195667Y0137756D01*
X0195171Y0136558D02*
X0192287Y0136558D01*
X0192717Y0135359D02*
X0194675Y0135359D01*
X0194452Y0134161D02*
X0192717Y0134161D01*
X0192717Y0132962D02*
X0194452Y0132962D01*
X0194452Y0131764D02*
X0192717Y0131764D01*
X0192717Y0130565D02*
X0194798Y0130565D01*
X0195294Y0129367D02*
X0181842Y0129367D01*
X0182443Y0130565D02*
X0180643Y0130565D01*
X0180269Y0131764D02*
X0182443Y0131764D01*
X0182443Y0132962D02*
X0178880Y0132962D01*
X0178052Y0130611D02*
X0183269Y0125394D01*
X0187580Y0125394D01*
X0192717Y0125771D02*
X0198299Y0125771D01*
X0197031Y0126970D02*
X0192717Y0126970D01*
X0192717Y0128168D02*
X0195833Y0128168D01*
X0192717Y0124573D02*
X0201193Y0124573D01*
X0193232Y0153337D02*
X0192022Y0153337D01*
X0192717Y0154535D02*
X0194431Y0154535D01*
X0182443Y0138955D02*
X0179916Y0138955D01*
X0178052Y0140611D02*
X0178583Y0141143D01*
X0177446Y0128168D02*
X0133661Y0128168D01*
X0133661Y0126970D02*
X0179148Y0126970D01*
X0180346Y0125771D02*
X0133661Y0125771D01*
X0133661Y0124573D02*
X0181545Y0124573D01*
X0182443Y0123374D02*
X0133661Y0123374D01*
X0133302Y0122176D02*
X0182802Y0122176D01*
X0183506Y0198880D02*
X0184737Y0198880D01*
X0183539Y0200079D02*
X0183010Y0200079D01*
X0182340Y0201277D02*
X0182048Y0201277D01*
X0181142Y0202476D02*
X0180849Y0202476D01*
X0179943Y0203674D02*
X0178558Y0203674D01*
X0178745Y0204873D02*
X0175846Y0204873D01*
X0175846Y0206071D02*
X0177546Y0206071D01*
X0176348Y0207270D02*
X0175846Y0207270D01*
X0181252Y0218056D02*
X0165652Y0218056D01*
X0170316Y0220611D02*
X0170552Y0220847D01*
X0170552Y0233111D01*
X0178052Y0240611D01*
X0185552Y0240611D01*
X0188052Y0243111D01*
X0188052Y0250611D01*
X0180552Y0258111D01*
X0175552Y0263111D01*
X0175552Y0280611D01*
X0180552Y0285611D01*
X0180552Y0288111D01*
X0180552Y0290611D01*
X0183088Y0292364D02*
X0183752Y0292364D01*
X0185552Y0296280D02*
X0185552Y0283111D01*
X0180552Y0278111D01*
X0183757Y0274386D02*
X0188752Y0274386D01*
X0188752Y0273188D02*
X0177352Y0273188D01*
X0177352Y0271989D02*
X0188752Y0271989D01*
X0188752Y0270791D02*
X0177352Y0270791D01*
X0177352Y0269592D02*
X0188752Y0269592D01*
X0188752Y0268394D02*
X0177352Y0268394D01*
X0177352Y0267195D02*
X0188752Y0267195D01*
X0188752Y0265997D02*
X0177352Y0265997D01*
X0177352Y0264798D02*
X0188752Y0264798D01*
X0188752Y0263600D02*
X0177609Y0263600D01*
X0182998Y0262401D02*
X0188752Y0262401D01*
X0188752Y0261203D02*
X0184390Y0261203D01*
X0185071Y0260004D02*
X0188752Y0260004D01*
X0188752Y0258806D02*
X0185452Y0258806D01*
X0185452Y0257607D02*
X0188752Y0257607D01*
X0188752Y0256409D02*
X0185151Y0256409D01*
X0185998Y0255210D02*
X0188752Y0255210D01*
X0189606Y0254012D02*
X0187197Y0254012D01*
X0188395Y0252813D02*
X0190804Y0252813D01*
X0192003Y0251615D02*
X0189594Y0251615D01*
X0189852Y0250416D02*
X0193201Y0250416D01*
X0194400Y0249218D02*
X0189852Y0249218D01*
X0189852Y0248019D02*
X0195598Y0248019D01*
X0196797Y0246821D02*
X0189852Y0246821D01*
X0189852Y0245622D02*
X0197995Y0245622D01*
X0198752Y0244424D02*
X0189852Y0244424D01*
X0190788Y0223392D02*
X0190788Y0220611D01*
X0190788Y0220611D01*
X0190788Y0223392D01*
X0190788Y0222851D02*
X0190788Y0222851D01*
X0190788Y0221652D02*
X0190788Y0221652D01*
X0190788Y0220611D02*
X0196719Y0220611D01*
X0196719Y0222003D01*
X0196610Y0222410D01*
X0196399Y0222775D01*
X0196719Y0221652D02*
X0198752Y0221652D01*
X0198752Y0220453D02*
X0196719Y0220453D01*
X0196719Y0219255D02*
X0198752Y0219255D01*
X0198752Y0218056D02*
X0195940Y0218056D01*
X0196319Y0216858D02*
X0198752Y0216858D01*
X0198752Y0215659D02*
X0196319Y0215659D01*
X0196319Y0214461D02*
X0198752Y0214461D01*
X0198752Y0213262D02*
X0195648Y0213262D01*
X0196319Y0212064D02*
X0198752Y0212064D01*
X0198752Y0210865D02*
X0196319Y0210865D01*
X0196319Y0209667D02*
X0198752Y0209667D01*
X0198752Y0208468D02*
X0195854Y0208468D01*
X0196439Y0207270D02*
X0198752Y0207270D01*
X0198752Y0206071D02*
X0197637Y0206071D01*
X0190788Y0220611D02*
X0190788Y0220611D01*
X0184857Y0220453D02*
X0184852Y0220453D01*
X0184852Y0219255D02*
X0184857Y0219255D01*
X0184852Y0221652D02*
X0184857Y0221652D01*
X0184852Y0222851D02*
X0185253Y0222851D01*
X0155953Y0256409D02*
X0155151Y0256409D01*
X0155106Y0255210D02*
X0154581Y0255210D01*
X0153907Y0254012D02*
X0153382Y0254012D01*
X0153652Y0252813D02*
X0152997Y0252813D01*
X0155452Y0257607D02*
X0155652Y0257607D01*
X0155652Y0258806D02*
X0155452Y0258806D01*
X0155071Y0260004D02*
X0156033Y0260004D01*
X0154915Y0261203D02*
X0154390Y0261203D01*
X0153752Y0262401D02*
X0152998Y0262401D01*
X0153752Y0263600D02*
X0147609Y0263600D01*
X0147352Y0264798D02*
X0153752Y0264798D01*
X0153752Y0265997D02*
X0147352Y0265997D01*
X0147352Y0267195D02*
X0153752Y0267195D01*
X0153752Y0268394D02*
X0147352Y0268394D01*
X0147352Y0269592D02*
X0153752Y0269592D01*
X0153752Y0270791D02*
X0147352Y0270791D01*
X0147352Y0271989D02*
X0153752Y0271989D01*
X0153752Y0273188D02*
X0152552Y0273188D01*
X0150952Y0273188D02*
X0150152Y0273188D01*
X0150152Y0274386D02*
X0150952Y0274386D01*
X0150952Y0275585D02*
X0150152Y0275585D01*
X0150152Y0276784D02*
X0150952Y0276784D01*
X0148552Y0273188D02*
X0147352Y0273188D01*
X0135598Y0253111D02*
X0135575Y0253088D01*
X0135448Y0250416D02*
X0136203Y0250416D01*
X0135707Y0249218D02*
X0134250Y0249218D01*
X0133051Y0248019D02*
X0135652Y0248019D01*
X0135783Y0246821D02*
X0131853Y0246821D01*
X0130654Y0245622D02*
X0136279Y0245622D01*
X0137310Y0244424D02*
X0129456Y0244424D01*
X0125075Y0200079D02*
X0125065Y0200079D01*
X0096605Y0150940D02*
X0091325Y0150940D01*
X0090586Y0149741D02*
X0096202Y0149741D01*
X0096202Y0148543D02*
X0089847Y0148543D01*
X0089107Y0147344D02*
X0096202Y0147344D01*
X0096202Y0146146D02*
X0088368Y0146146D01*
X0087629Y0144947D02*
X0096202Y0144947D01*
X0096202Y0143749D02*
X0086889Y0143749D01*
X0086150Y0142550D02*
X0096202Y0142550D01*
X0096202Y0141352D02*
X0085411Y0141352D01*
X0085029Y0140732D02*
X0085029Y0140732D01*
X0084576Y0140153D02*
X0096537Y0140153D01*
X0104567Y0140153D02*
X0110049Y0140153D01*
X0110652Y0141352D02*
X0104902Y0141352D01*
X0104902Y0142550D02*
X0111052Y0142550D01*
X0111760Y0143749D02*
X0104902Y0143749D01*
X0108850Y0138955D02*
X0083640Y0138955D01*
X0082703Y0137756D02*
X0107652Y0137756D01*
X0106453Y0136558D02*
X0081767Y0136558D01*
X0080830Y0135359D02*
X0106252Y0135359D01*
X0106252Y0134161D02*
X0079894Y0134161D01*
X0078958Y0132962D02*
X0106252Y0132962D01*
X0106252Y0131764D02*
X0078021Y0131764D01*
X0077085Y0130565D02*
X0106252Y0130565D01*
X0106252Y0129367D02*
X0075989Y0129367D01*
X0074818Y0128168D02*
X0106252Y0128168D01*
X0106648Y0126970D02*
X0073647Y0126970D01*
X0072476Y0125771D02*
X0096239Y0125771D01*
X0096202Y0124573D02*
X0071305Y0124573D01*
X0070134Y0123374D02*
X0096202Y0123374D01*
X0096202Y0118580D02*
X0089826Y0118580D01*
X0089705Y0117382D02*
X0096202Y0117382D01*
X0096202Y0116183D02*
X0089705Y0116183D01*
X0089705Y0114984D02*
X0096903Y0114984D01*
X0096905Y0113740D02*
X0096202Y0113037D01*
X0096202Y0102988D01*
X0096905Y0102285D01*
X0104199Y0102285D01*
X0104902Y0102988D01*
X0104902Y0106213D01*
X0106199Y0106213D01*
X0108798Y0108811D01*
X0110994Y0108811D01*
X0111398Y0107835D01*
X0112776Y0106457D01*
X0114382Y0105792D01*
X0114311Y0105781D01*
X0113517Y0105523D01*
X0112774Y0105144D01*
X0112099Y0104654D01*
X0111509Y0104064D01*
X0111019Y0103389D01*
X0110640Y0102646D01*
X0110382Y0101852D01*
X0110252Y0101028D01*
X0110252Y0101011D01*
X0115152Y0101011D01*
X0115152Y0100211D01*
X0115952Y0100211D01*
X0115952Y0101011D01*
X0120852Y0101011D01*
X0120852Y0101028D01*
X0120721Y0101852D01*
X0120464Y0102646D01*
X0120085Y0103389D01*
X0119595Y0104064D01*
X0119005Y0104654D01*
X0118330Y0105144D01*
X0117586Y0105523D01*
X0116793Y0105781D01*
X0116722Y0105792D01*
X0118328Y0106457D01*
X0119706Y0107835D01*
X0120452Y0109636D01*
X0120452Y0111586D01*
X0119706Y0113387D01*
X0118328Y0114765D01*
X0116527Y0115511D01*
X0114577Y0115511D01*
X0112776Y0114765D01*
X0111398Y0113387D01*
X0110994Y0112411D01*
X0107306Y0112411D01*
X0106252Y0111357D01*
X0104902Y0110006D01*
X0104902Y0113037D01*
X0104199Y0113740D01*
X0096905Y0113740D01*
X0096202Y0112587D02*
X0089973Y0112587D01*
X0090105Y0111389D02*
X0096202Y0111389D01*
X0096202Y0110190D02*
X0090105Y0110190D01*
X0090105Y0107793D02*
X0096202Y0107793D01*
X0096202Y0106595D02*
X0090103Y0106595D01*
X0089253Y0105396D02*
X0096202Y0105396D01*
X0096202Y0104198D02*
X0071297Y0104198D01*
X0072007Y0102999D02*
X0096202Y0102999D01*
X0096202Y0108992D02*
X0086152Y0108992D01*
X0085552Y0109371D02*
X0086910Y0108013D01*
X0100552Y0083209D01*
X0108150Y0083209D01*
X0115552Y0090611D01*
X0115552Y0100611D01*
X0115952Y0100602D02*
X0125356Y0100602D01*
X0125356Y0099404D02*
X0120727Y0099404D01*
X0120721Y0099370D02*
X0120852Y0100194D01*
X0120852Y0100211D01*
X0115952Y0100211D01*
X0115952Y0095311D01*
X0115969Y0095311D01*
X0116793Y0095442D01*
X0117586Y0095699D01*
X0118330Y0096078D01*
X0119005Y0096568D01*
X0119595Y0097158D01*
X0120085Y0097833D01*
X0120464Y0098577D01*
X0120721Y0099370D01*
X0120275Y0098205D02*
X0125356Y0098205D01*
X0125356Y0097007D02*
X0119443Y0097007D01*
X0117800Y0095808D02*
X0125356Y0095808D01*
X0125356Y0094610D02*
X0076979Y0094610D01*
X0077689Y0093411D02*
X0125356Y0093411D01*
X0125356Y0092213D02*
X0078399Y0092213D01*
X0079109Y0091014D02*
X0125552Y0091014D01*
X0125552Y0089816D02*
X0079820Y0089816D01*
X0080530Y0088617D02*
X0096063Y0088617D01*
X0096122Y0088719D02*
X0095911Y0088355D01*
X0095802Y0087948D01*
X0095802Y0083809D01*
X0099952Y0083809D01*
X0099952Y0082609D01*
X0101152Y0082609D01*
X0101152Y0077082D01*
X0103912Y0077082D01*
X0104319Y0077191D01*
X0104684Y0077402D01*
X0104982Y0077699D01*
X0105193Y0078064D01*
X0105302Y0078471D01*
X0105302Y0082609D01*
X0101152Y0082609D01*
X0101152Y0083809D01*
X0105302Y0083809D01*
X0105302Y0087948D01*
X0105193Y0088355D01*
X0104982Y0088719D01*
X0104684Y0089017D01*
X0104319Y0089228D01*
X0103912Y0089337D01*
X0101152Y0089337D01*
X0101152Y0083809D01*
X0099952Y0083809D01*
X0099952Y0089337D01*
X0097192Y0089337D01*
X0096785Y0089228D01*
X0096420Y0089017D01*
X0096122Y0088719D01*
X0095802Y0087419D02*
X0081240Y0087419D01*
X0081950Y0086220D02*
X0095802Y0086220D01*
X0095802Y0085022D02*
X0082660Y0085022D01*
X0083371Y0083823D02*
X0095802Y0083823D01*
X0095802Y0082609D02*
X0095802Y0078471D01*
X0095911Y0078064D01*
X0096122Y0077699D01*
X0096420Y0077402D01*
X0096785Y0077191D01*
X0097192Y0077082D01*
X0099952Y0077082D01*
X0099952Y0082609D01*
X0095802Y0082609D01*
X0095802Y0081426D02*
X0084791Y0081426D01*
X0085501Y0080228D02*
X0095802Y0080228D01*
X0095802Y0079029D02*
X0086212Y0079029D01*
X0086922Y0077831D02*
X0096046Y0077831D01*
X0099952Y0077831D02*
X0101152Y0077831D01*
X0101152Y0079029D02*
X0099952Y0079029D01*
X0099952Y0080228D02*
X0101152Y0080228D01*
X0101152Y0081426D02*
X0099952Y0081426D01*
X0099952Y0082625D02*
X0084081Y0082625D01*
X0087632Y0076632D02*
X0106952Y0076632D01*
X0106952Y0076400D02*
X0108261Y0073240D01*
X0110680Y0070820D01*
X0113841Y0069511D01*
X0117263Y0069511D01*
X0120423Y0070820D01*
X0122843Y0073240D01*
X0124152Y0076400D01*
X0124152Y0079822D01*
X0122843Y0082983D01*
X0120423Y0085402D01*
X0117263Y0086711D01*
X0113841Y0086711D01*
X0110680Y0085402D01*
X0108261Y0082983D01*
X0106952Y0079822D01*
X0106952Y0076400D01*
X0107352Y0075434D02*
X0088342Y0075434D01*
X0089053Y0074235D02*
X0107849Y0074235D01*
X0108464Y0073037D02*
X0089763Y0073037D01*
X0090473Y0071838D02*
X0109663Y0071838D01*
X0111117Y0070640D02*
X0091183Y0070640D01*
X0091893Y0069441D02*
X0119210Y0069441D01*
X0119987Y0070640D02*
X0120433Y0070640D01*
X0121441Y0071838D02*
X0121655Y0071838D01*
X0122640Y0073037D02*
X0122878Y0073037D01*
X0123255Y0074235D02*
X0124098Y0074235D01*
X0123752Y0075434D02*
X0125552Y0075434D01*
X0125552Y0076632D02*
X0124152Y0076632D01*
X0124152Y0077831D02*
X0125552Y0077831D01*
X0125552Y0079029D02*
X0124152Y0079029D01*
X0123984Y0080228D02*
X0125552Y0080228D01*
X0125552Y0081426D02*
X0123487Y0081426D01*
X0122991Y0082625D02*
X0125552Y0082625D01*
X0125552Y0083823D02*
X0122002Y0083823D01*
X0120804Y0085022D02*
X0125552Y0085022D01*
X0125552Y0086220D02*
X0118448Y0086220D01*
X0115152Y0095311D02*
X0115152Y0100211D01*
X0110252Y0100211D01*
X0110252Y0100194D01*
X0110382Y0099370D01*
X0110640Y0098577D01*
X0111019Y0097833D01*
X0111509Y0097158D01*
X0112099Y0096568D01*
X0112774Y0096078D01*
X0113517Y0095699D01*
X0114311Y0095442D01*
X0115135Y0095311D01*
X0115152Y0095311D01*
X0115152Y0095808D02*
X0115952Y0095808D01*
X0115952Y0097007D02*
X0115152Y0097007D01*
X0115152Y0098205D02*
X0115952Y0098205D01*
X0115952Y0099404D02*
X0115152Y0099404D01*
X0115152Y0100602D02*
X0073427Y0100602D01*
X0074138Y0099404D02*
X0110377Y0099404D01*
X0110829Y0098205D02*
X0074848Y0098205D01*
X0075558Y0097007D02*
X0111661Y0097007D01*
X0113304Y0095808D02*
X0076268Y0095808D01*
X0072717Y0101801D02*
X0110374Y0101801D01*
X0110821Y0102999D02*
X0104902Y0102999D01*
X0104902Y0104198D02*
X0111644Y0104198D01*
X0113270Y0105396D02*
X0104902Y0105396D01*
X0106581Y0106595D02*
X0112638Y0106595D01*
X0111440Y0107793D02*
X0107780Y0107793D01*
X0105454Y0108013D02*
X0108052Y0110611D01*
X0115552Y0110611D01*
X0117798Y0114984D02*
X0125356Y0114984D01*
X0125356Y0113786D02*
X0119307Y0113786D01*
X0120037Y0112587D02*
X0125356Y0112587D01*
X0125356Y0111389D02*
X0120452Y0111389D01*
X0120452Y0110190D02*
X0125356Y0110190D01*
X0125356Y0108992D02*
X0120185Y0108992D01*
X0119664Y0107793D02*
X0125356Y0107793D01*
X0125356Y0106595D02*
X0118465Y0106595D01*
X0117834Y0105396D02*
X0125356Y0105396D01*
X0125356Y0104198D02*
X0119460Y0104198D01*
X0120283Y0102999D02*
X0125356Y0102999D01*
X0125356Y0101801D02*
X0120730Y0101801D01*
X0125552Y0088617D02*
X0105041Y0088617D01*
X0105302Y0087419D02*
X0125552Y0087419D01*
X0117916Y0068243D02*
X0092604Y0068243D01*
X0093314Y0067044D02*
X0116538Y0067044D01*
X0115160Y0065846D02*
X0094024Y0065846D01*
X0094734Y0064647D02*
X0113782Y0064647D01*
X0112404Y0063448D02*
X0095445Y0063448D01*
X0096155Y0062250D02*
X0111027Y0062250D01*
X0109649Y0061051D02*
X0096865Y0061051D01*
X0097575Y0059853D02*
X0108271Y0059853D01*
X0106887Y0058654D02*
X0098285Y0058654D01*
X0098996Y0057456D02*
X0105265Y0057456D01*
X0103643Y0056257D02*
X0099706Y0056257D01*
X0100416Y0055059D02*
X0102022Y0055059D01*
X0105058Y0077831D02*
X0106952Y0077831D01*
X0106952Y0079029D02*
X0105302Y0079029D01*
X0105302Y0080228D02*
X0107120Y0080228D01*
X0107617Y0081426D02*
X0105302Y0081426D01*
X0105302Y0083823D02*
X0109102Y0083823D01*
X0108113Y0082625D02*
X0101152Y0082625D01*
X0101152Y0083823D02*
X0099952Y0083823D01*
X0099952Y0085022D02*
X0101152Y0085022D01*
X0101152Y0086220D02*
X0099952Y0086220D01*
X0099952Y0087419D02*
X0101152Y0087419D01*
X0101152Y0088617D02*
X0099952Y0088617D01*
X0105302Y0086220D02*
X0112656Y0086220D01*
X0110300Y0085022D02*
X0105302Y0085022D01*
X0105454Y0108013D02*
X0100552Y0108013D01*
X0104902Y0110190D02*
X0105086Y0110190D01*
X0104902Y0111389D02*
X0106284Y0111389D01*
X0104902Y0112587D02*
X0111067Y0112587D01*
X0111797Y0113786D02*
X0089696Y0113786D01*
X0084952Y0108992D02*
X0068456Y0108992D01*
X0069166Y0107793D02*
X0080999Y0107793D01*
X0081001Y0106595D02*
X0069876Y0106595D01*
X0070587Y0105396D02*
X0081851Y0105396D01*
X0084952Y0105396D02*
X0086152Y0105396D01*
X0086152Y0106595D02*
X0084952Y0106595D01*
X0084952Y0107793D02*
X0086152Y0107793D01*
X0080999Y0110190D02*
X0067746Y0110190D01*
X0067035Y0111389D02*
X0080999Y0111389D01*
X0081131Y0112587D02*
X0066325Y0112587D01*
X0065615Y0113786D02*
X0081408Y0113786D01*
X0081399Y0114984D02*
X0064905Y0114984D01*
X0064195Y0116183D02*
X0081399Y0116183D01*
X0081399Y0117382D02*
X0063494Y0117382D01*
X0064957Y0118580D02*
X0081399Y0118580D01*
X0081399Y0119779D02*
X0066420Y0119779D01*
X0067792Y0120977D02*
X0087132Y0120977D01*
X0088331Y0122176D02*
X0068963Y0122176D01*
X0104201Y0114984D02*
X0113306Y0114984D01*
X0117666Y0116183D02*
X0125356Y0116183D01*
X0125356Y0117382D02*
X0119252Y0117382D01*
X0120014Y0118580D02*
X0125356Y0118580D01*
X0123747Y0122176D02*
X0120208Y0122176D01*
X0119711Y0123374D02*
X0123387Y0123374D01*
X0123387Y0128168D02*
X0119844Y0128168D01*
X0112676Y0136558D02*
X0111544Y0136558D01*
X0107846Y0125771D02*
X0104865Y0125771D01*
X0104902Y0124573D02*
X0109045Y0124573D01*
X0185552Y0296280D02*
X0180552Y0301280D01*
X0180552Y0300611D01*
X0177196Y0306746D02*
X0176428Y0306746D01*
X0176428Y0307945D02*
X0177196Y0307945D01*
X0177196Y0309143D02*
X0176428Y0309143D01*
X0173053Y0317533D02*
X0168051Y0317533D01*
X0168051Y0318731D02*
X0173053Y0318731D01*
X0173053Y0319930D02*
X0168051Y0319930D01*
X0168051Y0321128D02*
X0173053Y0321128D01*
X0173053Y0322327D02*
X0168554Y0322327D01*
X0169752Y0323525D02*
X0173053Y0323525D01*
X0164292Y0309942D02*
X0156812Y0320611D01*
X0159908Y0324724D02*
X0161196Y0324724D01*
X0153716Y0324724D02*
X0147388Y0324724D01*
X0148051Y0323525D02*
X0153053Y0323525D01*
X0153053Y0322327D02*
X0148051Y0322327D01*
X0148051Y0321128D02*
X0153053Y0321128D01*
X0153053Y0319930D02*
X0148051Y0319930D01*
X0148051Y0318731D02*
X0153053Y0318731D01*
X0153053Y0317533D02*
X0148051Y0317533D01*
X0143720Y0298357D02*
X0152761Y0298357D01*
X0184292Y0319371D02*
X0184292Y0320611D01*
X0189852Y0326357D02*
X0189852Y0326357D01*
X0190286Y0325922D02*
X0202881Y0325922D01*
X0203752Y0324724D02*
X0191485Y0324724D01*
X0192683Y0323525D02*
X0204623Y0323525D01*
X0205494Y0322327D02*
X0193882Y0322327D01*
X0194852Y0321128D02*
X0206364Y0321128D01*
X0207235Y0319930D02*
X0194852Y0319930D01*
X0194852Y0318731D02*
X0207847Y0318731D01*
X0208458Y0317533D02*
X0194852Y0317533D01*
X0194852Y0316334D02*
X0209069Y0316334D01*
X0209679Y0315136D02*
X0194852Y0315136D01*
X0194852Y0313937D02*
X0210290Y0313937D01*
X0210901Y0312739D02*
X0194852Y0312739D01*
X0194852Y0311540D02*
X0211312Y0311540D01*
X0211701Y0310342D02*
X0194852Y0310342D01*
X0194852Y0309143D02*
X0212091Y0309143D01*
X0212480Y0307945D02*
X0194852Y0307945D01*
X0194852Y0306746D02*
X0212870Y0306746D01*
X0213259Y0305548D02*
X0194852Y0305548D01*
X0194852Y0304349D02*
X0213569Y0304349D01*
X0213758Y0303151D02*
X0194852Y0303151D01*
X0194852Y0301952D02*
X0213948Y0301952D01*
X0214138Y0300754D02*
X0194852Y0300754D01*
X0194852Y0299555D02*
X0214328Y0299555D01*
X0214518Y0298357D02*
X0194852Y0298357D01*
X0194852Y0297158D02*
X0214708Y0297158D01*
X0214805Y0295960D02*
X0194852Y0295960D01*
X0194852Y0294761D02*
X0214852Y0294761D01*
X0214899Y0293563D02*
X0194852Y0293563D01*
X0189088Y0327121D02*
X0201855Y0327121D01*
D21*
X0193052Y0240611D03*
X0195552Y0235611D03*
X0183052Y0210611D03*
X0173052Y0185611D03*
X0173052Y0175611D03*
X0178052Y0140611D03*
X0178052Y0130611D03*
X0143052Y0156891D03*
X0135552Y0180611D03*
X0140552Y0203111D03*
X0140552Y0235611D03*
X0160552Y0215611D03*
X0163052Y0235611D03*
D22*
X0160552Y0215611D02*
X0160552Y0208111D01*
X0163052Y0205611D01*
X0170316Y0205611D01*
X0160552Y0208111D02*
X0150788Y0208111D01*
M02*
