%
M48
M72
T01C0.01378
T02C0.03150
T03C0.04000
T04C0.12000
%
T01
X135552Y180611
X140552Y203111
X140552Y235611
X160552Y215611
X163052Y235611
X183052Y210611
X173052Y185611
X173052Y175611
X178052Y140611
X178052Y130611
X143052Y156891
X193052Y240611
X195552Y235611
T02
X113722Y328781
X108722Y320121
X103722Y311460
X98722Y302800
T03
X140552Y288111
X140552Y278111
X150552Y278111
X150552Y288111
X160552Y288111
X160552Y278111
X170552Y278111
X170552Y288111
X180552Y288111
X180552Y278111
X180552Y258111
X180552Y248111
X170552Y248111
X170552Y258111
X160552Y258111
X160552Y248111
X150552Y248111
X150552Y258111
X140552Y258111
X140552Y248111
X115552Y150611
X115552Y140611
X115552Y130611
X115552Y120611
X115552Y110611
X115552Y100611
T04
X113052Y173111
X115552Y78111
X175552Y195611
X203052Y133111
X203052Y283111
X95552Y283111
M30
