G75*
%MOIN*%
%OFA0B0*%
%FSLAX25Y25*%
%IPPOS*%
%LPD*%
%AMOC8*
5,1,8,0,0,1.08239X$1,22.5*
%
%ADD10C,0.00600*%
%ADD11C,0.00000*%
%ADD12C,0.07400*%
%ADD13R,0.05118X0.05906*%
%ADD14C,0.07600*%
%ADD15C,0.01200*%
%ADD16C,0.02400*%
%ADD17C,0.02578*%
D10*
X0001300Y0013742D02*
X0001300Y0092906D01*
X0001300Y0013742D02*
X0005974Y0014173D01*
X0010636Y0014716D01*
X0015284Y0015369D01*
X0019914Y0016133D01*
X0024526Y0017008D01*
X0029115Y0017992D01*
X0033680Y0019085D01*
X0038217Y0020287D01*
X0042724Y0021596D01*
X0047198Y0023013D01*
X0051638Y0024536D01*
X0056040Y0026164D01*
X0060402Y0027897D01*
X0064721Y0029733D01*
X0068996Y0031672D01*
X0073223Y0033712D01*
X0077400Y0035852D01*
X0081525Y0038091D01*
X0085595Y0040428D01*
X0089609Y0042862D01*
X0093563Y0045390D01*
X0097456Y0048012D01*
X0101285Y0050726D01*
X0105049Y0053531D01*
X0108744Y0056424D01*
X0112370Y0059405D01*
X0115923Y0062471D01*
X0119403Y0065621D01*
X0122806Y0068854D01*
X0126131Y0072166D01*
X0162717Y0072166D01*
X0182402Y0024922D02*
X0182402Y0001300D01*
X0170591Y0013111D02*
X0194213Y0013111D01*
X0217835Y0127284D02*
X0217835Y0292639D01*
X0217819Y0293971D01*
X0217771Y0295302D01*
X0217690Y0296631D01*
X0217578Y0297959D01*
X0217433Y0299283D01*
X0217257Y0300603D01*
X0217048Y0301919D01*
X0216808Y0303229D01*
X0216536Y0304533D01*
X0216233Y0305830D01*
X0215899Y0307119D01*
X0215534Y0308400D01*
X0215137Y0309671D01*
X0214710Y0310933D01*
X0214253Y0312184D01*
X0213766Y0313424D01*
X0213249Y0314651D01*
X0212702Y0315866D01*
X0212126Y0317067D01*
X0211522Y0318254D01*
X0210888Y0319425D01*
X0210227Y0320582D01*
X0209538Y0321721D01*
X0208822Y0322844D01*
X0208078Y0323950D01*
X0207308Y0325037D01*
X0206513Y0326105D01*
X0205691Y0327153D01*
X0204845Y0328181D01*
X0203973Y0329189D01*
X0203078Y0330175D01*
X0202159Y0331140D01*
X0201218Y0332081D01*
X0200253Y0333000D01*
X0199267Y0333895D01*
X0198259Y0334767D01*
X0197231Y0335613D01*
X0196183Y0336435D01*
X0195115Y0337230D01*
X0194028Y0338000D01*
X0192922Y0338744D01*
X0191799Y0339460D01*
X0190660Y0340149D01*
X0189503Y0340810D01*
X0188332Y0341444D01*
X0187145Y0342048D01*
X0185944Y0342624D01*
X0184729Y0343171D01*
X0183502Y0343688D01*
X0182262Y0344175D01*
X0181011Y0344632D01*
X0179749Y0345059D01*
X0178478Y0345456D01*
X0177197Y0345821D01*
X0175908Y0346155D01*
X0174611Y0346458D01*
X0173307Y0346730D01*
X0171997Y0346970D01*
X0170681Y0347179D01*
X0169361Y0347355D01*
X0168037Y0347500D01*
X0166709Y0347612D01*
X0165380Y0347693D01*
X0164049Y0347741D01*
X0162717Y0347757D01*
X0126131Y0347757D01*
X0217835Y0127284D02*
X0217819Y0125952D01*
X0217771Y0124621D01*
X0217690Y0123292D01*
X0217578Y0121964D01*
X0217433Y0120640D01*
X0217257Y0119320D01*
X0217048Y0118004D01*
X0216808Y0116694D01*
X0216536Y0115390D01*
X0216233Y0114093D01*
X0215899Y0112804D01*
X0215534Y0111523D01*
X0215137Y0110252D01*
X0214710Y0108990D01*
X0214253Y0107739D01*
X0213766Y0106499D01*
X0213249Y0105272D01*
X0212702Y0104057D01*
X0212126Y0102856D01*
X0211522Y0101669D01*
X0210888Y0100498D01*
X0210227Y0099341D01*
X0209538Y0098202D01*
X0208822Y0097079D01*
X0208078Y0095973D01*
X0207308Y0094886D01*
X0206513Y0093818D01*
X0205691Y0092770D01*
X0204845Y0091742D01*
X0203973Y0090734D01*
X0203078Y0089748D01*
X0202159Y0088783D01*
X0201218Y0087842D01*
X0200253Y0086923D01*
X0199267Y0086028D01*
X0198259Y0085156D01*
X0197231Y0084310D01*
X0196183Y0083488D01*
X0195115Y0082693D01*
X0194028Y0081923D01*
X0192922Y0081179D01*
X0191799Y0080463D01*
X0190660Y0079774D01*
X0189503Y0079113D01*
X0188332Y0078479D01*
X0187145Y0077875D01*
X0185944Y0077299D01*
X0184729Y0076752D01*
X0183502Y0076235D01*
X0182262Y0075748D01*
X0181011Y0075291D01*
X0179749Y0074864D01*
X0178478Y0074467D01*
X0177197Y0074102D01*
X0175908Y0073768D01*
X0174611Y0073465D01*
X0173307Y0073193D01*
X0171997Y0072953D01*
X0170681Y0072744D01*
X0169361Y0072568D01*
X0168037Y0072423D01*
X0166709Y0072311D01*
X0165380Y0072230D01*
X0164049Y0072182D01*
X0162717Y0072166D01*
X0001300Y0092906D02*
X0004146Y0093324D01*
X0006981Y0093811D01*
X0009804Y0094368D01*
X0012612Y0094993D01*
X0015404Y0095686D01*
X0018178Y0096447D01*
X0020933Y0097275D01*
X0023667Y0098170D01*
X0026378Y0099131D01*
X0029065Y0100159D01*
X0031727Y0101251D01*
X0034361Y0102408D01*
X0036965Y0103628D01*
X0039540Y0104912D01*
X0042082Y0106258D01*
X0044591Y0107666D01*
X0047065Y0109134D01*
X0049502Y0110662D01*
X0051902Y0112249D01*
X0054262Y0113894D01*
X0056581Y0115596D01*
X0058858Y0117353D01*
X0061092Y0119166D01*
X0063281Y0121033D01*
X0065424Y0122952D01*
X0067519Y0124923D01*
X0069566Y0126945D01*
X0071563Y0129016D01*
X0073509Y0131134D01*
X0075402Y0133300D01*
X0077243Y0135511D01*
X0079029Y0137766D01*
X0080759Y0140064D01*
X0082433Y0142404D01*
X0084050Y0144783D01*
X0085608Y0147201D01*
X0087107Y0149657D01*
X0088545Y0152148D01*
X0089923Y0154674D01*
X0091238Y0157232D01*
X0092491Y0159821D01*
X0093681Y0162441D01*
X0094806Y0165088D01*
X0095866Y0167763D01*
X0096861Y0170462D01*
X0097790Y0173184D01*
X0098653Y0175929D01*
X0099448Y0178693D01*
X0100176Y0181477D01*
X0100835Y0184277D01*
X0101427Y0187092D01*
X0101949Y0189921D01*
X0102403Y0192762D01*
X0102787Y0195612D01*
X0103102Y0198472D01*
X0103347Y0201338D01*
X0103522Y0204210D01*
X0103627Y0207084D01*
X0103662Y0209961D01*
X0103627Y0212838D01*
X0103522Y0215712D01*
X0103347Y0218584D01*
X0103102Y0221450D01*
X0102787Y0224310D01*
X0102403Y0227160D01*
X0101949Y0230001D01*
X0101427Y0232830D01*
X0100835Y0235645D01*
X0100176Y0238445D01*
X0099448Y0241229D01*
X0098653Y0243993D01*
X0097790Y0246738D01*
X0096861Y0249460D01*
X0095866Y0252159D01*
X0094806Y0254834D01*
X0093681Y0257481D01*
X0092491Y0260101D01*
X0091238Y0262690D01*
X0089923Y0265248D01*
X0088545Y0267774D01*
X0087107Y0270265D01*
X0085608Y0272721D01*
X0084050Y0275139D01*
X0082433Y0277518D01*
X0080759Y0279858D01*
X0079029Y0282156D01*
X0077243Y0284411D01*
X0075402Y0286622D01*
X0073509Y0288788D01*
X0071563Y0290906D01*
X0069566Y0292977D01*
X0067519Y0294999D01*
X0065424Y0296970D01*
X0063281Y0298889D01*
X0061092Y0300756D01*
X0058858Y0302569D01*
X0056581Y0304326D01*
X0054262Y0306028D01*
X0051902Y0307673D01*
X0049502Y0309260D01*
X0047065Y0310788D01*
X0044591Y0312256D01*
X0042082Y0313664D01*
X0039540Y0315010D01*
X0036965Y0316294D01*
X0034361Y0317514D01*
X0031727Y0318671D01*
X0029065Y0319763D01*
X0026378Y0320791D01*
X0023667Y0321752D01*
X0020933Y0322647D01*
X0018178Y0323475D01*
X0015404Y0324236D01*
X0012612Y0324929D01*
X0009804Y0325554D01*
X0006981Y0326111D01*
X0004146Y0326598D01*
X0001300Y0327016D01*
X0001300Y0327017D02*
X0001300Y0406220D01*
X0005974Y0405787D01*
X0010636Y0405244D01*
X0015285Y0404589D01*
X0019916Y0403823D01*
X0024528Y0402948D01*
X0029117Y0401962D01*
X0033682Y0400868D01*
X0038219Y0399665D01*
X0042726Y0398354D01*
X0047201Y0396936D01*
X0051641Y0395412D01*
X0056043Y0393782D01*
X0060405Y0392048D01*
X0064725Y0390210D01*
X0068999Y0388270D01*
X0073226Y0386229D01*
X0077403Y0384087D01*
X0081528Y0381847D01*
X0085598Y0379508D01*
X0089612Y0377074D01*
X0093566Y0374544D01*
X0097458Y0371921D01*
X0101288Y0369205D01*
X0105051Y0366400D01*
X0108746Y0363505D01*
X0112371Y0360523D01*
X0115924Y0357455D01*
X0119403Y0354304D01*
X0122806Y0351070D01*
X0126131Y0347756D01*
D11*
X0089552Y0283111D02*
X0089554Y0283265D01*
X0089560Y0283420D01*
X0089570Y0283574D01*
X0089584Y0283728D01*
X0089602Y0283881D01*
X0089623Y0284034D01*
X0089649Y0284187D01*
X0089679Y0284338D01*
X0089712Y0284489D01*
X0089750Y0284639D01*
X0089791Y0284788D01*
X0089836Y0284936D01*
X0089885Y0285082D01*
X0089938Y0285228D01*
X0089994Y0285371D01*
X0090054Y0285514D01*
X0090118Y0285654D01*
X0090185Y0285794D01*
X0090256Y0285931D01*
X0090330Y0286066D01*
X0090408Y0286200D01*
X0090489Y0286331D01*
X0090574Y0286460D01*
X0090662Y0286588D01*
X0090753Y0286712D01*
X0090847Y0286835D01*
X0090945Y0286955D01*
X0091045Y0287072D01*
X0091149Y0287187D01*
X0091255Y0287299D01*
X0091364Y0287408D01*
X0091476Y0287514D01*
X0091591Y0287618D01*
X0091708Y0287718D01*
X0091828Y0287816D01*
X0091951Y0287910D01*
X0092075Y0288001D01*
X0092203Y0288089D01*
X0092332Y0288174D01*
X0092463Y0288255D01*
X0092597Y0288333D01*
X0092732Y0288407D01*
X0092869Y0288478D01*
X0093009Y0288545D01*
X0093149Y0288609D01*
X0093292Y0288669D01*
X0093435Y0288725D01*
X0093581Y0288778D01*
X0093727Y0288827D01*
X0093875Y0288872D01*
X0094024Y0288913D01*
X0094174Y0288951D01*
X0094325Y0288984D01*
X0094476Y0289014D01*
X0094629Y0289040D01*
X0094782Y0289061D01*
X0094935Y0289079D01*
X0095089Y0289093D01*
X0095243Y0289103D01*
X0095398Y0289109D01*
X0095552Y0289111D01*
X0095706Y0289109D01*
X0095861Y0289103D01*
X0096015Y0289093D01*
X0096169Y0289079D01*
X0096322Y0289061D01*
X0096475Y0289040D01*
X0096628Y0289014D01*
X0096779Y0288984D01*
X0096930Y0288951D01*
X0097080Y0288913D01*
X0097229Y0288872D01*
X0097377Y0288827D01*
X0097523Y0288778D01*
X0097669Y0288725D01*
X0097812Y0288669D01*
X0097955Y0288609D01*
X0098095Y0288545D01*
X0098235Y0288478D01*
X0098372Y0288407D01*
X0098507Y0288333D01*
X0098641Y0288255D01*
X0098772Y0288174D01*
X0098901Y0288089D01*
X0099029Y0288001D01*
X0099153Y0287910D01*
X0099276Y0287816D01*
X0099396Y0287718D01*
X0099513Y0287618D01*
X0099628Y0287514D01*
X0099740Y0287408D01*
X0099849Y0287299D01*
X0099955Y0287187D01*
X0100059Y0287072D01*
X0100159Y0286955D01*
X0100257Y0286835D01*
X0100351Y0286712D01*
X0100442Y0286588D01*
X0100530Y0286460D01*
X0100615Y0286331D01*
X0100696Y0286200D01*
X0100774Y0286066D01*
X0100848Y0285931D01*
X0100919Y0285794D01*
X0100986Y0285654D01*
X0101050Y0285514D01*
X0101110Y0285371D01*
X0101166Y0285228D01*
X0101219Y0285082D01*
X0101268Y0284936D01*
X0101313Y0284788D01*
X0101354Y0284639D01*
X0101392Y0284489D01*
X0101425Y0284338D01*
X0101455Y0284187D01*
X0101481Y0284034D01*
X0101502Y0283881D01*
X0101520Y0283728D01*
X0101534Y0283574D01*
X0101544Y0283420D01*
X0101550Y0283265D01*
X0101552Y0283111D01*
X0101550Y0282957D01*
X0101544Y0282802D01*
X0101534Y0282648D01*
X0101520Y0282494D01*
X0101502Y0282341D01*
X0101481Y0282188D01*
X0101455Y0282035D01*
X0101425Y0281884D01*
X0101392Y0281733D01*
X0101354Y0281583D01*
X0101313Y0281434D01*
X0101268Y0281286D01*
X0101219Y0281140D01*
X0101166Y0280994D01*
X0101110Y0280851D01*
X0101050Y0280708D01*
X0100986Y0280568D01*
X0100919Y0280428D01*
X0100848Y0280291D01*
X0100774Y0280156D01*
X0100696Y0280022D01*
X0100615Y0279891D01*
X0100530Y0279762D01*
X0100442Y0279634D01*
X0100351Y0279510D01*
X0100257Y0279387D01*
X0100159Y0279267D01*
X0100059Y0279150D01*
X0099955Y0279035D01*
X0099849Y0278923D01*
X0099740Y0278814D01*
X0099628Y0278708D01*
X0099513Y0278604D01*
X0099396Y0278504D01*
X0099276Y0278406D01*
X0099153Y0278312D01*
X0099029Y0278221D01*
X0098901Y0278133D01*
X0098772Y0278048D01*
X0098641Y0277967D01*
X0098507Y0277889D01*
X0098372Y0277815D01*
X0098235Y0277744D01*
X0098095Y0277677D01*
X0097955Y0277613D01*
X0097812Y0277553D01*
X0097669Y0277497D01*
X0097523Y0277444D01*
X0097377Y0277395D01*
X0097229Y0277350D01*
X0097080Y0277309D01*
X0096930Y0277271D01*
X0096779Y0277238D01*
X0096628Y0277208D01*
X0096475Y0277182D01*
X0096322Y0277161D01*
X0096169Y0277143D01*
X0096015Y0277129D01*
X0095861Y0277119D01*
X0095706Y0277113D01*
X0095552Y0277111D01*
X0095398Y0277113D01*
X0095243Y0277119D01*
X0095089Y0277129D01*
X0094935Y0277143D01*
X0094782Y0277161D01*
X0094629Y0277182D01*
X0094476Y0277208D01*
X0094325Y0277238D01*
X0094174Y0277271D01*
X0094024Y0277309D01*
X0093875Y0277350D01*
X0093727Y0277395D01*
X0093581Y0277444D01*
X0093435Y0277497D01*
X0093292Y0277553D01*
X0093149Y0277613D01*
X0093009Y0277677D01*
X0092869Y0277744D01*
X0092732Y0277815D01*
X0092597Y0277889D01*
X0092463Y0277967D01*
X0092332Y0278048D01*
X0092203Y0278133D01*
X0092075Y0278221D01*
X0091951Y0278312D01*
X0091828Y0278406D01*
X0091708Y0278504D01*
X0091591Y0278604D01*
X0091476Y0278708D01*
X0091364Y0278814D01*
X0091255Y0278923D01*
X0091149Y0279035D01*
X0091045Y0279150D01*
X0090945Y0279267D01*
X0090847Y0279387D01*
X0090753Y0279510D01*
X0090662Y0279634D01*
X0090574Y0279762D01*
X0090489Y0279891D01*
X0090408Y0280022D01*
X0090330Y0280156D01*
X0090256Y0280291D01*
X0090185Y0280428D01*
X0090118Y0280568D01*
X0090054Y0280708D01*
X0089994Y0280851D01*
X0089938Y0280994D01*
X0089885Y0281140D01*
X0089836Y0281286D01*
X0089791Y0281434D01*
X0089750Y0281583D01*
X0089712Y0281733D01*
X0089679Y0281884D01*
X0089649Y0282035D01*
X0089623Y0282188D01*
X0089602Y0282341D01*
X0089584Y0282494D01*
X0089570Y0282648D01*
X0089560Y0282802D01*
X0089554Y0282957D01*
X0089552Y0283111D01*
X0107052Y0173111D02*
X0107054Y0173265D01*
X0107060Y0173420D01*
X0107070Y0173574D01*
X0107084Y0173728D01*
X0107102Y0173881D01*
X0107123Y0174034D01*
X0107149Y0174187D01*
X0107179Y0174338D01*
X0107212Y0174489D01*
X0107250Y0174639D01*
X0107291Y0174788D01*
X0107336Y0174936D01*
X0107385Y0175082D01*
X0107438Y0175228D01*
X0107494Y0175371D01*
X0107554Y0175514D01*
X0107618Y0175654D01*
X0107685Y0175794D01*
X0107756Y0175931D01*
X0107830Y0176066D01*
X0107908Y0176200D01*
X0107989Y0176331D01*
X0108074Y0176460D01*
X0108162Y0176588D01*
X0108253Y0176712D01*
X0108347Y0176835D01*
X0108445Y0176955D01*
X0108545Y0177072D01*
X0108649Y0177187D01*
X0108755Y0177299D01*
X0108864Y0177408D01*
X0108976Y0177514D01*
X0109091Y0177618D01*
X0109208Y0177718D01*
X0109328Y0177816D01*
X0109451Y0177910D01*
X0109575Y0178001D01*
X0109703Y0178089D01*
X0109832Y0178174D01*
X0109963Y0178255D01*
X0110097Y0178333D01*
X0110232Y0178407D01*
X0110369Y0178478D01*
X0110509Y0178545D01*
X0110649Y0178609D01*
X0110792Y0178669D01*
X0110935Y0178725D01*
X0111081Y0178778D01*
X0111227Y0178827D01*
X0111375Y0178872D01*
X0111524Y0178913D01*
X0111674Y0178951D01*
X0111825Y0178984D01*
X0111976Y0179014D01*
X0112129Y0179040D01*
X0112282Y0179061D01*
X0112435Y0179079D01*
X0112589Y0179093D01*
X0112743Y0179103D01*
X0112898Y0179109D01*
X0113052Y0179111D01*
X0113206Y0179109D01*
X0113361Y0179103D01*
X0113515Y0179093D01*
X0113669Y0179079D01*
X0113822Y0179061D01*
X0113975Y0179040D01*
X0114128Y0179014D01*
X0114279Y0178984D01*
X0114430Y0178951D01*
X0114580Y0178913D01*
X0114729Y0178872D01*
X0114877Y0178827D01*
X0115023Y0178778D01*
X0115169Y0178725D01*
X0115312Y0178669D01*
X0115455Y0178609D01*
X0115595Y0178545D01*
X0115735Y0178478D01*
X0115872Y0178407D01*
X0116007Y0178333D01*
X0116141Y0178255D01*
X0116272Y0178174D01*
X0116401Y0178089D01*
X0116529Y0178001D01*
X0116653Y0177910D01*
X0116776Y0177816D01*
X0116896Y0177718D01*
X0117013Y0177618D01*
X0117128Y0177514D01*
X0117240Y0177408D01*
X0117349Y0177299D01*
X0117455Y0177187D01*
X0117559Y0177072D01*
X0117659Y0176955D01*
X0117757Y0176835D01*
X0117851Y0176712D01*
X0117942Y0176588D01*
X0118030Y0176460D01*
X0118115Y0176331D01*
X0118196Y0176200D01*
X0118274Y0176066D01*
X0118348Y0175931D01*
X0118419Y0175794D01*
X0118486Y0175654D01*
X0118550Y0175514D01*
X0118610Y0175371D01*
X0118666Y0175228D01*
X0118719Y0175082D01*
X0118768Y0174936D01*
X0118813Y0174788D01*
X0118854Y0174639D01*
X0118892Y0174489D01*
X0118925Y0174338D01*
X0118955Y0174187D01*
X0118981Y0174034D01*
X0119002Y0173881D01*
X0119020Y0173728D01*
X0119034Y0173574D01*
X0119044Y0173420D01*
X0119050Y0173265D01*
X0119052Y0173111D01*
X0119050Y0172957D01*
X0119044Y0172802D01*
X0119034Y0172648D01*
X0119020Y0172494D01*
X0119002Y0172341D01*
X0118981Y0172188D01*
X0118955Y0172035D01*
X0118925Y0171884D01*
X0118892Y0171733D01*
X0118854Y0171583D01*
X0118813Y0171434D01*
X0118768Y0171286D01*
X0118719Y0171140D01*
X0118666Y0170994D01*
X0118610Y0170851D01*
X0118550Y0170708D01*
X0118486Y0170568D01*
X0118419Y0170428D01*
X0118348Y0170291D01*
X0118274Y0170156D01*
X0118196Y0170022D01*
X0118115Y0169891D01*
X0118030Y0169762D01*
X0117942Y0169634D01*
X0117851Y0169510D01*
X0117757Y0169387D01*
X0117659Y0169267D01*
X0117559Y0169150D01*
X0117455Y0169035D01*
X0117349Y0168923D01*
X0117240Y0168814D01*
X0117128Y0168708D01*
X0117013Y0168604D01*
X0116896Y0168504D01*
X0116776Y0168406D01*
X0116653Y0168312D01*
X0116529Y0168221D01*
X0116401Y0168133D01*
X0116272Y0168048D01*
X0116141Y0167967D01*
X0116007Y0167889D01*
X0115872Y0167815D01*
X0115735Y0167744D01*
X0115595Y0167677D01*
X0115455Y0167613D01*
X0115312Y0167553D01*
X0115169Y0167497D01*
X0115023Y0167444D01*
X0114877Y0167395D01*
X0114729Y0167350D01*
X0114580Y0167309D01*
X0114430Y0167271D01*
X0114279Y0167238D01*
X0114128Y0167208D01*
X0113975Y0167182D01*
X0113822Y0167161D01*
X0113669Y0167143D01*
X0113515Y0167129D01*
X0113361Y0167119D01*
X0113206Y0167113D01*
X0113052Y0167111D01*
X0112898Y0167113D01*
X0112743Y0167119D01*
X0112589Y0167129D01*
X0112435Y0167143D01*
X0112282Y0167161D01*
X0112129Y0167182D01*
X0111976Y0167208D01*
X0111825Y0167238D01*
X0111674Y0167271D01*
X0111524Y0167309D01*
X0111375Y0167350D01*
X0111227Y0167395D01*
X0111081Y0167444D01*
X0110935Y0167497D01*
X0110792Y0167553D01*
X0110649Y0167613D01*
X0110509Y0167677D01*
X0110369Y0167744D01*
X0110232Y0167815D01*
X0110097Y0167889D01*
X0109963Y0167967D01*
X0109832Y0168048D01*
X0109703Y0168133D01*
X0109575Y0168221D01*
X0109451Y0168312D01*
X0109328Y0168406D01*
X0109208Y0168504D01*
X0109091Y0168604D01*
X0108976Y0168708D01*
X0108864Y0168814D01*
X0108755Y0168923D01*
X0108649Y0169035D01*
X0108545Y0169150D01*
X0108445Y0169267D01*
X0108347Y0169387D01*
X0108253Y0169510D01*
X0108162Y0169634D01*
X0108074Y0169762D01*
X0107989Y0169891D01*
X0107908Y0170022D01*
X0107830Y0170156D01*
X0107756Y0170291D01*
X0107685Y0170428D01*
X0107618Y0170568D01*
X0107554Y0170708D01*
X0107494Y0170851D01*
X0107438Y0170994D01*
X0107385Y0171140D01*
X0107336Y0171286D01*
X0107291Y0171434D01*
X0107250Y0171583D01*
X0107212Y0171733D01*
X0107179Y0171884D01*
X0107149Y0172035D01*
X0107123Y0172188D01*
X0107102Y0172341D01*
X0107084Y0172494D01*
X0107070Y0172648D01*
X0107060Y0172802D01*
X0107054Y0172957D01*
X0107052Y0173111D01*
X0109552Y0078111D02*
X0109554Y0078265D01*
X0109560Y0078420D01*
X0109570Y0078574D01*
X0109584Y0078728D01*
X0109602Y0078881D01*
X0109623Y0079034D01*
X0109649Y0079187D01*
X0109679Y0079338D01*
X0109712Y0079489D01*
X0109750Y0079639D01*
X0109791Y0079788D01*
X0109836Y0079936D01*
X0109885Y0080082D01*
X0109938Y0080228D01*
X0109994Y0080371D01*
X0110054Y0080514D01*
X0110118Y0080654D01*
X0110185Y0080794D01*
X0110256Y0080931D01*
X0110330Y0081066D01*
X0110408Y0081200D01*
X0110489Y0081331D01*
X0110574Y0081460D01*
X0110662Y0081588D01*
X0110753Y0081712D01*
X0110847Y0081835D01*
X0110945Y0081955D01*
X0111045Y0082072D01*
X0111149Y0082187D01*
X0111255Y0082299D01*
X0111364Y0082408D01*
X0111476Y0082514D01*
X0111591Y0082618D01*
X0111708Y0082718D01*
X0111828Y0082816D01*
X0111951Y0082910D01*
X0112075Y0083001D01*
X0112203Y0083089D01*
X0112332Y0083174D01*
X0112463Y0083255D01*
X0112597Y0083333D01*
X0112732Y0083407D01*
X0112869Y0083478D01*
X0113009Y0083545D01*
X0113149Y0083609D01*
X0113292Y0083669D01*
X0113435Y0083725D01*
X0113581Y0083778D01*
X0113727Y0083827D01*
X0113875Y0083872D01*
X0114024Y0083913D01*
X0114174Y0083951D01*
X0114325Y0083984D01*
X0114476Y0084014D01*
X0114629Y0084040D01*
X0114782Y0084061D01*
X0114935Y0084079D01*
X0115089Y0084093D01*
X0115243Y0084103D01*
X0115398Y0084109D01*
X0115552Y0084111D01*
X0115706Y0084109D01*
X0115861Y0084103D01*
X0116015Y0084093D01*
X0116169Y0084079D01*
X0116322Y0084061D01*
X0116475Y0084040D01*
X0116628Y0084014D01*
X0116779Y0083984D01*
X0116930Y0083951D01*
X0117080Y0083913D01*
X0117229Y0083872D01*
X0117377Y0083827D01*
X0117523Y0083778D01*
X0117669Y0083725D01*
X0117812Y0083669D01*
X0117955Y0083609D01*
X0118095Y0083545D01*
X0118235Y0083478D01*
X0118372Y0083407D01*
X0118507Y0083333D01*
X0118641Y0083255D01*
X0118772Y0083174D01*
X0118901Y0083089D01*
X0119029Y0083001D01*
X0119153Y0082910D01*
X0119276Y0082816D01*
X0119396Y0082718D01*
X0119513Y0082618D01*
X0119628Y0082514D01*
X0119740Y0082408D01*
X0119849Y0082299D01*
X0119955Y0082187D01*
X0120059Y0082072D01*
X0120159Y0081955D01*
X0120257Y0081835D01*
X0120351Y0081712D01*
X0120442Y0081588D01*
X0120530Y0081460D01*
X0120615Y0081331D01*
X0120696Y0081200D01*
X0120774Y0081066D01*
X0120848Y0080931D01*
X0120919Y0080794D01*
X0120986Y0080654D01*
X0121050Y0080514D01*
X0121110Y0080371D01*
X0121166Y0080228D01*
X0121219Y0080082D01*
X0121268Y0079936D01*
X0121313Y0079788D01*
X0121354Y0079639D01*
X0121392Y0079489D01*
X0121425Y0079338D01*
X0121455Y0079187D01*
X0121481Y0079034D01*
X0121502Y0078881D01*
X0121520Y0078728D01*
X0121534Y0078574D01*
X0121544Y0078420D01*
X0121550Y0078265D01*
X0121552Y0078111D01*
X0121550Y0077957D01*
X0121544Y0077802D01*
X0121534Y0077648D01*
X0121520Y0077494D01*
X0121502Y0077341D01*
X0121481Y0077188D01*
X0121455Y0077035D01*
X0121425Y0076884D01*
X0121392Y0076733D01*
X0121354Y0076583D01*
X0121313Y0076434D01*
X0121268Y0076286D01*
X0121219Y0076140D01*
X0121166Y0075994D01*
X0121110Y0075851D01*
X0121050Y0075708D01*
X0120986Y0075568D01*
X0120919Y0075428D01*
X0120848Y0075291D01*
X0120774Y0075156D01*
X0120696Y0075022D01*
X0120615Y0074891D01*
X0120530Y0074762D01*
X0120442Y0074634D01*
X0120351Y0074510D01*
X0120257Y0074387D01*
X0120159Y0074267D01*
X0120059Y0074150D01*
X0119955Y0074035D01*
X0119849Y0073923D01*
X0119740Y0073814D01*
X0119628Y0073708D01*
X0119513Y0073604D01*
X0119396Y0073504D01*
X0119276Y0073406D01*
X0119153Y0073312D01*
X0119029Y0073221D01*
X0118901Y0073133D01*
X0118772Y0073048D01*
X0118641Y0072967D01*
X0118507Y0072889D01*
X0118372Y0072815D01*
X0118235Y0072744D01*
X0118095Y0072677D01*
X0117955Y0072613D01*
X0117812Y0072553D01*
X0117669Y0072497D01*
X0117523Y0072444D01*
X0117377Y0072395D01*
X0117229Y0072350D01*
X0117080Y0072309D01*
X0116930Y0072271D01*
X0116779Y0072238D01*
X0116628Y0072208D01*
X0116475Y0072182D01*
X0116322Y0072161D01*
X0116169Y0072143D01*
X0116015Y0072129D01*
X0115861Y0072119D01*
X0115706Y0072113D01*
X0115552Y0072111D01*
X0115398Y0072113D01*
X0115243Y0072119D01*
X0115089Y0072129D01*
X0114935Y0072143D01*
X0114782Y0072161D01*
X0114629Y0072182D01*
X0114476Y0072208D01*
X0114325Y0072238D01*
X0114174Y0072271D01*
X0114024Y0072309D01*
X0113875Y0072350D01*
X0113727Y0072395D01*
X0113581Y0072444D01*
X0113435Y0072497D01*
X0113292Y0072553D01*
X0113149Y0072613D01*
X0113009Y0072677D01*
X0112869Y0072744D01*
X0112732Y0072815D01*
X0112597Y0072889D01*
X0112463Y0072967D01*
X0112332Y0073048D01*
X0112203Y0073133D01*
X0112075Y0073221D01*
X0111951Y0073312D01*
X0111828Y0073406D01*
X0111708Y0073504D01*
X0111591Y0073604D01*
X0111476Y0073708D01*
X0111364Y0073814D01*
X0111255Y0073923D01*
X0111149Y0074035D01*
X0111045Y0074150D01*
X0110945Y0074267D01*
X0110847Y0074387D01*
X0110753Y0074510D01*
X0110662Y0074634D01*
X0110574Y0074762D01*
X0110489Y0074891D01*
X0110408Y0075022D01*
X0110330Y0075156D01*
X0110256Y0075291D01*
X0110185Y0075428D01*
X0110118Y0075568D01*
X0110054Y0075708D01*
X0109994Y0075851D01*
X0109938Y0075994D01*
X0109885Y0076140D01*
X0109836Y0076286D01*
X0109791Y0076434D01*
X0109750Y0076583D01*
X0109712Y0076733D01*
X0109679Y0076884D01*
X0109649Y0077035D01*
X0109623Y0077188D01*
X0109602Y0077341D01*
X0109584Y0077494D01*
X0109570Y0077648D01*
X0109560Y0077802D01*
X0109554Y0077957D01*
X0109552Y0078111D01*
X0169552Y0195611D02*
X0169554Y0195765D01*
X0169560Y0195920D01*
X0169570Y0196074D01*
X0169584Y0196228D01*
X0169602Y0196381D01*
X0169623Y0196534D01*
X0169649Y0196687D01*
X0169679Y0196838D01*
X0169712Y0196989D01*
X0169750Y0197139D01*
X0169791Y0197288D01*
X0169836Y0197436D01*
X0169885Y0197582D01*
X0169938Y0197728D01*
X0169994Y0197871D01*
X0170054Y0198014D01*
X0170118Y0198154D01*
X0170185Y0198294D01*
X0170256Y0198431D01*
X0170330Y0198566D01*
X0170408Y0198700D01*
X0170489Y0198831D01*
X0170574Y0198960D01*
X0170662Y0199088D01*
X0170753Y0199212D01*
X0170847Y0199335D01*
X0170945Y0199455D01*
X0171045Y0199572D01*
X0171149Y0199687D01*
X0171255Y0199799D01*
X0171364Y0199908D01*
X0171476Y0200014D01*
X0171591Y0200118D01*
X0171708Y0200218D01*
X0171828Y0200316D01*
X0171951Y0200410D01*
X0172075Y0200501D01*
X0172203Y0200589D01*
X0172332Y0200674D01*
X0172463Y0200755D01*
X0172597Y0200833D01*
X0172732Y0200907D01*
X0172869Y0200978D01*
X0173009Y0201045D01*
X0173149Y0201109D01*
X0173292Y0201169D01*
X0173435Y0201225D01*
X0173581Y0201278D01*
X0173727Y0201327D01*
X0173875Y0201372D01*
X0174024Y0201413D01*
X0174174Y0201451D01*
X0174325Y0201484D01*
X0174476Y0201514D01*
X0174629Y0201540D01*
X0174782Y0201561D01*
X0174935Y0201579D01*
X0175089Y0201593D01*
X0175243Y0201603D01*
X0175398Y0201609D01*
X0175552Y0201611D01*
X0175706Y0201609D01*
X0175861Y0201603D01*
X0176015Y0201593D01*
X0176169Y0201579D01*
X0176322Y0201561D01*
X0176475Y0201540D01*
X0176628Y0201514D01*
X0176779Y0201484D01*
X0176930Y0201451D01*
X0177080Y0201413D01*
X0177229Y0201372D01*
X0177377Y0201327D01*
X0177523Y0201278D01*
X0177669Y0201225D01*
X0177812Y0201169D01*
X0177955Y0201109D01*
X0178095Y0201045D01*
X0178235Y0200978D01*
X0178372Y0200907D01*
X0178507Y0200833D01*
X0178641Y0200755D01*
X0178772Y0200674D01*
X0178901Y0200589D01*
X0179029Y0200501D01*
X0179153Y0200410D01*
X0179276Y0200316D01*
X0179396Y0200218D01*
X0179513Y0200118D01*
X0179628Y0200014D01*
X0179740Y0199908D01*
X0179849Y0199799D01*
X0179955Y0199687D01*
X0180059Y0199572D01*
X0180159Y0199455D01*
X0180257Y0199335D01*
X0180351Y0199212D01*
X0180442Y0199088D01*
X0180530Y0198960D01*
X0180615Y0198831D01*
X0180696Y0198700D01*
X0180774Y0198566D01*
X0180848Y0198431D01*
X0180919Y0198294D01*
X0180986Y0198154D01*
X0181050Y0198014D01*
X0181110Y0197871D01*
X0181166Y0197728D01*
X0181219Y0197582D01*
X0181268Y0197436D01*
X0181313Y0197288D01*
X0181354Y0197139D01*
X0181392Y0196989D01*
X0181425Y0196838D01*
X0181455Y0196687D01*
X0181481Y0196534D01*
X0181502Y0196381D01*
X0181520Y0196228D01*
X0181534Y0196074D01*
X0181544Y0195920D01*
X0181550Y0195765D01*
X0181552Y0195611D01*
X0181550Y0195457D01*
X0181544Y0195302D01*
X0181534Y0195148D01*
X0181520Y0194994D01*
X0181502Y0194841D01*
X0181481Y0194688D01*
X0181455Y0194535D01*
X0181425Y0194384D01*
X0181392Y0194233D01*
X0181354Y0194083D01*
X0181313Y0193934D01*
X0181268Y0193786D01*
X0181219Y0193640D01*
X0181166Y0193494D01*
X0181110Y0193351D01*
X0181050Y0193208D01*
X0180986Y0193068D01*
X0180919Y0192928D01*
X0180848Y0192791D01*
X0180774Y0192656D01*
X0180696Y0192522D01*
X0180615Y0192391D01*
X0180530Y0192262D01*
X0180442Y0192134D01*
X0180351Y0192010D01*
X0180257Y0191887D01*
X0180159Y0191767D01*
X0180059Y0191650D01*
X0179955Y0191535D01*
X0179849Y0191423D01*
X0179740Y0191314D01*
X0179628Y0191208D01*
X0179513Y0191104D01*
X0179396Y0191004D01*
X0179276Y0190906D01*
X0179153Y0190812D01*
X0179029Y0190721D01*
X0178901Y0190633D01*
X0178772Y0190548D01*
X0178641Y0190467D01*
X0178507Y0190389D01*
X0178372Y0190315D01*
X0178235Y0190244D01*
X0178095Y0190177D01*
X0177955Y0190113D01*
X0177812Y0190053D01*
X0177669Y0189997D01*
X0177523Y0189944D01*
X0177377Y0189895D01*
X0177229Y0189850D01*
X0177080Y0189809D01*
X0176930Y0189771D01*
X0176779Y0189738D01*
X0176628Y0189708D01*
X0176475Y0189682D01*
X0176322Y0189661D01*
X0176169Y0189643D01*
X0176015Y0189629D01*
X0175861Y0189619D01*
X0175706Y0189613D01*
X0175552Y0189611D01*
X0175398Y0189613D01*
X0175243Y0189619D01*
X0175089Y0189629D01*
X0174935Y0189643D01*
X0174782Y0189661D01*
X0174629Y0189682D01*
X0174476Y0189708D01*
X0174325Y0189738D01*
X0174174Y0189771D01*
X0174024Y0189809D01*
X0173875Y0189850D01*
X0173727Y0189895D01*
X0173581Y0189944D01*
X0173435Y0189997D01*
X0173292Y0190053D01*
X0173149Y0190113D01*
X0173009Y0190177D01*
X0172869Y0190244D01*
X0172732Y0190315D01*
X0172597Y0190389D01*
X0172463Y0190467D01*
X0172332Y0190548D01*
X0172203Y0190633D01*
X0172075Y0190721D01*
X0171951Y0190812D01*
X0171828Y0190906D01*
X0171708Y0191004D01*
X0171591Y0191104D01*
X0171476Y0191208D01*
X0171364Y0191314D01*
X0171255Y0191423D01*
X0171149Y0191535D01*
X0171045Y0191650D01*
X0170945Y0191767D01*
X0170847Y0191887D01*
X0170753Y0192010D01*
X0170662Y0192134D01*
X0170574Y0192262D01*
X0170489Y0192391D01*
X0170408Y0192522D01*
X0170330Y0192656D01*
X0170256Y0192791D01*
X0170185Y0192928D01*
X0170118Y0193068D01*
X0170054Y0193208D01*
X0169994Y0193351D01*
X0169938Y0193494D01*
X0169885Y0193640D01*
X0169836Y0193786D01*
X0169791Y0193934D01*
X0169750Y0194083D01*
X0169712Y0194233D01*
X0169679Y0194384D01*
X0169649Y0194535D01*
X0169623Y0194688D01*
X0169602Y0194841D01*
X0169584Y0194994D01*
X0169570Y0195148D01*
X0169560Y0195302D01*
X0169554Y0195457D01*
X0169552Y0195611D01*
X0197052Y0133111D02*
X0197054Y0133265D01*
X0197060Y0133420D01*
X0197070Y0133574D01*
X0197084Y0133728D01*
X0197102Y0133881D01*
X0197123Y0134034D01*
X0197149Y0134187D01*
X0197179Y0134338D01*
X0197212Y0134489D01*
X0197250Y0134639D01*
X0197291Y0134788D01*
X0197336Y0134936D01*
X0197385Y0135082D01*
X0197438Y0135228D01*
X0197494Y0135371D01*
X0197554Y0135514D01*
X0197618Y0135654D01*
X0197685Y0135794D01*
X0197756Y0135931D01*
X0197830Y0136066D01*
X0197908Y0136200D01*
X0197989Y0136331D01*
X0198074Y0136460D01*
X0198162Y0136588D01*
X0198253Y0136712D01*
X0198347Y0136835D01*
X0198445Y0136955D01*
X0198545Y0137072D01*
X0198649Y0137187D01*
X0198755Y0137299D01*
X0198864Y0137408D01*
X0198976Y0137514D01*
X0199091Y0137618D01*
X0199208Y0137718D01*
X0199328Y0137816D01*
X0199451Y0137910D01*
X0199575Y0138001D01*
X0199703Y0138089D01*
X0199832Y0138174D01*
X0199963Y0138255D01*
X0200097Y0138333D01*
X0200232Y0138407D01*
X0200369Y0138478D01*
X0200509Y0138545D01*
X0200649Y0138609D01*
X0200792Y0138669D01*
X0200935Y0138725D01*
X0201081Y0138778D01*
X0201227Y0138827D01*
X0201375Y0138872D01*
X0201524Y0138913D01*
X0201674Y0138951D01*
X0201825Y0138984D01*
X0201976Y0139014D01*
X0202129Y0139040D01*
X0202282Y0139061D01*
X0202435Y0139079D01*
X0202589Y0139093D01*
X0202743Y0139103D01*
X0202898Y0139109D01*
X0203052Y0139111D01*
X0203206Y0139109D01*
X0203361Y0139103D01*
X0203515Y0139093D01*
X0203669Y0139079D01*
X0203822Y0139061D01*
X0203975Y0139040D01*
X0204128Y0139014D01*
X0204279Y0138984D01*
X0204430Y0138951D01*
X0204580Y0138913D01*
X0204729Y0138872D01*
X0204877Y0138827D01*
X0205023Y0138778D01*
X0205169Y0138725D01*
X0205312Y0138669D01*
X0205455Y0138609D01*
X0205595Y0138545D01*
X0205735Y0138478D01*
X0205872Y0138407D01*
X0206007Y0138333D01*
X0206141Y0138255D01*
X0206272Y0138174D01*
X0206401Y0138089D01*
X0206529Y0138001D01*
X0206653Y0137910D01*
X0206776Y0137816D01*
X0206896Y0137718D01*
X0207013Y0137618D01*
X0207128Y0137514D01*
X0207240Y0137408D01*
X0207349Y0137299D01*
X0207455Y0137187D01*
X0207559Y0137072D01*
X0207659Y0136955D01*
X0207757Y0136835D01*
X0207851Y0136712D01*
X0207942Y0136588D01*
X0208030Y0136460D01*
X0208115Y0136331D01*
X0208196Y0136200D01*
X0208274Y0136066D01*
X0208348Y0135931D01*
X0208419Y0135794D01*
X0208486Y0135654D01*
X0208550Y0135514D01*
X0208610Y0135371D01*
X0208666Y0135228D01*
X0208719Y0135082D01*
X0208768Y0134936D01*
X0208813Y0134788D01*
X0208854Y0134639D01*
X0208892Y0134489D01*
X0208925Y0134338D01*
X0208955Y0134187D01*
X0208981Y0134034D01*
X0209002Y0133881D01*
X0209020Y0133728D01*
X0209034Y0133574D01*
X0209044Y0133420D01*
X0209050Y0133265D01*
X0209052Y0133111D01*
X0209050Y0132957D01*
X0209044Y0132802D01*
X0209034Y0132648D01*
X0209020Y0132494D01*
X0209002Y0132341D01*
X0208981Y0132188D01*
X0208955Y0132035D01*
X0208925Y0131884D01*
X0208892Y0131733D01*
X0208854Y0131583D01*
X0208813Y0131434D01*
X0208768Y0131286D01*
X0208719Y0131140D01*
X0208666Y0130994D01*
X0208610Y0130851D01*
X0208550Y0130708D01*
X0208486Y0130568D01*
X0208419Y0130428D01*
X0208348Y0130291D01*
X0208274Y0130156D01*
X0208196Y0130022D01*
X0208115Y0129891D01*
X0208030Y0129762D01*
X0207942Y0129634D01*
X0207851Y0129510D01*
X0207757Y0129387D01*
X0207659Y0129267D01*
X0207559Y0129150D01*
X0207455Y0129035D01*
X0207349Y0128923D01*
X0207240Y0128814D01*
X0207128Y0128708D01*
X0207013Y0128604D01*
X0206896Y0128504D01*
X0206776Y0128406D01*
X0206653Y0128312D01*
X0206529Y0128221D01*
X0206401Y0128133D01*
X0206272Y0128048D01*
X0206141Y0127967D01*
X0206007Y0127889D01*
X0205872Y0127815D01*
X0205735Y0127744D01*
X0205595Y0127677D01*
X0205455Y0127613D01*
X0205312Y0127553D01*
X0205169Y0127497D01*
X0205023Y0127444D01*
X0204877Y0127395D01*
X0204729Y0127350D01*
X0204580Y0127309D01*
X0204430Y0127271D01*
X0204279Y0127238D01*
X0204128Y0127208D01*
X0203975Y0127182D01*
X0203822Y0127161D01*
X0203669Y0127143D01*
X0203515Y0127129D01*
X0203361Y0127119D01*
X0203206Y0127113D01*
X0203052Y0127111D01*
X0202898Y0127113D01*
X0202743Y0127119D01*
X0202589Y0127129D01*
X0202435Y0127143D01*
X0202282Y0127161D01*
X0202129Y0127182D01*
X0201976Y0127208D01*
X0201825Y0127238D01*
X0201674Y0127271D01*
X0201524Y0127309D01*
X0201375Y0127350D01*
X0201227Y0127395D01*
X0201081Y0127444D01*
X0200935Y0127497D01*
X0200792Y0127553D01*
X0200649Y0127613D01*
X0200509Y0127677D01*
X0200369Y0127744D01*
X0200232Y0127815D01*
X0200097Y0127889D01*
X0199963Y0127967D01*
X0199832Y0128048D01*
X0199703Y0128133D01*
X0199575Y0128221D01*
X0199451Y0128312D01*
X0199328Y0128406D01*
X0199208Y0128504D01*
X0199091Y0128604D01*
X0198976Y0128708D01*
X0198864Y0128814D01*
X0198755Y0128923D01*
X0198649Y0129035D01*
X0198545Y0129150D01*
X0198445Y0129267D01*
X0198347Y0129387D01*
X0198253Y0129510D01*
X0198162Y0129634D01*
X0198074Y0129762D01*
X0197989Y0129891D01*
X0197908Y0130022D01*
X0197830Y0130156D01*
X0197756Y0130291D01*
X0197685Y0130428D01*
X0197618Y0130568D01*
X0197554Y0130708D01*
X0197494Y0130851D01*
X0197438Y0130994D01*
X0197385Y0131140D01*
X0197336Y0131286D01*
X0197291Y0131434D01*
X0197250Y0131583D01*
X0197212Y0131733D01*
X0197179Y0131884D01*
X0197149Y0132035D01*
X0197123Y0132188D01*
X0197102Y0132341D01*
X0197084Y0132494D01*
X0197070Y0132648D01*
X0197060Y0132802D01*
X0197054Y0132957D01*
X0197052Y0133111D01*
X0197052Y0283111D02*
X0197054Y0283265D01*
X0197060Y0283420D01*
X0197070Y0283574D01*
X0197084Y0283728D01*
X0197102Y0283881D01*
X0197123Y0284034D01*
X0197149Y0284187D01*
X0197179Y0284338D01*
X0197212Y0284489D01*
X0197250Y0284639D01*
X0197291Y0284788D01*
X0197336Y0284936D01*
X0197385Y0285082D01*
X0197438Y0285228D01*
X0197494Y0285371D01*
X0197554Y0285514D01*
X0197618Y0285654D01*
X0197685Y0285794D01*
X0197756Y0285931D01*
X0197830Y0286066D01*
X0197908Y0286200D01*
X0197989Y0286331D01*
X0198074Y0286460D01*
X0198162Y0286588D01*
X0198253Y0286712D01*
X0198347Y0286835D01*
X0198445Y0286955D01*
X0198545Y0287072D01*
X0198649Y0287187D01*
X0198755Y0287299D01*
X0198864Y0287408D01*
X0198976Y0287514D01*
X0199091Y0287618D01*
X0199208Y0287718D01*
X0199328Y0287816D01*
X0199451Y0287910D01*
X0199575Y0288001D01*
X0199703Y0288089D01*
X0199832Y0288174D01*
X0199963Y0288255D01*
X0200097Y0288333D01*
X0200232Y0288407D01*
X0200369Y0288478D01*
X0200509Y0288545D01*
X0200649Y0288609D01*
X0200792Y0288669D01*
X0200935Y0288725D01*
X0201081Y0288778D01*
X0201227Y0288827D01*
X0201375Y0288872D01*
X0201524Y0288913D01*
X0201674Y0288951D01*
X0201825Y0288984D01*
X0201976Y0289014D01*
X0202129Y0289040D01*
X0202282Y0289061D01*
X0202435Y0289079D01*
X0202589Y0289093D01*
X0202743Y0289103D01*
X0202898Y0289109D01*
X0203052Y0289111D01*
X0203206Y0289109D01*
X0203361Y0289103D01*
X0203515Y0289093D01*
X0203669Y0289079D01*
X0203822Y0289061D01*
X0203975Y0289040D01*
X0204128Y0289014D01*
X0204279Y0288984D01*
X0204430Y0288951D01*
X0204580Y0288913D01*
X0204729Y0288872D01*
X0204877Y0288827D01*
X0205023Y0288778D01*
X0205169Y0288725D01*
X0205312Y0288669D01*
X0205455Y0288609D01*
X0205595Y0288545D01*
X0205735Y0288478D01*
X0205872Y0288407D01*
X0206007Y0288333D01*
X0206141Y0288255D01*
X0206272Y0288174D01*
X0206401Y0288089D01*
X0206529Y0288001D01*
X0206653Y0287910D01*
X0206776Y0287816D01*
X0206896Y0287718D01*
X0207013Y0287618D01*
X0207128Y0287514D01*
X0207240Y0287408D01*
X0207349Y0287299D01*
X0207455Y0287187D01*
X0207559Y0287072D01*
X0207659Y0286955D01*
X0207757Y0286835D01*
X0207851Y0286712D01*
X0207942Y0286588D01*
X0208030Y0286460D01*
X0208115Y0286331D01*
X0208196Y0286200D01*
X0208274Y0286066D01*
X0208348Y0285931D01*
X0208419Y0285794D01*
X0208486Y0285654D01*
X0208550Y0285514D01*
X0208610Y0285371D01*
X0208666Y0285228D01*
X0208719Y0285082D01*
X0208768Y0284936D01*
X0208813Y0284788D01*
X0208854Y0284639D01*
X0208892Y0284489D01*
X0208925Y0284338D01*
X0208955Y0284187D01*
X0208981Y0284034D01*
X0209002Y0283881D01*
X0209020Y0283728D01*
X0209034Y0283574D01*
X0209044Y0283420D01*
X0209050Y0283265D01*
X0209052Y0283111D01*
X0209050Y0282957D01*
X0209044Y0282802D01*
X0209034Y0282648D01*
X0209020Y0282494D01*
X0209002Y0282341D01*
X0208981Y0282188D01*
X0208955Y0282035D01*
X0208925Y0281884D01*
X0208892Y0281733D01*
X0208854Y0281583D01*
X0208813Y0281434D01*
X0208768Y0281286D01*
X0208719Y0281140D01*
X0208666Y0280994D01*
X0208610Y0280851D01*
X0208550Y0280708D01*
X0208486Y0280568D01*
X0208419Y0280428D01*
X0208348Y0280291D01*
X0208274Y0280156D01*
X0208196Y0280022D01*
X0208115Y0279891D01*
X0208030Y0279762D01*
X0207942Y0279634D01*
X0207851Y0279510D01*
X0207757Y0279387D01*
X0207659Y0279267D01*
X0207559Y0279150D01*
X0207455Y0279035D01*
X0207349Y0278923D01*
X0207240Y0278814D01*
X0207128Y0278708D01*
X0207013Y0278604D01*
X0206896Y0278504D01*
X0206776Y0278406D01*
X0206653Y0278312D01*
X0206529Y0278221D01*
X0206401Y0278133D01*
X0206272Y0278048D01*
X0206141Y0277967D01*
X0206007Y0277889D01*
X0205872Y0277815D01*
X0205735Y0277744D01*
X0205595Y0277677D01*
X0205455Y0277613D01*
X0205312Y0277553D01*
X0205169Y0277497D01*
X0205023Y0277444D01*
X0204877Y0277395D01*
X0204729Y0277350D01*
X0204580Y0277309D01*
X0204430Y0277271D01*
X0204279Y0277238D01*
X0204128Y0277208D01*
X0203975Y0277182D01*
X0203822Y0277161D01*
X0203669Y0277143D01*
X0203515Y0277129D01*
X0203361Y0277119D01*
X0203206Y0277113D01*
X0203052Y0277111D01*
X0202898Y0277113D01*
X0202743Y0277119D01*
X0202589Y0277129D01*
X0202435Y0277143D01*
X0202282Y0277161D01*
X0202129Y0277182D01*
X0201976Y0277208D01*
X0201825Y0277238D01*
X0201674Y0277271D01*
X0201524Y0277309D01*
X0201375Y0277350D01*
X0201227Y0277395D01*
X0201081Y0277444D01*
X0200935Y0277497D01*
X0200792Y0277553D01*
X0200649Y0277613D01*
X0200509Y0277677D01*
X0200369Y0277744D01*
X0200232Y0277815D01*
X0200097Y0277889D01*
X0199963Y0277967D01*
X0199832Y0278048D01*
X0199703Y0278133D01*
X0199575Y0278221D01*
X0199451Y0278312D01*
X0199328Y0278406D01*
X0199208Y0278504D01*
X0199091Y0278604D01*
X0198976Y0278708D01*
X0198864Y0278814D01*
X0198755Y0278923D01*
X0198649Y0279035D01*
X0198545Y0279150D01*
X0198445Y0279267D01*
X0198347Y0279387D01*
X0198253Y0279510D01*
X0198162Y0279634D01*
X0198074Y0279762D01*
X0197989Y0279891D01*
X0197908Y0280022D01*
X0197830Y0280156D01*
X0197756Y0280291D01*
X0197685Y0280428D01*
X0197618Y0280568D01*
X0197554Y0280708D01*
X0197494Y0280851D01*
X0197438Y0280994D01*
X0197385Y0281140D01*
X0197336Y0281286D01*
X0197291Y0281434D01*
X0197250Y0281583D01*
X0197212Y0281733D01*
X0197179Y0281884D01*
X0197149Y0282035D01*
X0197123Y0282188D01*
X0197102Y0282341D01*
X0197084Y0282494D01*
X0197070Y0282648D01*
X0197060Y0282802D01*
X0197054Y0282957D01*
X0197052Y0283111D01*
D12*
X0180552Y0278111D03*
X0180552Y0288111D03*
X0170552Y0288111D03*
X0170552Y0278111D03*
X0160552Y0278111D03*
X0160552Y0288111D03*
X0150552Y0288111D03*
X0150552Y0278111D03*
X0140552Y0278111D03*
X0140552Y0288111D03*
X0140552Y0258111D03*
X0140552Y0248111D03*
X0150552Y0248111D03*
X0150552Y0258111D03*
X0160552Y0258111D03*
X0160552Y0248111D03*
X0170552Y0248111D03*
X0170552Y0258111D03*
X0180552Y0258111D03*
X0180552Y0248111D03*
X0115552Y0150611D03*
X0115552Y0140611D03*
X0115552Y0130611D03*
X0115552Y0120611D03*
X0115552Y0110611D03*
X0115552Y0100611D03*
D13*
X0144312Y0140611D03*
X0151792Y0140611D03*
X0164312Y0140611D03*
X0164312Y0130611D03*
X0171792Y0130611D03*
X0171792Y0140611D03*
X0150792Y0184611D03*
X0143312Y0184611D03*
X0167312Y0229611D03*
X0174792Y0229611D03*
X0184812Y0229611D03*
X0192292Y0229611D03*
X0154292Y0235611D03*
X0146812Y0235611D03*
X0136792Y0235611D03*
X0129312Y0235611D03*
D14*
X0098722Y0302800D03*
X0103722Y0311460D03*
X0108722Y0320121D03*
X0113722Y0328781D03*
D15*
X0111712Y0324201D02*
X0112727Y0323781D01*
X0114716Y0323781D01*
X0116554Y0324542D01*
X0117961Y0325949D01*
X0118722Y0327786D01*
X0118722Y0329775D01*
X0117961Y0331613D01*
X0116554Y0333020D01*
X0114716Y0333781D01*
X0112727Y0333781D01*
X0110890Y0333020D01*
X0109483Y0331613D01*
X0108722Y0329775D01*
X0108722Y0327786D01*
X0109483Y0325949D01*
X0110732Y0324700D01*
X0109716Y0325121D01*
X0107727Y0325121D01*
X0105890Y0324359D01*
X0104483Y0322953D01*
X0103722Y0321115D01*
X0103722Y0319126D01*
X0104483Y0317288D01*
X0105072Y0316700D01*
X0104986Y0316727D01*
X0104147Y0316860D01*
X0103297Y0316860D01*
X0102457Y0316727D01*
X0101649Y0316465D01*
X0100892Y0316079D01*
X0100204Y0315579D01*
X0099603Y0314978D01*
X0099130Y0314328D01*
X0103653Y0311716D01*
X0103466Y0311392D01*
X0098954Y0313997D01*
X0098717Y0313533D01*
X0098455Y0312725D01*
X0098322Y0311885D01*
X0098322Y0311035D01*
X0098455Y0310196D01*
X0098717Y0309388D01*
X0099103Y0308630D01*
X0099603Y0307943D01*
X0099766Y0307780D01*
X0099716Y0307800D01*
X0097727Y0307800D01*
X0095890Y0307039D01*
X0094483Y0305632D01*
X0093722Y0303795D01*
X0093722Y0301806D01*
X0094483Y0299968D01*
X0095890Y0298561D01*
X0097727Y0297800D01*
X0099716Y0297800D01*
X0101554Y0298561D01*
X0102881Y0299888D01*
X0115652Y0287117D01*
X0115652Y0225134D01*
X0116017Y0224252D01*
X0131692Y0208576D01*
X0132575Y0208211D01*
X0161252Y0208211D01*
X0161252Y0186411D01*
X0154551Y0186411D01*
X0154551Y0188061D01*
X0153848Y0188764D01*
X0147736Y0188764D01*
X0147286Y0188313D01*
X0147151Y0188546D01*
X0146853Y0188844D01*
X0146488Y0189055D01*
X0146082Y0189164D01*
X0143912Y0189164D01*
X0143912Y0185211D01*
X0142712Y0185211D01*
X0142712Y0189164D01*
X0140542Y0189164D01*
X0140135Y0189055D01*
X0139770Y0188844D01*
X0139472Y0188546D01*
X0139262Y0188181D01*
X0139153Y0187774D01*
X0139153Y0185211D01*
X0142712Y0185211D01*
X0142712Y0184011D01*
X0143912Y0184011D01*
X0143912Y0180058D01*
X0146082Y0180058D01*
X0146488Y0180167D01*
X0146853Y0180378D01*
X0147151Y0180676D01*
X0147286Y0180909D01*
X0147736Y0180458D01*
X0153848Y0180458D01*
X0154551Y0181161D01*
X0154551Y0182811D01*
X0161252Y0182811D01*
X0161252Y0144760D01*
X0160553Y0144061D01*
X0160553Y0142411D01*
X0155551Y0142411D01*
X0155551Y0144061D01*
X0154848Y0144764D01*
X0148736Y0144764D01*
X0148052Y0144080D01*
X0147368Y0144764D01*
X0144852Y0144764D01*
X0144852Y0155171D01*
X0145162Y0155481D01*
X0145541Y0156395D01*
X0145541Y0157386D01*
X0145162Y0158300D01*
X0144462Y0159001D01*
X0143547Y0159380D01*
X0142557Y0159380D01*
X0141642Y0159001D01*
X0140942Y0158300D01*
X0140563Y0157386D01*
X0140563Y0156395D01*
X0140942Y0155481D01*
X0141252Y0155171D01*
X0141252Y0144760D01*
X0140553Y0144061D01*
X0140553Y0137161D01*
X0141256Y0136458D01*
X0147368Y0136458D01*
X0148052Y0137142D01*
X0148736Y0136458D01*
X0148854Y0136458D01*
X0147306Y0134911D01*
X0127306Y0134911D01*
X0117502Y0125107D01*
X0116527Y0125511D01*
X0114577Y0125511D01*
X0112776Y0124765D01*
X0111398Y0123387D01*
X0110652Y0121586D01*
X0110652Y0119636D01*
X0111398Y0117835D01*
X0112776Y0116457D01*
X0114577Y0115711D01*
X0116527Y0115711D01*
X0118328Y0116457D01*
X0119706Y0117835D01*
X0120452Y0119636D01*
X0120452Y0121586D01*
X0120048Y0122561D01*
X0128798Y0131311D01*
X0148798Y0131311D01*
X0149852Y0132365D01*
X0153592Y0136106D01*
X0153592Y0136458D01*
X0154848Y0136458D01*
X0155551Y0137161D01*
X0155551Y0138811D01*
X0160553Y0138811D01*
X0160553Y0137161D01*
X0161256Y0136458D01*
X0162512Y0136458D01*
X0162512Y0134764D01*
X0161256Y0134764D01*
X0160553Y0134061D01*
X0160553Y0127161D01*
X0161256Y0126458D01*
X0167368Y0126458D01*
X0168052Y0127142D01*
X0168736Y0126458D01*
X0168854Y0126458D01*
X0167306Y0124911D01*
X0127306Y0124911D01*
X0117502Y0115107D01*
X0116527Y0115511D01*
X0114577Y0115511D01*
X0112776Y0114765D01*
X0111398Y0113387D01*
X0110652Y0111586D01*
X0110652Y0109636D01*
X0111398Y0107835D01*
X0112776Y0106457D01*
X0114382Y0105792D01*
X0114311Y0105781D01*
X0113517Y0105523D01*
X0112774Y0105144D01*
X0112099Y0104654D01*
X0111509Y0104064D01*
X0111019Y0103389D01*
X0110640Y0102646D01*
X0110382Y0101852D01*
X0110252Y0101028D01*
X0110252Y0101011D01*
X0115152Y0101011D01*
X0115152Y0100211D01*
X0115952Y0100211D01*
X0115952Y0101011D01*
X0120852Y0101011D01*
X0120852Y0101028D01*
X0120721Y0101852D01*
X0120464Y0102646D01*
X0120085Y0103389D01*
X0119595Y0104064D01*
X0119005Y0104654D01*
X0118330Y0105144D01*
X0117586Y0105523D01*
X0116793Y0105781D01*
X0116722Y0105792D01*
X0118328Y0106457D01*
X0119706Y0107835D01*
X0120452Y0109636D01*
X0120452Y0111586D01*
X0120048Y0112561D01*
X0125356Y0117869D01*
X0125356Y0091433D01*
X0125552Y0091237D01*
X0125552Y0075065D01*
X0125540Y0075060D01*
X0125525Y0075060D01*
X0125008Y0074840D01*
X0124489Y0074625D01*
X0124478Y0074614D01*
X0124464Y0074608D01*
X0124071Y0074207D01*
X0124050Y0074186D01*
X0118557Y0068801D01*
X0106930Y0058686D01*
X0102329Y0055286D01*
X0063908Y0117720D01*
X0067426Y0120603D01*
X0076784Y0130181D01*
X0076784Y0130181D01*
X0085029Y0140732D01*
X0092059Y0152129D01*
X0097789Y0164232D01*
X0102149Y0176893D01*
X0105085Y0189957D01*
X0106562Y0203266D01*
X0106562Y0216657D01*
X0105085Y0229965D01*
X0105085Y0229965D01*
X0102149Y0243030D01*
X0097789Y0255691D01*
X0092059Y0267794D01*
X0085029Y0279190D01*
X0085029Y0279190D01*
X0076784Y0289742D01*
X0074756Y0291818D01*
X0114384Y0354757D01*
X0118557Y0351125D01*
X0124048Y0345739D01*
X0124071Y0345716D01*
X0124463Y0345315D01*
X0124478Y0345309D01*
X0124489Y0345298D01*
X0125008Y0345083D01*
X0125525Y0344863D01*
X0125540Y0344863D01*
X0125554Y0344857D01*
X0126116Y0344857D01*
X0126678Y0344851D01*
X0126693Y0344857D01*
X0162717Y0344857D01*
X0166814Y0344696D01*
X0174907Y0343414D01*
X0182700Y0340882D01*
X0190001Y0337162D01*
X0196630Y0332346D01*
X0202424Y0326552D01*
X0207241Y0319922D01*
X0210961Y0312622D01*
X0213493Y0304829D01*
X0214774Y0296736D01*
X0214935Y0292639D01*
X0214935Y0127284D01*
X0214774Y0123187D01*
X0214525Y0121611D01*
X0169098Y0121611D01*
X0169852Y0122365D01*
X0173592Y0126106D01*
X0173592Y0126458D01*
X0174848Y0126458D01*
X0175551Y0127161D01*
X0175551Y0128811D01*
X0176332Y0128811D01*
X0176642Y0128501D01*
X0177557Y0128122D01*
X0178547Y0128122D01*
X0179462Y0128501D01*
X0180162Y0129201D01*
X0180541Y0130116D01*
X0180541Y0131106D01*
X0180162Y0132021D01*
X0179462Y0132721D01*
X0178547Y0133100D01*
X0177557Y0133100D01*
X0176642Y0132721D01*
X0176332Y0132411D01*
X0175551Y0132411D01*
X0175551Y0134061D01*
X0174848Y0134764D01*
X0168736Y0134764D01*
X0168052Y0134080D01*
X0167368Y0134764D01*
X0166112Y0134764D01*
X0166112Y0136458D01*
X0167368Y0136458D01*
X0168052Y0137142D01*
X0168736Y0136458D01*
X0174848Y0136458D01*
X0175551Y0137161D01*
X0175551Y0138811D01*
X0176332Y0138811D01*
X0176642Y0138501D01*
X0177557Y0138122D01*
X0178547Y0138122D01*
X0179462Y0138501D01*
X0180162Y0139201D01*
X0180541Y0140116D01*
X0180541Y0141106D01*
X0180162Y0142021D01*
X0179462Y0142721D01*
X0178547Y0143100D01*
X0177557Y0143100D01*
X0176642Y0142721D01*
X0176332Y0142411D01*
X0175551Y0142411D01*
X0175551Y0144061D01*
X0174848Y0144764D01*
X0168736Y0144764D01*
X0168052Y0144080D01*
X0167368Y0144764D01*
X0164852Y0144764D01*
X0164852Y0183811D01*
X0171332Y0183811D01*
X0171642Y0183501D01*
X0172557Y0183122D01*
X0173547Y0183122D01*
X0174462Y0183501D01*
X0175162Y0184201D01*
X0175541Y0185116D01*
X0175541Y0186106D01*
X0175166Y0187011D01*
X0177263Y0187011D01*
X0180423Y0188320D01*
X0182843Y0190740D01*
X0184152Y0193900D01*
X0184152Y0197322D01*
X0182843Y0200483D01*
X0180423Y0202902D01*
X0177263Y0204211D01*
X0173841Y0204211D01*
X0170680Y0202902D01*
X0168261Y0200483D01*
X0166952Y0197322D01*
X0166952Y0193900D01*
X0168261Y0190740D01*
X0170680Y0188320D01*
X0171885Y0187822D01*
X0171642Y0187721D01*
X0171332Y0187411D01*
X0164852Y0187411D01*
X0164852Y0209017D01*
X0168671Y0212836D01*
X0169346Y0213511D01*
X0169712Y0214393D01*
X0169712Y0225458D01*
X0170368Y0225458D01*
X0171052Y0226142D01*
X0171736Y0225458D01*
X0177848Y0225458D01*
X0178551Y0226161D01*
X0178551Y0227811D01*
X0181053Y0227811D01*
X0181053Y0226161D01*
X0181252Y0225962D01*
X0181252Y0212331D01*
X0180942Y0212021D01*
X0180563Y0211106D01*
X0180563Y0210116D01*
X0180942Y0209201D01*
X0181642Y0208501D01*
X0182557Y0208122D01*
X0183547Y0208122D01*
X0184462Y0208501D01*
X0185162Y0209201D01*
X0185541Y0210116D01*
X0185541Y0211106D01*
X0185162Y0212021D01*
X0184852Y0212331D01*
X0184852Y0225458D01*
X0187868Y0225458D01*
X0188318Y0225909D01*
X0188453Y0225676D01*
X0188751Y0225378D01*
X0189115Y0225167D01*
X0189522Y0225058D01*
X0191692Y0225058D01*
X0191692Y0229011D01*
X0192892Y0229011D01*
X0192892Y0225058D01*
X0195062Y0225058D01*
X0195469Y0225167D01*
X0195834Y0225378D01*
X0196131Y0225676D01*
X0196342Y0226041D01*
X0196451Y0226448D01*
X0196451Y0229011D01*
X0192892Y0229011D01*
X0192892Y0230211D01*
X0191692Y0230211D01*
X0191692Y0234164D01*
X0189522Y0234164D01*
X0189115Y0234055D01*
X0188751Y0233844D01*
X0188453Y0233546D01*
X0188318Y0233313D01*
X0187868Y0233764D01*
X0181756Y0233764D01*
X0181053Y0233061D01*
X0181053Y0231411D01*
X0178551Y0231411D01*
X0178551Y0233061D01*
X0177848Y0233764D01*
X0171736Y0233764D01*
X0171052Y0233080D01*
X0170368Y0233764D01*
X0164725Y0233764D01*
X0165162Y0234201D01*
X0165541Y0235116D01*
X0165541Y0236106D01*
X0165162Y0237021D01*
X0164462Y0237721D01*
X0163547Y0238100D01*
X0162557Y0238100D01*
X0161642Y0237721D01*
X0160942Y0237021D01*
X0160563Y0236106D01*
X0160563Y0235668D01*
X0158752Y0233857D01*
X0158451Y0233556D01*
X0158451Y0235011D01*
X0154892Y0235011D01*
X0154892Y0236211D01*
X0153692Y0236211D01*
X0153692Y0240164D01*
X0151522Y0240164D01*
X0151115Y0240055D01*
X0150751Y0239844D01*
X0150453Y0239546D01*
X0150318Y0239313D01*
X0149868Y0239764D01*
X0143756Y0239764D01*
X0143053Y0239061D01*
X0143053Y0238011D01*
X0141262Y0238011D01*
X0141047Y0238100D01*
X0140551Y0238100D01*
X0140551Y0239061D01*
X0139848Y0239764D01*
X0133736Y0239764D01*
X0133052Y0239080D01*
X0132368Y0239764D01*
X0131712Y0239764D01*
X0131712Y0243377D01*
X0134046Y0245711D01*
X0136242Y0245711D01*
X0136398Y0245335D01*
X0137776Y0243957D01*
X0139577Y0243211D01*
X0141527Y0243211D01*
X0143328Y0243957D01*
X0144706Y0245335D01*
X0145371Y0246941D01*
X0145382Y0246870D01*
X0145640Y0246077D01*
X0146019Y0245333D01*
X0146509Y0244658D01*
X0147099Y0244068D01*
X0147774Y0243578D01*
X0148517Y0243199D01*
X0149311Y0242942D01*
X0150135Y0242811D01*
X0150152Y0242811D01*
X0150152Y0247711D01*
X0150952Y0247711D01*
X0150952Y0242811D01*
X0150969Y0242811D01*
X0151793Y0242942D01*
X0152586Y0243199D01*
X0153330Y0243578D01*
X0154005Y0244068D01*
X0154595Y0244658D01*
X0155085Y0245333D01*
X0155464Y0246077D01*
X0155721Y0246870D01*
X0155733Y0246941D01*
X0156398Y0245335D01*
X0157776Y0243957D01*
X0159577Y0243211D01*
X0160406Y0243211D01*
X0163752Y0239865D01*
X0164806Y0238811D01*
X0191332Y0238811D01*
X0191642Y0238501D01*
X0192557Y0238122D01*
X0193547Y0238122D01*
X0194462Y0238501D01*
X0195162Y0239201D01*
X0195541Y0240116D01*
X0195541Y0241106D01*
X0195162Y0242021D01*
X0194462Y0242721D01*
X0193547Y0243100D01*
X0192557Y0243100D01*
X0191642Y0242721D01*
X0191332Y0242411D01*
X0166298Y0242411D01*
X0164040Y0244669D01*
X0164706Y0245335D01*
X0165452Y0247136D01*
X0165452Y0249086D01*
X0165048Y0250061D01*
X0167352Y0252365D01*
X0167352Y0254381D01*
X0167776Y0253957D01*
X0169577Y0253211D01*
X0171527Y0253211D01*
X0173328Y0253957D01*
X0173752Y0254381D01*
X0173752Y0253857D01*
X0172502Y0252607D01*
X0171527Y0253011D01*
X0169577Y0253011D01*
X0167776Y0252265D01*
X0166398Y0250887D01*
X0165652Y0249086D01*
X0165652Y0247136D01*
X0166398Y0245335D01*
X0167776Y0243957D01*
X0169577Y0243211D01*
X0171527Y0243211D01*
X0173328Y0243957D01*
X0174706Y0245335D01*
X0175452Y0247136D01*
X0175452Y0249086D01*
X0175048Y0250061D01*
X0177352Y0252365D01*
X0177352Y0254381D01*
X0177776Y0253957D01*
X0179577Y0253211D01*
X0181527Y0253211D01*
X0183328Y0253957D01*
X0183752Y0254381D01*
X0183752Y0253857D01*
X0182502Y0252607D01*
X0181527Y0253011D01*
X0179577Y0253011D01*
X0177776Y0252265D01*
X0176398Y0250887D01*
X0175652Y0249086D01*
X0175652Y0247136D01*
X0176398Y0245335D01*
X0177776Y0243957D01*
X0179577Y0243211D01*
X0181527Y0243211D01*
X0183328Y0243957D01*
X0184706Y0245335D01*
X0185452Y0247136D01*
X0185452Y0249086D01*
X0185048Y0250061D01*
X0187352Y0252365D01*
X0187352Y0273857D01*
X0186298Y0274911D01*
X0185048Y0276161D01*
X0185452Y0277136D01*
X0185452Y0279086D01*
X0184706Y0280887D01*
X0183328Y0282265D01*
X0181527Y0283011D01*
X0179577Y0283011D01*
X0177776Y0282265D01*
X0176398Y0280887D01*
X0175652Y0279086D01*
X0175652Y0277136D01*
X0176398Y0275335D01*
X0177776Y0273957D01*
X0179577Y0273211D01*
X0181527Y0273211D01*
X0182502Y0273615D01*
X0183752Y0272365D01*
X0183752Y0261841D01*
X0183328Y0262265D01*
X0181527Y0263011D01*
X0179577Y0263011D01*
X0177776Y0262265D01*
X0177352Y0261841D01*
X0177352Y0273857D01*
X0176298Y0274911D01*
X0175048Y0276161D01*
X0175452Y0277136D01*
X0175452Y0279086D01*
X0174706Y0280887D01*
X0173328Y0282265D01*
X0171527Y0283011D01*
X0169577Y0283011D01*
X0167776Y0282265D01*
X0166398Y0280887D01*
X0165652Y0279086D01*
X0165652Y0277136D01*
X0166398Y0275335D01*
X0167776Y0273957D01*
X0169577Y0273211D01*
X0171527Y0273211D01*
X0172502Y0273615D01*
X0173752Y0272365D01*
X0173752Y0261841D01*
X0173328Y0262265D01*
X0171527Y0263011D01*
X0169577Y0263011D01*
X0167776Y0262265D01*
X0167352Y0261841D01*
X0167352Y0273857D01*
X0166298Y0274911D01*
X0165048Y0276161D01*
X0165452Y0277136D01*
X0165452Y0279086D01*
X0164706Y0280887D01*
X0163328Y0282265D01*
X0161527Y0283011D01*
X0159577Y0283011D01*
X0157776Y0282265D01*
X0156398Y0280887D01*
X0155733Y0279281D01*
X0155721Y0279352D01*
X0155464Y0280146D01*
X0155085Y0280889D01*
X0154595Y0281564D01*
X0154005Y0282154D01*
X0153330Y0282644D01*
X0152586Y0283023D01*
X0151793Y0283281D01*
X0151722Y0283292D01*
X0153328Y0283957D01*
X0154706Y0285335D01*
X0155452Y0287136D01*
X0155452Y0289086D01*
X0154706Y0290887D01*
X0153328Y0292265D01*
X0151527Y0293011D01*
X0149577Y0293011D01*
X0147776Y0292265D01*
X0146398Y0290887D01*
X0145652Y0289086D01*
X0145652Y0287136D01*
X0146398Y0285335D01*
X0147776Y0283957D01*
X0149382Y0283292D01*
X0149311Y0283281D01*
X0148517Y0283023D01*
X0147774Y0282644D01*
X0147099Y0282154D01*
X0146509Y0281564D01*
X0146019Y0280889D01*
X0145640Y0280146D01*
X0145382Y0279352D01*
X0145371Y0279281D01*
X0144706Y0280887D01*
X0143328Y0282265D01*
X0141527Y0283011D01*
X0139577Y0283011D01*
X0137776Y0282265D01*
X0137534Y0282023D01*
X0135452Y0284105D01*
X0135452Y0296268D01*
X0135087Y0297150D01*
X0113543Y0318694D01*
X0113722Y0319126D01*
X0113722Y0321115D01*
X0112961Y0322953D01*
X0111712Y0324201D01*
X0112388Y0323525D02*
X0204623Y0323525D01*
X0205494Y0322327D02*
X0113220Y0322327D01*
X0113716Y0321128D02*
X0206364Y0321128D01*
X0207235Y0319930D02*
X0113722Y0319930D01*
X0113558Y0318731D02*
X0207847Y0318731D01*
X0208458Y0317533D02*
X0114704Y0317533D01*
X0115902Y0316334D02*
X0209069Y0316334D01*
X0209679Y0315136D02*
X0117101Y0315136D01*
X0118299Y0313937D02*
X0210290Y0313937D01*
X0210901Y0312739D02*
X0119498Y0312739D01*
X0120696Y0311540D02*
X0211312Y0311540D01*
X0211701Y0310342D02*
X0121895Y0310342D01*
X0123093Y0309143D02*
X0212091Y0309143D01*
X0212480Y0307945D02*
X0124292Y0307945D01*
X0125490Y0306746D02*
X0212870Y0306746D01*
X0213259Y0305548D02*
X0126689Y0305548D01*
X0127887Y0304349D02*
X0213569Y0304349D01*
X0213758Y0303151D02*
X0129086Y0303151D01*
X0130284Y0301952D02*
X0213948Y0301952D01*
X0214138Y0300754D02*
X0131483Y0300754D01*
X0132681Y0299555D02*
X0214328Y0299555D01*
X0214518Y0298357D02*
X0133880Y0298357D01*
X0135078Y0297158D02*
X0214708Y0297158D01*
X0214805Y0295960D02*
X0135452Y0295960D01*
X0135452Y0294761D02*
X0214852Y0294761D01*
X0214899Y0293563D02*
X0135452Y0293563D01*
X0135452Y0292364D02*
X0138016Y0292364D01*
X0137776Y0292265D02*
X0136398Y0290887D01*
X0135652Y0289086D01*
X0135652Y0287136D01*
X0136398Y0285335D01*
X0137776Y0283957D01*
X0139577Y0283211D01*
X0141527Y0283211D01*
X0143328Y0283957D01*
X0144706Y0285335D01*
X0145452Y0287136D01*
X0145452Y0289086D01*
X0144706Y0290887D01*
X0143328Y0292265D01*
X0141527Y0293011D01*
X0139577Y0293011D01*
X0137776Y0292265D01*
X0136677Y0291166D02*
X0135452Y0291166D01*
X0135452Y0289967D02*
X0136017Y0289967D01*
X0135652Y0288769D02*
X0135452Y0288769D01*
X0135452Y0287570D02*
X0135652Y0287570D01*
X0135452Y0286372D02*
X0135969Y0286372D01*
X0135452Y0285173D02*
X0136560Y0285173D01*
X0135583Y0283975D02*
X0137759Y0283975D01*
X0136781Y0282776D02*
X0139010Y0282776D01*
X0142094Y0282776D02*
X0148033Y0282776D01*
X0147759Y0283975D02*
X0143345Y0283975D01*
X0144544Y0285173D02*
X0146560Y0285173D01*
X0145652Y0286081D02*
X0145552Y0285981D01*
X0145552Y0283111D01*
X0150552Y0278111D01*
X0155552Y0273111D01*
X0155552Y0253111D01*
X0154544Y0251615D02*
X0157126Y0251615D01*
X0157776Y0252265D02*
X0156398Y0250887D01*
X0155733Y0249281D01*
X0155721Y0249352D01*
X0155464Y0250146D01*
X0155085Y0250889D01*
X0154595Y0251564D01*
X0154005Y0252154D01*
X0153330Y0252644D01*
X0152586Y0253023D01*
X0151793Y0253281D01*
X0151722Y0253292D01*
X0153328Y0253957D01*
X0154706Y0255335D01*
X0155452Y0257136D01*
X0155452Y0259086D01*
X0154706Y0260887D01*
X0153328Y0262265D01*
X0151527Y0263011D01*
X0149577Y0263011D01*
X0147776Y0262265D01*
X0146398Y0260887D01*
X0145652Y0259086D01*
X0145652Y0257136D01*
X0146398Y0255335D01*
X0147776Y0253957D01*
X0149382Y0253292D01*
X0149311Y0253281D01*
X0148517Y0253023D01*
X0147774Y0252644D01*
X0147099Y0252154D01*
X0146509Y0251564D01*
X0146019Y0250889D01*
X0145640Y0250146D01*
X0145382Y0249352D01*
X0145371Y0249281D01*
X0144706Y0250887D01*
X0143328Y0252265D01*
X0141527Y0253011D01*
X0139577Y0253011D01*
X0139202Y0252855D01*
X0138329Y0253728D01*
X0139577Y0253211D01*
X0141527Y0253211D01*
X0143328Y0253957D01*
X0144706Y0255335D01*
X0145452Y0257136D01*
X0145452Y0259086D01*
X0144706Y0260887D01*
X0143328Y0262265D01*
X0141527Y0263011D01*
X0139577Y0263011D01*
X0137776Y0262265D01*
X0136398Y0260887D01*
X0135652Y0259086D01*
X0135652Y0257136D01*
X0136169Y0255888D01*
X0135452Y0256605D01*
X0135452Y0269617D01*
X0139202Y0273367D01*
X0139577Y0273211D01*
X0141527Y0273211D01*
X0143328Y0273957D01*
X0144706Y0275335D01*
X0145371Y0276941D01*
X0145382Y0276870D01*
X0145640Y0276077D01*
X0146019Y0275333D01*
X0146509Y0274658D01*
X0147099Y0274068D01*
X0147774Y0273578D01*
X0148517Y0273199D01*
X0149311Y0272942D01*
X0150135Y0272811D01*
X0150152Y0272811D01*
X0150152Y0277711D01*
X0150952Y0277711D01*
X0150952Y0272811D01*
X0150969Y0272811D01*
X0151793Y0272942D01*
X0152586Y0273199D01*
X0153330Y0273578D01*
X0154005Y0274068D01*
X0154595Y0274658D01*
X0155085Y0275333D01*
X0155464Y0276077D01*
X0155721Y0276870D01*
X0155733Y0276941D01*
X0156398Y0275335D01*
X0157776Y0273957D01*
X0159577Y0273211D01*
X0161527Y0273211D01*
X0162502Y0273615D01*
X0163752Y0272365D01*
X0163752Y0261841D01*
X0163328Y0262265D01*
X0161527Y0263011D01*
X0159577Y0263011D01*
X0157776Y0262265D01*
X0156398Y0260887D01*
X0155652Y0259086D01*
X0155652Y0257136D01*
X0156398Y0255335D01*
X0157776Y0253957D01*
X0159577Y0253211D01*
X0161527Y0253211D01*
X0163328Y0253957D01*
X0163752Y0254381D01*
X0163752Y0253857D01*
X0162502Y0252607D01*
X0161527Y0253011D01*
X0159577Y0253011D01*
X0157776Y0252265D01*
X0159100Y0252813D02*
X0152997Y0252813D01*
X0153382Y0254012D02*
X0157722Y0254012D01*
X0156523Y0255210D02*
X0154581Y0255210D01*
X0155151Y0256409D02*
X0155953Y0256409D01*
X0155652Y0257607D02*
X0155452Y0257607D01*
X0155452Y0258806D02*
X0155652Y0258806D01*
X0156032Y0260004D02*
X0155071Y0260004D01*
X0154390Y0261203D02*
X0156714Y0261203D01*
X0158106Y0262401D02*
X0152998Y0262401D01*
X0148106Y0262401D02*
X0142998Y0262401D01*
X0144390Y0261203D02*
X0146714Y0261203D01*
X0146032Y0260004D02*
X0145071Y0260004D01*
X0145452Y0258806D02*
X0145652Y0258806D01*
X0145652Y0257607D02*
X0145452Y0257607D01*
X0145151Y0256409D02*
X0145953Y0256409D01*
X0146523Y0255210D02*
X0144581Y0255210D01*
X0143382Y0254012D02*
X0147722Y0254012D01*
X0148106Y0252813D02*
X0142004Y0252813D01*
X0143978Y0251615D02*
X0146560Y0251615D01*
X0145778Y0250416D02*
X0144901Y0250416D01*
X0145321Y0246821D02*
X0145398Y0246821D01*
X0145872Y0245622D02*
X0144825Y0245622D01*
X0143794Y0244424D02*
X0146744Y0244424D01*
X0148467Y0243225D02*
X0141561Y0243225D01*
X0139543Y0243225D02*
X0131712Y0243225D01*
X0131712Y0242027D02*
X0161591Y0242027D01*
X0162789Y0240828D02*
X0131712Y0240828D01*
X0132502Y0239630D02*
X0133602Y0239630D01*
X0132759Y0244424D02*
X0137310Y0244424D01*
X0136279Y0245622D02*
X0133957Y0245622D01*
X0131017Y0249471D02*
X0131692Y0250146D01*
X0132575Y0250511D01*
X0134758Y0250511D01*
X0131692Y0253576D01*
X0131017Y0254252D01*
X0130652Y0255134D01*
X0130652Y0271088D01*
X0131017Y0271971D01*
X0131692Y0272646D01*
X0135808Y0276761D01*
X0135666Y0277103D01*
X0131692Y0281076D01*
X0131017Y0281752D01*
X0130652Y0282634D01*
X0130652Y0294796D01*
X0110149Y0315300D01*
X0109716Y0315121D01*
X0107727Y0315121D01*
X0107678Y0315141D01*
X0107841Y0314978D01*
X0108340Y0314291D01*
X0108726Y0313533D01*
X0108989Y0312725D01*
X0109122Y0311885D01*
X0109122Y0311035D01*
X0108989Y0310196D01*
X0108726Y0309388D01*
X0108490Y0308924D01*
X0103978Y0311529D01*
X0103790Y0311204D01*
X0108313Y0308593D01*
X0107841Y0307943D01*
X0107240Y0307341D01*
X0106552Y0306842D01*
X0105795Y0306456D01*
X0104986Y0306193D01*
X0104147Y0306060D01*
X0103297Y0306060D01*
X0102457Y0306193D01*
X0102372Y0306221D01*
X0102961Y0305632D01*
X0103140Y0305200D01*
X0103840Y0305200D01*
X0104722Y0304835D01*
X0119411Y0290146D01*
X0120087Y0289471D01*
X0120452Y0288588D01*
X0120452Y0226605D01*
X0134046Y0213011D01*
X0162058Y0213011D01*
X0164912Y0215865D01*
X0164912Y0225458D01*
X0164256Y0225458D01*
X0163553Y0226161D01*
X0163553Y0233061D01*
X0163661Y0233169D01*
X0163547Y0233122D01*
X0163109Y0233122D01*
X0161298Y0231311D01*
X0158798Y0228811D01*
X0147306Y0228811D01*
X0146252Y0229865D01*
X0146252Y0231458D01*
X0143756Y0231458D01*
X0143053Y0232161D01*
X0143053Y0233211D01*
X0141262Y0233211D01*
X0141047Y0233122D01*
X0140551Y0233122D01*
X0140551Y0232161D01*
X0139848Y0231458D01*
X0133736Y0231458D01*
X0133052Y0232142D01*
X0132368Y0231458D01*
X0131712Y0231458D01*
X0131712Y0227845D01*
X0139046Y0220511D01*
X0158529Y0220511D01*
X0159411Y0220146D01*
X0161747Y0217810D01*
X0161962Y0217721D01*
X0162662Y0217021D01*
X0163041Y0216106D01*
X0163041Y0215116D01*
X0162662Y0214201D01*
X0161962Y0213501D01*
X0161047Y0213122D01*
X0160057Y0213122D01*
X0159142Y0213501D01*
X0158442Y0214201D01*
X0158353Y0214416D01*
X0157058Y0215711D01*
X0137575Y0215711D01*
X0136692Y0216076D01*
X0136017Y0216752D01*
X0127277Y0225492D01*
X0126912Y0226374D01*
X0126912Y0231458D01*
X0126256Y0231458D01*
X0125553Y0232161D01*
X0125553Y0239061D01*
X0126256Y0239764D01*
X0126912Y0239764D01*
X0126912Y0244848D01*
X0127277Y0245730D01*
X0127952Y0246405D01*
X0127952Y0246405D01*
X0131017Y0249470D01*
X0131017Y0249471D01*
X0130765Y0249218D02*
X0120452Y0249218D01*
X0120452Y0250416D02*
X0132346Y0250416D01*
X0133654Y0251615D02*
X0120452Y0251615D01*
X0120452Y0252813D02*
X0132456Y0252813D01*
X0131257Y0254012D02*
X0120452Y0254012D01*
X0120452Y0255210D02*
X0130652Y0255210D01*
X0130652Y0256409D02*
X0120452Y0256409D01*
X0120452Y0257607D02*
X0130652Y0257607D01*
X0130652Y0258806D02*
X0120452Y0258806D01*
X0120452Y0260004D02*
X0130652Y0260004D01*
X0130652Y0261203D02*
X0120452Y0261203D01*
X0120452Y0262401D02*
X0130652Y0262401D01*
X0130652Y0263600D02*
X0120452Y0263600D01*
X0120452Y0264798D02*
X0130652Y0264798D01*
X0130652Y0265997D02*
X0120452Y0265997D01*
X0120452Y0267195D02*
X0130652Y0267195D01*
X0130652Y0268394D02*
X0120452Y0268394D01*
X0120452Y0269592D02*
X0130652Y0269592D01*
X0130652Y0270791D02*
X0120452Y0270791D01*
X0120452Y0271989D02*
X0131036Y0271989D01*
X0132235Y0273188D02*
X0120452Y0273188D01*
X0120452Y0274386D02*
X0133433Y0274386D01*
X0134632Y0275585D02*
X0120452Y0275585D01*
X0120452Y0276784D02*
X0135798Y0276784D01*
X0134787Y0277982D02*
X0120452Y0277982D01*
X0120452Y0279181D02*
X0133588Y0279181D01*
X0132390Y0280379D02*
X0120452Y0280379D01*
X0120452Y0281578D02*
X0131191Y0281578D01*
X0130652Y0282776D02*
X0120452Y0282776D01*
X0120452Y0283975D02*
X0130652Y0283975D01*
X0130652Y0285173D02*
X0120452Y0285173D01*
X0120452Y0286372D02*
X0130652Y0286372D01*
X0130652Y0287570D02*
X0120452Y0287570D01*
X0120377Y0288769D02*
X0130652Y0288769D01*
X0130652Y0289967D02*
X0119590Y0289967D01*
X0118391Y0291166D02*
X0130652Y0291166D01*
X0130652Y0292364D02*
X0117193Y0292364D01*
X0115994Y0293563D02*
X0130652Y0293563D01*
X0130652Y0294761D02*
X0114796Y0294761D01*
X0113597Y0295960D02*
X0129489Y0295960D01*
X0128290Y0297158D02*
X0112399Y0297158D01*
X0111200Y0298357D02*
X0127092Y0298357D01*
X0125893Y0299555D02*
X0110002Y0299555D01*
X0108803Y0300754D02*
X0124695Y0300754D01*
X0123496Y0301952D02*
X0107605Y0301952D01*
X0106406Y0303151D02*
X0122298Y0303151D01*
X0121099Y0304349D02*
X0105208Y0304349D01*
X0102996Y0305548D02*
X0119901Y0305548D01*
X0118702Y0306746D02*
X0106364Y0306746D01*
X0107842Y0307945D02*
X0117504Y0307945D01*
X0116305Y0309143D02*
X0108602Y0309143D01*
X0108110Y0309143D02*
X0107360Y0309143D01*
X0106034Y0310342D02*
X0105284Y0310342D01*
X0103722Y0311460D02*
X0100552Y0314630D01*
X0100552Y0320611D01*
X0105552Y0325611D01*
X0108052Y0325611D01*
X0108052Y0330611D01*
X0110307Y0332866D01*
X0110427Y0333075D01*
X0110548Y0333107D01*
X0113052Y0335611D01*
X0115552Y0335611D01*
X0145552Y0305611D01*
X0145552Y0293111D01*
X0145652Y0293011D01*
X0145652Y0286081D01*
X0145969Y0286372D02*
X0145135Y0286372D01*
X0145452Y0287570D02*
X0145652Y0287570D01*
X0145652Y0288769D02*
X0145452Y0288769D01*
X0145087Y0289967D02*
X0146017Y0289967D01*
X0146677Y0291166D02*
X0144427Y0291166D01*
X0143088Y0292364D02*
X0148016Y0292364D01*
X0153088Y0292364D02*
X0158016Y0292364D01*
X0157776Y0292265D02*
X0156398Y0290887D01*
X0155652Y0289086D01*
X0155652Y0287136D01*
X0156398Y0285335D01*
X0157776Y0283957D01*
X0159577Y0283211D01*
X0161527Y0283211D01*
X0163328Y0283957D01*
X0164706Y0285335D01*
X0165452Y0287136D01*
X0165452Y0289086D01*
X0164706Y0290887D01*
X0163328Y0292265D01*
X0161527Y0293011D01*
X0159577Y0293011D01*
X0157776Y0292265D01*
X0156677Y0291166D02*
X0154427Y0291166D01*
X0155087Y0289967D02*
X0156017Y0289967D01*
X0155652Y0288769D02*
X0155452Y0288769D01*
X0155452Y0287570D02*
X0155652Y0287570D01*
X0155969Y0286372D02*
X0155135Y0286372D01*
X0154544Y0285173D02*
X0156560Y0285173D01*
X0157759Y0283975D02*
X0153345Y0283975D01*
X0153071Y0282776D02*
X0159010Y0282776D01*
X0157089Y0281578D02*
X0154581Y0281578D01*
X0155345Y0280379D02*
X0156188Y0280379D01*
X0155798Y0276784D02*
X0155693Y0276784D01*
X0155213Y0275585D02*
X0156295Y0275585D01*
X0157347Y0274386D02*
X0154323Y0274386D01*
X0152552Y0273188D02*
X0162929Y0273188D01*
X0163752Y0271989D02*
X0137825Y0271989D01*
X0139023Y0273188D02*
X0148552Y0273188D01*
X0150152Y0273188D02*
X0150952Y0273188D01*
X0150952Y0274386D02*
X0150152Y0274386D01*
X0150152Y0275585D02*
X0150952Y0275585D01*
X0150952Y0276784D02*
X0150152Y0276784D01*
X0146781Y0274386D02*
X0143757Y0274386D01*
X0144809Y0275585D02*
X0145891Y0275585D01*
X0145411Y0276784D02*
X0145306Y0276784D01*
X0144916Y0280379D02*
X0145759Y0280379D01*
X0146523Y0281578D02*
X0144015Y0281578D01*
X0136626Y0270791D02*
X0163752Y0270791D01*
X0163752Y0269592D02*
X0135452Y0269592D01*
X0135452Y0268394D02*
X0163752Y0268394D01*
X0163752Y0267195D02*
X0135452Y0267195D01*
X0135452Y0265997D02*
X0163752Y0265997D01*
X0163752Y0264798D02*
X0135452Y0264798D01*
X0135452Y0263600D02*
X0163752Y0263600D01*
X0163752Y0262401D02*
X0162998Y0262401D01*
X0167352Y0262401D02*
X0168106Y0262401D01*
X0167352Y0263600D02*
X0173752Y0263600D01*
X0173752Y0264798D02*
X0167352Y0264798D01*
X0167352Y0265997D02*
X0173752Y0265997D01*
X0173752Y0267195D02*
X0167352Y0267195D01*
X0167352Y0268394D02*
X0173752Y0268394D01*
X0173752Y0269592D02*
X0167352Y0269592D01*
X0167352Y0270791D02*
X0173752Y0270791D01*
X0173752Y0271989D02*
X0167352Y0271989D01*
X0167352Y0273188D02*
X0172929Y0273188D01*
X0175552Y0273111D02*
X0170552Y0278111D01*
X0167089Y0281578D02*
X0164015Y0281578D01*
X0164916Y0280379D02*
X0166188Y0280379D01*
X0165691Y0279181D02*
X0165413Y0279181D01*
X0165452Y0277982D02*
X0165652Y0277982D01*
X0165798Y0276784D02*
X0165306Y0276784D01*
X0165624Y0275585D02*
X0166295Y0275585D01*
X0166822Y0274386D02*
X0167347Y0274386D01*
X0165552Y0273111D02*
X0165552Y0253111D01*
X0160552Y0248111D01*
X0160552Y0245611D01*
X0165552Y0240611D01*
X0193052Y0240611D01*
X0195340Y0239630D02*
X0214935Y0239630D01*
X0214935Y0240828D02*
X0195541Y0240828D01*
X0195156Y0242027D02*
X0214935Y0242027D01*
X0214935Y0243225D02*
X0181561Y0243225D01*
X0179543Y0243225D02*
X0171561Y0243225D01*
X0169543Y0243225D02*
X0165483Y0243225D01*
X0164285Y0244424D02*
X0167310Y0244424D01*
X0166279Y0245622D02*
X0164825Y0245622D01*
X0165321Y0246821D02*
X0165783Y0246821D01*
X0165652Y0248019D02*
X0165452Y0248019D01*
X0165397Y0249218D02*
X0165707Y0249218D01*
X0165403Y0250416D02*
X0166203Y0250416D01*
X0166601Y0251615D02*
X0167126Y0251615D01*
X0167352Y0252813D02*
X0169100Y0252813D01*
X0167722Y0254012D02*
X0167352Y0254012D01*
X0163752Y0254012D02*
X0163382Y0254012D01*
X0162709Y0252813D02*
X0162004Y0252813D01*
X0156203Y0250416D02*
X0155326Y0250416D01*
X0155705Y0246821D02*
X0155783Y0246821D01*
X0156279Y0245622D02*
X0155232Y0245622D01*
X0154360Y0244424D02*
X0157310Y0244424D01*
X0159543Y0243225D02*
X0152637Y0243225D01*
X0150952Y0243225D02*
X0150152Y0243225D01*
X0150152Y0244424D02*
X0150952Y0244424D01*
X0150952Y0245622D02*
X0150152Y0245622D01*
X0150152Y0246821D02*
X0150952Y0246821D01*
X0150536Y0239630D02*
X0150002Y0239630D01*
X0146812Y0235611D02*
X0148052Y0234371D01*
X0148052Y0230611D01*
X0158052Y0230611D01*
X0160552Y0233111D01*
X0163052Y0235611D01*
X0165425Y0234836D02*
X0214935Y0234836D01*
X0214935Y0236034D02*
X0165541Y0236034D01*
X0164950Y0237233D02*
X0214935Y0237233D01*
X0214935Y0238431D02*
X0194293Y0238431D01*
X0191811Y0238431D02*
X0158451Y0238431D01*
X0158451Y0238774D02*
X0158342Y0239181D01*
X0158131Y0239546D01*
X0157834Y0239844D01*
X0157469Y0240055D01*
X0157062Y0240164D01*
X0154892Y0240164D01*
X0154892Y0236211D01*
X0158451Y0236211D01*
X0158451Y0238774D01*
X0158052Y0238111D02*
X0188052Y0238111D01*
X0193052Y0233111D01*
X0195552Y0235611D01*
X0195062Y0234164D02*
X0192892Y0234164D01*
X0192892Y0230211D01*
X0196451Y0230211D01*
X0196451Y0232774D01*
X0196342Y0233181D01*
X0196131Y0233546D01*
X0195834Y0233844D01*
X0195469Y0234055D01*
X0195062Y0234164D01*
X0196041Y0233637D02*
X0214935Y0233637D01*
X0214935Y0232439D02*
X0196451Y0232439D01*
X0196451Y0231240D02*
X0214935Y0231240D01*
X0214935Y0230042D02*
X0192892Y0230042D01*
X0192292Y0229611D02*
X0192292Y0194851D01*
X0173052Y0175611D01*
X0173976Y0183300D02*
X0214935Y0183300D01*
X0214935Y0184498D02*
X0175285Y0184498D01*
X0175541Y0185697D02*
X0214935Y0185697D01*
X0214935Y0186895D02*
X0175214Y0186895D01*
X0173052Y0185611D02*
X0163052Y0185611D01*
X0162052Y0184611D01*
X0150792Y0184611D01*
X0147292Y0180903D02*
X0147282Y0180903D01*
X0143912Y0180903D02*
X0142712Y0180903D01*
X0142712Y0180058D02*
X0142712Y0184011D01*
X0139153Y0184011D01*
X0139153Y0181448D01*
X0139262Y0181041D01*
X0139472Y0180676D01*
X0139770Y0180378D01*
X0140135Y0180167D01*
X0140542Y0180058D01*
X0142712Y0180058D01*
X0142712Y0182101D02*
X0143912Y0182101D01*
X0143912Y0183300D02*
X0142712Y0183300D01*
X0142712Y0184498D02*
X0103858Y0184498D01*
X0103589Y0183300D02*
X0139153Y0183300D01*
X0139153Y0182101D02*
X0103319Y0182101D01*
X0103050Y0180903D02*
X0109390Y0180903D01*
X0108180Y0180402D02*
X0105761Y0177983D01*
X0104452Y0174822D01*
X0104452Y0171400D01*
X0105761Y0168240D01*
X0108180Y0165820D01*
X0111341Y0164511D01*
X0114763Y0164511D01*
X0117923Y0165820D01*
X0120343Y0168240D01*
X0121652Y0171400D01*
X0121652Y0174822D01*
X0120343Y0177983D01*
X0117923Y0180402D01*
X0114763Y0181711D01*
X0111341Y0181711D01*
X0108180Y0180402D01*
X0107483Y0179704D02*
X0102780Y0179704D01*
X0102511Y0178506D02*
X0106284Y0178506D01*
X0105481Y0177307D02*
X0102242Y0177307D01*
X0101879Y0176109D02*
X0104985Y0176109D01*
X0104489Y0174910D02*
X0101466Y0174910D01*
X0101053Y0173712D02*
X0104452Y0173712D01*
X0104452Y0172513D02*
X0100640Y0172513D01*
X0100228Y0171315D02*
X0104488Y0171315D01*
X0104984Y0170116D02*
X0099815Y0170116D01*
X0099402Y0168917D02*
X0105480Y0168917D01*
X0106282Y0167719D02*
X0098990Y0167719D01*
X0098577Y0166520D02*
X0107480Y0166520D01*
X0109384Y0165322D02*
X0098164Y0165322D01*
X0097737Y0164123D02*
X0161252Y0164123D01*
X0161252Y0162925D02*
X0097170Y0162925D01*
X0096603Y0161726D02*
X0161252Y0161726D01*
X0161252Y0160528D02*
X0096035Y0160528D01*
X0095468Y0159329D02*
X0142436Y0159329D01*
X0143668Y0159329D02*
X0161252Y0159329D01*
X0161252Y0158131D02*
X0145232Y0158131D01*
X0145541Y0156932D02*
X0161252Y0156932D01*
X0161252Y0155734D02*
X0145267Y0155734D01*
X0144852Y0154535D02*
X0161252Y0154535D01*
X0161252Y0153337D02*
X0144852Y0153337D01*
X0144852Y0152138D02*
X0161252Y0152138D01*
X0161252Y0150940D02*
X0144852Y0150940D01*
X0144852Y0149741D02*
X0161252Y0149741D01*
X0161252Y0148543D02*
X0144852Y0148543D01*
X0144852Y0147344D02*
X0161252Y0147344D01*
X0161252Y0146146D02*
X0144852Y0146146D01*
X0144852Y0144947D02*
X0161252Y0144947D01*
X0160553Y0143749D02*
X0155551Y0143749D01*
X0155551Y0142550D02*
X0160553Y0142550D01*
X0163052Y0140611D02*
X0163052Y0185611D01*
X0163052Y0210611D01*
X0165502Y0209667D02*
X0180749Y0209667D01*
X0180563Y0210865D02*
X0166700Y0210865D01*
X0167899Y0212064D02*
X0180985Y0212064D01*
X0181252Y0213262D02*
X0169097Y0213262D01*
X0169712Y0214461D02*
X0181252Y0214461D01*
X0181252Y0215659D02*
X0169712Y0215659D01*
X0169712Y0216858D02*
X0181252Y0216858D01*
X0181252Y0218056D02*
X0169712Y0218056D01*
X0169712Y0219255D02*
X0181252Y0219255D01*
X0181252Y0220453D02*
X0169712Y0220453D01*
X0169712Y0221652D02*
X0181252Y0221652D01*
X0181252Y0222851D02*
X0169712Y0222851D01*
X0169712Y0224049D02*
X0181252Y0224049D01*
X0181252Y0225248D02*
X0169712Y0225248D01*
X0164912Y0225248D02*
X0134310Y0225248D01*
X0133111Y0226446D02*
X0163553Y0226446D01*
X0163553Y0227645D02*
X0131913Y0227645D01*
X0131712Y0228843D02*
X0147274Y0228843D01*
X0146252Y0230042D02*
X0131712Y0230042D01*
X0131712Y0231240D02*
X0146252Y0231240D01*
X0143053Y0232439D02*
X0140551Y0232439D01*
X0140551Y0238431D02*
X0143053Y0238431D01*
X0143622Y0239630D02*
X0139982Y0239630D01*
X0135508Y0224049D02*
X0164912Y0224049D01*
X0164912Y0222851D02*
X0136707Y0222851D01*
X0137905Y0221652D02*
X0164912Y0221652D01*
X0164912Y0220453D02*
X0158668Y0220453D01*
X0160302Y0219255D02*
X0164912Y0219255D01*
X0164912Y0218056D02*
X0161501Y0218056D01*
X0162730Y0216858D02*
X0164912Y0216858D01*
X0164706Y0215659D02*
X0163041Y0215659D01*
X0162770Y0214461D02*
X0163508Y0214461D01*
X0162309Y0213262D02*
X0161386Y0213262D01*
X0159718Y0213262D02*
X0133795Y0213262D01*
X0132596Y0214461D02*
X0158308Y0214461D01*
X0157109Y0215659D02*
X0131398Y0215659D01*
X0130199Y0216858D02*
X0135911Y0216858D01*
X0134712Y0218056D02*
X0129001Y0218056D01*
X0127802Y0219255D02*
X0133514Y0219255D01*
X0132315Y0220453D02*
X0126604Y0220453D01*
X0125405Y0221652D02*
X0131117Y0221652D01*
X0129918Y0222851D02*
X0124207Y0222851D01*
X0123008Y0224049D02*
X0128720Y0224049D01*
X0127521Y0225248D02*
X0121810Y0225248D01*
X0120611Y0226446D02*
X0126912Y0226446D01*
X0126912Y0227645D02*
X0120452Y0227645D01*
X0120452Y0228843D02*
X0126912Y0228843D01*
X0126912Y0230042D02*
X0120452Y0230042D01*
X0120452Y0231240D02*
X0126912Y0231240D01*
X0125553Y0232439D02*
X0120452Y0232439D01*
X0120452Y0233637D02*
X0125553Y0233637D01*
X0125553Y0234836D02*
X0120452Y0234836D01*
X0120452Y0236034D02*
X0125553Y0236034D01*
X0125553Y0237233D02*
X0120452Y0237233D01*
X0120452Y0238431D02*
X0125553Y0238431D01*
X0126122Y0239630D02*
X0120452Y0239630D01*
X0120452Y0240828D02*
X0126912Y0240828D01*
X0126912Y0242027D02*
X0120452Y0242027D01*
X0120452Y0243225D02*
X0126912Y0243225D01*
X0126912Y0244424D02*
X0120452Y0244424D01*
X0120452Y0245622D02*
X0127232Y0245622D01*
X0128368Y0246821D02*
X0120452Y0246821D01*
X0120452Y0248019D02*
X0129566Y0248019D01*
X0135648Y0256409D02*
X0135953Y0256409D01*
X0135652Y0257607D02*
X0135452Y0257607D01*
X0135452Y0258806D02*
X0135652Y0258806D01*
X0135452Y0260004D02*
X0136032Y0260004D01*
X0135452Y0261203D02*
X0136714Y0261203D01*
X0135452Y0262401D02*
X0138106Y0262401D01*
X0153692Y0239630D02*
X0154892Y0239630D01*
X0154892Y0238431D02*
X0153692Y0238431D01*
X0153692Y0237233D02*
X0154892Y0237233D01*
X0154892Y0236034D02*
X0160563Y0236034D01*
X0161154Y0237233D02*
X0158451Y0237233D01*
X0158052Y0238111D02*
X0155552Y0235611D01*
X0154292Y0235611D01*
X0158451Y0234836D02*
X0159731Y0234836D01*
X0158532Y0233637D02*
X0158451Y0233637D01*
X0161227Y0231240D02*
X0163553Y0231240D01*
X0163553Y0230042D02*
X0160028Y0230042D01*
X0158830Y0228843D02*
X0163553Y0228843D01*
X0163553Y0232439D02*
X0162425Y0232439D01*
X0163988Y0239630D02*
X0158048Y0239630D01*
X0170495Y0233637D02*
X0171609Y0233637D01*
X0174792Y0229611D02*
X0184812Y0229611D01*
X0183052Y0227851D01*
X0183052Y0210611D01*
X0185355Y0209667D02*
X0214935Y0209667D01*
X0214935Y0210865D02*
X0185541Y0210865D01*
X0185119Y0212064D02*
X0214935Y0212064D01*
X0214935Y0213262D02*
X0184852Y0213262D01*
X0184852Y0214461D02*
X0214935Y0214461D01*
X0214935Y0215659D02*
X0184852Y0215659D01*
X0184852Y0216858D02*
X0214935Y0216858D01*
X0214935Y0218056D02*
X0184852Y0218056D01*
X0184852Y0219255D02*
X0214935Y0219255D01*
X0214935Y0220453D02*
X0184852Y0220453D01*
X0184852Y0221652D02*
X0214935Y0221652D01*
X0214935Y0222851D02*
X0184852Y0222851D01*
X0184852Y0224049D02*
X0214935Y0224049D01*
X0214935Y0225248D02*
X0195608Y0225248D01*
X0196451Y0226446D02*
X0214935Y0226446D01*
X0214935Y0227645D02*
X0196451Y0227645D01*
X0196451Y0228843D02*
X0214935Y0228843D01*
X0214935Y0244424D02*
X0183794Y0244424D01*
X0184825Y0245622D02*
X0214935Y0245622D01*
X0214935Y0246821D02*
X0185321Y0246821D01*
X0185452Y0248019D02*
X0214935Y0248019D01*
X0214935Y0249218D02*
X0185397Y0249218D01*
X0185403Y0250416D02*
X0214935Y0250416D01*
X0214935Y0251615D02*
X0186601Y0251615D01*
X0187352Y0252813D02*
X0214935Y0252813D01*
X0214935Y0254012D02*
X0187352Y0254012D01*
X0187352Y0255210D02*
X0214935Y0255210D01*
X0214935Y0256409D02*
X0187352Y0256409D01*
X0187352Y0257607D02*
X0214935Y0257607D01*
X0214935Y0258806D02*
X0187352Y0258806D01*
X0187352Y0260004D02*
X0214935Y0260004D01*
X0214935Y0261203D02*
X0187352Y0261203D01*
X0187352Y0262401D02*
X0214935Y0262401D01*
X0214935Y0263600D02*
X0187352Y0263600D01*
X0187352Y0264798D02*
X0214935Y0264798D01*
X0214935Y0265997D02*
X0187352Y0265997D01*
X0187352Y0267195D02*
X0214935Y0267195D01*
X0214935Y0268394D02*
X0187352Y0268394D01*
X0187352Y0269592D02*
X0214935Y0269592D01*
X0214935Y0270791D02*
X0187352Y0270791D01*
X0187352Y0271989D02*
X0214935Y0271989D01*
X0214935Y0273188D02*
X0187352Y0273188D01*
X0186822Y0274386D02*
X0214935Y0274386D01*
X0214935Y0275585D02*
X0207355Y0275585D01*
X0207923Y0275820D02*
X0210343Y0278240D01*
X0211652Y0281400D01*
X0211652Y0284822D01*
X0210343Y0287983D01*
X0207923Y0290402D01*
X0204763Y0291711D01*
X0201341Y0291711D01*
X0198180Y0290402D01*
X0195761Y0287983D01*
X0194452Y0284822D01*
X0194452Y0281400D01*
X0195761Y0278240D01*
X0198180Y0275820D01*
X0201341Y0274511D01*
X0204763Y0274511D01*
X0207923Y0275820D01*
X0208887Y0276784D02*
X0214935Y0276784D01*
X0214935Y0277982D02*
X0210085Y0277982D01*
X0210732Y0279181D02*
X0214935Y0279181D01*
X0214935Y0280379D02*
X0211229Y0280379D01*
X0211652Y0281578D02*
X0214935Y0281578D01*
X0214935Y0282776D02*
X0211652Y0282776D01*
X0211652Y0283975D02*
X0214935Y0283975D01*
X0214935Y0285173D02*
X0211506Y0285173D01*
X0211010Y0286372D02*
X0214935Y0286372D01*
X0214935Y0287570D02*
X0210514Y0287570D01*
X0209557Y0288769D02*
X0214935Y0288769D01*
X0214935Y0289967D02*
X0208358Y0289967D01*
X0206079Y0291166D02*
X0214935Y0291166D01*
X0214935Y0292364D02*
X0183088Y0292364D01*
X0183328Y0292265D02*
X0181527Y0293011D01*
X0179577Y0293011D01*
X0177776Y0292265D01*
X0176398Y0290887D01*
X0175652Y0289086D01*
X0175652Y0287136D01*
X0176398Y0285335D01*
X0177776Y0283957D01*
X0179577Y0283211D01*
X0181527Y0283211D01*
X0183328Y0283957D01*
X0184706Y0285335D01*
X0185452Y0287136D01*
X0185452Y0289086D01*
X0184706Y0290887D01*
X0183328Y0292265D01*
X0184427Y0291166D02*
X0200025Y0291166D01*
X0197746Y0289967D02*
X0185087Y0289967D01*
X0185452Y0288769D02*
X0196547Y0288769D01*
X0195590Y0287570D02*
X0185452Y0287570D01*
X0185135Y0286372D02*
X0195094Y0286372D01*
X0194598Y0285173D02*
X0184544Y0285173D01*
X0183345Y0283975D02*
X0194452Y0283975D01*
X0194452Y0282776D02*
X0182094Y0282776D01*
X0184015Y0281578D02*
X0194452Y0281578D01*
X0194875Y0280379D02*
X0184916Y0280379D01*
X0185413Y0279181D02*
X0195371Y0279181D01*
X0196019Y0277982D02*
X0185452Y0277982D01*
X0185306Y0276784D02*
X0197217Y0276784D01*
X0198748Y0275585D02*
X0185624Y0275585D01*
X0185552Y0273111D02*
X0185552Y0253111D01*
X0180552Y0248111D01*
X0177126Y0251615D02*
X0176601Y0251615D01*
X0176203Y0250416D02*
X0175403Y0250416D01*
X0175397Y0249218D02*
X0175707Y0249218D01*
X0175652Y0248019D02*
X0175452Y0248019D01*
X0175321Y0246821D02*
X0175783Y0246821D01*
X0176279Y0245622D02*
X0174825Y0245622D01*
X0173794Y0244424D02*
X0177310Y0244424D01*
X0177975Y0233637D02*
X0181629Y0233637D01*
X0181053Y0232439D02*
X0178551Y0232439D01*
X0178551Y0227645D02*
X0181053Y0227645D01*
X0181053Y0226446D02*
X0178551Y0226446D01*
X0184852Y0225248D02*
X0188977Y0225248D01*
X0191692Y0225248D02*
X0192892Y0225248D01*
X0192892Y0226446D02*
X0191692Y0226446D01*
X0191692Y0227645D02*
X0192892Y0227645D01*
X0192892Y0228843D02*
X0191692Y0228843D01*
X0192292Y0229611D02*
X0192292Y0232351D01*
X0193052Y0233111D01*
X0192892Y0233637D02*
X0191692Y0233637D01*
X0191692Y0232439D02*
X0192892Y0232439D01*
X0192892Y0231240D02*
X0191692Y0231240D01*
X0188544Y0233637D02*
X0187995Y0233637D01*
X0182709Y0252813D02*
X0182004Y0252813D01*
X0183382Y0254012D02*
X0183752Y0254012D01*
X0179100Y0252813D02*
X0177352Y0252813D01*
X0177352Y0254012D02*
X0177722Y0254012D01*
X0175552Y0253111D02*
X0170552Y0248111D01*
X0172004Y0252813D02*
X0172709Y0252813D01*
X0173382Y0254012D02*
X0173752Y0254012D01*
X0175552Y0253111D02*
X0175552Y0273111D01*
X0176822Y0274386D02*
X0177347Y0274386D01*
X0177352Y0273188D02*
X0182929Y0273188D01*
X0183752Y0271989D02*
X0177352Y0271989D01*
X0177352Y0270791D02*
X0183752Y0270791D01*
X0183752Y0269592D02*
X0177352Y0269592D01*
X0177352Y0268394D02*
X0183752Y0268394D01*
X0183752Y0267195D02*
X0177352Y0267195D01*
X0177352Y0265997D02*
X0183752Y0265997D01*
X0183752Y0264798D02*
X0177352Y0264798D01*
X0177352Y0263600D02*
X0183752Y0263600D01*
X0183752Y0262401D02*
X0182998Y0262401D01*
X0178106Y0262401D02*
X0177352Y0262401D01*
X0173752Y0262401D02*
X0172998Y0262401D01*
X0165552Y0273111D02*
X0160552Y0278111D01*
X0162094Y0282776D02*
X0169010Y0282776D01*
X0169577Y0283211D02*
X0171527Y0283211D01*
X0173328Y0283957D01*
X0174706Y0285335D01*
X0175452Y0287136D01*
X0175452Y0289086D01*
X0174706Y0290887D01*
X0173328Y0292265D01*
X0171527Y0293011D01*
X0169577Y0293011D01*
X0167776Y0292265D01*
X0166398Y0290887D01*
X0165652Y0289086D01*
X0165652Y0287136D01*
X0166398Y0285335D01*
X0167776Y0283957D01*
X0169577Y0283211D01*
X0167759Y0283975D02*
X0163345Y0283975D01*
X0164544Y0285173D02*
X0166560Y0285173D01*
X0165969Y0286372D02*
X0165135Y0286372D01*
X0165452Y0287570D02*
X0165652Y0287570D01*
X0165652Y0288769D02*
X0165452Y0288769D01*
X0165087Y0289967D02*
X0166017Y0289967D01*
X0166677Y0291166D02*
X0164427Y0291166D01*
X0163088Y0292364D02*
X0168016Y0292364D01*
X0173088Y0292364D02*
X0178016Y0292364D01*
X0176677Y0291166D02*
X0174427Y0291166D01*
X0175087Y0289967D02*
X0176017Y0289967D01*
X0175652Y0288769D02*
X0175452Y0288769D01*
X0175452Y0287570D02*
X0175652Y0287570D01*
X0175969Y0286372D02*
X0175135Y0286372D01*
X0174544Y0285173D02*
X0176560Y0285173D01*
X0177759Y0283975D02*
X0173345Y0283975D01*
X0172094Y0282776D02*
X0179010Y0282776D01*
X0177089Y0281578D02*
X0174015Y0281578D01*
X0174916Y0280379D02*
X0176188Y0280379D01*
X0175691Y0279181D02*
X0175413Y0279181D01*
X0175452Y0277982D02*
X0175652Y0277982D01*
X0175798Y0276784D02*
X0175306Y0276784D01*
X0175624Y0275585D02*
X0176295Y0275585D01*
X0180552Y0278111D02*
X0185552Y0273111D01*
X0203752Y0324724D02*
X0116736Y0324724D01*
X0117934Y0325922D02*
X0202881Y0325922D01*
X0201855Y0327121D02*
X0118446Y0327121D01*
X0118722Y0328320D02*
X0200656Y0328320D01*
X0199458Y0329518D02*
X0118722Y0329518D01*
X0118332Y0330717D02*
X0198259Y0330717D01*
X0197061Y0331915D02*
X0117659Y0331915D01*
X0116327Y0333114D02*
X0195573Y0333114D01*
X0193924Y0334312D02*
X0101512Y0334312D01*
X0102266Y0335511D02*
X0192274Y0335511D01*
X0190624Y0336709D02*
X0103021Y0336709D01*
X0103776Y0337908D02*
X0188538Y0337908D01*
X0186185Y0339106D02*
X0104530Y0339106D01*
X0105285Y0340305D02*
X0183833Y0340305D01*
X0180788Y0341503D02*
X0106040Y0341503D01*
X0106794Y0342702D02*
X0177100Y0342702D01*
X0171837Y0343900D02*
X0107549Y0343900D01*
X0108303Y0345099D02*
X0124970Y0345099D01*
X0123479Y0346297D02*
X0109058Y0346297D01*
X0109813Y0347496D02*
X0122257Y0347496D01*
X0121035Y0348694D02*
X0110567Y0348694D01*
X0111322Y0349893D02*
X0119813Y0349893D01*
X0118592Y0351091D02*
X0112077Y0351091D01*
X0112831Y0352290D02*
X0117219Y0352290D01*
X0115842Y0353488D02*
X0113586Y0353488D01*
X0114340Y0354687D02*
X0114465Y0354687D01*
X0111116Y0333114D02*
X0100757Y0333114D01*
X0100003Y0331915D02*
X0109785Y0331915D01*
X0109112Y0330717D02*
X0099248Y0330717D01*
X0098493Y0329518D02*
X0108722Y0329518D01*
X0108722Y0328320D02*
X0097739Y0328320D01*
X0096984Y0327121D02*
X0108997Y0327121D01*
X0109509Y0325922D02*
X0096230Y0325922D01*
X0095475Y0324724D02*
X0106770Y0324724D01*
X0105056Y0323525D02*
X0094720Y0323525D01*
X0093966Y0322327D02*
X0104224Y0322327D01*
X0103727Y0321128D02*
X0093211Y0321128D01*
X0092456Y0319930D02*
X0103722Y0319930D01*
X0103885Y0318731D02*
X0091702Y0318731D01*
X0090947Y0317533D02*
X0104382Y0317533D01*
X0101393Y0316334D02*
X0090193Y0316334D01*
X0089438Y0315136D02*
X0099761Y0315136D01*
X0099806Y0313937D02*
X0099057Y0313937D01*
X0098923Y0313937D02*
X0088683Y0313937D01*
X0087929Y0312739D02*
X0098459Y0312739D01*
X0098322Y0311540D02*
X0087174Y0311540D01*
X0086420Y0310342D02*
X0098432Y0310342D01*
X0098842Y0309143D02*
X0085665Y0309143D01*
X0084910Y0307945D02*
X0099601Y0307945D01*
X0095597Y0306746D02*
X0084156Y0306746D01*
X0083401Y0305548D02*
X0094448Y0305548D01*
X0093952Y0304349D02*
X0082646Y0304349D01*
X0081892Y0303151D02*
X0093722Y0303151D01*
X0093722Y0301952D02*
X0081137Y0301952D01*
X0080383Y0300754D02*
X0094158Y0300754D01*
X0094896Y0299555D02*
X0079628Y0299555D01*
X0078873Y0298357D02*
X0096384Y0298357D01*
X0101060Y0298357D02*
X0104412Y0298357D01*
X0103214Y0299555D02*
X0102548Y0299555D01*
X0105611Y0297158D02*
X0078119Y0297158D01*
X0077364Y0295960D02*
X0106809Y0295960D01*
X0108008Y0294761D02*
X0076609Y0294761D01*
X0075855Y0293563D02*
X0109206Y0293563D01*
X0110405Y0292364D02*
X0075100Y0292364D01*
X0075393Y0291166D02*
X0092525Y0291166D01*
X0093841Y0291711D02*
X0090680Y0290402D01*
X0088261Y0287983D01*
X0086952Y0284822D01*
X0086952Y0281400D01*
X0088261Y0278240D01*
X0090680Y0275820D01*
X0093841Y0274511D01*
X0097263Y0274511D01*
X0100423Y0275820D01*
X0102843Y0278240D01*
X0104152Y0281400D01*
X0104152Y0284822D01*
X0102843Y0287983D01*
X0100423Y0290402D01*
X0097263Y0291711D01*
X0093841Y0291711D01*
X0090246Y0289967D02*
X0076564Y0289967D01*
X0076784Y0289742D02*
X0076784Y0289742D01*
X0077545Y0288769D02*
X0089047Y0288769D01*
X0088090Y0287570D02*
X0078481Y0287570D01*
X0079418Y0286372D02*
X0087594Y0286372D01*
X0087098Y0285173D02*
X0080354Y0285173D01*
X0081291Y0283975D02*
X0086952Y0283975D01*
X0086952Y0282776D02*
X0082227Y0282776D01*
X0083164Y0281578D02*
X0086952Y0281578D01*
X0087375Y0280379D02*
X0084100Y0280379D01*
X0085035Y0279181D02*
X0087871Y0279181D01*
X0088519Y0277982D02*
X0085774Y0277982D01*
X0086514Y0276784D02*
X0089717Y0276784D01*
X0091248Y0275585D02*
X0087253Y0275585D01*
X0087992Y0274386D02*
X0115652Y0274386D01*
X0115652Y0273188D02*
X0088731Y0273188D01*
X0089471Y0271989D02*
X0115652Y0271989D01*
X0115652Y0270791D02*
X0090210Y0270791D01*
X0090949Y0269592D02*
X0115652Y0269592D01*
X0115652Y0268394D02*
X0091689Y0268394D01*
X0092059Y0267794D02*
X0092059Y0267794D01*
X0092342Y0267195D02*
X0115652Y0267195D01*
X0115652Y0265997D02*
X0092910Y0265997D01*
X0093477Y0264798D02*
X0115652Y0264798D01*
X0115652Y0263600D02*
X0094044Y0263600D01*
X0094612Y0262401D02*
X0115652Y0262401D01*
X0115652Y0261203D02*
X0095179Y0261203D01*
X0095747Y0260004D02*
X0115652Y0260004D01*
X0115652Y0258806D02*
X0096314Y0258806D01*
X0096882Y0257607D02*
X0115652Y0257607D01*
X0115652Y0256409D02*
X0097449Y0256409D01*
X0097789Y0255691D02*
X0097789Y0255691D01*
X0097954Y0255210D02*
X0115652Y0255210D01*
X0115652Y0254012D02*
X0098367Y0254012D01*
X0098780Y0252813D02*
X0115652Y0252813D01*
X0115652Y0251615D02*
X0099192Y0251615D01*
X0099605Y0250416D02*
X0115652Y0250416D01*
X0115652Y0249218D02*
X0100018Y0249218D01*
X0100431Y0248019D02*
X0115652Y0248019D01*
X0115652Y0246821D02*
X0100843Y0246821D01*
X0101256Y0245622D02*
X0115652Y0245622D01*
X0115652Y0244424D02*
X0101669Y0244424D01*
X0102081Y0243225D02*
X0115652Y0243225D01*
X0115652Y0242027D02*
X0102374Y0242027D01*
X0102149Y0243030D02*
X0102149Y0243030D01*
X0102643Y0240828D02*
X0115652Y0240828D01*
X0115652Y0239630D02*
X0102913Y0239630D01*
X0103182Y0238431D02*
X0115652Y0238431D01*
X0115652Y0237233D02*
X0103452Y0237233D01*
X0103721Y0236034D02*
X0115652Y0236034D01*
X0115652Y0234836D02*
X0103990Y0234836D01*
X0104260Y0233637D02*
X0115652Y0233637D01*
X0115652Y0232439D02*
X0104529Y0232439D01*
X0104798Y0231240D02*
X0115652Y0231240D01*
X0115652Y0230042D02*
X0105068Y0230042D01*
X0105210Y0228843D02*
X0115652Y0228843D01*
X0115652Y0227645D02*
X0105343Y0227645D01*
X0105476Y0226446D02*
X0115652Y0226446D01*
X0115652Y0225248D02*
X0105609Y0225248D01*
X0105742Y0224049D02*
X0116220Y0224049D01*
X0117418Y0222851D02*
X0105875Y0222851D01*
X0106008Y0221652D02*
X0118617Y0221652D01*
X0119815Y0220453D02*
X0106141Y0220453D01*
X0106274Y0219255D02*
X0121014Y0219255D01*
X0122212Y0218056D02*
X0106407Y0218056D01*
X0106540Y0216858D02*
X0123411Y0216858D01*
X0124609Y0215659D02*
X0106562Y0215659D01*
X0106562Y0214461D02*
X0125808Y0214461D01*
X0127006Y0213262D02*
X0106562Y0213262D01*
X0106562Y0212064D02*
X0128205Y0212064D01*
X0129403Y0210865D02*
X0106562Y0210865D01*
X0106562Y0209667D02*
X0130602Y0209667D01*
X0131953Y0208468D02*
X0106562Y0208468D01*
X0106562Y0207270D02*
X0161252Y0207270D01*
X0161252Y0206071D02*
X0106562Y0206071D01*
X0106562Y0204873D02*
X0161252Y0204873D01*
X0161252Y0203674D02*
X0106562Y0203674D01*
X0106474Y0202476D02*
X0161252Y0202476D01*
X0161252Y0201277D02*
X0106341Y0201277D01*
X0106208Y0200079D02*
X0161252Y0200079D01*
X0161252Y0198880D02*
X0106075Y0198880D01*
X0105942Y0197682D02*
X0161252Y0197682D01*
X0161252Y0196483D02*
X0105809Y0196483D01*
X0105676Y0195285D02*
X0161252Y0195285D01*
X0161252Y0194086D02*
X0105543Y0194086D01*
X0105410Y0192888D02*
X0161252Y0192888D01*
X0161252Y0191689D02*
X0105277Y0191689D01*
X0105144Y0190491D02*
X0161252Y0190491D01*
X0161252Y0189292D02*
X0104935Y0189292D01*
X0104666Y0188094D02*
X0139238Y0188094D01*
X0139153Y0186895D02*
X0104397Y0186895D01*
X0104127Y0185697D02*
X0139153Y0185697D01*
X0139552Y0184611D02*
X0135552Y0180611D01*
X0108052Y0153111D01*
X0108052Y0108111D01*
X0115552Y0100611D01*
X0115952Y0100602D02*
X0125356Y0100602D01*
X0125356Y0099404D02*
X0120727Y0099404D01*
X0120721Y0099370D02*
X0120852Y0100194D01*
X0120852Y0100211D01*
X0115952Y0100211D01*
X0115952Y0095311D01*
X0115969Y0095311D01*
X0116793Y0095442D01*
X0117586Y0095699D01*
X0118330Y0096078D01*
X0119005Y0096568D01*
X0119595Y0097158D01*
X0120085Y0097833D01*
X0120464Y0098577D01*
X0120721Y0099370D01*
X0120275Y0098205D02*
X0125356Y0098205D01*
X0125356Y0097007D02*
X0119443Y0097007D01*
X0117800Y0095808D02*
X0125356Y0095808D01*
X0125356Y0094610D02*
X0078130Y0094610D01*
X0078867Y0093411D02*
X0125356Y0093411D01*
X0125356Y0092213D02*
X0079605Y0092213D01*
X0080342Y0091014D02*
X0125552Y0091014D01*
X0125552Y0089816D02*
X0081080Y0089816D01*
X0081817Y0088617D02*
X0125552Y0088617D01*
X0125552Y0087419D02*
X0082555Y0087419D01*
X0083292Y0086220D02*
X0112656Y0086220D01*
X0113841Y0086711D02*
X0110680Y0085402D01*
X0108261Y0082983D01*
X0106952Y0079822D01*
X0106952Y0076400D01*
X0108261Y0073240D01*
X0110680Y0070820D01*
X0113841Y0069511D01*
X0117263Y0069511D01*
X0120423Y0070820D01*
X0122843Y0073240D01*
X0124152Y0076400D01*
X0124152Y0079822D01*
X0122843Y0082983D01*
X0120423Y0085402D01*
X0117263Y0086711D01*
X0113841Y0086711D01*
X0110300Y0085022D02*
X0084030Y0085022D01*
X0084768Y0083823D02*
X0109102Y0083823D01*
X0108113Y0082625D02*
X0085505Y0082625D01*
X0086243Y0081426D02*
X0107617Y0081426D01*
X0107120Y0080228D02*
X0086980Y0080228D01*
X0087718Y0079029D02*
X0106952Y0079029D01*
X0106952Y0077831D02*
X0088455Y0077831D01*
X0089193Y0076632D02*
X0106952Y0076632D01*
X0107352Y0075434D02*
X0089930Y0075434D01*
X0090668Y0074235D02*
X0107849Y0074235D01*
X0108464Y0073037D02*
X0091405Y0073037D01*
X0092143Y0071838D02*
X0109663Y0071838D01*
X0111117Y0070640D02*
X0092881Y0070640D01*
X0093618Y0069441D02*
X0119210Y0069441D01*
X0119987Y0070640D02*
X0120433Y0070640D01*
X0121441Y0071838D02*
X0121655Y0071838D01*
X0122640Y0073037D02*
X0122878Y0073037D01*
X0123255Y0074235D02*
X0124098Y0074235D01*
X0123752Y0075434D02*
X0125552Y0075434D01*
X0125552Y0076632D02*
X0124152Y0076632D01*
X0124152Y0077831D02*
X0125552Y0077831D01*
X0125552Y0079029D02*
X0124152Y0079029D01*
X0123984Y0080228D02*
X0125552Y0080228D01*
X0125552Y0081426D02*
X0123487Y0081426D01*
X0122991Y0082625D02*
X0125552Y0082625D01*
X0125552Y0083823D02*
X0122002Y0083823D01*
X0120804Y0085022D02*
X0125552Y0085022D01*
X0125552Y0086220D02*
X0118448Y0086220D01*
X0115152Y0095311D02*
X0115152Y0100211D01*
X0110252Y0100211D01*
X0110252Y0100194D01*
X0110382Y0099370D01*
X0110640Y0098577D01*
X0111019Y0097833D01*
X0111509Y0097158D01*
X0112099Y0096568D01*
X0112774Y0096078D01*
X0113517Y0095699D01*
X0114311Y0095442D01*
X0115135Y0095311D01*
X0115152Y0095311D01*
X0115152Y0095808D02*
X0115952Y0095808D01*
X0115952Y0097007D02*
X0115152Y0097007D01*
X0115152Y0098205D02*
X0115952Y0098205D01*
X0115952Y0099404D02*
X0115152Y0099404D01*
X0115152Y0100602D02*
X0074442Y0100602D01*
X0075179Y0099404D02*
X0110377Y0099404D01*
X0110829Y0098205D02*
X0075917Y0098205D01*
X0076655Y0097007D02*
X0111661Y0097007D01*
X0113304Y0095808D02*
X0077392Y0095808D01*
X0073704Y0101801D02*
X0110374Y0101801D01*
X0110821Y0102999D02*
X0072967Y0102999D01*
X0072229Y0104198D02*
X0111644Y0104198D01*
X0113270Y0105396D02*
X0071492Y0105396D01*
X0070754Y0106595D02*
X0112638Y0106595D01*
X0111440Y0107793D02*
X0070017Y0107793D01*
X0069279Y0108992D02*
X0110919Y0108992D01*
X0110652Y0110190D02*
X0068542Y0110190D01*
X0067804Y0111389D02*
X0110652Y0111389D01*
X0111067Y0112587D02*
X0067066Y0112587D01*
X0066329Y0113786D02*
X0111797Y0113786D01*
X0113306Y0114984D02*
X0065591Y0114984D01*
X0064854Y0116183D02*
X0113438Y0116183D01*
X0111852Y0117382D02*
X0064116Y0117382D01*
X0064957Y0118580D02*
X0111090Y0118580D01*
X0110652Y0119779D02*
X0066420Y0119779D01*
X0067792Y0120977D02*
X0110652Y0120977D01*
X0110896Y0122176D02*
X0068963Y0122176D01*
X0070134Y0123374D02*
X0111393Y0123374D01*
X0112584Y0124573D02*
X0071305Y0124573D01*
X0072476Y0125771D02*
X0114432Y0125771D01*
X0114577Y0125711D02*
X0116527Y0125711D01*
X0118328Y0126457D01*
X0119706Y0127835D01*
X0120452Y0129636D01*
X0120452Y0131586D01*
X0119706Y0133387D01*
X0118328Y0134765D01*
X0116527Y0135511D01*
X0114577Y0135511D01*
X0112776Y0134765D01*
X0111398Y0133387D01*
X0110652Y0131586D01*
X0110652Y0129636D01*
X0111398Y0127835D01*
X0112776Y0126457D01*
X0114577Y0125711D01*
X0116672Y0125771D02*
X0118166Y0125771D01*
X0118840Y0126970D02*
X0119365Y0126970D01*
X0119844Y0128168D02*
X0120563Y0128168D01*
X0120340Y0129367D02*
X0121762Y0129367D01*
X0122961Y0130565D02*
X0120452Y0130565D01*
X0120378Y0131764D02*
X0124159Y0131764D01*
X0125358Y0132962D02*
X0119882Y0132962D01*
X0118932Y0134161D02*
X0126556Y0134161D01*
X0128052Y0133111D02*
X0115552Y0120611D01*
X0117666Y0116183D02*
X0118578Y0116183D01*
X0119252Y0117382D02*
X0119777Y0117382D01*
X0120014Y0118580D02*
X0120975Y0118580D01*
X0120452Y0119779D02*
X0122174Y0119779D01*
X0123372Y0120977D02*
X0120452Y0120977D01*
X0120208Y0122176D02*
X0124571Y0122176D01*
X0125769Y0123374D02*
X0120861Y0123374D01*
X0122059Y0124573D02*
X0126968Y0124573D01*
X0128052Y0123111D02*
X0115552Y0110611D01*
X0118465Y0106595D02*
X0125356Y0106595D01*
X0125356Y0107793D02*
X0119664Y0107793D01*
X0120185Y0108992D02*
X0125356Y0108992D01*
X0125356Y0110190D02*
X0120452Y0110190D01*
X0120452Y0111389D02*
X0125356Y0111389D01*
X0125356Y0112587D02*
X0120074Y0112587D01*
X0121272Y0113786D02*
X0125356Y0113786D01*
X0125356Y0114984D02*
X0122471Y0114984D01*
X0123670Y0116183D02*
X0125356Y0116183D01*
X0125356Y0117382D02*
X0124868Y0117382D01*
X0128052Y0123111D02*
X0168052Y0123111D01*
X0171792Y0126851D01*
X0171792Y0130611D01*
X0178052Y0130611D01*
X0180541Y0130565D02*
X0194798Y0130565D01*
X0194452Y0131400D02*
X0195761Y0128240D01*
X0198180Y0125820D01*
X0201341Y0124511D01*
X0204763Y0124511D01*
X0207923Y0125820D01*
X0210343Y0128240D01*
X0211652Y0131400D01*
X0211652Y0134822D01*
X0210343Y0137983D01*
X0207923Y0140402D01*
X0204763Y0141711D01*
X0201341Y0141711D01*
X0198180Y0140402D01*
X0195761Y0137983D01*
X0194452Y0134822D01*
X0194452Y0131400D01*
X0194452Y0131764D02*
X0180269Y0131764D01*
X0178880Y0132962D02*
X0194452Y0132962D01*
X0194452Y0134161D02*
X0175451Y0134161D01*
X0175551Y0132962D02*
X0177224Y0132962D01*
X0174948Y0136558D02*
X0195171Y0136558D01*
X0195667Y0137756D02*
X0175551Y0137756D01*
X0178052Y0140611D02*
X0171792Y0140611D01*
X0175551Y0142550D02*
X0176471Y0142550D01*
X0175551Y0143749D02*
X0214935Y0143749D01*
X0214935Y0144947D02*
X0164852Y0144947D01*
X0164852Y0146146D02*
X0214935Y0146146D01*
X0214935Y0147344D02*
X0164852Y0147344D01*
X0164852Y0148543D02*
X0214935Y0148543D01*
X0214935Y0149741D02*
X0164852Y0149741D01*
X0164852Y0150940D02*
X0214935Y0150940D01*
X0214935Y0152138D02*
X0164852Y0152138D01*
X0164852Y0153337D02*
X0214935Y0153337D01*
X0214935Y0154535D02*
X0164852Y0154535D01*
X0164852Y0155734D02*
X0214935Y0155734D01*
X0214935Y0156932D02*
X0164852Y0156932D01*
X0164852Y0158131D02*
X0214935Y0158131D01*
X0214935Y0159329D02*
X0164852Y0159329D01*
X0164852Y0160528D02*
X0214935Y0160528D01*
X0214935Y0161726D02*
X0164852Y0161726D01*
X0164852Y0162925D02*
X0214935Y0162925D01*
X0214935Y0164123D02*
X0164852Y0164123D01*
X0164852Y0165322D02*
X0214935Y0165322D01*
X0214935Y0166520D02*
X0164852Y0166520D01*
X0164852Y0167719D02*
X0214935Y0167719D01*
X0214935Y0168917D02*
X0164852Y0168917D01*
X0164852Y0170116D02*
X0214935Y0170116D01*
X0214935Y0171315D02*
X0164852Y0171315D01*
X0164852Y0172513D02*
X0214935Y0172513D01*
X0214935Y0173712D02*
X0164852Y0173712D01*
X0164852Y0174910D02*
X0214935Y0174910D01*
X0214935Y0176109D02*
X0164852Y0176109D01*
X0164852Y0177307D02*
X0214935Y0177307D01*
X0214935Y0178506D02*
X0164852Y0178506D01*
X0164852Y0179704D02*
X0214935Y0179704D01*
X0214935Y0180903D02*
X0164852Y0180903D01*
X0164852Y0182101D02*
X0214935Y0182101D01*
X0214935Y0188094D02*
X0179876Y0188094D01*
X0181395Y0189292D02*
X0214935Y0189292D01*
X0214935Y0190491D02*
X0182594Y0190491D01*
X0183236Y0191689D02*
X0214935Y0191689D01*
X0214935Y0192888D02*
X0183733Y0192888D01*
X0184152Y0194086D02*
X0214935Y0194086D01*
X0214935Y0195285D02*
X0184152Y0195285D01*
X0184152Y0196483D02*
X0214935Y0196483D01*
X0214935Y0197682D02*
X0184003Y0197682D01*
X0183506Y0198880D02*
X0214935Y0198880D01*
X0214935Y0200079D02*
X0183010Y0200079D01*
X0182048Y0201277D02*
X0214935Y0201277D01*
X0214935Y0202476D02*
X0180849Y0202476D01*
X0178558Y0203674D02*
X0214935Y0203674D01*
X0214935Y0204873D02*
X0164852Y0204873D01*
X0164852Y0206071D02*
X0214935Y0206071D01*
X0214935Y0207270D02*
X0164852Y0207270D01*
X0164852Y0208468D02*
X0181721Y0208468D01*
X0184383Y0208468D02*
X0214935Y0208468D01*
X0214935Y0142550D02*
X0179633Y0142550D01*
X0180439Y0141352D02*
X0200474Y0141352D01*
X0197932Y0140153D02*
X0180541Y0140153D01*
X0179916Y0138955D02*
X0196733Y0138955D01*
X0194675Y0135359D02*
X0166112Y0135359D01*
X0167467Y0136558D02*
X0168637Y0136558D01*
X0168133Y0134161D02*
X0167971Y0134161D01*
X0167879Y0126970D02*
X0168225Y0126970D01*
X0168166Y0125771D02*
X0123258Y0125771D01*
X0124456Y0126970D02*
X0160744Y0126970D01*
X0160553Y0128168D02*
X0125655Y0128168D01*
X0126853Y0129367D02*
X0160553Y0129367D01*
X0160553Y0130565D02*
X0128052Y0130565D01*
X0128052Y0133111D02*
X0148052Y0133111D01*
X0151792Y0136851D01*
X0151792Y0140611D01*
X0163052Y0140611D01*
X0164312Y0140611D01*
X0164312Y0130611D01*
X0160553Y0131764D02*
X0149250Y0131764D01*
X0150449Y0132962D02*
X0160553Y0132962D01*
X0160653Y0134161D02*
X0151647Y0134161D01*
X0152846Y0135359D02*
X0162512Y0135359D01*
X0161156Y0136558D02*
X0154948Y0136558D01*
X0155551Y0137756D02*
X0160553Y0137756D01*
X0170861Y0123374D02*
X0214782Y0123374D01*
X0214829Y0124573D02*
X0204911Y0124573D01*
X0207805Y0125771D02*
X0214876Y0125771D01*
X0214923Y0126970D02*
X0209073Y0126970D01*
X0210271Y0128168D02*
X0214935Y0128168D01*
X0214935Y0129367D02*
X0210810Y0129367D01*
X0211306Y0130565D02*
X0214935Y0130565D01*
X0214935Y0131764D02*
X0211652Y0131764D01*
X0211652Y0132962D02*
X0214935Y0132962D01*
X0214935Y0134161D02*
X0211652Y0134161D01*
X0211429Y0135359D02*
X0214935Y0135359D01*
X0214935Y0136558D02*
X0210933Y0136558D01*
X0210436Y0137756D02*
X0214935Y0137756D01*
X0214935Y0138955D02*
X0209371Y0138955D01*
X0208172Y0140153D02*
X0214935Y0140153D01*
X0214935Y0141352D02*
X0205630Y0141352D01*
X0195833Y0128168D02*
X0178658Y0128168D01*
X0177446Y0128168D02*
X0175551Y0128168D01*
X0175360Y0126970D02*
X0197031Y0126970D01*
X0198299Y0125771D02*
X0173258Y0125771D01*
X0172059Y0124573D02*
X0201193Y0124573D01*
X0195294Y0129367D02*
X0180231Y0129367D01*
X0169662Y0122176D02*
X0214614Y0122176D01*
X0172128Y0183300D02*
X0164852Y0183300D01*
X0161252Y0182101D02*
X0154551Y0182101D01*
X0154293Y0180903D02*
X0161252Y0180903D01*
X0161252Y0179704D02*
X0118621Y0179704D01*
X0119820Y0178506D02*
X0161252Y0178506D01*
X0161252Y0177307D02*
X0120622Y0177307D01*
X0121119Y0176109D02*
X0161252Y0176109D01*
X0161252Y0174910D02*
X0121615Y0174910D01*
X0121652Y0173712D02*
X0161252Y0173712D01*
X0161252Y0172513D02*
X0121652Y0172513D01*
X0121616Y0171315D02*
X0161252Y0171315D01*
X0161252Y0170116D02*
X0121120Y0170116D01*
X0120624Y0168917D02*
X0161252Y0168917D01*
X0161252Y0167719D02*
X0119822Y0167719D01*
X0118624Y0166520D02*
X0161252Y0166520D01*
X0161252Y0165322D02*
X0116720Y0165322D01*
X0116527Y0155511D02*
X0114577Y0155511D01*
X0112776Y0154765D01*
X0111398Y0153387D01*
X0110652Y0151586D01*
X0110652Y0149636D01*
X0111398Y0147835D01*
X0112776Y0146457D01*
X0114577Y0145711D01*
X0116527Y0145711D01*
X0118328Y0146457D01*
X0119706Y0147835D01*
X0120452Y0149636D01*
X0120452Y0151586D01*
X0119706Y0153387D01*
X0118328Y0154765D01*
X0116527Y0155511D01*
X0118557Y0154535D02*
X0141252Y0154535D01*
X0141252Y0153337D02*
X0119727Y0153337D01*
X0120223Y0152138D02*
X0141252Y0152138D01*
X0141252Y0150940D02*
X0120452Y0150940D01*
X0120452Y0149741D02*
X0141252Y0149741D01*
X0141252Y0148543D02*
X0119999Y0148543D01*
X0119215Y0147344D02*
X0141252Y0147344D01*
X0141252Y0146146D02*
X0117576Y0146146D01*
X0116527Y0145511D02*
X0114577Y0145511D01*
X0112776Y0144765D01*
X0111398Y0143387D01*
X0110652Y0141586D01*
X0110652Y0139636D01*
X0111398Y0137835D01*
X0112776Y0136457D01*
X0114577Y0135711D01*
X0116527Y0135711D01*
X0118328Y0136457D01*
X0119706Y0137835D01*
X0120452Y0139636D01*
X0120452Y0141586D01*
X0119706Y0143387D01*
X0118328Y0144765D01*
X0116527Y0145511D01*
X0117888Y0144947D02*
X0141252Y0144947D01*
X0140553Y0143749D02*
X0119344Y0143749D01*
X0120052Y0142550D02*
X0140553Y0142550D01*
X0140553Y0141352D02*
X0120452Y0141352D01*
X0120452Y0140153D02*
X0140553Y0140153D01*
X0140553Y0138955D02*
X0120170Y0138955D01*
X0119627Y0137756D02*
X0140553Y0137756D01*
X0141156Y0136558D02*
X0118428Y0136558D01*
X0116893Y0135359D02*
X0147755Y0135359D01*
X0147467Y0136558D02*
X0148637Y0136558D01*
X0144312Y0140611D02*
X0143052Y0141871D01*
X0143052Y0156891D01*
X0140563Y0156932D02*
X0094333Y0156932D01*
X0093766Y0155734D02*
X0140837Y0155734D01*
X0140872Y0158131D02*
X0094900Y0158131D01*
X0093198Y0154535D02*
X0112547Y0154535D01*
X0111377Y0153337D02*
X0092631Y0153337D01*
X0092063Y0152138D02*
X0110881Y0152138D01*
X0110652Y0150940D02*
X0091325Y0150940D01*
X0090586Y0149741D02*
X0110652Y0149741D01*
X0111105Y0148543D02*
X0089847Y0148543D01*
X0089107Y0147344D02*
X0111889Y0147344D01*
X0113528Y0146146D02*
X0088368Y0146146D01*
X0087629Y0144947D02*
X0113216Y0144947D01*
X0111760Y0143749D02*
X0086889Y0143749D01*
X0086150Y0142550D02*
X0111052Y0142550D01*
X0110652Y0141352D02*
X0085411Y0141352D01*
X0085029Y0140732D02*
X0085029Y0140732D01*
X0084576Y0140153D02*
X0110652Y0140153D01*
X0110934Y0138955D02*
X0083640Y0138955D01*
X0082703Y0137756D02*
X0111477Y0137756D01*
X0112676Y0136558D02*
X0081767Y0136558D01*
X0080830Y0135359D02*
X0114211Y0135359D01*
X0112172Y0134161D02*
X0079894Y0134161D01*
X0078958Y0132962D02*
X0111222Y0132962D01*
X0110726Y0131764D02*
X0078021Y0131764D01*
X0077085Y0130565D02*
X0110652Y0130565D01*
X0110764Y0129367D02*
X0075989Y0129367D01*
X0074818Y0128168D02*
X0111260Y0128168D01*
X0112264Y0126970D02*
X0073647Y0126970D01*
X0094356Y0068243D02*
X0117916Y0068243D01*
X0116538Y0067044D02*
X0095093Y0067044D01*
X0095831Y0065846D02*
X0115160Y0065846D01*
X0113782Y0064647D02*
X0096568Y0064647D01*
X0097306Y0063448D02*
X0112404Y0063448D01*
X0111027Y0062250D02*
X0098043Y0062250D01*
X0098781Y0061051D02*
X0109649Y0061051D01*
X0108271Y0059853D02*
X0099518Y0059853D01*
X0100256Y0058654D02*
X0106887Y0058654D01*
X0105265Y0057456D02*
X0100994Y0057456D01*
X0101731Y0056257D02*
X0103643Y0056257D01*
X0120730Y0101801D02*
X0125356Y0101801D01*
X0125356Y0102999D02*
X0120283Y0102999D01*
X0119460Y0104198D02*
X0125356Y0104198D01*
X0125356Y0105396D02*
X0117834Y0105396D01*
X0116714Y0180903D02*
X0139341Y0180903D01*
X0139552Y0184611D02*
X0140552Y0184611D01*
X0140552Y0203111D01*
X0142712Y0188094D02*
X0143912Y0188094D01*
X0143912Y0186895D02*
X0142712Y0186895D01*
X0142712Y0185697D02*
X0143912Y0185697D01*
X0143312Y0184611D02*
X0140552Y0184611D01*
X0154551Y0186895D02*
X0161252Y0186895D01*
X0161252Y0188094D02*
X0154518Y0188094D01*
X0164852Y0188094D02*
X0171228Y0188094D01*
X0169709Y0189292D02*
X0164852Y0189292D01*
X0164852Y0190491D02*
X0168510Y0190491D01*
X0167868Y0191689D02*
X0164852Y0191689D01*
X0164852Y0192888D02*
X0167371Y0192888D01*
X0166952Y0194086D02*
X0164852Y0194086D01*
X0164852Y0195285D02*
X0166952Y0195285D01*
X0166952Y0196483D02*
X0164852Y0196483D01*
X0164852Y0197682D02*
X0167101Y0197682D01*
X0167598Y0198880D02*
X0164852Y0198880D01*
X0164852Y0200079D02*
X0168094Y0200079D01*
X0169056Y0201277D02*
X0164852Y0201277D01*
X0164852Y0202476D02*
X0170255Y0202476D01*
X0172546Y0203674D02*
X0164852Y0203674D01*
X0115652Y0275585D02*
X0099855Y0275585D01*
X0101387Y0276784D02*
X0115652Y0276784D01*
X0115652Y0277982D02*
X0102585Y0277982D01*
X0103232Y0279181D02*
X0115652Y0279181D01*
X0115652Y0280379D02*
X0103729Y0280379D01*
X0104152Y0281578D02*
X0115652Y0281578D01*
X0115652Y0282776D02*
X0104152Y0282776D01*
X0104152Y0283975D02*
X0115652Y0283975D01*
X0115652Y0285173D02*
X0104006Y0285173D01*
X0103510Y0286372D02*
X0115652Y0286372D01*
X0115199Y0287570D02*
X0103014Y0287570D01*
X0102057Y0288769D02*
X0114000Y0288769D01*
X0112802Y0289967D02*
X0100858Y0289967D01*
X0098579Y0291166D02*
X0111603Y0291166D01*
X0109012Y0310342D02*
X0115107Y0310342D01*
X0113908Y0311540D02*
X0109122Y0311540D01*
X0108984Y0312739D02*
X0112709Y0312739D01*
X0111511Y0313937D02*
X0108520Y0313937D01*
X0107690Y0315136D02*
X0107683Y0315136D01*
X0109753Y0315136D02*
X0110312Y0315136D01*
X0110674Y0324724D02*
X0110708Y0324724D01*
X0103552Y0311540D02*
X0103208Y0311540D01*
X0101882Y0312739D02*
X0101133Y0312739D01*
D16*
X0103363Y0302800D02*
X0098722Y0302800D01*
X0103363Y0302800D02*
X0118052Y0288111D01*
X0118052Y0225611D01*
X0133052Y0210611D01*
X0163052Y0210611D01*
X0167312Y0214871D01*
X0167312Y0229611D01*
X0158052Y0218111D02*
X0160552Y0215611D01*
X0158052Y0218111D02*
X0138052Y0218111D01*
X0129312Y0226851D01*
X0129312Y0235611D01*
X0129312Y0244371D01*
X0133052Y0248111D01*
X0140552Y0248111D01*
X0133052Y0255611D01*
X0133052Y0270611D01*
X0140552Y0278111D01*
X0138052Y0278111D01*
X0133052Y0283111D01*
X0133052Y0295791D01*
X0108722Y0320121D01*
X0155552Y0253111D02*
X0150552Y0248111D01*
X0150552Y0243111D01*
X0154292Y0239371D01*
X0154292Y0235611D01*
X0146812Y0235611D02*
X0140552Y0235611D01*
X0136792Y0235611D01*
D17*
X0140552Y0235611D03*
X0140552Y0203111D03*
X0135552Y0180611D03*
X0143052Y0156891D03*
X0173052Y0175611D03*
X0173052Y0185611D03*
X0183052Y0210611D03*
X0195552Y0235611D03*
X0193052Y0240611D03*
X0163052Y0235611D03*
X0160552Y0215611D03*
X0178052Y0140611D03*
X0178052Y0130611D03*
M02*
